M48
; DRILL file {KiCad 9.99.0-1450-g65dfee161b} date 2025-07-10T00:36:25+0200
; FORMAT={-:-/ absolute / metric / decimal}
; #@! TF.CreationDate,2025-07-10T00:36:25+02:00
; #@! TF.GenerationSoftware,Kicad,Pcbnew,9.99.0-1450-g65dfee161b
; #@! TF.FileFunction,Plated,1,2,PTH
FMAT,2
METRIC
; #@! TA.AperFunction,Plated,PTH,ViaDrill
T1C0.300
; #@! TA.AperFunction,Plated,PTH,ComponentDrill
T2C0.300
; #@! TA.AperFunction,Plated,PTH,ComponentDrill
T3C0.750
; #@! TA.AperFunction,Plated,PTH,ComponentDrill
T4C0.800
; #@! TA.AperFunction,Plated,PTH,ComponentDrill
T5C1.100
; #@! TA.AperFunction,Plated,PTH,ComponentDrill
T6C1.300
%
G90
G05
T1
X5.588Y9.398
X6.985Y44.323
X7.366Y40.132
X7.604Y36.068
X8.128Y53.594
X8.382Y42.672
X8.382Y9.144
X8.636Y70.866
X9.144Y64.77
X10.16Y36.068
X11.43Y72.898
X11.938Y51.816
X12.192Y72.898
X12.319Y68.072
X12.446Y37.592
X12.7Y40.132
X12.954Y72.898
X13.716Y72.898
X14.111Y52.973
X14.478Y56.896
X15.494Y37.592
X16.002Y75.438
X16.002Y74.676
X16.002Y73.914
X17.526Y59.944
X18.796Y36.068
X19.431Y76.962
X19.558Y31.75
X19.558Y30.988
X20.32Y31.75
X20.32Y30.988
X20.447Y75.057
X20.574Y64.516
X20.808Y41.275
X21.082Y52.07
X21.082Y51.054
X21.082Y50.038
X21.336Y13.0
X21.463Y11.557
X21.844Y52.07
X21.844Y51.054
X21.844Y50.038
X21.844Y5.588
X22.129Y34.261
X22.86Y4.064
X23.114Y61.722
X23.114Y58.166
X24.247Y27.916
X24.341Y68.87
X24.469Y38.1
X25.4Y74.168
X25.489Y24.892
X26.289Y25.513
X26.924Y33.782
X27.089Y26.198
X28.194Y36.068
X28.956Y36.068
X28.956Y25.146
X31.087Y24.47
X32.258Y25.136
T2
X23.678Y36.266
X23.678Y35.186
X24.758Y36.266
X24.758Y35.186
T3
X4.572Y71.882
X5.842Y71.882
X5.842Y52.324
X5.842Y51.054
X5.842Y49.784
X7.112Y71.882
X7.493Y67.31
X7.493Y66.04
X7.493Y64.77
X8.382Y61.722
X8.382Y60.452
X8.382Y59.182
X21.844Y26.67
X21.844Y25.4
X21.844Y24.13
X25.4Y40.386
X26.67Y40.386
X27.94Y40.386
T4
X4.064Y41.402
X4.064Y38.862
X4.064Y36.322
X4.064Y33.782
X11.684Y41.402
X11.684Y38.862
X11.684Y36.322
X11.684Y33.782
T5
X33.4Y39.116
X33.4Y36.576
X33.4Y34.036
X33.4Y31.496
T6
X31.892Y59.798
X31.892Y54.798
M30
