%TF.GenerationSoftware,KiCad,Pcbnew,9.99.0-86-g03af293683*%
%TF.CreationDate,2025-02-25T09:18:42+01:00*%
%TF.ProjectId,RemBrake,52656d42-7261-46b6-952e-6b696361645f,2.0*%
%TF.SameCoordinates,PX7270e00PY8583b00*%
%TF.FileFunction,Copper,L2,Bot*%
%TF.FilePolarity,Positive*%
%FSLAX46Y46*%
G04 Gerber Fmt 4.6, Leading zero omitted, Abs format (unit mm)*
G04 Created by KiCad (PCBNEW 9.99.0-86-g03af293683) date 2025-02-25 09:18:42*
%MOMM*%
%LPD*%
G01*
G04 APERTURE LIST*
G04 Aperture macros list*
%AMRoundRect*
0 Rectangle with rounded corners*
0 $1 Rounding radius*
0 $2 $3 $4 $5 $6 $7 $8 $9 X,Y pos of 4 corners*
0 Add a 4 corners polygon primitive as box body*
4,1,4,$2,$3,$4,$5,$6,$7,$8,$9,$2,$3,0*
0 Add four circle primitives for the rounded corners*
1,1,$1+$1,$2,$3*
1,1,$1+$1,$4,$5*
1,1,$1+$1,$6,$7*
1,1,$1+$1,$8,$9*
0 Add four rect primitives between the rounded corners*
20,1,$1+$1,$2,$3,$4,$5,0*
20,1,$1+$1,$4,$5,$6,$7,0*
20,1,$1+$1,$6,$7,$8,$9,0*
20,1,$1+$1,$8,$9,$2,$3,0*%
G04 Aperture macros list end*
%TA.AperFunction,ComponentPad*%
%ADD10R,1.050000X1.500000*%
%TD*%
%TA.AperFunction,ComponentPad*%
%ADD11O,1.050000X1.500000*%
%TD*%
%TA.AperFunction,ComponentPad*%
%ADD12R,2.200000X2.200000*%
%TD*%
%TA.AperFunction,ComponentPad*%
%ADD13C,2.200000*%
%TD*%
%TA.AperFunction,ComponentPad*%
%ADD14R,2.600000X2.600000*%
%TD*%
%TA.AperFunction,ComponentPad*%
%ADD15C,2.600000*%
%TD*%
%TA.AperFunction,HeatsinkPad*%
%ADD16C,0.500000*%
%TD*%
%TA.AperFunction,HeatsinkPad*%
%ADD17R,1.680000X1.680000*%
%TD*%
%TA.AperFunction,ComponentPad*%
%ADD18R,1.500000X1.050000*%
%TD*%
%TA.AperFunction,ComponentPad*%
%ADD19O,1.500000X1.050000*%
%TD*%
%TA.AperFunction,ComponentPad*%
%ADD20R,1.600000X1.600000*%
%TD*%
%TA.AperFunction,ComponentPad*%
%ADD21O,1.600000X1.600000*%
%TD*%
%TA.AperFunction,SMDPad,CuDef*%
%ADD22RoundRect,0.250000X-0.350000X-0.450000X0.350000X-0.450000X0.350000X0.450000X-0.350000X0.450000X0*%
%TD*%
%TA.AperFunction,SMDPad,CuDef*%
%ADD23RoundRect,0.250000X0.450000X-0.350000X0.450000X0.350000X-0.450000X0.350000X-0.450000X-0.350000X0*%
%TD*%
%TA.AperFunction,SMDPad,CuDef*%
%ADD24RoundRect,0.225000X0.375000X-0.225000X0.375000X0.225000X-0.375000X0.225000X-0.375000X-0.225000X0*%
%TD*%
%TA.AperFunction,SMDPad,CuDef*%
%ADD25RoundRect,0.250000X0.350000X0.450000X-0.350000X0.450000X-0.350000X-0.450000X0.350000X-0.450000X0*%
%TD*%
%TA.AperFunction,SMDPad,CuDef*%
%ADD26RoundRect,0.150000X0.587500X0.150000X-0.587500X0.150000X-0.587500X-0.150000X0.587500X-0.150000X0*%
%TD*%
%TA.AperFunction,SMDPad,CuDef*%
%ADD27RoundRect,0.225000X0.225000X0.375000X-0.225000X0.375000X-0.225000X-0.375000X0.225000X-0.375000X0*%
%TD*%
%TA.AperFunction,SMDPad,CuDef*%
%ADD28RoundRect,0.250000X-0.450000X0.350000X-0.450000X-0.350000X0.450000X-0.350000X0.450000X0.350000X0*%
%TD*%
%TA.AperFunction,SMDPad,CuDef*%
%ADD29RoundRect,0.250000X-1.100000X0.250000X-1.100000X-0.250000X1.100000X-0.250000X1.100000X0.250000X0*%
%TD*%
%TA.AperFunction,SMDPad,CuDef*%
%ADD30RoundRect,0.250000X-1.650000X0.650000X-1.650000X-0.650000X1.650000X-0.650000X1.650000X0.650000X0*%
%TD*%
%TA.AperFunction,SMDPad,CuDef*%
%ADD31RoundRect,0.250000X-0.337500X-0.475000X0.337500X-0.475000X0.337500X0.475000X-0.337500X0.475000X0*%
%TD*%
%TA.AperFunction,SMDPad,CuDef*%
%ADD32R,2.200000X3.000000*%
%TD*%
%TA.AperFunction,SMDPad,CuDef*%
%ADD33RoundRect,0.300000X1.200000X0.700000X-1.200000X0.700000X-1.200000X-0.700000X1.200000X-0.700000X0*%
%TD*%
%TA.AperFunction,SMDPad,CuDef*%
%ADD34R,2.700000X3.200000*%
%TD*%
%TA.AperFunction,SMDPad,CuDef*%
%ADD35RoundRect,0.300000X0.700000X1.200000X-0.700000X1.200000X-0.700000X-1.200000X0.700000X-1.200000X0*%
%TD*%
%TA.AperFunction,SMDPad,CuDef*%
%ADD36RoundRect,0.250000X0.475000X-0.337500X0.475000X0.337500X-0.475000X0.337500X-0.475000X-0.337500X0*%
%TD*%
%TA.AperFunction,SMDPad,CuDef*%
%ADD37R,1.500000X1.500000*%
%TD*%
%TA.AperFunction,SMDPad,CuDef*%
%ADD38RoundRect,0.250000X-0.475000X0.337500X-0.475000X-0.337500X0.475000X-0.337500X0.475000X0.337500X0*%
%TD*%
%TA.AperFunction,SMDPad,CuDef*%
%ADD39R,3.000000X1.700000*%
%TD*%
%TA.AperFunction,SMDPad,CuDef*%
%ADD40RoundRect,0.250000X1.250000X-0.600000X1.250000X0.600000X-1.250000X0.600000X-1.250000X-0.600000X0*%
%TD*%
%TA.AperFunction,SMDPad,CuDef*%
%ADD41R,3.000000X3.000000*%
%TD*%
%TA.AperFunction,ViaPad*%
%ADD42C,0.700000*%
%TD*%
%TA.AperFunction,Conductor*%
%ADD43C,1.000000*%
%TD*%
%TA.AperFunction,Conductor*%
%ADD44C,0.300000*%
%TD*%
%TA.AperFunction,Conductor*%
%ADD45C,0.250000*%
%TD*%
%TA.AperFunction,Conductor*%
%ADD46C,0.800000*%
%TD*%
%TA.AperFunction,Conductor*%
%ADD47C,0.600000*%
%TD*%
%TA.AperFunction,Conductor*%
%ADD48C,0.500000*%
%TD*%
G04 APERTURE END LIST*
D10*
%TO.P,Q2,1,C*%
%TO.N,Net-(Q2-C)*%
X23368000Y42418000D03*
D11*
%TO.P,Q2,2,B*%
%TO.N,Net-(Q2-B)*%
X24638000Y42418000D03*
%TO.P,Q2,3,E*%
%TO.N,Net-(Q2-E)*%
X25908000Y42418000D03*
%TD*%
D12*
%TO.P,J3,1,Pin_1*%
%TO.N,/power_switch/BOOST*%
X33416000Y35245400D03*
D13*
%TO.P,J3,2,Pin_2*%
%TO.N,GND*%
X33416000Y37785400D03*
%TO.P,J3,3,Pin_3*%
%TO.N,/power_switch/ON{slash}OFF*%
X33416000Y40325400D03*
%TO.P,J3,4,Pin_4*%
%TO.N,/power_manager/VBATT*%
X33416000Y42865400D03*
%TD*%
D14*
%TO.P,J1,1,Pin_1*%
%TO.N,GND*%
X31892200Y54797600D03*
D15*
%TO.P,J1,2,Pin_2*%
%TO.N,Net-(J1-Pin_2)*%
X31892200Y59797600D03*
%TD*%
D10*
%TO.P,Q6,1,C*%
%TO.N,Net-(Q6-C)*%
X25400000Y26268000D03*
D11*
%TO.P,Q6,2,B*%
%TO.N,Net-(Q6-B)*%
X24130000Y26268000D03*
%TO.P,Q6,3,E*%
%TO.N,Net-(Q6-E)*%
X22860000Y26268000D03*
%TD*%
D16*
%TO.P,U1,17,GND*%
%TO.N,GND*%
X24860000Y35465000D03*
X24860000Y34385000D03*
D17*
X25400000Y34925000D03*
D16*
X25940000Y35465000D03*
X25940000Y34385000D03*
%TD*%
D18*
%TO.P,Q4,1,C*%
%TO.N,Net-(Q4-C)*%
X8382000Y52959000D03*
D19*
%TO.P,Q4,2,B*%
%TO.N,Net-(Q4-B)*%
X8382000Y51689000D03*
%TO.P,Q4,3,E*%
%TO.N,Net-(Q4-E)*%
X8382000Y50419000D03*
%TD*%
D20*
%TO.P,U5,1,GND*%
%TO.N,GND*%
X4318000Y41656000D03*
D21*
%TO.P,U5,2,TR*%
%TO.N,Net-(U5-THR)*%
X4318000Y39116000D03*
%TO.P,U5,3,Q*%
%TO.N,Net-(U5-Q)*%
X4318000Y36576000D03*
%TO.P,U5,4,R*%
%TO.N,/brake_control/STATUS*%
X4318000Y34036000D03*
%TO.P,U5,5,CV*%
%TO.N,Net-(U5-CV)*%
X11938000Y34036000D03*
%TO.P,U5,6,THR*%
%TO.N,Net-(U5-THR)*%
X11938000Y36576000D03*
%TO.P,U5,7,DIS*%
%TO.N,Net-(U5-DIS)*%
X11938000Y39116000D03*
%TO.P,U5,8,VCC*%
%TO.N,+5V*%
X11938000Y41656000D03*
%TD*%
D10*
%TO.P,Q8,1,C*%
%TO.N,Net-(Q8-C)*%
X7493000Y70769000D03*
D11*
%TO.P,Q8,2,B*%
%TO.N,Net-(Q8-B)*%
X6223000Y70769000D03*
%TO.P,Q8,3,E*%
%TO.N,Net-(Q8-E)*%
X4953000Y70769000D03*
%TD*%
D22*
%TO.P,R38,1*%
%TO.N,GND*%
X22130000Y24003000D03*
%TO.P,R38,2*%
%TO.N,Net-(Q6-B)*%
X24130000Y24003000D03*
%TD*%
D23*
%TO.P,R3,1*%
%TO.N,/brake_control/POWER SW*%
X22860000Y38624000D03*
%TO.P,R3,2*%
%TO.N,Net-(Q2-C)*%
X22860000Y40624000D03*
%TD*%
%TO.P,R13,1*%
%TO.N,GND*%
X28956000Y41545000D03*
%TO.P,R13,2*%
%TO.N,Net-(Q2-E)*%
X28956000Y43545000D03*
%TD*%
D24*
%TO.P,D1,1,K*%
%TO.N,/power_switch/BOOST*%
X30480000Y35307000D03*
%TO.P,D1,2,A*%
%TO.N,/power_switch/ON{slash}OFF*%
X30480000Y38607000D03*
%TD*%
D23*
%TO.P,R42,1*%
%TO.N,GND*%
X20066000Y24273000D03*
%TO.P,R42,2*%
%TO.N,Net-(Q6-E)*%
X20066000Y26273000D03*
%TD*%
D25*
%TO.P,R40,1*%
%TO.N,/brake_control/RF SWITCH*%
X19018000Y14859000D03*
%TO.P,R40,2*%
%TO.N,Net-(M1-D2)*%
X17018000Y14859000D03*
%TD*%
D26*
%TO.P,Q3,1,B*%
%TO.N,Net-(Q2-B)*%
X18893000Y44003000D03*
%TO.P,Q3,2,E*%
%TO.N,GND*%
X18893000Y42103000D03*
%TO.P,Q3,3,C*%
%TO.N,/control_connector/LED RED*%
X17018000Y43053000D03*
%TD*%
D23*
%TO.P,R55,1*%
%TO.N,Net-(M2-LED)*%
X6223000Y66675000D03*
%TO.P,R55,2*%
%TO.N,Net-(Q8-B)*%
X6223000Y68675000D03*
%TD*%
D22*
%TO.P,R10,1*%
%TO.N,Net-(U1-FB)*%
X21199600Y33909000D03*
%TO.P,R10,2*%
%TO.N,GND*%
X23199600Y33909000D03*
%TD*%
D25*
%TO.P,R39,1*%
%TO.N,/brake_control/RF SWITCH*%
X19018000Y9779000D03*
%TO.P,R39,2*%
%TO.N,Net-(M1-D0)*%
X17018000Y9779000D03*
%TD*%
D27*
%TO.P,D3,1,K*%
%TO.N,/brake_control/BUZZ*%
X20319000Y29845000D03*
%TO.P,D3,2,A*%
%TO.N,Net-(D3-A)*%
X17019000Y29845000D03*
%TD*%
D25*
%TO.P,R44,1*%
%TO.N,/brake_control/RF SWITCH*%
X19018000Y17399000D03*
%TO.P,R44,2*%
%TO.N,Net-(M1-D3)*%
X17018000Y17399000D03*
%TD*%
D28*
%TO.P,R31,1*%
%TO.N,+5V*%
X14351000Y41640000D03*
%TO.P,R31,2*%
%TO.N,Net-(U5-DIS)*%
X14351000Y39640000D03*
%TD*%
D29*
%TO.P,J6,1,Pin_1*%
%TO.N,/brake_control/BUZZER*%
X28824000Y10763000D03*
%TO.P,J6,2,Pin_2*%
%TO.N,/control_connector/BUTTON*%
X28824000Y8763000D03*
%TO.P,J6,3,Pin_3*%
%TO.N,GND*%
X28824000Y6763000D03*
D30*
%TO.P,J6,MP,MountPin*%
X33274000Y13113000D03*
X33274000Y4413000D03*
%TD*%
D23*
%TO.P,R56,1*%
%TO.N,Net-(M2-LED)*%
X4064000Y66675000D03*
%TO.P,R56,2*%
%TO.N,Net-(Q8-E)*%
X4064000Y68675000D03*
%TD*%
%TO.P,R5,1*%
%TO.N,/brake_control/POWER SW*%
X26924000Y38624000D03*
%TO.P,R5,2*%
%TO.N,Net-(Q2-E)*%
X26924000Y40624000D03*
%TD*%
D22*
%TO.P,R46,1*%
%TO.N,Net-(U5-Q)*%
X6636000Y35941000D03*
%TO.P,R46,2*%
%TO.N,Net-(D3-A)*%
X8636000Y35941000D03*
%TD*%
D31*
%TO.P,C6,1*%
%TO.N,Net-(U5-CV)*%
X14202500Y33528000D03*
%TO.P,C6,2*%
%TO.N,GND*%
X16277500Y33528000D03*
%TD*%
D28*
%TO.P,R11,1*%
%TO.N,/control_connector/LED RED*%
X20828000Y41767000D03*
%TO.P,R11,2*%
%TO.N,Net-(Q2-C)*%
X20828000Y39767000D03*
%TD*%
D22*
%TO.P,R18,1*%
%TO.N,/power_switch/ON{slash}OFF*%
X4207000Y51689000D03*
%TO.P,R18,2*%
%TO.N,Net-(Q4-B)*%
X6207000Y51689000D03*
%TD*%
D25*
%TO.P,R47,1*%
%TO.N,GND*%
X9890000Y33401000D03*
%TO.P,R47,2*%
%TO.N,Net-(D3-A)*%
X7890000Y33401000D03*
%TD*%
D28*
%TO.P,R35,1*%
%TO.N,/brake_control/BUZZ*%
X22225000Y30210000D03*
%TO.P,R35,2*%
%TO.N,Net-(Q6-E)*%
X22225000Y28210000D03*
%TD*%
D23*
%TO.P,R4,1*%
%TO.N,/brake_control/POWER SW*%
X24892000Y38624000D03*
%TO.P,R4,2*%
%TO.N,Net-(Q2-B)*%
X24892000Y40624000D03*
%TD*%
%TO.P,R2,1*%
%TO.N,GND*%
X17780000Y24527000D03*
%TO.P,R2,2*%
%TO.N,/brake_control/POWER SW*%
X17780000Y26527000D03*
%TD*%
D32*
%TO.P,M2,1,Vin*%
%TO.N,Net-(M2-Vin)*%
X11812000Y75106000D03*
%TO.P,M2,2,GND*%
%TO.N,GND*%
X27812000Y75106000D03*
D33*
X27412000Y59451000D03*
D34*
%TO.P,M2,3,BAT+*%
%TO.N,/power_manager/VBATT*%
X27562000Y47006000D03*
D35*
X22352000Y46906000D03*
%TO.P,M2,4,BM*%
%TO.N,/power_manager/BM*%
X19812000Y46906000D03*
D34*
%TO.P,M2,5,BAT-*%
%TO.N,GND*%
X12062000Y47006000D03*
D35*
X17272000Y46906000D03*
D33*
%TO.P,M2,6,LED*%
%TO.N,Net-(M2-LED)*%
X27412000Y64531000D03*
%TD*%
D25*
%TO.P,R24,1*%
%TO.N,GND*%
X8096000Y47244000D03*
%TO.P,R24,2*%
%TO.N,Net-(Q4-E)*%
X6096000Y47244000D03*
%TD*%
D36*
%TO.P,C2,1*%
%TO.N,Net-(U1-SS{slash}TR)*%
X27686000Y34649500D03*
%TO.P,C2,2*%
%TO.N,GND*%
X27686000Y36724500D03*
%TD*%
D25*
%TO.P,R48,1*%
%TO.N,GND*%
X25765000Y6604000D03*
%TO.P,R48,2*%
%TO.N,/brake_control/BTN*%
X23765000Y6604000D03*
%TD*%
D28*
%TO.P,R23,1*%
%TO.N,GND*%
X9271000Y57388000D03*
%TO.P,R23,2*%
%TO.N,Net-(Q4-B)*%
X9271000Y55388000D03*
%TD*%
D25*
%TO.P,R43,1*%
%TO.N,/brake_control/RF SWITCH*%
X19018000Y12319000D03*
%TO.P,R43,2*%
%TO.N,Net-(M1-D1)*%
X17018000Y12319000D03*
%TD*%
D37*
%TO.P,TP2,1,1*%
%TO.N,GND*%
X8128000Y41656000D03*
%TD*%
D25*
%TO.P,R16,1*%
%TO.N,GND*%
X8096000Y45085000D03*
%TO.P,R16,2*%
%TO.N,/power_switch/ON{slash}OFF*%
X6096000Y45085000D03*
%TD*%
D28*
%TO.P,R34,1*%
%TO.N,/brake_control/BUZZ*%
X24130000Y30210000D03*
%TO.P,R34,2*%
%TO.N,Net-(Q6-B)*%
X24130000Y28210000D03*
%TD*%
%TO.P,R32,1*%
%TO.N,Net-(U5-DIS)*%
X14351000Y37719000D03*
%TO.P,R32,2*%
%TO.N,Net-(U5-THR)*%
X14351000Y35719000D03*
%TD*%
D25*
%TO.P,R49,1*%
%TO.N,/control_connector/BUTTON*%
X25765000Y8763000D03*
%TO.P,R49,2*%
%TO.N,/brake_control/BTN*%
X23765000Y8763000D03*
%TD*%
D23*
%TO.P,R33,1*%
%TO.N,Net-(Q6-C)*%
X26035000Y28210000D03*
%TO.P,R33,2*%
%TO.N,/brake_control/BUZZ*%
X26035000Y30210000D03*
%TD*%
D29*
%TO.P,J5,1,Pin_1*%
%TO.N,+3V3*%
X28828600Y24336000D03*
%TO.P,J5,2,Pin_2*%
%TO.N,/brake_control/I2C.SCL*%
X28828600Y22336000D03*
%TO.P,J5,3,Pin_3*%
%TO.N,/brake_control/I2C.SDA*%
X28828600Y20336000D03*
%TO.P,J5,4,Pin_4*%
%TO.N,GND*%
X28828600Y18336000D03*
D30*
%TO.P,J5,MP,MountPin*%
X33278600Y26686000D03*
X33278600Y15986000D03*
%TD*%
D22*
%TO.P,R19,1*%
%TO.N,/power_switch/ON{slash}OFF*%
X4207000Y49530000D03*
%TO.P,R19,2*%
%TO.N,Net-(Q4-E)*%
X6207000Y49530000D03*
%TD*%
D25*
%TO.P,R41,1*%
%TO.N,/brake_control/RF SWITCH*%
X19018000Y19939000D03*
%TO.P,R41,2*%
%TO.N,Net-(M1-VT)*%
X17018000Y19939000D03*
%TD*%
D38*
%TO.P,C5,1*%
%TO.N,Net-(U5-THR)*%
X16510000Y37740500D03*
%TO.P,C5,2*%
%TO.N,GND*%
X16510000Y35665500D03*
%TD*%
D22*
%TO.P,R17,1*%
%TO.N,/power_switch/ON{slash}OFF*%
X4207000Y53848000D03*
%TO.P,R17,2*%
%TO.N,Net-(Q4-C)*%
X6207000Y53848000D03*
%TD*%
D23*
%TO.P,R54,1*%
%TO.N,Net-(M2-LED)*%
X8382000Y66675000D03*
%TO.P,R54,2*%
%TO.N,Net-(Q8-C)*%
X8382000Y68675000D03*
%TD*%
D39*
%TO.P,M1,1,VT*%
%TO.N,Net-(M1-VT)*%
X14352000Y19886000D03*
D40*
%TO.P,M1,2,D3*%
%TO.N,Net-(M1-D3)*%
X14352000Y17346000D03*
%TO.P,M1,3,D2*%
%TO.N,Net-(M1-D2)*%
X14352000Y14806000D03*
%TO.P,M1,4,D1*%
%TO.N,Net-(M1-D1)*%
X14352000Y12266000D03*
%TO.P,M1,5,D0*%
%TO.N,Net-(M1-D0)*%
X14352000Y9726000D03*
%TO.P,M1,6,V+*%
%TO.N,+5V*%
X14352000Y7186000D03*
%TO.P,M1,7,GND*%
%TO.N,GND*%
X14352000Y4646000D03*
D41*
%TO.P,M1,8,Ant*%
%TO.N,unconnected-(M1-Ant-Pad8)*%
X4952000Y30226000D03*
%TD*%
D22*
%TO.P,R9,1*%
%TO.N,Net-(D2-A)*%
X20447000Y35941000D03*
%TO.P,R9,2*%
%TO.N,Net-(U1-FB)*%
X22447000Y35941000D03*
%TD*%
D25*
%TO.P,R45,1*%
%TO.N,GND*%
X21050000Y5080000D03*
%TO.P,R45,2*%
%TO.N,/brake_control/RF SWITCH*%
X19050000Y5080000D03*
%TD*%
D42*
%TO.N,GND*%
X12141200Y31292800D03*
X6477000Y10541000D03*
X14351000Y58420000D03*
X6477000Y4445000D03*
X15189200Y72390000D03*
X12446000Y25273000D03*
%TO.N,+5V*%
X11684000Y7186000D03*
%TO.N,/brake_control/I2C.SDA*%
X21590000Y8255000D03*
X21844000Y59690000D03*
X34163000Y29210000D03*
%TO.N,/brake_control/I2C.SCL*%
X20574000Y7366000D03*
X32385000Y29210000D03*
X21844000Y57658000D03*
%TO.N,/brake_control/SERVO*%
X8280400Y14478000D03*
X10541000Y25527000D03*
%TO.N,Net-(U1-SS{slash}TR)*%
X27432000Y33147000D03*
%TO.N,/brake_control/BUZZER*%
X32101500Y19350260D03*
%TO.N,/brake_control/BUZZ*%
X27432000Y25400000D03*
%TO.N,Net-(D2-A)*%
X25654000Y32512000D03*
X20447000Y37465000D03*
X25654000Y37465000D03*
%TO.N,+3V3*%
X16002000Y23876000D03*
X31242000Y32258000D03*
X19177000Y67310000D03*
X10922000Y10414000D03*
X23114000Y60833000D03*
%TO.N,/power_manager/VBATT*%
X20828000Y53386000D03*
X20828000Y51862000D03*
X20828000Y50338000D03*
%TO.N,/power_manager/BM*%
X24892000Y69896000D03*
%TO.N,/brake_control/POWER SW*%
X6223000Y14478000D03*
%TO.N,/control_connector/LED RED*%
X20828000Y43053000D03*
%TO.N,/brake_control/RF SWITCH*%
X17145000Y2794000D03*
%TO.N,Net-(U1-FB)*%
X24384000Y32512000D03*
%TO.N,Net-(M2-LED)*%
X25019000Y73406000D03*
%TO.N,Net-(M2-Vin)*%
X16764000Y72517000D03*
X19177000Y72263000D03*
%TO.N,/brake_control/BTN*%
X23749000Y10464800D03*
%TD*%
D43*
%TO.N,+5V*%
X14351000Y41640000D02*
X15002000Y41640000D01*
X18169000Y38473000D02*
X18169000Y29067844D01*
X4699000Y26568400D02*
X4699000Y8636000D01*
X4699000Y8636000D02*
X6149000Y7186000D01*
X5868522Y27737922D02*
X4699000Y26568400D01*
X15002000Y41640000D02*
X18169000Y38473000D01*
X16839078Y27737922D02*
X5868522Y27737922D01*
X18169000Y29067844D02*
X16839078Y27737922D01*
X6149000Y7186000D02*
X14352000Y7186000D01*
X11954000Y41640000D02*
X11938000Y41656000D01*
D44*
%TO.N,/brake_control/I2C.SDA*%
X25955653Y20336000D02*
X21590000Y15970347D01*
X21844000Y59690000D02*
X21844000Y59080400D01*
X30381000Y27714000D02*
X30381000Y25981834D01*
X31076000Y28409000D02*
X30381000Y27714000D01*
X28828600Y20336000D02*
X25955653Y20336000D01*
X30381000Y25981834D02*
X31589000Y24773834D01*
X21844000Y59080400D02*
X22665400Y58259000D01*
X37035000Y49939570D02*
X37035000Y32082000D01*
X33362000Y28409000D02*
X34163000Y29210000D01*
X22665400Y58259000D02*
X23508570Y58259000D01*
X30877000Y20336000D02*
X31589000Y21048000D01*
X31076000Y28409000D02*
X33362000Y28409000D01*
X27523385Y54244185D02*
X27523385Y53228185D01*
X31589000Y24773834D02*
X31589000Y21048000D01*
X27523385Y53228185D02*
X28857570Y51894000D01*
X28857570Y51894000D02*
X35080570Y51894000D01*
X23508570Y58259000D02*
X27523385Y54244185D01*
X28828600Y20336000D02*
X30877000Y20336000D01*
X35080570Y51894000D02*
X37035000Y49939570D01*
X21590000Y15970347D02*
X21590000Y8255000D01*
X37035000Y32082000D02*
X34163000Y29210000D01*
%TO.N,/brake_control/I2C.SCL*%
X34831628Y51293000D02*
X36434000Y49690628D01*
X36434000Y33259000D02*
X32385000Y29210000D01*
X26909000Y54008628D02*
X26909000Y52992628D01*
X30988000Y22733000D02*
X30591000Y22336000D01*
X20574000Y7366000D02*
X20574000Y15804289D01*
X21844000Y57658000D02*
X23259628Y57658000D01*
X27105711Y22336000D02*
X28828600Y22336000D01*
X23259628Y57658000D02*
X26909000Y54008628D01*
X30591000Y22336000D02*
X28828600Y22336000D01*
X20574000Y15804289D02*
X27105711Y22336000D01*
X29780000Y27962942D02*
X29780000Y25732892D01*
X29780000Y25732892D02*
X30988000Y24524892D01*
X36434000Y49690628D02*
X36434000Y33259000D01*
X28608628Y51293000D02*
X34831628Y51293000D01*
X32385000Y29210000D02*
X31027058Y29210000D01*
X31027058Y29210000D02*
X29780000Y27962942D01*
X30988000Y24524892D02*
X30988000Y22733000D01*
X26909000Y52992628D02*
X28608628Y51293000D01*
%TO.N,/brake_control/SERVO*%
X8280400Y23266400D02*
X8280400Y14478000D01*
X10541000Y25527000D02*
X8280400Y23266400D01*
%TO.N,Net-(U1-SS{slash}TR)*%
X27432000Y34395500D02*
X27686000Y34649500D01*
X27432000Y33147000D02*
X27432000Y34395500D01*
%TO.N,/power_switch/ON{slash}OFF*%
X10152000Y44696000D02*
X10922000Y44696000D01*
X7366000Y43815000D02*
X9271000Y43815000D01*
X6112000Y45069000D02*
X7366000Y43815000D01*
X13335000Y44696000D02*
X11811000Y44696000D01*
X13335000Y44696000D02*
X29744712Y44696000D01*
X9271000Y43815000D02*
X10152000Y44696000D01*
X30480000Y38607000D02*
X30480000Y43960712D01*
X6112000Y45085000D02*
X6112000Y45069000D01*
X30480000Y43960712D02*
X29744712Y44696000D01*
X11811000Y44696000D02*
X10922000Y44696000D01*
%TO.N,/brake_control/BUZZER*%
X26517600Y19304000D02*
X26009600Y18796000D01*
X27845000Y10763000D02*
X28824000Y10763000D01*
X26009600Y12598400D02*
X27845000Y10763000D01*
X26009600Y18796000D02*
X26009600Y12598400D01*
X26517600Y19304000D02*
X31911480Y19304000D01*
%TO.N,/brake_control/BUZZ*%
X26889200Y30210000D02*
X26035000Y30210000D01*
X27432000Y29667200D02*
X26889200Y30210000D01*
X27432000Y25654000D02*
X27432000Y29667200D01*
%TO.N,Net-(D2-A)*%
X25654000Y32512000D02*
X24853000Y31711000D01*
X24853000Y31711000D02*
X20849768Y31711000D01*
X25654000Y37465000D02*
X20447000Y37465000D01*
X20849768Y31711000D02*
X20066000Y32494768D01*
X20066000Y32494768D02*
X20066000Y35560000D01*
D45*
X20701000Y37465000D02*
X20447000Y37211000D01*
D44*
X20066000Y35560000D02*
X20447000Y35941000D01*
D45*
X25654000Y37465000D02*
X20701000Y37465000D01*
D44*
X20447000Y37465000D02*
X20447000Y35941000D01*
D43*
%TO.N,+3V3*%
X20574000Y56388000D02*
X19812000Y57150000D01*
X25837793Y22413000D02*
X27760793Y24336000D01*
X31242000Y32258000D02*
X33909000Y32258000D01*
X28829000Y24336400D02*
X28829000Y29845000D01*
X19812000Y60198000D02*
X20447000Y60833000D01*
X21971000Y67310000D02*
X23749000Y65532000D01*
X28194000Y50292000D02*
X25908000Y52578000D01*
X10922000Y21717000D02*
X10922000Y10541000D01*
X34417000Y50292000D02*
X28194000Y50292000D01*
X27760793Y24336000D02*
X28828600Y24336000D01*
X33909000Y32258000D02*
X35433000Y33782000D01*
X35433000Y33782000D02*
X35433000Y49276000D01*
X10922000Y21717000D02*
X13081000Y23876000D01*
X16002000Y23876000D02*
X17465000Y22413000D01*
X28828600Y24336000D02*
X28829000Y24336400D01*
X31242000Y32258000D02*
X28829000Y29845000D01*
X25908000Y53594000D02*
X23114000Y56388000D01*
X35433000Y49276000D02*
X34417000Y50292000D01*
X23749000Y61468000D02*
X23749000Y65532000D01*
X25908000Y52578000D02*
X25908000Y53594000D01*
X20447000Y60833000D02*
X23114000Y60833000D01*
X23114000Y56388000D02*
X20574000Y56388000D01*
X19177000Y67310000D02*
X21971000Y67310000D01*
X16002000Y23876000D02*
X13081000Y23876000D01*
X23114000Y60833000D02*
X23749000Y61468000D01*
X19812000Y57150000D02*
X19812000Y60198000D01*
X17465000Y22413000D02*
X25837793Y22413000D01*
D46*
%TO.N,/power_manager/BM*%
X19604000Y69896000D02*
X17907000Y68199000D01*
X24892000Y69896000D02*
X19604000Y69896000D01*
X17907000Y51587400D02*
X19812000Y49682400D01*
X17907000Y68199000D02*
X17907000Y51587400D01*
X19812000Y49682400D02*
X19812000Y46906000D01*
D44*
%TO.N,/brake_control/POWER SW*%
X8016800Y26508000D02*
X17707338Y26508000D01*
X17707338Y26508000D02*
X19220000Y28020662D01*
X6223000Y24714200D02*
X8016800Y26508000D01*
X19220000Y28020662D02*
X19220000Y37512207D01*
X20331793Y38624000D02*
X22352000Y38624000D01*
X19220000Y37512207D02*
X20331793Y38624000D01*
X6223000Y14478000D02*
X6223000Y24714200D01*
D47*
%TO.N,/control_connector/LED RED*%
X20955000Y41894000D02*
X20828000Y41767000D01*
X20828000Y43053000D02*
X20828000Y41767000D01*
X17018000Y43053000D02*
X20828000Y43053000D01*
D48*
%TO.N,/brake_control/RF SWITCH*%
X19018000Y5112000D02*
X19050000Y5080000D01*
D47*
%TO.N,Net-(Q2-B)*%
X24450000Y44003000D02*
X24638000Y43815000D01*
X24638000Y43815000D02*
X24638000Y42418000D01*
X18893000Y44003000D02*
X24450000Y44003000D01*
D48*
%TO.N,Net-(Q4-C)*%
X7493000Y53848000D02*
X8382000Y52959000D01*
X6207000Y53848000D02*
X7493000Y53848000D01*
D44*
%TO.N,Net-(U1-FB)*%
X22447000Y35941000D02*
X22447000Y35858200D01*
X21894800Y32512000D02*
X24384000Y32512000D01*
X21640800Y35052000D02*
X21640800Y34350200D01*
X21640800Y34350200D02*
X21199600Y33909000D01*
X22447000Y35858200D02*
X21640800Y35052000D01*
X21640800Y32766000D02*
X21894800Y32512000D01*
X21199600Y33909000D02*
X21640800Y33467800D01*
X21640800Y33467800D02*
X21640800Y32766000D01*
%TO.N,Net-(M2-LED)*%
X14859000Y66675000D02*
X21590000Y73406000D01*
X8382000Y66675000D02*
X14859000Y66675000D01*
X21590000Y73406000D02*
X25019000Y73406000D01*
X27412000Y71013000D02*
X27412000Y64531000D01*
X25019000Y73406000D02*
X27412000Y71013000D01*
D48*
%TO.N,/control_connector/BUTTON*%
X25765000Y8763000D02*
X28824000Y8763000D01*
%TO.N,/brake_control/BTN*%
X23765000Y10398000D02*
X23749000Y10414000D01*
%TD*%
%TA.AperFunction,Conductor*%
%TO.N,GND*%
G36*
X9948171Y26037815D02*
G01*
X9993926Y25985011D01*
X10003870Y25915853D01*
X9984234Y25864608D01*
X9964535Y25835128D01*
X9964533Y25835125D01*
X9915499Y25716745D01*
X9915497Y25716739D01*
X9890500Y25591072D01*
X9890500Y25564965D01*
X9870815Y25497926D01*
X9854181Y25477284D01*
X7919913Y23543017D01*
X7919909Y23543011D01*
X7860601Y23440288D01*
X7860600Y23440283D01*
X7829900Y23325709D01*
X7829900Y14998808D01*
X7810215Y14931769D01*
X7793581Y14911127D01*
X7775126Y14892673D01*
X7775123Y14892669D01*
X7703938Y14786134D01*
X7703933Y14786125D01*
X7654899Y14667745D01*
X7654897Y14667739D01*
X7629900Y14542072D01*
X7629900Y14542069D01*
X7629900Y14413931D01*
X7629900Y14413929D01*
X7629899Y14413929D01*
X7654897Y14288262D01*
X7654899Y14288256D01*
X7703933Y14169876D01*
X7703938Y14169867D01*
X7775123Y14063332D01*
X7775126Y14063328D01*
X7865727Y13972727D01*
X7865731Y13972724D01*
X7972266Y13901539D01*
X7972272Y13901536D01*
X7972273Y13901535D01*
X8090656Y13852499D01*
X8090660Y13852499D01*
X8090661Y13852498D01*
X8216328Y13827500D01*
X8216331Y13827500D01*
X8344471Y13827500D01*
X8429015Y13844318D01*
X8470144Y13852499D01*
X8588527Y13901535D01*
X8695069Y13972724D01*
X8785676Y14063331D01*
X8856865Y14169873D01*
X8905901Y14288256D01*
X8930900Y14413931D01*
X8930900Y14542069D01*
X8930900Y14542072D01*
X8905902Y14667739D01*
X8905901Y14667740D01*
X8905901Y14667744D01*
X8856865Y14786127D01*
X8856864Y14786128D01*
X8856861Y14786134D01*
X8785676Y14892669D01*
X8785673Y14892673D01*
X8767219Y14911127D01*
X8733734Y14972450D01*
X8730900Y14998808D01*
X8730900Y23028435D01*
X8750585Y23095474D01*
X8767219Y23116116D01*
X10491284Y24840181D01*
X10552607Y24873666D01*
X10578965Y24876500D01*
X10605071Y24876500D01*
X10709891Y24897351D01*
X10730744Y24901499D01*
X10849127Y24950535D01*
X10955669Y25021724D01*
X11046276Y25112331D01*
X11117465Y25218873D01*
X11166501Y25337256D01*
X11191500Y25462931D01*
X11191500Y25591069D01*
X11191500Y25591072D01*
X11166502Y25716739D01*
X11166501Y25716740D01*
X11166501Y25716744D01*
X11117465Y25835127D01*
X11097765Y25864610D01*
X11076888Y25931286D01*
X11095372Y25998666D01*
X11147351Y26045357D01*
X11200868Y26057500D01*
X16700971Y26057500D01*
X16768010Y26037815D01*
X16813765Y25985011D01*
X16816325Y25978990D01*
X16845637Y25904661D01*
X16845638Y25904659D01*
X16937077Y25784078D01*
X17057656Y25692640D01*
X17057657Y25692640D01*
X17057658Y25692639D01*
X17198436Y25637123D01*
X17286898Y25626500D01*
X18113721Y25626500D01*
X18146025Y25617015D01*
X18178536Y25608212D01*
X18179451Y25607200D01*
X18180760Y25606815D01*
X18202792Y25581389D01*
X18225399Y25556389D01*
X18225818Y25554815D01*
X18226515Y25554011D01*
X18236057Y25522743D01*
X18236995Y25517071D01*
X18239610Y25480522D01*
X18244633Y25445587D01*
X18247709Y25427899D01*
X18253192Y25414420D01*
X18254691Y25407534D01*
X18255707Y25403992D01*
X18265643Y25369348D01*
X18265642Y25369348D01*
X18280502Y25343940D01*
X18286174Y25333034D01*
X18287311Y25330554D01*
X18290017Y25323904D01*
X18291219Y25322033D01*
X18291220Y25322032D01*
X18312903Y25288290D01*
X18313508Y25287355D01*
X18313506Y25287353D01*
X18314504Y25285800D01*
X18322322Y25272432D01*
X18325316Y25268977D01*
X18327796Y25265118D01*
X18364591Y25218867D01*
X18366079Y25216997D01*
X18377691Y25208827D01*
X18377695Y25208824D01*
X18384947Y25203722D01*
X18412812Y25177448D01*
X18446964Y25160082D01*
X18457895Y25152391D01*
X18457896Y25152391D01*
X18457897Y25152390D01*
X18481191Y25141753D01*
X18481193Y25141752D01*
X18496703Y25134669D01*
X18501355Y25132426D01*
X18512889Y25126561D01*
X18512893Y25126560D01*
X18512897Y25126558D01*
X18516294Y25125209D01*
X18520207Y25123861D01*
X18521425Y25123378D01*
X18521445Y25123369D01*
X18579678Y25103581D01*
X18606156Y25102470D01*
X18618587Y25101319D01*
X18666000Y25094500D01*
X22938500Y25094500D01*
X23005539Y25074815D01*
X23051294Y25022011D01*
X23062500Y24970500D01*
X23062500Y23365000D01*
X23064031Y23350756D01*
X23051629Y23281999D01*
X23004020Y23230860D01*
X22940743Y23213500D01*
X17847940Y23213500D01*
X17780901Y23233185D01*
X17760259Y23249819D01*
X16512292Y24497787D01*
X16512288Y24497790D01*
X16381185Y24585391D01*
X16381172Y24585398D01*
X16235501Y24645736D01*
X16235489Y24645739D01*
X16080845Y24676500D01*
X16080842Y24676500D01*
X13159842Y24676500D01*
X13002158Y24676500D01*
X13002155Y24676500D01*
X12847510Y24645739D01*
X12847498Y24645736D01*
X12701827Y24585398D01*
X12701814Y24585391D01*
X12570711Y24497790D01*
X12570707Y24497787D01*
X10931264Y22858342D01*
X10411711Y22338789D01*
X10355960Y22283038D01*
X10300209Y22227288D01*
X10212609Y22096186D01*
X10212602Y22096173D01*
X10152264Y21950502D01*
X10152261Y21950490D01*
X10121500Y21795847D01*
X10121500Y10462154D01*
X10152261Y10307511D01*
X10152264Y10307499D01*
X10212602Y10161828D01*
X10212609Y10161815D01*
X10300210Y10030712D01*
X10300213Y10030708D01*
X10411707Y9919214D01*
X10411711Y9919211D01*
X10542814Y9831610D01*
X10542827Y9831603D01*
X10688042Y9771454D01*
X10688503Y9771263D01*
X10843153Y9740501D01*
X10843156Y9740500D01*
X10843158Y9740500D01*
X11000844Y9740500D01*
X11000845Y9740501D01*
X11155497Y9771263D01*
X11301179Y9831606D01*
X11301185Y9831610D01*
X11437354Y9922595D01*
X11438502Y9920877D01*
X11494133Y9944509D01*
X11563002Y9932724D01*
X11614567Y9885577D01*
X11632500Y9821344D01*
X11632500Y8633000D01*
X11632501Y8632991D01*
X11639481Y8568065D01*
X11639483Y8568053D01*
X11650688Y8516547D01*
X11661644Y8478346D01*
X11661646Y8478342D01*
X11718323Y8381432D01*
X11718325Y8381429D01*
X11764081Y8328624D01*
X11764091Y8328613D01*
X11808807Y8286452D01*
X11808809Y8286451D01*
X11808813Y8286447D01*
X11908889Y8235561D01*
X11929609Y8229477D01*
X11988386Y8191701D01*
X12017410Y8128145D01*
X12007466Y8058987D01*
X11961710Y8006184D01*
X11894672Y7986500D01*
X6531940Y7986500D01*
X6464901Y8006185D01*
X6444259Y8022819D01*
X5535819Y8931259D01*
X5502334Y8992582D01*
X5499500Y9018940D01*
X5499500Y13982681D01*
X5519185Y14049720D01*
X5571989Y14095475D01*
X5641147Y14105419D01*
X5704703Y14076394D01*
X5713319Y14067542D01*
X5713416Y14067638D01*
X5808327Y13972727D01*
X5808331Y13972724D01*
X5914866Y13901539D01*
X5914872Y13901536D01*
X5914873Y13901535D01*
X6033256Y13852499D01*
X6033260Y13852499D01*
X6033261Y13852498D01*
X6158928Y13827500D01*
X6158931Y13827500D01*
X6287071Y13827500D01*
X6371615Y13844318D01*
X6412744Y13852499D01*
X6531127Y13901535D01*
X6637669Y13972724D01*
X6728276Y14063331D01*
X6799465Y14169873D01*
X6848501Y14288256D01*
X6873500Y14413931D01*
X6873500Y14542069D01*
X6873500Y14542072D01*
X6848502Y14667739D01*
X6848501Y14667740D01*
X6848501Y14667744D01*
X6799465Y14786127D01*
X6799464Y14786128D01*
X6799461Y14786134D01*
X6728276Y14892669D01*
X6728273Y14892673D01*
X6709819Y14911127D01*
X6676334Y14972450D01*
X6673500Y14998808D01*
X6673500Y24476235D01*
X6693185Y24543274D01*
X6709819Y24563916D01*
X8167084Y26021181D01*
X8228407Y26054666D01*
X8254765Y26057500D01*
X9881132Y26057500D01*
X9948171Y26037815D01*
G37*
%TD.AperFunction*%
%TA.AperFunction,Conductor*%
G36*
X29360675Y42189988D02*
G01*
X29435270Y42147433D01*
X29435272Y42147433D01*
X29438752Y42145447D01*
X29511726Y42116671D01*
X29512147Y42116501D01*
X29512720Y42116049D01*
X29540784Y42100269D01*
X29578990Y42071296D01*
X29594553Y42057273D01*
X29601371Y42049995D01*
X29605565Y42045607D01*
X29605569Y42045604D01*
X29605571Y42045602D01*
X29697388Y41980991D01*
X29697393Y41980989D01*
X29697396Y41980987D01*
X29751142Y41956443D01*
X29760944Y41951966D01*
X29796242Y41939971D01*
X29853380Y41899766D01*
X29879713Y41835048D01*
X29866877Y41766368D01*
X29866875Y41766365D01*
X29825561Y41685114D01*
X29825560Y41685111D01*
X29805877Y41618079D01*
X29793500Y41531998D01*
X29793500Y40434500D01*
X29773815Y40367461D01*
X29721011Y40321706D01*
X29669500Y40310500D01*
X29334000Y40310500D01*
X29333991Y40310500D01*
X29333990Y40310499D01*
X29269064Y40303519D01*
X29269052Y40303517D01*
X29217546Y40292312D01*
X29179345Y40281356D01*
X29179341Y40281354D01*
X29082431Y40224677D01*
X29082428Y40224675D01*
X29029623Y40178919D01*
X29029612Y40178909D01*
X28987451Y40134193D01*
X28987445Y40134184D01*
X28936560Y40034110D01*
X28916877Y39967079D01*
X28916876Y39967072D01*
X28904500Y39881000D01*
X28904500Y38605000D01*
X28904501Y38604991D01*
X28911481Y38540065D01*
X28911483Y38540053D01*
X28922688Y38488547D01*
X28933644Y38450346D01*
X28933646Y38450342D01*
X28990323Y38353432D01*
X28990325Y38353429D01*
X29036081Y38300624D01*
X29036091Y38300613D01*
X29080807Y38258452D01*
X29080809Y38258451D01*
X29080813Y38258447D01*
X29180889Y38207561D01*
X29247928Y38187876D01*
X29334000Y38175500D01*
X29540495Y38175500D01*
X29607534Y38155815D01*
X29639299Y38126426D01*
X29642635Y38122027D01*
X29642636Y38122025D01*
X29676774Y38077008D01*
X29729923Y38006921D01*
X29845023Y37919637D01*
X29845024Y37919637D01*
X29845025Y37919636D01*
X29979410Y37866641D01*
X30063856Y37856500D01*
X30063862Y37856500D01*
X30896138Y37856500D01*
X30896144Y37856500D01*
X30980590Y37866641D01*
X31114975Y37919636D01*
X31230078Y38006922D01*
X31317364Y38122025D01*
X31317364Y38122027D01*
X31320701Y38126426D01*
X31376894Y38167949D01*
X31419505Y38175500D01*
X31752990Y38175500D01*
X31753000Y38175500D01*
X31817941Y38182482D01*
X31869452Y38193688D01*
X31907658Y38204646D01*
X32004571Y38261325D01*
X32057375Y38307080D01*
X32057382Y38307088D01*
X32057387Y38307092D01*
X32099548Y38351808D01*
X32099553Y38351813D01*
X32150439Y38451889D01*
X32170124Y38518928D01*
X32178495Y38577151D01*
X32207521Y38640704D01*
X32266300Y38678478D01*
X32301233Y38683500D01*
X32663564Y38683500D01*
X32663565Y38683501D01*
X32699219Y38687721D01*
X32734871Y38691940D01*
X32734873Y38691941D01*
X32734877Y38691941D01*
X32791172Y38705456D01*
X32858553Y38730314D01*
X32986984Y38795756D01*
X33004939Y38803193D01*
X33150308Y38850425D01*
X33169200Y38854961D01*
X33320191Y38878875D01*
X33339579Y38880400D01*
X33492420Y38880400D01*
X33511817Y38878873D01*
X33566172Y38870265D01*
X33662783Y38854963D01*
X33681693Y38850424D01*
X33827048Y38803196D01*
X33845017Y38795753D01*
X33973448Y38730313D01*
X34040828Y38705456D01*
X34097123Y38691941D01*
X34097124Y38691941D01*
X34097128Y38691940D01*
X34147339Y38685998D01*
X34168433Y38683501D01*
X34168436Y38683500D01*
X34508500Y38683500D01*
X34575539Y38663815D01*
X34621294Y38611011D01*
X34632500Y38559500D01*
X34632500Y36769900D01*
X34612815Y36702861D01*
X34560011Y36657106D01*
X34508500Y36645900D01*
X32271143Y36645900D01*
X32271117Y36645898D01*
X32246012Y36642987D01*
X32246011Y36642986D01*
X32234869Y36638066D01*
X32184782Y36627500D01*
X28826000Y36627500D01*
X28825991Y36627500D01*
X28825990Y36627499D01*
X28761064Y36620519D01*
X28761052Y36620517D01*
X28709546Y36609312D01*
X28671345Y36598356D01*
X28671341Y36598354D01*
X28574431Y36541677D01*
X28574428Y36541675D01*
X28521623Y36495919D01*
X28521612Y36495909D01*
X28479451Y36451193D01*
X28479445Y36451184D01*
X28428560Y36351110D01*
X28408877Y36284079D01*
X28408876Y36284072D01*
X28401876Y36235385D01*
X28396500Y36197998D01*
X28396500Y35654178D01*
X28376815Y35587139D01*
X28324011Y35541384D01*
X28257718Y35531062D01*
X28230315Y35534353D01*
X28204102Y35537500D01*
X27167898Y35537500D01*
X27128853Y35532812D01*
X27079438Y35526878D01*
X26938656Y35471361D01*
X26818077Y35379923D01*
X26726639Y35259344D01*
X26671122Y35118562D01*
X26665188Y35069147D01*
X26660500Y35030102D01*
X26660500Y34268898D01*
X26663205Y34246374D01*
X26671122Y34180439D01*
X26726639Y34039657D01*
X26818077Y33919078D01*
X26932425Y33832366D01*
X26934905Y33829010D01*
X26938703Y33827275D01*
X26955494Y33801147D01*
X26973948Y33776174D01*
X26974863Y33771008D01*
X26976477Y33768497D01*
X26981500Y33733562D01*
X26981500Y33667808D01*
X26961815Y33600769D01*
X26945181Y33580127D01*
X26926726Y33561673D01*
X26926723Y33561669D01*
X26855538Y33455134D01*
X26855533Y33455125D01*
X26806499Y33336745D01*
X26806497Y33336739D01*
X26781500Y33211072D01*
X26781500Y33211069D01*
X26781500Y33082931D01*
X26781500Y33082929D01*
X26781499Y33082929D01*
X26806497Y32957262D01*
X26806499Y32957256D01*
X26855533Y32838876D01*
X26855538Y32838867D01*
X26926723Y32732332D01*
X26926726Y32732328D01*
X27017327Y32641727D01*
X27017331Y32641724D01*
X27123866Y32570539D01*
X27123872Y32570536D01*
X27123873Y32570535D01*
X27242256Y32521499D01*
X27242260Y32521499D01*
X27242261Y32521498D01*
X27367928Y32496500D01*
X27367931Y32496500D01*
X27496071Y32496500D01*
X27580615Y32513318D01*
X27621744Y32521499D01*
X27740127Y32570535D01*
X27846669Y32641724D01*
X27937276Y32732331D01*
X28008465Y32838873D01*
X28057501Y32957256D01*
X28068992Y33015022D01*
X28082500Y33082929D01*
X28082500Y33211072D01*
X28057502Y33336739D01*
X28057501Y33336740D01*
X28057501Y33336744D01*
X28008465Y33455127D01*
X28008464Y33455128D01*
X28008461Y33455134D01*
X27933892Y33566734D01*
X27935727Y33567961D01*
X27934009Y33572006D01*
X27924305Y33582530D01*
X27920622Y33603521D01*
X27912290Y33623136D01*
X27914705Y33637248D01*
X27912231Y33651349D01*
X27920480Y33670999D01*
X27924076Y33692005D01*
X27933736Y33702571D01*
X27939279Y33715770D01*
X27956844Y33727841D01*
X27971225Y33743568D01*
X27986161Y33747988D01*
X27996863Y33755342D01*
X28027577Y33760243D01*
X28031626Y33761441D01*
X28033536Y33761500D01*
X28204102Y33761500D01*
X28263179Y33768595D01*
X28268671Y33768764D01*
X28297378Y33761290D01*
X28326624Y33756387D01*
X28330811Y33752585D01*
X28336286Y33751159D01*
X28356393Y33729353D01*
X28378348Y33709415D01*
X28379913Y33703846D01*
X28383650Y33699793D01*
X28387967Y33675187D01*
X28396500Y33644823D01*
X28396500Y32890000D01*
X28396501Y32889991D01*
X28403481Y32825065D01*
X28403483Y32825053D01*
X28414688Y32773547D01*
X28425644Y32735346D01*
X28425646Y32735342D01*
X28482323Y32638432D01*
X28482325Y32638429D01*
X28528081Y32585624D01*
X28528091Y32585613D01*
X28572807Y32543452D01*
X28572809Y32543451D01*
X28572813Y32543447D01*
X28672889Y32492561D01*
X28683709Y32489384D01*
X28739386Y32473035D01*
X28739928Y32472876D01*
X28826000Y32460500D01*
X30013061Y32460500D01*
X30080100Y32440815D01*
X30125855Y32388011D01*
X30135799Y32318853D01*
X30106774Y32255297D01*
X30100744Y32248823D01*
X29668069Y31816147D01*
X28457181Y30605260D01*
X28395858Y30571775D01*
X28326166Y30576759D01*
X28270233Y30618631D01*
X28245816Y30684095D01*
X28245500Y30692941D01*
X28245500Y31244990D01*
X28245500Y31245000D01*
X28238518Y31309941D01*
X28227312Y31361452D01*
X28216354Y31399658D01*
X28159675Y31496571D01*
X28113920Y31549375D01*
X28113918Y31549377D01*
X28113908Y31549388D01*
X28069192Y31591549D01*
X28069189Y31591551D01*
X28069187Y31591553D01*
X27969111Y31642439D01*
X27969110Y31642440D01*
X27969109Y31642440D01*
X27902078Y31662123D01*
X27902072Y31662124D01*
X27816000Y31674500D01*
X27815997Y31674500D01*
X25955323Y31674500D01*
X25888284Y31694185D01*
X25842529Y31746989D01*
X25832585Y31816147D01*
X25861610Y31879703D01*
X25907871Y31913061D01*
X25962120Y31935532D01*
X25962120Y31935533D01*
X25962127Y31935535D01*
X26068669Y32006724D01*
X26159276Y32097331D01*
X26230465Y32203873D01*
X26279501Y32322256D01*
X26304500Y32447931D01*
X26304500Y32576069D01*
X26304500Y32576072D01*
X26279502Y32701739D01*
X26279501Y32701740D01*
X26279501Y32701744D01*
X26230465Y32820127D01*
X26230464Y32820128D01*
X26230461Y32820134D01*
X26159276Y32926669D01*
X26159273Y32926673D01*
X26068672Y33017274D01*
X26068668Y33017277D01*
X25962133Y33088462D01*
X25962124Y33088467D01*
X25843744Y33137501D01*
X25843738Y33137503D01*
X25718071Y33162500D01*
X25718069Y33162500D01*
X25589931Y33162500D01*
X25589929Y33162500D01*
X25464261Y33137503D01*
X25464255Y33137501D01*
X25345875Y33088467D01*
X25345866Y33088462D01*
X25239331Y33017277D01*
X25239327Y33017274D01*
X25148726Y32926673D01*
X25148723Y32926669D01*
X25122102Y32886827D01*
X25068490Y32842022D01*
X24999165Y32833315D01*
X24936137Y32863470D01*
X24915898Y32886827D01*
X24889276Y32926669D01*
X24889273Y32926673D01*
X24798672Y33017274D01*
X24798668Y33017277D01*
X24692133Y33088462D01*
X24692124Y33088467D01*
X24573744Y33137501D01*
X24573738Y33137503D01*
X24448071Y33162500D01*
X24448069Y33162500D01*
X24319931Y33162500D01*
X24319929Y33162500D01*
X24194261Y33137503D01*
X24194255Y33137501D01*
X24075875Y33088467D01*
X24075866Y33088462D01*
X23969331Y33017277D01*
X23969327Y33017274D01*
X23950873Y32998819D01*
X23889550Y32965334D01*
X23863192Y32962500D01*
X22215300Y32962500D01*
X22206614Y32965051D01*
X22197653Y32963762D01*
X22173612Y32974741D01*
X22148261Y32982185D01*
X22142333Y32989026D01*
X22134097Y32992787D01*
X22119807Y33015022D01*
X22102506Y33034989D01*
X22100218Y33045504D01*
X22096323Y33051565D01*
X22091300Y33086500D01*
X22091300Y33335203D01*
X22092185Y33349988D01*
X22100100Y33415898D01*
X22100100Y34402097D01*
X22100100Y34402102D01*
X22092184Y34468023D01*
X22091300Y34482806D01*
X22091300Y34814035D01*
X22099944Y34843476D01*
X22106468Y34873462D01*
X22110222Y34878478D01*
X22110985Y34881074D01*
X22127619Y34901716D01*
X22130084Y34904181D01*
X22191407Y34937666D01*
X22217765Y34940500D01*
X22840097Y34940500D01*
X22840102Y34940500D01*
X22928564Y34951123D01*
X23069342Y35006639D01*
X23189922Y35098078D01*
X23281361Y35218658D01*
X23336877Y35359436D01*
X23347500Y35447898D01*
X23347500Y36434102D01*
X23336877Y36522564D01*
X23281361Y36663342D01*
X23281360Y36663343D01*
X23281360Y36663344D01*
X23189922Y36783923D01*
X23179671Y36791696D01*
X23138148Y36847888D01*
X23133596Y36917609D01*
X23167461Y36978724D01*
X23228990Y37011827D01*
X23254596Y37014500D01*
X25133192Y37014500D01*
X25200231Y36994815D01*
X25220873Y36978181D01*
X25239327Y36959727D01*
X25239331Y36959724D01*
X25345866Y36888539D01*
X25345872Y36888536D01*
X25345873Y36888535D01*
X25464256Y36839499D01*
X25464260Y36839499D01*
X25464261Y36839498D01*
X25589928Y36814500D01*
X25589931Y36814500D01*
X25718071Y36814500D01*
X25802615Y36831318D01*
X25843744Y36839499D01*
X25962127Y36888535D01*
X26068669Y36959724D01*
X26159276Y37050331D01*
X26230465Y37156873D01*
X26279501Y37275256D01*
X26304500Y37400931D01*
X26304500Y37416500D01*
X26324185Y37483539D01*
X26376989Y37529294D01*
X26428500Y37540500D01*
X27561990Y37540500D01*
X27562000Y37540500D01*
X27626941Y37547482D01*
X27678452Y37558688D01*
X27716658Y37569646D01*
X27813571Y37626325D01*
X27866375Y37672080D01*
X27866382Y37672088D01*
X27866387Y37672092D01*
X27908548Y37716808D01*
X27908553Y37716813D01*
X27959439Y37816889D01*
X27979124Y37883928D01*
X27991500Y37970000D01*
X27991500Y39373000D01*
X27984518Y39437941D01*
X27973312Y39489452D01*
X27962354Y39527658D01*
X27928139Y39586160D01*
X27911286Y39653965D01*
X27924643Y39704959D01*
X27959439Y39773389D01*
X27979124Y39840428D01*
X27991500Y39926500D01*
X27991500Y41863448D01*
X28011185Y41930487D01*
X28063989Y41976242D01*
X28092157Y41984162D01*
X28091966Y41985099D01*
X28096892Y41986103D01*
X28096896Y41986103D01*
X28193592Y42005805D01*
X28258904Y42030629D01*
X28334961Y42072775D01*
X28371213Y42100269D01*
X28400648Y42116819D01*
X28435065Y42130391D01*
X28465774Y42138152D01*
X28470990Y42138778D01*
X28473821Y42139117D01*
X28488593Y42140000D01*
X29044907Y42140000D01*
X29044908Y42140000D01*
X29090018Y42143349D01*
X29126235Y42148756D01*
X29145522Y42152271D01*
X29249053Y42195700D01*
X29249059Y42195705D01*
X29251264Y42196629D01*
X29320699Y42204410D01*
X29360675Y42189988D01*
G37*
%TD.AperFunction*%
%TA.AperFunction,Conductor*%
G36*
X17017185Y36247117D02*
G01*
X17067925Y36241023D01*
X17071101Y36240395D01*
X17073721Y36240328D01*
X17077318Y36239896D01*
X17080149Y36239555D01*
X17080149Y36239556D01*
X17105679Y36236487D01*
X17110592Y36238452D01*
X17125598Y36238968D01*
X17145132Y36238457D01*
X17173827Y36237704D01*
X17173827Y36237705D01*
X17173833Y36237704D01*
X17226853Y36245328D01*
X17296010Y36235385D01*
X17348814Y36189631D01*
X17368500Y36122592D01*
X17368500Y31036500D01*
X17348815Y30969461D01*
X17296011Y30923706D01*
X17244500Y30912500D01*
X9700500Y30912500D01*
X9633461Y30932185D01*
X9587706Y30984989D01*
X9576500Y31036500D01*
X9576500Y32402524D01*
X9571813Y32455817D01*
X9571812Y32455818D01*
X9571812Y32455828D01*
X9564260Y32498440D01*
X9558139Y32525672D01*
X9509144Y32626688D01*
X9467621Y32682879D01*
X9406519Y32744743D01*
X9406515Y32744747D01*
X9378706Y32765835D01*
X9354829Y32789712D01*
X9334730Y32816217D01*
X9318182Y32845649D01*
X9311154Y32863470D01*
X9304609Y32880067D01*
X9296848Y32910781D01*
X9295883Y32918824D01*
X9295000Y32933596D01*
X9295000Y33868408D01*
X9295883Y33883181D01*
X9295902Y33883341D01*
X9296849Y33891228D01*
X9304609Y33921935D01*
X9318183Y33956358D01*
X9334730Y33985786D01*
X9354831Y34012293D01*
X9378706Y34036166D01*
X9406517Y34057255D01*
X9446166Y34093206D01*
X9475556Y34124971D01*
X9493553Y34146298D01*
X9544439Y34246374D01*
X9564124Y34313413D01*
X9576500Y34399485D01*
X9576500Y34495500D01*
X9596185Y34562539D01*
X9648989Y34608294D01*
X9700500Y34619500D01*
X10619500Y34619500D01*
X10686539Y34599815D01*
X10732294Y34547011D01*
X10743500Y34495500D01*
X10743500Y32382000D01*
X10743501Y32381991D01*
X10750481Y32317065D01*
X10750483Y32317053D01*
X10761688Y32265547D01*
X10772644Y32227346D01*
X10772646Y32227342D01*
X10829323Y32130432D01*
X10829325Y32130429D01*
X10875081Y32077624D01*
X10875091Y32077613D01*
X10919807Y32035452D01*
X10919809Y32035451D01*
X10919813Y32035447D01*
X11019889Y31984561D01*
X11086928Y31964876D01*
X11173000Y31952500D01*
X11173003Y31952500D01*
X15115990Y31952500D01*
X15116000Y31952500D01*
X15180941Y31959482D01*
X15232452Y31970688D01*
X15270658Y31981646D01*
X15367571Y32038325D01*
X15420375Y32084080D01*
X15420382Y32084088D01*
X15420387Y32084092D01*
X15462548Y32128808D01*
X15462553Y32128813D01*
X15513439Y32228889D01*
X15533124Y32295928D01*
X15545500Y32382000D01*
X15545500Y34495500D01*
X15540360Y34543309D01*
X15552765Y34612067D01*
X15600375Y34663205D01*
X15602206Y34664270D01*
X15660648Y34697609D01*
X15710717Y34733295D01*
X15780081Y34821576D01*
X15812418Y34883512D01*
X15835246Y34940603D01*
X15845870Y35052370D01*
X15839588Y35121957D01*
X15819525Y35206564D01*
X15799611Y35257063D01*
X15791850Y35287774D01*
X15790884Y35295822D01*
X15790000Y35310600D01*
X15790000Y36020408D01*
X15790883Y36035181D01*
X15790902Y36035341D01*
X15791849Y36043228D01*
X15799608Y36073933D01*
X15813185Y36108362D01*
X15829729Y36137785D01*
X15849833Y36164297D01*
X15873703Y36188167D01*
X15900215Y36208271D01*
X15929638Y36224815D01*
X15964067Y36238392D01*
X15994774Y36246152D01*
X15999990Y36246778D01*
X16002821Y36247117D01*
X16017593Y36248000D01*
X17002402Y36248000D01*
X17017185Y36247117D01*
G37*
%TD.AperFunction*%
%TA.AperFunction,Conductor*%
G36*
X38004418Y79599184D02*
G01*
X38218791Y79583852D01*
X38236296Y79581335D01*
X38441969Y79536594D01*
X38458928Y79531615D01*
X38656150Y79458054D01*
X38672242Y79450704D01*
X38856968Y79349837D01*
X38871848Y79340276D01*
X39040353Y79214134D01*
X39053723Y79202548D01*
X39202547Y79053724D01*
X39214133Y79040354D01*
X39340271Y78871854D01*
X39349836Y78856969D01*
X39450703Y78672243D01*
X39458053Y78656151D01*
X39531611Y78458937D01*
X39536595Y78441961D01*
X39581333Y78236300D01*
X39583851Y78218789D01*
X39599184Y78004420D01*
X39599500Y77995573D01*
X39599500Y2004428D01*
X39599184Y1995581D01*
X39583851Y1781212D01*
X39581333Y1763701D01*
X39536595Y1558040D01*
X39531611Y1541064D01*
X39458053Y1343850D01*
X39450703Y1327758D01*
X39349836Y1143032D01*
X39340271Y1128147D01*
X39214133Y959647D01*
X39202547Y946277D01*
X39053723Y797453D01*
X39040353Y785867D01*
X38871853Y659729D01*
X38856968Y650164D01*
X38672242Y549297D01*
X38656150Y541947D01*
X38458936Y468389D01*
X38441960Y463405D01*
X38236299Y418667D01*
X38218788Y416149D01*
X38023369Y402172D01*
X38004417Y400816D01*
X37995572Y400500D01*
X2004428Y400500D01*
X1995582Y400816D01*
X1974407Y402331D01*
X1781211Y416149D01*
X1763700Y418667D01*
X1558039Y463405D01*
X1541063Y468389D01*
X1343849Y541947D01*
X1327757Y549297D01*
X1143031Y650164D01*
X1128146Y659729D01*
X959646Y785867D01*
X946276Y797453D01*
X797452Y946277D01*
X785866Y959647D01*
X745924Y1013003D01*
X659724Y1128152D01*
X650163Y1143032D01*
X549296Y1327758D01*
X541946Y1343850D01*
X468385Y1541072D01*
X463406Y1558031D01*
X418665Y1763704D01*
X416148Y1781213D01*
X406459Y1916676D01*
X400816Y1995582D01*
X400500Y2004428D01*
X400500Y69598998D01*
X2615500Y69598998D01*
X2615500Y68104166D01*
X2622564Y68038852D01*
X2622567Y68038835D01*
X2633899Y67987060D01*
X2633902Y67987047D01*
X2645042Y67948483D01*
X2678697Y67891277D01*
X2695724Y67823514D01*
X2682352Y67772199D01*
X2647560Y67703775D01*
X2627877Y67636744D01*
X2627876Y67636737D01*
X2615500Y67550665D01*
X2615500Y65783000D01*
X2615501Y65782991D01*
X2622481Y65718065D01*
X2622483Y65718053D01*
X2633688Y65666547D01*
X2644644Y65628346D01*
X2644646Y65628342D01*
X2701323Y65531432D01*
X2701325Y65531429D01*
X2747081Y65478624D01*
X2747091Y65478613D01*
X2791807Y65436452D01*
X2791809Y65436451D01*
X2791813Y65436447D01*
X2891889Y65385561D01*
X2958928Y65365876D01*
X3045000Y65353500D01*
X3045003Y65353500D01*
X9273990Y65353500D01*
X9274000Y65353500D01*
X9338941Y65360482D01*
X9390452Y65371688D01*
X9428658Y65382646D01*
X9525571Y65439325D01*
X9578375Y65485080D01*
X9578382Y65485088D01*
X9578387Y65485092D01*
X9620548Y65529808D01*
X9620553Y65529813D01*
X9671439Y65629889D01*
X9691124Y65696928D01*
X9703500Y65783000D01*
X9703500Y66100500D01*
X9723185Y66167539D01*
X9775989Y66213294D01*
X9827500Y66224500D01*
X14918308Y66224500D01*
X14918309Y66224500D01*
X15008673Y66248714D01*
X15032887Y66255201D01*
X15135614Y66314511D01*
X16994819Y68173718D01*
X17056142Y68207202D01*
X17125834Y68202218D01*
X17181767Y68160346D01*
X17206184Y68094882D01*
X17206500Y68086036D01*
X17206500Y51656394D01*
X17206500Y51518406D01*
X17206500Y51518404D01*
X17206499Y51518404D01*
X17233418Y51383078D01*
X17233421Y51383068D01*
X17286222Y51255593D01*
X17362887Y51140855D01*
X17362888Y51140854D01*
X19075181Y49428562D01*
X19108666Y49367239D01*
X19111500Y49340881D01*
X19111500Y48820362D01*
X19091815Y48753323D01*
X19039011Y48707568D01*
X19003685Y48697423D01*
X18955245Y48691046D01*
X18955237Y48691044D01*
X18809160Y48630537D01*
X18683718Y48534282D01*
X18587463Y48408840D01*
X18526956Y48262763D01*
X18526955Y48262761D01*
X18511501Y48145371D01*
X18511500Y48145355D01*
X18511500Y45666637D01*
X18526953Y45549247D01*
X18526956Y45549238D01*
X18587464Y45403158D01*
X18631334Y45345986D01*
X18656528Y45280817D01*
X18642490Y45212372D01*
X18593676Y45162383D01*
X18532958Y45146500D01*
X10092691Y45146500D01*
X10002325Y45122287D01*
X10002324Y45122288D01*
X9978116Y45115801D01*
X9978113Y45115800D01*
X9875386Y45056489D01*
X9875383Y45056487D01*
X9120716Y44301819D01*
X9059393Y44268334D01*
X9033035Y44265500D01*
X7603966Y44265500D01*
X7536927Y44285185D01*
X7516285Y44301819D01*
X7326819Y44491285D01*
X7293334Y44552608D01*
X7290500Y44578966D01*
X7290500Y45849990D01*
X7290500Y45850000D01*
X7283518Y45914941D01*
X7272312Y45966452D01*
X7261354Y46004658D01*
X7206529Y46098400D01*
X7189677Y46166206D01*
X7206699Y46216297D01*
X7203533Y46217907D01*
X7207553Y46225813D01*
X7258439Y46325889D01*
X7278124Y46392928D01*
X7290500Y46479000D01*
X7290500Y48338500D01*
X7310185Y48405539D01*
X7362989Y48451294D01*
X7414500Y48462500D01*
X9400990Y48462500D01*
X9401000Y48462500D01*
X9465941Y48469482D01*
X9517452Y48480688D01*
X9555658Y48491646D01*
X9652571Y48548325D01*
X9705375Y48594080D01*
X9705382Y48594088D01*
X9705387Y48594092D01*
X9747548Y48638808D01*
X9747553Y48638813D01*
X9798439Y48738889D01*
X9818124Y48805928D01*
X9830500Y48892000D01*
X9830500Y50370500D01*
X9850185Y50437539D01*
X9902989Y50483294D01*
X9954500Y50494500D01*
X10670990Y50494500D01*
X10671000Y50494500D01*
X10735941Y50501482D01*
X10787452Y50512688D01*
X10825658Y50523646D01*
X10922571Y50580325D01*
X10975375Y50626080D01*
X10975382Y50626088D01*
X10975387Y50626092D01*
X11017548Y50670808D01*
X11017553Y50670813D01*
X11068439Y50770889D01*
X11088124Y50837928D01*
X11100500Y50924000D01*
X11100500Y56137000D01*
X11093518Y56201941D01*
X11082312Y56253452D01*
X11071354Y56291658D01*
X11014675Y56388571D01*
X10968920Y56441375D01*
X10968918Y56441377D01*
X10968908Y56441388D01*
X10924192Y56483549D01*
X10924189Y56483551D01*
X10924187Y56483553D01*
X10824111Y56534439D01*
X10824110Y56534440D01*
X10824109Y56534440D01*
X10757078Y56554123D01*
X10757072Y56554124D01*
X10671000Y56566500D01*
X8506000Y56566500D01*
X8505991Y56566500D01*
X8505990Y56566499D01*
X8441064Y56559519D01*
X8441052Y56559517D01*
X8389546Y56548312D01*
X8351345Y56537356D01*
X8351341Y56537354D01*
X8254431Y56480677D01*
X8254428Y56480675D01*
X8201623Y56434919D01*
X8201612Y56434909D01*
X8159451Y56390193D01*
X8159445Y56390184D01*
X8108560Y56290110D01*
X8088877Y56223079D01*
X8088876Y56223072D01*
X8076502Y56137010D01*
X8076500Y56136998D01*
X8076500Y55547500D01*
X8056815Y55480461D01*
X8004011Y55434706D01*
X7952500Y55423500D01*
X5509500Y55423500D01*
X5509491Y55423500D01*
X5509490Y55423499D01*
X5444564Y55416519D01*
X5444552Y55416517D01*
X5393046Y55405312D01*
X5354845Y55394356D01*
X5354843Y55394355D01*
X5296339Y55360139D01*
X5228532Y55343287D01*
X5177537Y55356646D01*
X5170667Y55360139D01*
X5109111Y55391439D01*
X5109110Y55391440D01*
X5109109Y55391440D01*
X5042078Y55411123D01*
X5042072Y55411124D01*
X4956000Y55423500D01*
X3553000Y55423500D01*
X3552991Y55423500D01*
X3552990Y55423499D01*
X3488064Y55416519D01*
X3488052Y55416517D01*
X3436546Y55405312D01*
X3398345Y55394356D01*
X3398341Y55394354D01*
X3301431Y55337677D01*
X3301428Y55337675D01*
X3248623Y55291919D01*
X3248612Y55291909D01*
X3206451Y55247193D01*
X3206445Y55247184D01*
X3155560Y55147110D01*
X3135877Y55080079D01*
X3135876Y55080072D01*
X3123500Y54994000D01*
X3123500Y44447000D01*
X3123501Y44446991D01*
X3130481Y44382065D01*
X3130483Y44382053D01*
X3141688Y44330547D01*
X3152644Y44292346D01*
X3152646Y44292342D01*
X3209323Y44195432D01*
X3209325Y44195429D01*
X3255081Y44142624D01*
X3255091Y44142613D01*
X3299807Y44100452D01*
X3299809Y44100451D01*
X3299813Y44100447D01*
X3399889Y44049561D01*
X3466928Y44029876D01*
X3553000Y44017500D01*
X6475034Y44017500D01*
X6542073Y43997815D01*
X6562715Y43981181D01*
X7089386Y43454510D01*
X7192113Y43395201D01*
X7216321Y43388716D01*
X7216324Y43388714D01*
X7216325Y43388714D01*
X7246447Y43380643D01*
X7306691Y43364500D01*
X7306693Y43364500D01*
X9330308Y43364500D01*
X9330309Y43364500D01*
X9420673Y43388714D01*
X9444887Y43395201D01*
X9547614Y43454511D01*
X10302284Y44209181D01*
X10363607Y44242666D01*
X10389965Y44245500D01*
X10862691Y44245500D01*
X11751691Y44245500D01*
X13275691Y44245500D01*
X17731000Y44245500D01*
X17798039Y44225815D01*
X17843794Y44173011D01*
X17855000Y44121500D01*
X17855000Y43798739D01*
X17855906Y43789075D01*
X17842565Y43720491D01*
X17794263Y43670007D01*
X17732447Y43653500D01*
X16376230Y43653500D01*
X16345800Y43650647D01*
X16345798Y43650647D01*
X16217619Y43605794D01*
X16217617Y43605793D01*
X16108350Y43525150D01*
X16027707Y43415883D01*
X16027706Y43415881D01*
X15982853Y43287702D01*
X15982853Y43287700D01*
X15980000Y43257270D01*
X15980000Y42848731D01*
X15982853Y42818301D01*
X15982853Y42818299D01*
X16027706Y42690120D01*
X16027707Y42690118D01*
X16108350Y42580850D01*
X16217618Y42500207D01*
X16260345Y42485256D01*
X16345799Y42455354D01*
X16376230Y42452500D01*
X16376234Y42452500D01*
X16938943Y42452500D01*
X19736352Y42452500D01*
X19803391Y42432815D01*
X19849146Y42380011D01*
X19859090Y42310853D01*
X19851707Y42283011D01*
X19838122Y42248564D01*
X19832821Y42204410D01*
X19827500Y42160102D01*
X19827500Y41373898D01*
X19832669Y41330846D01*
X19838122Y41285438D01*
X19840070Y41277735D01*
X19837269Y41277028D01*
X19842294Y41221131D01*
X19809933Y41159207D01*
X19801871Y41151562D01*
X19758625Y41114089D01*
X19758612Y41114077D01*
X19716451Y41069361D01*
X19716445Y41069352D01*
X19665560Y40969278D01*
X19645877Y40902247D01*
X19645876Y40902240D01*
X19633500Y40816168D01*
X19633500Y39875000D01*
X19633501Y39874991D01*
X19640481Y39810065D01*
X19640483Y39810053D01*
X19651688Y39758547D01*
X19662644Y39720346D01*
X19662646Y39720342D01*
X19703285Y39650854D01*
X19719325Y39623429D01*
X19765080Y39570625D01*
X19788566Y39548480D01*
X19823839Y39488169D01*
X19827500Y39458260D01*
X19827500Y39373898D01*
X19833126Y39327046D01*
X19838122Y39285439D01*
X19893639Y39144657D01*
X19967052Y39047848D01*
X19991875Y38982537D01*
X19977447Y38914173D01*
X19955929Y38885242D01*
X19181181Y38110493D01*
X19119858Y38077008D01*
X19050167Y38081992D01*
X18994233Y38123864D01*
X18969816Y38189328D01*
X18969500Y38198174D01*
X18969500Y38551844D01*
X18969499Y38551846D01*
X18964466Y38577149D01*
X18957895Y38610187D01*
X18938737Y38706498D01*
X18918568Y38755189D01*
X18878394Y38852179D01*
X18878392Y38852181D01*
X18878392Y38852183D01*
X18790790Y38983288D01*
X18750000Y39024078D01*
X18679289Y39094789D01*
X15708819Y42065259D01*
X15675334Y42126582D01*
X15672500Y42152940D01*
X15672500Y42674990D01*
X15672500Y42675000D01*
X15665518Y42739941D01*
X15654312Y42791452D01*
X15643354Y42829658D01*
X15586675Y42926571D01*
X15540920Y42979375D01*
X15540918Y42979377D01*
X15540908Y42979388D01*
X15496192Y43021549D01*
X15496189Y43021551D01*
X15496187Y43021553D01*
X15396111Y43072439D01*
X15396110Y43072440D01*
X15396109Y43072440D01*
X15329078Y43092123D01*
X15329072Y43092124D01*
X15243000Y43104500D01*
X11046000Y43104500D01*
X11045991Y43104500D01*
X11045990Y43104499D01*
X10981064Y43097519D01*
X10981052Y43097517D01*
X10929546Y43086312D01*
X10891345Y43075356D01*
X10891341Y43075354D01*
X10794431Y43018677D01*
X10794428Y43018675D01*
X10741623Y42972919D01*
X10741612Y42972909D01*
X10699451Y42928193D01*
X10699445Y42928184D01*
X10648560Y42828110D01*
X10628877Y42761079D01*
X10628876Y42761072D01*
X10616502Y42675010D01*
X10616500Y42674998D01*
X10616500Y40917293D01*
X10617277Y40895500D01*
X10618540Y40877852D01*
X10645365Y40772752D01*
X10645367Y40772747D01*
X10645368Y40772744D01*
X10674392Y40709188D01*
X10705428Y40656117D01*
X10710092Y40651719D01*
X10745364Y40591407D01*
X10742430Y40521599D01*
X10702220Y40464459D01*
X10637502Y40438129D01*
X10625025Y40437500D01*
X3426000Y40437500D01*
X3425991Y40437500D01*
X3425990Y40437499D01*
X3361064Y40430519D01*
X3361052Y40430517D01*
X3309545Y40419312D01*
X3309544Y40419312D01*
X3271348Y40408358D01*
X3174431Y40351678D01*
X3121629Y40305926D01*
X3079447Y40261188D01*
X3028559Y40161109D01*
X3028558Y40161106D01*
X3008876Y40094076D01*
X3008873Y40094064D01*
X2996500Y40008001D01*
X2996499Y40007997D01*
X2996499Y38936858D01*
X2996499Y37894500D01*
X2996500Y37894491D01*
X3003480Y37829565D01*
X3003482Y37829553D01*
X3014687Y37778047D01*
X3025643Y37739846D01*
X3025644Y37739844D01*
X3059860Y37681339D01*
X3076712Y37613532D01*
X3063353Y37562538D01*
X3028561Y37494114D01*
X3028560Y37494111D01*
X3008877Y37427079D01*
X3008876Y37427072D01*
X2996500Y37341000D01*
X2996500Y35049000D01*
X2996501Y35048991D01*
X3003481Y34984065D01*
X3003483Y34984053D01*
X3014688Y34932547D01*
X3025644Y34894346D01*
X3025646Y34894342D01*
X3082323Y34797432D01*
X3082325Y34797429D01*
X3128081Y34744624D01*
X3128091Y34744613D01*
X3172807Y34702452D01*
X3172809Y34702451D01*
X3172813Y34702447D01*
X3260460Y34657881D01*
X3311295Y34609950D01*
X3328148Y34542144D01*
X3314742Y34491056D01*
X3298129Y34458451D01*
X3244597Y34293698D01*
X3217500Y34122611D01*
X3217500Y33949390D01*
X3236034Y33832366D01*
X3244598Y33778299D01*
X3298127Y33613555D01*
X3376768Y33459212D01*
X3478586Y33319072D01*
X3601072Y33196586D01*
X3741212Y33094768D01*
X3895555Y33016127D01*
X4060299Y32962598D01*
X4231389Y32935500D01*
X4231390Y32935500D01*
X4404610Y32935500D01*
X4404611Y32935500D01*
X4575701Y32962598D01*
X4740445Y33016127D01*
X4894788Y33094768D01*
X5034928Y33196586D01*
X5157414Y33319072D01*
X5259232Y33459212D01*
X5337873Y33613555D01*
X5391402Y33778299D01*
X5418500Y33949389D01*
X5418500Y34122611D01*
X5391402Y34293701D01*
X5338282Y34457184D01*
X5336288Y34527023D01*
X5372368Y34586856D01*
X5435069Y34617684D01*
X5456214Y34619500D01*
X6936500Y34619500D01*
X7003539Y34599815D01*
X7049294Y34547011D01*
X7060500Y34495500D01*
X7060500Y34159237D01*
X7051855Y34113747D01*
X7000122Y33982562D01*
X6998879Y33972208D01*
X6989500Y33894102D01*
X6989500Y32907898D01*
X6992843Y32880062D01*
X7000123Y32819435D01*
X7051854Y32688255D01*
X7060500Y32642765D01*
X7060500Y29080000D01*
X7060501Y29079991D01*
X7067481Y29015065D01*
X7067483Y29015053D01*
X7078688Y28963547D01*
X7089644Y28925346D01*
X7089646Y28925342D01*
X7146325Y28828429D01*
X7179731Y28789876D01*
X7192081Y28775624D01*
X7192082Y28775623D01*
X7216455Y28752642D01*
X7251727Y28692329D01*
X7248793Y28622521D01*
X7208583Y28565381D01*
X7143864Y28539051D01*
X7131388Y28538422D01*
X6875161Y28538422D01*
X6808122Y28558107D01*
X6762367Y28610911D01*
X6751987Y28676713D01*
X6752001Y28676842D01*
X6752500Y28681135D01*
X6752499Y31770864D01*
X6752497Y31770883D01*
X6749586Y31795988D01*
X6749585Y31795990D01*
X6749585Y31795991D01*
X6704206Y31898765D01*
X6624765Y31978206D01*
X6560171Y32006727D01*
X6521992Y32023585D01*
X6496865Y32026500D01*
X3407143Y32026500D01*
X3407117Y32026498D01*
X3382012Y32023587D01*
X3382008Y32023585D01*
X3279235Y31978207D01*
X3199794Y31898766D01*
X3154415Y31795994D01*
X3154415Y31795992D01*
X3151500Y31770869D01*
X3151500Y28681144D01*
X3151502Y28681118D01*
X3154413Y28656013D01*
X3154415Y28656009D01*
X3199793Y28553236D01*
X3199794Y28553235D01*
X3279235Y28473794D01*
X3382009Y28428415D01*
X3407135Y28425500D01*
X5124659Y28425501D01*
X5191698Y28405816D01*
X5237453Y28353013D01*
X5247397Y28283854D01*
X5218372Y28220298D01*
X5212340Y28213820D01*
X4426022Y27427500D01*
X4188711Y27190189D01*
X4132960Y27134438D01*
X4077209Y27078688D01*
X3989609Y26947586D01*
X3989602Y26947573D01*
X3929264Y26801902D01*
X3929261Y26801890D01*
X3898500Y26647247D01*
X3898500Y8557154D01*
X3929261Y8402511D01*
X3929264Y8402499D01*
X3989602Y8256828D01*
X3989609Y8256815D01*
X4077210Y8125712D01*
X4077213Y8125708D01*
X5638707Y6564214D01*
X5638711Y6564211D01*
X5769814Y6476610D01*
X5769818Y6476608D01*
X5769821Y6476606D01*
X5915503Y6416262D01*
X6070153Y6385501D01*
X6070157Y6385500D01*
X6070158Y6385500D01*
X12504914Y6385500D01*
X12571953Y6365815D01*
X12611638Y6320016D01*
X12613481Y6321052D01*
X12617638Y6313659D01*
X12709077Y6193078D01*
X12829656Y6101640D01*
X12829657Y6101640D01*
X12829658Y6101639D01*
X12970436Y6046123D01*
X13058898Y6035500D01*
X13058903Y6035500D01*
X15645097Y6035500D01*
X15645102Y6035500D01*
X15733564Y6046123D01*
X15762251Y6057436D01*
X15781010Y6064833D01*
X15850597Y6071115D01*
X15912533Y6038778D01*
X15947154Y5978089D01*
X15950500Y5949479D01*
X15950500Y2333800D01*
X15950501Y2333791D01*
X15957481Y2268865D01*
X15957483Y2268853D01*
X15968688Y2217347D01*
X15979644Y2179146D01*
X15979646Y2179142D01*
X16036323Y2082232D01*
X16036325Y2082229D01*
X16082081Y2029424D01*
X16082091Y2029413D01*
X16126807Y1987252D01*
X16126809Y1987251D01*
X16126813Y1987247D01*
X16226889Y1936361D01*
X16293928Y1916676D01*
X16380000Y1904300D01*
X16380003Y1904300D01*
X17973017Y1904300D01*
X17973022Y1904300D01*
X18038537Y1911408D01*
X18090482Y1922813D01*
X18129218Y1934043D01*
X18225913Y1991094D01*
X18278540Y2037051D01*
X18320547Y2081948D01*
X18371048Y2182219D01*
X18390475Y2249334D01*
X18402519Y2335452D01*
X18398306Y3430823D01*
X18417732Y3497938D01*
X18470360Y3543895D01*
X18522305Y3555300D01*
X19840213Y3555300D01*
X19840217Y3555300D01*
X19905377Y3562330D01*
X19957055Y3573612D01*
X19995464Y3584673D01*
X19995466Y3584675D01*
X19995468Y3584675D01*
X20024120Y3601489D01*
X20092294Y3641495D01*
X20145030Y3687327D01*
X20187144Y3732125D01*
X20237883Y3832276D01*
X20257469Y3899345D01*
X20269717Y3985434D01*
X20265841Y6612777D01*
X20285427Y6679845D01*
X20338163Y6725677D01*
X20407307Y6735723D01*
X20414020Y6734579D01*
X20476724Y6722106D01*
X20509930Y6715500D01*
X20509931Y6715500D01*
X20638071Y6715500D01*
X20739734Y6735723D01*
X20763744Y6740499D01*
X20882127Y6789535D01*
X20988669Y6860724D01*
X21079276Y6951331D01*
X21150465Y7057873D01*
X21199501Y7176256D01*
X21224500Y7301931D01*
X21224500Y7430069D01*
X21221629Y7444500D01*
X21210746Y7499212D01*
X21216973Y7568804D01*
X21259835Y7623982D01*
X21325725Y7647227D01*
X21379813Y7637967D01*
X21400256Y7629499D01*
X21400260Y7629499D01*
X21400261Y7629498D01*
X21525928Y7604500D01*
X21525931Y7604500D01*
X21654071Y7604500D01*
X21752009Y7623982D01*
X21779744Y7629499D01*
X21898127Y7678535D01*
X21980610Y7733649D01*
X22047286Y7754526D01*
X22114666Y7736042D01*
X22161357Y7684063D01*
X22173500Y7630546D01*
X22173500Y5712000D01*
X22173501Y5711991D01*
X22180481Y5647065D01*
X22180483Y5647053D01*
X22191688Y5595547D01*
X22202644Y5557346D01*
X22202646Y5557342D01*
X22259323Y5460432D01*
X22259325Y5460429D01*
X22305081Y5407624D01*
X22305091Y5407613D01*
X22349807Y5365452D01*
X22349809Y5365451D01*
X22349813Y5365447D01*
X22449889Y5314561D01*
X22516928Y5294876D01*
X22603000Y5282500D01*
X22603003Y5282500D01*
X24640990Y5282500D01*
X24641000Y5282500D01*
X24705941Y5289482D01*
X24757452Y5300688D01*
X24795658Y5311646D01*
X24892571Y5368325D01*
X24945375Y5414080D01*
X24945382Y5414088D01*
X24945387Y5414092D01*
X24987548Y5458808D01*
X24987553Y5458813D01*
X25038439Y5558889D01*
X25058124Y5625928D01*
X25070500Y5712000D01*
X25070500Y7444500D01*
X25090185Y7511539D01*
X25142989Y7557294D01*
X25194500Y7568500D01*
X30355990Y7568500D01*
X30356000Y7568500D01*
X30420941Y7575482D01*
X30472452Y7586688D01*
X30510658Y7597646D01*
X30607571Y7654325D01*
X30660375Y7700080D01*
X30660382Y7700088D01*
X30660387Y7700092D01*
X30702548Y7744808D01*
X30702553Y7744813D01*
X30753439Y7844889D01*
X30773124Y7911928D01*
X30785500Y7998000D01*
X30785500Y9655000D01*
X30778518Y9719941D01*
X30767312Y9771452D01*
X30756354Y9809658D01*
X30699675Y9906571D01*
X30653920Y9959375D01*
X30653918Y9959377D01*
X30653908Y9959388D01*
X30609192Y10001549D01*
X30609189Y10001551D01*
X30609187Y10001553D01*
X30509111Y10052439D01*
X30509110Y10052440D01*
X30509109Y10052440D01*
X30481335Y10060595D01*
X30422557Y10098370D01*
X30393533Y10161926D01*
X30403477Y10231084D01*
X30408189Y10240353D01*
X30408356Y10240653D01*
X30408361Y10240658D01*
X30463877Y10381436D01*
X30474500Y10469898D01*
X30474500Y11056102D01*
X30463877Y11144564D01*
X30408361Y11285342D01*
X30408360Y11285343D01*
X30408360Y11285344D01*
X30316922Y11405923D01*
X30196343Y11497361D01*
X30055561Y11552878D01*
X30009926Y11558358D01*
X29967102Y11563500D01*
X29967097Y11563500D01*
X27732966Y11563500D01*
X27665927Y11583185D01*
X27645285Y11599819D01*
X26496419Y12748685D01*
X26462934Y12810008D01*
X26460100Y12836366D01*
X26460100Y18558035D01*
X26468744Y18587476D01*
X26475268Y18617462D01*
X26479022Y18622478D01*
X26479785Y18625074D01*
X26496419Y18645716D01*
X26667884Y18817181D01*
X26729207Y18850666D01*
X26755565Y18853500D01*
X31636470Y18853500D01*
X31703509Y18833815D01*
X31705361Y18832602D01*
X31793366Y18773799D01*
X31793372Y18773796D01*
X31793373Y18773795D01*
X31911756Y18724759D01*
X31911760Y18724759D01*
X31911761Y18724758D01*
X32037428Y18699760D01*
X32037431Y18699760D01*
X32165571Y18699760D01*
X32250115Y18716578D01*
X32291244Y18724759D01*
X32409627Y18773795D01*
X32516169Y18844984D01*
X32606776Y18935591D01*
X32677965Y19042133D01*
X32727001Y19160516D01*
X32752000Y19286191D01*
X32752000Y19414329D01*
X32752000Y19414332D01*
X32727002Y19539999D01*
X32727001Y19540000D01*
X32727001Y19540004D01*
X32677965Y19658387D01*
X32677964Y19658388D01*
X32677961Y19658394D01*
X32606776Y19764929D01*
X32606773Y19764933D01*
X32516172Y19855534D01*
X32516168Y19855537D01*
X32409633Y19926722D01*
X32409624Y19926727D01*
X32291244Y19975761D01*
X32291238Y19975763D01*
X32165571Y20000760D01*
X32165569Y20000760D01*
X32037431Y20000760D01*
X32037429Y20000760D01*
X31911761Y19975763D01*
X31911755Y19975761D01*
X31793375Y19926727D01*
X31793366Y19926722D01*
X31686832Y19855538D01*
X31658284Y19826989D01*
X31622112Y19790818D01*
X31560792Y19757334D01*
X31534433Y19754500D01*
X31230879Y19754500D01*
X31163840Y19774185D01*
X31118085Y19826989D01*
X31108141Y19896147D01*
X31137166Y19959703D01*
X31148241Y19970139D01*
X31153611Y19975510D01*
X31153614Y19975511D01*
X31949489Y20771386D01*
X32008799Y20874113D01*
X32020156Y20916500D01*
X32039500Y20988691D01*
X32039500Y24833143D01*
X32008799Y24947720D01*
X32008799Y24947721D01*
X31949489Y25050448D01*
X30867819Y26132118D01*
X30834334Y26193441D01*
X30831500Y26219799D01*
X30831500Y27476035D01*
X30851185Y27543074D01*
X30867819Y27563716D01*
X31226284Y27922181D01*
X31287607Y27955666D01*
X31313965Y27958500D01*
X33421308Y27958500D01*
X33421309Y27958500D01*
X33511673Y27982714D01*
X33535887Y27989201D01*
X33638614Y28048511D01*
X34113284Y28523181D01*
X34174607Y28556666D01*
X34200965Y28559500D01*
X34227071Y28559500D01*
X34311615Y28576318D01*
X34352744Y28584499D01*
X34471127Y28633535D01*
X34577669Y28704724D01*
X34668276Y28795331D01*
X34739465Y28901873D01*
X34788501Y29020256D01*
X34813500Y29145931D01*
X34813500Y29172035D01*
X34833185Y29239074D01*
X34849819Y29259716D01*
X36056893Y30466790D01*
X37395489Y31805386D01*
X37401702Y31816147D01*
X37429731Y31864694D01*
X37454797Y31908111D01*
X37454799Y31908114D01*
X37485500Y32022691D01*
X37485500Y49998879D01*
X37454799Y50113456D01*
X37454797Y50113460D01*
X37425551Y50164116D01*
X37395493Y50216178D01*
X37395487Y50216186D01*
X35357186Y52254487D01*
X35357184Y52254489D01*
X35305820Y52284144D01*
X35254458Y52313799D01*
X35242350Y52317043D01*
X35230243Y52320287D01*
X35230240Y52320288D01*
X35192048Y52330522D01*
X35139879Y52344500D01*
X35139878Y52344500D01*
X29095535Y52344500D01*
X29028496Y52364185D01*
X29007854Y52380819D01*
X28010204Y53378469D01*
X27976719Y53439792D01*
X27973885Y53466150D01*
X27973885Y54303492D01*
X27973885Y54303494D01*
X27943184Y54418071D01*
X27943184Y54418072D01*
X27943184Y54418073D01*
X27883877Y54520796D01*
X27883873Y54520801D01*
X23785186Y58619487D01*
X23785184Y58619489D01*
X23733820Y58649144D01*
X23682458Y58678799D01*
X23670350Y58682043D01*
X23658243Y58685287D01*
X23658240Y58685288D01*
X23620048Y58695522D01*
X23567879Y58709500D01*
X23567878Y58709500D01*
X22903365Y58709500D01*
X22836326Y58729185D01*
X22815684Y58745819D01*
X22395958Y59165545D01*
X22362473Y59226868D01*
X22367457Y59296560D01*
X22380533Y59322112D01*
X22420465Y59381873D01*
X22469501Y59500256D01*
X22494500Y59625931D01*
X22494500Y59754069D01*
X22494500Y59754072D01*
X22468593Y59884308D01*
X22472105Y59923562D01*
X30291700Y59923562D01*
X30291700Y59671638D01*
X30331110Y59422815D01*
X30408960Y59183217D01*
X30523332Y58958752D01*
X30671401Y58754951D01*
X30671405Y58754946D01*
X30849545Y58576806D01*
X30849550Y58576802D01*
X30947643Y58505534D01*
X31053355Y58428730D01*
X31196384Y58355853D01*
X31277816Y58314361D01*
X31277818Y58314361D01*
X31277821Y58314359D01*
X31517415Y58236510D01*
X31766238Y58197100D01*
X31766239Y58197100D01*
X32018161Y58197100D01*
X32018162Y58197100D01*
X32266985Y58236510D01*
X32506579Y58314359D01*
X32731045Y58428730D01*
X32934856Y58576807D01*
X33112993Y58754944D01*
X33261070Y58958755D01*
X33375441Y59183221D01*
X33453290Y59422815D01*
X33492700Y59671638D01*
X33492700Y59923562D01*
X33453290Y60172385D01*
X33375441Y60411979D01*
X33375439Y60411982D01*
X33375439Y60411984D01*
X33333947Y60493416D01*
X33261070Y60636445D01*
X33208873Y60708288D01*
X33112998Y60840250D01*
X33112994Y60840255D01*
X32934854Y61018395D01*
X32934849Y61018399D01*
X32731048Y61166468D01*
X32731047Y61166469D01*
X32731045Y61166470D01*
X32597523Y61234503D01*
X32506583Y61280840D01*
X32266985Y61358690D01*
X32074625Y61389157D01*
X32018162Y61398100D01*
X31766238Y61398100D01*
X31709781Y61389158D01*
X31517414Y61358690D01*
X31277816Y61280840D01*
X31053351Y61166468D01*
X30849550Y61018399D01*
X30849545Y61018395D01*
X30671405Y60840255D01*
X30671401Y60840250D01*
X30523332Y60636449D01*
X30408960Y60411984D01*
X30365050Y60276842D01*
X30331110Y60172385D01*
X30291700Y59923562D01*
X22472105Y59923562D01*
X22474820Y59953899D01*
X22517682Y60009077D01*
X22583572Y60032322D01*
X22590210Y60032500D01*
X23192844Y60032500D01*
X23281078Y60050051D01*
X23281078Y60050052D01*
X23347497Y60063263D01*
X23493179Y60123606D01*
X23624289Y60211211D01*
X24370789Y60957711D01*
X24458394Y61088821D01*
X24518738Y61234503D01*
X24549500Y61389158D01*
X24549500Y61546843D01*
X24549500Y65610842D01*
X24546018Y65628346D01*
X24539865Y65659284D01*
X24539865Y65659285D01*
X24518739Y65765490D01*
X24518738Y65765497D01*
X24458394Y65911179D01*
X24458392Y65911182D01*
X24458390Y65911186D01*
X24370789Y66042289D01*
X24370786Y66042293D01*
X22481292Y67931787D01*
X22481288Y67931790D01*
X22350185Y68019391D01*
X22350172Y68019398D01*
X22204501Y68079736D01*
X22204489Y68079739D01*
X22049845Y68110500D01*
X22049842Y68110500D01*
X19108518Y68110500D01*
X19041479Y68130185D01*
X18995724Y68182989D01*
X18985780Y68252147D01*
X19014805Y68315703D01*
X19020837Y68322181D01*
X19857837Y69159181D01*
X19919160Y69192666D01*
X19945518Y69195500D01*
X24960995Y69195500D01*
X25052041Y69213611D01*
X25096328Y69222420D01*
X25223811Y69275225D01*
X25338542Y69351886D01*
X25436114Y69449458D01*
X25512775Y69564189D01*
X25565580Y69691672D01*
X25590818Y69818549D01*
X25592500Y69827005D01*
X25592500Y69964996D01*
X25565581Y70100323D01*
X25565580Y70100324D01*
X25565580Y70100328D01*
X25543970Y70152500D01*
X25512778Y70227805D01*
X25512771Y70227818D01*
X25436114Y70342542D01*
X25436111Y70342546D01*
X25338545Y70440112D01*
X25338541Y70440115D01*
X25223817Y70516772D01*
X25223804Y70516779D01*
X25096332Y70569579D01*
X25096322Y70569582D01*
X24960995Y70596500D01*
X24960993Y70596500D01*
X19716964Y70596500D01*
X19649925Y70616185D01*
X19604170Y70668989D01*
X19594226Y70738147D01*
X19623251Y70801703D01*
X19629283Y70808181D01*
X20591445Y71770342D01*
X21740284Y72919181D01*
X21801607Y72952666D01*
X21827965Y72955500D01*
X24498192Y72955500D01*
X24565231Y72935815D01*
X24585873Y72919181D01*
X24604327Y72900727D01*
X24604331Y72900724D01*
X24710866Y72829539D01*
X24710872Y72829536D01*
X24710873Y72829535D01*
X24829256Y72780499D01*
X24829260Y72780499D01*
X24829261Y72780498D01*
X24954928Y72755500D01*
X24954931Y72755500D01*
X24981035Y72755500D01*
X25048074Y72735815D01*
X25068716Y72719181D01*
X26925181Y70862716D01*
X26958666Y70801393D01*
X26961500Y70775035D01*
X26961500Y65955500D01*
X26941815Y65888461D01*
X26889011Y65842706D01*
X26837500Y65831500D01*
X26172636Y65831500D01*
X26055246Y65816047D01*
X26055237Y65816044D01*
X25909160Y65755537D01*
X25783718Y65659282D01*
X25687463Y65533840D01*
X25626956Y65387763D01*
X25626955Y65387761D01*
X25622445Y65353500D01*
X25611501Y65270364D01*
X25611500Y65270355D01*
X25611500Y63791637D01*
X25626953Y63674247D01*
X25626956Y63674238D01*
X25687464Y63528159D01*
X25783718Y63402718D01*
X25909159Y63306464D01*
X26055238Y63245956D01*
X26172639Y63230500D01*
X28651360Y63230501D01*
X28651363Y63230501D01*
X28768753Y63245954D01*
X28768757Y63245956D01*
X28768762Y63245956D01*
X28914841Y63306464D01*
X29040282Y63402718D01*
X29136536Y63528159D01*
X29197044Y63674238D01*
X29212500Y63791639D01*
X29212499Y65270360D01*
X29212499Y65270361D01*
X29212499Y65270364D01*
X29197046Y65387754D01*
X29197044Y65387761D01*
X29197044Y65387762D01*
X29136536Y65533841D01*
X29040282Y65659282D01*
X28914841Y65755536D01*
X28768762Y65816044D01*
X28768760Y65816045D01*
X28651370Y65831499D01*
X28651367Y65831500D01*
X28651361Y65831500D01*
X28651354Y65831500D01*
X27986500Y65831500D01*
X27919461Y65851185D01*
X27873706Y65903989D01*
X27862500Y65955500D01*
X27862500Y71072307D01*
X27862500Y71072309D01*
X27831799Y71186886D01*
X27831799Y71186887D01*
X27772489Y71289614D01*
X25705819Y73356284D01*
X25672334Y73417607D01*
X25669500Y73443965D01*
X25669500Y73470072D01*
X25644502Y73595739D01*
X25644501Y73595740D01*
X25644501Y73595744D01*
X25595465Y73714127D01*
X25595464Y73714128D01*
X25595461Y73714134D01*
X25524276Y73820670D01*
X25433672Y73911274D01*
X25433668Y73911277D01*
X25327133Y73982462D01*
X25327124Y73982467D01*
X25208744Y74031501D01*
X25208738Y74031503D01*
X25083071Y74056500D01*
X25083069Y74056500D01*
X24954931Y74056500D01*
X24954929Y74056500D01*
X24829261Y74031503D01*
X24829255Y74031501D01*
X24710875Y73982467D01*
X24710866Y73982462D01*
X24604331Y73911277D01*
X24604327Y73911274D01*
X24585873Y73892819D01*
X24524550Y73859334D01*
X24498192Y73856500D01*
X21530691Y73856500D01*
X21416114Y73825800D01*
X21407231Y73820670D01*
X21407228Y73820669D01*
X21313392Y73766494D01*
X21313384Y73766488D01*
X20471181Y72924284D01*
X20409858Y72890799D01*
X20340166Y72895783D01*
X20284233Y72937655D01*
X20259816Y73003119D01*
X20259500Y73011965D01*
X20259500Y76629990D01*
X20259500Y76630000D01*
X20252518Y76694941D01*
X20241312Y76746452D01*
X20230354Y76784658D01*
X20173675Y76881571D01*
X20127920Y76934375D01*
X20127918Y76934377D01*
X20127908Y76934388D01*
X20083192Y76976549D01*
X20083189Y76976551D01*
X20083187Y76976553D01*
X19983111Y77027439D01*
X19983110Y77027440D01*
X19983109Y77027440D01*
X19916078Y77047123D01*
X19916072Y77047124D01*
X19830000Y77059500D01*
X10679424Y77059500D01*
X10679422Y77059500D01*
X10615185Y77052670D01*
X10615183Y77052670D01*
X10564217Y77041707D01*
X10564209Y77041706D01*
X10564195Y77041702D01*
X10564181Y77041698D01*
X10526633Y77031072D01*
X10526628Y77031070D01*
X10429460Y76974847D01*
X10429448Y76974838D01*
X10376447Y76929343D01*
X10376437Y76929334D01*
X10334053Y76884798D01*
X10334052Y76884797D01*
X10282702Y76784964D01*
X10282700Y76784959D01*
X10262703Y76718010D01*
X10262701Y76718002D01*
X10249929Y76632014D01*
X10249928Y76632000D01*
X10236083Y73658995D01*
X10242911Y73593335D01*
X10242911Y73593331D01*
X10254115Y73541248D01*
X10254117Y73541241D01*
X10265225Y73502342D01*
X10321904Y73405429D01*
X10364488Y73356284D01*
X10367660Y73352624D01*
X10367670Y73352613D01*
X10412386Y73310452D01*
X10412388Y73310451D01*
X10412392Y73310447D01*
X10512468Y73259561D01*
X10579507Y73239876D01*
X10665579Y73227500D01*
X15826500Y73227500D01*
X15893539Y73207815D01*
X15939294Y73155011D01*
X15950500Y73103500D01*
X15950500Y71925000D01*
X15950501Y71924991D01*
X15957481Y71860065D01*
X15957483Y71860053D01*
X15968688Y71808547D01*
X15979644Y71770346D01*
X15979646Y71770342D01*
X16036323Y71673432D01*
X16036325Y71673429D01*
X16082081Y71620624D01*
X16082091Y71620613D01*
X16126807Y71578452D01*
X16126809Y71578451D01*
X16126813Y71578447D01*
X16226889Y71527561D01*
X16293928Y71507876D01*
X16380000Y71495500D01*
X18743035Y71495500D01*
X18810074Y71475815D01*
X18855829Y71423011D01*
X18865773Y71353853D01*
X18836748Y71290297D01*
X18830716Y71283819D01*
X14708716Y67161819D01*
X14647393Y67128334D01*
X14621035Y67125500D01*
X9827500Y67125500D01*
X9760461Y67145185D01*
X9714706Y67197989D01*
X9703500Y67249500D01*
X9703500Y67566677D01*
X9703500Y67566681D01*
X9696435Y67632001D01*
X9685097Y67683802D01*
X9673956Y67722369D01*
X9640302Y67779573D01*
X9623275Y67847334D01*
X9636645Y67898647D01*
X9671439Y67967073D01*
X9691124Y68034112D01*
X9703500Y68120184D01*
X9703500Y69472000D01*
X9696518Y69536941D01*
X9685312Y69588452D01*
X9674354Y69626658D01*
X9617675Y69723571D01*
X9571920Y69776375D01*
X9571918Y69776377D01*
X9571908Y69776388D01*
X9527192Y69818549D01*
X9527189Y69818551D01*
X9527187Y69818553D01*
X9427111Y69869439D01*
X9427110Y69869440D01*
X9427109Y69869440D01*
X9360078Y69889123D01*
X9360072Y69889124D01*
X9274000Y69901500D01*
X9273997Y69901500D01*
X9192500Y69901500D01*
X9125461Y69921185D01*
X9079706Y69973989D01*
X9068500Y70025500D01*
X9068500Y71884990D01*
X9068500Y71885000D01*
X9061518Y71949941D01*
X9050312Y72001452D01*
X9039354Y72039658D01*
X8982675Y72136571D01*
X8936920Y72189375D01*
X8936918Y72189377D01*
X8936908Y72189388D01*
X8892192Y72231549D01*
X8892189Y72231551D01*
X8892187Y72231553D01*
X8792111Y72282439D01*
X8792110Y72282440D01*
X8792109Y72282440D01*
X8725078Y72302123D01*
X8725072Y72302124D01*
X8639000Y72314500D01*
X7294116Y72314500D01*
X7294106Y72314500D01*
X7235462Y72308817D01*
X7188721Y72299673D01*
X7156405Y72291497D01*
X7156398Y72291494D01*
X7078536Y72250243D01*
X7010081Y72236252D01*
X6964284Y72249283D01*
X6899077Y72282439D01*
X6899074Y72282440D01*
X6832042Y72302123D01*
X6832036Y72302124D01*
X6745964Y72314500D01*
X5458000Y72314500D01*
X5457991Y72314500D01*
X5457990Y72314499D01*
X5393064Y72307519D01*
X5393052Y72307517D01*
X5341546Y72296312D01*
X5303345Y72285356D01*
X5303343Y72285355D01*
X5244839Y72251139D01*
X5177032Y72234287D01*
X5126037Y72247646D01*
X5119167Y72251139D01*
X5057611Y72282439D01*
X5057610Y72282440D01*
X5057609Y72282440D01*
X4990578Y72302123D01*
X4990572Y72302124D01*
X4904500Y72314500D01*
X3680000Y72314500D01*
X3679991Y72314500D01*
X3679990Y72314499D01*
X3615064Y72307519D01*
X3615052Y72307517D01*
X3563546Y72296312D01*
X3525345Y72285356D01*
X3525341Y72285354D01*
X3428431Y72228677D01*
X3428428Y72228675D01*
X3375623Y72182919D01*
X3375612Y72182909D01*
X3333451Y72138193D01*
X3333445Y72138184D01*
X3282560Y72038110D01*
X3262877Y71971079D01*
X3262876Y71971072D01*
X3250502Y71885010D01*
X3250500Y71884998D01*
X3250500Y70152500D01*
X3230815Y70085461D01*
X3178011Y70039706D01*
X3126500Y70028500D01*
X3045000Y70028500D01*
X3044991Y70028500D01*
X3044990Y70028499D01*
X2980064Y70021519D01*
X2980052Y70021517D01*
X2928546Y70010312D01*
X2890345Y69999356D01*
X2890341Y69999354D01*
X2793431Y69942677D01*
X2793428Y69942675D01*
X2740623Y69896919D01*
X2740612Y69896909D01*
X2698451Y69852193D01*
X2698445Y69852184D01*
X2647560Y69752110D01*
X2627877Y69685079D01*
X2627876Y69685072D01*
X2619477Y69626655D01*
X2615500Y69598998D01*
X400500Y69598998D01*
X400500Y77995573D01*
X400816Y78004419D01*
X416148Y78218788D01*
X416148Y78218789D01*
X418666Y78236300D01*
X463407Y78441974D01*
X468384Y78458925D01*
X541948Y78656156D01*
X549296Y78672243D01*
X572895Y78715462D01*
X650166Y78856975D01*
X659720Y78871843D01*
X785873Y79040363D01*
X797445Y79053717D01*
X946283Y79202555D01*
X959637Y79214127D01*
X1128157Y79340280D01*
X1143025Y79349834D01*
X1327757Y79450705D01*
X1343844Y79458052D01*
X1541075Y79531616D01*
X1558026Y79536593D01*
X1763705Y79581335D01*
X1781206Y79583852D01*
X1995582Y79599184D01*
X2004428Y79599500D01*
X2057583Y79599500D01*
X37942417Y79599500D01*
X37995572Y79599500D01*
X38004418Y79599184D01*
G37*
%TD.AperFunction*%
%TD*%
%TA.AperFunction,Conductor*%
%TO.N,Net-(U5-DIS)*%
G36*
X15012599Y40493315D02*
G01*
X15033241Y40476681D01*
X15330681Y40179241D01*
X15364166Y40117918D01*
X15367000Y40091560D01*
X15367000Y38846414D01*
X15347315Y38779375D01*
X15305601Y38739376D01*
X15239429Y38700675D01*
X15239428Y38700674D01*
X15186623Y38654919D01*
X15186612Y38654909D01*
X15144451Y38610193D01*
X15144445Y38610184D01*
X15093560Y38510110D01*
X15073877Y38443079D01*
X15061500Y38356998D01*
X15061500Y37402627D01*
X15057258Y37370471D01*
X15042686Y37316201D01*
X15038284Y37302872D01*
X15030552Y37283266D01*
X15022817Y37263651D01*
X15006267Y37234218D01*
X14986167Y37207712D01*
X14962288Y37183833D01*
X14935782Y37163733D01*
X14906348Y37147183D01*
X14871935Y37133612D01*
X14841246Y37125853D01*
X14841242Y37125852D01*
X14838464Y37125519D01*
X14833196Y37124886D01*
X14818407Y37124000D01*
X13883601Y37124000D01*
X13868808Y37124886D01*
X13860760Y37125853D01*
X13830063Y37133613D01*
X13795647Y37147185D01*
X13766210Y37163736D01*
X13739705Y37183836D01*
X13715828Y37207714D01*
X13695732Y37234215D01*
X13679182Y37263649D01*
X13676326Y37270889D01*
X13665609Y37298067D01*
X13657848Y37328781D01*
X13656883Y37336824D01*
X13656000Y37351596D01*
X13656000Y37848990D01*
X13656000Y37849000D01*
X13649018Y37913941D01*
X13637812Y37965452D01*
X13626854Y38003658D01*
X13570175Y38100571D01*
X13524420Y38153375D01*
X13524418Y38153377D01*
X13524408Y38153388D01*
X13479692Y38195549D01*
X13479689Y38195551D01*
X13479687Y38195553D01*
X13379611Y38246439D01*
X13379610Y38246440D01*
X13379609Y38246440D01*
X13312578Y38266123D01*
X13312572Y38266124D01*
X13226500Y38278500D01*
X13226497Y38278500D01*
X11351500Y38278500D01*
X11284461Y38298185D01*
X11238706Y38350989D01*
X11227500Y38402500D01*
X11227500Y38661990D01*
X11227499Y38662005D01*
X11223739Y38709787D01*
X11223739Y38709788D01*
X11217670Y38748106D01*
X11206477Y38794727D01*
X11193744Y38833912D01*
X11193743Y38833912D01*
X11165587Y38920568D01*
X11161049Y38939476D01*
X11144527Y39043794D01*
X11143000Y39063191D01*
X11143000Y39168807D01*
X11144526Y39188203D01*
X11161047Y39292521D01*
X11165588Y39311437D01*
X11206479Y39437283D01*
X11217670Y39483897D01*
X11223739Y39522215D01*
X11227500Y39570006D01*
X11227500Y40008000D01*
X11220518Y40072941D01*
X11209312Y40124452D01*
X11198354Y40162658D01*
X11141675Y40259571D01*
X11099886Y40307798D01*
X11070862Y40371354D01*
X11080806Y40440512D01*
X11126561Y40493316D01*
X11193600Y40513000D01*
X14945560Y40513000D01*
X15012599Y40493315D01*
G37*
%TD.AperFunction*%
%TD*%
%TA.AperFunction,Conductor*%
%TO.N,/power_switch/BOOST*%
G36*
X34487039Y36302315D02*
G01*
X34532794Y36249511D01*
X34544000Y36198000D01*
X34544000Y34076440D01*
X34524315Y34009401D01*
X34507681Y33988759D01*
X33613741Y33094819D01*
X33552418Y33061334D01*
X33526060Y33058500D01*
X31163155Y33058500D01*
X31008508Y33027739D01*
X31008498Y33027736D01*
X30862827Y32967398D01*
X30862814Y32967391D01*
X30731712Y32879791D01*
X30692977Y32841055D01*
X30654239Y32802318D01*
X30592919Y32768834D01*
X30566560Y32766000D01*
X28826000Y32766000D01*
X28758961Y32785685D01*
X28713206Y32838489D01*
X28702000Y32890000D01*
X28702000Y34182374D01*
X28702885Y34197159D01*
X28711500Y34268898D01*
X28711500Y35030104D01*
X28702885Y35101844D01*
X28702000Y35116628D01*
X28702000Y36198000D01*
X28721685Y36265039D01*
X28774489Y36310794D01*
X28826000Y36322000D01*
X34420000Y36322000D01*
X34487039Y36302315D01*
G37*
%TD.AperFunction*%
%TD*%
%TA.AperFunction,Conductor*%
%TO.N,/brake_control/RF SWITCH*%
G36*
X19882222Y21062315D02*
G01*
X19927977Y21009511D01*
X19939182Y20958185D01*
X19946122Y16253003D01*
X19958876Y7605645D01*
X19950150Y7561602D01*
X19950266Y7561567D01*
X19949914Y7560408D01*
X19949441Y7558019D01*
X19948500Y7555748D01*
X19948497Y7555738D01*
X19923500Y7430072D01*
X19923500Y7430069D01*
X19923500Y7301931D01*
X19923500Y7301929D01*
X19923499Y7301929D01*
X19948497Y7176262D01*
X19948498Y7176261D01*
X19948499Y7176256D01*
X19950147Y7172276D01*
X19959585Y7125010D01*
X19964217Y3984983D01*
X19944631Y3917914D01*
X19891895Y3872082D01*
X19840217Y3860800D01*
X18091150Y3860800D01*
X18097021Y2334277D01*
X18077594Y2267162D01*
X18024967Y2221205D01*
X17973022Y2209800D01*
X16380000Y2209800D01*
X16312961Y2229485D01*
X16267206Y2282289D01*
X16256000Y2333800D01*
X16256000Y7877000D01*
X16275685Y7944039D01*
X16328489Y7989794D01*
X16380000Y8001000D01*
X18034000Y8001000D01*
X18034000Y8143587D01*
X18053685Y8210626D01*
X18095400Y8250625D01*
X18114649Y8261884D01*
X18161571Y8289325D01*
X18214375Y8335080D01*
X18214382Y8335088D01*
X18214387Y8335092D01*
X18256548Y8379808D01*
X18256553Y8379813D01*
X18307439Y8479889D01*
X18327124Y8546928D01*
X18339500Y8633000D01*
X18339500Y10619500D01*
X18332518Y10684441D01*
X18321312Y10735952D01*
X18310354Y10774158D01*
X18276139Y10832660D01*
X18259286Y10900465D01*
X18272643Y10951459D01*
X18307439Y11019889D01*
X18327124Y11086928D01*
X18339500Y11173000D01*
X18339500Y13159500D01*
X18332518Y13224441D01*
X18321312Y13275952D01*
X18310354Y13314158D01*
X18276139Y13372660D01*
X18259286Y13440465D01*
X18272643Y13491459D01*
X18307439Y13559889D01*
X18327124Y13626928D01*
X18339500Y13713000D01*
X18339500Y15699500D01*
X18332518Y15764441D01*
X18321312Y15815952D01*
X18310354Y15854158D01*
X18276139Y15912660D01*
X18259286Y15980465D01*
X18272643Y16031459D01*
X18307439Y16099889D01*
X18327124Y16166928D01*
X18339500Y16253000D01*
X18339500Y18239500D01*
X18332518Y18304441D01*
X18321312Y18355952D01*
X18310354Y18394158D01*
X18276139Y18452660D01*
X18259286Y18520465D01*
X18272643Y18571459D01*
X18307439Y18639889D01*
X18327124Y18706928D01*
X18339500Y18793000D01*
X18339500Y20958000D01*
X18359185Y21025039D01*
X18411989Y21070794D01*
X18463500Y21082000D01*
X19815183Y21082000D01*
X19882222Y21062315D01*
G37*
%TD.AperFunction*%
%TD*%
%TA.AperFunction,Conductor*%
%TO.N,/brake_control/BTN*%
G36*
X24708039Y11029315D02*
G01*
X24753794Y10976511D01*
X24765000Y10925000D01*
X24765000Y10144414D01*
X24745315Y10077375D01*
X24703601Y10037376D01*
X24637429Y9998675D01*
X24637428Y9998674D01*
X24584623Y9952919D01*
X24584612Y9952909D01*
X24542451Y9908193D01*
X24542445Y9908184D01*
X24491560Y9808110D01*
X24471877Y9741079D01*
X24471876Y9741072D01*
X24459500Y9655000D01*
X24459500Y7998000D01*
X24459501Y7997991D01*
X24466481Y7933065D01*
X24466483Y7933053D01*
X24477688Y7881547D01*
X24488644Y7843346D01*
X24488646Y7843342D01*
X24545323Y7746432D01*
X24545325Y7746429D01*
X24591081Y7693624D01*
X24591091Y7693613D01*
X24635807Y7651452D01*
X24635809Y7651451D01*
X24635813Y7651447D01*
X24697203Y7620232D01*
X24748038Y7572302D01*
X24765000Y7509701D01*
X24765000Y5712000D01*
X24745315Y5644961D01*
X24692511Y5599206D01*
X24641000Y5588000D01*
X22603000Y5588000D01*
X22535961Y5607685D01*
X22490206Y5660489D01*
X22479000Y5712000D01*
X22479000Y10925000D01*
X22498685Y10992039D01*
X22551489Y11037794D01*
X22603000Y11049000D01*
X24641000Y11049000D01*
X24708039Y11029315D01*
G37*
%TD.AperFunction*%
%TD*%
%TA.AperFunction,Conductor*%
%TO.N,Net-(Q4-C)*%
G36*
X8019539Y55098315D02*
G01*
X8065294Y55045511D01*
X8076500Y54994000D01*
X8076500Y54607000D01*
X8076501Y54606991D01*
X8083481Y54542065D01*
X8083483Y54542053D01*
X8094688Y54490547D01*
X8105644Y54452346D01*
X8105646Y54452342D01*
X8162323Y54355432D01*
X8162325Y54355429D01*
X8208081Y54302624D01*
X8208091Y54302613D01*
X8252807Y54260452D01*
X8252809Y54260451D01*
X8252813Y54260447D01*
X8352889Y54209561D01*
X8419928Y54189876D01*
X8506000Y54177500D01*
X9095500Y54177500D01*
X9162539Y54157815D01*
X9208294Y54105011D01*
X9219500Y54053500D01*
X9219500Y52882690D01*
X9206032Y52826488D01*
X9159060Y52734110D01*
X9139377Y52667079D01*
X9139376Y52667072D01*
X9127002Y52581010D01*
X9127000Y52580998D01*
X9127000Y52563001D01*
X9124449Y52554316D01*
X9125738Y52545354D01*
X9114759Y52521314D01*
X9107315Y52495962D01*
X9100474Y52490035D01*
X9096713Y52481798D01*
X9074478Y52467509D01*
X9054511Y52450207D01*
X9043996Y52447920D01*
X9037935Y52444024D01*
X9003000Y52439001D01*
X8978136Y52439001D01*
X8930683Y52448440D01*
X8847789Y52482776D01*
X8847783Y52482778D01*
X8688307Y52514500D01*
X8688305Y52514500D01*
X8075695Y52514500D01*
X8075693Y52514500D01*
X7916216Y52482778D01*
X7916210Y52482776D01*
X7833317Y52448440D01*
X7825139Y52446814D01*
X7820799Y52444024D01*
X7785864Y52439001D01*
X7761001Y52439001D01*
X7693962Y52458686D01*
X7648207Y52511490D01*
X7637001Y52563001D01*
X7637001Y52580990D01*
X7637001Y52581000D01*
X7630019Y52645941D01*
X7618813Y52697452D01*
X7607855Y52735658D01*
X7551176Y52832571D01*
X7505421Y52885375D01*
X7505419Y52885377D01*
X7505409Y52885388D01*
X7460693Y52927549D01*
X7460690Y52927551D01*
X7460688Y52927553D01*
X7360612Y52978439D01*
X7360611Y52978440D01*
X7360610Y52978440D01*
X7293579Y52998123D01*
X7293573Y52998124D01*
X7207501Y53010500D01*
X5509500Y53010500D01*
X5442461Y53030185D01*
X5396706Y53082989D01*
X5385500Y53134500D01*
X5385500Y54994000D01*
X5405185Y55061039D01*
X5457989Y55106794D01*
X5509500Y55118000D01*
X7952500Y55118000D01*
X8019539Y55098315D01*
G37*
%TD.AperFunction*%
%TD*%
%TA.AperFunction,Conductor*%
%TO.N,/power_manager/VBATT*%
G36*
X24237599Y54128315D02*
G01*
X24258241Y54111681D01*
X25071181Y53298741D01*
X25104666Y53237418D01*
X25107500Y53211060D01*
X25107500Y52499154D01*
X25138261Y52344511D01*
X25138264Y52344499D01*
X25198602Y52198828D01*
X25198609Y52198815D01*
X25286210Y52067712D01*
X25286213Y52067708D01*
X27572211Y49781711D01*
X27683711Y49670211D01*
X27683712Y49670210D01*
X27814814Y49582610D01*
X27814827Y49582603D01*
X27958668Y49523023D01*
X27960503Y49522263D01*
X27960507Y49522263D01*
X27960508Y49522262D01*
X28115154Y49491500D01*
X28115157Y49491500D01*
X28115158Y49491500D01*
X34034060Y49491500D01*
X34101099Y49471815D01*
X34121741Y49455181D01*
X34596181Y48980741D01*
X34629666Y48919418D01*
X34632500Y48893060D01*
X34632500Y41826000D01*
X34612815Y41758961D01*
X34560011Y41713206D01*
X34508500Y41702000D01*
X33686877Y41702000D01*
X33667479Y41703527D01*
X33552834Y41721685D01*
X33526222Y41725900D01*
X33305778Y41725900D01*
X33279166Y41721685D01*
X33164521Y41703527D01*
X33145123Y41702000D01*
X31054500Y41702000D01*
X30987461Y41721685D01*
X30941706Y41774489D01*
X30930500Y41826000D01*
X30930500Y44020019D01*
X30930500Y44020021D01*
X30899799Y44134598D01*
X30899799Y44134599D01*
X30840489Y44237326D01*
X30021326Y45056489D01*
X29969962Y45086144D01*
X29918600Y45115799D01*
X29906492Y45119043D01*
X29894385Y45122287D01*
X29894382Y45122288D01*
X29856190Y45132522D01*
X29804021Y45146500D01*
X29804020Y45146500D01*
X29349000Y45146500D01*
X29281961Y45166185D01*
X29236206Y45218989D01*
X29228475Y45254525D01*
X29225000Y45258000D01*
X21161988Y45258000D01*
X21094949Y45277685D01*
X21049194Y45330489D01*
X21039250Y45399647D01*
X21047427Y45429453D01*
X21097044Y45549238D01*
X21112500Y45666639D01*
X21112499Y48145360D01*
X21112499Y48145361D01*
X21112499Y48145364D01*
X21097046Y48262754D01*
X21097044Y48262759D01*
X21097044Y48262762D01*
X21036536Y48408841D01*
X20940282Y48534282D01*
X20814841Y48630536D01*
X20668762Y48691044D01*
X20660318Y48692156D01*
X20620313Y48697423D01*
X20556417Y48725691D01*
X20517946Y48784016D01*
X20512500Y48820362D01*
X20512500Y49751398D01*
X20509659Y49765674D01*
X20509658Y49765675D01*
X20509657Y49765684D01*
X20485580Y49886728D01*
X20485578Y49886733D01*
X20432777Y50014208D01*
X20356112Y50128946D01*
X19990319Y50494739D01*
X19956834Y50556062D01*
X19954000Y50582420D01*
X19954000Y54024000D01*
X19973685Y54091039D01*
X20026489Y54136794D01*
X20078000Y54148000D01*
X24170560Y54148000D01*
X24237599Y54128315D01*
G37*
%TD.AperFunction*%
%TD*%
%TA.AperFunction,Conductor*%
%TO.N,Net-(U5-THR)*%
G36*
X10865039Y40112315D02*
G01*
X10910794Y40059511D01*
X10922000Y40008000D01*
X10922000Y39570006D01*
X10915931Y39531688D01*
X10864597Y39373699D01*
X10844514Y39246898D01*
X10837500Y39202611D01*
X10837500Y39029389D01*
X10864598Y38858299D01*
X10903198Y38739500D01*
X10915931Y38700315D01*
X10922000Y38661997D01*
X10922000Y37973000D01*
X13226500Y37973000D01*
X13293539Y37953315D01*
X13339294Y37900511D01*
X13350500Y37849000D01*
X13350500Y37325898D01*
X13356076Y37279461D01*
X13361122Y37237439D01*
X13416639Y37096657D01*
X13508077Y36976078D01*
X13628656Y36884640D01*
X13628657Y36884640D01*
X13628658Y36884639D01*
X13769436Y36829123D01*
X13857898Y36818500D01*
X13857903Y36818500D01*
X14844097Y36818500D01*
X14844102Y36818500D01*
X14932564Y36829123D01*
X15073342Y36884639D01*
X15193922Y36976078D01*
X15285361Y37096658D01*
X15340877Y37237436D01*
X15345923Y37279463D01*
X15367000Y37328611D01*
X15367000Y38357000D01*
X15386685Y38424039D01*
X15439489Y38469794D01*
X15491000Y38481000D01*
X16977560Y38481000D01*
X17007000Y38472356D01*
X17036987Y38465832D01*
X17042002Y38462078D01*
X17044599Y38461315D01*
X17065241Y38444681D01*
X17235681Y38274241D01*
X17269166Y38212918D01*
X17272000Y38186560D01*
X17272000Y36662832D01*
X17252315Y36595793D01*
X17199511Y36550038D01*
X17130353Y36540094D01*
X17117622Y36542611D01*
X17116573Y36542876D01*
X17106082Y36544136D01*
X17028102Y36553500D01*
X15991898Y36553500D01*
X15952853Y36548812D01*
X15903438Y36542878D01*
X15762656Y36487361D01*
X15642077Y36395923D01*
X15550639Y36275344D01*
X15495122Y36134562D01*
X15489188Y36085147D01*
X15484500Y36046102D01*
X15484500Y35284898D01*
X15492455Y35218657D01*
X15495123Y35196435D01*
X15535325Y35094490D01*
X15541607Y35024903D01*
X15509270Y34962967D01*
X15448581Y34928346D01*
X15419971Y34925000D01*
X12626969Y34925000D01*
X12559930Y34944685D01*
X12554092Y34948676D01*
X12514788Y34977232D01*
X12360445Y35055873D01*
X12195701Y35109402D01*
X12195699Y35109403D01*
X12195698Y35109403D01*
X12064271Y35130219D01*
X12024611Y35136500D01*
X11851389Y35136500D01*
X11811728Y35130219D01*
X11680302Y35109403D01*
X11515552Y35055872D01*
X11361211Y34977232D01*
X11341578Y34962967D01*
X11321915Y34948682D01*
X11256111Y34925202D01*
X11249031Y34925000D01*
X9497327Y34925000D01*
X9430288Y34944685D01*
X9384533Y34997489D01*
X9374589Y35066647D01*
X9398523Y35123925D01*
X9470360Y35218657D01*
X9470359Y35218657D01*
X9470361Y35218658D01*
X9525877Y35359436D01*
X9536500Y35447898D01*
X9536500Y36434102D01*
X9525877Y36522564D01*
X9470361Y36663342D01*
X9470360Y36663343D01*
X9470360Y36663344D01*
X9378922Y36783923D01*
X9258343Y36875361D01*
X9117561Y36930878D01*
X9071926Y36936358D01*
X9029102Y36941500D01*
X8242898Y36941500D01*
X8203853Y36936812D01*
X8154438Y36930878D01*
X8013656Y36875361D01*
X7987066Y36855196D01*
X7966018Y36847197D01*
X7947076Y36835023D01*
X7926026Y36831997D01*
X7921755Y36830373D01*
X7912141Y36830000D01*
X7795500Y36830000D01*
X7728461Y36849685D01*
X7682706Y36902489D01*
X7671500Y36954000D01*
X7671500Y37340990D01*
X7671500Y37341000D01*
X7664518Y37405941D01*
X7653312Y37457452D01*
X7642354Y37495658D01*
X7585675Y37592571D01*
X7539920Y37645375D01*
X7539918Y37645377D01*
X7539908Y37645388D01*
X7495192Y37687549D01*
X7495189Y37687551D01*
X7495187Y37687553D01*
X7395111Y37738439D01*
X7395110Y37738440D01*
X7395109Y37738440D01*
X7328078Y37758123D01*
X7328072Y37758124D01*
X7242000Y37770500D01*
X3426000Y37770500D01*
X3425999Y37770500D01*
X3358960Y37790185D01*
X3313205Y37842989D01*
X3301999Y37894500D01*
X3302000Y38661997D01*
X3302000Y40008000D01*
X3321685Y40075040D01*
X3374489Y40120794D01*
X3426000Y40132000D01*
X10798000Y40132000D01*
X10865039Y40112315D01*
G37*
%TD.AperFunction*%
%TD*%
%TA.AperFunction,Conductor*%
%TO.N,Net-(M1-D2)*%
G36*
X17977039Y15803815D02*
G01*
X18022794Y15751011D01*
X18034000Y15699500D01*
X18034000Y13713000D01*
X18014315Y13645961D01*
X17961511Y13600206D01*
X17910000Y13589000D01*
X12062000Y13589000D01*
X11994961Y13608685D01*
X11949206Y13661489D01*
X11938000Y13713000D01*
X11938000Y15699500D01*
X11957685Y15766539D01*
X12010489Y15812294D01*
X12062000Y15823500D01*
X17910000Y15823500D01*
X17977039Y15803815D01*
G37*
%TD.AperFunction*%
%TD*%
%TA.AperFunction,Conductor*%
%TO.N,+5V*%
G36*
X15310039Y42779315D02*
G01*
X15355794Y42726511D01*
X15367000Y42675000D01*
X15367000Y40852161D01*
X15347315Y40785122D01*
X15294511Y40739367D01*
X15225353Y40729423D01*
X15186798Y40741629D01*
X15098669Y40786440D01*
X15031638Y40806123D01*
X15031632Y40806124D01*
X14945560Y40818500D01*
X11193600Y40818500D01*
X11193597Y40818500D01*
X11107541Y40806128D01*
X11107531Y40806126D01*
X11080933Y40798316D01*
X11011063Y40798317D01*
X10952286Y40836093D01*
X10923262Y40899649D01*
X10922000Y40917294D01*
X10922000Y42675000D01*
X10941685Y42742039D01*
X10994489Y42787794D01*
X11046000Y42799000D01*
X15243000Y42799000D01*
X15310039Y42779315D01*
G37*
%TD.AperFunction*%
%TD*%
%TA.AperFunction,Conductor*%
%TO.N,Net-(Q6-B)*%
G36*
X24612179Y28804117D02*
G01*
X24635829Y28801277D01*
X24639433Y28800544D01*
X24641242Y28800506D01*
X24648464Y28799313D01*
X24675394Y28791519D01*
X24720884Y28782873D01*
X24777927Y28777500D01*
X24780510Y28777500D01*
X24788210Y28776228D01*
X24815934Y28762859D01*
X24844526Y28751455D01*
X24847121Y28747821D01*
X24851145Y28745880D01*
X24867242Y28719641D01*
X24885128Y28694593D01*
X24885346Y28690133D01*
X24887682Y28686325D01*
X24892000Y28653886D01*
X24892000Y27434024D01*
X24872315Y27366985D01*
X24819511Y27321230D01*
X24810001Y27317790D01*
X24702235Y27270207D01*
X24622794Y27190766D01*
X24577415Y27087994D01*
X24577415Y27087992D01*
X24574500Y27062869D01*
X24574500Y25473144D01*
X24574502Y25473118D01*
X24577413Y25448013D01*
X24577415Y25448009D01*
X24622793Y25345236D01*
X24622794Y25345235D01*
X24702235Y25265794D01*
X24739763Y25249224D01*
X24813542Y25216647D01*
X24812497Y25214282D01*
X24860064Y25185044D01*
X24890359Y25122084D01*
X24892000Y25101977D01*
X24892000Y23365000D01*
X24872315Y23297961D01*
X24819511Y23252206D01*
X24768000Y23241000D01*
X23492000Y23241000D01*
X23424961Y23260685D01*
X23379206Y23313489D01*
X23368000Y23365000D01*
X23368000Y25332205D01*
X23387685Y25399244D01*
X23404314Y25419882D01*
X23501208Y25516775D01*
X23591548Y25651979D01*
X23653776Y25802211D01*
X23685500Y25961695D01*
X23685500Y26574305D01*
X23685500Y26574308D01*
X23653777Y26733784D01*
X23653776Y26733785D01*
X23653776Y26733789D01*
X23653774Y26733794D01*
X23591549Y26884020D01*
X23591547Y26884024D01*
X23501211Y27019221D01*
X23501205Y27019229D01*
X23404319Y27116115D01*
X23370834Y27177438D01*
X23368000Y27203796D01*
X23368000Y28653886D01*
X23377486Y28686195D01*
X23386305Y28718729D01*
X23387305Y28719634D01*
X23387685Y28720925D01*
X23413130Y28742974D01*
X23438141Y28765578D01*
X23439727Y28766020D01*
X23440489Y28766680D01*
X23471790Y28776228D01*
X23479490Y28777500D01*
X23482073Y28777500D01*
X23539116Y28782873D01*
X23584606Y28791519D01*
X23611531Y28799313D01*
X23618761Y28800507D01*
X23619774Y28800383D01*
X23624191Y28801281D01*
X23647806Y28804116D01*
X23662586Y28805000D01*
X24597410Y28805000D01*
X24612179Y28804117D01*
G37*
%TD.AperFunction*%
%TD*%
%TA.AperFunction,Conductor*%
%TO.N,Net-(Q2-C)*%
G36*
X23819039Y43160315D02*
G01*
X23864794Y43107511D01*
X23876000Y43056000D01*
X23876000Y42985168D01*
X23866561Y42937716D01*
X23844224Y42883791D01*
X23844222Y42883783D01*
X23812500Y42724308D01*
X23812500Y42724305D01*
X23812500Y42111695D01*
X23812500Y42111693D01*
X23812499Y42111693D01*
X23844222Y41952217D01*
X23844224Y41952211D01*
X23854472Y41927469D01*
X23866561Y41898286D01*
X23868187Y41890109D01*
X23870977Y41885768D01*
X23876000Y41850833D01*
X23876000Y41746758D01*
X23856315Y41679719D01*
X23827787Y41655001D01*
X23828603Y41654185D01*
X23828602Y41654184D01*
X23820920Y41648921D01*
X23806872Y41630648D01*
X23796589Y41623908D01*
X23748433Y41595656D01*
X23748427Y41595651D01*
X23695632Y41549904D01*
X23695612Y41549886D01*
X23653451Y41505170D01*
X23653445Y41505161D01*
X23602560Y41405087D01*
X23582877Y41338056D01*
X23570500Y41251975D01*
X23570500Y39926500D01*
X23550815Y39859461D01*
X23498011Y39813706D01*
X23446500Y39802500D01*
X21952500Y39802500D01*
X21952491Y39802500D01*
X21952490Y39802499D01*
X21887564Y39795519D01*
X21887552Y39795517D01*
X21836042Y39784312D01*
X21797849Y39773357D01*
X21797845Y39773356D01*
X21797842Y39773354D01*
X21788621Y39767962D01*
X21726022Y39751000D01*
X20063000Y39751000D01*
X19995961Y39770685D01*
X19950206Y39823489D01*
X19939000Y39875000D01*
X19939000Y40816168D01*
X19958685Y40883207D01*
X20011489Y40928962D01*
X20080647Y40938906D01*
X20108491Y40931522D01*
X20246436Y40877123D01*
X20334898Y40866500D01*
X20334903Y40866500D01*
X21321097Y40866500D01*
X21321102Y40866500D01*
X21409564Y40877123D01*
X21550342Y40932639D01*
X21670922Y41024078D01*
X21727681Y41098925D01*
X21783874Y41140449D01*
X21826485Y41148000D01*
X21971000Y41148000D01*
X21971000Y43056000D01*
X21990685Y43123039D01*
X22043489Y43168794D01*
X22095000Y43180000D01*
X23752000Y43180000D01*
X23819039Y43160315D01*
G37*
%TD.AperFunction*%
%TD*%
%TA.AperFunction,Conductor*%
%TO.N,Net-(Q4-E)*%
G36*
X8977069Y50780315D02*
G01*
X8997711Y50763681D01*
X9002268Y50759124D01*
X9017689Y50740334D01*
X9054407Y50685382D01*
X9094337Y50637168D01*
X9094339Y50637166D01*
X9130388Y50601755D01*
X9130391Y50601753D01*
X9130402Y50601742D01*
X9158336Y50577447D01*
X9258412Y50526561D01*
X9325451Y50506876D01*
X9411523Y50494500D01*
X9411526Y50494500D01*
X9415907Y50493870D01*
X9415700Y50492436D01*
X9475309Y50470204D01*
X9517181Y50414271D01*
X9525000Y50370936D01*
X9525000Y48892000D01*
X9505315Y48824961D01*
X9452511Y48779206D01*
X9401000Y48768000D01*
X6985000Y48768000D01*
X6985000Y46479000D01*
X6965315Y46411961D01*
X6912511Y46366206D01*
X6861000Y46355000D01*
X5509500Y46355000D01*
X5442461Y46374685D01*
X5396706Y46427489D01*
X5385500Y46479000D01*
X5385500Y50370500D01*
X5405185Y50437539D01*
X5457989Y50483294D01*
X5509500Y50494500D01*
X7352476Y50494500D01*
X7352477Y50494500D01*
X7414752Y50500915D01*
X7464243Y50511220D01*
X7499968Y50520950D01*
X7597877Y50575891D01*
X7651487Y50620695D01*
X7709593Y50685383D01*
X7746313Y50740341D01*
X7761730Y50759125D01*
X7766298Y50763693D01*
X7827623Y50797169D01*
X7853968Y50800000D01*
X8910030Y50800000D01*
X8977069Y50780315D01*
G37*
%TD.AperFunction*%
%TD*%
%TA.AperFunction,Conductor*%
%TO.N,Net-(Q4-B)*%
G36*
X10738039Y56241315D02*
G01*
X10783794Y56188511D01*
X10795000Y56137000D01*
X10795000Y50924000D01*
X10775315Y50856961D01*
X10722511Y50811206D01*
X10671000Y50800000D01*
X9411523Y50800000D01*
X9344484Y50819685D01*
X9308421Y50855109D01*
X9248208Y50945225D01*
X9248206Y50945228D01*
X9133228Y51060206D01*
X9133220Y51060212D01*
X8998023Y51150548D01*
X8998019Y51150550D01*
X8847793Y51212775D01*
X8847783Y51212778D01*
X8688307Y51244500D01*
X8688305Y51244500D01*
X8075695Y51244500D01*
X8075693Y51244500D01*
X7916216Y51212778D01*
X7916206Y51212775D01*
X7765980Y51150550D01*
X7765976Y51150548D01*
X7630779Y51060212D01*
X7630771Y51060206D01*
X7515793Y50945228D01*
X7478900Y50890013D01*
X7455578Y50855109D01*
X7401968Y50810305D01*
X7352477Y50800000D01*
X5509500Y50800000D01*
X5442461Y50819685D01*
X5396706Y50872489D01*
X5385500Y50924000D01*
X5385500Y52581000D01*
X5405185Y52648039D01*
X5457989Y52693794D01*
X5509500Y52705000D01*
X7207501Y52705000D01*
X7274540Y52685315D01*
X7320295Y52632511D01*
X7331501Y52581000D01*
X7331501Y52389144D01*
X7331502Y52389118D01*
X7334413Y52364013D01*
X7334415Y52364009D01*
X7379793Y52261236D01*
X7379794Y52261235D01*
X7459235Y52181794D01*
X7562009Y52136415D01*
X7587135Y52133500D01*
X9176864Y52133501D01*
X9176879Y52133503D01*
X9176882Y52133503D01*
X9201987Y52136414D01*
X9201988Y52136415D01*
X9201991Y52136415D01*
X9304765Y52181794D01*
X9384206Y52261235D01*
X9429585Y52364009D01*
X9432500Y52389135D01*
X9432500Y52581000D01*
X9452185Y52648039D01*
X9504989Y52693794D01*
X9516242Y52696243D01*
X9525000Y52705000D01*
X9525000Y54483000D01*
X8506000Y54483000D01*
X8438961Y54502685D01*
X8393206Y54555489D01*
X8382000Y54607000D01*
X8382000Y56137000D01*
X8401685Y56204039D01*
X8454489Y56249794D01*
X8506000Y56261000D01*
X10671000Y56261000D01*
X10738039Y56241315D01*
G37*
%TD.AperFunction*%
%TD*%
%TA.AperFunction,Conductor*%
%TO.N,Net-(M2-LED)*%
G36*
X9340771Y67671168D02*
G01*
X9386662Y67618482D01*
X9398000Y67566681D01*
X9398000Y65783000D01*
X9378315Y65715961D01*
X9325511Y65670206D01*
X9274000Y65659000D01*
X3045000Y65659000D01*
X2977961Y65678685D01*
X2932206Y65731489D01*
X2921000Y65783000D01*
X2921000Y67550665D01*
X2940685Y67617704D01*
X2993489Y67663459D01*
X3044680Y67674665D01*
X9273683Y67690681D01*
X9340771Y67671168D01*
G37*
%TD.AperFunction*%
%TD*%
%TA.AperFunction,Conductor*%
%TO.N,Net-(Q8-B)*%
G36*
X6813003Y71989315D02*
G01*
X6858758Y71936511D01*
X6868702Y71867353D01*
X6839677Y71803797D01*
X6804592Y71777877D01*
X6804714Y71777699D01*
X6799746Y71774297D01*
X6796052Y71771567D01*
X6795721Y71771421D01*
X6795234Y71771206D01*
X6715794Y71691766D01*
X6670415Y71588994D01*
X6670415Y71588992D01*
X6667500Y71563869D01*
X6667500Y69974144D01*
X6667502Y69974118D01*
X6670413Y69949013D01*
X6670415Y69949009D01*
X6715793Y69846236D01*
X6715794Y69846235D01*
X6795235Y69766794D01*
X6832763Y69750224D01*
X6906542Y69717647D01*
X6905497Y69715282D01*
X6953064Y69686044D01*
X6983359Y69623084D01*
X6985000Y69602977D01*
X6985000Y68113980D01*
X6965315Y68046941D01*
X6912511Y68001186D01*
X6861319Y67989980D01*
X5458319Y67986373D01*
X5391229Y68005886D01*
X5345338Y68058572D01*
X5334000Y68110373D01*
X5334000Y69739477D01*
X5353685Y69806516D01*
X5389108Y69842579D01*
X5479225Y69902792D01*
X5594208Y70017775D01*
X5684548Y70152979D01*
X5746776Y70303211D01*
X5778500Y70462695D01*
X5778500Y71075305D01*
X5778500Y71075308D01*
X5746777Y71234784D01*
X5746776Y71234785D01*
X5746776Y71234789D01*
X5746774Y71234794D01*
X5684549Y71385020D01*
X5684547Y71385024D01*
X5594211Y71520221D01*
X5594205Y71520229D01*
X5479228Y71635206D01*
X5479224Y71635209D01*
X5389109Y71695422D01*
X5384018Y71701514D01*
X5376797Y71704811D01*
X5361933Y71727939D01*
X5344304Y71749034D01*
X5342352Y71758409D01*
X5339023Y71763589D01*
X5334000Y71798524D01*
X5334000Y71885000D01*
X5353685Y71952039D01*
X5406489Y71997794D01*
X5458000Y72009000D01*
X6745964Y72009000D01*
X6813003Y71989315D01*
G37*
%TD.AperFunction*%
%TD*%
%TA.AperFunction,Conductor*%
%TO.N,/power_switch/ON{slash}OFF*%
G36*
X5023039Y55098315D02*
G01*
X5068794Y55045511D01*
X5080000Y54994000D01*
X5080000Y45974000D01*
X6861000Y45974000D01*
X6928039Y45954315D01*
X6973794Y45901511D01*
X6985000Y45850000D01*
X6985000Y44447000D01*
X6965315Y44379961D01*
X6912511Y44334206D01*
X6861000Y44323000D01*
X3553000Y44323000D01*
X3485961Y44342685D01*
X3440206Y44395489D01*
X3429000Y44447000D01*
X3429000Y54994000D01*
X3448685Y55061039D01*
X3501489Y55106794D01*
X3553000Y55118000D01*
X4956000Y55118000D01*
X5023039Y55098315D01*
G37*
%TD.AperFunction*%
%TD*%
%TA.AperFunction,Conductor*%
%TO.N,Net-(M1-VT)*%
G36*
X17977039Y21062315D02*
G01*
X18022794Y21009511D01*
X18034000Y20958000D01*
X18034000Y18793000D01*
X18014315Y18725961D01*
X17961511Y18680206D01*
X17910000Y18669000D01*
X12062000Y18669000D01*
X11994961Y18688685D01*
X11949206Y18741489D01*
X11938000Y18793000D01*
X11938000Y20958000D01*
X11957685Y21025039D01*
X12010489Y21070794D01*
X12062000Y21082000D01*
X17910000Y21082000D01*
X17977039Y21062315D01*
G37*
%TD.AperFunction*%
%TD*%
%TA.AperFunction,Conductor*%
%TO.N,Net-(U5-Q)*%
G36*
X7309039Y37445315D02*
G01*
X7354794Y37392511D01*
X7366000Y37341000D01*
X7366000Y35049000D01*
X7346315Y34981961D01*
X7293511Y34936206D01*
X7242000Y34925000D01*
X5006969Y34925000D01*
X4939930Y34944685D01*
X4934092Y34948676D01*
X4894788Y34977232D01*
X4740445Y35055873D01*
X4575701Y35109402D01*
X4575699Y35109403D01*
X4575698Y35109403D01*
X4444271Y35130219D01*
X4404611Y35136500D01*
X4231389Y35136500D01*
X4191728Y35130219D01*
X4060302Y35109403D01*
X3895552Y35055872D01*
X3741211Y34977232D01*
X3716284Y34959122D01*
X3701915Y34948682D01*
X3681870Y34941530D01*
X3663966Y34930023D01*
X3639941Y34926569D01*
X3636111Y34925202D01*
X3629031Y34925000D01*
X3426000Y34925000D01*
X3358961Y34944685D01*
X3313206Y34997489D01*
X3302000Y35049000D01*
X3302000Y37341000D01*
X3321685Y37408039D01*
X3374489Y37453794D01*
X3426000Y37465000D01*
X7242000Y37465000D01*
X7309039Y37445315D01*
G37*
%TD.AperFunction*%
%TD*%
%TA.AperFunction,Conductor*%
%TO.N,Net-(Q2-B)*%
G36*
X25343039Y44225815D02*
G01*
X25388794Y44173011D01*
X25400000Y44121500D01*
X25400000Y43353796D01*
X25380315Y43286757D01*
X25363681Y43266115D01*
X25266794Y43169229D01*
X25266788Y43169221D01*
X25176452Y43034024D01*
X25176450Y43034020D01*
X25114225Y42883794D01*
X25114222Y42883784D01*
X25082500Y42724308D01*
X25082500Y42724305D01*
X25082500Y42111695D01*
X25082500Y42111693D01*
X25082499Y42111693D01*
X25114222Y41952217D01*
X25114225Y41952207D01*
X25176450Y41801981D01*
X25176452Y41801977D01*
X25266788Y41666780D01*
X25266789Y41666779D01*
X25266792Y41666775D01*
X25363682Y41569885D01*
X25397166Y41508564D01*
X25400000Y41482205D01*
X25400000Y39926500D01*
X25380315Y39859461D01*
X25327511Y39813706D01*
X25276000Y39802500D01*
X24000000Y39802500D01*
X23932961Y39822185D01*
X23887206Y39874989D01*
X23876000Y39926500D01*
X23876000Y41251977D01*
X23895685Y41319016D01*
X23948489Y41364771D01*
X23957998Y41368211D01*
X23962989Y41370415D01*
X23962991Y41370415D01*
X24065765Y41415794D01*
X24145206Y41495235D01*
X24190585Y41598009D01*
X24193500Y41623135D01*
X24193499Y43212864D01*
X24193497Y43212883D01*
X24190586Y43237988D01*
X24190585Y43237990D01*
X24190585Y43237991D01*
X24145206Y43340765D01*
X24065765Y43420206D01*
X23954458Y43469353D01*
X23955501Y43471716D01*
X23907919Y43500975D01*
X23877637Y43563942D01*
X23876000Y43584024D01*
X23876000Y44121500D01*
X23895685Y44188539D01*
X23948489Y44234294D01*
X24000000Y44245500D01*
X25276000Y44245500D01*
X25343039Y44225815D01*
G37*
%TD.AperFunction*%
%TD*%
%TA.AperFunction,Conductor*%
%TO.N,Net-(Q6-E)*%
G36*
X22707179Y28804117D02*
G01*
X22740828Y28800076D01*
X22770394Y28791519D01*
X22815884Y28782873D01*
X22872927Y28777500D01*
X22945354Y28777500D01*
X22952164Y28776745D01*
X22978332Y28765804D01*
X23005539Y28757815D01*
X23010140Y28752505D01*
X23016626Y28749793D01*
X23032727Y28726439D01*
X23051294Y28705011D01*
X23052293Y28698057D01*
X23056284Y28692269D01*
X23062500Y28653500D01*
X23062500Y27203796D01*
X23064250Y27171153D01*
X23064254Y27171100D01*
X23067081Y27144809D01*
X23067920Y27137774D01*
X23067920Y27137772D01*
X23102700Y27031033D01*
X23102704Y27031023D01*
X23136189Y26969701D01*
X23188289Y26900105D01*
X23188295Y26900098D01*
X23188298Y26900094D01*
X23255274Y26833118D01*
X23270691Y26814332D01*
X23305000Y26762985D01*
X23325878Y26696307D01*
X23323515Y26669903D01*
X23304500Y26574310D01*
X23304500Y26574305D01*
X23304500Y25961695D01*
X23304500Y25961693D01*
X23304499Y25961693D01*
X23323515Y25866099D01*
X23320780Y25835536D01*
X23320233Y25804855D01*
X23317529Y25799204D01*
X23317288Y25796507D01*
X23305001Y25773017D01*
X23270698Y25721678D01*
X23255276Y25702887D01*
X23188301Y25635913D01*
X23166423Y25611555D01*
X23149786Y25590907D01*
X23145449Y25585396D01*
X23145445Y25585389D01*
X23094559Y25485314D01*
X23092443Y25479983D01*
X23090352Y25480814D01*
X23057909Y25430306D01*
X22994360Y25401266D01*
X22976685Y25400000D01*
X18666000Y25400000D01*
X18657314Y25402551D01*
X18648353Y25401262D01*
X18624312Y25412241D01*
X18598961Y25419685D01*
X18593033Y25426526D01*
X18584797Y25430287D01*
X18570507Y25452522D01*
X18553206Y25472489D01*
X18550918Y25483004D01*
X18547023Y25489065D01*
X18542000Y25524000D01*
X18542000Y25661124D01*
X18561685Y25728163D01*
X18591073Y25759927D01*
X18622922Y25784078D01*
X18714361Y25904658D01*
X18769877Y26045436D01*
X18780500Y26133898D01*
X18780500Y26892698D01*
X18800185Y26959737D01*
X18816819Y26980379D01*
X19105121Y27268681D01*
X19166444Y27302166D01*
X19192802Y27305000D01*
X21463000Y27305000D01*
X21463000Y28653886D01*
X21472486Y28686195D01*
X21481305Y28718729D01*
X21482305Y28719634D01*
X21482685Y28720925D01*
X21508130Y28742974D01*
X21533141Y28765578D01*
X21534727Y28766020D01*
X21535489Y28766680D01*
X21566790Y28776228D01*
X21574490Y28777500D01*
X21577073Y28777500D01*
X21634116Y28782873D01*
X21679606Y28791519D01*
X21706531Y28799313D01*
X21713761Y28800507D01*
X21714774Y28800383D01*
X21719191Y28801281D01*
X21742806Y28804117D01*
X21757586Y28805000D01*
X22692410Y28805000D01*
X22707179Y28804117D01*
G37*
%TD.AperFunction*%
%TD*%
%TA.AperFunction,Conductor*%
%TO.N,Net-(M1-D3)*%
G36*
X17977039Y18343815D02*
G01*
X18022794Y18291011D01*
X18034000Y18239500D01*
X18034000Y16253000D01*
X18014315Y16185961D01*
X17961511Y16140206D01*
X17910000Y16129000D01*
X12062000Y16129000D01*
X11994961Y16148685D01*
X11949206Y16201489D01*
X11938000Y16253000D01*
X11938000Y18239500D01*
X11957685Y18306539D01*
X12010489Y18352294D01*
X12062000Y18363500D01*
X17910000Y18363500D01*
X17977039Y18343815D01*
G37*
%TD.AperFunction*%
%TD*%
%TA.AperFunction,Conductor*%
%TO.N,Net-(M1-D1)*%
G36*
X17977039Y13263815D02*
G01*
X18022794Y13211011D01*
X18034000Y13159500D01*
X18034000Y11173000D01*
X18014315Y11105961D01*
X17961511Y11060206D01*
X17910000Y11049000D01*
X12062000Y11049000D01*
X11994961Y11068685D01*
X11949206Y11121489D01*
X11938000Y11173000D01*
X11938000Y13159500D01*
X11957685Y13226539D01*
X12010489Y13272294D01*
X12062000Y13283500D01*
X17910000Y13283500D01*
X17977039Y13263815D01*
G37*
%TD.AperFunction*%
%TD*%
%TA.AperFunction,Conductor*%
%TO.N,Net-(Q2-E)*%
G36*
X29573786Y44225815D02*
G01*
X29594428Y44209181D01*
X29681681Y44121928D01*
X29715166Y44060605D01*
X29718000Y44034247D01*
X29718000Y43189198D01*
X29717385Y43187107D01*
X29717929Y43184994D01*
X29707587Y43153737D01*
X29698315Y43122159D01*
X29696452Y43120082D01*
X29695982Y43118660D01*
X29685244Y43107582D01*
X29671979Y43092786D01*
X29669875Y43091086D01*
X29625138Y43058026D01*
X29607659Y43040765D01*
X29602878Y43036897D01*
X29602313Y43036663D01*
X29599823Y43034504D01*
X29540779Y42989731D01*
X29511347Y42973182D01*
X29477953Y42960013D01*
X29438741Y42944549D01*
X29430578Y42941079D01*
X29423881Y42938231D01*
X29411994Y42932801D01*
X29411992Y42932800D01*
X29326974Y42874931D01*
X29326961Y42874921D01*
X29276644Y42826443D01*
X29236890Y42779552D01*
X29236888Y42779548D01*
X29191355Y42676932D01*
X29191350Y42676916D01*
X29175234Y42608948D01*
X29167829Y42553178D01*
X29139492Y42489313D01*
X29081125Y42450907D01*
X29044908Y42445500D01*
X28462898Y42445500D01*
X28423853Y42440812D01*
X28374438Y42434878D01*
X28233656Y42379361D01*
X28150364Y42316197D01*
X28085052Y42291373D01*
X28075438Y42291000D01*
X27686000Y42291000D01*
X27686000Y39926500D01*
X27666315Y39859461D01*
X27613511Y39813706D01*
X27562000Y39802500D01*
X25924989Y39802500D01*
X25857950Y39822185D01*
X25812195Y39874989D01*
X25802251Y39944147D01*
X25823004Y39993817D01*
X25822205Y39994266D01*
X25826048Y40001102D01*
X25826182Y40001421D01*
X25826359Y40001656D01*
X25826361Y40001658D01*
X25881877Y40142436D01*
X25892500Y40230898D01*
X25892500Y41017102D01*
X25881877Y41105564D01*
X25826361Y41246342D01*
X25734922Y41366922D01*
X25734920Y41366924D01*
X25730696Y41372494D01*
X25705873Y41437806D01*
X25705500Y41447420D01*
X25705500Y41482206D01*
X25703748Y41514876D01*
X25700917Y41541204D01*
X25700081Y41548224D01*
X25700080Y41548227D01*
X25665299Y41654970D01*
X25665295Y41654980D01*
X25631811Y41716300D01*
X25579711Y41785896D01*
X25579700Y41785909D01*
X25512720Y41852889D01*
X25497304Y41871674D01*
X25462998Y41923016D01*
X25442120Y41989693D01*
X25444481Y42016089D01*
X25463500Y42111695D01*
X25463500Y42724305D01*
X25460894Y42737404D01*
X25448285Y42800792D01*
X25444483Y42819906D01*
X25447217Y42850474D01*
X25447766Y42881149D01*
X25450467Y42886796D01*
X25450709Y42889495D01*
X25462992Y42912978D01*
X25497311Y42964339D01*
X25512723Y42983118D01*
X25579701Y43050093D01*
X25601558Y43074426D01*
X25618192Y43095068D01*
X25622553Y43100609D01*
X25673439Y43200685D01*
X25693124Y43267724D01*
X25705500Y43353796D01*
X25705500Y44121500D01*
X25725185Y44188539D01*
X25777989Y44234294D01*
X25829500Y44245500D01*
X29506747Y44245500D01*
X29573786Y44225815D01*
G37*
%TD.AperFunction*%
%TD*%
%TA.AperFunction,Conductor*%
%TO.N,Net-(Q8-E)*%
G36*
X4971539Y71989315D02*
G01*
X5017294Y71936511D01*
X5028500Y71885000D01*
X5028500Y71798524D01*
X5031610Y71755046D01*
X5036634Y71720097D01*
X5039708Y71702424D01*
X5039709Y71702419D01*
X5039710Y71702416D01*
X5044314Y71691099D01*
X5045218Y71686760D01*
X5054946Y71651042D01*
X5075553Y71614317D01*
X5078476Y71607132D01*
X5078477Y71607130D01*
X5082020Y71598423D01*
X5085349Y71593243D01*
X5099331Y71571486D01*
X5099330Y71571486D01*
X5101346Y71568349D01*
X5109885Y71553131D01*
X5115258Y71546701D01*
X5119453Y71540175D01*
X5119460Y71540166D01*
X5119799Y71539638D01*
X5137865Y71516930D01*
X5158089Y71491511D01*
X5177076Y71478153D01*
X5177509Y71477848D01*
X5180799Y71475452D01*
X5185053Y71472246D01*
X5219382Y71441408D01*
X5277268Y71402731D01*
X5280081Y71400610D01*
X5281294Y71398978D01*
X5293119Y71389273D01*
X5297681Y71384711D01*
X5313680Y71355411D01*
X5321764Y71344536D01*
X5322070Y71340046D01*
X5331166Y71323388D01*
X5334000Y71297030D01*
X5334000Y70240972D01*
X5314315Y70173933D01*
X5297676Y70153287D01*
X5293109Y70148719D01*
X5274328Y70133308D01*
X5219382Y70096595D01*
X5171166Y70056662D01*
X5171162Y70056658D01*
X5135739Y70020595D01*
X5115495Y69997320D01*
X5111446Y69992663D01*
X5111444Y69992660D01*
X5060560Y69892587D01*
X5040877Y69825556D01*
X5028500Y69739475D01*
X5028500Y68108950D01*
X5008815Y68041911D01*
X4956011Y67996156D01*
X4904819Y67984950D01*
X3045319Y67980168D01*
X2978229Y67999681D01*
X2932338Y68052367D01*
X2921000Y68104168D01*
X2921000Y69599000D01*
X2940685Y69666039D01*
X2993489Y69711794D01*
X3045000Y69723000D01*
X3556000Y69723000D01*
X3556000Y71885000D01*
X3575685Y71952039D01*
X3628489Y71997794D01*
X3680000Y72009000D01*
X4904500Y72009000D01*
X4971539Y71989315D01*
G37*
%TD.AperFunction*%
%TD*%
%TA.AperFunction,Conductor*%
%TO.N,Net-(D3-A)*%
G36*
X9018177Y36635117D02*
G01*
X9022229Y36634631D01*
X9026223Y36634152D01*
X9056931Y36626391D01*
X9091354Y36612817D01*
X9120786Y36596268D01*
X9139807Y36581844D01*
X9147285Y36576174D01*
X9171167Y36552293D01*
X9191266Y36525788D01*
X9207814Y36496357D01*
X9216904Y36473309D01*
X9221389Y36461935D01*
X9229148Y36431244D01*
X9230114Y36423196D01*
X9231000Y36408409D01*
X9231000Y35473593D01*
X9230113Y35458792D01*
X9229147Y35450757D01*
X9221389Y35420068D01*
X9207816Y35385649D01*
X9191267Y35356217D01*
X9155108Y35308532D01*
X9155093Y35308510D01*
X9116642Y35241712D01*
X9116640Y35241709D01*
X9092707Y35184431D01*
X9076912Y35135338D01*
X9076911Y35135336D01*
X9072199Y35023164D01*
X9082143Y34954009D01*
X9096972Y34894344D01*
X9096974Y34894340D01*
X9139529Y34821576D01*
X9153652Y34797429D01*
X9199407Y34744625D01*
X9232066Y34713831D01*
X9248439Y34685836D01*
X9265977Y34658546D01*
X9266491Y34654969D01*
X9267339Y34653519D01*
X9271000Y34623611D01*
X9271000Y34399485D01*
X9251315Y34332446D01*
X9221925Y34300681D01*
X9147077Y34243923D01*
X9055639Y34123344D01*
X9000122Y33982562D01*
X8996139Y33949389D01*
X8989500Y33894102D01*
X8989500Y32907898D01*
X8995126Y32861046D01*
X9000122Y32819439D01*
X9055639Y32678657D01*
X9147077Y32558078D01*
X9193751Y32522684D01*
X9221925Y32501319D01*
X9263448Y32445128D01*
X9271000Y32402516D01*
X9271000Y30607000D01*
X17244500Y30607000D01*
X17311539Y30587315D01*
X17357294Y30534511D01*
X17368500Y30483000D01*
X17368500Y29450784D01*
X17348815Y29383745D01*
X17332181Y29363103D01*
X16961397Y28992319D01*
X16900074Y28958834D01*
X16873716Y28956000D01*
X7490000Y28956000D01*
X7422961Y28975685D01*
X7377206Y29028489D01*
X7366000Y29080000D01*
X7366000Y34559587D01*
X7385685Y34626626D01*
X7427400Y34666625D01*
X7446779Y34677959D01*
X7493571Y34705325D01*
X7546375Y34751080D01*
X7546382Y34751088D01*
X7546387Y34751092D01*
X7588548Y34795808D01*
X7588553Y34795813D01*
X7639439Y34895889D01*
X7659124Y34962928D01*
X7671500Y35049000D01*
X7671500Y36400500D01*
X7673982Y36408955D01*
X7672695Y36417670D01*
X7683674Y36441961D01*
X7691185Y36467539D01*
X7697843Y36473309D01*
X7701473Y36481338D01*
X7723844Y36495839D01*
X7743989Y36513294D01*
X7754251Y36515548D01*
X7760104Y36519341D01*
X7794082Y36524294D01*
X7795019Y36524499D01*
X7795494Y36524501D01*
X7795500Y36524500D01*
X7912141Y36524500D01*
X7923985Y36524730D01*
X7931708Y36525030D01*
X7933854Y36525038D01*
X7935139Y36524666D01*
X7969496Y36529605D01*
X7990546Y36532631D01*
X8008256Y36535712D01*
X8074197Y36562542D01*
X8074546Y36561624D01*
X8095594Y36569623D01*
X8106626Y36575737D01*
X8112249Y36578024D01*
X8118205Y36581853D01*
X8125126Y36585989D01*
X8148934Y36599182D01*
X8163532Y36606069D01*
X8215066Y36626392D01*
X8245772Y36634151D01*
X8253819Y36635118D01*
X8268593Y36636000D01*
X9003405Y36636000D01*
X9018177Y36635117D01*
G37*
%TD.AperFunction*%
%TD*%
%TA.AperFunction,Conductor*%
%TO.N,Net-(M1-D0)*%
G36*
X17977039Y10723815D02*
G01*
X18022794Y10671011D01*
X18034000Y10619500D01*
X18034000Y8633000D01*
X18014315Y8565961D01*
X17961511Y8520206D01*
X17910000Y8509000D01*
X12062000Y8509000D01*
X11994961Y8528685D01*
X11949206Y8581489D01*
X11938000Y8633000D01*
X11938000Y10619500D01*
X11957685Y10686539D01*
X12010489Y10732294D01*
X12062000Y10743500D01*
X17910000Y10743500D01*
X17977039Y10723815D01*
G37*
%TD.AperFunction*%
%TD*%
%TA.AperFunction,Conductor*%
%TO.N,Net-(Q8-C)*%
G36*
X8706039Y71989315D02*
G01*
X8751794Y71936511D01*
X8763000Y71885000D01*
X8763000Y69596000D01*
X9274000Y69596000D01*
X9341039Y69576315D01*
X9386794Y69523511D01*
X9398000Y69472000D01*
X9398000Y68120184D01*
X9378315Y68053145D01*
X9325511Y68007390D01*
X9274319Y67996184D01*
X7414819Y67991404D01*
X7347729Y68010917D01*
X7301838Y68063603D01*
X7290500Y68115404D01*
X7290500Y69602988D01*
X7289489Y69627817D01*
X7287847Y69647934D01*
X7263008Y69739477D01*
X7258648Y69755547D01*
X7228353Y69818507D01*
X7196256Y69870943D01*
X7113041Y69946309D01*
X7068646Y69973597D01*
X7044066Y69988706D01*
X7037166Y69996354D01*
X7027797Y70000632D01*
X7014159Y70021853D01*
X6997261Y70040582D01*
X6994586Y70052309D01*
X6990023Y70059410D01*
X6985000Y70094345D01*
X6985000Y70201833D01*
X6994439Y70249286D01*
X7014487Y70297686D01*
X7016776Y70303211D01*
X7048500Y70462695D01*
X7048500Y71075305D01*
X7048500Y71075308D01*
X7016777Y71234783D01*
X7016776Y71234789D01*
X6994439Y71288716D01*
X6992812Y71296893D01*
X6990023Y71301233D01*
X6985000Y71336168D01*
X6985000Y71469962D01*
X7004685Y71537001D01*
X7028689Y71564440D01*
X7031781Y71567070D01*
X7052959Y71585071D01*
X7117570Y71676888D01*
X7146595Y71740444D01*
X7166379Y71798661D01*
X7170225Y71890208D01*
X7192707Y71956360D01*
X7247385Y71999858D01*
X7294116Y72009000D01*
X8639000Y72009000D01*
X8706039Y71989315D01*
G37*
%TD.AperFunction*%
%TD*%
%TA.AperFunction,Conductor*%
%TO.N,Net-(U5-CV)*%
G36*
X12010196Y34829475D02*
G01*
X12114533Y34812951D01*
X12133428Y34808414D01*
X12233893Y34775771D01*
X12251864Y34768328D01*
X12298383Y34744625D01*
X12345978Y34720374D01*
X12362563Y34710211D01*
X12374524Y34701521D01*
X12381682Y34696476D01*
X12387520Y34692485D01*
X12473858Y34651561D01*
X12540897Y34631876D01*
X12626969Y34619500D01*
X12626972Y34619500D01*
X15116000Y34619500D01*
X15183039Y34599815D01*
X15228794Y34547011D01*
X15240000Y34495500D01*
X15240000Y32382000D01*
X15220315Y32314961D01*
X15167511Y32269206D01*
X15116000Y32258000D01*
X11173000Y32258000D01*
X11105961Y32277685D01*
X11060206Y32330489D01*
X11049000Y32382000D01*
X11049000Y34495500D01*
X11068685Y34562539D01*
X11121489Y34608294D01*
X11173000Y34619500D01*
X11249066Y34619500D01*
X11257687Y34619623D01*
X11257700Y34619624D01*
X11257744Y34619624D01*
X11264824Y34619826D01*
X11358779Y34637470D01*
X11424583Y34660950D01*
X11491876Y34696456D01*
X11501470Y34701518D01*
X11501471Y34701520D01*
X11501475Y34701521D01*
X11513445Y34710218D01*
X11530019Y34720374D01*
X11624135Y34768329D01*
X11642090Y34775766D01*
X11742572Y34808415D01*
X11761466Y34812951D01*
X11846169Y34826366D01*
X11865799Y34829474D01*
X11885195Y34831000D01*
X11990812Y34831000D01*
X12010196Y34829475D01*
G37*
%TD.AperFunction*%
%TD*%
%TA.AperFunction,Conductor*%
%TO.N,Net-(M2-Vin)*%
G36*
X19897039Y76734315D02*
G01*
X19942794Y76681511D01*
X19954000Y76630000D01*
X19954000Y72458465D01*
X19934315Y72391426D01*
X19917681Y72370784D01*
X19384216Y71837319D01*
X19322893Y71803834D01*
X19296535Y71801000D01*
X16380000Y71801000D01*
X16312961Y71820685D01*
X16267206Y71873489D01*
X16256000Y71925000D01*
X16256000Y73533000D01*
X10665579Y73533000D01*
X10598540Y73552685D01*
X10552785Y73605489D01*
X10541580Y73657577D01*
X10555425Y76630578D01*
X10575422Y76697525D01*
X10628438Y76743033D01*
X10679424Y76754000D01*
X19830000Y76754000D01*
X19897039Y76734315D01*
G37*
%TD.AperFunction*%
%TD*%
%TA.AperFunction,Conductor*%
%TO.N,Net-(Q6-C)*%
G36*
X26517179Y28804117D02*
G01*
X26540829Y28801277D01*
X26544433Y28800544D01*
X26546242Y28800506D01*
X26553464Y28799313D01*
X26580394Y28791519D01*
X26625884Y28782873D01*
X26682927Y28777500D01*
X26685510Y28777500D01*
X26693210Y28776228D01*
X26720934Y28762859D01*
X26749526Y28751455D01*
X26752121Y28747821D01*
X26756145Y28745880D01*
X26772242Y28719641D01*
X26790128Y28694593D01*
X26790346Y28690133D01*
X26792682Y28686325D01*
X26797000Y28653886D01*
X26797000Y25554204D01*
X26794617Y25530012D01*
X26781500Y25464072D01*
X26781500Y25397000D01*
X26761815Y25329961D01*
X26709011Y25284206D01*
X26657500Y25273000D01*
X25232080Y25273000D01*
X25165041Y25292685D01*
X25126320Y25332264D01*
X25103257Y25369942D01*
X25020045Y25445305D01*
X25020041Y25445309D01*
X24975646Y25472597D01*
X24951066Y25487706D01*
X24944166Y25495354D01*
X24934797Y25499632D01*
X24921159Y25520853D01*
X24904261Y25539582D01*
X24901586Y25551309D01*
X24897023Y25558410D01*
X24892000Y25593345D01*
X24892000Y25700833D01*
X24901439Y25748286D01*
X24921487Y25796686D01*
X24923776Y25802211D01*
X24934157Y25854402D01*
X24955500Y25961693D01*
X24955500Y26574308D01*
X24923777Y26733783D01*
X24923776Y26733789D01*
X24901439Y26787716D01*
X24899812Y26795893D01*
X24897023Y26800233D01*
X24892000Y26835168D01*
X24892000Y26939242D01*
X24911685Y27006281D01*
X24946750Y27036666D01*
X24961092Y27055332D01*
X24971413Y27062098D01*
X25019571Y27090349D01*
X25072375Y27136104D01*
X25072382Y27136112D01*
X25072387Y27136116D01*
X25114548Y27180832D01*
X25114553Y27180837D01*
X25165439Y27280913D01*
X25185124Y27347952D01*
X25197500Y27434024D01*
X25197500Y28653500D01*
X25198086Y28655499D01*
X25197565Y28657515D01*
X25207887Y28688877D01*
X25217185Y28720539D01*
X25218758Y28721903D01*
X25219410Y28723882D01*
X25245061Y28744694D01*
X25269989Y28766294D01*
X25272558Y28767004D01*
X25273667Y28767903D01*
X25281525Y28769480D01*
X25307836Y28776745D01*
X25314646Y28777500D01*
X25387073Y28777500D01*
X25444116Y28782873D01*
X25489606Y28791519D01*
X25519179Y28800079D01*
X25552806Y28804117D01*
X25567586Y28805000D01*
X26502410Y28805000D01*
X26517179Y28804117D01*
G37*
%TD.AperFunction*%
%TD*%
%TA.AperFunction,Conductor*%
%TO.N,/brake_control/POWER SW*%
G36*
X27629039Y39477315D02*
G01*
X27674794Y39424511D01*
X27686000Y39373000D01*
X27686000Y37970000D01*
X27666315Y37902961D01*
X27613511Y37857206D01*
X27562000Y37846000D01*
X26244308Y37846000D01*
X26177269Y37865685D01*
X26156627Y37882319D01*
X26068672Y37970274D01*
X26068668Y37970277D01*
X25962133Y38041462D01*
X25962124Y38041467D01*
X25843744Y38090501D01*
X25843738Y38090503D01*
X25718071Y38115500D01*
X25718069Y38115500D01*
X25589931Y38115500D01*
X25589929Y38115500D01*
X25464261Y38090503D01*
X25464255Y38090501D01*
X25345875Y38041467D01*
X25345866Y38041462D01*
X25239331Y37970277D01*
X25239327Y37970274D01*
X25220873Y37951819D01*
X25159550Y37918334D01*
X25133192Y37915500D01*
X21333000Y37915500D01*
X21265961Y37935185D01*
X21220206Y37987989D01*
X21209000Y38039500D01*
X21209000Y38743039D01*
X21228685Y38810078D01*
X21281489Y38855833D01*
X21318217Y38866155D01*
X21321090Y38866500D01*
X21321102Y38866500D01*
X21409564Y38877123D01*
X21550342Y38932639D01*
X21670922Y39024078D01*
X21762361Y39144658D01*
X21817877Y39285436D01*
X21828500Y39373898D01*
X21828500Y39373912D01*
X21828722Y39377603D01*
X21829832Y39377537D01*
X21848185Y39440039D01*
X21900989Y39485794D01*
X21952500Y39497000D01*
X27562000Y39497000D01*
X27629039Y39477315D01*
G37*
%TD.AperFunction*%
%TD*%
%TA.AperFunction,Conductor*%
%TO.N,/control_connector/BUTTON*%
G36*
X30423039Y9759315D02*
G01*
X30468794Y9706511D01*
X30480000Y9655000D01*
X30480000Y7998000D01*
X30460315Y7930961D01*
X30407511Y7885206D01*
X30356000Y7874000D01*
X24889000Y7874000D01*
X24821961Y7893685D01*
X24776206Y7946489D01*
X24765000Y7998000D01*
X24765000Y9655000D01*
X24784685Y9722039D01*
X24837489Y9767794D01*
X24889000Y9779000D01*
X30356000Y9779000D01*
X30423039Y9759315D01*
G37*
%TD.AperFunction*%
%TD*%
%TA.AperFunction,Conductor*%
%TO.N,/brake_control/BUZZ*%
G36*
X20569902Y31352388D02*
G01*
X20632461Y31316271D01*
X20632464Y31316268D01*
X20666685Y31296511D01*
X20675882Y31291201D01*
X20790459Y31260500D01*
X20790462Y31260500D01*
X24912308Y31260500D01*
X24912309Y31260500D01*
X25002673Y31284714D01*
X25026887Y31291201D01*
X25129614Y31350511D01*
X25130614Y31351512D01*
X25139402Y31355906D01*
X25159490Y31359522D01*
X25194863Y31369000D01*
X27816000Y31369000D01*
X27883039Y31349315D01*
X27928794Y31296511D01*
X27940000Y31245000D01*
X27940000Y29207000D01*
X27920315Y29139961D01*
X27867511Y29094206D01*
X27816000Y29083000D01*
X26682927Y29083000D01*
X26637437Y29091646D01*
X26616565Y29099877D01*
X26601820Y29101648D01*
X26528102Y29110500D01*
X25541898Y29110500D01*
X25478710Y29102913D01*
X25453434Y29099877D01*
X25432563Y29091646D01*
X25387073Y29083000D01*
X24777927Y29083000D01*
X24732437Y29091646D01*
X24711565Y29099877D01*
X24696820Y29101648D01*
X24623102Y29110500D01*
X23636898Y29110500D01*
X23573710Y29102913D01*
X23548434Y29099877D01*
X23527563Y29091646D01*
X23482073Y29083000D01*
X22872927Y29083000D01*
X22827437Y29091646D01*
X22806565Y29099877D01*
X22791820Y29101648D01*
X22718102Y29110500D01*
X21731898Y29110500D01*
X21668710Y29102913D01*
X21643434Y29099877D01*
X21622563Y29091646D01*
X21577073Y29083000D01*
X19794500Y29083000D01*
X19727461Y29102685D01*
X19681706Y29155489D01*
X19670500Y29207000D01*
X19670500Y31245000D01*
X19690185Y31312039D01*
X19742989Y31357794D01*
X19794500Y31369000D01*
X20507904Y31369000D01*
X20569902Y31352388D01*
G37*
%TD.AperFunction*%
%TD*%
%TA.AperFunction,Conductor*%
%TO.N,/power_switch/ON{slash}OFF*%
G36*
X30659029Y41636315D02*
G01*
X30699026Y41594603D01*
X30710825Y41574429D01*
X30756581Y41521624D01*
X30756591Y41521613D01*
X30801307Y41479452D01*
X30801309Y41479451D01*
X30801313Y41479447D01*
X30901389Y41428561D01*
X30968428Y41408876D01*
X31054500Y41396500D01*
X31054503Y41396500D01*
X33145135Y41396500D01*
X33169079Y41397441D01*
X33169085Y41397442D01*
X33169098Y41397442D01*
X33188496Y41398969D01*
X33212312Y41401788D01*
X33320182Y41418873D01*
X33339580Y41420400D01*
X33492420Y41420400D01*
X33511818Y41418873D01*
X33619688Y41401788D01*
X33643504Y41398969D01*
X33662902Y41397442D01*
X33662912Y41397442D01*
X33662920Y41397441D01*
X33686865Y41396500D01*
X34508500Y41396500D01*
X34575539Y41376815D01*
X34621294Y41324011D01*
X34632500Y41272500D01*
X34632500Y39113000D01*
X34612815Y39045961D01*
X34560011Y39000206D01*
X34508500Y38989000D01*
X34168439Y38989000D01*
X34112144Y39002515D01*
X33953606Y39083296D01*
X33953603Y39083297D01*
X33743952Y39151415D01*
X33635086Y39168658D01*
X33526222Y39185900D01*
X33305778Y39185900D01*
X33233201Y39174405D01*
X33088047Y39151415D01*
X32878396Y39083297D01*
X32878393Y39083296D01*
X32719856Y39002515D01*
X32663561Y38989000D01*
X31877000Y38989000D01*
X31877000Y38605000D01*
X31857315Y38537961D01*
X31804511Y38492206D01*
X31753000Y38481000D01*
X29334000Y38481000D01*
X29266961Y38500685D01*
X29221206Y38553489D01*
X29210000Y38605000D01*
X29210000Y39881000D01*
X29229685Y39948039D01*
X29282489Y39993794D01*
X29334000Y40005000D01*
X30099000Y40005000D01*
X30099000Y41532000D01*
X30118685Y41599039D01*
X30171489Y41644794D01*
X30223000Y41656000D01*
X30591990Y41656000D01*
X30659029Y41636315D01*
G37*
%TD.AperFunction*%
%TD*%
M02*
