M48
; DRILL file {KiCad 9.99.0-86-g03af293683} date 2025-02-25T09:18:39+0100
; FORMAT={-:-/ absolute / inch / decimal}
; #@! TF.CreationDate,2025-02-25T09:18:39+01:00
; #@! TF.GenerationSoftware,Kicad,Pcbnew,9.99.0-86-g03af293683
; #@! TF.FileFunction,Plated,1,2,PTH
FMAT,2
INCH
; #@! TA.AperFunction,Plated,PTH,ViaDrill
T1C0.0118
; #@! TA.AperFunction,Plated,PTH,ComponentDrill
T2C0.0118
; #@! TA.AperFunction,Plated,PTH,ComponentDrill
T3C0.0295
; #@! TA.AperFunction,Plated,PTH,ComponentDrill
T4C0.0315
; #@! TA.AperFunction,Plated,PTH,ComponentDrill
T5C0.0433
; #@! TA.AperFunction,Plated,PTH,ComponentDrill
T6C0.0512
%
G90
G05
T1
X0.245Y0.57
X0.255Y0.415
X0.255Y0.175
X0.326Y0.57
X0.415Y1.005
X0.43Y0.41
X0.46Y0.2829
X0.478Y1.232
X0.49Y0.995
X0.565Y2.3
X0.598Y2.85
X0.63Y0.94
X0.66Y2.855
X0.675Y0.11
X0.755Y2.845
X0.755Y2.65
X0.805Y1.475
X0.81Y0.29
X0.82Y2.1018
X0.82Y2.0418
X0.82Y1.9818
X0.82Y1.695
X0.85Y0.325
X0.86Y2.35
X0.86Y2.27
X0.91Y2.395
X0.935Y0.412
X0.96Y1.28
X0.98Y2.7518
X0.985Y2.89
X1.01Y1.475
X1.01Y1.28
X1.08Y1.305
X1.08Y1.0
X1.23Y1.27
X1.2638Y0.7618
X1.275Y1.15
X1.345Y1.15
T2
X0.9787Y1.3963
X0.9787Y1.3537
X1.0213Y1.3963
X1.0213Y1.3537
T3
X0.195Y2.7862
X0.245Y2.7862
X0.295Y2.7862
X0.33Y2.085
X0.33Y2.035
X0.33Y1.985
X0.9Y1.0342
X0.92Y1.67
X0.95Y1.0342
X0.97Y1.67
X1.0Y1.0342
X1.02Y1.67
T4
X0.17Y1.64
X0.17Y1.54
X0.17Y1.44
X0.17Y1.34
X0.47Y1.64
X0.47Y1.54
X0.47Y1.44
X0.47Y1.34
T5
X1.3156Y1.6876
X1.3156Y1.5876
X1.3156Y1.4876
X1.3156Y1.3876
T6
X1.2556Y2.3542
X1.2556Y2.1574
M30
