%TF.GenerationSoftware,KiCad,Pcbnew,9.99.0-86-g03af293683*%
%TF.CreationDate,2025-02-25T09:18:42+01:00*%
%TF.ProjectId,RemBrake,52656d42-7261-46b6-952e-6b696361645f,2.0*%
%TF.SameCoordinates,PX7270e00PY8583b00*%
%TF.FileFunction,Legend,Bot*%
%TF.FilePolarity,Positive*%
%FSLAX46Y46*%
G04 Gerber Fmt 4.6, Leading zero omitted, Abs format (unit mm)*
G04 Created by KiCad (PCBNEW 9.99.0-86-g03af293683) date 2025-02-25 09:18:42*
%MOMM*%
%LPD*%
G01*
G04 APERTURE LIST*
%ADD10C,0.300000*%
%ADD11C,0.200000*%
%ADD12C,0.100000*%
%ADD13C,0.120000*%
%ADD14C,0.010000*%
G04 APERTURE END LIST*
D10*
X35433000Y43307000D02*
X35433000Y42545000D01*
X35433000Y39751000D02*
X35433000Y40640000D01*
X35433000Y40640000D02*
X36703000Y42545000D01*
X35433000Y42545000D02*
X35814000Y42545000D01*
D11*
X35350476Y38081210D02*
X35426666Y38119305D01*
X35426666Y38119305D02*
X35540952Y38119305D01*
X35540952Y38119305D02*
X35655238Y38081210D01*
X35655238Y38081210D02*
X35731428Y38005020D01*
X35731428Y38005020D02*
X35769523Y37928829D01*
X35769523Y37928829D02*
X35807619Y37776448D01*
X35807619Y37776448D02*
X35807619Y37662162D01*
X35807619Y37662162D02*
X35769523Y37509781D01*
X35769523Y37509781D02*
X35731428Y37433591D01*
X35731428Y37433591D02*
X35655238Y37357400D01*
X35655238Y37357400D02*
X35540952Y37319305D01*
X35540952Y37319305D02*
X35464761Y37319305D01*
X35464761Y37319305D02*
X35350476Y37357400D01*
X35350476Y37357400D02*
X35312380Y37395496D01*
X35312380Y37395496D02*
X35312380Y37662162D01*
X35312380Y37662162D02*
X35464761Y37662162D01*
G36*
X38526742Y17823082D02*
G01*
X38506461Y17782521D01*
X38491314Y17767375D01*
X38450755Y17747094D01*
X38383684Y17747094D01*
X38343121Y17767375D01*
X38327975Y17782522D01*
X38307695Y17823082D01*
X38307695Y18004237D01*
X38526742Y18004237D01*
X38526742Y17823082D01*
G37*
G36*
X38842284Y18852036D02*
G01*
X38887413Y18806907D01*
X38907695Y18766345D01*
X38907695Y18661177D01*
X38887414Y18620616D01*
X38842283Y18575485D01*
X38728719Y18547094D01*
X38486671Y18547094D01*
X38373105Y18575486D01*
X38327976Y18620615D01*
X38307695Y18661177D01*
X38307695Y18766345D01*
X38327975Y18806906D01*
X38373106Y18852037D01*
X38486671Y18880428D01*
X38728718Y18880428D01*
X38842284Y18852036D01*
G37*
G36*
X39207695Y17447094D02*
G01*
X38007695Y17447094D01*
X38007695Y18104237D01*
X38107695Y18104237D01*
X38107695Y17799475D01*
X38109616Y17779966D01*
X38110991Y17776646D01*
X38111246Y17773062D01*
X38118252Y17754754D01*
X38156347Y17678564D01*
X38161633Y17670166D01*
X38162643Y17667728D01*
X38164894Y17664985D01*
X38166790Y17661973D01*
X38168787Y17660241D01*
X38175079Y17652574D01*
X38213174Y17614480D01*
X38220840Y17608188D01*
X38222573Y17606190D01*
X38225581Y17604297D01*
X38228327Y17602043D01*
X38230767Y17601033D01*
X38239163Y17595748D01*
X38315354Y17557652D01*
X38333662Y17550645D01*
X38337247Y17550391D01*
X38340567Y17549015D01*
X38360076Y17547094D01*
X38474361Y17547094D01*
X38493870Y17549015D01*
X38497190Y17550391D01*
X38500774Y17550645D01*
X38519083Y17557652D01*
X38595274Y17595747D01*
X38603672Y17601034D01*
X38606109Y17602043D01*
X38608852Y17604295D01*
X38611864Y17606190D01*
X38613596Y17608188D01*
X38621263Y17614479D01*
X38659357Y17652574D01*
X38665649Y17660241D01*
X38667647Y17661973D01*
X38669540Y17664982D01*
X38671794Y17667727D01*
X38672804Y17670168D01*
X38678090Y17678564D01*
X38706678Y17735741D01*
X38950349Y17565171D01*
X38967433Y17555557D01*
X39005527Y17547118D01*
X39043952Y17553898D01*
X39076857Y17574867D01*
X39099232Y17606832D01*
X39107671Y17644927D01*
X39100890Y17683351D01*
X39079922Y17716256D01*
X39065041Y17729017D01*
X38726742Y17965827D01*
X38726742Y18004237D01*
X39007695Y18004237D01*
X39027204Y18006158D01*
X39063252Y18021090D01*
X39090842Y18048680D01*
X39105774Y18084728D01*
X39105774Y18123746D01*
X39090842Y18159794D01*
X39063252Y18187384D01*
X39027204Y18202316D01*
X39007695Y18204237D01*
X38207695Y18204237D01*
X38188186Y18202316D01*
X38152138Y18187384D01*
X38124548Y18159794D01*
X38109616Y18123746D01*
X38107695Y18104237D01*
X38007695Y18104237D01*
X38007695Y18789951D01*
X38107695Y18789951D01*
X38107695Y18637570D01*
X38109616Y18618061D01*
X38110991Y18614741D01*
X38111246Y18611157D01*
X38118252Y18592849D01*
X38156347Y18516659D01*
X38161630Y18508265D01*
X38162642Y18505823D01*
X38164896Y18503076D01*
X38166790Y18500068D01*
X38168786Y18498337D01*
X38175079Y18490670D01*
X38251269Y18414479D01*
X38266422Y18402042D01*
X38273292Y18399197D01*
X38279266Y18394770D01*
X38297727Y18388175D01*
X38450108Y18350080D01*
X38453487Y18349581D01*
X38454852Y18349015D01*
X38462203Y18348292D01*
X38469500Y18347212D01*
X38470958Y18347430D01*
X38474361Y18347094D01*
X38741028Y18347094D01*
X38744430Y18347430D01*
X38745889Y18347212D01*
X38753185Y18348292D01*
X38760537Y18349015D01*
X38761901Y18349581D01*
X38765281Y18350080D01*
X38917663Y18388175D01*
X38936123Y18394770D01*
X38942098Y18399198D01*
X38948966Y18402042D01*
X38964120Y18414478D01*
X39040310Y18490669D01*
X39046602Y18498336D01*
X39048600Y18500068D01*
X39050493Y18503077D01*
X39052747Y18505822D01*
X39053757Y18508263D01*
X39059043Y18516659D01*
X39097138Y18592849D01*
X39104144Y18611157D01*
X39104398Y18614741D01*
X39105774Y18618061D01*
X39107695Y18637570D01*
X39107695Y18789951D01*
X39105774Y18809460D01*
X39104398Y18812781D01*
X39104144Y18816363D01*
X39097138Y18834672D01*
X39059043Y18910863D01*
X39053758Y18919259D01*
X39052747Y18921700D01*
X39050491Y18924448D01*
X39048600Y18927453D01*
X39046604Y18929184D01*
X39040310Y18936853D01*
X38964119Y19013043D01*
X38948966Y19025480D01*
X38942097Y19028325D01*
X38936124Y19032751D01*
X38917663Y19039346D01*
X38765282Y19077442D01*
X38761900Y19077943D01*
X38760537Y19078507D01*
X38753188Y19079231D01*
X38745890Y19080310D01*
X38744431Y19080093D01*
X38741028Y19080428D01*
X38474361Y19080428D01*
X38470957Y19080093D01*
X38469499Y19080310D01*
X38462200Y19079231D01*
X38454852Y19078507D01*
X38453488Y19077943D01*
X38450107Y19077442D01*
X38297726Y19039346D01*
X38279265Y19032751D01*
X38273289Y19028324D01*
X38266423Y19025479D01*
X38251269Y19013043D01*
X38175079Y18936853D01*
X38168784Y18929184D01*
X38166790Y18927453D01*
X38164896Y18924446D01*
X38162643Y18921699D01*
X38161632Y18919260D01*
X38156347Y18910863D01*
X38118252Y18834672D01*
X38111246Y18816363D01*
X38110991Y18812781D01*
X38109616Y18809460D01*
X38107695Y18789951D01*
X38007695Y18789951D01*
X38007695Y19589952D01*
X38107695Y19589952D01*
X38107695Y19399475D01*
X38108667Y19389602D01*
X38108480Y19386968D01*
X38109267Y19383505D01*
X38109616Y19379966D01*
X38110627Y19377524D01*
X38112827Y19367852D01*
X38150922Y19253567D01*
X38158913Y19235667D01*
X38184479Y19206191D01*
X38219377Y19188741D01*
X38258297Y19185975D01*
X38295313Y19198313D01*
X38324789Y19223878D01*
X38342239Y19258777D01*
X38345005Y19297697D01*
X38340658Y19316813D01*
X38307695Y19415702D01*
X38307695Y19566345D01*
X38327975Y19606906D01*
X38343121Y19622053D01*
X38383684Y19642333D01*
X38412660Y19642333D01*
X38453219Y19622053D01*
X38468366Y19606907D01*
X38494295Y19555048D01*
X38529728Y19413317D01*
X38530241Y19411879D01*
X38530293Y19411158D01*
X38533395Y19403051D01*
X38536323Y19394857D01*
X38536754Y19394275D01*
X38537300Y19392849D01*
X38575395Y19316658D01*
X38580681Y19308260D01*
X38581691Y19305823D01*
X38583942Y19303080D01*
X38585838Y19300068D01*
X38587835Y19298336D01*
X38594127Y19290669D01*
X38632222Y19252575D01*
X38639888Y19246283D01*
X38641621Y19244285D01*
X38644629Y19242392D01*
X38647375Y19240138D01*
X38649815Y19239128D01*
X38658212Y19233842D01*
X38734402Y19195747D01*
X38752710Y19188741D01*
X38756293Y19188487D01*
X38759614Y19187111D01*
X38779123Y19185190D01*
X38855314Y19185190D01*
X38874823Y19187111D01*
X38878143Y19188487D01*
X38881727Y19188741D01*
X38900035Y19195747D01*
X38976225Y19233842D01*
X38984621Y19239127D01*
X38987060Y19240137D01*
X38989805Y19242391D01*
X38992816Y19244285D01*
X38994547Y19246282D01*
X39002214Y19252573D01*
X39040310Y19290668D01*
X39046606Y19298340D01*
X39048600Y19300069D01*
X39050491Y19303075D01*
X39052746Y19305821D01*
X39053756Y19308262D01*
X39059043Y19316659D01*
X39097138Y19392850D01*
X39104144Y19411159D01*
X39104398Y19414742D01*
X39105774Y19418062D01*
X39107695Y19437571D01*
X39107695Y19628047D01*
X39106722Y19637921D01*
X39106910Y19640554D01*
X39106122Y19644017D01*
X39105774Y19647556D01*
X39104762Y19649999D01*
X39102563Y19659669D01*
X39064468Y19773956D01*
X39056477Y19791856D01*
X39030912Y19821332D01*
X38996013Y19838782D01*
X38957093Y19841548D01*
X38920077Y19829210D01*
X38890601Y19803645D01*
X38873151Y19768746D01*
X38870385Y19729826D01*
X38874732Y19710710D01*
X38907695Y19611821D01*
X38907695Y19461178D01*
X38887414Y19420617D01*
X38872268Y19405471D01*
X38831707Y19385190D01*
X38802730Y19385190D01*
X38762168Y19405471D01*
X38747022Y19420618D01*
X38721093Y19472475D01*
X38685661Y19614205D01*
X38685147Y19615643D01*
X38685096Y19616365D01*
X38681987Y19624490D01*
X38679066Y19632666D01*
X38678635Y19633247D01*
X38678090Y19634673D01*
X38639995Y19710863D01*
X38634709Y19719260D01*
X38633699Y19721700D01*
X38631445Y19724446D01*
X38629552Y19727454D01*
X38627554Y19729187D01*
X38621262Y19736853D01*
X38583168Y19774948D01*
X38575501Y19781240D01*
X38573769Y19783237D01*
X38570757Y19785133D01*
X38568014Y19787384D01*
X38565577Y19788394D01*
X38557179Y19793680D01*
X38480988Y19831775D01*
X38462679Y19838782D01*
X38459095Y19839037D01*
X38455775Y19840412D01*
X38436266Y19842333D01*
X38360076Y19842333D01*
X38340567Y19840412D01*
X38337247Y19839037D01*
X38333662Y19838782D01*
X38315354Y19831775D01*
X38239163Y19793679D01*
X38230767Y19788395D01*
X38228327Y19787384D01*
X38225581Y19785131D01*
X38222573Y19783237D01*
X38220840Y19781240D01*
X38213174Y19774947D01*
X38175079Y19736853D01*
X38168787Y19729187D01*
X38166790Y19727454D01*
X38164894Y19724443D01*
X38162643Y19721699D01*
X38161633Y19719262D01*
X38156347Y19710863D01*
X38118252Y19634673D01*
X38111246Y19616365D01*
X38110991Y19612782D01*
X38109616Y19609461D01*
X38107695Y19589952D01*
X38007695Y19589952D01*
X38007695Y20535347D01*
X38107939Y20535347D01*
X38109616Y20529199D01*
X38109616Y20522823D01*
X38114707Y20510533D01*
X38118206Y20497704D01*
X38122108Y20492666D01*
X38124548Y20486775D01*
X38133953Y20477370D01*
X38142096Y20466855D01*
X38150271Y20461052D01*
X38152138Y20459185D01*
X38153970Y20458427D01*
X38158081Y20455508D01*
X38631139Y20185189D01*
X38207695Y20185189D01*
X38188186Y20183268D01*
X38152138Y20168336D01*
X38124548Y20140746D01*
X38109616Y20104698D01*
X38109616Y20065680D01*
X38124548Y20029632D01*
X38152138Y20002042D01*
X38188186Y19987110D01*
X38207695Y19985189D01*
X39007695Y19985189D01*
X39012712Y19985684D01*
X39014680Y19985433D01*
X39017226Y19986128D01*
X39027204Y19987110D01*
X39039494Y19992202D01*
X39052323Y19995700D01*
X39057361Y19999603D01*
X39063252Y20002042D01*
X39072657Y20011448D01*
X39083172Y20019590D01*
X39086334Y20025125D01*
X39090842Y20029632D01*
X39095930Y20041918D01*
X39102531Y20053467D01*
X39103334Y20059792D01*
X39105774Y20065680D01*
X39105774Y20078980D01*
X39107451Y20092173D01*
X39105774Y20098322D01*
X39105774Y20104698D01*
X39100682Y20116990D01*
X39097184Y20129817D01*
X39093281Y20134856D01*
X39090842Y20140746D01*
X39081436Y20150152D01*
X39073294Y20160666D01*
X39065118Y20166470D01*
X39063252Y20168336D01*
X39061419Y20169095D01*
X39057309Y20172013D01*
X38584251Y20442332D01*
X39007695Y20442332D01*
X39027204Y20444253D01*
X39063252Y20459185D01*
X39090842Y20486775D01*
X39105774Y20522823D01*
X39105774Y20561841D01*
X39090842Y20597889D01*
X39063252Y20625479D01*
X39027204Y20640411D01*
X39007695Y20642332D01*
X38207695Y20642332D01*
X38202677Y20641838D01*
X38200710Y20642088D01*
X38198163Y20641394D01*
X38188186Y20640411D01*
X38175895Y20635320D01*
X38163067Y20631821D01*
X38158028Y20627919D01*
X38152138Y20625479D01*
X38142732Y20616074D01*
X38132218Y20607931D01*
X38129055Y20602397D01*
X38124548Y20597889D01*
X38119459Y20585604D01*
X38112859Y20574054D01*
X38112055Y20567730D01*
X38109616Y20561841D01*
X38109616Y20548541D01*
X38107939Y20535347D01*
X38007695Y20535347D01*
X38007695Y21266142D01*
X38107695Y21266142D01*
X38107695Y20885190D01*
X38109616Y20865681D01*
X38124548Y20829633D01*
X38152138Y20802043D01*
X38188186Y20787111D01*
X38227204Y20787111D01*
X38263252Y20802043D01*
X38290842Y20829633D01*
X38305774Y20865681D01*
X38307695Y20885190D01*
X38307695Y21166142D01*
X38488647Y21166142D01*
X38488647Y20999476D01*
X38490568Y20979967D01*
X38505500Y20943919D01*
X38533090Y20916329D01*
X38569138Y20901397D01*
X38608156Y20901397D01*
X38644204Y20916329D01*
X38671794Y20943919D01*
X38686726Y20979967D01*
X38688647Y20999476D01*
X38688647Y21166142D01*
X38907695Y21166142D01*
X38907695Y20885190D01*
X38909616Y20865681D01*
X38924548Y20829633D01*
X38952138Y20802043D01*
X38988186Y20787111D01*
X39027204Y20787111D01*
X39063252Y20802043D01*
X39090842Y20829633D01*
X39105774Y20865681D01*
X39107695Y20885190D01*
X39107695Y21266142D01*
X39105774Y21285651D01*
X39090842Y21321699D01*
X39063252Y21349289D01*
X39027204Y21364221D01*
X39007695Y21366142D01*
X38207695Y21366142D01*
X38188186Y21364221D01*
X38152138Y21349289D01*
X38124548Y21321699D01*
X38109616Y21285651D01*
X38107695Y21266142D01*
X38007695Y21266142D01*
X38007695Y21913762D01*
X38107695Y21913762D01*
X38107695Y21723285D01*
X38108667Y21713412D01*
X38108480Y21710778D01*
X38109267Y21707315D01*
X38109616Y21703776D01*
X38110627Y21701334D01*
X38112827Y21691662D01*
X38150922Y21577377D01*
X38158913Y21559477D01*
X38184479Y21530001D01*
X38219377Y21512551D01*
X38258297Y21509785D01*
X38295313Y21522123D01*
X38324789Y21547688D01*
X38342239Y21582587D01*
X38345005Y21621507D01*
X38340658Y21640623D01*
X38307695Y21739512D01*
X38307695Y21890155D01*
X38327975Y21930716D01*
X38343121Y21945863D01*
X38383684Y21966143D01*
X38412660Y21966143D01*
X38453219Y21945863D01*
X38468366Y21930717D01*
X38494295Y21878858D01*
X38529728Y21737127D01*
X38530241Y21735689D01*
X38530293Y21734968D01*
X38533395Y21726861D01*
X38536323Y21718667D01*
X38536754Y21718085D01*
X38537300Y21716659D01*
X38575395Y21640468D01*
X38580681Y21632070D01*
X38581691Y21629633D01*
X38583942Y21626890D01*
X38585838Y21623878D01*
X38587835Y21622146D01*
X38594127Y21614479D01*
X38632222Y21576385D01*
X38639888Y21570093D01*
X38641621Y21568095D01*
X38644629Y21566202D01*
X38647375Y21563948D01*
X38649815Y21562938D01*
X38658212Y21557652D01*
X38734402Y21519557D01*
X38752710Y21512551D01*
X38756293Y21512297D01*
X38759614Y21510921D01*
X38779123Y21509000D01*
X38855314Y21509000D01*
X38874823Y21510921D01*
X38878143Y21512297D01*
X38881727Y21512551D01*
X38900035Y21519557D01*
X38976225Y21557652D01*
X38984621Y21562937D01*
X38987060Y21563947D01*
X38989805Y21566201D01*
X38992816Y21568095D01*
X38994547Y21570092D01*
X39002214Y21576383D01*
X39040310Y21614478D01*
X39046606Y21622150D01*
X39048600Y21623879D01*
X39050491Y21626885D01*
X39052746Y21629631D01*
X39053756Y21632072D01*
X39059043Y21640469D01*
X39097138Y21716660D01*
X39104144Y21734969D01*
X39104398Y21738552D01*
X39105774Y21741872D01*
X39107695Y21761381D01*
X39107695Y21951857D01*
X39106722Y21961731D01*
X39106910Y21964364D01*
X39106122Y21967827D01*
X39105774Y21971366D01*
X39104762Y21973809D01*
X39102563Y21983479D01*
X39064468Y22097766D01*
X39056477Y22115666D01*
X39030912Y22145142D01*
X38996013Y22162592D01*
X38957093Y22165358D01*
X38920077Y22153020D01*
X38890601Y22127455D01*
X38873151Y22092556D01*
X38870385Y22053636D01*
X38874732Y22034520D01*
X38907695Y21935631D01*
X38907695Y21784988D01*
X38887414Y21744427D01*
X38872268Y21729281D01*
X38831707Y21709000D01*
X38802730Y21709000D01*
X38762168Y21729281D01*
X38747022Y21744428D01*
X38721093Y21796285D01*
X38685661Y21938015D01*
X38685147Y21939453D01*
X38685096Y21940175D01*
X38681987Y21948300D01*
X38679066Y21956476D01*
X38678635Y21957057D01*
X38678090Y21958483D01*
X38639995Y22034673D01*
X38634709Y22043070D01*
X38633699Y22045510D01*
X38631445Y22048256D01*
X38629552Y22051264D01*
X38627554Y22052997D01*
X38621262Y22060663D01*
X38583168Y22098758D01*
X38575501Y22105050D01*
X38573769Y22107047D01*
X38570757Y22108943D01*
X38568014Y22111194D01*
X38565577Y22112204D01*
X38557179Y22117490D01*
X38480988Y22155585D01*
X38462679Y22162592D01*
X38459095Y22162847D01*
X38455775Y22164222D01*
X38436266Y22166143D01*
X38360076Y22166143D01*
X38340567Y22164222D01*
X38337247Y22162847D01*
X38333662Y22162592D01*
X38315354Y22155585D01*
X38239163Y22117489D01*
X38230767Y22112205D01*
X38228327Y22111194D01*
X38225581Y22108941D01*
X38222573Y22107047D01*
X38220840Y22105050D01*
X38213174Y22098757D01*
X38175079Y22060663D01*
X38168787Y22052997D01*
X38166790Y22051264D01*
X38164894Y22048253D01*
X38162643Y22045509D01*
X38161633Y22043072D01*
X38156347Y22034673D01*
X38118252Y21958483D01*
X38111246Y21940175D01*
X38110991Y21936592D01*
X38109616Y21933271D01*
X38107695Y21913762D01*
X38007695Y21913762D01*
X38007695Y24085086D01*
X38107695Y24085086D01*
X38115347Y24046826D01*
X38137058Y24014406D01*
X38152225Y24001986D01*
X38427417Y23818524D01*
X38152225Y23635062D01*
X38137058Y23622642D01*
X38115347Y23590222D01*
X38107695Y23551962D01*
X38115267Y23513685D01*
X38136910Y23481220D01*
X38169330Y23459509D01*
X38182126Y23456950D01*
X38152138Y23444528D01*
X38124548Y23416938D01*
X38109616Y23380890D01*
X38107695Y23361381D01*
X38107695Y22904238D01*
X38109616Y22884729D01*
X38124548Y22848681D01*
X38152138Y22821091D01*
X38188186Y22806159D01*
X38227204Y22806159D01*
X38263252Y22821091D01*
X38290842Y22848681D01*
X38305774Y22884729D01*
X38307695Y22904238D01*
X38307695Y23032810D01*
X39007695Y23032810D01*
X39027204Y23034731D01*
X39063252Y23049663D01*
X39090842Y23077253D01*
X39105774Y23113301D01*
X39105774Y23152319D01*
X39090842Y23188367D01*
X39063252Y23215957D01*
X39027204Y23230889D01*
X39007695Y23232810D01*
X38307695Y23232810D01*
X38307695Y23361381D01*
X38305774Y23380890D01*
X38290842Y23416938D01*
X38263252Y23444528D01*
X38233286Y23456941D01*
X38245867Y23459429D01*
X38263165Y23468652D01*
X38607695Y23698339D01*
X38952225Y23468652D01*
X38969523Y23459429D01*
X39007800Y23451857D01*
X39046060Y23459509D01*
X39078480Y23481220D01*
X39100124Y23513685D01*
X39107695Y23551961D01*
X39100043Y23590222D01*
X39078332Y23622642D01*
X39063165Y23635062D01*
X38787972Y23818524D01*
X39063165Y24001986D01*
X39078332Y24014406D01*
X39100043Y24046826D01*
X39107695Y24085087D01*
X39100124Y24123363D01*
X39078480Y24155828D01*
X39046060Y24177539D01*
X39007800Y24185191D01*
X38969523Y24177619D01*
X38952225Y24168396D01*
X38607695Y23938710D01*
X38263165Y24168396D01*
X38245867Y24177619D01*
X38207590Y24185191D01*
X38169330Y24177539D01*
X38136910Y24155828D01*
X38115267Y24123363D01*
X38107695Y24085086D01*
X38007695Y24085086D01*
X38007695Y24732810D01*
X38107695Y24732810D01*
X38107695Y24351858D01*
X38109616Y24332349D01*
X38124548Y24296301D01*
X38152138Y24268711D01*
X38188186Y24253779D01*
X38227204Y24253779D01*
X38263252Y24268711D01*
X38290842Y24296301D01*
X38305774Y24332349D01*
X38307695Y24351858D01*
X38307695Y24632810D01*
X38488647Y24632810D01*
X38488647Y24466144D01*
X38490568Y24446635D01*
X38505500Y24410587D01*
X38533090Y24382997D01*
X38569138Y24368065D01*
X38608156Y24368065D01*
X38644204Y24382997D01*
X38671794Y24410587D01*
X38686726Y24446635D01*
X38688647Y24466144D01*
X38688647Y24632810D01*
X38907695Y24632810D01*
X38907695Y24351858D01*
X38909616Y24332349D01*
X38924548Y24296301D01*
X38952138Y24268711D01*
X38988186Y24253779D01*
X39027204Y24253779D01*
X39063252Y24268711D01*
X39090842Y24296301D01*
X39105774Y24332349D01*
X39107695Y24351858D01*
X39107695Y24732810D01*
X39105774Y24752319D01*
X39090842Y24788367D01*
X39063252Y24815957D01*
X39027204Y24830889D01*
X39007695Y24832810D01*
X38207695Y24832810D01*
X38188186Y24830889D01*
X38152138Y24815957D01*
X38124548Y24788367D01*
X38109616Y24752319D01*
X38107695Y24732810D01*
X38007695Y24732810D01*
X38007695Y24932810D01*
X39207695Y24932810D01*
X39207695Y17447094D01*
G37*
G36*
X38526742Y5935798D02*
G01*
X38506461Y5895237D01*
X38491314Y5880091D01*
X38450755Y5859810D01*
X38383684Y5859810D01*
X38343121Y5880091D01*
X38327975Y5895238D01*
X38307695Y5935798D01*
X38307695Y6116953D01*
X38526742Y6116953D01*
X38526742Y5935798D01*
G37*
G36*
X38679123Y6698553D02*
G01*
X38523922Y6750287D01*
X38679123Y6802020D01*
X38679123Y6698553D01*
G37*
G36*
X38907695Y7421512D02*
G01*
X38887414Y7380952D01*
X38872267Y7365806D01*
X38831707Y7345524D01*
X38764635Y7345524D01*
X38724075Y7365804D01*
X38714143Y7375736D01*
X38688647Y7452228D01*
X38688647Y7602667D01*
X38907695Y7602667D01*
X38907695Y7421512D01*
G37*
G36*
X38488647Y7459608D02*
G01*
X38468366Y7419046D01*
X38453220Y7403901D01*
X38412659Y7383620D01*
X38383683Y7383620D01*
X38343120Y7403901D01*
X38327975Y7419047D01*
X38307695Y7459608D01*
X38307695Y7602667D01*
X38488647Y7602667D01*
X38488647Y7459608D01*
G37*
G36*
X38907695Y9699847D02*
G01*
X38882197Y9623353D01*
X38834174Y9575331D01*
X38782314Y9549401D01*
X38652528Y9516953D01*
X38562862Y9516953D01*
X38433074Y9549401D01*
X38381216Y9575330D01*
X38333192Y9623354D01*
X38307695Y9699847D01*
X38307695Y9774096D01*
X38907695Y9774096D01*
X38907695Y9699847D01*
G37*
G36*
X38679123Y11193791D02*
G01*
X38523922Y11245525D01*
X38679123Y11297258D01*
X38679123Y11193791D01*
G37*
G36*
X39207695Y4797906D02*
G01*
X38007695Y4797906D01*
X38007695Y5302668D01*
X38107695Y5302668D01*
X38107695Y5112191D01*
X38108667Y5102318D01*
X38108480Y5099684D01*
X38109267Y5096221D01*
X38109616Y5092682D01*
X38110627Y5090240D01*
X38112827Y5080568D01*
X38150922Y4966283D01*
X38158913Y4948383D01*
X38184479Y4918907D01*
X38219377Y4901457D01*
X38258297Y4898691D01*
X38295313Y4911029D01*
X38324789Y4936594D01*
X38342239Y4971493D01*
X38345005Y5010413D01*
X38340658Y5029529D01*
X38307695Y5128418D01*
X38307695Y5279061D01*
X38327975Y5319622D01*
X38343121Y5334769D01*
X38383684Y5355049D01*
X38412660Y5355049D01*
X38453219Y5334769D01*
X38468366Y5319623D01*
X38494295Y5267764D01*
X38529728Y5126033D01*
X38530241Y5124595D01*
X38530293Y5123874D01*
X38533395Y5115767D01*
X38536323Y5107573D01*
X38536754Y5106991D01*
X38537300Y5105565D01*
X38575395Y5029374D01*
X38580681Y5020976D01*
X38581691Y5018539D01*
X38583942Y5015796D01*
X38585838Y5012784D01*
X38587835Y5011052D01*
X38594127Y5003385D01*
X38632222Y4965291D01*
X38639888Y4958999D01*
X38641621Y4957001D01*
X38644629Y4955108D01*
X38647375Y4952854D01*
X38649815Y4951844D01*
X38658212Y4946558D01*
X38734402Y4908463D01*
X38752710Y4901457D01*
X38756293Y4901203D01*
X38759614Y4899827D01*
X38779123Y4897906D01*
X38855314Y4897906D01*
X38874823Y4899827D01*
X38878143Y4901203D01*
X38881727Y4901457D01*
X38900035Y4908463D01*
X38976225Y4946558D01*
X38984621Y4951843D01*
X38987060Y4952853D01*
X38989805Y4955107D01*
X38992816Y4957001D01*
X38994547Y4958998D01*
X39002214Y4965289D01*
X39040310Y5003384D01*
X39046606Y5011056D01*
X39048600Y5012785D01*
X39050491Y5015791D01*
X39052746Y5018537D01*
X39053756Y5020978D01*
X39059043Y5029375D01*
X39097138Y5105566D01*
X39104144Y5123875D01*
X39104398Y5127458D01*
X39105774Y5130778D01*
X39107695Y5150287D01*
X39107695Y5340763D01*
X39106722Y5350637D01*
X39106910Y5353270D01*
X39106122Y5356733D01*
X39105774Y5360272D01*
X39104762Y5362715D01*
X39102563Y5372385D01*
X39064468Y5486672D01*
X39056477Y5504572D01*
X39030912Y5534048D01*
X38996013Y5551498D01*
X38957093Y5554264D01*
X38920077Y5541926D01*
X38890601Y5516361D01*
X38873151Y5481462D01*
X38870385Y5442542D01*
X38874732Y5423426D01*
X38907695Y5324537D01*
X38907695Y5173894D01*
X38887414Y5133333D01*
X38872268Y5118187D01*
X38831707Y5097906D01*
X38802730Y5097906D01*
X38762168Y5118187D01*
X38747022Y5133334D01*
X38721093Y5185191D01*
X38685661Y5326921D01*
X38685147Y5328359D01*
X38685096Y5329081D01*
X38681987Y5337206D01*
X38679066Y5345382D01*
X38678635Y5345963D01*
X38678090Y5347389D01*
X38639995Y5423579D01*
X38634709Y5431976D01*
X38633699Y5434416D01*
X38631445Y5437162D01*
X38629552Y5440170D01*
X38627554Y5441903D01*
X38621262Y5449569D01*
X38583168Y5487664D01*
X38575501Y5493956D01*
X38573769Y5495953D01*
X38570757Y5497849D01*
X38568014Y5500100D01*
X38565577Y5501110D01*
X38557179Y5506396D01*
X38480988Y5544491D01*
X38462679Y5551498D01*
X38459095Y5551753D01*
X38455775Y5553128D01*
X38436266Y5555049D01*
X38360076Y5555049D01*
X38340567Y5553128D01*
X38337247Y5551753D01*
X38333662Y5551498D01*
X38315354Y5544491D01*
X38239163Y5506395D01*
X38230767Y5501111D01*
X38228327Y5500100D01*
X38225581Y5497847D01*
X38222573Y5495953D01*
X38220840Y5493956D01*
X38213174Y5487663D01*
X38175079Y5449569D01*
X38168787Y5441903D01*
X38166790Y5440170D01*
X38164894Y5437159D01*
X38162643Y5434415D01*
X38161633Y5431978D01*
X38156347Y5423579D01*
X38118252Y5347389D01*
X38111246Y5329081D01*
X38110991Y5325498D01*
X38109616Y5322177D01*
X38107695Y5302668D01*
X38007695Y5302668D01*
X38007695Y6216953D01*
X38107695Y6216953D01*
X38107695Y5912191D01*
X38109616Y5892682D01*
X38110991Y5889362D01*
X38111246Y5885778D01*
X38118252Y5867470D01*
X38156347Y5791280D01*
X38161633Y5782882D01*
X38162643Y5780444D01*
X38164894Y5777701D01*
X38166790Y5774689D01*
X38168787Y5772957D01*
X38175079Y5765290D01*
X38213174Y5727196D01*
X38220840Y5720904D01*
X38222573Y5718906D01*
X38225581Y5717013D01*
X38228327Y5714759D01*
X38230767Y5713749D01*
X38239163Y5708464D01*
X38315354Y5670368D01*
X38333662Y5663361D01*
X38337247Y5663107D01*
X38340567Y5661731D01*
X38360076Y5659810D01*
X38474361Y5659810D01*
X38493870Y5661731D01*
X38497190Y5663107D01*
X38500774Y5663361D01*
X38519083Y5670368D01*
X38595274Y5708463D01*
X38603672Y5713750D01*
X38606109Y5714759D01*
X38608852Y5717011D01*
X38611864Y5718906D01*
X38613596Y5720904D01*
X38621263Y5727195D01*
X38659357Y5765290D01*
X38665649Y5772957D01*
X38667647Y5774689D01*
X38669540Y5777698D01*
X38671794Y5780443D01*
X38672804Y5782884D01*
X38678090Y5791280D01*
X38706678Y5848457D01*
X38950349Y5677887D01*
X38967433Y5668273D01*
X39005527Y5659834D01*
X39043952Y5666614D01*
X39076857Y5687583D01*
X39099232Y5719548D01*
X39107671Y5757643D01*
X39100890Y5796067D01*
X39079922Y5828972D01*
X39065041Y5841733D01*
X38726742Y6078543D01*
X38726742Y6116953D01*
X39007695Y6116953D01*
X39027204Y6118874D01*
X39063252Y6133806D01*
X39090842Y6161396D01*
X39105774Y6197444D01*
X39105774Y6236462D01*
X39090842Y6272510D01*
X39063252Y6300100D01*
X39027204Y6315032D01*
X39007695Y6316953D01*
X38207695Y6316953D01*
X38188186Y6315032D01*
X38152138Y6300100D01*
X38124548Y6272510D01*
X38109616Y6236462D01*
X38107695Y6216953D01*
X38007695Y6216953D01*
X38007695Y6762793D01*
X38108480Y6762793D01*
X38109368Y6750286D01*
X38108480Y6737779D01*
X38110739Y6731001D01*
X38111246Y6723873D01*
X38116852Y6712661D01*
X38120818Y6700763D01*
X38125501Y6695364D01*
X38128696Y6688974D01*
X38138170Y6680757D01*
X38146384Y6671287D01*
X38152771Y6668094D01*
X38158172Y6663409D01*
X38176072Y6655418D01*
X38976072Y6388752D01*
X38995188Y6384405D01*
X39034108Y6387171D01*
X39069007Y6404621D01*
X39094572Y6434097D01*
X39106910Y6471113D01*
X39104144Y6510033D01*
X39086695Y6544932D01*
X39057218Y6570497D01*
X39039318Y6578488D01*
X38879123Y6631887D01*
X38879123Y6868687D01*
X39039318Y6922085D01*
X39057218Y6930076D01*
X39086694Y6955641D01*
X39104144Y6990540D01*
X39106910Y7029460D01*
X39094571Y7066476D01*
X39069006Y7095952D01*
X39034107Y7113402D01*
X38995187Y7116168D01*
X38976072Y7111821D01*
X38176072Y6845154D01*
X38158172Y6837163D01*
X38152772Y6832480D01*
X38146383Y6829285D01*
X38138165Y6819811D01*
X38128696Y6811597D01*
X38125502Y6805210D01*
X38120818Y6799809D01*
X38116852Y6787911D01*
X38111246Y6776699D01*
X38110739Y6769572D01*
X38108480Y6762793D01*
X38007695Y6762793D01*
X38007695Y7702667D01*
X38107695Y7702667D01*
X38107695Y7436001D01*
X38109616Y7416492D01*
X38110991Y7413172D01*
X38111246Y7409589D01*
X38118252Y7391280D01*
X38156347Y7315089D01*
X38161632Y7306693D01*
X38162643Y7304253D01*
X38164896Y7301507D01*
X38166790Y7298499D01*
X38168784Y7296769D01*
X38175079Y7289099D01*
X38213174Y7251005D01*
X38220843Y7244711D01*
X38222574Y7242715D01*
X38225579Y7240824D01*
X38228327Y7238568D01*
X38230768Y7237557D01*
X38239164Y7232272D01*
X38315355Y7194177D01*
X38333664Y7187171D01*
X38337246Y7186917D01*
X38340567Y7185541D01*
X38360076Y7183620D01*
X38436266Y7183620D01*
X38455775Y7185541D01*
X38459095Y7186917D01*
X38462678Y7187171D01*
X38480987Y7194177D01*
X38557178Y7232272D01*
X38565574Y7237558D01*
X38568014Y7238568D01*
X38568263Y7238773D01*
X38594128Y7212909D01*
X38601795Y7206617D01*
X38603526Y7204621D01*
X38606532Y7202729D01*
X38609282Y7200472D01*
X38611724Y7199461D01*
X38620116Y7194178D01*
X38696305Y7156082D01*
X38714614Y7149075D01*
X38718199Y7148821D01*
X38721519Y7147445D01*
X38741028Y7145524D01*
X38855314Y7145524D01*
X38874823Y7147445D01*
X38878142Y7148821D01*
X38881728Y7149075D01*
X38900036Y7156082D01*
X38976226Y7194178D01*
X38984617Y7199461D01*
X38987060Y7200472D01*
X38989810Y7202729D01*
X38992816Y7204621D01*
X38994544Y7206615D01*
X39002214Y7212908D01*
X39040310Y7251003D01*
X39046603Y7258672D01*
X39048600Y7260403D01*
X39050493Y7263412D01*
X39052746Y7266156D01*
X39053756Y7268595D01*
X39059043Y7276994D01*
X39097138Y7353184D01*
X39104144Y7371492D01*
X39104398Y7375076D01*
X39105774Y7378396D01*
X39107695Y7397905D01*
X39107695Y7702667D01*
X39105774Y7722176D01*
X39090842Y7758224D01*
X39063252Y7785814D01*
X39027204Y7800746D01*
X39007695Y7802667D01*
X38207695Y7802667D01*
X38188186Y7800746D01*
X38152138Y7785814D01*
X38124548Y7758224D01*
X38109616Y7722176D01*
X38107695Y7702667D01*
X38007695Y7702667D01*
X38007695Y8426477D01*
X38107695Y8426477D01*
X38107695Y8045525D01*
X38109616Y8026016D01*
X38124548Y7989968D01*
X38152138Y7962378D01*
X38188186Y7947446D01*
X38227204Y7947446D01*
X38263252Y7962378D01*
X38290842Y7989968D01*
X38305774Y8026016D01*
X38307695Y8045525D01*
X38307695Y8326477D01*
X38488647Y8326477D01*
X38488647Y8159811D01*
X38490568Y8140302D01*
X38505500Y8104254D01*
X38533090Y8076664D01*
X38569138Y8061732D01*
X38608156Y8061732D01*
X38644204Y8076664D01*
X38671794Y8104254D01*
X38686726Y8140302D01*
X38688647Y8159811D01*
X38688647Y8326477D01*
X38907695Y8326477D01*
X38907695Y8045525D01*
X38909616Y8026016D01*
X38924548Y7989968D01*
X38952138Y7962378D01*
X38988186Y7947446D01*
X39027204Y7947446D01*
X39063252Y7962378D01*
X39090842Y7989968D01*
X39105774Y8026016D01*
X39107695Y8045525D01*
X39107695Y8426477D01*
X39105774Y8445986D01*
X39090842Y8482034D01*
X39063252Y8509624D01*
X39027204Y8524556D01*
X39007695Y8526477D01*
X38207695Y8526477D01*
X38188186Y8524556D01*
X38152138Y8509624D01*
X38124548Y8482034D01*
X38109616Y8445986D01*
X38107695Y8426477D01*
X38007695Y8426477D01*
X38007695Y9093605D01*
X38109616Y9093605D01*
X38109616Y9054587D01*
X38124548Y9018539D01*
X38152138Y8990949D01*
X38188186Y8976017D01*
X38207695Y8974096D01*
X38907695Y8974096D01*
X38907695Y8693144D01*
X38909616Y8673635D01*
X38924548Y8637587D01*
X38952138Y8609997D01*
X38988186Y8595065D01*
X39027204Y8595065D01*
X39063252Y8609997D01*
X39090842Y8637587D01*
X39105774Y8673635D01*
X39107695Y8693144D01*
X39107695Y9074096D01*
X39105774Y9093605D01*
X39090842Y9129653D01*
X39063252Y9157243D01*
X39027204Y9172175D01*
X39007695Y9174096D01*
X38207695Y9174096D01*
X38188186Y9172175D01*
X38152138Y9157243D01*
X38124548Y9129653D01*
X38109616Y9093605D01*
X38007695Y9093605D01*
X38007695Y9874096D01*
X38107695Y9874096D01*
X38107695Y9683620D01*
X38108667Y9673747D01*
X38108480Y9671113D01*
X38109267Y9667650D01*
X38109616Y9664111D01*
X38110627Y9661669D01*
X38112827Y9651997D01*
X38150922Y9537711D01*
X38158913Y9519811D01*
X38161268Y9517096D01*
X38162643Y9513777D01*
X38175079Y9498623D01*
X38251269Y9422433D01*
X38258938Y9416139D01*
X38260669Y9414144D01*
X38263676Y9412251D01*
X38266423Y9409997D01*
X38268862Y9408987D01*
X38277259Y9403701D01*
X38353450Y9365606D01*
X38354874Y9365061D01*
X38355456Y9364630D01*
X38363656Y9361701D01*
X38371759Y9358600D01*
X38372478Y9358549D01*
X38373917Y9358035D01*
X38526298Y9319939D01*
X38529679Y9319439D01*
X38531043Y9318874D01*
X38538391Y9318151D01*
X38545690Y9317071D01*
X38547148Y9317289D01*
X38550552Y9316953D01*
X38664838Y9316953D01*
X38668241Y9317289D01*
X38669700Y9317071D01*
X38676998Y9318151D01*
X38684347Y9318874D01*
X38685710Y9319439D01*
X38689092Y9319939D01*
X38841473Y9358035D01*
X38842911Y9358549D01*
X38843632Y9358600D01*
X38851742Y9361704D01*
X38859934Y9364630D01*
X38860515Y9365061D01*
X38861940Y9365606D01*
X38938130Y9403701D01*
X38946524Y9408985D01*
X38948966Y9409996D01*
X38951713Y9412251D01*
X38954721Y9414144D01*
X38956452Y9416141D01*
X38964119Y9422433D01*
X39040310Y9498623D01*
X39052747Y9513776D01*
X39054122Y9517096D01*
X39056477Y9519811D01*
X39064468Y9537711D01*
X39102563Y9651998D01*
X39104762Y9661669D01*
X39105774Y9664111D01*
X39106122Y9667651D01*
X39106910Y9671113D01*
X39106722Y9673747D01*
X39107695Y9683620D01*
X39107695Y9874096D01*
X39105774Y9893605D01*
X39090842Y9929653D01*
X39063252Y9957243D01*
X39027204Y9972175D01*
X39007695Y9974096D01*
X38207695Y9974096D01*
X38188186Y9972175D01*
X38152138Y9957243D01*
X38124548Y9929653D01*
X38109616Y9893605D01*
X38107695Y9874096D01*
X38007695Y9874096D01*
X38007695Y10705206D01*
X38107939Y10705206D01*
X38109616Y10699058D01*
X38109616Y10692682D01*
X38114707Y10680392D01*
X38118206Y10667563D01*
X38122108Y10662525D01*
X38124548Y10656634D01*
X38133953Y10647229D01*
X38142096Y10636714D01*
X38150271Y10630911D01*
X38152138Y10629044D01*
X38153970Y10628286D01*
X38158081Y10625367D01*
X38631139Y10355048D01*
X38207695Y10355048D01*
X38188186Y10353127D01*
X38152138Y10338195D01*
X38124548Y10310605D01*
X38109616Y10274557D01*
X38109616Y10235539D01*
X38124548Y10199491D01*
X38152138Y10171901D01*
X38188186Y10156969D01*
X38207695Y10155048D01*
X39007695Y10155048D01*
X39012712Y10155543D01*
X39014680Y10155292D01*
X39017226Y10155987D01*
X39027204Y10156969D01*
X39039494Y10162061D01*
X39052323Y10165559D01*
X39057361Y10169462D01*
X39063252Y10171901D01*
X39072657Y10181307D01*
X39083172Y10189449D01*
X39086334Y10194984D01*
X39090842Y10199491D01*
X39095930Y10211777D01*
X39102531Y10223326D01*
X39103334Y10229651D01*
X39105774Y10235539D01*
X39105774Y10248839D01*
X39107451Y10262032D01*
X39105774Y10268181D01*
X39105774Y10274557D01*
X39100682Y10286849D01*
X39097184Y10299676D01*
X39093281Y10304715D01*
X39090842Y10310605D01*
X39081436Y10320011D01*
X39073294Y10330525D01*
X39065118Y10336329D01*
X39063252Y10338195D01*
X39061419Y10338954D01*
X39057309Y10341872D01*
X38584251Y10612191D01*
X39007695Y10612191D01*
X39027204Y10614112D01*
X39063252Y10629044D01*
X39090842Y10656634D01*
X39105774Y10692682D01*
X39105774Y10731700D01*
X39090842Y10767748D01*
X39063252Y10795338D01*
X39027204Y10810270D01*
X39007695Y10812191D01*
X38207695Y10812191D01*
X38202677Y10811697D01*
X38200710Y10811947D01*
X38198163Y10811253D01*
X38188186Y10810270D01*
X38175895Y10805179D01*
X38163067Y10801680D01*
X38158028Y10797778D01*
X38152138Y10795338D01*
X38142732Y10785933D01*
X38132218Y10777790D01*
X38129055Y10772256D01*
X38124548Y10767748D01*
X38119459Y10755463D01*
X38112859Y10743913D01*
X38112055Y10737589D01*
X38109616Y10731700D01*
X38109616Y10718400D01*
X38107939Y10705206D01*
X38007695Y10705206D01*
X38007695Y11258031D01*
X38108480Y11258031D01*
X38109368Y11245524D01*
X38108480Y11233017D01*
X38110739Y11226239D01*
X38111246Y11219111D01*
X38116852Y11207899D01*
X38120818Y11196001D01*
X38125501Y11190602D01*
X38128696Y11184212D01*
X38138170Y11175995D01*
X38146384Y11166525D01*
X38152771Y11163332D01*
X38158172Y11158647D01*
X38176072Y11150656D01*
X38976072Y10883990D01*
X38995188Y10879643D01*
X39034108Y10882409D01*
X39069007Y10899859D01*
X39094572Y10929335D01*
X39106910Y10966351D01*
X39104144Y11005271D01*
X39086695Y11040170D01*
X39057218Y11065735D01*
X39039318Y11073726D01*
X38879123Y11127125D01*
X38879123Y11363925D01*
X39039318Y11417323D01*
X39057218Y11425314D01*
X39086694Y11450879D01*
X39104144Y11485778D01*
X39106910Y11524698D01*
X39094571Y11561714D01*
X39069006Y11591190D01*
X39034107Y11608640D01*
X38995187Y11611406D01*
X38976072Y11607059D01*
X38176072Y11340392D01*
X38158172Y11332401D01*
X38152772Y11327718D01*
X38146383Y11324523D01*
X38138165Y11315049D01*
X38128696Y11306835D01*
X38125502Y11300448D01*
X38120818Y11295047D01*
X38116852Y11283149D01*
X38111246Y11271937D01*
X38110739Y11264810D01*
X38108480Y11258031D01*
X38007695Y11258031D01*
X38007695Y12255509D01*
X38109616Y12255509D01*
X38109616Y12216491D01*
X38124548Y12180443D01*
X38152138Y12152853D01*
X38188186Y12137921D01*
X38207695Y12136000D01*
X38488647Y12136000D01*
X38488647Y11878857D01*
X38207695Y11878857D01*
X38188186Y11876936D01*
X38152138Y11862004D01*
X38124548Y11834414D01*
X38109616Y11798366D01*
X38109616Y11759348D01*
X38124548Y11723300D01*
X38152138Y11695710D01*
X38188186Y11680778D01*
X38207695Y11678857D01*
X39007695Y11678857D01*
X39027204Y11680778D01*
X39063252Y11695710D01*
X39090842Y11723300D01*
X39105774Y11759348D01*
X39105774Y11798366D01*
X39090842Y11834414D01*
X39063252Y11862004D01*
X39027204Y11876936D01*
X39007695Y11878857D01*
X38688647Y11878857D01*
X38688647Y12136000D01*
X39007695Y12136000D01*
X39027204Y12137921D01*
X39063252Y12152853D01*
X39090842Y12180443D01*
X39105774Y12216491D01*
X39105774Y12255509D01*
X39090842Y12291557D01*
X39063252Y12319147D01*
X39027204Y12334079D01*
X39007695Y12336000D01*
X38207695Y12336000D01*
X38188186Y12334079D01*
X38152138Y12319147D01*
X38124548Y12291557D01*
X38109616Y12255509D01*
X38007695Y12255509D01*
X38007695Y12436000D01*
X39207695Y12436000D01*
X39207695Y4797906D01*
G37*
X35737761Y35084067D02*
X35128238Y35084067D01*
X35432999Y34779305D02*
X35432999Y35388829D01*
X36874285Y60344305D02*
X36607618Y59544305D01*
X36607618Y59544305D02*
X36340952Y60344305D01*
X35807619Y59963353D02*
X35693333Y59925258D01*
X35693333Y59925258D02*
X35655238Y59887162D01*
X35655238Y59887162D02*
X35617142Y59810972D01*
X35617142Y59810972D02*
X35617142Y59696686D01*
X35617142Y59696686D02*
X35655238Y59620496D01*
X35655238Y59620496D02*
X35693333Y59582400D01*
X35693333Y59582400D02*
X35769523Y59544305D01*
X35769523Y59544305D02*
X36074285Y59544305D01*
X36074285Y59544305D02*
X36074285Y60344305D01*
X36074285Y60344305D02*
X35807619Y60344305D01*
X35807619Y60344305D02*
X35731428Y60306210D01*
X35731428Y60306210D02*
X35693333Y60268115D01*
X35693333Y60268115D02*
X35655238Y60191924D01*
X35655238Y60191924D02*
X35655238Y60115734D01*
X35655238Y60115734D02*
X35693333Y60039543D01*
X35693333Y60039543D02*
X35731428Y60001448D01*
X35731428Y60001448D02*
X35807619Y59963353D01*
X35807619Y59963353D02*
X36074285Y59963353D01*
X35312381Y59772877D02*
X34931428Y59772877D01*
X35388571Y59544305D02*
X35121904Y60344305D01*
X35121904Y60344305D02*
X34855238Y59544305D01*
X34702857Y60344305D02*
X34245714Y60344305D01*
X34474286Y59544305D02*
X34474286Y60344305D01*
X36169523Y55226210D02*
X36245713Y55264305D01*
X36245713Y55264305D02*
X36359999Y55264305D01*
X36359999Y55264305D02*
X36474285Y55226210D01*
X36474285Y55226210D02*
X36550475Y55150020D01*
X36550475Y55150020D02*
X36588570Y55073829D01*
X36588570Y55073829D02*
X36626666Y54921448D01*
X36626666Y54921448D02*
X36626666Y54807162D01*
X36626666Y54807162D02*
X36588570Y54654781D01*
X36588570Y54654781D02*
X36550475Y54578591D01*
X36550475Y54578591D02*
X36474285Y54502400D01*
X36474285Y54502400D02*
X36359999Y54464305D01*
X36359999Y54464305D02*
X36283808Y54464305D01*
X36283808Y54464305D02*
X36169523Y54502400D01*
X36169523Y54502400D02*
X36131427Y54540496D01*
X36131427Y54540496D02*
X36131427Y54807162D01*
X36131427Y54807162D02*
X36283808Y54807162D01*
X35788570Y54464305D02*
X35788570Y55264305D01*
X35788570Y55264305D02*
X35331427Y54464305D01*
X35331427Y54464305D02*
X35331427Y55264305D01*
X34950475Y54464305D02*
X34950475Y55264305D01*
X34950475Y55264305D02*
X34759999Y55264305D01*
X34759999Y55264305D02*
X34645713Y55226210D01*
X34645713Y55226210D02*
X34569523Y55150020D01*
X34569523Y55150020D02*
X34531428Y55073829D01*
X34531428Y55073829D02*
X34493332Y54921448D01*
X34493332Y54921448D02*
X34493332Y54807162D01*
X34493332Y54807162D02*
X34531428Y54654781D01*
X34531428Y54654781D02*
X34569523Y54578591D01*
X34569523Y54578591D02*
X34645713Y54502400D01*
X34645713Y54502400D02*
X34759999Y54464305D01*
X34759999Y54464305D02*
X34950475Y54464305D01*
D12*
X23644285Y21988105D02*
X23910952Y22369058D01*
X24101428Y21988105D02*
X24101428Y22788105D01*
X24101428Y22788105D02*
X23796666Y22788105D01*
X23796666Y22788105D02*
X23720476Y22750010D01*
X23720476Y22750010D02*
X23682381Y22711915D01*
X23682381Y22711915D02*
X23644285Y22635724D01*
X23644285Y22635724D02*
X23644285Y22521439D01*
X23644285Y22521439D02*
X23682381Y22445248D01*
X23682381Y22445248D02*
X23720476Y22407153D01*
X23720476Y22407153D02*
X23796666Y22369058D01*
X23796666Y22369058D02*
X24101428Y22369058D01*
X23377619Y22788105D02*
X22882381Y22788105D01*
X22882381Y22788105D02*
X23149047Y22483343D01*
X23149047Y22483343D02*
X23034762Y22483343D01*
X23034762Y22483343D02*
X22958571Y22445248D01*
X22958571Y22445248D02*
X22920476Y22407153D01*
X22920476Y22407153D02*
X22882381Y22330962D01*
X22882381Y22330962D02*
X22882381Y22140486D01*
X22882381Y22140486D02*
X22920476Y22064296D01*
X22920476Y22064296D02*
X22958571Y22026200D01*
X22958571Y22026200D02*
X23034762Y21988105D01*
X23034762Y21988105D02*
X23263333Y21988105D01*
X23263333Y21988105D02*
X23339524Y22026200D01*
X23339524Y22026200D02*
X23377619Y22064296D01*
X22425238Y22445248D02*
X22501428Y22483343D01*
X22501428Y22483343D02*
X22539523Y22521439D01*
X22539523Y22521439D02*
X22577619Y22597629D01*
X22577619Y22597629D02*
X22577619Y22635724D01*
X22577619Y22635724D02*
X22539523Y22711915D01*
X22539523Y22711915D02*
X22501428Y22750010D01*
X22501428Y22750010D02*
X22425238Y22788105D01*
X22425238Y22788105D02*
X22272857Y22788105D01*
X22272857Y22788105D02*
X22196666Y22750010D01*
X22196666Y22750010D02*
X22158571Y22711915D01*
X22158571Y22711915D02*
X22120476Y22635724D01*
X22120476Y22635724D02*
X22120476Y22597629D01*
X22120476Y22597629D02*
X22158571Y22521439D01*
X22158571Y22521439D02*
X22196666Y22483343D01*
X22196666Y22483343D02*
X22272857Y22445248D01*
X22272857Y22445248D02*
X22425238Y22445248D01*
X22425238Y22445248D02*
X22501428Y22407153D01*
X22501428Y22407153D02*
X22539523Y22369058D01*
X22539523Y22369058D02*
X22577619Y22292867D01*
X22577619Y22292867D02*
X22577619Y22140486D01*
X22577619Y22140486D02*
X22539523Y22064296D01*
X22539523Y22064296D02*
X22501428Y22026200D01*
X22501428Y22026200D02*
X22425238Y21988105D01*
X22425238Y21988105D02*
X22272857Y21988105D01*
X22272857Y21988105D02*
X22196666Y22026200D01*
X22196666Y22026200D02*
X22158571Y22064296D01*
X22158571Y22064296D02*
X22120476Y22140486D01*
X22120476Y22140486D02*
X22120476Y22292867D01*
X22120476Y22292867D02*
X22158571Y22369058D01*
X22158571Y22369058D02*
X22196666Y22407153D01*
X22196666Y22407153D02*
X22272857Y22445248D01*
X21088332Y37862105D02*
X21354999Y38243058D01*
X21545475Y37862105D02*
X21545475Y38662105D01*
X21545475Y38662105D02*
X21240713Y38662105D01*
X21240713Y38662105D02*
X21164523Y38624010D01*
X21164523Y38624010D02*
X21126428Y38585915D01*
X21126428Y38585915D02*
X21088332Y38509724D01*
X21088332Y38509724D02*
X21088332Y38395439D01*
X21088332Y38395439D02*
X21126428Y38319248D01*
X21126428Y38319248D02*
X21164523Y38281153D01*
X21164523Y38281153D02*
X21240713Y38243058D01*
X21240713Y38243058D02*
X21545475Y38243058D01*
X20821666Y38662105D02*
X20326428Y38662105D01*
X20326428Y38662105D02*
X20593094Y38357343D01*
X20593094Y38357343D02*
X20478809Y38357343D01*
X20478809Y38357343D02*
X20402618Y38319248D01*
X20402618Y38319248D02*
X20364523Y38281153D01*
X20364523Y38281153D02*
X20326428Y38204962D01*
X20326428Y38204962D02*
X20326428Y38014486D01*
X20326428Y38014486D02*
X20364523Y37938296D01*
X20364523Y37938296D02*
X20402618Y37900200D01*
X20402618Y37900200D02*
X20478809Y37862105D01*
X20478809Y37862105D02*
X20707380Y37862105D01*
X20707380Y37862105D02*
X20783571Y37900200D01*
X20783571Y37900200D02*
X20821666Y37938296D01*
X30242104Y42030715D02*
X30623057Y41764048D01*
X30242104Y41573572D02*
X31042104Y41573572D01*
X31042104Y41573572D02*
X31042104Y41878334D01*
X31042104Y41878334D02*
X31004009Y41954524D01*
X31004009Y41954524D02*
X30965914Y41992619D01*
X30965914Y41992619D02*
X30889723Y42030715D01*
X30889723Y42030715D02*
X30775438Y42030715D01*
X30775438Y42030715D02*
X30699247Y41992619D01*
X30699247Y41992619D02*
X30661152Y41954524D01*
X30661152Y41954524D02*
X30623057Y41878334D01*
X30623057Y41878334D02*
X30623057Y41573572D01*
X30242104Y42792619D02*
X30242104Y42335476D01*
X30242104Y42564048D02*
X31042104Y42564048D01*
X31042104Y42564048D02*
X30927819Y42487857D01*
X30927819Y42487857D02*
X30851628Y42411667D01*
X30851628Y42411667D02*
X30813533Y42335476D01*
X31042104Y43059286D02*
X31042104Y43554524D01*
X31042104Y43554524D02*
X30737342Y43287858D01*
X30737342Y43287858D02*
X30737342Y43402143D01*
X30737342Y43402143D02*
X30699247Y43478334D01*
X30699247Y43478334D02*
X30661152Y43516429D01*
X30661152Y43516429D02*
X30584961Y43554524D01*
X30584961Y43554524D02*
X30394485Y43554524D01*
X30394485Y43554524D02*
X30318295Y43516429D01*
X30318295Y43516429D02*
X30280200Y43478334D01*
X30280200Y43478334D02*
X30242104Y43402143D01*
X30242104Y43402143D02*
X30242104Y43173572D01*
X30242104Y43173572D02*
X30280200Y43097381D01*
X30280200Y43097381D02*
X30318295Y43059286D01*
X30943475Y33417105D02*
X30943475Y34217105D01*
X30943475Y34217105D02*
X30752999Y34217105D01*
X30752999Y34217105D02*
X30638713Y34179010D01*
X30638713Y34179010D02*
X30562523Y34102820D01*
X30562523Y34102820D02*
X30524428Y34026629D01*
X30524428Y34026629D02*
X30486332Y33874248D01*
X30486332Y33874248D02*
X30486332Y33759962D01*
X30486332Y33759962D02*
X30524428Y33607581D01*
X30524428Y33607581D02*
X30562523Y33531391D01*
X30562523Y33531391D02*
X30638713Y33455200D01*
X30638713Y33455200D02*
X30752999Y33417105D01*
X30752999Y33417105D02*
X30943475Y33417105D01*
X29724428Y33417105D02*
X30181571Y33417105D01*
X29952999Y33417105D02*
X29952999Y34217105D01*
X29952999Y34217105D02*
X30029190Y34102820D01*
X30029190Y34102820D02*
X30105380Y34026629D01*
X30105380Y34026629D02*
X30181571Y33988534D01*
X20707285Y22368105D02*
X20973952Y22749058D01*
X21164428Y22368105D02*
X21164428Y23168105D01*
X21164428Y23168105D02*
X20859666Y23168105D01*
X20859666Y23168105D02*
X20783476Y23130010D01*
X20783476Y23130010D02*
X20745381Y23091915D01*
X20745381Y23091915D02*
X20707285Y23015724D01*
X20707285Y23015724D02*
X20707285Y22901439D01*
X20707285Y22901439D02*
X20745381Y22825248D01*
X20745381Y22825248D02*
X20783476Y22787153D01*
X20783476Y22787153D02*
X20859666Y22749058D01*
X20859666Y22749058D02*
X21164428Y22749058D01*
X20021571Y22901439D02*
X20021571Y22368105D01*
X20212047Y23206200D02*
X20402524Y22634772D01*
X20402524Y22634772D02*
X19907285Y22634772D01*
X19640619Y23091915D02*
X19602523Y23130010D01*
X19602523Y23130010D02*
X19526333Y23168105D01*
X19526333Y23168105D02*
X19335857Y23168105D01*
X19335857Y23168105D02*
X19259666Y23130010D01*
X19259666Y23130010D02*
X19221571Y23091915D01*
X19221571Y23091915D02*
X19183476Y23015724D01*
X19183476Y23015724D02*
X19183476Y22939534D01*
X19183476Y22939534D02*
X19221571Y22825248D01*
X19221571Y22825248D02*
X19678714Y22368105D01*
X19678714Y22368105D02*
X19183476Y22368105D01*
X21723285Y14494105D02*
X21989952Y14875058D01*
X22180428Y14494105D02*
X22180428Y15294105D01*
X22180428Y15294105D02*
X21875666Y15294105D01*
X21875666Y15294105D02*
X21799476Y15256010D01*
X21799476Y15256010D02*
X21761381Y15217915D01*
X21761381Y15217915D02*
X21723285Y15141724D01*
X21723285Y15141724D02*
X21723285Y15027439D01*
X21723285Y15027439D02*
X21761381Y14951248D01*
X21761381Y14951248D02*
X21799476Y14913153D01*
X21799476Y14913153D02*
X21875666Y14875058D01*
X21875666Y14875058D02*
X22180428Y14875058D01*
X21037571Y15027439D02*
X21037571Y14494105D01*
X21228047Y15332200D02*
X21418524Y14760772D01*
X21418524Y14760772D02*
X20923285Y14760772D01*
X20466142Y15294105D02*
X20389952Y15294105D01*
X20389952Y15294105D02*
X20313761Y15256010D01*
X20313761Y15256010D02*
X20275666Y15217915D01*
X20275666Y15217915D02*
X20237571Y15141724D01*
X20237571Y15141724D02*
X20199476Y14989343D01*
X20199476Y14989343D02*
X20199476Y14798867D01*
X20199476Y14798867D02*
X20237571Y14646486D01*
X20237571Y14646486D02*
X20275666Y14570296D01*
X20275666Y14570296D02*
X20313761Y14532200D01*
X20313761Y14532200D02*
X20389952Y14494105D01*
X20389952Y14494105D02*
X20466142Y14494105D01*
X20466142Y14494105D02*
X20542333Y14532200D01*
X20542333Y14532200D02*
X20580428Y14570296D01*
X20580428Y14570296D02*
X20618523Y14646486D01*
X20618523Y14646486D02*
X20656619Y14798867D01*
X20656619Y14798867D02*
X20656619Y14989343D01*
X20656619Y14989343D02*
X20618523Y15141724D01*
X20618523Y15141724D02*
X20580428Y15217915D01*
X20580428Y15217915D02*
X20542333Y15256010D01*
X20542333Y15256010D02*
X20466142Y15294105D01*
X16332190Y43881915D02*
X16408380Y43920010D01*
X16408380Y43920010D02*
X16484571Y43996200D01*
X16484571Y43996200D02*
X16598857Y44110486D01*
X16598857Y44110486D02*
X16675047Y44148581D01*
X16675047Y44148581D02*
X16751238Y44148581D01*
X16713142Y43958105D02*
X16789333Y43996200D01*
X16789333Y43996200D02*
X16865523Y44072391D01*
X16865523Y44072391D02*
X16903619Y44224772D01*
X16903619Y44224772D02*
X16903619Y44491439D01*
X16903619Y44491439D02*
X16865523Y44643820D01*
X16865523Y44643820D02*
X16789333Y44720010D01*
X16789333Y44720010D02*
X16713142Y44758105D01*
X16713142Y44758105D02*
X16560761Y44758105D01*
X16560761Y44758105D02*
X16484571Y44720010D01*
X16484571Y44720010D02*
X16408380Y44643820D01*
X16408380Y44643820D02*
X16370285Y44491439D01*
X16370285Y44491439D02*
X16370285Y44224772D01*
X16370285Y44224772D02*
X16408380Y44072391D01*
X16408380Y44072391D02*
X16484571Y43996200D01*
X16484571Y43996200D02*
X16560761Y43958105D01*
X16560761Y43958105D02*
X16713142Y43958105D01*
X16103619Y44758105D02*
X15608381Y44758105D01*
X15608381Y44758105D02*
X15875047Y44453343D01*
X15875047Y44453343D02*
X15760762Y44453343D01*
X15760762Y44453343D02*
X15684571Y44415248D01*
X15684571Y44415248D02*
X15646476Y44377153D01*
X15646476Y44377153D02*
X15608381Y44300962D01*
X15608381Y44300962D02*
X15608381Y44110486D01*
X15608381Y44110486D02*
X15646476Y44034296D01*
X15646476Y44034296D02*
X15684571Y43996200D01*
X15684571Y43996200D02*
X15760762Y43958105D01*
X15760762Y43958105D02*
X15989333Y43958105D01*
X15989333Y43958105D02*
X16065524Y43996200D01*
X16065524Y43996200D02*
X16103619Y44034296D01*
X5858104Y64128715D02*
X6239057Y63862048D01*
X5858104Y63671572D02*
X6658104Y63671572D01*
X6658104Y63671572D02*
X6658104Y63976334D01*
X6658104Y63976334D02*
X6620009Y64052524D01*
X6620009Y64052524D02*
X6581914Y64090619D01*
X6581914Y64090619D02*
X6505723Y64128715D01*
X6505723Y64128715D02*
X6391438Y64128715D01*
X6391438Y64128715D02*
X6315247Y64090619D01*
X6315247Y64090619D02*
X6277152Y64052524D01*
X6277152Y64052524D02*
X6239057Y63976334D01*
X6239057Y63976334D02*
X6239057Y63671572D01*
X6658104Y64852524D02*
X6658104Y64471572D01*
X6658104Y64471572D02*
X6277152Y64433476D01*
X6277152Y64433476D02*
X6315247Y64471572D01*
X6315247Y64471572D02*
X6353342Y64547762D01*
X6353342Y64547762D02*
X6353342Y64738238D01*
X6353342Y64738238D02*
X6315247Y64814429D01*
X6315247Y64814429D02*
X6277152Y64852524D01*
X6277152Y64852524D02*
X6200961Y64890619D01*
X6200961Y64890619D02*
X6010485Y64890619D01*
X6010485Y64890619D02*
X5934295Y64852524D01*
X5934295Y64852524D02*
X5896200Y64814429D01*
X5896200Y64814429D02*
X5858104Y64738238D01*
X5858104Y64738238D02*
X5858104Y64547762D01*
X5858104Y64547762D02*
X5896200Y64471572D01*
X5896200Y64471572D02*
X5934295Y64433476D01*
X6658104Y65614429D02*
X6658104Y65233477D01*
X6658104Y65233477D02*
X6277152Y65195381D01*
X6277152Y65195381D02*
X6315247Y65233477D01*
X6315247Y65233477D02*
X6353342Y65309667D01*
X6353342Y65309667D02*
X6353342Y65500143D01*
X6353342Y65500143D02*
X6315247Y65576334D01*
X6315247Y65576334D02*
X6277152Y65614429D01*
X6277152Y65614429D02*
X6200961Y65652524D01*
X6200961Y65652524D02*
X6010485Y65652524D01*
X6010485Y65652524D02*
X5934295Y65614429D01*
X5934295Y65614429D02*
X5896200Y65576334D01*
X5896200Y65576334D02*
X5858104Y65500143D01*
X5858104Y65500143D02*
X5858104Y65309667D01*
X5858104Y65309667D02*
X5896200Y65233477D01*
X5896200Y65233477D02*
X5934295Y65195381D01*
X22713885Y32020105D02*
X22980552Y32401058D01*
X23171028Y32020105D02*
X23171028Y32820105D01*
X23171028Y32820105D02*
X22866266Y32820105D01*
X22866266Y32820105D02*
X22790076Y32782010D01*
X22790076Y32782010D02*
X22751981Y32743915D01*
X22751981Y32743915D02*
X22713885Y32667724D01*
X22713885Y32667724D02*
X22713885Y32553439D01*
X22713885Y32553439D02*
X22751981Y32477248D01*
X22751981Y32477248D02*
X22790076Y32439153D01*
X22790076Y32439153D02*
X22866266Y32401058D01*
X22866266Y32401058D02*
X23171028Y32401058D01*
X21951981Y32020105D02*
X22409124Y32020105D01*
X22180552Y32020105D02*
X22180552Y32820105D01*
X22180552Y32820105D02*
X22256743Y32705820D01*
X22256743Y32705820D02*
X22332933Y32629629D01*
X22332933Y32629629D02*
X22409124Y32591534D01*
X21456742Y32820105D02*
X21380552Y32820105D01*
X21380552Y32820105D02*
X21304361Y32782010D01*
X21304361Y32782010D02*
X21266266Y32743915D01*
X21266266Y32743915D02*
X21228171Y32667724D01*
X21228171Y32667724D02*
X21190076Y32515343D01*
X21190076Y32515343D02*
X21190076Y32324867D01*
X21190076Y32324867D02*
X21228171Y32172486D01*
X21228171Y32172486D02*
X21266266Y32096296D01*
X21266266Y32096296D02*
X21304361Y32058200D01*
X21304361Y32058200D02*
X21380552Y32020105D01*
X21380552Y32020105D02*
X21456742Y32020105D01*
X21456742Y32020105D02*
X21532933Y32058200D01*
X21532933Y32058200D02*
X21571028Y32096296D01*
X21571028Y32096296D02*
X21609123Y32172486D01*
X21609123Y32172486D02*
X21647219Y32324867D01*
X21647219Y32324867D02*
X21647219Y32515343D01*
X21647219Y32515343D02*
X21609123Y32667724D01*
X21609123Y32667724D02*
X21571028Y32743915D01*
X21571028Y32743915D02*
X21532933Y32782010D01*
X21532933Y32782010D02*
X21456742Y32820105D01*
X21723285Y9414105D02*
X21989952Y9795058D01*
X22180428Y9414105D02*
X22180428Y10214105D01*
X22180428Y10214105D02*
X21875666Y10214105D01*
X21875666Y10214105D02*
X21799476Y10176010D01*
X21799476Y10176010D02*
X21761381Y10137915D01*
X21761381Y10137915D02*
X21723285Y10061724D01*
X21723285Y10061724D02*
X21723285Y9947439D01*
X21723285Y9947439D02*
X21761381Y9871248D01*
X21761381Y9871248D02*
X21799476Y9833153D01*
X21799476Y9833153D02*
X21875666Y9795058D01*
X21875666Y9795058D02*
X22180428Y9795058D01*
X21456619Y10214105D02*
X20961381Y10214105D01*
X20961381Y10214105D02*
X21228047Y9909343D01*
X21228047Y9909343D02*
X21113762Y9909343D01*
X21113762Y9909343D02*
X21037571Y9871248D01*
X21037571Y9871248D02*
X20999476Y9833153D01*
X20999476Y9833153D02*
X20961381Y9756962D01*
X20961381Y9756962D02*
X20961381Y9566486D01*
X20961381Y9566486D02*
X20999476Y9490296D01*
X20999476Y9490296D02*
X21037571Y9452200D01*
X21037571Y9452200D02*
X21113762Y9414105D01*
X21113762Y9414105D02*
X21342333Y9414105D01*
X21342333Y9414105D02*
X21418524Y9452200D01*
X21418524Y9452200D02*
X21456619Y9490296D01*
X20580428Y9414105D02*
X20428047Y9414105D01*
X20428047Y9414105D02*
X20351857Y9452200D01*
X20351857Y9452200D02*
X20313761Y9490296D01*
X20313761Y9490296D02*
X20237571Y9604581D01*
X20237571Y9604581D02*
X20199476Y9756962D01*
X20199476Y9756962D02*
X20199476Y10061724D01*
X20199476Y10061724D02*
X20237571Y10137915D01*
X20237571Y10137915D02*
X20275666Y10176010D01*
X20275666Y10176010D02*
X20351857Y10214105D01*
X20351857Y10214105D02*
X20504238Y10214105D01*
X20504238Y10214105D02*
X20580428Y10176010D01*
X20580428Y10176010D02*
X20618523Y10137915D01*
X20618523Y10137915D02*
X20656619Y10061724D01*
X20656619Y10061724D02*
X20656619Y9871248D01*
X20656619Y9871248D02*
X20618523Y9795058D01*
X20618523Y9795058D02*
X20580428Y9756962D01*
X20580428Y9756962D02*
X20504238Y9718867D01*
X20504238Y9718867D02*
X20351857Y9718867D01*
X20351857Y9718867D02*
X20275666Y9756962D01*
X20275666Y9756962D02*
X20237571Y9795058D01*
X20237571Y9795058D02*
X20199476Y9871248D01*
X19259475Y27702105D02*
X19259475Y28502105D01*
X19259475Y28502105D02*
X19068999Y28502105D01*
X19068999Y28502105D02*
X18954713Y28464010D01*
X18954713Y28464010D02*
X18878523Y28387820D01*
X18878523Y28387820D02*
X18840428Y28311629D01*
X18840428Y28311629D02*
X18802332Y28159248D01*
X18802332Y28159248D02*
X18802332Y28044962D01*
X18802332Y28044962D02*
X18840428Y27892581D01*
X18840428Y27892581D02*
X18878523Y27816391D01*
X18878523Y27816391D02*
X18954713Y27740200D01*
X18954713Y27740200D02*
X19068999Y27702105D01*
X19068999Y27702105D02*
X19259475Y27702105D01*
X18535666Y28502105D02*
X18040428Y28502105D01*
X18040428Y28502105D02*
X18307094Y28197343D01*
X18307094Y28197343D02*
X18192809Y28197343D01*
X18192809Y28197343D02*
X18116618Y28159248D01*
X18116618Y28159248D02*
X18078523Y28121153D01*
X18078523Y28121153D02*
X18040428Y28044962D01*
X18040428Y28044962D02*
X18040428Y27854486D01*
X18040428Y27854486D02*
X18078523Y27778296D01*
X18078523Y27778296D02*
X18116618Y27740200D01*
X18116618Y27740200D02*
X18192809Y27702105D01*
X18192809Y27702105D02*
X18421380Y27702105D01*
X18421380Y27702105D02*
X18497571Y27740200D01*
X18497571Y27740200D02*
X18535666Y27778296D01*
X21723285Y17034105D02*
X21989952Y17415058D01*
X22180428Y17034105D02*
X22180428Y17834105D01*
X22180428Y17834105D02*
X21875666Y17834105D01*
X21875666Y17834105D02*
X21799476Y17796010D01*
X21799476Y17796010D02*
X21761381Y17757915D01*
X21761381Y17757915D02*
X21723285Y17681724D01*
X21723285Y17681724D02*
X21723285Y17567439D01*
X21723285Y17567439D02*
X21761381Y17491248D01*
X21761381Y17491248D02*
X21799476Y17453153D01*
X21799476Y17453153D02*
X21875666Y17415058D01*
X21875666Y17415058D02*
X22180428Y17415058D01*
X21037571Y17567439D02*
X21037571Y17034105D01*
X21228047Y17872200D02*
X21418524Y17300772D01*
X21418524Y17300772D02*
X20923285Y17300772D01*
X20275666Y17567439D02*
X20275666Y17034105D01*
X20466142Y17872200D02*
X20656619Y17300772D01*
X20656619Y17300772D02*
X20161380Y17300772D01*
X14230285Y42688105D02*
X14496952Y43069058D01*
X14687428Y42688105D02*
X14687428Y43488105D01*
X14687428Y43488105D02*
X14382666Y43488105D01*
X14382666Y43488105D02*
X14306476Y43450010D01*
X14306476Y43450010D02*
X14268381Y43411915D01*
X14268381Y43411915D02*
X14230285Y43335724D01*
X14230285Y43335724D02*
X14230285Y43221439D01*
X14230285Y43221439D02*
X14268381Y43145248D01*
X14268381Y43145248D02*
X14306476Y43107153D01*
X14306476Y43107153D02*
X14382666Y43069058D01*
X14382666Y43069058D02*
X14687428Y43069058D01*
X13963619Y43488105D02*
X13468381Y43488105D01*
X13468381Y43488105D02*
X13735047Y43183343D01*
X13735047Y43183343D02*
X13620762Y43183343D01*
X13620762Y43183343D02*
X13544571Y43145248D01*
X13544571Y43145248D02*
X13506476Y43107153D01*
X13506476Y43107153D02*
X13468381Y43030962D01*
X13468381Y43030962D02*
X13468381Y42840486D01*
X13468381Y42840486D02*
X13506476Y42764296D01*
X13506476Y42764296D02*
X13544571Y42726200D01*
X13544571Y42726200D02*
X13620762Y42688105D01*
X13620762Y42688105D02*
X13849333Y42688105D01*
X13849333Y42688105D02*
X13925524Y42726200D01*
X13925524Y42726200D02*
X13963619Y42764296D01*
X12706476Y42688105D02*
X13163619Y42688105D01*
X12935047Y42688105D02*
X12935047Y43488105D01*
X12935047Y43488105D02*
X13011238Y43373820D01*
X13011238Y43373820D02*
X13087428Y43297629D01*
X13087428Y43297629D02*
X13163619Y43259534D01*
X28079666Y12754105D02*
X28079666Y12182677D01*
X28079666Y12182677D02*
X28117761Y12068391D01*
X28117761Y12068391D02*
X28193952Y11992200D01*
X28193952Y11992200D02*
X28308237Y11954105D01*
X28308237Y11954105D02*
X28384428Y11954105D01*
X27355856Y12754105D02*
X27508237Y12754105D01*
X27508237Y12754105D02*
X27584428Y12716010D01*
X27584428Y12716010D02*
X27622523Y12677915D01*
X27622523Y12677915D02*
X27698713Y12563629D01*
X27698713Y12563629D02*
X27736809Y12411248D01*
X27736809Y12411248D02*
X27736809Y12106486D01*
X27736809Y12106486D02*
X27698713Y12030296D01*
X27698713Y12030296D02*
X27660618Y11992200D01*
X27660618Y11992200D02*
X27584428Y11954105D01*
X27584428Y11954105D02*
X27432047Y11954105D01*
X27432047Y11954105D02*
X27355856Y11992200D01*
X27355856Y11992200D02*
X27317761Y12030296D01*
X27317761Y12030296D02*
X27279666Y12106486D01*
X27279666Y12106486D02*
X27279666Y12296962D01*
X27279666Y12296962D02*
X27317761Y12373153D01*
X27317761Y12373153D02*
X27355856Y12411248D01*
X27355856Y12411248D02*
X27432047Y12449343D01*
X27432047Y12449343D02*
X27584428Y12449343D01*
X27584428Y12449343D02*
X27660618Y12411248D01*
X27660618Y12411248D02*
X27698713Y12373153D01*
X27698713Y12373153D02*
X27736809Y12296962D01*
X3699104Y64128715D02*
X4080057Y63862048D01*
X3699104Y63671572D02*
X4499104Y63671572D01*
X4499104Y63671572D02*
X4499104Y63976334D01*
X4499104Y63976334D02*
X4461009Y64052524D01*
X4461009Y64052524D02*
X4422914Y64090619D01*
X4422914Y64090619D02*
X4346723Y64128715D01*
X4346723Y64128715D02*
X4232438Y64128715D01*
X4232438Y64128715D02*
X4156247Y64090619D01*
X4156247Y64090619D02*
X4118152Y64052524D01*
X4118152Y64052524D02*
X4080057Y63976334D01*
X4080057Y63976334D02*
X4080057Y63671572D01*
X4499104Y64852524D02*
X4499104Y64471572D01*
X4499104Y64471572D02*
X4118152Y64433476D01*
X4118152Y64433476D02*
X4156247Y64471572D01*
X4156247Y64471572D02*
X4194342Y64547762D01*
X4194342Y64547762D02*
X4194342Y64738238D01*
X4194342Y64738238D02*
X4156247Y64814429D01*
X4156247Y64814429D02*
X4118152Y64852524D01*
X4118152Y64852524D02*
X4041961Y64890619D01*
X4041961Y64890619D02*
X3851485Y64890619D01*
X3851485Y64890619D02*
X3775295Y64852524D01*
X3775295Y64852524D02*
X3737200Y64814429D01*
X3737200Y64814429D02*
X3699104Y64738238D01*
X3699104Y64738238D02*
X3699104Y64547762D01*
X3699104Y64547762D02*
X3737200Y64471572D01*
X3737200Y64471572D02*
X3775295Y64433476D01*
X4499104Y65576334D02*
X4499104Y65423953D01*
X4499104Y65423953D02*
X4461009Y65347762D01*
X4461009Y65347762D02*
X4422914Y65309667D01*
X4422914Y65309667D02*
X4308628Y65233477D01*
X4308628Y65233477D02*
X4156247Y65195381D01*
X4156247Y65195381D02*
X3851485Y65195381D01*
X3851485Y65195381D02*
X3775295Y65233477D01*
X3775295Y65233477D02*
X3737200Y65271572D01*
X3737200Y65271572D02*
X3699104Y65347762D01*
X3699104Y65347762D02*
X3699104Y65500143D01*
X3699104Y65500143D02*
X3737200Y65576334D01*
X3737200Y65576334D02*
X3775295Y65614429D01*
X3775295Y65614429D02*
X3851485Y65652524D01*
X3851485Y65652524D02*
X4041961Y65652524D01*
X4041961Y65652524D02*
X4118152Y65614429D01*
X4118152Y65614429D02*
X4156247Y65576334D01*
X4156247Y65576334D02*
X4194342Y65500143D01*
X4194342Y65500143D02*
X4194342Y65347762D01*
X4194342Y65347762D02*
X4156247Y65271572D01*
X4156247Y65271572D02*
X4118152Y65233477D01*
X4118152Y65233477D02*
X4041961Y65195381D01*
X28083104Y39490668D02*
X28464057Y39224001D01*
X28083104Y39033525D02*
X28883104Y39033525D01*
X28883104Y39033525D02*
X28883104Y39338287D01*
X28883104Y39338287D02*
X28845009Y39414477D01*
X28845009Y39414477D02*
X28806914Y39452572D01*
X28806914Y39452572D02*
X28730723Y39490668D01*
X28730723Y39490668D02*
X28616438Y39490668D01*
X28616438Y39490668D02*
X28540247Y39452572D01*
X28540247Y39452572D02*
X28502152Y39414477D01*
X28502152Y39414477D02*
X28464057Y39338287D01*
X28464057Y39338287D02*
X28464057Y39033525D01*
X28883104Y40214477D02*
X28883104Y39833525D01*
X28883104Y39833525D02*
X28502152Y39795429D01*
X28502152Y39795429D02*
X28540247Y39833525D01*
X28540247Y39833525D02*
X28578342Y39909715D01*
X28578342Y39909715D02*
X28578342Y40100191D01*
X28578342Y40100191D02*
X28540247Y40176382D01*
X28540247Y40176382D02*
X28502152Y40214477D01*
X28502152Y40214477D02*
X28425961Y40252572D01*
X28425961Y40252572D02*
X28235485Y40252572D01*
X28235485Y40252572D02*
X28159295Y40214477D01*
X28159295Y40214477D02*
X28121200Y40176382D01*
X28121200Y40176382D02*
X28083104Y40100191D01*
X28083104Y40100191D02*
X28083104Y39909715D01*
X28083104Y39909715D02*
X28121200Y39833525D01*
X28121200Y39833525D02*
X28159295Y39795429D01*
X9795104Y35426715D02*
X10176057Y35160048D01*
X9795104Y34969572D02*
X10595104Y34969572D01*
X10595104Y34969572D02*
X10595104Y35274334D01*
X10595104Y35274334D02*
X10557009Y35350524D01*
X10557009Y35350524D02*
X10518914Y35388619D01*
X10518914Y35388619D02*
X10442723Y35426715D01*
X10442723Y35426715D02*
X10328438Y35426715D01*
X10328438Y35426715D02*
X10252247Y35388619D01*
X10252247Y35388619D02*
X10214152Y35350524D01*
X10214152Y35350524D02*
X10176057Y35274334D01*
X10176057Y35274334D02*
X10176057Y34969572D01*
X10328438Y36112429D02*
X9795104Y36112429D01*
X10633200Y35921953D02*
X10061771Y35731476D01*
X10061771Y35731476D02*
X10061771Y36226715D01*
X10595104Y36874334D02*
X10595104Y36721953D01*
X10595104Y36721953D02*
X10557009Y36645762D01*
X10557009Y36645762D02*
X10518914Y36607667D01*
X10518914Y36607667D02*
X10404628Y36531477D01*
X10404628Y36531477D02*
X10252247Y36493381D01*
X10252247Y36493381D02*
X9947485Y36493381D01*
X9947485Y36493381D02*
X9871295Y36531477D01*
X9871295Y36531477D02*
X9833200Y36569572D01*
X9833200Y36569572D02*
X9795104Y36645762D01*
X9795104Y36645762D02*
X9795104Y36798143D01*
X9795104Y36798143D02*
X9833200Y36874334D01*
X9833200Y36874334D02*
X9871295Y36912429D01*
X9871295Y36912429D02*
X9947485Y36950524D01*
X9947485Y36950524D02*
X10137961Y36950524D01*
X10137961Y36950524D02*
X10214152Y36912429D01*
X10214152Y36912429D02*
X10252247Y36874334D01*
X10252247Y36874334D02*
X10290342Y36798143D01*
X10290342Y36798143D02*
X10290342Y36645762D01*
X10290342Y36645762D02*
X10252247Y36569572D01*
X10252247Y36569572D02*
X10214152Y36531477D01*
X10214152Y36531477D02*
X10137961Y36493381D01*
X17364295Y33394668D02*
X17326200Y33356572D01*
X17326200Y33356572D02*
X17288104Y33242287D01*
X17288104Y33242287D02*
X17288104Y33166096D01*
X17288104Y33166096D02*
X17326200Y33051810D01*
X17326200Y33051810D02*
X17402390Y32975620D01*
X17402390Y32975620D02*
X17478580Y32937525D01*
X17478580Y32937525D02*
X17630961Y32899429D01*
X17630961Y32899429D02*
X17745247Y32899429D01*
X17745247Y32899429D02*
X17897628Y32937525D01*
X17897628Y32937525D02*
X17973819Y32975620D01*
X17973819Y32975620D02*
X18050009Y33051810D01*
X18050009Y33051810D02*
X18088104Y33166096D01*
X18088104Y33166096D02*
X18088104Y33242287D01*
X18088104Y33242287D02*
X18050009Y33356572D01*
X18050009Y33356572D02*
X18011914Y33394668D01*
X18088104Y34080382D02*
X18088104Y33928001D01*
X18088104Y33928001D02*
X18050009Y33851810D01*
X18050009Y33851810D02*
X18011914Y33813715D01*
X18011914Y33813715D02*
X17897628Y33737525D01*
X17897628Y33737525D02*
X17745247Y33699429D01*
X17745247Y33699429D02*
X17440485Y33699429D01*
X17440485Y33699429D02*
X17364295Y33737525D01*
X17364295Y33737525D02*
X17326200Y33775620D01*
X17326200Y33775620D02*
X17288104Y33851810D01*
X17288104Y33851810D02*
X17288104Y34004191D01*
X17288104Y34004191D02*
X17326200Y34080382D01*
X17326200Y34080382D02*
X17364295Y34118477D01*
X17364295Y34118477D02*
X17440485Y34156572D01*
X17440485Y34156572D02*
X17630961Y34156572D01*
X17630961Y34156572D02*
X17707152Y34118477D01*
X17707152Y34118477D02*
X17745247Y34080382D01*
X17745247Y34080382D02*
X17783342Y34004191D01*
X17783342Y34004191D02*
X17783342Y33851810D01*
X17783342Y33851810D02*
X17745247Y33775620D01*
X17745247Y33775620D02*
X17707152Y33737525D01*
X17707152Y33737525D02*
X17630961Y33699429D01*
X18939104Y39363715D02*
X19320057Y39097048D01*
X18939104Y38906572D02*
X19739104Y38906572D01*
X19739104Y38906572D02*
X19739104Y39211334D01*
X19739104Y39211334D02*
X19701009Y39287524D01*
X19701009Y39287524D02*
X19662914Y39325619D01*
X19662914Y39325619D02*
X19586723Y39363715D01*
X19586723Y39363715D02*
X19472438Y39363715D01*
X19472438Y39363715D02*
X19396247Y39325619D01*
X19396247Y39325619D02*
X19358152Y39287524D01*
X19358152Y39287524D02*
X19320057Y39211334D01*
X19320057Y39211334D02*
X19320057Y38906572D01*
X18939104Y40125619D02*
X18939104Y39668476D01*
X18939104Y39897048D02*
X19739104Y39897048D01*
X19739104Y39897048D02*
X19624819Y39820857D01*
X19624819Y39820857D02*
X19548628Y39744667D01*
X19548628Y39744667D02*
X19510533Y39668476D01*
X18939104Y40887524D02*
X18939104Y40430381D01*
X18939104Y40658953D02*
X19739104Y40658953D01*
X19739104Y40658953D02*
X19624819Y40582762D01*
X19624819Y40582762D02*
X19548628Y40506572D01*
X19548628Y40506572D02*
X19510533Y40430381D01*
X5721285Y56150105D02*
X5987952Y56531058D01*
X6178428Y56150105D02*
X6178428Y56950105D01*
X6178428Y56950105D02*
X5873666Y56950105D01*
X5873666Y56950105D02*
X5797476Y56912010D01*
X5797476Y56912010D02*
X5759381Y56873915D01*
X5759381Y56873915D02*
X5721285Y56797724D01*
X5721285Y56797724D02*
X5721285Y56683439D01*
X5721285Y56683439D02*
X5759381Y56607248D01*
X5759381Y56607248D02*
X5797476Y56569153D01*
X5797476Y56569153D02*
X5873666Y56531058D01*
X5873666Y56531058D02*
X6178428Y56531058D01*
X4959381Y56150105D02*
X5416524Y56150105D01*
X5187952Y56150105D02*
X5187952Y56950105D01*
X5187952Y56950105D02*
X5264143Y56835820D01*
X5264143Y56835820D02*
X5340333Y56759629D01*
X5340333Y56759629D02*
X5416524Y56721534D01*
X4502238Y56607248D02*
X4578428Y56645343D01*
X4578428Y56645343D02*
X4616523Y56683439D01*
X4616523Y56683439D02*
X4654619Y56759629D01*
X4654619Y56759629D02*
X4654619Y56797724D01*
X4654619Y56797724D02*
X4616523Y56873915D01*
X4616523Y56873915D02*
X4578428Y56912010D01*
X4578428Y56912010D02*
X4502238Y56950105D01*
X4502238Y56950105D02*
X4349857Y56950105D01*
X4349857Y56950105D02*
X4273666Y56912010D01*
X4273666Y56912010D02*
X4235571Y56873915D01*
X4235571Y56873915D02*
X4197476Y56797724D01*
X4197476Y56797724D02*
X4197476Y56759629D01*
X4197476Y56759629D02*
X4235571Y56683439D01*
X4235571Y56683439D02*
X4273666Y56645343D01*
X4273666Y56645343D02*
X4349857Y56607248D01*
X4349857Y56607248D02*
X4502238Y56607248D01*
X4502238Y56607248D02*
X4578428Y56569153D01*
X4578428Y56569153D02*
X4616523Y56531058D01*
X4616523Y56531058D02*
X4654619Y56454867D01*
X4654619Y56454867D02*
X4654619Y56302486D01*
X4654619Y56302486D02*
X4616523Y56226296D01*
X4616523Y56226296D02*
X4578428Y56188200D01*
X4578428Y56188200D02*
X4502238Y56150105D01*
X4502238Y56150105D02*
X4349857Y56150105D01*
X4349857Y56150105D02*
X4273666Y56188200D01*
X4273666Y56188200D02*
X4235571Y56226296D01*
X4235571Y56226296D02*
X4197476Y56302486D01*
X4197476Y56302486D02*
X4197476Y56454867D01*
X4197476Y56454867D02*
X4235571Y56531058D01*
X4235571Y56531058D02*
X4273666Y56569153D01*
X4273666Y56569153D02*
X4349857Y56607248D01*
X5858104Y32886715D02*
X6239057Y32620048D01*
X5858104Y32429572D02*
X6658104Y32429572D01*
X6658104Y32429572D02*
X6658104Y32734334D01*
X6658104Y32734334D02*
X6620009Y32810524D01*
X6620009Y32810524D02*
X6581914Y32848619D01*
X6581914Y32848619D02*
X6505723Y32886715D01*
X6505723Y32886715D02*
X6391438Y32886715D01*
X6391438Y32886715D02*
X6315247Y32848619D01*
X6315247Y32848619D02*
X6277152Y32810524D01*
X6277152Y32810524D02*
X6239057Y32734334D01*
X6239057Y32734334D02*
X6239057Y32429572D01*
X6391438Y33572429D02*
X5858104Y33572429D01*
X6696200Y33381953D02*
X6124771Y33191476D01*
X6124771Y33191476D02*
X6124771Y33686715D01*
X6658104Y33915286D02*
X6658104Y34448620D01*
X6658104Y34448620D02*
X5858104Y34105762D01*
X27321104Y28695715D02*
X27702057Y28429048D01*
X27321104Y28238572D02*
X28121104Y28238572D01*
X28121104Y28238572D02*
X28121104Y28543334D01*
X28121104Y28543334D02*
X28083009Y28619524D01*
X28083009Y28619524D02*
X28044914Y28657619D01*
X28044914Y28657619D02*
X27968723Y28695715D01*
X27968723Y28695715D02*
X27854438Y28695715D01*
X27854438Y28695715D02*
X27778247Y28657619D01*
X27778247Y28657619D02*
X27740152Y28619524D01*
X27740152Y28619524D02*
X27702057Y28543334D01*
X27702057Y28543334D02*
X27702057Y28238572D01*
X28121104Y28962381D02*
X28121104Y29457619D01*
X28121104Y29457619D02*
X27816342Y29190953D01*
X27816342Y29190953D02*
X27816342Y29305238D01*
X27816342Y29305238D02*
X27778247Y29381429D01*
X27778247Y29381429D02*
X27740152Y29419524D01*
X27740152Y29419524D02*
X27663961Y29457619D01*
X27663961Y29457619D02*
X27473485Y29457619D01*
X27473485Y29457619D02*
X27397295Y29419524D01*
X27397295Y29419524D02*
X27359200Y29381429D01*
X27359200Y29381429D02*
X27321104Y29305238D01*
X27321104Y29305238D02*
X27321104Y29076667D01*
X27321104Y29076667D02*
X27359200Y29000476D01*
X27359200Y29000476D02*
X27397295Y28962381D01*
X28121104Y30181429D02*
X28121104Y29800477D01*
X28121104Y29800477D02*
X27740152Y29762381D01*
X27740152Y29762381D02*
X27778247Y29800477D01*
X27778247Y29800477D02*
X27816342Y29876667D01*
X27816342Y29876667D02*
X27816342Y30067143D01*
X27816342Y30067143D02*
X27778247Y30143334D01*
X27778247Y30143334D02*
X27740152Y30181429D01*
X27740152Y30181429D02*
X27663961Y30219524D01*
X27663961Y30219524D02*
X27473485Y30219524D01*
X27473485Y30219524D02*
X27397295Y30181429D01*
X27397295Y30181429D02*
X27359200Y30143334D01*
X27359200Y30143334D02*
X27321104Y30067143D01*
X27321104Y30067143D02*
X27321104Y29876667D01*
X27321104Y29876667D02*
X27359200Y29800477D01*
X27359200Y29800477D02*
X27397295Y29762381D01*
X24263332Y36973105D02*
X24529999Y37354058D01*
X24720475Y36973105D02*
X24720475Y37773105D01*
X24720475Y37773105D02*
X24415713Y37773105D01*
X24415713Y37773105D02*
X24339523Y37735010D01*
X24339523Y37735010D02*
X24301428Y37696915D01*
X24301428Y37696915D02*
X24263332Y37620724D01*
X24263332Y37620724D02*
X24263332Y37506439D01*
X24263332Y37506439D02*
X24301428Y37430248D01*
X24301428Y37430248D02*
X24339523Y37392153D01*
X24339523Y37392153D02*
X24415713Y37354058D01*
X24415713Y37354058D02*
X24720475Y37354058D01*
X23577618Y37506439D02*
X23577618Y36973105D01*
X23768094Y37811200D02*
X23958571Y37239772D01*
X23958571Y37239772D02*
X23463332Y37239772D01*
X17913332Y22622105D02*
X18179999Y23003058D01*
X18370475Y22622105D02*
X18370475Y23422105D01*
X18370475Y23422105D02*
X18065713Y23422105D01*
X18065713Y23422105D02*
X17989523Y23384010D01*
X17989523Y23384010D02*
X17951428Y23345915D01*
X17951428Y23345915D02*
X17913332Y23269724D01*
X17913332Y23269724D02*
X17913332Y23155439D01*
X17913332Y23155439D02*
X17951428Y23079248D01*
X17951428Y23079248D02*
X17989523Y23041153D01*
X17989523Y23041153D02*
X18065713Y23003058D01*
X18065713Y23003058D02*
X18370475Y23003058D01*
X17608571Y23345915D02*
X17570475Y23384010D01*
X17570475Y23384010D02*
X17494285Y23422105D01*
X17494285Y23422105D02*
X17303809Y23422105D01*
X17303809Y23422105D02*
X17227618Y23384010D01*
X17227618Y23384010D02*
X17189523Y23345915D01*
X17189523Y23345915D02*
X17151428Y23269724D01*
X17151428Y23269724D02*
X17151428Y23193534D01*
X17151428Y23193534D02*
X17189523Y23079248D01*
X17189523Y23079248D02*
X17646666Y22622105D01*
X17646666Y22622105D02*
X17151428Y22622105D01*
X28968618Y77232105D02*
X28968618Y78032105D01*
X28968618Y78032105D02*
X28701952Y77460677D01*
X28701952Y77460677D02*
X28435285Y78032105D01*
X28435285Y78032105D02*
X28435285Y77232105D01*
X28092428Y77955915D02*
X28054332Y77994010D01*
X28054332Y77994010D02*
X27978142Y78032105D01*
X27978142Y78032105D02*
X27787666Y78032105D01*
X27787666Y78032105D02*
X27711475Y77994010D01*
X27711475Y77994010D02*
X27673380Y77955915D01*
X27673380Y77955915D02*
X27635285Y77879724D01*
X27635285Y77879724D02*
X27635285Y77803534D01*
X27635285Y77803534D02*
X27673380Y77689248D01*
X27673380Y77689248D02*
X28130523Y77232105D01*
X28130523Y77232105D02*
X27635285Y77232105D01*
X4578285Y46752105D02*
X4844952Y47133058D01*
X5035428Y46752105D02*
X5035428Y47552105D01*
X5035428Y47552105D02*
X4730666Y47552105D01*
X4730666Y47552105D02*
X4654476Y47514010D01*
X4654476Y47514010D02*
X4616381Y47475915D01*
X4616381Y47475915D02*
X4578285Y47399724D01*
X4578285Y47399724D02*
X4578285Y47285439D01*
X4578285Y47285439D02*
X4616381Y47209248D01*
X4616381Y47209248D02*
X4654476Y47171153D01*
X4654476Y47171153D02*
X4730666Y47133058D01*
X4730666Y47133058D02*
X5035428Y47133058D01*
X4273524Y47475915D02*
X4235428Y47514010D01*
X4235428Y47514010D02*
X4159238Y47552105D01*
X4159238Y47552105D02*
X3968762Y47552105D01*
X3968762Y47552105D02*
X3892571Y47514010D01*
X3892571Y47514010D02*
X3854476Y47475915D01*
X3854476Y47475915D02*
X3816381Y47399724D01*
X3816381Y47399724D02*
X3816381Y47323534D01*
X3816381Y47323534D02*
X3854476Y47209248D01*
X3854476Y47209248D02*
X4311619Y46752105D01*
X4311619Y46752105D02*
X3816381Y46752105D01*
X3130666Y47285439D02*
X3130666Y46752105D01*
X3321142Y47590200D02*
X3511619Y47018772D01*
X3511619Y47018772D02*
X3016380Y47018772D01*
X25873295Y36315668D02*
X25835200Y36277572D01*
X25835200Y36277572D02*
X25797104Y36163287D01*
X25797104Y36163287D02*
X25797104Y36087096D01*
X25797104Y36087096D02*
X25835200Y35972810D01*
X25835200Y35972810D02*
X25911390Y35896620D01*
X25911390Y35896620D02*
X25987580Y35858525D01*
X25987580Y35858525D02*
X26139961Y35820429D01*
X26139961Y35820429D02*
X26254247Y35820429D01*
X26254247Y35820429D02*
X26406628Y35858525D01*
X26406628Y35858525D02*
X26482819Y35896620D01*
X26482819Y35896620D02*
X26559009Y35972810D01*
X26559009Y35972810D02*
X26597104Y36087096D01*
X26597104Y36087096D02*
X26597104Y36163287D01*
X26597104Y36163287D02*
X26559009Y36277572D01*
X26559009Y36277572D02*
X26520914Y36315668D01*
X26520914Y36620429D02*
X26559009Y36658525D01*
X26559009Y36658525D02*
X26597104Y36734715D01*
X26597104Y36734715D02*
X26597104Y36925191D01*
X26597104Y36925191D02*
X26559009Y37001382D01*
X26559009Y37001382D02*
X26520914Y37039477D01*
X26520914Y37039477D02*
X26444723Y37077572D01*
X26444723Y37077572D02*
X26368533Y37077572D01*
X26368533Y37077572D02*
X26254247Y37039477D01*
X26254247Y37039477D02*
X25797104Y36582334D01*
X25797104Y36582334D02*
X25797104Y37077572D01*
X25279285Y3572105D02*
X25545952Y3953058D01*
X25736428Y3572105D02*
X25736428Y4372105D01*
X25736428Y4372105D02*
X25431666Y4372105D01*
X25431666Y4372105D02*
X25355476Y4334010D01*
X25355476Y4334010D02*
X25317381Y4295915D01*
X25317381Y4295915D02*
X25279285Y4219724D01*
X25279285Y4219724D02*
X25279285Y4105439D01*
X25279285Y4105439D02*
X25317381Y4029248D01*
X25317381Y4029248D02*
X25355476Y3991153D01*
X25355476Y3991153D02*
X25431666Y3953058D01*
X25431666Y3953058D02*
X25736428Y3953058D01*
X24593571Y4105439D02*
X24593571Y3572105D01*
X24784047Y4410200D02*
X24974524Y3838772D01*
X24974524Y3838772D02*
X24479285Y3838772D01*
X24060238Y4029248D02*
X24136428Y4067343D01*
X24136428Y4067343D02*
X24174523Y4105439D01*
X24174523Y4105439D02*
X24212619Y4181629D01*
X24212619Y4181629D02*
X24212619Y4219724D01*
X24212619Y4219724D02*
X24174523Y4295915D01*
X24174523Y4295915D02*
X24136428Y4334010D01*
X24136428Y4334010D02*
X24060238Y4372105D01*
X24060238Y4372105D02*
X23907857Y4372105D01*
X23907857Y4372105D02*
X23831666Y4334010D01*
X23831666Y4334010D02*
X23793571Y4295915D01*
X23793571Y4295915D02*
X23755476Y4219724D01*
X23755476Y4219724D02*
X23755476Y4181629D01*
X23755476Y4181629D02*
X23793571Y4105439D01*
X23793571Y4105439D02*
X23831666Y4067343D01*
X23831666Y4067343D02*
X23907857Y4029248D01*
X23907857Y4029248D02*
X24060238Y4029248D01*
X24060238Y4029248D02*
X24136428Y3991153D01*
X24136428Y3991153D02*
X24174523Y3953058D01*
X24174523Y3953058D02*
X24212619Y3876867D01*
X24212619Y3876867D02*
X24212619Y3724486D01*
X24212619Y3724486D02*
X24174523Y3648296D01*
X24174523Y3648296D02*
X24136428Y3610200D01*
X24136428Y3610200D02*
X24060238Y3572105D01*
X24060238Y3572105D02*
X23907857Y3572105D01*
X23907857Y3572105D02*
X23831666Y3610200D01*
X23831666Y3610200D02*
X23793571Y3648296D01*
X23793571Y3648296D02*
X23755476Y3724486D01*
X23755476Y3724486D02*
X23755476Y3876867D01*
X23755476Y3876867D02*
X23793571Y3953058D01*
X23793571Y3953058D02*
X23831666Y3991153D01*
X23831666Y3991153D02*
X23907857Y4029248D01*
X7382104Y55873715D02*
X7763057Y55607048D01*
X7382104Y55416572D02*
X8182104Y55416572D01*
X8182104Y55416572D02*
X8182104Y55721334D01*
X8182104Y55721334D02*
X8144009Y55797524D01*
X8144009Y55797524D02*
X8105914Y55835619D01*
X8105914Y55835619D02*
X8029723Y55873715D01*
X8029723Y55873715D02*
X7915438Y55873715D01*
X7915438Y55873715D02*
X7839247Y55835619D01*
X7839247Y55835619D02*
X7801152Y55797524D01*
X7801152Y55797524D02*
X7763057Y55721334D01*
X7763057Y55721334D02*
X7763057Y55416572D01*
X8105914Y56178476D02*
X8144009Y56216572D01*
X8144009Y56216572D02*
X8182104Y56292762D01*
X8182104Y56292762D02*
X8182104Y56483238D01*
X8182104Y56483238D02*
X8144009Y56559429D01*
X8144009Y56559429D02*
X8105914Y56597524D01*
X8105914Y56597524D02*
X8029723Y56635619D01*
X8029723Y56635619D02*
X7953533Y56635619D01*
X7953533Y56635619D02*
X7839247Y56597524D01*
X7839247Y56597524D02*
X7382104Y56140381D01*
X7382104Y56140381D02*
X7382104Y56635619D01*
X8182104Y56902286D02*
X8182104Y57397524D01*
X8182104Y57397524D02*
X7877342Y57130858D01*
X7877342Y57130858D02*
X7877342Y57245143D01*
X7877342Y57245143D02*
X7839247Y57321334D01*
X7839247Y57321334D02*
X7801152Y57359429D01*
X7801152Y57359429D02*
X7724961Y57397524D01*
X7724961Y57397524D02*
X7534485Y57397524D01*
X7534485Y57397524D02*
X7458295Y57359429D01*
X7458295Y57359429D02*
X7420200Y57321334D01*
X7420200Y57321334D02*
X7382104Y57245143D01*
X7382104Y57245143D02*
X7382104Y57016572D01*
X7382104Y57016572D02*
X7420200Y56940381D01*
X7420200Y56940381D02*
X7458295Y56902286D01*
X21723285Y11954105D02*
X21989952Y12335058D01*
X22180428Y11954105D02*
X22180428Y12754105D01*
X22180428Y12754105D02*
X21875666Y12754105D01*
X21875666Y12754105D02*
X21799476Y12716010D01*
X21799476Y12716010D02*
X21761381Y12677915D01*
X21761381Y12677915D02*
X21723285Y12601724D01*
X21723285Y12601724D02*
X21723285Y12487439D01*
X21723285Y12487439D02*
X21761381Y12411248D01*
X21761381Y12411248D02*
X21799476Y12373153D01*
X21799476Y12373153D02*
X21875666Y12335058D01*
X21875666Y12335058D02*
X22180428Y12335058D01*
X21037571Y12487439D02*
X21037571Y11954105D01*
X21228047Y12792200D02*
X21418524Y12220772D01*
X21418524Y12220772D02*
X20923285Y12220772D01*
X20694714Y12754105D02*
X20199476Y12754105D01*
X20199476Y12754105D02*
X20466142Y12449343D01*
X20466142Y12449343D02*
X20351857Y12449343D01*
X20351857Y12449343D02*
X20275666Y12411248D01*
X20275666Y12411248D02*
X20237571Y12373153D01*
X20237571Y12373153D02*
X20199476Y12296962D01*
X20199476Y12296962D02*
X20199476Y12106486D01*
X20199476Y12106486D02*
X20237571Y12030296D01*
X20237571Y12030296D02*
X20275666Y11992200D01*
X20275666Y11992200D02*
X20351857Y11954105D01*
X20351857Y11954105D02*
X20580428Y11954105D01*
X20580428Y11954105D02*
X20656619Y11992200D01*
X20656619Y11992200D02*
X20694714Y12030296D01*
X9137523Y43739105D02*
X8680380Y43739105D01*
X8908952Y42939105D02*
X8908952Y43739105D01*
X8413713Y42939105D02*
X8413713Y43739105D01*
X8413713Y43739105D02*
X8108951Y43739105D01*
X8108951Y43739105D02*
X8032761Y43701010D01*
X8032761Y43701010D02*
X7994666Y43662915D01*
X7994666Y43662915D02*
X7956570Y43586724D01*
X7956570Y43586724D02*
X7956570Y43472439D01*
X7956570Y43472439D02*
X7994666Y43396248D01*
X7994666Y43396248D02*
X8032761Y43358153D01*
X8032761Y43358153D02*
X8108951Y43320058D01*
X8108951Y43320058D02*
X8413713Y43320058D01*
X7651809Y43662915D02*
X7613713Y43701010D01*
X7613713Y43701010D02*
X7537523Y43739105D01*
X7537523Y43739105D02*
X7347047Y43739105D01*
X7347047Y43739105D02*
X7270856Y43701010D01*
X7270856Y43701010D02*
X7232761Y43662915D01*
X7232761Y43662915D02*
X7194666Y43586724D01*
X7194666Y43586724D02*
X7194666Y43510534D01*
X7194666Y43510534D02*
X7232761Y43396248D01*
X7232761Y43396248D02*
X7689904Y42939105D01*
X7689904Y42939105D02*
X7194666Y42939105D01*
X4435285Y44720105D02*
X4701952Y45101058D01*
X4892428Y44720105D02*
X4892428Y45520105D01*
X4892428Y45520105D02*
X4587666Y45520105D01*
X4587666Y45520105D02*
X4511476Y45482010D01*
X4511476Y45482010D02*
X4473381Y45443915D01*
X4473381Y45443915D02*
X4435285Y45367724D01*
X4435285Y45367724D02*
X4435285Y45253439D01*
X4435285Y45253439D02*
X4473381Y45177248D01*
X4473381Y45177248D02*
X4511476Y45139153D01*
X4511476Y45139153D02*
X4587666Y45101058D01*
X4587666Y45101058D02*
X4892428Y45101058D01*
X3673381Y44720105D02*
X4130524Y44720105D01*
X3901952Y44720105D02*
X3901952Y45520105D01*
X3901952Y45520105D02*
X3978143Y45405820D01*
X3978143Y45405820D02*
X4054333Y45329629D01*
X4054333Y45329629D02*
X4130524Y45291534D01*
X2987666Y45520105D02*
X3140047Y45520105D01*
X3140047Y45520105D02*
X3216238Y45482010D01*
X3216238Y45482010D02*
X3254333Y45443915D01*
X3254333Y45443915D02*
X3330523Y45329629D01*
X3330523Y45329629D02*
X3368619Y45177248D01*
X3368619Y45177248D02*
X3368619Y44872486D01*
X3368619Y44872486D02*
X3330523Y44796296D01*
X3330523Y44796296D02*
X3292428Y44758200D01*
X3292428Y44758200D02*
X3216238Y44720105D01*
X3216238Y44720105D02*
X3063857Y44720105D01*
X3063857Y44720105D02*
X2987666Y44758200D01*
X2987666Y44758200D02*
X2949571Y44796296D01*
X2949571Y44796296D02*
X2911476Y44872486D01*
X2911476Y44872486D02*
X2911476Y45062962D01*
X2911476Y45062962D02*
X2949571Y45139153D01*
X2949571Y45139153D02*
X2987666Y45177248D01*
X2987666Y45177248D02*
X3063857Y45215343D01*
X3063857Y45215343D02*
X3216238Y45215343D01*
X3216238Y45215343D02*
X3292428Y45177248D01*
X3292428Y45177248D02*
X3330523Y45139153D01*
X3330523Y45139153D02*
X3368619Y45062962D01*
X28464104Y28695715D02*
X28845057Y28429048D01*
X28464104Y28238572D02*
X29264104Y28238572D01*
X29264104Y28238572D02*
X29264104Y28543334D01*
X29264104Y28543334D02*
X29226009Y28619524D01*
X29226009Y28619524D02*
X29187914Y28657619D01*
X29187914Y28657619D02*
X29111723Y28695715D01*
X29111723Y28695715D02*
X28997438Y28695715D01*
X28997438Y28695715D02*
X28921247Y28657619D01*
X28921247Y28657619D02*
X28883152Y28619524D01*
X28883152Y28619524D02*
X28845057Y28543334D01*
X28845057Y28543334D02*
X28845057Y28238572D01*
X29264104Y28962381D02*
X29264104Y29457619D01*
X29264104Y29457619D02*
X28959342Y29190953D01*
X28959342Y29190953D02*
X28959342Y29305238D01*
X28959342Y29305238D02*
X28921247Y29381429D01*
X28921247Y29381429D02*
X28883152Y29419524D01*
X28883152Y29419524D02*
X28806961Y29457619D01*
X28806961Y29457619D02*
X28616485Y29457619D01*
X28616485Y29457619D02*
X28540295Y29419524D01*
X28540295Y29419524D02*
X28502200Y29381429D01*
X28502200Y29381429D02*
X28464104Y29305238D01*
X28464104Y29305238D02*
X28464104Y29076667D01*
X28464104Y29076667D02*
X28502200Y29000476D01*
X28502200Y29000476D02*
X28540295Y28962381D01*
X28997438Y30143334D02*
X28464104Y30143334D01*
X29302200Y29952858D02*
X28730771Y29762381D01*
X28730771Y29762381D02*
X28730771Y30257620D01*
X16145104Y39236715D02*
X16526057Y38970048D01*
X16145104Y38779572D02*
X16945104Y38779572D01*
X16945104Y38779572D02*
X16945104Y39084334D01*
X16945104Y39084334D02*
X16907009Y39160524D01*
X16907009Y39160524D02*
X16868914Y39198619D01*
X16868914Y39198619D02*
X16792723Y39236715D01*
X16792723Y39236715D02*
X16678438Y39236715D01*
X16678438Y39236715D02*
X16602247Y39198619D01*
X16602247Y39198619D02*
X16564152Y39160524D01*
X16564152Y39160524D02*
X16526057Y39084334D01*
X16526057Y39084334D02*
X16526057Y38779572D01*
X16945104Y39503381D02*
X16945104Y39998619D01*
X16945104Y39998619D02*
X16640342Y39731953D01*
X16640342Y39731953D02*
X16640342Y39846238D01*
X16640342Y39846238D02*
X16602247Y39922429D01*
X16602247Y39922429D02*
X16564152Y39960524D01*
X16564152Y39960524D02*
X16487961Y39998619D01*
X16487961Y39998619D02*
X16297485Y39998619D01*
X16297485Y39998619D02*
X16221295Y39960524D01*
X16221295Y39960524D02*
X16183200Y39922429D01*
X16183200Y39922429D02*
X16145104Y39846238D01*
X16145104Y39846238D02*
X16145104Y39617667D01*
X16145104Y39617667D02*
X16183200Y39541476D01*
X16183200Y39541476D02*
X16221295Y39503381D01*
X16868914Y40303381D02*
X16907009Y40341477D01*
X16907009Y40341477D02*
X16945104Y40417667D01*
X16945104Y40417667D02*
X16945104Y40608143D01*
X16945104Y40608143D02*
X16907009Y40684334D01*
X16907009Y40684334D02*
X16868914Y40722429D01*
X16868914Y40722429D02*
X16792723Y40760524D01*
X16792723Y40760524D02*
X16716533Y40760524D01*
X16716533Y40760524D02*
X16602247Y40722429D01*
X16602247Y40722429D02*
X16145104Y40265286D01*
X16145104Y40265286D02*
X16145104Y40760524D01*
X25279285Y4715105D02*
X25545952Y5096058D01*
X25736428Y4715105D02*
X25736428Y5515105D01*
X25736428Y5515105D02*
X25431666Y5515105D01*
X25431666Y5515105D02*
X25355476Y5477010D01*
X25355476Y5477010D02*
X25317381Y5438915D01*
X25317381Y5438915D02*
X25279285Y5362724D01*
X25279285Y5362724D02*
X25279285Y5248439D01*
X25279285Y5248439D02*
X25317381Y5172248D01*
X25317381Y5172248D02*
X25355476Y5134153D01*
X25355476Y5134153D02*
X25431666Y5096058D01*
X25431666Y5096058D02*
X25736428Y5096058D01*
X24593571Y5248439D02*
X24593571Y4715105D01*
X24784047Y5553200D02*
X24974524Y4981772D01*
X24974524Y4981772D02*
X24479285Y4981772D01*
X24136428Y4715105D02*
X23984047Y4715105D01*
X23984047Y4715105D02*
X23907857Y4753200D01*
X23907857Y4753200D02*
X23869761Y4791296D01*
X23869761Y4791296D02*
X23793571Y4905581D01*
X23793571Y4905581D02*
X23755476Y5057962D01*
X23755476Y5057962D02*
X23755476Y5362724D01*
X23755476Y5362724D02*
X23793571Y5438915D01*
X23793571Y5438915D02*
X23831666Y5477010D01*
X23831666Y5477010D02*
X23907857Y5515105D01*
X23907857Y5515105D02*
X24060238Y5515105D01*
X24060238Y5515105D02*
X24136428Y5477010D01*
X24136428Y5477010D02*
X24174523Y5438915D01*
X24174523Y5438915D02*
X24212619Y5362724D01*
X24212619Y5362724D02*
X24212619Y5172248D01*
X24212619Y5172248D02*
X24174523Y5096058D01*
X24174523Y5096058D02*
X24136428Y5057962D01*
X24136428Y5057962D02*
X24060238Y5019867D01*
X24060238Y5019867D02*
X23907857Y5019867D01*
X23907857Y5019867D02*
X23831666Y5057962D01*
X23831666Y5057962D02*
X23793571Y5096058D01*
X23793571Y5096058D02*
X23755476Y5172248D01*
X29734104Y28695715D02*
X30115057Y28429048D01*
X29734104Y28238572D02*
X30534104Y28238572D01*
X30534104Y28238572D02*
X30534104Y28543334D01*
X30534104Y28543334D02*
X30496009Y28619524D01*
X30496009Y28619524D02*
X30457914Y28657619D01*
X30457914Y28657619D02*
X30381723Y28695715D01*
X30381723Y28695715D02*
X30267438Y28695715D01*
X30267438Y28695715D02*
X30191247Y28657619D01*
X30191247Y28657619D02*
X30153152Y28619524D01*
X30153152Y28619524D02*
X30115057Y28543334D01*
X30115057Y28543334D02*
X30115057Y28238572D01*
X30534104Y28962381D02*
X30534104Y29457619D01*
X30534104Y29457619D02*
X30229342Y29190953D01*
X30229342Y29190953D02*
X30229342Y29305238D01*
X30229342Y29305238D02*
X30191247Y29381429D01*
X30191247Y29381429D02*
X30153152Y29419524D01*
X30153152Y29419524D02*
X30076961Y29457619D01*
X30076961Y29457619D02*
X29886485Y29457619D01*
X29886485Y29457619D02*
X29810295Y29419524D01*
X29810295Y29419524D02*
X29772200Y29381429D01*
X29772200Y29381429D02*
X29734104Y29305238D01*
X29734104Y29305238D02*
X29734104Y29076667D01*
X29734104Y29076667D02*
X29772200Y29000476D01*
X29772200Y29000476D02*
X29810295Y28962381D01*
X30534104Y29724286D02*
X30534104Y30219524D01*
X30534104Y30219524D02*
X30229342Y29952858D01*
X30229342Y29952858D02*
X30229342Y30067143D01*
X30229342Y30067143D02*
X30191247Y30143334D01*
X30191247Y30143334D02*
X30153152Y30181429D01*
X30153152Y30181429D02*
X30076961Y30219524D01*
X30076961Y30219524D02*
X29886485Y30219524D01*
X29886485Y30219524D02*
X29810295Y30181429D01*
X29810295Y30181429D02*
X29772200Y30143334D01*
X29772200Y30143334D02*
X29734104Y30067143D01*
X29734104Y30067143D02*
X29734104Y29838572D01*
X29734104Y29838572D02*
X29772200Y29762381D01*
X29772200Y29762381D02*
X29810295Y29724286D01*
X28206666Y26470105D02*
X28206666Y25898677D01*
X28206666Y25898677D02*
X28244761Y25784391D01*
X28244761Y25784391D02*
X28320952Y25708200D01*
X28320952Y25708200D02*
X28435237Y25670105D01*
X28435237Y25670105D02*
X28511428Y25670105D01*
X27444761Y26470105D02*
X27825713Y26470105D01*
X27825713Y26470105D02*
X27863809Y26089153D01*
X27863809Y26089153D02*
X27825713Y26127248D01*
X27825713Y26127248D02*
X27749523Y26165343D01*
X27749523Y26165343D02*
X27559047Y26165343D01*
X27559047Y26165343D02*
X27482856Y26127248D01*
X27482856Y26127248D02*
X27444761Y26089153D01*
X27444761Y26089153D02*
X27406666Y26012962D01*
X27406666Y26012962D02*
X27406666Y25822486D01*
X27406666Y25822486D02*
X27444761Y25746296D01*
X27444761Y25746296D02*
X27482856Y25708200D01*
X27482856Y25708200D02*
X27559047Y25670105D01*
X27559047Y25670105D02*
X27749523Y25670105D01*
X27749523Y25670105D02*
X27825713Y25708200D01*
X27825713Y25708200D02*
X27863809Y25746296D01*
X5721285Y55007105D02*
X5987952Y55388058D01*
X6178428Y55007105D02*
X6178428Y55807105D01*
X6178428Y55807105D02*
X5873666Y55807105D01*
X5873666Y55807105D02*
X5797476Y55769010D01*
X5797476Y55769010D02*
X5759381Y55730915D01*
X5759381Y55730915D02*
X5721285Y55654724D01*
X5721285Y55654724D02*
X5721285Y55540439D01*
X5721285Y55540439D02*
X5759381Y55464248D01*
X5759381Y55464248D02*
X5797476Y55426153D01*
X5797476Y55426153D02*
X5873666Y55388058D01*
X5873666Y55388058D02*
X6178428Y55388058D01*
X4959381Y55007105D02*
X5416524Y55007105D01*
X5187952Y55007105D02*
X5187952Y55807105D01*
X5187952Y55807105D02*
X5264143Y55692820D01*
X5264143Y55692820D02*
X5340333Y55616629D01*
X5340333Y55616629D02*
X5416524Y55578534D01*
X4578428Y55007105D02*
X4426047Y55007105D01*
X4426047Y55007105D02*
X4349857Y55045200D01*
X4349857Y55045200D02*
X4311761Y55083296D01*
X4311761Y55083296D02*
X4235571Y55197581D01*
X4235571Y55197581D02*
X4197476Y55349962D01*
X4197476Y55349962D02*
X4197476Y55654724D01*
X4197476Y55654724D02*
X4235571Y55730915D01*
X4235571Y55730915D02*
X4273666Y55769010D01*
X4273666Y55769010D02*
X4349857Y55807105D01*
X4349857Y55807105D02*
X4502238Y55807105D01*
X4502238Y55807105D02*
X4578428Y55769010D01*
X4578428Y55769010D02*
X4616523Y55730915D01*
X4616523Y55730915D02*
X4654619Y55654724D01*
X4654619Y55654724D02*
X4654619Y55464248D01*
X4654619Y55464248D02*
X4616523Y55388058D01*
X4616523Y55388058D02*
X4578428Y55349962D01*
X4578428Y55349962D02*
X4502238Y55311867D01*
X4502238Y55311867D02*
X4349857Y55311867D01*
X4349857Y55311867D02*
X4273666Y55349962D01*
X4273666Y55349962D02*
X4235571Y55388058D01*
X4235571Y55388058D02*
X4197476Y55464248D01*
X21723285Y19574105D02*
X21989952Y19955058D01*
X22180428Y19574105D02*
X22180428Y20374105D01*
X22180428Y20374105D02*
X21875666Y20374105D01*
X21875666Y20374105D02*
X21799476Y20336010D01*
X21799476Y20336010D02*
X21761381Y20297915D01*
X21761381Y20297915D02*
X21723285Y20221724D01*
X21723285Y20221724D02*
X21723285Y20107439D01*
X21723285Y20107439D02*
X21761381Y20031248D01*
X21761381Y20031248D02*
X21799476Y19993153D01*
X21799476Y19993153D02*
X21875666Y19955058D01*
X21875666Y19955058D02*
X22180428Y19955058D01*
X21037571Y20107439D02*
X21037571Y19574105D01*
X21228047Y20412200D02*
X21418524Y19840772D01*
X21418524Y19840772D02*
X20923285Y19840772D01*
X20199476Y19574105D02*
X20656619Y19574105D01*
X20428047Y19574105D02*
X20428047Y20374105D01*
X20428047Y20374105D02*
X20504238Y20259820D01*
X20504238Y20259820D02*
X20580428Y20183629D01*
X20580428Y20183629D02*
X20656619Y20145534D01*
X17618295Y36569668D02*
X17580200Y36531572D01*
X17580200Y36531572D02*
X17542104Y36417287D01*
X17542104Y36417287D02*
X17542104Y36341096D01*
X17542104Y36341096D02*
X17580200Y36226810D01*
X17580200Y36226810D02*
X17656390Y36150620D01*
X17656390Y36150620D02*
X17732580Y36112525D01*
X17732580Y36112525D02*
X17884961Y36074429D01*
X17884961Y36074429D02*
X17999247Y36074429D01*
X17999247Y36074429D02*
X18151628Y36112525D01*
X18151628Y36112525D02*
X18227819Y36150620D01*
X18227819Y36150620D02*
X18304009Y36226810D01*
X18304009Y36226810D02*
X18342104Y36341096D01*
X18342104Y36341096D02*
X18342104Y36417287D01*
X18342104Y36417287D02*
X18304009Y36531572D01*
X18304009Y36531572D02*
X18265914Y36569668D01*
X18342104Y37293477D02*
X18342104Y36912525D01*
X18342104Y36912525D02*
X17961152Y36874429D01*
X17961152Y36874429D02*
X17999247Y36912525D01*
X17999247Y36912525D02*
X18037342Y36988715D01*
X18037342Y36988715D02*
X18037342Y37179191D01*
X18037342Y37179191D02*
X17999247Y37255382D01*
X17999247Y37255382D02*
X17961152Y37293477D01*
X17961152Y37293477D02*
X17884961Y37331572D01*
X17884961Y37331572D02*
X17694485Y37331572D01*
X17694485Y37331572D02*
X17618295Y37293477D01*
X17618295Y37293477D02*
X17580200Y37255382D01*
X17580200Y37255382D02*
X17542104Y37179191D01*
X17542104Y37179191D02*
X17542104Y36988715D01*
X17542104Y36988715D02*
X17580200Y36912525D01*
X17580200Y36912525D02*
X17618295Y36874429D01*
X5721285Y57293105D02*
X5987952Y57674058D01*
X6178428Y57293105D02*
X6178428Y58093105D01*
X6178428Y58093105D02*
X5873666Y58093105D01*
X5873666Y58093105D02*
X5797476Y58055010D01*
X5797476Y58055010D02*
X5759381Y58016915D01*
X5759381Y58016915D02*
X5721285Y57940724D01*
X5721285Y57940724D02*
X5721285Y57826439D01*
X5721285Y57826439D02*
X5759381Y57750248D01*
X5759381Y57750248D02*
X5797476Y57712153D01*
X5797476Y57712153D02*
X5873666Y57674058D01*
X5873666Y57674058D02*
X6178428Y57674058D01*
X4959381Y57293105D02*
X5416524Y57293105D01*
X5187952Y57293105D02*
X5187952Y58093105D01*
X5187952Y58093105D02*
X5264143Y57978820D01*
X5264143Y57978820D02*
X5340333Y57902629D01*
X5340333Y57902629D02*
X5416524Y57864534D01*
X4692714Y58093105D02*
X4159380Y58093105D01*
X4159380Y58093105D02*
X4502238Y57293105D01*
X8017104Y64128715D02*
X8398057Y63862048D01*
X8017104Y63671572D02*
X8817104Y63671572D01*
X8817104Y63671572D02*
X8817104Y63976334D01*
X8817104Y63976334D02*
X8779009Y64052524D01*
X8779009Y64052524D02*
X8740914Y64090619D01*
X8740914Y64090619D02*
X8664723Y64128715D01*
X8664723Y64128715D02*
X8550438Y64128715D01*
X8550438Y64128715D02*
X8474247Y64090619D01*
X8474247Y64090619D02*
X8436152Y64052524D01*
X8436152Y64052524D02*
X8398057Y63976334D01*
X8398057Y63976334D02*
X8398057Y63671572D01*
X8817104Y64852524D02*
X8817104Y64471572D01*
X8817104Y64471572D02*
X8436152Y64433476D01*
X8436152Y64433476D02*
X8474247Y64471572D01*
X8474247Y64471572D02*
X8512342Y64547762D01*
X8512342Y64547762D02*
X8512342Y64738238D01*
X8512342Y64738238D02*
X8474247Y64814429D01*
X8474247Y64814429D02*
X8436152Y64852524D01*
X8436152Y64852524D02*
X8359961Y64890619D01*
X8359961Y64890619D02*
X8169485Y64890619D01*
X8169485Y64890619D02*
X8093295Y64852524D01*
X8093295Y64852524D02*
X8055200Y64814429D01*
X8055200Y64814429D02*
X8017104Y64738238D01*
X8017104Y64738238D02*
X8017104Y64547762D01*
X8017104Y64547762D02*
X8055200Y64471572D01*
X8055200Y64471572D02*
X8093295Y64433476D01*
X8550438Y65576334D02*
X8017104Y65576334D01*
X8855200Y65385858D02*
X8283771Y65195381D01*
X8283771Y65195381D02*
X8283771Y65690620D01*
X4457618Y2048105D02*
X4457618Y2848105D01*
X4457618Y2848105D02*
X4190952Y2276677D01*
X4190952Y2276677D02*
X3924285Y2848105D01*
X3924285Y2848105D02*
X3924285Y2048105D01*
X3124285Y2048105D02*
X3581428Y2048105D01*
X3352856Y2048105D02*
X3352856Y2848105D01*
X3352856Y2848105D02*
X3429047Y2733820D01*
X3429047Y2733820D02*
X3505237Y2657629D01*
X3505237Y2657629D02*
X3581428Y2619534D01*
X24263332Y35830105D02*
X24529999Y36211058D01*
X24720475Y35830105D02*
X24720475Y36630105D01*
X24720475Y36630105D02*
X24415713Y36630105D01*
X24415713Y36630105D02*
X24339523Y36592010D01*
X24339523Y36592010D02*
X24301428Y36553915D01*
X24301428Y36553915D02*
X24263332Y36477724D01*
X24263332Y36477724D02*
X24263332Y36363439D01*
X24263332Y36363439D02*
X24301428Y36287248D01*
X24301428Y36287248D02*
X24339523Y36249153D01*
X24339523Y36249153D02*
X24415713Y36211058D01*
X24415713Y36211058D02*
X24720475Y36211058D01*
X23882380Y35830105D02*
X23729999Y35830105D01*
X23729999Y35830105D02*
X23653809Y35868200D01*
X23653809Y35868200D02*
X23615713Y35906296D01*
X23615713Y35906296D02*
X23539523Y36020581D01*
X23539523Y36020581D02*
X23501428Y36172962D01*
X23501428Y36172962D02*
X23501428Y36477724D01*
X23501428Y36477724D02*
X23539523Y36553915D01*
X23539523Y36553915D02*
X23577618Y36592010D01*
X23577618Y36592010D02*
X23653809Y36630105D01*
X23653809Y36630105D02*
X23806190Y36630105D01*
X23806190Y36630105D02*
X23882380Y36592010D01*
X23882380Y36592010D02*
X23920475Y36553915D01*
X23920475Y36553915D02*
X23958571Y36477724D01*
X23958571Y36477724D02*
X23958571Y36287248D01*
X23958571Y36287248D02*
X23920475Y36211058D01*
X23920475Y36211058D02*
X23882380Y36172962D01*
X23882380Y36172962D02*
X23806190Y36134867D01*
X23806190Y36134867D02*
X23653809Y36134867D01*
X23653809Y36134867D02*
X23577618Y36172962D01*
X23577618Y36172962D02*
X23539523Y36211058D01*
X23539523Y36211058D02*
X23501428Y36287248D01*
X20564285Y3064105D02*
X20830952Y3445058D01*
X21021428Y3064105D02*
X21021428Y3864105D01*
X21021428Y3864105D02*
X20716666Y3864105D01*
X20716666Y3864105D02*
X20640476Y3826010D01*
X20640476Y3826010D02*
X20602381Y3787915D01*
X20602381Y3787915D02*
X20564285Y3711724D01*
X20564285Y3711724D02*
X20564285Y3597439D01*
X20564285Y3597439D02*
X20602381Y3521248D01*
X20602381Y3521248D02*
X20640476Y3483153D01*
X20640476Y3483153D02*
X20716666Y3445058D01*
X20716666Y3445058D02*
X21021428Y3445058D01*
X19878571Y3597439D02*
X19878571Y3064105D01*
X20069047Y3902200D02*
X20259524Y3330772D01*
X20259524Y3330772D02*
X19764285Y3330772D01*
X19078571Y3864105D02*
X19459523Y3864105D01*
X19459523Y3864105D02*
X19497619Y3483153D01*
X19497619Y3483153D02*
X19459523Y3521248D01*
X19459523Y3521248D02*
X19383333Y3559343D01*
X19383333Y3559343D02*
X19192857Y3559343D01*
X19192857Y3559343D02*
X19116666Y3521248D01*
X19116666Y3521248D02*
X19078571Y3483153D01*
X19078571Y3483153D02*
X19040476Y3406962D01*
X19040476Y3406962D02*
X19040476Y3216486D01*
X19040476Y3216486D02*
X19078571Y3140296D01*
X19078571Y3140296D02*
X19116666Y3102200D01*
X19116666Y3102200D02*
X19192857Y3064105D01*
X19192857Y3064105D02*
X19383333Y3064105D01*
X19383333Y3064105D02*
X19459523Y3102200D01*
X19459523Y3102200D02*
X19497619Y3140296D01*
D13*
%TO.C,R38*%
X22902936Y24738000D02*
X23357064Y24738000D01*
X22902936Y23268000D02*
X23357064Y23268000D01*
%TO.C,R3*%
X22125000Y39396936D02*
X22125000Y39851064D01*
X23595000Y39396936D02*
X23595000Y39851064D01*
%TO.C,R13*%
X28221000Y42317936D02*
X28221000Y42772064D01*
X29691000Y42317936D02*
X29691000Y42772064D01*
%TO.C,D1*%
X29480000Y34597000D02*
X29480000Y38607000D01*
X31480000Y34597000D02*
X29480000Y34597000D01*
X31480000Y34597000D02*
X31480000Y38607000D01*
%TO.C,R42*%
X19331000Y25045936D02*
X19331000Y25500064D01*
X20801000Y25045936D02*
X20801000Y25500064D01*
%TO.C,R40*%
X18245064Y15594000D02*
X17790936Y15594000D01*
X18245064Y14124000D02*
X17790936Y14124000D01*
%TO.C,Q3*%
X17955500Y44613000D02*
X17305500Y44613000D01*
X17955500Y44613000D02*
X18605500Y44613000D01*
X17955500Y41493000D02*
X17305500Y41493000D01*
X17955500Y41493000D02*
X18605500Y41493000D01*
X19118000Y44563000D02*
X18878000Y44893000D01*
X19358000Y44893000D01*
X19118000Y44563000D01*
G36*
X19118000Y44563000D02*
G01*
X18878000Y44893000D01*
X19358000Y44893000D01*
X19118000Y44563000D01*
G37*
%TO.C,R55*%
X5488000Y67447936D02*
X5488000Y67902064D01*
X6958000Y67447936D02*
X6958000Y67902064D01*
%TO.C,R10*%
X21972536Y34644000D02*
X22426664Y34644000D01*
X21972536Y33174000D02*
X22426664Y33174000D01*
%TO.C,R39*%
X18245064Y10514000D02*
X17790936Y10514000D01*
X18245064Y9044000D02*
X17790936Y9044000D01*
%TO.C,D3*%
X21029000Y30845000D02*
X17019000Y30845000D01*
X21029000Y30845000D02*
X21029000Y28845000D01*
X21029000Y28845000D02*
X17019000Y28845000D01*
D14*
%TO.C,REF\u002A\u002A*%
X33938275Y75937069D02*
X34022095Y75492445D01*
X34640667Y75237449D01*
X35011707Y75489754D01*
X35085144Y75539494D01*
X35182499Y75604782D01*
X35266787Y75660546D01*
X35333631Y75703922D01*
X35378654Y75732047D01*
X35397478Y75742058D01*
X35409039Y75734939D01*
X35443596Y75705106D01*
X35495894Y75656148D01*
X35561500Y75592560D01*
X35635983Y75518837D01*
X35714913Y75439475D01*
X35793856Y75358969D01*
X35868384Y75281815D01*
X35934063Y75212507D01*
X35986463Y75155543D01*
X36021153Y75115416D01*
X36033701Y75096623D01*
X36030782Y75088549D01*
X36010571Y75052531D01*
X35973663Y74993256D01*
X35923050Y74915370D01*
X35861725Y74823519D01*
X35792679Y74722350D01*
X35754787Y74667174D01*
X35689606Y74571116D01*
X35633723Y74487283D01*
X35590117Y74420223D01*
X35561769Y74374481D01*
X35551657Y74354604D01*
X35551823Y74353503D01*
X35560743Y74328306D01*
X35581206Y74276853D01*
X35610360Y74205865D01*
X35645353Y74122065D01*
X35683332Y74032172D01*
X35721445Y73942909D01*
X35756839Y73860997D01*
X35786662Y73793157D01*
X35808061Y73746110D01*
X35818184Y73726578D01*
X35824174Y73724845D01*
X35860566Y73717031D01*
X35925427Y73704085D01*
X36013565Y73687021D01*
X36119787Y73666849D01*
X36238902Y73644582D01*
X36301683Y73632777D01*
X36416912Y73610252D01*
X36517662Y73589450D01*
X36598426Y73571565D01*
X36653698Y73557792D01*
X36677971Y73549326D01*
X36682331Y73540934D01*
X36689563Y73499928D01*
X36695246Y73431632D01*
X36699382Y73342471D01*
X36701977Y73238872D01*
X36703036Y73127260D01*
X36702561Y73014062D01*
X36700559Y72905704D01*
X36697033Y72808611D01*
X36691987Y72729210D01*
X36685427Y72673928D01*
X36677356Y72649190D01*
X36672458Y72646400D01*
X36635930Y72634431D01*
X36572565Y72618595D01*
X36489686Y72600626D01*
X36394618Y72582259D01*
X36362542Y72576409D01*
X36214393Y72549202D01*
X36097961Y72527337D01*
X36009209Y72509907D01*
X35944103Y72496004D01*
X35898606Y72484723D01*
X35868682Y72475157D01*
X35850294Y72466399D01*
X35839407Y72457543D01*
X35838142Y72456057D01*
X35820338Y72425069D01*
X35793994Y72368366D01*
X35761661Y72292601D01*
X35725893Y72204426D01*
X35689244Y72110493D01*
X35654266Y72017453D01*
X35623513Y71931959D01*
X35599538Y71860664D01*
X35584895Y71810218D01*
X35582136Y71787274D01*
X35583981Y71784297D01*
X35603075Y71755507D01*
X35638984Y71702405D01*
X35688378Y71629883D01*
X35747927Y71542833D01*
X35814303Y71446146D01*
X35832520Y71419544D01*
X35896577Y71324125D01*
X35951937Y71238788D01*
X35995439Y71168595D01*
X36023924Y71118606D01*
X36034232Y71093884D01*
X36032011Y71087384D01*
X36008858Y71055356D01*
X35963177Y71003055D01*
X35898241Y70934001D01*
X35817319Y70851714D01*
X35723685Y70759714D01*
X35670165Y70708219D01*
X35585542Y70628017D01*
X35511475Y70559322D01*
X35451941Y70505748D01*
X35410917Y70470915D01*
X35392381Y70458437D01*
X35379646Y70463062D01*
X35340436Y70484943D01*
X35283495Y70520727D01*
X35216250Y70565883D01*
X35168438Y70598835D01*
X35072985Y70664273D01*
X34971125Y70733772D01*
X34878088Y70796925D01*
X34695832Y70920200D01*
X34542841Y70837480D01*
X34506817Y70818387D01*
X34441303Y70785728D01*
X34390640Y70763181D01*
X34363564Y70754774D01*
X34354703Y70765570D01*
X34332699Y70806677D01*
X34300199Y70874451D01*
X34259010Y70964591D01*
X34210942Y71072795D01*
X34157802Y71194763D01*
X34101399Y71326192D01*
X34043542Y71462782D01*
X33986038Y71600233D01*
X33930697Y71734242D01*
X33879326Y71860509D01*
X33833735Y71974732D01*
X33795732Y72072610D01*
X33767124Y72149843D01*
X33749721Y72202129D01*
X33745331Y72225167D01*
X33745628Y72225840D01*
X33766077Y72247137D01*
X33808850Y72280492D01*
X33865117Y72318989D01*
X33882877Y72330744D01*
X34018014Y72442265D01*
X34129856Y72575094D01*
X34215755Y72723702D01*
X34273062Y72882560D01*
X34299131Y73046140D01*
X34291313Y73208912D01*
X34259644Y73353685D01*
X34202782Y73499876D01*
X34119888Y73630297D01*
X34006131Y73754187D01*
X33961433Y73793765D01*
X33816935Y73891277D01*
X33660838Y73956950D01*
X33497667Y73991370D01*
X33331943Y73995126D01*
X33168192Y73968806D01*
X33010936Y73912997D01*
X32864698Y73828286D01*
X32734004Y73715263D01*
X32623374Y73574513D01*
X32602105Y73539658D01*
X32529810Y73380345D01*
X32491415Y73214448D01*
X32485914Y73046263D01*
X32512301Y72880087D01*
X32569570Y72720216D01*
X32656717Y72570947D01*
X32772736Y72436577D01*
X32916622Y72321401D01*
X32921294Y72318298D01*
X32976964Y72279067D01*
X33018689Y72245714D01*
X33037746Y72225167D01*
X33035342Y72209059D01*
X33020391Y72162156D01*
X32993881Y72089461D01*
X32957620Y71995275D01*
X32913416Y71883902D01*
X32863076Y71759642D01*
X32808407Y71626798D01*
X32751218Y71489673D01*
X32693316Y71352568D01*
X32636510Y71219785D01*
X32582606Y71095626D01*
X32533412Y70984394D01*
X32490737Y70890391D01*
X32456387Y70817918D01*
X32432171Y70771278D01*
X32419897Y70754774D01*
X32409689Y70757009D01*
X32369586Y70773074D01*
X32310318Y70801241D01*
X32240619Y70837480D01*
X32087629Y70920200D01*
X31905373Y70796925D01*
X31851527Y70760421D01*
X31751374Y70692216D01*
X31651525Y70623902D01*
X31567211Y70565883D01*
X31520679Y70534264D01*
X31460200Y70494980D01*
X31415357Y70468088D01*
X31393455Y70458117D01*
X31384045Y70462350D01*
X31350031Y70488279D01*
X31297595Y70533930D01*
X31231301Y70594814D01*
X31155713Y70666439D01*
X31075396Y70744317D01*
X30994913Y70823955D01*
X30918829Y70900865D01*
X30851707Y70970555D01*
X30798112Y71028536D01*
X30762608Y71070316D01*
X30749759Y71091407D01*
X30750500Y71095419D01*
X30765793Y71128080D01*
X30798462Y71184588D01*
X30845350Y71259837D01*
X30903301Y71348725D01*
X30969157Y71446146D01*
X30987627Y71473018D01*
X31052482Y71567577D01*
X31109609Y71651173D01*
X31155678Y71718916D01*
X31187359Y71765914D01*
X31201324Y71787274D01*
X31201668Y71788189D01*
X31197546Y71814322D01*
X31181807Y71867260D01*
X31157004Y71940353D01*
X31125689Y72026948D01*
X31090417Y72120392D01*
X31053740Y72214035D01*
X31018212Y72301223D01*
X30986386Y72375305D01*
X30960816Y72429629D01*
X30944053Y72457543D01*
X30942374Y72459276D01*
X30930372Y72468044D01*
X30910103Y72476885D01*
X30877529Y72486708D01*
X30828616Y72498417D01*
X30759327Y72512920D01*
X30665625Y72531124D01*
X30543476Y72553934D01*
X30388842Y72582259D01*
X30356770Y72588220D01*
X30264893Y72606648D01*
X30187607Y72624108D01*
X30132236Y72638867D01*
X30106105Y72649190D01*
X30101733Y72657803D01*
X30094445Y72699174D01*
X30088669Y72767759D01*
X30084410Y72857132D01*
X30081673Y72960865D01*
X30080462Y73072535D01*
X30080782Y73185713D01*
X30082636Y73293974D01*
X30086030Y73390892D01*
X30090967Y73470041D01*
X30097452Y73524994D01*
X30105489Y73549326D01*
X30113696Y73552921D01*
X30154519Y73564252D01*
X30223524Y73580278D01*
X30315203Y73599805D01*
X30424050Y73621638D01*
X30544558Y73644582D01*
X30610357Y73656841D01*
X30723135Y73678099D01*
X30820207Y73696713D01*
X30896382Y73711672D01*
X30946469Y73721964D01*
X30965276Y73726578D01*
X30965983Y73727529D01*
X30977961Y73751690D01*
X31000794Y73802306D01*
X31031630Y73872662D01*
X31067613Y73956042D01*
X31105891Y74045730D01*
X31143609Y74135011D01*
X31177913Y74217168D01*
X31205949Y74285487D01*
X31224864Y74333252D01*
X31231803Y74353746D01*
X31228742Y74360957D01*
X31208372Y74395272D01*
X31171422Y74453030D01*
X31120860Y74529701D01*
X31059657Y74620752D01*
X30990781Y74721650D01*
X30952994Y74776907D01*
X30887782Y74873785D01*
X30831871Y74958807D01*
X30788241Y75027338D01*
X30759877Y75074740D01*
X30749759Y75096377D01*
X30756790Y75108113D01*
X30786197Y75143182D01*
X30834441Y75196255D01*
X30897093Y75262836D01*
X30969725Y75338426D01*
X31047908Y75418528D01*
X31127214Y75498646D01*
X31203213Y75574282D01*
X31271478Y75640938D01*
X31327580Y75694118D01*
X31367090Y75729324D01*
X31385579Y75742058D01*
X31395843Y75737107D01*
X31433530Y75714143D01*
X31494348Y75675062D01*
X31573913Y75622728D01*
X31667843Y75560004D01*
X31771754Y75489754D01*
X32142794Y75237449D01*
X32452080Y75364947D01*
X32761365Y75492445D01*
X32845186Y75937069D01*
X32929006Y76381693D01*
X33854454Y76381693D01*
X33938275Y75937069D01*
G36*
X33938275Y75937069D02*
G01*
X34022095Y75492445D01*
X34640667Y75237449D01*
X35011707Y75489754D01*
X35085144Y75539494D01*
X35182499Y75604782D01*
X35266787Y75660546D01*
X35333631Y75703922D01*
X35378654Y75732047D01*
X35397478Y75742058D01*
X35409039Y75734939D01*
X35443596Y75705106D01*
X35495894Y75656148D01*
X35561500Y75592560D01*
X35635983Y75518837D01*
X35714913Y75439475D01*
X35793856Y75358969D01*
X35868384Y75281815D01*
X35934063Y75212507D01*
X35986463Y75155543D01*
X36021153Y75115416D01*
X36033701Y75096623D01*
X36030782Y75088549D01*
X36010571Y75052531D01*
X35973663Y74993256D01*
X35923050Y74915370D01*
X35861725Y74823519D01*
X35792679Y74722350D01*
X35754787Y74667174D01*
X35689606Y74571116D01*
X35633723Y74487283D01*
X35590117Y74420223D01*
X35561769Y74374481D01*
X35551657Y74354604D01*
X35551823Y74353503D01*
X35560743Y74328306D01*
X35581206Y74276853D01*
X35610360Y74205865D01*
X35645353Y74122065D01*
X35683332Y74032172D01*
X35721445Y73942909D01*
X35756839Y73860997D01*
X35786662Y73793157D01*
X35808061Y73746110D01*
X35818184Y73726578D01*
X35824174Y73724845D01*
X35860566Y73717031D01*
X35925427Y73704085D01*
X36013565Y73687021D01*
X36119787Y73666849D01*
X36238902Y73644582D01*
X36301683Y73632777D01*
X36416912Y73610252D01*
X36517662Y73589450D01*
X36598426Y73571565D01*
X36653698Y73557792D01*
X36677971Y73549326D01*
X36682331Y73540934D01*
X36689563Y73499928D01*
X36695246Y73431632D01*
X36699382Y73342471D01*
X36701977Y73238872D01*
X36703036Y73127260D01*
X36702561Y73014062D01*
X36700559Y72905704D01*
X36697033Y72808611D01*
X36691987Y72729210D01*
X36685427Y72673928D01*
X36677356Y72649190D01*
X36672458Y72646400D01*
X36635930Y72634431D01*
X36572565Y72618595D01*
X36489686Y72600626D01*
X36394618Y72582259D01*
X36362542Y72576409D01*
X36214393Y72549202D01*
X36097961Y72527337D01*
X36009209Y72509907D01*
X35944103Y72496004D01*
X35898606Y72484723D01*
X35868682Y72475157D01*
X35850294Y72466399D01*
X35839407Y72457543D01*
X35838142Y72456057D01*
X35820338Y72425069D01*
X35793994Y72368366D01*
X35761661Y72292601D01*
X35725893Y72204426D01*
X35689244Y72110493D01*
X35654266Y72017453D01*
X35623513Y71931959D01*
X35599538Y71860664D01*
X35584895Y71810218D01*
X35582136Y71787274D01*
X35583981Y71784297D01*
X35603075Y71755507D01*
X35638984Y71702405D01*
X35688378Y71629883D01*
X35747927Y71542833D01*
X35814303Y71446146D01*
X35832520Y71419544D01*
X35896577Y71324125D01*
X35951937Y71238788D01*
X35995439Y71168595D01*
X36023924Y71118606D01*
X36034232Y71093884D01*
X36032011Y71087384D01*
X36008858Y71055356D01*
X35963177Y71003055D01*
X35898241Y70934001D01*
X35817319Y70851714D01*
X35723685Y70759714D01*
X35670165Y70708219D01*
X35585542Y70628017D01*
X35511475Y70559322D01*
X35451941Y70505748D01*
X35410917Y70470915D01*
X35392381Y70458437D01*
X35379646Y70463062D01*
X35340436Y70484943D01*
X35283495Y70520727D01*
X35216250Y70565883D01*
X35168438Y70598835D01*
X35072985Y70664273D01*
X34971125Y70733772D01*
X34878088Y70796925D01*
X34695832Y70920200D01*
X34542841Y70837480D01*
X34506817Y70818387D01*
X34441303Y70785728D01*
X34390640Y70763181D01*
X34363564Y70754774D01*
X34354703Y70765570D01*
X34332699Y70806677D01*
X34300199Y70874451D01*
X34259010Y70964591D01*
X34210942Y71072795D01*
X34157802Y71194763D01*
X34101399Y71326192D01*
X34043542Y71462782D01*
X33986038Y71600233D01*
X33930697Y71734242D01*
X33879326Y71860509D01*
X33833735Y71974732D01*
X33795732Y72072610D01*
X33767124Y72149843D01*
X33749721Y72202129D01*
X33745331Y72225167D01*
X33745628Y72225840D01*
X33766077Y72247137D01*
X33808850Y72280492D01*
X33865117Y72318989D01*
X33882877Y72330744D01*
X34018014Y72442265D01*
X34129856Y72575094D01*
X34215755Y72723702D01*
X34273062Y72882560D01*
X34299131Y73046140D01*
X34291313Y73208912D01*
X34259644Y73353685D01*
X34202782Y73499876D01*
X34119888Y73630297D01*
X34006131Y73754187D01*
X33961433Y73793765D01*
X33816935Y73891277D01*
X33660838Y73956950D01*
X33497667Y73991370D01*
X33331943Y73995126D01*
X33168192Y73968806D01*
X33010936Y73912997D01*
X32864698Y73828286D01*
X32734004Y73715263D01*
X32623374Y73574513D01*
X32602105Y73539658D01*
X32529810Y73380345D01*
X32491415Y73214448D01*
X32485914Y73046263D01*
X32512301Y72880087D01*
X32569570Y72720216D01*
X32656717Y72570947D01*
X32772736Y72436577D01*
X32916622Y72321401D01*
X32921294Y72318298D01*
X32976964Y72279067D01*
X33018689Y72245714D01*
X33037746Y72225167D01*
X33035342Y72209059D01*
X33020391Y72162156D01*
X32993881Y72089461D01*
X32957620Y71995275D01*
X32913416Y71883902D01*
X32863076Y71759642D01*
X32808407Y71626798D01*
X32751218Y71489673D01*
X32693316Y71352568D01*
X32636510Y71219785D01*
X32582606Y71095626D01*
X32533412Y70984394D01*
X32490737Y70890391D01*
X32456387Y70817918D01*
X32432171Y70771278D01*
X32419897Y70754774D01*
X32409689Y70757009D01*
X32369586Y70773074D01*
X32310318Y70801241D01*
X32240619Y70837480D01*
X32087629Y70920200D01*
X31905373Y70796925D01*
X31851527Y70760421D01*
X31751374Y70692216D01*
X31651525Y70623902D01*
X31567211Y70565883D01*
X31520679Y70534264D01*
X31460200Y70494980D01*
X31415357Y70468088D01*
X31393455Y70458117D01*
X31384045Y70462350D01*
X31350031Y70488279D01*
X31297595Y70533930D01*
X31231301Y70594814D01*
X31155713Y70666439D01*
X31075396Y70744317D01*
X30994913Y70823955D01*
X30918829Y70900865D01*
X30851707Y70970555D01*
X30798112Y71028536D01*
X30762608Y71070316D01*
X30749759Y71091407D01*
X30750500Y71095419D01*
X30765793Y71128080D01*
X30798462Y71184588D01*
X30845350Y71259837D01*
X30903301Y71348725D01*
X30969157Y71446146D01*
X30987627Y71473018D01*
X31052482Y71567577D01*
X31109609Y71651173D01*
X31155678Y71718916D01*
X31187359Y71765914D01*
X31201324Y71787274D01*
X31201668Y71788189D01*
X31197546Y71814322D01*
X31181807Y71867260D01*
X31157004Y71940353D01*
X31125689Y72026948D01*
X31090417Y72120392D01*
X31053740Y72214035D01*
X31018212Y72301223D01*
X30986386Y72375305D01*
X30960816Y72429629D01*
X30944053Y72457543D01*
X30942374Y72459276D01*
X30930372Y72468044D01*
X30910103Y72476885D01*
X30877529Y72486708D01*
X30828616Y72498417D01*
X30759327Y72512920D01*
X30665625Y72531124D01*
X30543476Y72553934D01*
X30388842Y72582259D01*
X30356770Y72588220D01*
X30264893Y72606648D01*
X30187607Y72624108D01*
X30132236Y72638867D01*
X30106105Y72649190D01*
X30101733Y72657803D01*
X30094445Y72699174D01*
X30088669Y72767759D01*
X30084410Y72857132D01*
X30081673Y72960865D01*
X30080462Y73072535D01*
X30080782Y73185713D01*
X30082636Y73293974D01*
X30086030Y73390892D01*
X30090967Y73470041D01*
X30097452Y73524994D01*
X30105489Y73549326D01*
X30113696Y73552921D01*
X30154519Y73564252D01*
X30223524Y73580278D01*
X30315203Y73599805D01*
X30424050Y73621638D01*
X30544558Y73644582D01*
X30610357Y73656841D01*
X30723135Y73678099D01*
X30820207Y73696713D01*
X30896382Y73711672D01*
X30946469Y73721964D01*
X30965276Y73726578D01*
X30965983Y73727529D01*
X30977961Y73751690D01*
X31000794Y73802306D01*
X31031630Y73872662D01*
X31067613Y73956042D01*
X31105891Y74045730D01*
X31143609Y74135011D01*
X31177913Y74217168D01*
X31205949Y74285487D01*
X31224864Y74333252D01*
X31231803Y74353746D01*
X31228742Y74360957D01*
X31208372Y74395272D01*
X31171422Y74453030D01*
X31120860Y74529701D01*
X31059657Y74620752D01*
X30990781Y74721650D01*
X30952994Y74776907D01*
X30887782Y74873785D01*
X30831871Y74958807D01*
X30788241Y75027338D01*
X30759877Y75074740D01*
X30749759Y75096377D01*
X30756790Y75108113D01*
X30786197Y75143182D01*
X30834441Y75196255D01*
X30897093Y75262836D01*
X30969725Y75338426D01*
X31047908Y75418528D01*
X31127214Y75498646D01*
X31203213Y75574282D01*
X31271478Y75640938D01*
X31327580Y75694118D01*
X31367090Y75729324D01*
X31385579Y75742058D01*
X31395843Y75737107D01*
X31433530Y75714143D01*
X31494348Y75675062D01*
X31573913Y75622728D01*
X31667843Y75560004D01*
X31771754Y75489754D01*
X32142794Y75237449D01*
X32452080Y75364947D01*
X32761365Y75492445D01*
X32845186Y75937069D01*
X32929006Y76381693D01*
X33854454Y76381693D01*
X33938275Y75937069D01*
G37*
D13*
%TO.C,R44*%
X18245064Y18134000D02*
X17790936Y18134000D01*
X18245064Y16664000D02*
X17790936Y16664000D01*
%TO.C,R31*%
X13616000Y40867064D02*
X13616000Y40412936D01*
X15086000Y40867064D02*
X15086000Y40412936D01*
%TO.C,J6*%
X29414000Y13873000D02*
X29414000Y11523000D01*
X29414000Y11523000D02*
X27474000Y11523000D01*
X29414000Y3653000D02*
X29414000Y6003000D01*
X31114000Y13873000D02*
X29414000Y13873000D01*
X31114000Y3653000D02*
X29414000Y3653000D01*
X36584000Y11953000D02*
X36584000Y5573000D01*
%TO.C,R56*%
X3329000Y67447936D02*
X3329000Y67902064D01*
X4799000Y67447936D02*
X4799000Y67902064D01*
%TO.C,R5*%
X26189000Y39396936D02*
X26189000Y39851064D01*
X27659000Y39396936D02*
X27659000Y39851064D01*
D14*
%TO.C,REF\u002A\u002A*%
X35173971Y62895178D02*
X31653178Y62895178D01*
X31653178Y63762802D01*
X35173971Y63762802D01*
X35173971Y62895178D01*
G36*
X35173971Y62895178D02*
G01*
X31653178Y62895178D01*
X31653178Y63762802D01*
X35173971Y63762802D01*
X35173971Y62895178D01*
G37*
X34142894Y68437282D02*
X34143388Y68424332D01*
X34149819Y68402589D01*
X34168123Y68384149D01*
X34203830Y68362199D01*
X34235174Y68342146D01*
X34282893Y68303644D01*
X34326138Y68260421D01*
X34359219Y68218373D01*
X34376442Y68183396D01*
X34380662Y68169919D01*
X34388480Y68160666D01*
X34391116Y68157546D01*
X34412662Y68152304D01*
X34452314Y68151218D01*
X34520109Y68151218D01*
X34520109Y68038049D01*
X34360577Y68038049D01*
X34345682Y67860268D01*
X34343682Y67835963D01*
X34339023Y67775120D01*
X34335731Y67725611D01*
X34334092Y67692008D01*
X34334390Y67678884D01*
X34338724Y67682657D01*
X34358496Y67702324D01*
X34392679Y67737182D01*
X34439541Y67785424D01*
X34497354Y67845243D01*
X34564387Y67914833D01*
X34638912Y67992385D01*
X34719197Y68076093D01*
X34803513Y68164151D01*
X34890130Y68254750D01*
X34977319Y68346085D01*
X35063349Y68436347D01*
X35146492Y68523731D01*
X35225016Y68606428D01*
X35297192Y68682632D01*
X35361291Y68750537D01*
X35415583Y68808334D01*
X35512592Y68911960D01*
X35513034Y68823685D01*
X35513475Y68735411D01*
X34912938Y68103842D01*
X34312401Y67472274D01*
X34300396Y67328326D01*
X34252365Y66752365D01*
X34243876Y66650209D01*
X34233343Y66522388D01*
X34223621Y66403233D01*
X34214898Y66295086D01*
X34207358Y66200287D01*
X34201187Y66121181D01*
X34196573Y66060108D01*
X34193700Y66019410D01*
X34192754Y66001430D01*
X34195251Y65993192D01*
X34206471Y65975401D01*
X34227751Y65948589D01*
X34238021Y65936871D01*
X34260225Y65911534D01*
X34305023Y65863014D01*
X34363281Y65801808D01*
X34436129Y65726693D01*
X34524703Y65636450D01*
X34630134Y65529855D01*
X34699492Y65459907D01*
X34796179Y65362342D01*
X34892526Y65265059D01*
X34985638Y65170986D01*
X35072618Y65083050D01*
X35150569Y65004180D01*
X35216596Y64937301D01*
X35267802Y64885342D01*
X35468514Y64681380D01*
X35432058Y64643329D01*
X35423460Y64634755D01*
X35398095Y64613703D01*
X35380695Y64605277D01*
X35367071Y64612470D01*
X35341743Y64634056D01*
X35311379Y64665005D01*
X35292896Y64684552D01*
X35258427Y64720248D01*
X35209712Y64770316D01*
X35148469Y64832999D01*
X35076420Y64906543D01*
X34995285Y64989190D01*
X34906784Y65079185D01*
X34812637Y65174772D01*
X34714565Y65274195D01*
X34172161Y65823657D01*
X34150066Y65538254D01*
X34145250Y65477338D01*
X34138216Y65395452D01*
X34131872Y65333431D01*
X34125748Y65288013D01*
X34119373Y65255938D01*
X34112277Y65233948D01*
X34103991Y65218781D01*
X34092393Y65197584D01*
X34082850Y65158614D01*
X34080010Y65102469D01*
X34080010Y65020227D01*
X33853674Y65020227D01*
X33853674Y65196267D01*
X33008082Y65196267D01*
X32959203Y65140738D01*
X32945836Y65126278D01*
X32873388Y65068187D01*
X32791532Y65032424D01*
X32702900Y65020227D01*
X32624692Y65026694D01*
X32536233Y65053953D01*
X32460507Y65102672D01*
X32445748Y65116597D01*
X32408864Y65161672D01*
X32376503Y65214181D01*
X32353297Y65265939D01*
X32343879Y65308761D01*
X32343697Y65314977D01*
X32342342Y65337754D01*
X32338800Y65353487D01*
X32331390Y65360932D01*
X32318431Y65358844D01*
X32298243Y65345980D01*
X32269145Y65321095D01*
X32229456Y65282947D01*
X32177496Y65230290D01*
X32111584Y65161881D01*
X32030040Y65076476D01*
X31986604Y65030888D01*
X31914000Y64954559D01*
X31845309Y64882192D01*
X31783223Y64816634D01*
X31730434Y64760726D01*
X31689634Y64717314D01*
X31663515Y64689242D01*
X31592119Y64611564D01*
X31503863Y64699584D01*
X32049690Y65271713D01*
X32084105Y65307812D01*
X32206546Y65436728D01*
X32311651Y65548246D01*
X32399736Y65642712D01*
X32471116Y65720471D01*
X32521588Y65776826D01*
X32728247Y65776826D01*
X32729872Y65763566D01*
X32730156Y65762181D01*
X32743698Y65730772D01*
X32770748Y65716137D01*
X32854129Y65684937D01*
X32928418Y65632962D01*
X32986846Y65564209D01*
X33026890Y65481685D01*
X33046026Y65388394D01*
X33052364Y65309435D01*
X34001838Y65309435D01*
X34008458Y65337727D01*
X34009629Y65344671D01*
X34013268Y65375719D01*
X34018234Y65425919D01*
X34024157Y65491273D01*
X34030669Y65567781D01*
X34037401Y65651445D01*
X34059724Y65936871D01*
X33758826Y66242435D01*
X33703636Y66298296D01*
X33636109Y66366112D01*
X33575529Y66426357D01*
X33524021Y66476948D01*
X33483710Y66515800D01*
X33456722Y66540830D01*
X33445182Y66549954D01*
X33437444Y66545595D01*
X33414395Y66525759D01*
X33379709Y66492625D01*
X33336487Y66449180D01*
X33287832Y66398413D01*
X33275140Y66384949D01*
X33218229Y66324725D01*
X33150414Y66253136D01*
X33076800Y66175563D01*
X33002493Y66097389D01*
X32932599Y66023995D01*
X32928401Y66019591D01*
X32863420Y65951215D01*
X32813836Y65898268D01*
X32777688Y65858233D01*
X32753016Y65828589D01*
X32737858Y65806819D01*
X32730256Y65790405D01*
X32728247Y65776826D01*
X32521588Y65776826D01*
X32526105Y65781869D01*
X32565019Y65827252D01*
X32588173Y65856965D01*
X32595882Y65871356D01*
X32595883Y65871441D01*
X32594825Y65889376D01*
X32591737Y65929579D01*
X32586858Y65989313D01*
X32580432Y66065842D01*
X32572700Y66156431D01*
X32563905Y66258343D01*
X32554287Y66368841D01*
X32544091Y66485189D01*
X32533556Y66604652D01*
X32522926Y66724493D01*
X32512442Y66841975D01*
X32502346Y66954363D01*
X32492881Y67058919D01*
X32484288Y67152909D01*
X32476809Y67233595D01*
X32470687Y67298241D01*
X32466162Y67344112D01*
X32463478Y67368470D01*
X32458067Y67409268D01*
X32587253Y67409268D01*
X32588908Y67378347D01*
X32592549Y67326347D01*
X32597995Y67255513D01*
X32605063Y67168089D01*
X32613570Y67066319D01*
X32623335Y66952448D01*
X32634174Y66828721D01*
X32645907Y66697382D01*
X32655079Y66596092D01*
X32666566Y66470474D01*
X32677322Y66354238D01*
X32687131Y66249620D01*
X32695781Y66158860D01*
X32703057Y66084196D01*
X32708746Y66027866D01*
X32712634Y65992109D01*
X32714506Y65979163D01*
X32720188Y65983174D01*
X32741020Y66002862D01*
X32774872Y66036678D01*
X32819412Y66082163D01*
X32872310Y66136854D01*
X32931236Y66198290D01*
X32993858Y66264010D01*
X33057848Y66331551D01*
X33120874Y66398453D01*
X33180606Y66462254D01*
X33234713Y66520493D01*
X33280865Y66570708D01*
X33316733Y66610437D01*
X33339984Y66637220D01*
X33346778Y66646523D01*
X33528601Y66646523D01*
X33804305Y66371032D01*
X33871726Y66303776D01*
X33935267Y66240838D01*
X33984490Y66192900D01*
X34021196Y66158406D01*
X34047190Y66135801D01*
X34064276Y66123529D01*
X34074256Y66120034D01*
X34078935Y66123762D01*
X34080116Y66133156D01*
X34080873Y66148251D01*
X34083601Y66187117D01*
X34088108Y66246105D01*
X34094179Y66322527D01*
X34101596Y66413695D01*
X34110142Y66516920D01*
X34119602Y66629517D01*
X34129758Y66748795D01*
X34138723Y66853923D01*
X34148066Y66964649D01*
X34156443Y67065186D01*
X34163653Y67153057D01*
X34169496Y67225785D01*
X34173769Y67280890D01*
X34176273Y67315896D01*
X34176805Y67328326D01*
X34176384Y67328092D01*
X34164509Y67316650D01*
X34138130Y67289802D01*
X34099570Y67249982D01*
X34051153Y67199628D01*
X33995203Y67141172D01*
X33934042Y67077052D01*
X33869995Y67009702D01*
X33805385Y66941557D01*
X33742535Y66875052D01*
X33683768Y66812623D01*
X33631409Y66756705D01*
X33530533Y66648594D01*
X33528601Y66646523D01*
X33346778Y66646523D01*
X33348290Y66648594D01*
X33340148Y66659617D01*
X33316478Y66686001D01*
X33279478Y66725473D01*
X33231350Y66775809D01*
X33174296Y66834783D01*
X33110520Y66900170D01*
X33042222Y66969745D01*
X32971605Y67041284D01*
X32900871Y67112562D01*
X32832222Y67181353D01*
X32767861Y67245434D01*
X32709989Y67302578D01*
X32660810Y67350561D01*
X32622524Y67387159D01*
X32597334Y67410146D01*
X32587442Y67417297D01*
X32587253Y67409268D01*
X32458067Y67409268D01*
X32456390Y67421911D01*
X32181297Y67421911D01*
X32180968Y67632529D01*
X32180797Y67741828D01*
X32281891Y67741828D01*
X32281891Y67522505D01*
X32363624Y67522505D01*
X32370895Y67522511D01*
X32411950Y67523387D01*
X32434277Y67527133D01*
X32443529Y67535730D01*
X32445357Y67551160D01*
X32437306Y67573841D01*
X32409730Y67611572D01*
X32363624Y67660821D01*
X32281891Y67741828D01*
X32180797Y67741828D01*
X32180639Y67843148D01*
X31728914Y68302109D01*
X31277189Y68761069D01*
X31276570Y68848152D01*
X31275951Y68935233D01*
X31817769Y68386048D01*
X31870137Y68333002D01*
X31978803Y68223228D01*
X32071709Y68129886D01*
X32150055Y68051827D01*
X32215043Y67987903D01*
X32267872Y67936965D01*
X32309743Y67897865D01*
X32341855Y67869452D01*
X32365410Y67850580D01*
X32381608Y67840099D01*
X32391649Y67836861D01*
X32408579Y67837842D01*
X32418084Y67845004D01*
X32419723Y67864599D01*
X32415782Y67902876D01*
X32413065Y67926975D01*
X32409284Y67967256D01*
X32407760Y67994039D01*
X32407015Y68003272D01*
X32399746Y68013161D01*
X32379668Y68016438D01*
X32340689Y68015008D01*
X32330737Y68014447D01*
X32290898Y68015079D01*
X32262560Y68023833D01*
X32242586Y68038049D01*
X32525852Y68038049D01*
X32530013Y67990896D01*
X32531935Y67969502D01*
X32537924Y67911091D01*
X32543826Y67872619D01*
X32550727Y67850088D01*
X32559712Y67839502D01*
X32571870Y67836861D01*
X32582801Y67835063D01*
X32590050Y67826470D01*
X32594100Y67806495D01*
X32595863Y67770550D01*
X32596248Y67714048D01*
X32596248Y67591234D01*
X32636447Y67551160D01*
X32734565Y67453346D01*
X32872881Y67315458D01*
X32872881Y67421911D01*
X33627337Y67421911D01*
X33627337Y67183000D01*
X33008831Y67183000D01*
X33218592Y66966094D01*
X33258770Y66924666D01*
X33314328Y66867800D01*
X33362570Y66818918D01*
X33400971Y66780559D01*
X33427003Y66755259D01*
X33438140Y66745558D01*
X33442373Y66748233D01*
X33462224Y66766218D01*
X33496451Y66799519D01*
X33543227Y66846288D01*
X33600724Y66904675D01*
X33667112Y66972831D01*
X33740564Y67048906D01*
X33819251Y67131050D01*
X33898341Y67214057D01*
X33975871Y67295864D01*
X34038746Y67362917D01*
X34088502Y67416993D01*
X34126678Y67459871D01*
X34154811Y67493327D01*
X34174440Y67519139D01*
X34187101Y67539086D01*
X34194334Y67554944D01*
X34197675Y67568491D01*
X34198561Y67575090D01*
X34202488Y67611452D01*
X34207459Y67664982D01*
X34212927Y67729579D01*
X34218344Y67799138D01*
X34220181Y67823365D01*
X34225488Y67888822D01*
X34230548Y67945283D01*
X34234863Y67987382D01*
X34237934Y68009757D01*
X34243955Y68038049D01*
X32525852Y68038049D01*
X32242586Y68038049D01*
X32234630Y68043711D01*
X32229820Y68047896D01*
X32190482Y68098573D01*
X32174903Y68151218D01*
X32515698Y68151218D01*
X33930221Y68151218D01*
X33928172Y68201515D01*
X34142881Y68201515D01*
X34142881Y68151218D01*
X34199908Y68151218D01*
X34216993Y68151338D01*
X34242308Y68153538D01*
X34249616Y68160666D01*
X34243943Y68175492D01*
X34242267Y68178318D01*
X34223448Y68200056D01*
X34196183Y68224180D01*
X34168987Y68243746D01*
X34150371Y68251812D01*
X34148697Y68250537D01*
X34144544Y68233024D01*
X34142881Y68201515D01*
X33928172Y68201515D01*
X33926526Y68241905D01*
X33922832Y68332593D01*
X33847386Y68347748D01*
X33809551Y68354621D01*
X33746368Y68364244D01*
X33687065Y68371504D01*
X33602188Y68380107D01*
X33602188Y68276960D01*
X33023773Y68276960D01*
X33023773Y68367878D01*
X32951471Y68359247D01*
X32840998Y68340751D01*
X32729816Y68307309D01*
X32637850Y68260676D01*
X32563542Y68200214D01*
X32515698Y68151218D01*
X32174903Y68151218D01*
X32173172Y68157066D01*
X32178474Y68218425D01*
X32206975Y68277703D01*
X32209733Y68281394D01*
X32247822Y68313149D01*
X32297476Y68331933D01*
X32351002Y68336929D01*
X32400707Y68327322D01*
X32438900Y68302296D01*
X32451831Y68289520D01*
X32464428Y68286424D01*
X32482467Y68296002D01*
X32512928Y68319918D01*
X32522274Y68327269D01*
X32594430Y68373661D01*
X32679915Y68414916D01*
X32749830Y68440425D01*
X33124367Y68440425D01*
X33124367Y68377554D01*
X33501594Y68377554D01*
X33501594Y68440425D01*
X33124367Y68440425D01*
X32749830Y68440425D01*
X32770767Y68448064D01*
X32859027Y68470132D01*
X32936736Y68478148D01*
X32944991Y68478212D01*
X32990879Y68482679D01*
X33016079Y68495205D01*
X33023773Y68517216D01*
X33024676Y68524151D01*
X33029615Y68530115D01*
X33041611Y68534481D01*
X33063680Y68537497D01*
X33098836Y68539410D01*
X33150094Y68540470D01*
X33220471Y68540923D01*
X33312980Y68541020D01*
X33399660Y68540850D01*
X33473332Y68540166D01*
X33527265Y68538785D01*
X33564288Y68536530D01*
X33587230Y68533222D01*
X33598920Y68528680D01*
X33602188Y68522728D01*
X33612937Y68508112D01*
X33643055Y68498785D01*
X33654582Y68497153D01*
X33693886Y68491409D01*
X33746188Y68483622D01*
X33803376Y68474997D01*
X33834916Y68470607D01*
X33881074Y68465852D01*
X33913641Y68464705D01*
X33927023Y68467505D01*
X33929308Y68469329D01*
X33950405Y68473835D01*
X33988355Y68476971D01*
X34037048Y68478148D01*
X34142881Y68478148D01*
X34142894Y68440425D01*
X34142894Y68437282D01*
G36*
X34142894Y68437282D02*
G01*
X34143388Y68424332D01*
X34149819Y68402589D01*
X34168123Y68384149D01*
X34203830Y68362199D01*
X34235174Y68342146D01*
X34282893Y68303644D01*
X34326138Y68260421D01*
X34359219Y68218373D01*
X34376442Y68183396D01*
X34380662Y68169919D01*
X34388480Y68160666D01*
X34391116Y68157546D01*
X34412662Y68152304D01*
X34452314Y68151218D01*
X34520109Y68151218D01*
X34520109Y68038049D01*
X34360577Y68038049D01*
X34345682Y67860268D01*
X34343682Y67835963D01*
X34339023Y67775120D01*
X34335731Y67725611D01*
X34334092Y67692008D01*
X34334390Y67678884D01*
X34338724Y67682657D01*
X34358496Y67702324D01*
X34392679Y67737182D01*
X34439541Y67785424D01*
X34497354Y67845243D01*
X34564387Y67914833D01*
X34638912Y67992385D01*
X34719197Y68076093D01*
X34803513Y68164151D01*
X34890130Y68254750D01*
X34977319Y68346085D01*
X35063349Y68436347D01*
X35146492Y68523731D01*
X35225016Y68606428D01*
X35297192Y68682632D01*
X35361291Y68750537D01*
X35415583Y68808334D01*
X35512592Y68911960D01*
X35513034Y68823685D01*
X35513475Y68735411D01*
X34912938Y68103842D01*
X34312401Y67472274D01*
X34300396Y67328326D01*
X34252365Y66752365D01*
X34243876Y66650209D01*
X34233343Y66522388D01*
X34223621Y66403233D01*
X34214898Y66295086D01*
X34207358Y66200287D01*
X34201187Y66121181D01*
X34196573Y66060108D01*
X34193700Y66019410D01*
X34192754Y66001430D01*
X34195251Y65993192D01*
X34206471Y65975401D01*
X34227751Y65948589D01*
X34238021Y65936871D01*
X34260225Y65911534D01*
X34305023Y65863014D01*
X34363281Y65801808D01*
X34436129Y65726693D01*
X34524703Y65636450D01*
X34630134Y65529855D01*
X34699492Y65459907D01*
X34796179Y65362342D01*
X34892526Y65265059D01*
X34985638Y65170986D01*
X35072618Y65083050D01*
X35150569Y65004180D01*
X35216596Y64937301D01*
X35267802Y64885342D01*
X35468514Y64681380D01*
X35432058Y64643329D01*
X35423460Y64634755D01*
X35398095Y64613703D01*
X35380695Y64605277D01*
X35367071Y64612470D01*
X35341743Y64634056D01*
X35311379Y64665005D01*
X35292896Y64684552D01*
X35258427Y64720248D01*
X35209712Y64770316D01*
X35148469Y64832999D01*
X35076420Y64906543D01*
X34995285Y64989190D01*
X34906784Y65079185D01*
X34812637Y65174772D01*
X34714565Y65274195D01*
X34172161Y65823657D01*
X34150066Y65538254D01*
X34145250Y65477338D01*
X34138216Y65395452D01*
X34131872Y65333431D01*
X34125748Y65288013D01*
X34119373Y65255938D01*
X34112277Y65233948D01*
X34103991Y65218781D01*
X34092393Y65197584D01*
X34082850Y65158614D01*
X34080010Y65102469D01*
X34080010Y65020227D01*
X33853674Y65020227D01*
X33853674Y65196267D01*
X33008082Y65196267D01*
X32959203Y65140738D01*
X32945836Y65126278D01*
X32873388Y65068187D01*
X32791532Y65032424D01*
X32702900Y65020227D01*
X32624692Y65026694D01*
X32536233Y65053953D01*
X32460507Y65102672D01*
X32445748Y65116597D01*
X32408864Y65161672D01*
X32376503Y65214181D01*
X32353297Y65265939D01*
X32343879Y65308761D01*
X32343697Y65314977D01*
X32342342Y65337754D01*
X32338800Y65353487D01*
X32331390Y65360932D01*
X32318431Y65358844D01*
X32298243Y65345980D01*
X32269145Y65321095D01*
X32229456Y65282947D01*
X32177496Y65230290D01*
X32111584Y65161881D01*
X32030040Y65076476D01*
X31986604Y65030888D01*
X31914000Y64954559D01*
X31845309Y64882192D01*
X31783223Y64816634D01*
X31730434Y64760726D01*
X31689634Y64717314D01*
X31663515Y64689242D01*
X31592119Y64611564D01*
X31503863Y64699584D01*
X32049690Y65271713D01*
X32084105Y65307812D01*
X32206546Y65436728D01*
X32311651Y65548246D01*
X32399736Y65642712D01*
X32471116Y65720471D01*
X32521588Y65776826D01*
X32728247Y65776826D01*
X32729872Y65763566D01*
X32730156Y65762181D01*
X32743698Y65730772D01*
X32770748Y65716137D01*
X32854129Y65684937D01*
X32928418Y65632962D01*
X32986846Y65564209D01*
X33026890Y65481685D01*
X33046026Y65388394D01*
X33052364Y65309435D01*
X34001838Y65309435D01*
X34008458Y65337727D01*
X34009629Y65344671D01*
X34013268Y65375719D01*
X34018234Y65425919D01*
X34024157Y65491273D01*
X34030669Y65567781D01*
X34037401Y65651445D01*
X34059724Y65936871D01*
X33758826Y66242435D01*
X33703636Y66298296D01*
X33636109Y66366112D01*
X33575529Y66426357D01*
X33524021Y66476948D01*
X33483710Y66515800D01*
X33456722Y66540830D01*
X33445182Y66549954D01*
X33437444Y66545595D01*
X33414395Y66525759D01*
X33379709Y66492625D01*
X33336487Y66449180D01*
X33287832Y66398413D01*
X33275140Y66384949D01*
X33218229Y66324725D01*
X33150414Y66253136D01*
X33076800Y66175563D01*
X33002493Y66097389D01*
X32932599Y66023995D01*
X32928401Y66019591D01*
X32863420Y65951215D01*
X32813836Y65898268D01*
X32777688Y65858233D01*
X32753016Y65828589D01*
X32737858Y65806819D01*
X32730256Y65790405D01*
X32728247Y65776826D01*
X32521588Y65776826D01*
X32526105Y65781869D01*
X32565019Y65827252D01*
X32588173Y65856965D01*
X32595882Y65871356D01*
X32595883Y65871441D01*
X32594825Y65889376D01*
X32591737Y65929579D01*
X32586858Y65989313D01*
X32580432Y66065842D01*
X32572700Y66156431D01*
X32563905Y66258343D01*
X32554287Y66368841D01*
X32544091Y66485189D01*
X32533556Y66604652D01*
X32522926Y66724493D01*
X32512442Y66841975D01*
X32502346Y66954363D01*
X32492881Y67058919D01*
X32484288Y67152909D01*
X32476809Y67233595D01*
X32470687Y67298241D01*
X32466162Y67344112D01*
X32463478Y67368470D01*
X32458067Y67409268D01*
X32587253Y67409268D01*
X32588908Y67378347D01*
X32592549Y67326347D01*
X32597995Y67255513D01*
X32605063Y67168089D01*
X32613570Y67066319D01*
X32623335Y66952448D01*
X32634174Y66828721D01*
X32645907Y66697382D01*
X32655079Y66596092D01*
X32666566Y66470474D01*
X32677322Y66354238D01*
X32687131Y66249620D01*
X32695781Y66158860D01*
X32703057Y66084196D01*
X32708746Y66027866D01*
X32712634Y65992109D01*
X32714506Y65979163D01*
X32720188Y65983174D01*
X32741020Y66002862D01*
X32774872Y66036678D01*
X32819412Y66082163D01*
X32872310Y66136854D01*
X32931236Y66198290D01*
X32993858Y66264010D01*
X33057848Y66331551D01*
X33120874Y66398453D01*
X33180606Y66462254D01*
X33234713Y66520493D01*
X33280865Y66570708D01*
X33316733Y66610437D01*
X33339984Y66637220D01*
X33346778Y66646523D01*
X33528601Y66646523D01*
X33804305Y66371032D01*
X33871726Y66303776D01*
X33935267Y66240838D01*
X33984490Y66192900D01*
X34021196Y66158406D01*
X34047190Y66135801D01*
X34064276Y66123529D01*
X34074256Y66120034D01*
X34078935Y66123762D01*
X34080116Y66133156D01*
X34080873Y66148251D01*
X34083601Y66187117D01*
X34088108Y66246105D01*
X34094179Y66322527D01*
X34101596Y66413695D01*
X34110142Y66516920D01*
X34119602Y66629517D01*
X34129758Y66748795D01*
X34138723Y66853923D01*
X34148066Y66964649D01*
X34156443Y67065186D01*
X34163653Y67153057D01*
X34169496Y67225785D01*
X34173769Y67280890D01*
X34176273Y67315896D01*
X34176805Y67328326D01*
X34176384Y67328092D01*
X34164509Y67316650D01*
X34138130Y67289802D01*
X34099570Y67249982D01*
X34051153Y67199628D01*
X33995203Y67141172D01*
X33934042Y67077052D01*
X33869995Y67009702D01*
X33805385Y66941557D01*
X33742535Y66875052D01*
X33683768Y66812623D01*
X33631409Y66756705D01*
X33530533Y66648594D01*
X33528601Y66646523D01*
X33346778Y66646523D01*
X33348290Y66648594D01*
X33340148Y66659617D01*
X33316478Y66686001D01*
X33279478Y66725473D01*
X33231350Y66775809D01*
X33174296Y66834783D01*
X33110520Y66900170D01*
X33042222Y66969745D01*
X32971605Y67041284D01*
X32900871Y67112562D01*
X32832222Y67181353D01*
X32767861Y67245434D01*
X32709989Y67302578D01*
X32660810Y67350561D01*
X32622524Y67387159D01*
X32597334Y67410146D01*
X32587442Y67417297D01*
X32587253Y67409268D01*
X32458067Y67409268D01*
X32456390Y67421911D01*
X32181297Y67421911D01*
X32180968Y67632529D01*
X32180797Y67741828D01*
X32281891Y67741828D01*
X32281891Y67522505D01*
X32363624Y67522505D01*
X32370895Y67522511D01*
X32411950Y67523387D01*
X32434277Y67527133D01*
X32443529Y67535730D01*
X32445357Y67551160D01*
X32437306Y67573841D01*
X32409730Y67611572D01*
X32363624Y67660821D01*
X32281891Y67741828D01*
X32180797Y67741828D01*
X32180639Y67843148D01*
X31728914Y68302109D01*
X31277189Y68761069D01*
X31276570Y68848152D01*
X31275951Y68935233D01*
X31817769Y68386048D01*
X31870137Y68333002D01*
X31978803Y68223228D01*
X32071709Y68129886D01*
X32150055Y68051827D01*
X32215043Y67987903D01*
X32267872Y67936965D01*
X32309743Y67897865D01*
X32341855Y67869452D01*
X32365410Y67850580D01*
X32381608Y67840099D01*
X32391649Y67836861D01*
X32408579Y67837842D01*
X32418084Y67845004D01*
X32419723Y67864599D01*
X32415782Y67902876D01*
X32413065Y67926975D01*
X32409284Y67967256D01*
X32407760Y67994039D01*
X32407015Y68003272D01*
X32399746Y68013161D01*
X32379668Y68016438D01*
X32340689Y68015008D01*
X32330737Y68014447D01*
X32290898Y68015079D01*
X32262560Y68023833D01*
X32242586Y68038049D01*
X32525852Y68038049D01*
X32530013Y67990896D01*
X32531935Y67969502D01*
X32537924Y67911091D01*
X32543826Y67872619D01*
X32550727Y67850088D01*
X32559712Y67839502D01*
X32571870Y67836861D01*
X32582801Y67835063D01*
X32590050Y67826470D01*
X32594100Y67806495D01*
X32595863Y67770550D01*
X32596248Y67714048D01*
X32596248Y67591234D01*
X32636447Y67551160D01*
X32734565Y67453346D01*
X32872881Y67315458D01*
X32872881Y67421911D01*
X33627337Y67421911D01*
X33627337Y67183000D01*
X33008831Y67183000D01*
X33218592Y66966094D01*
X33258770Y66924666D01*
X33314328Y66867800D01*
X33362570Y66818918D01*
X33400971Y66780559D01*
X33427003Y66755259D01*
X33438140Y66745558D01*
X33442373Y66748233D01*
X33462224Y66766218D01*
X33496451Y66799519D01*
X33543227Y66846288D01*
X33600724Y66904675D01*
X33667112Y66972831D01*
X33740564Y67048906D01*
X33819251Y67131050D01*
X33898341Y67214057D01*
X33975871Y67295864D01*
X34038746Y67362917D01*
X34088502Y67416993D01*
X34126678Y67459871D01*
X34154811Y67493327D01*
X34174440Y67519139D01*
X34187101Y67539086D01*
X34194334Y67554944D01*
X34197675Y67568491D01*
X34198561Y67575090D01*
X34202488Y67611452D01*
X34207459Y67664982D01*
X34212927Y67729579D01*
X34218344Y67799138D01*
X34220181Y67823365D01*
X34225488Y67888822D01*
X34230548Y67945283D01*
X34234863Y67987382D01*
X34237934Y68009757D01*
X34243955Y68038049D01*
X32525852Y68038049D01*
X32242586Y68038049D01*
X32234630Y68043711D01*
X32229820Y68047896D01*
X32190482Y68098573D01*
X32174903Y68151218D01*
X32515698Y68151218D01*
X33930221Y68151218D01*
X33928172Y68201515D01*
X34142881Y68201515D01*
X34142881Y68151218D01*
X34199908Y68151218D01*
X34216993Y68151338D01*
X34242308Y68153538D01*
X34249616Y68160666D01*
X34243943Y68175492D01*
X34242267Y68178318D01*
X34223448Y68200056D01*
X34196183Y68224180D01*
X34168987Y68243746D01*
X34150371Y68251812D01*
X34148697Y68250537D01*
X34144544Y68233024D01*
X34142881Y68201515D01*
X33928172Y68201515D01*
X33926526Y68241905D01*
X33922832Y68332593D01*
X33847386Y68347748D01*
X33809551Y68354621D01*
X33746368Y68364244D01*
X33687065Y68371504D01*
X33602188Y68380107D01*
X33602188Y68276960D01*
X33023773Y68276960D01*
X33023773Y68367878D01*
X32951471Y68359247D01*
X32840998Y68340751D01*
X32729816Y68307309D01*
X32637850Y68260676D01*
X32563542Y68200214D01*
X32515698Y68151218D01*
X32174903Y68151218D01*
X32173172Y68157066D01*
X32178474Y68218425D01*
X32206975Y68277703D01*
X32209733Y68281394D01*
X32247822Y68313149D01*
X32297476Y68331933D01*
X32351002Y68336929D01*
X32400707Y68327322D01*
X32438900Y68302296D01*
X32451831Y68289520D01*
X32464428Y68286424D01*
X32482467Y68296002D01*
X32512928Y68319918D01*
X32522274Y68327269D01*
X32594430Y68373661D01*
X32679915Y68414916D01*
X32749830Y68440425D01*
X33124367Y68440425D01*
X33124367Y68377554D01*
X33501594Y68377554D01*
X33501594Y68440425D01*
X33124367Y68440425D01*
X32749830Y68440425D01*
X32770767Y68448064D01*
X32859027Y68470132D01*
X32936736Y68478148D01*
X32944991Y68478212D01*
X32990879Y68482679D01*
X33016079Y68495205D01*
X33023773Y68517216D01*
X33024676Y68524151D01*
X33029615Y68530115D01*
X33041611Y68534481D01*
X33063680Y68537497D01*
X33098836Y68539410D01*
X33150094Y68540470D01*
X33220471Y68540923D01*
X33312980Y68541020D01*
X33399660Y68540850D01*
X33473332Y68540166D01*
X33527265Y68538785D01*
X33564288Y68536530D01*
X33587230Y68533222D01*
X33598920Y68528680D01*
X33602188Y68522728D01*
X33612937Y68508112D01*
X33643055Y68498785D01*
X33654582Y68497153D01*
X33693886Y68491409D01*
X33746188Y68483622D01*
X33803376Y68474997D01*
X33834916Y68470607D01*
X33881074Y68465852D01*
X33913641Y68464705D01*
X33927023Y68467505D01*
X33929308Y68469329D01*
X33950405Y68473835D01*
X33988355Y68476971D01*
X34037048Y68478148D01*
X34142881Y68478148D01*
X34142894Y68440425D01*
X34142894Y68437282D01*
G37*
D13*
%TO.C,R46*%
X7408936Y36676000D02*
X7863064Y36676000D01*
X7408936Y35206000D02*
X7863064Y35206000D01*
%TO.C,C6*%
X14978748Y34263000D02*
X15501252Y34263000D01*
X14978748Y32793000D02*
X15501252Y32793000D01*
%TO.C,R11*%
X20093000Y40994064D02*
X20093000Y40539936D01*
X21563000Y40994064D02*
X21563000Y40539936D01*
%TO.C,R18*%
X4979936Y52424000D02*
X5434064Y52424000D01*
X4979936Y50954000D02*
X5434064Y50954000D01*
%TO.C,R47*%
X9117064Y34136000D02*
X8662936Y34136000D01*
X9117064Y32666000D02*
X8662936Y32666000D01*
%TO.C,R35*%
X21490000Y29437064D02*
X21490000Y28982936D01*
X22960000Y29437064D02*
X22960000Y28982936D01*
%TO.C,R4*%
X24157000Y39396936D02*
X24157000Y39851064D01*
X25627000Y39396936D02*
X25627000Y39851064D01*
%TO.C,R2*%
X17045000Y25299936D02*
X17045000Y25754064D01*
X18515000Y25299936D02*
X18515000Y25754064D01*
%TO.C,M2*%
X10512000Y76806000D02*
X10512000Y73706000D01*
X10512000Y48606000D02*
X10512000Y45206000D01*
X10512000Y45206000D02*
X13412000Y45206000D01*
X13012000Y76806000D02*
X10512000Y76806000D01*
X26612000Y76806000D02*
X29112000Y76806000D01*
X29112000Y73706000D02*
X29112000Y76806000D01*
X29112000Y48606000D02*
X29112000Y45206000D01*
X29112000Y45206000D02*
X26212000Y45206000D01*
D12*
X14012000Y70506000D02*
G75*
G02*
X12012000Y70506000I-1000000J0D01*
G01*
X12012000Y70506000D02*
G75*
G02*
X14012000Y70506000I1000000J0D01*
G01*
X27612000Y70506000D02*
G75*
G02*
X25612000Y70506000I-1000000J0D01*
G01*
X25612000Y70506000D02*
G75*
G02*
X27612000Y70506000I1000000J0D01*
G01*
D13*
%TO.C,R24*%
X7323064Y47979000D02*
X6868936Y47979000D01*
X7323064Y46509000D02*
X6868936Y46509000D01*
%TO.C,C2*%
X26951000Y35425748D02*
X26951000Y35948252D01*
X28421000Y35425748D02*
X28421000Y35948252D01*
%TO.C,R48*%
X24992064Y7339000D02*
X24537936Y7339000D01*
X24992064Y5869000D02*
X24537936Y5869000D01*
%TO.C,R23*%
X8536000Y56615064D02*
X8536000Y56160936D01*
X10006000Y56615064D02*
X10006000Y56160936D01*
%TO.C,R43*%
X18245064Y13054000D02*
X17790936Y13054000D01*
X18245064Y11584000D02*
X17790936Y11584000D01*
%TO.C,TP2*%
X7178000Y42606000D02*
X7178000Y40706000D01*
X7178000Y40706000D02*
X9078000Y40706000D01*
X9078000Y42606000D02*
X7178000Y42606000D01*
X9078000Y40706000D02*
X9078000Y42606000D01*
%TO.C,R16*%
X7323064Y45820000D02*
X6868936Y45820000D01*
X7323064Y44350000D02*
X6868936Y44350000D01*
%TO.C,R34*%
X23395000Y29437064D02*
X23395000Y28982936D01*
X24865000Y29437064D02*
X24865000Y28982936D01*
%TO.C,R32*%
X13616000Y36946064D02*
X13616000Y36491936D01*
X15086000Y36946064D02*
X15086000Y36491936D01*
%TO.C,R49*%
X24992064Y9498000D02*
X24537936Y9498000D01*
X24992064Y8028000D02*
X24537936Y8028000D01*
%TO.C,R33*%
X25300000Y28982936D02*
X25300000Y29437064D01*
X26770000Y28982936D02*
X26770000Y29437064D01*
%TO.C,J5*%
X29418600Y27446000D02*
X29418600Y25096000D01*
X29418600Y25096000D02*
X27478600Y25096000D01*
X29418600Y15226000D02*
X29418600Y17576000D01*
X31118600Y27446000D02*
X29418600Y27446000D01*
X31118600Y15226000D02*
X29418600Y15226000D01*
X36588600Y25526000D02*
X36588600Y17146000D01*
%TO.C,R19*%
X4979936Y50265000D02*
X5434064Y50265000D01*
X4979936Y48795000D02*
X5434064Y48795000D01*
%TO.C,R41*%
X18245064Y20674000D02*
X17790936Y20674000D01*
X18245064Y19204000D02*
X17790936Y19204000D01*
%TO.C,C5*%
X15775000Y36964252D02*
X15775000Y36441748D01*
X17245000Y36964252D02*
X17245000Y36441748D01*
%TO.C,R17*%
X4979936Y54583000D02*
X5434064Y54583000D01*
X4979936Y53113000D02*
X5434064Y53113000D01*
%TO.C,R54*%
X7647000Y67447936D02*
X7647000Y67902064D01*
X9117000Y67447936D02*
X9117000Y67902064D01*
%TO.C,M1*%
X3252000Y28426000D02*
X3252000Y31926000D01*
X3252000Y3126000D02*
X3252000Y5626000D01*
X5752000Y3126000D02*
X3252000Y3126000D01*
X6752000Y31926000D02*
X3252000Y31926000D01*
X12552000Y3126000D02*
X16052000Y3126000D01*
X16052000Y31926000D02*
X13552000Y31926000D01*
X16052000Y29426000D02*
X16052000Y31926000D01*
X16052000Y3126000D02*
X16052000Y5626000D01*
%TO.C,R9*%
X21219936Y36676000D02*
X21674064Y36676000D01*
X21219936Y35206000D02*
X21674064Y35206000D01*
%TO.C,R45*%
X20277064Y5815000D02*
X19822936Y5815000D01*
X20277064Y4345000D02*
X19822936Y4345000D01*
%TD*%
M02*
