%TF.GenerationSoftware,KiCad,Pcbnew,9.99.0-86-g03af293683*%
%TF.CreationDate,2025-02-25T09:18:42+01:00*%
%TF.ProjectId,RemBrake,52656d42-7261-46b6-952e-6b696361645f,2.0*%
%TF.SameCoordinates,PX7270e00PY8583b00*%
%TF.FileFunction,Copper,L1,Top*%
%TF.FilePolarity,Positive*%
%FSLAX46Y46*%
G04 Gerber Fmt 4.6, Leading zero omitted, Abs format (unit mm)*
G04 Created by KiCad (PCBNEW 9.99.0-86-g03af293683) date 2025-02-25 09:18:42*
%MOMM*%
%LPD*%
G01*
G04 APERTURE LIST*
G04 Aperture macros list*
%AMRoundRect*
0 Rectangle with rounded corners*
0 $1 Rounding radius*
0 $2 $3 $4 $5 $6 $7 $8 $9 X,Y pos of 4 corners*
0 Add a 4 corners polygon primitive as box body*
4,1,4,$2,$3,$4,$5,$6,$7,$8,$9,$2,$3,0*
0 Add four circle primitives for the rounded corners*
1,1,$1+$1,$2,$3*
1,1,$1+$1,$4,$5*
1,1,$1+$1,$6,$7*
1,1,$1+$1,$8,$9*
0 Add four rect primitives between the rounded corners*
20,1,$1+$1,$2,$3,$4,$5,0*
20,1,$1+$1,$4,$5,$6,$7,0*
20,1,$1+$1,$6,$7,$8,$9,0*
20,1,$1+$1,$8,$9,$2,$3,0*%
%AMFreePoly0*
4,1,21,1.372500,0.787500,0.862500,0.787500,0.862500,0.532500,1.372500,0.532500,1.372500,0.127500,0.862500,0.127500,0.862500,-0.127500,1.372500,-0.127500,1.372500,-0.532500,0.862500,-0.532500,0.862500,-0.787500,1.372500,-0.787500,1.372500,-1.195000,0.612500,-1.195000,0.612500,-1.117500,-0.862500,-1.117500,-0.862500,1.117500,0.612500,1.117500,0.612500,1.195000,1.372500,1.195000,
1.372500,0.787500,1.372500,0.787500,$1*%
G04 Aperture macros list end*
%TA.AperFunction,SMDPad,CuDef*%
%ADD10R,1.500000X1.500000*%
%TD*%
%TA.AperFunction,SMDPad,CuDef*%
%ADD11RoundRect,0.150000X-0.150000X0.587500X-0.150000X-0.587500X0.150000X-0.587500X0.150000X0.587500X0*%
%TD*%
%TA.AperFunction,ComponentPad*%
%ADD12R,1.050000X1.500000*%
%TD*%
%TA.AperFunction,ComponentPad*%
%ADD13O,1.050000X1.500000*%
%TD*%
%TA.AperFunction,SMDPad,CuDef*%
%ADD14RoundRect,0.250000X0.350000X0.450000X-0.350000X0.450000X-0.350000X-0.450000X0.350000X-0.450000X0*%
%TD*%
%TA.AperFunction,SMDPad,CuDef*%
%ADD15RoundRect,0.150000X-0.150000X0.512500X-0.150000X-0.512500X0.150000X-0.512500X0.150000X0.512500X0*%
%TD*%
%TA.AperFunction,SMDPad,CuDef*%
%ADD16RoundRect,0.250000X-0.450000X0.350000X-0.450000X-0.350000X0.450000X-0.350000X0.450000X0.350000X0*%
%TD*%
%TA.AperFunction,SMDPad,CuDef*%
%ADD17RoundRect,0.225000X-0.225000X-0.375000X0.225000X-0.375000X0.225000X0.375000X-0.225000X0.375000X0*%
%TD*%
%TA.AperFunction,SMDPad,CuDef*%
%ADD18R,0.405000X0.990000*%
%TD*%
%TA.AperFunction,SMDPad,CuDef*%
%ADD19FreePoly0,90.000000*%
%TD*%
%TA.AperFunction,SMDPad,CuDef*%
%ADD20RoundRect,0.250000X0.475000X-0.337500X0.475000X0.337500X-0.475000X0.337500X-0.475000X-0.337500X0*%
%TD*%
%TA.AperFunction,SMDPad,CuDef*%
%ADD21RoundRect,0.250000X0.337500X0.475000X-0.337500X0.475000X-0.337500X-0.475000X0.337500X-0.475000X0*%
%TD*%
%TA.AperFunction,SMDPad,CuDef*%
%ADD22RoundRect,0.150000X0.150000X-0.587500X0.150000X0.587500X-0.150000X0.587500X-0.150000X-0.587500X0*%
%TD*%
%TA.AperFunction,ComponentPad*%
%ADD23R,2.200000X2.200000*%
%TD*%
%TA.AperFunction,ComponentPad*%
%ADD24C,2.200000*%
%TD*%
%TA.AperFunction,SMDPad,CuDef*%
%ADD25RoundRect,0.250000X-0.350000X-0.450000X0.350000X-0.450000X0.350000X0.450000X-0.350000X0.450000X0*%
%TD*%
%TA.AperFunction,SMDPad,CuDef*%
%ADD26RoundRect,0.250001X-0.462499X-0.624999X0.462499X-0.624999X0.462499X0.624999X-0.462499X0.624999X0*%
%TD*%
%TA.AperFunction,SMDPad,CuDef*%
%ADD27RoundRect,0.250000X1.100000X-0.250000X1.100000X0.250000X-1.100000X0.250000X-1.100000X-0.250000X0*%
%TD*%
%TA.AperFunction,SMDPad,CuDef*%
%ADD28RoundRect,0.250000X1.650000X-0.650000X1.650000X0.650000X-1.650000X0.650000X-1.650000X-0.650000X0*%
%TD*%
%TA.AperFunction,SMDPad,CuDef*%
%ADD29RoundRect,0.250000X0.450000X-0.350000X0.450000X0.350000X-0.450000X0.350000X-0.450000X-0.350000X0*%
%TD*%
%TA.AperFunction,SMDPad,CuDef*%
%ADD30RoundRect,0.250000X-0.475000X0.337500X-0.475000X-0.337500X0.475000X-0.337500X0.475000X0.337500X0*%
%TD*%
%TA.AperFunction,ComponentPad*%
%ADD31R,2.600000X2.600000*%
%TD*%
%TA.AperFunction,ComponentPad*%
%ADD32C,2.600000*%
%TD*%
%TA.AperFunction,SMDPad,CuDef*%
%ADD33R,1.900000X1.000000*%
%TD*%
%TA.AperFunction,SMDPad,CuDef*%
%ADD34RoundRect,0.250000X-0.337500X-0.475000X0.337500X-0.475000X0.337500X0.475000X-0.337500X0.475000X0*%
%TD*%
%TA.AperFunction,SMDPad,CuDef*%
%ADD35RoundRect,0.250001X-0.624999X0.462499X-0.624999X-0.462499X0.624999X-0.462499X0.624999X0.462499X0*%
%TD*%
%TA.AperFunction,SMDPad,CuDef*%
%ADD36RoundRect,0.062500X-0.350000X-0.062500X0.350000X-0.062500X0.350000X0.062500X-0.350000X0.062500X0*%
%TD*%
%TA.AperFunction,SMDPad,CuDef*%
%ADD37RoundRect,0.062500X-0.062500X-0.350000X0.062500X-0.350000X0.062500X0.350000X-0.062500X0.350000X0*%
%TD*%
%TA.AperFunction,HeatsinkPad*%
%ADD38C,0.500000*%
%TD*%
%TA.AperFunction,HeatsinkPad*%
%ADD39R,1.680000X1.680000*%
%TD*%
%TA.AperFunction,SMDPad,CuDef*%
%ADD40R,0.250000X0.700000*%
%TD*%
%TA.AperFunction,SMDPad,CuDef*%
%ADD41R,2.380000X1.660000*%
%TD*%
%TA.AperFunction,ComponentPad*%
%ADD42R,1.500000X1.050000*%
%TD*%
%TA.AperFunction,ComponentPad*%
%ADD43O,1.500000X1.050000*%
%TD*%
%TA.AperFunction,SMDPad,CuDef*%
%ADD44RoundRect,0.250000X2.000000X-0.400000X2.000000X0.400000X-2.000000X0.400000X-2.000000X-0.400000X0*%
%TD*%
%TA.AperFunction,SMDPad,CuDef*%
%ADD45RoundRect,0.250000X1.700000X-0.650000X1.700000X0.650000X-1.700000X0.650000X-1.700000X-0.650000X0*%
%TD*%
%TA.AperFunction,SMDPad,CuDef*%
%ADD46RoundRect,0.249999X-1.425001X0.450001X-1.425001X-0.450001X1.425001X-0.450001X1.425001X0.450001X0*%
%TD*%
%TA.AperFunction,SMDPad,CuDef*%
%ADD47R,1.000000X2.510000*%
%TD*%
%TA.AperFunction,SMDPad,CuDef*%
%ADD48RoundRect,0.150000X0.512500X0.150000X-0.512500X0.150000X-0.512500X-0.150000X0.512500X-0.150000X0*%
%TD*%
%TA.AperFunction,ComponentPad*%
%ADD49R,1.600000X1.600000*%
%TD*%
%TA.AperFunction,ComponentPad*%
%ADD50O,1.600000X1.600000*%
%TD*%
%TA.AperFunction,SMDPad,CuDef*%
%ADD51RoundRect,0.250001X0.462499X0.849999X-0.462499X0.849999X-0.462499X-0.849999X0.462499X-0.849999X0*%
%TD*%
%TA.AperFunction,ViaPad*%
%ADD52C,0.700000*%
%TD*%
%TA.AperFunction,Conductor*%
%ADD53C,0.250000*%
%TD*%
%TA.AperFunction,Conductor*%
%ADD54C,0.500000*%
%TD*%
%TA.AperFunction,Conductor*%
%ADD55C,1.000000*%
%TD*%
%TA.AperFunction,Conductor*%
%ADD56C,0.300000*%
%TD*%
%TA.AperFunction,Conductor*%
%ADD57C,0.600000*%
%TD*%
G04 APERTURE END LIST*
D10*
%TO.P,TP3,1,1*%
%TO.N,GND*%
X29210000Y31623000D03*
%TD*%
D11*
%TO.P,Q5,1,B*%
%TO.N,Net-(Q4-B)*%
X8570000Y47595000D03*
%TO.P,Q5,2,E*%
%TO.N,GND*%
X6670000Y47595000D03*
%TO.P,Q5,3,C*%
%TO.N,/brake_control/ENABLE*%
X7620000Y45720000D03*
%TD*%
D12*
%TO.P,Q2,1,C*%
%TO.N,Net-(Q2-C)*%
X23368000Y42418000D03*
D13*
%TO.P,Q2,2,B*%
%TO.N,Net-(Q2-B)*%
X24638000Y42418000D03*
%TO.P,Q2,3,E*%
%TO.N,Net-(Q2-E)*%
X25908000Y42418000D03*
%TD*%
D14*
%TO.P,R51,1*%
%TO.N,+3V3*%
X22717000Y61722000D03*
%TO.P,R51,2*%
%TO.N,Net-(IC1-~{ALCC})*%
X20717000Y61722000D03*
%TD*%
D15*
%TO.P,U4,1,VDD*%
%TO.N,Net-(U3-VOUT)*%
X16444000Y28188500D03*
%TO.P,U4,2,GND*%
%TO.N,GND*%
X15494000Y28188500D03*
%TO.P,U4,3,EN*%
%TO.N,Net-(U3-CE)*%
X14544000Y28188500D03*
%TO.P,U4,4,NC*%
%TO.N,unconnected-(U4-NC-Pad4)*%
X14544000Y25913500D03*
%TO.P,U4,5,OUT*%
%TO.N,+3V3*%
X16444000Y25913500D03*
%TD*%
D16*
%TO.P,R60,1*%
%TO.N,GND*%
X4191000Y75898000D03*
%TO.P,R60,2*%
%TO.N,Net-(Q8-B)*%
X4191000Y73898000D03*
%TD*%
D17*
%TO.P,D2,1,K*%
%TO.N,+5V*%
X16343000Y39116000D03*
%TO.P,D2,2,A*%
%TO.N,Net-(D2-A)*%
X19643000Y39116000D03*
%TD*%
D14*
%TO.P,R28,1*%
%TO.N,/control_connector/LED RED*%
X20939000Y42037000D03*
%TO.P,R28,2*%
%TO.N,/control_connector/RED*%
X18939000Y42037000D03*
%TD*%
D18*
%TO.P,Q1,1,S*%
%TO.N,/power_manager/VBATT*%
X22520000Y51970500D03*
%TO.P,Q1,2,S*%
X23180000Y51970500D03*
%TO.P,Q1,3,S*%
X23840000Y51970500D03*
%TO.P,Q1,4,G*%
%TO.N,Net-(Q1-G)*%
X24500000Y51970500D03*
D19*
%TO.P,Q1,5,D*%
%TO.N,+7.5V*%
X23510000Y53963000D03*
%TD*%
D20*
%TO.P,C1,1*%
%TO.N,/power_switch/BOOST*%
X28702000Y35792500D03*
%TO.P,C1,2*%
%TO.N,GND*%
X28702000Y37867500D03*
%TD*%
D15*
%TO.P,U6,1,VDD*%
%TO.N,/control_connector/LED GREEN*%
X23683000Y75559500D03*
%TO.P,U6,2,GND*%
%TO.N,GND*%
X22733000Y75559500D03*
%TO.P,U6,3,EN*%
%TO.N,Net-(U6-EN)*%
X21783000Y75559500D03*
%TO.P,U6,4,NC*%
%TO.N,unconnected-(U6-NC-Pad4)*%
X21783000Y73284500D03*
%TO.P,U6,5,OUT*%
%TO.N,Net-(M2-LED)*%
X23683000Y73284500D03*
%TD*%
D21*
%TO.P,C11,1*%
%TO.N,GND*%
X20505000Y54991000D03*
%TO.P,C11,2*%
%TO.N,/power_manager/VBATT*%
X18430000Y54991000D03*
%TD*%
D10*
%TO.P,TP4,1,1*%
%TO.N,Net-(IC1-~{ALCC})*%
X18592800Y62022000D03*
%TD*%
D14*
%TO.P,R21,1*%
%TO.N,Net-(Q4-B)*%
X9382000Y57658000D03*
%TO.P,R21,2*%
%TO.N,/brake_control/ENABLE*%
X7382000Y57658000D03*
%TD*%
D22*
%TO.P,Q7,1,B*%
%TO.N,Net-(Q6-B)*%
X24130000Y29415500D03*
%TO.P,Q7,2,E*%
%TO.N,GND*%
X26030000Y29415500D03*
%TO.P,Q7,3,C*%
%TO.N,/brake_control/BUZZER*%
X25080000Y31290500D03*
%TD*%
D23*
%TO.P,J3,1,Pin_1*%
%TO.N,/power_switch/BOOST*%
X33416000Y35245400D03*
D24*
%TO.P,J3,2,Pin_2*%
%TO.N,GND*%
X33416000Y37785400D03*
%TO.P,J3,3,Pin_3*%
%TO.N,/power_switch/ON{slash}OFF*%
X33416000Y40325400D03*
%TO.P,J3,4,Pin_4*%
%TO.N,/power_manager/VBATT*%
X33416000Y42865400D03*
%TD*%
D25*
%TO.P,R14,1*%
%TO.N,/control_connector/LED RED*%
X22130000Y48006000D03*
%TO.P,R14,2*%
%TO.N,Net-(Q1-G)*%
X24130000Y48006000D03*
%TD*%
D15*
%TO.P,U3,1,VIN*%
%TO.N,+5V*%
X16444000Y34538500D03*
%TO.P,U3,2,GND*%
%TO.N,GND*%
X15494000Y34538500D03*
%TO.P,U3,3,CE*%
%TO.N,Net-(U3-CE)*%
X14544000Y34538500D03*
%TO.P,U3,4,NC*%
%TO.N,unconnected-(U3-NC-Pad4)*%
X14544000Y32263500D03*
%TO.P,U3,5,VOUT*%
%TO.N,Net-(U3-VOUT)*%
X16444000Y32263500D03*
%TD*%
D26*
%TO.P,F2,1*%
%TO.N,/power_manager/BAT+*%
X18466500Y64562000D03*
%TO.P,F2,2*%
%TO.N,Net-(J2-Pin_1)*%
X21441500Y64562000D03*
%TD*%
D25*
%TO.P,R7,1*%
%TO.N,Net-(D2-A)*%
X20209000Y33147000D03*
%TO.P,R7,2*%
%TO.N,Net-(U1-PG)*%
X22209000Y33147000D03*
%TD*%
D27*
%TO.P,J4,1,Pin_1*%
%TO.N,+5V*%
X28829000Y6858000D03*
%TO.P,J4,2,Pin_2*%
%TO.N,/brake_control/DISPLAY.DCKI*%
X28829000Y8858000D03*
%TO.P,J4,3,Pin_3*%
%TO.N,/brake_control/DISPLAY.DI*%
X28829000Y10858000D03*
%TO.P,J4,4,Pin_4*%
%TO.N,GND*%
X28829000Y12858000D03*
%TO.P,J4,5,Pin_5*%
%TO.N,+3V3*%
X28829000Y14858000D03*
%TO.P,J4,6,Pin_6*%
%TO.N,/control_connector/BLUE*%
X28829000Y16858000D03*
%TO.P,J4,7,Pin_7*%
%TO.N,/control_connector/GREEN*%
X28829000Y18858000D03*
%TO.P,J4,8,Pin_8*%
%TO.N,/control_connector/RED*%
X28829000Y20858000D03*
D28*
%TO.P,J4,MP,MountPin*%
%TO.N,GND*%
X33279000Y4508000D03*
X33279000Y23208000D03*
%TD*%
D29*
%TO.P,R59,1*%
%TO.N,/brake_control/STATUS*%
X8382000Y65024000D03*
%TO.P,R59,2*%
%TO.N,Net-(Q8-C)*%
X8382000Y67024000D03*
%TD*%
D21*
%TO.P,C4,1*%
%TO.N,Net-(U3-VOUT)*%
X17547500Y30226000D03*
%TO.P,C4,2*%
%TO.N,GND*%
X15472500Y30226000D03*
%TD*%
D22*
%TO.P,Q9,1,B*%
%TO.N,Net-(Q8-B)*%
X6223000Y73974000D03*
%TO.P,Q9,2,E*%
%TO.N,GND*%
X8123000Y73974000D03*
%TO.P,Q9,3,C*%
%TO.N,Net-(Q8-C)*%
X7173000Y75849000D03*
%TD*%
D14*
%TO.P,R58,1*%
%TO.N,+3V3*%
X17113000Y16510000D03*
%TO.P,R58,2*%
%TO.N,/brake_control/STATUS*%
X15113000Y16510000D03*
%TD*%
D30*
%TO.P,C7,1*%
%TO.N,/brake_control/STATUS*%
X12827000Y16531500D03*
%TO.P,C7,2*%
%TO.N,GND*%
X12827000Y14456500D03*
%TD*%
D20*
%TO.P,C8,1*%
%TO.N,+3V3*%
X12827000Y10414000D03*
%TO.P,C8,2*%
%TO.N,GND*%
X12827000Y12489000D03*
%TD*%
D14*
%TO.P,R27,1*%
%TO.N,/brake_control/VBUS*%
X16240000Y75692000D03*
%TO.P,R27,2*%
%TO.N,Net-(U2-VDD)*%
X14240000Y75692000D03*
%TD*%
D31*
%TO.P,J1,1,Pin_1*%
%TO.N,GND*%
X31892200Y54797600D03*
D32*
%TO.P,J1,2,Pin_2*%
%TO.N,Net-(J1-Pin_2)*%
X31892200Y59797600D03*
%TD*%
D12*
%TO.P,Q6,1,C*%
%TO.N,Net-(Q6-C)*%
X25400000Y26268000D03*
D13*
%TO.P,Q6,2,B*%
%TO.N,Net-(Q6-B)*%
X24130000Y26268000D03*
%TO.P,Q6,3,E*%
%TO.N,Net-(Q6-E)*%
X22860000Y26268000D03*
%TD*%
D10*
%TO.P,TP1,1,1*%
%TO.N,Net-(U3-VOUT)*%
X19812000Y30861000D03*
%TD*%
D33*
%TO.P,J7,1,Pin_1*%
%TO.N,/brake_control/STATUS*%
X4715000Y20620000D03*
%TO.P,J7,2,Pin_2*%
%TO.N,/brake_control/ENABLE*%
X8015000Y18080000D03*
%TO.P,J7,3,Pin_3*%
%TO.N,/brake_control/POWER SW*%
X4715000Y15540000D03*
%TO.P,J7,4,Pin_4*%
%TO.N,/brake_control/SERVO*%
X8015000Y13000000D03*
%TO.P,J7,5,Pin_5*%
%TO.N,/brake_control/I2C.SDA*%
X4715000Y10460000D03*
%TO.P,J7,6,Pin_6*%
%TO.N,/brake_control/I2C.SCL*%
X8015000Y7920000D03*
%TO.P,J7,7,Pin_7*%
%TO.N,/brake_control/RF SWITCH*%
X4715000Y5380000D03*
%TD*%
D21*
%TO.P,C9,1*%
%TO.N,+3V3*%
X17145000Y12446000D03*
%TO.P,C9,2*%
%TO.N,GND*%
X15070000Y12446000D03*
%TD*%
D34*
%TO.P,C3,1*%
%TO.N,Net-(D2-A)*%
X22076500Y38608000D03*
%TO.P,C3,2*%
%TO.N,GND*%
X24151500Y38608000D03*
%TD*%
D16*
%TO.P,R26,1*%
%TO.N,GND*%
X4699000Y47720000D03*
%TO.P,R26,2*%
%TO.N,/brake_control/ENABLE*%
X4699000Y45720000D03*
%TD*%
D35*
%TO.P,F1,1*%
%TO.N,Net-(J2-Pin_1)*%
X24765000Y61812500D03*
%TO.P,F1,2*%
%TO.N,Net-(J1-Pin_2)*%
X24765000Y58837500D03*
%TD*%
D16*
%TO.P,R37,1*%
%TO.N,/brake_control/BUZZER*%
X28956000Y28178000D03*
%TO.P,R37,2*%
%TO.N,Net-(Q6-C)*%
X28956000Y26178000D03*
%TD*%
D25*
%TO.P,R12,1*%
%TO.N,/control_connector/LED RED*%
X22130000Y46101000D03*
%TO.P,R12,2*%
%TO.N,Net-(Q2-B)*%
X24130000Y46101000D03*
%TD*%
D36*
%TO.P,U1,1,SW*%
%TO.N,Net-(L1-Pad1)*%
X23937500Y35675000D03*
%TO.P,U1,2,SW*%
X23937500Y35175000D03*
%TO.P,U1,3,SW*%
X23937500Y34675000D03*
%TO.P,U1,4,PG*%
%TO.N,Net-(U1-PG)*%
X23937500Y34175000D03*
D37*
%TO.P,U1,5,FB*%
%TO.N,Net-(U1-FB)*%
X24650000Y33462500D03*
%TO.P,U1,6,GND*%
%TO.N,GND*%
X25150000Y33462500D03*
%TO.P,U1,7,FSW*%
%TO.N,Net-(D2-A)*%
X25650000Y33462500D03*
%TO.P,U1,8,DEF*%
%TO.N,GND*%
X26150000Y33462500D03*
D36*
%TO.P,U1,9,SS/TR*%
%TO.N,Net-(U1-SS{slash}TR)*%
X26862500Y34175000D03*
%TO.P,U1,10,VIN*%
%TO.N,/power_switch/BOOST*%
X26862500Y34675000D03*
%TO.P,U1,11,VIN*%
X26862500Y35175000D03*
%TO.P,U1,12,VIN*%
X26862500Y35675000D03*
D37*
%TO.P,U1,13,EN*%
X26150000Y36387500D03*
%TO.P,U1,14,VOS*%
%TO.N,Net-(D2-A)*%
X25650000Y36387500D03*
%TO.P,U1,15,GND*%
%TO.N,GND*%
X25150000Y36387500D03*
%TO.P,U1,16,GND*%
X24650000Y36387500D03*
D38*
%TO.P,U1,17,GND*%
X24860000Y35465000D03*
X24860000Y34385000D03*
D39*
X25400000Y34925000D03*
D38*
X25940000Y35465000D03*
X25940000Y34385000D03*
%TD*%
D29*
%TO.P,R62,1*%
%TO.N,GND*%
X4064000Y65024000D03*
%TO.P,R62,2*%
%TO.N,Net-(Q8-E)*%
X4064000Y67024000D03*
%TD*%
%TO.P,R6,1*%
%TO.N,Net-(Q2-B)*%
X26289000Y45990000D03*
%TO.P,R6,2*%
%TO.N,Net-(Q1-G)*%
X26289000Y47990000D03*
%TD*%
D21*
%TO.P,C10,1*%
%TO.N,+3V3*%
X17145000Y14478000D03*
%TO.P,C10,2*%
%TO.N,GND*%
X15070000Y14478000D03*
%TD*%
D14*
%TO.P,R15,1*%
%TO.N,+5V*%
X16494000Y36576000D03*
%TO.P,R15,2*%
%TO.N,Net-(U3-CE)*%
X14494000Y36576000D03*
%TD*%
D40*
%TO.P,IC1,1,SENSE+*%
%TO.N,/power_manager/VBATT*%
X18696000Y57066000D03*
%TO.P,IC1,2,GND_1*%
%TO.N,GND*%
X19196000Y57066000D03*
%TO.P,IC1,3,GND_2*%
X19696000Y57066000D03*
%TO.P,IC1,4,SCL*%
%TO.N,/brake_control/I2C.SCL*%
X20196000Y57066000D03*
%TO.P,IC1,5,SDA*%
%TO.N,/brake_control/I2C.SDA*%
X20196000Y59866000D03*
%TO.P,IC1,6,~{ALCC}*%
%TO.N,Net-(IC1-~{ALCC})*%
X19696000Y59866000D03*
%TO.P,IC1,7,GND_3*%
%TO.N,GND*%
X19196000Y59866000D03*
%TO.P,IC1,8,SENSE-*%
%TO.N,/power_manager/BAT+*%
X18696000Y59866000D03*
D41*
%TO.P,IC1,9,EP*%
%TO.N,GND*%
X19446000Y58466000D03*
%TD*%
D25*
%TO.P,R1,1*%
%TO.N,/power_manager/VBATT*%
X22130000Y49911000D03*
%TO.P,R1,2*%
%TO.N,Net-(Q1-G)*%
X24130000Y49911000D03*
%TD*%
D15*
%TO.P,U7,1,VDD*%
%TO.N,/brake_control/VBUS*%
X16129000Y73654500D03*
%TO.P,U7,2,GND*%
%TO.N,GND*%
X15179000Y73654500D03*
%TO.P,U7,3,EN*%
%TO.N,/brake_control/ENABLE*%
X14229000Y73654500D03*
%TO.P,U7,4,NC*%
%TO.N,unconnected-(U7-NC-Pad4)*%
X14229000Y71379500D03*
%TO.P,U7,5,OUT*%
%TO.N,Net-(M2-Vin)*%
X16129000Y71379500D03*
%TD*%
D14*
%TO.P,R22,1*%
%TO.N,Net-(Q4-C)*%
X9382000Y55499000D03*
%TO.P,R22,2*%
%TO.N,/brake_control/ENABLE*%
X7382000Y55499000D03*
%TD*%
%TO.P,R29,1*%
%TO.N,/control_connector/LED GREEN*%
X22733000Y71247000D03*
%TO.P,R29,2*%
%TO.N,/control_connector/GREEN*%
X20733000Y71247000D03*
%TD*%
D16*
%TO.P,R36,1*%
%TO.N,/brake_control/BUZZER*%
X22098000Y31226000D03*
%TO.P,R36,2*%
%TO.N,Net-(Q6-B)*%
X22098000Y29226000D03*
%TD*%
D42*
%TO.P,Q4,1,C*%
%TO.N,Net-(Q4-C)*%
X8382000Y52959000D03*
D43*
%TO.P,Q4,2,B*%
%TO.N,Net-(Q4-B)*%
X8382000Y51689000D03*
%TO.P,Q4,3,E*%
%TO.N,Net-(Q4-E)*%
X8382000Y50419000D03*
%TD*%
D29*
%TO.P,R20,1*%
%TO.N,/brake_control/ENABLE*%
X9398000Y59706000D03*
%TO.P,R20,2*%
%TO.N,Net-(U2-VDD)*%
X9398000Y61706000D03*
%TD*%
D44*
%TO.P,J2,1,Pin_1*%
%TO.N,Net-(J2-Pin_1)*%
X27727600Y67396000D03*
%TO.P,J2,2,Pin_2*%
%TO.N,/power_manager/BM*%
X27727600Y69896000D03*
%TO.P,J2,3,Pin_3*%
%TO.N,GND*%
X27727600Y72396000D03*
D45*
%TO.P,J2,MP,MountPin*%
X34527600Y64196000D03*
X34527600Y75596000D03*
%TD*%
D25*
%TO.P,R30,1*%
%TO.N,/brake_control/STATUS*%
X15113000Y18542000D03*
%TO.P,R30,2*%
%TO.N,/control_connector/BLUE*%
X17113000Y18542000D03*
%TD*%
D46*
%TO.P,R53,1*%
%TO.N,/power_manager/BAT+*%
X15382000Y61262000D03*
%TO.P,R53,2*%
%TO.N,/power_manager/VBATT*%
X15382000Y55162000D03*
%TD*%
D47*
%TO.P,J9,1,Pin_1*%
%TO.N,/brake_control/SERVO*%
X30114000Y46672400D03*
%TO.P,J9,2,Pin_2*%
%TO.N,+7.5V*%
X32654000Y49982400D03*
%TO.P,J9,3,Pin_3*%
%TO.N,GND*%
X35194000Y46672400D03*
%TD*%
D48*
%TO.P,U2,1,VOUT*%
%TO.N,/brake_control/ENABLE*%
X7233500Y59756000D03*
%TO.P,U2,2,VDD*%
%TO.N,Net-(U2-VDD)*%
X7233500Y60706000D03*
%TO.P,U2,3,GND*%
%TO.N,GND*%
X7233500Y61656000D03*
%TO.P,U2,4*%
%TO.N,N/C*%
X4958500Y61656000D03*
%TO.P,U2,5*%
X4958500Y59756000D03*
%TD*%
D16*
%TO.P,R52,1*%
%TO.N,+3V3*%
X32385000Y32258000D03*
%TO.P,R52,2*%
%TO.N,/brake_control/I2C.SCL*%
X32385000Y30258000D03*
%TD*%
D14*
%TO.P,R25,1*%
%TO.N,Net-(U2-VDD)*%
X12176000Y75692000D03*
%TO.P,R25,2*%
%TO.N,GND*%
X10176000Y75692000D03*
%TD*%
D29*
%TO.P,R8,1*%
%TO.N,GND*%
X28321000Y41799000D03*
%TO.P,R8,2*%
%TO.N,Net-(Q2-B)*%
X28321000Y43799000D03*
%TD*%
D49*
%TO.P,U5,1,GND*%
%TO.N,GND*%
X4318000Y41656000D03*
D50*
%TO.P,U5,2,TR*%
%TO.N,Net-(U5-THR)*%
X4318000Y39116000D03*
%TO.P,U5,3,Q*%
%TO.N,Net-(U5-Q)*%
X4318000Y36576000D03*
%TO.P,U5,4,R*%
%TO.N,/brake_control/STATUS*%
X4318000Y34036000D03*
%TO.P,U5,5,CV*%
%TO.N,Net-(U5-CV)*%
X11938000Y34036000D03*
%TO.P,U5,6,THR*%
%TO.N,Net-(U5-THR)*%
X11938000Y36576000D03*
%TO.P,U5,7,DIS*%
%TO.N,Net-(U5-DIS)*%
X11938000Y39116000D03*
%TO.P,U5,8,VCC*%
%TO.N,+5V*%
X11938000Y41656000D03*
%TD*%
D12*
%TO.P,Q8,1,C*%
%TO.N,Net-(Q8-C)*%
X7493000Y70769000D03*
D13*
%TO.P,Q8,2,B*%
%TO.N,Net-(Q8-B)*%
X6223000Y70769000D03*
%TO.P,Q8,3,E*%
%TO.N,Net-(Q8-E)*%
X4953000Y70769000D03*
%TD*%
D16*
%TO.P,R50,1*%
%TO.N,+3V3*%
X35306000Y32258000D03*
%TO.P,R50,2*%
%TO.N,/brake_control/I2C.SDA*%
X35306000Y30258000D03*
%TD*%
D29*
%TO.P,R61,1*%
%TO.N,+3V3*%
X20828000Y67326000D03*
%TO.P,R61,2*%
%TO.N,/control_connector/LED GREEN*%
X20828000Y69326000D03*
%TD*%
D33*
%TO.P,J8,1,Pin_1*%
%TO.N,/brake_control/VBUS*%
X19955000Y20620000D03*
%TO.P,J8,2,Pin_2*%
%TO.N,GND*%
X23255000Y18080000D03*
%TO.P,J8,3,Pin_3*%
%TO.N,+3V3*%
X19955000Y15540000D03*
%TO.P,J8,4,Pin_4*%
%TO.N,/brake_control/BUZZ*%
X23255000Y13000000D03*
%TO.P,J8,5,Pin_5*%
%TO.N,/brake_control/BTN*%
X19955000Y10460000D03*
%TO.P,J8,6,Pin_6*%
%TO.N,/brake_control/DISPLAY.DI*%
X23255000Y7920000D03*
%TO.P,J8,7,Pin_7*%
%TO.N,/brake_control/DISPLAY.DCKI*%
X19955000Y5380000D03*
%TD*%
D51*
%TO.P,L1,1,1*%
%TO.N,Net-(L1-Pad1)*%
X22137000Y35687000D03*
%TO.P,L1,2,2*%
%TO.N,Net-(D2-A)*%
X19812000Y35687000D03*
%TD*%
D29*
%TO.P,R57,1*%
%TO.N,/brake_control/STATUS*%
X6223000Y65024000D03*
%TO.P,R57,2*%
%TO.N,Net-(Q8-B)*%
X6223000Y67024000D03*
%TD*%
%TO.P,R63,1*%
%TO.N,Net-(M2-Vin)*%
X19812000Y73565000D03*
%TO.P,R63,2*%
%TO.N,Net-(U6-EN)*%
X19812000Y75565000D03*
%TD*%
D52*
%TO.N,GND*%
X12141200Y31292800D03*
X6477000Y10541000D03*
X14351000Y58420000D03*
X6477000Y4445000D03*
X15189200Y72390000D03*
X12446000Y25273000D03*
%TO.N,+5V*%
X11684000Y7186000D03*
%TO.N,/brake_control/I2C.SDA*%
X21590000Y8255000D03*
X21844000Y59690000D03*
X34163000Y29210000D03*
%TO.N,/brake_control/I2C.SCL*%
X20574000Y7366000D03*
X32385000Y29210000D03*
X21844000Y57658000D03*
%TO.N,/brake_control/SERVO*%
X8280400Y14478000D03*
X10541000Y25527000D03*
%TO.N,Net-(U1-SS{slash}TR)*%
X27432000Y33147000D03*
%TO.N,/brake_control/BUZZER*%
X32101500Y19350260D03*
%TO.N,/brake_control/BUZZ*%
X27432000Y25400000D03*
%TO.N,Net-(D2-A)*%
X25654000Y32512000D03*
X20447000Y37465000D03*
X25654000Y37465000D03*
%TO.N,+3V3*%
X16002000Y23876000D03*
X31242000Y32258000D03*
X19177000Y67310000D03*
X10922000Y10414000D03*
X23114000Y60833000D03*
%TO.N,/power_manager/VBATT*%
X20828000Y53386000D03*
X20828000Y51862000D03*
X20828000Y50338000D03*
%TO.N,/power_manager/BM*%
X24892000Y69896000D03*
%TO.N,/brake_control/POWER SW*%
X6223000Y14478000D03*
%TO.N,/control_connector/LED RED*%
X20828000Y43053000D03*
%TO.N,/brake_control/RF SWITCH*%
X17145000Y2794000D03*
%TO.N,Net-(U1-FB)*%
X24384000Y32512000D03*
%TO.N,Net-(M2-LED)*%
X25019000Y73406000D03*
%TO.N,Net-(M2-Vin)*%
X16764000Y72517000D03*
X19177000Y72263000D03*
%TO.N,/brake_control/BTN*%
X23749000Y10464800D03*
%TD*%
D53*
%TO.N,GND*%
X26150000Y33794000D02*
X26111200Y33832800D01*
X19196000Y58216000D02*
X19446000Y58466000D01*
X19696000Y57066000D02*
X19696000Y58216000D01*
X26111200Y34213800D02*
X25940000Y34385000D01*
X25150000Y34675000D02*
X25400000Y34925000D01*
X25150000Y33462500D02*
X25150000Y34675000D01*
X19196000Y57066000D02*
X19196000Y58216000D01*
X19196000Y58716000D02*
X19446000Y58466000D01*
X19196000Y59866000D02*
X19196000Y58716000D01*
X26111200Y33832800D02*
X26111200Y34213800D01*
X19696000Y58216000D02*
X19446000Y58466000D01*
X26150000Y33462500D02*
X26150000Y33794000D01*
D54*
X35194000Y46672400D02*
X35194000Y45862000D01*
D55*
%TO.N,+5V*%
X15293000Y7186000D02*
X18415000Y4064000D01*
X28829000Y6858000D02*
X28067000Y6858000D01*
X11684000Y7186000D02*
X15293000Y7186000D01*
X28067000Y6858000D02*
X25273000Y4064000D01*
X25273000Y4064000D02*
X18415000Y4064000D01*
D56*
%TO.N,/brake_control/I2C.SDA*%
X4715000Y10460000D02*
X5161000Y10460000D01*
X5161000Y10460000D02*
X6295500Y9325500D01*
X21590000Y8255000D02*
X20519500Y9325500D01*
X35306000Y30258000D02*
X35211000Y30258000D01*
X20519500Y9325500D02*
X6295500Y9325500D01*
X35211000Y30258000D02*
X34163000Y29210000D01*
%TO.N,/brake_control/I2C.SCL*%
X32385000Y29210000D02*
X32385000Y30258000D01*
X19315500Y8624500D02*
X20574000Y7366000D01*
X8428000Y7920000D02*
X9132500Y8624500D01*
X9132500Y8624500D02*
X19315500Y8624500D01*
X8015000Y7920000D02*
X8428000Y7920000D01*
%TO.N,/brake_control/DISPLAY.DCKI*%
X23287000Y5380000D02*
X19955000Y5380000D01*
X28829000Y8858000D02*
X26765000Y8858000D01*
X26765000Y8858000D02*
X23287000Y5380000D01*
%TO.N,/brake_control/SERVO*%
X10587000Y42215603D02*
X10919199Y42547801D01*
X30114000Y41529000D02*
X30114000Y46672400D01*
X10587000Y25573000D02*
X10587000Y42215603D01*
X11385397Y43014000D02*
X15049636Y43014000D01*
X17423636Y40640000D02*
X29225000Y40640000D01*
X10919199Y42547801D02*
X11385397Y43014000D01*
X29225000Y40640000D02*
X30114000Y41529000D01*
X15049636Y43014000D02*
X17423636Y40640000D01*
X10541000Y25527000D02*
X10587000Y25573000D01*
D55*
%TO.N,/brake_control/VBUS*%
X7888001Y23279083D02*
X9956584Y21210500D01*
X18015000Y70031338D02*
X17552831Y69569169D01*
X17106662Y69123000D02*
X13407662Y69123000D01*
X9956584Y21210500D02*
X19364499Y21210501D01*
X12105000Y67820338D02*
X12105001Y65405000D01*
X19364499Y21210501D02*
X19955000Y20620000D01*
X17137000Y74795000D02*
X18015000Y73917000D01*
X12105000Y47202669D02*
X7888000Y42985668D01*
X7888000Y42985668D02*
X7888001Y23279083D01*
X12105001Y65405000D02*
X12105000Y47202669D01*
X13407662Y69123000D02*
X12105000Y67820338D01*
X18015000Y70031338D02*
X17106662Y69123000D01*
X16240000Y75692000D02*
X17137000Y74795000D01*
X18015000Y73917000D02*
X18015000Y70031338D01*
D53*
%TO.N,Net-(U1-SS{slash}TR)*%
X26862500Y34175000D02*
X27039000Y34175000D01*
X27432000Y33782000D02*
X27432000Y33147000D01*
X27039000Y34175000D02*
X27432000Y33782000D01*
D56*
%TO.N,/brake_control/BUZZER*%
X28956000Y28178000D02*
X29099000Y28178000D01*
D54*
X25015500Y31226000D02*
X25080000Y31290500D01*
D56*
X30107000Y23016108D02*
X30107000Y27170000D01*
X32101500Y21021608D02*
X32101500Y19350260D01*
D57*
X25080000Y28387000D02*
X25289000Y28178000D01*
D56*
X31387554Y21735554D02*
X32101500Y21021608D01*
X29099000Y28178000D02*
X30107000Y27170000D01*
D57*
X25080000Y31290500D02*
X25080000Y28387000D01*
X25289000Y28178000D02*
X28956000Y28178000D01*
D56*
X31387554Y21735554D02*
X30107000Y23016108D01*
%TO.N,/brake_control/DISPLAY.DI*%
X28829000Y10858000D02*
X26860000Y10858000D01*
X23922000Y7920000D02*
X23255000Y7920000D01*
X26860000Y10858000D02*
X23922000Y7920000D01*
%TO.N,/brake_control/BUZZ*%
X29210000Y22825292D02*
X31051500Y20983792D01*
X30734000Y13843000D02*
X24511000Y13843000D01*
X27432000Y25400000D02*
X29210000Y23622000D01*
X31051500Y20983792D02*
X31051500Y14160500D01*
X31051500Y14160500D02*
X30734000Y13843000D01*
X23668000Y13000000D02*
X23255000Y13000000D01*
X24511000Y13843000D02*
X23668000Y13000000D01*
X29210000Y23622000D02*
X29210000Y22825292D01*
D53*
%TO.N,Net-(D2-A)*%
X25650000Y36387500D02*
X25650000Y37461000D01*
X25650000Y32516000D02*
X25654000Y32512000D01*
X25650000Y37461000D02*
X25654000Y37465000D01*
X25650000Y33462500D02*
X25650000Y32516000D01*
%TO.N,/power_switch/BOOST*%
X26862500Y34675000D02*
X27428000Y34675000D01*
X28194000Y33909000D02*
X32079600Y33909000D01*
X27428000Y34675000D02*
X28194000Y33909000D01*
X32079600Y33909000D02*
X33416000Y35245400D01*
D55*
%TO.N,+3V3*%
X28829000Y14858000D02*
X20637000Y14858000D01*
D57*
X16444000Y24318000D02*
X16002000Y23876000D01*
D55*
X20637000Y14858000D02*
X19955000Y15540000D01*
D57*
X16444000Y25913500D02*
X16444000Y24318000D01*
D53*
%TO.N,Net-(IC1-~{ALCC})*%
X19696000Y60918800D02*
X18592800Y62022000D01*
X19696000Y59866000D02*
X19696000Y60918800D01*
D54*
%TO.N,/power_manager/BM*%
X24892000Y69896000D02*
X27727600Y69896000D01*
D56*
%TO.N,/brake_control/STATUS*%
X4715000Y17129000D02*
X4715000Y20620000D01*
X6223000Y65024000D02*
X4699000Y63500000D01*
X4889500Y16954500D02*
X4715000Y17129000D01*
X5852500Y16954500D02*
X4889500Y16954500D01*
X3302000Y63500000D02*
X1905000Y62103000D01*
D54*
X8382000Y65024000D02*
X6223000Y65024000D01*
D56*
X4318000Y34036000D02*
X4318000Y21017000D01*
X4318000Y21017000D02*
X4715000Y20620000D01*
X12827000Y16531500D02*
X12827000Y16510000D01*
X12827000Y16510000D02*
X11938000Y15621000D01*
D54*
X15113000Y16510000D02*
X12848500Y16510000D01*
D56*
X1905000Y62103000D02*
X1905000Y36449000D01*
X11938000Y15621000D02*
X7186000Y15621000D01*
X4699000Y63500000D02*
X3302000Y63500000D01*
X1905000Y36449000D02*
X4318000Y34036000D01*
D54*
X12848500Y16510000D02*
X12827000Y16531500D01*
D56*
X7186000Y15621000D02*
X5852500Y16954500D01*
D54*
X15113000Y18542000D02*
X15113000Y16510000D01*
D56*
%TO.N,/brake_control/ENABLE*%
X7620000Y44204006D02*
X7620000Y45720000D01*
X6161000Y54278000D02*
X7382000Y55499000D01*
X7620000Y45720000D02*
X7620000Y48378022D01*
X10668000Y60976000D02*
X10668000Y69850000D01*
X9398000Y59706000D02*
X10668000Y60976000D01*
X10668000Y69850000D02*
X14229000Y73411000D01*
X14229000Y73411000D02*
X14229000Y73654500D01*
X8015000Y18080000D02*
X8015000Y21665746D01*
X6161000Y49837022D02*
X6161000Y54278000D01*
X8015000Y21665746D02*
X6837001Y22843745D01*
X7620000Y48378022D02*
X6161000Y49837022D01*
X6837000Y43421006D02*
X7620000Y44204006D01*
X6837001Y22843745D02*
X6837000Y43421006D01*
%TO.N,/control_connector/LED GREEN*%
X22733000Y71247000D02*
X22733000Y71231000D01*
X22733000Y74042900D02*
X23683000Y74992900D01*
X22733000Y71247000D02*
X22733000Y74042900D01*
X23683000Y74992900D02*
X23683000Y75559500D01*
X22733000Y71231000D02*
X20828000Y69326000D01*
%TO.N,/brake_control/RF SWITCH*%
X17145000Y2794000D02*
X15875000Y2794000D01*
X15875000Y2794000D02*
X13289000Y5380000D01*
X13289000Y5380000D02*
X4715000Y5380000D01*
%TO.N,Net-(Q4-B)*%
X7081000Y49908386D02*
X7081000Y51277000D01*
X8570000Y48961000D02*
X8144807Y49386193D01*
X7493000Y51689000D02*
X8382000Y51689000D01*
X8382000Y51689000D02*
X10033000Y51689000D01*
X10033000Y51689000D02*
X10541000Y52197000D01*
X8570000Y47595000D02*
X8570000Y48961000D01*
X8144807Y49386193D02*
X7603193Y49386193D01*
X10541000Y56499000D02*
X9382000Y57658000D01*
X7603193Y49386193D02*
X7081000Y49908386D01*
X7081000Y51277000D02*
X7493000Y51689000D01*
X10541000Y52197000D02*
X10541000Y56499000D01*
%TO.N,Net-(Q4-C)*%
X8382000Y54499000D02*
X9382000Y55499000D01*
X8382000Y52959000D02*
X8382000Y54499000D01*
D57*
%TO.N,Net-(Q8-C)*%
X7173000Y75849000D02*
X7173000Y72821000D01*
X7493000Y72501000D02*
X7493000Y70769000D01*
X7173000Y72821000D02*
X7493000Y72501000D01*
D53*
%TO.N,Net-(U1-PG)*%
X23937500Y33462500D02*
X23495000Y33020000D01*
X23495000Y33020000D02*
X22209000Y33020000D01*
X23937500Y34175000D02*
X23937500Y33462500D01*
D57*
%TO.N,Net-(U3-CE)*%
X13743000Y29818000D02*
X14544000Y29017000D01*
X14544000Y36526000D02*
X14494000Y36576000D01*
X14348190Y33655000D02*
X13743000Y33049810D01*
X14544000Y34538500D02*
X14544000Y33848000D01*
X14544000Y29017000D02*
X14544000Y28188500D01*
X14544000Y33848000D02*
X14351000Y33655000D01*
X13743000Y33049810D02*
X13743000Y29818000D01*
X14544000Y34538500D02*
X14544000Y36526000D01*
X14351000Y33655000D02*
X14348190Y33655000D01*
D53*
%TO.N,Net-(U1-FB)*%
X24650000Y33462500D02*
X24650000Y33286000D01*
X24384000Y32512000D02*
X24384000Y33020000D01*
X24650000Y33286000D02*
X24384000Y33020000D01*
D54*
%TO.N,Net-(U2-VDD)*%
X12176000Y75692000D02*
X12176000Y72628000D01*
D57*
X7233500Y60706000D02*
X8398000Y60706000D01*
D54*
X9652000Y70104000D02*
X9652000Y61960000D01*
X12176000Y72628000D02*
X9652000Y70104000D01*
D57*
X8398000Y60706000D02*
X9398000Y61706000D01*
D54*
X9652000Y61960000D02*
X9398000Y61706000D01*
D57*
%TO.N,Net-(M2-Vin)*%
X16764000Y72517000D02*
X16764000Y72014500D01*
X16764000Y72014500D02*
X16129000Y71379500D01*
X19177000Y72263000D02*
X19177000Y72930000D01*
X19177000Y72930000D02*
X19812000Y73565000D01*
D56*
%TO.N,/control_connector/RED*%
X9640000Y24004786D02*
X9640000Y42259967D01*
X18939000Y42037000D02*
X17018000Y42037000D01*
X17018000Y42037000D02*
X15340000Y43715000D01*
X26767000Y20858000D02*
X24662500Y22962500D01*
X11095033Y43715000D02*
X13081000Y43715000D01*
X10682286Y22962500D02*
X9640000Y24004786D01*
X24662500Y22962500D02*
X10682286Y22962500D01*
X28829000Y20858000D02*
X26767000Y20858000D01*
X13081000Y43715000D02*
X15340000Y43715000D01*
X9640000Y42259967D02*
X11095033Y43715000D01*
%TO.N,/control_connector/GREEN*%
X10391922Y22261500D02*
X24372136Y22261500D01*
X24372136Y22261500D02*
X27775636Y18858000D01*
X13156000Y67385000D02*
X13156000Y46767331D01*
X13843000Y68072000D02*
X13156000Y67385000D01*
X20717000Y71247000D02*
X17542000Y68072000D01*
X27775636Y18858000D02*
X28829000Y18858000D01*
X8939000Y23714422D02*
X10391922Y22261500D01*
X17542000Y68072000D02*
X13843000Y68072000D01*
X8939000Y42550330D02*
X8939000Y23714422D01*
X13156000Y46767331D02*
X8939000Y42550330D01*
X20733000Y71247000D02*
X20717000Y71247000D01*
%TO.N,/control_connector/BLUE*%
X28829000Y16858000D02*
X21242000Y16858000D01*
X19558000Y18542000D02*
X17113000Y18542000D01*
X21242000Y16858000D02*
X19558000Y18542000D01*
%TO.N,/brake_control/BTN*%
X23749000Y10464800D02*
X23744200Y10460000D01*
X23744200Y10460000D02*
X19955000Y10460000D01*
%TD*%
%TA.AperFunction,Conductor*%
%TO.N,Net-(Q6-B)*%
G36*
X24422539Y30206315D02*
G01*
X24468294Y30153511D01*
X24479500Y30102000D01*
X24479500Y28473670D01*
X24479499Y28473652D01*
X24479499Y28307946D01*
X24479498Y28307946D01*
X24520423Y28155215D01*
X24549358Y28105100D01*
X24549359Y28105096D01*
X24549360Y28105096D01*
X24599479Y28018286D01*
X24599481Y28018283D01*
X24728681Y27889083D01*
X24762166Y27827760D01*
X24765000Y27801402D01*
X24765000Y27378563D01*
X24745315Y27311524D01*
X24711077Y27276264D01*
X24702238Y27270210D01*
X24622793Y27190764D01*
X24577415Y27087994D01*
X24577415Y27087992D01*
X24574500Y27062869D01*
X24574500Y25473144D01*
X24574502Y25473118D01*
X24577413Y25448013D01*
X24577415Y25448008D01*
X24577823Y25447084D01*
X24577968Y25445976D01*
X24579863Y25439011D01*
X24578913Y25438753D01*
X24586893Y25377805D01*
X24557069Y25314621D01*
X24497819Y25277591D01*
X24464388Y25273000D01*
X23619000Y25273000D01*
X23610314Y25275551D01*
X23601353Y25274262D01*
X23577312Y25285241D01*
X23551961Y25292685D01*
X23546033Y25299526D01*
X23537797Y25303287D01*
X23523507Y25325522D01*
X23506206Y25345489D01*
X23503918Y25356004D01*
X23500023Y25362065D01*
X23495000Y25397000D01*
X23495000Y25469869D01*
X23514685Y25536908D01*
X23515898Y25538759D01*
X23591547Y25651978D01*
X23591549Y25651981D01*
X23653774Y25802207D01*
X23653776Y25802211D01*
X23685500Y25961695D01*
X23685500Y26574305D01*
X23685500Y26574308D01*
X23653777Y26733784D01*
X23653776Y26733785D01*
X23653776Y26733789D01*
X23591548Y26884021D01*
X23515897Y26997242D01*
X23495020Y27063920D01*
X23495000Y27066132D01*
X23495000Y27305000D01*
X23021385Y27305000D01*
X22997193Y27307383D01*
X22941307Y27318500D01*
X22941305Y27318500D01*
X22778695Y27318500D01*
X22778693Y27318500D01*
X22722807Y27307383D01*
X22698615Y27305000D01*
X21079000Y27305000D01*
X21011961Y27324685D01*
X20966206Y27377489D01*
X20955000Y27429000D01*
X20955000Y30102000D01*
X20974685Y30169039D01*
X21027489Y30214794D01*
X21079000Y30226000D01*
X24355500Y30226000D01*
X24422539Y30206315D01*
G37*
%TD.AperFunction*%
%TD*%
%TA.AperFunction,Conductor*%
%TO.N,Net-(J2-Pin_1)*%
G36*
X23941245Y68308973D02*
G01*
X23942107Y68310667D01*
X23950012Y68306648D01*
X23950013Y68306647D01*
X24050089Y68255761D01*
X24117128Y68236076D01*
X24203200Y68223700D01*
X24203203Y68223700D01*
X30193200Y68223700D01*
X30260239Y68204015D01*
X30305994Y68151211D01*
X30317200Y68099700D01*
X30317200Y66799000D01*
X30297515Y66731961D01*
X30244711Y66686206D01*
X30193200Y66675000D01*
X25908000Y66675000D01*
X25908000Y61084000D01*
X25888315Y61016961D01*
X25835511Y60971206D01*
X25784000Y60960000D01*
X24298295Y60960000D01*
X24231256Y60979685D01*
X24213556Y60993472D01*
X24206917Y60999687D01*
X24178928Y61034870D01*
X24140261Y61062080D01*
X24138080Y61064121D01*
X24112085Y61084346D01*
X24098879Y61091880D01*
X24098879Y61091879D01*
X24093773Y61094792D01*
X24087111Y61099480D01*
X24079307Y61103044D01*
X24036562Y61127428D01*
X24036560Y61127429D01*
X24036551Y61127434D01*
X24034640Y61128187D01*
X24032676Y61129292D01*
X24032562Y61129346D01*
X24032565Y61129354D01*
X24005214Y61144733D01*
X23978709Y61164832D01*
X23954828Y61188714D01*
X23934734Y61215213D01*
X23918185Y61244645D01*
X23904612Y61279063D01*
X23896850Y61309774D01*
X23895882Y61317831D01*
X23895000Y61332603D01*
X23895000Y62292408D01*
X23895883Y62307177D01*
X23896850Y62315234D01*
X23904610Y62345934D01*
X23939841Y62435274D01*
X23939840Y62435275D01*
X23941991Y62440729D01*
X23944110Y62445773D01*
X23948208Y62454947D01*
X23962861Y62498075D01*
X23971277Y62527661D01*
X23975990Y62639833D01*
X23966046Y62708991D01*
X23951216Y62768658D01*
X23894537Y62865571D01*
X23848782Y62918375D01*
X23848780Y62918377D01*
X23848770Y62918388D01*
X23804054Y62960549D01*
X23804051Y62960551D01*
X23804049Y62960553D01*
X23703973Y63011439D01*
X23703972Y63011440D01*
X23703971Y63011440D01*
X23636940Y63031123D01*
X23636934Y63031124D01*
X23550862Y63043500D01*
X23550859Y63043500D01*
X22273500Y63043500D01*
X22270284Y63044445D01*
X22267024Y63043669D01*
X22236988Y63054222D01*
X22206461Y63063185D01*
X22204267Y63065717D01*
X22201104Y63066828D01*
X22181539Y63091947D01*
X22160706Y63115989D01*
X22159617Y63120091D01*
X22158169Y63121950D01*
X22155751Y63134651D01*
X22150008Y63156287D01*
X22149500Y63161882D01*
X22149500Y63262501D01*
X22146390Y63305979D01*
X22141367Y63340914D01*
X22138289Y63358615D01*
X22132803Y63372096D01*
X22131315Y63378941D01*
X22120352Y63417167D01*
X22105476Y63442600D01*
X22099772Y63453579D01*
X22098668Y63455990D01*
X22095976Y63462607D01*
X22094804Y63464430D01*
X22094782Y63464479D01*
X22072899Y63498515D01*
X22070176Y63502954D01*
X22063670Y63514079D01*
X22063668Y63514081D01*
X22063666Y63514085D01*
X22061544Y63517047D01*
X22058973Y63520309D01*
X22058217Y63521364D01*
X22058211Y63521372D01*
X22019923Y63569502D01*
X22019922Y63569503D01*
X22019921Y63569504D01*
X22019920Y63569505D01*
X22008306Y63577677D01*
X22001046Y63582786D01*
X21973184Y63609058D01*
X21939030Y63626424D01*
X21931788Y63631520D01*
X21931782Y63631523D01*
X21928108Y63634108D01*
X21928107Y63634109D01*
X21928105Y63634110D01*
X21919869Y63637871D01*
X21919868Y63637871D01*
X21918813Y63638353D01*
X21918810Y63638354D01*
X21889318Y63651823D01*
X21888592Y63652153D01*
X21888593Y63652154D01*
X21886942Y63652908D01*
X21873106Y63659943D01*
X21868713Y63661233D01*
X21864557Y63663131D01*
X21806355Y63682912D01*
X21806352Y63682913D01*
X21806350Y63682913D01*
X21779899Y63684026D01*
X21767474Y63685177D01*
X21720000Y63692001D01*
X21719995Y63692001D01*
X20961602Y63692001D01*
X20946813Y63692886D01*
X20938763Y63693853D01*
X20908062Y63701614D01*
X20871468Y63716045D01*
X20845944Y63729748D01*
X20844528Y63730737D01*
X20844518Y63730743D01*
X20790705Y63756587D01*
X20738795Y63803354D01*
X20720388Y63868844D01*
X20728629Y65991981D01*
X20748574Y66058944D01*
X20801555Y66104493D01*
X20852628Y66115500D01*
X21973990Y66115500D01*
X21974000Y66115500D01*
X22038941Y66122482D01*
X22090452Y66133688D01*
X22128658Y66144646D01*
X22225571Y66201325D01*
X22278375Y66247080D01*
X22278382Y66247088D01*
X22278387Y66247092D01*
X22320548Y66291808D01*
X22320553Y66291813D01*
X22371439Y66391889D01*
X22391124Y66458928D01*
X22403500Y66545000D01*
X22403500Y68202000D01*
X22423185Y68269039D01*
X22475989Y68314794D01*
X22527500Y68326000D01*
X23883255Y68326000D01*
X23941245Y68308973D01*
G37*
%TD.AperFunction*%
%TD*%
%TA.AperFunction,Conductor*%
%TO.N,+7.5V*%
G36*
X30234739Y55398315D02*
G01*
X30280494Y55345511D01*
X30291700Y55294000D01*
X30291700Y53452744D01*
X30291702Y53452718D01*
X30294613Y53427613D01*
X30294615Y53427609D01*
X30339994Y53324835D01*
X30339996Y53324833D01*
X30346299Y53315632D01*
X30367946Y53249200D01*
X30368000Y53245554D01*
X30368000Y53132000D01*
X33038000Y53132000D01*
X33105039Y53112315D01*
X33150794Y53059511D01*
X33162000Y53008000D01*
X33162000Y50208000D01*
X33142315Y50140961D01*
X33089511Y50095206D01*
X33038000Y50084000D01*
X26974122Y50084000D01*
X26956475Y50085262D01*
X26943702Y50087099D01*
X26927000Y50089500D01*
X26926999Y50089500D01*
X25793000Y50089500D01*
X25725961Y50109185D01*
X25680206Y50161989D01*
X25669000Y50213500D01*
X25669000Y52878000D01*
X25130573Y52878000D01*
X25074373Y52891467D01*
X25062628Y52897439D01*
X25035353Y52905448D01*
X24995595Y52917123D01*
X24995589Y52917124D01*
X24909517Y52929500D01*
X24466999Y52929500D01*
X24466990Y52929500D01*
X24466989Y52929499D01*
X24402064Y52922519D01*
X24402052Y52922517D01*
X24350542Y52911312D01*
X24350530Y52911308D01*
X24345854Y52909967D01*
X24332558Y52910052D01*
X24320082Y52905448D01*
X24298294Y52910269D01*
X24275986Y52910410D01*
X24263327Y52918006D01*
X24251862Y52920542D01*
X24234074Y52935558D01*
X24223683Y52941793D01*
X24218883Y52946627D01*
X24193935Y52977989D01*
X24175065Y52991268D01*
X24147194Y53017548D01*
X24120944Y53030897D01*
X24110195Y53037058D01*
X24107965Y53038489D01*
X24102120Y53042602D01*
X24100158Y53043498D01*
X24100149Y53043504D01*
X24063290Y53060336D01*
X24058607Y53062596D01*
X24047119Y53068437D01*
X24047118Y53068438D01*
X24047117Y53068438D01*
X24043741Y53069779D01*
X24039812Y53071133D01*
X24038541Y53071638D01*
X23980364Y53091409D01*
X23980356Y53091411D01*
X23954680Y53092491D01*
X23953894Y53092525D01*
X23941465Y53093676D01*
X23894000Y53100500D01*
X22516500Y53100500D01*
X22449461Y53120185D01*
X22403706Y53172989D01*
X22392500Y53224500D01*
X22392500Y54023990D01*
X22392500Y54024000D01*
X22385518Y54088941D01*
X22374312Y54140452D01*
X22363354Y54178658D01*
X22306675Y54275571D01*
X22270285Y54317567D01*
X22241262Y54381122D01*
X22240000Y54398768D01*
X22240000Y55294000D01*
X22259685Y55361039D01*
X22312489Y55406794D01*
X22364000Y55418000D01*
X30167700Y55418000D01*
X30234739Y55398315D01*
G37*
%TD.AperFunction*%
%TD*%
%TA.AperFunction,Conductor*%
%TO.N,/brake_control/SERVO*%
G36*
X9214039Y15093315D02*
G01*
X9259794Y15040511D01*
X9271000Y14989000D01*
X9271000Y12443000D01*
X9251315Y12375961D01*
X9198511Y12330206D01*
X9147000Y12319000D01*
X7109000Y12319000D01*
X7041961Y12338685D01*
X6996206Y12391489D01*
X6985000Y12443000D01*
X6985000Y14989000D01*
X7004685Y15056039D01*
X7057489Y15101794D01*
X7109000Y15113000D01*
X9147000Y15113000D01*
X9214039Y15093315D01*
G37*
%TD.AperFunction*%
%TD*%
%TA.AperFunction,Conductor*%
%TO.N,Net-(Q8-E)*%
G36*
X5225539Y71937815D02*
G01*
X5271294Y71885011D01*
X5282500Y71833500D01*
X5282500Y71567148D01*
X5282511Y71564360D01*
X5282531Y71562164D01*
X5296476Y71473638D01*
X5317354Y71406955D01*
X5317355Y71406953D01*
X5354880Y71328519D01*
X5375924Y71297025D01*
X5398000Y71263986D01*
X5418878Y71197310D01*
X5416515Y71170905D01*
X5397500Y71075310D01*
X5397500Y70462692D01*
X5416515Y70367098D01*
X5410288Y70297507D01*
X5398001Y70274018D01*
X5354928Y70209554D01*
X5353361Y70207186D01*
X5352166Y70205361D01*
X5352164Y70205358D01*
X5352164Y70205357D01*
X5314561Y70123980D01*
X5294876Y70056941D01*
X5284085Y69981887D01*
X5282500Y69970867D01*
X5282500Y67654341D01*
X5273854Y67608851D01*
X5233123Y67505566D01*
X5233123Y67505564D01*
X5222500Y67417102D01*
X5222500Y66630898D01*
X5227282Y66591077D01*
X5233122Y66542437D01*
X5264255Y66463489D01*
X5270536Y66393902D01*
X5238198Y66331966D01*
X5177509Y66297345D01*
X5148900Y66294000D01*
X3426000Y66294000D01*
X3358961Y66313685D01*
X3313206Y66366489D01*
X3302000Y66418000D01*
X3302000Y71833500D01*
X3321685Y71900539D01*
X3374489Y71946294D01*
X3426000Y71957500D01*
X5158500Y71957500D01*
X5225539Y71937815D01*
G37*
%TD.AperFunction*%
%TD*%
%TA.AperFunction,Conductor*%
%TO.N,/brake_control/ENABLE*%
G36*
X10103039Y60051315D02*
G01*
X10148794Y59998511D01*
X10160000Y59947000D01*
X10160000Y58925000D01*
X10140315Y58857961D01*
X10087511Y58812206D01*
X10036000Y58801000D01*
X8255000Y58801000D01*
X8255000Y55060465D01*
X8235315Y54993426D01*
X8218681Y54972784D01*
X8021513Y54775617D01*
X8021509Y54775611D01*
X7962201Y54672888D01*
X7962201Y54672887D01*
X7962201Y54672886D01*
X7935947Y54574906D01*
X7899583Y54515247D01*
X7836737Y54484717D01*
X7816173Y54483000D01*
X6220000Y54483000D01*
X6152961Y54502685D01*
X6107206Y54555489D01*
X6096000Y54607000D01*
X6096000Y59947000D01*
X6115685Y60014039D01*
X6168489Y60059794D01*
X6220000Y60071000D01*
X10036000Y60071000D01*
X10103039Y60051315D01*
G37*
%TD.AperFunction*%
%TD*%
%TA.AperFunction,Conductor*%
%TO.N,Net-(L1-Pad1)*%
G36*
X22850403Y37318315D02*
G01*
X22894273Y37269454D01*
X23621998Y35814002D01*
X23621999Y35814001D01*
X23622000Y35814000D01*
X24135500Y35814000D01*
X24202539Y35794315D01*
X24248294Y35741511D01*
X24259500Y35690000D01*
X24259500Y34724500D01*
X24239815Y34657461D01*
X24187011Y34611706D01*
X24135500Y34600500D01*
X23553049Y34600500D01*
X23482493Y34590221D01*
X23373650Y34537011D01*
X23287988Y34451349D01*
X23243105Y34359539D01*
X23195977Y34307957D01*
X23131705Y34290000D01*
X21206000Y34290000D01*
X21138961Y34309685D01*
X21093206Y34362489D01*
X21082000Y34414000D01*
X21082000Y37214000D01*
X21101685Y37281039D01*
X21154489Y37326794D01*
X21206000Y37338000D01*
X22783364Y37338000D01*
X22850403Y37318315D01*
G37*
%TD.AperFunction*%
%TD*%
%TA.AperFunction,Conductor*%
%TO.N,/brake_control/STATUS*%
G36*
X9044539Y65766315D02*
G01*
X9090294Y65713511D01*
X9101500Y65662000D01*
X9101500Y64005000D01*
X9081815Y63937961D01*
X9029011Y63892206D01*
X8977500Y63881000D01*
X5331000Y63881000D01*
X5263961Y63900685D01*
X5218206Y63953489D01*
X5207000Y64005000D01*
X5207000Y65662000D01*
X5226685Y65729039D01*
X5279489Y65774794D01*
X5331000Y65786000D01*
X8977500Y65786000D01*
X9044539Y65766315D01*
G37*
%TD.AperFunction*%
%TD*%
%TA.AperFunction,Conductor*%
%TO.N,Net-(M2-LED)*%
G36*
X25444639Y74046715D02*
G01*
X25490394Y73993911D01*
X25501600Y73942400D01*
X25501600Y73377093D01*
X25481915Y73310054D01*
X25452525Y73278289D01*
X25334677Y73188923D01*
X25243239Y73068344D01*
X25187722Y72927562D01*
X25181788Y72878147D01*
X25177100Y72839102D01*
X25177100Y71952898D01*
X25182726Y71906046D01*
X25187722Y71864439D01*
X25243239Y71723657D01*
X25334677Y71603078D01*
X25406044Y71548959D01*
X25452525Y71513711D01*
X25455005Y71510356D01*
X25458803Y71508621D01*
X25475594Y71482493D01*
X25494048Y71457520D01*
X25494963Y71452354D01*
X25496577Y71449843D01*
X25501600Y71414908D01*
X25501600Y71193900D01*
X25481915Y71126861D01*
X25429111Y71081106D01*
X25377600Y71069900D01*
X24203200Y71069900D01*
X24203191Y71069900D01*
X24203190Y71069899D01*
X24138264Y71062919D01*
X24138252Y71062917D01*
X24086746Y71051712D01*
X24048545Y71040756D01*
X24048541Y71040754D01*
X23951631Y70984077D01*
X23951628Y70984075D01*
X23898823Y70938319D01*
X23898812Y70938309D01*
X23850563Y70887135D01*
X23848822Y70888777D01*
X23804228Y70853303D01*
X23734713Y70846273D01*
X23672433Y70877941D01*
X23637161Y70938254D01*
X23633500Y70968161D01*
X23633500Y71740097D01*
X23633500Y71740102D01*
X23622877Y71828564D01*
X23567361Y71969342D01*
X23567360Y71969343D01*
X23567360Y71969344D01*
X23475925Y72089918D01*
X23475922Y72089922D01*
X23467869Y72096029D01*
X23426349Y72152224D01*
X23418800Y72194829D01*
X23418800Y73942400D01*
X23438485Y74009439D01*
X23491289Y74055194D01*
X23542800Y74066400D01*
X25377600Y74066400D01*
X25444639Y74046715D01*
G37*
%TD.AperFunction*%
%TD*%
%TA.AperFunction,Conductor*%
%TO.N,Net-(IC1-~{ALCC})*%
G36*
X20669543Y63480315D02*
G01*
X20677419Y63474812D01*
X20706658Y63452639D01*
X20847436Y63397124D01*
X20935901Y63386500D01*
X21720000Y63386501D01*
X21728686Y63383951D01*
X21737647Y63385239D01*
X21761683Y63374262D01*
X21787039Y63366817D01*
X21792967Y63359975D01*
X21801203Y63356214D01*
X21815489Y63333983D01*
X21832794Y63314013D01*
X21835081Y63303498D01*
X21838977Y63297436D01*
X21844000Y63262501D01*
X21844000Y63103414D01*
X21824315Y63036375D01*
X21782601Y62996376D01*
X21716429Y62957675D01*
X21716428Y62957674D01*
X21663623Y62911919D01*
X21663612Y62911909D01*
X21621451Y62867193D01*
X21621445Y62867184D01*
X21570560Y62767110D01*
X21550877Y62700079D01*
X21550876Y62700072D01*
X21542215Y62639833D01*
X21538500Y62613998D01*
X21538500Y60881500D01*
X21518815Y60814461D01*
X21466011Y60768706D01*
X21414500Y60757500D01*
X20245500Y60757500D01*
X20245491Y60757500D01*
X20245490Y60757499D01*
X20180564Y60750519D01*
X20180552Y60750517D01*
X20129046Y60739312D01*
X20090845Y60728356D01*
X20090841Y60728354D01*
X19993931Y60671677D01*
X19993928Y60671675D01*
X19941123Y60625919D01*
X19941112Y60625909D01*
X19898951Y60581193D01*
X19898945Y60581184D01*
X19848059Y60481109D01*
X19827493Y60411065D01*
X19821949Y60395910D01*
X19809432Y60367564D01*
X19764344Y60314189D01*
X19697558Y60293664D01*
X19630276Y60312504D01*
X19583861Y60364729D01*
X19582591Y60367509D01*
X19573206Y60388765D01*
X19493765Y60468206D01*
X19390992Y60513585D01*
X19365868Y60516500D01*
X19365865Y60516500D01*
X19108105Y60516500D01*
X19041066Y60536185D01*
X19003732Y60575121D01*
X19003432Y60574905D01*
X19001934Y60576996D01*
X19001065Y60577902D01*
X19000090Y60579570D01*
X18954332Y60632377D01*
X18954322Y60632388D01*
X18909606Y60674549D01*
X18909603Y60674551D01*
X18909601Y60674553D01*
X18809525Y60725439D01*
X18809524Y60725440D01*
X18809523Y60725440D01*
X18742492Y60745123D01*
X18742486Y60745124D01*
X18656414Y60757500D01*
X18656411Y60757500D01*
X17481500Y60757500D01*
X17414461Y60777185D01*
X17368706Y60829989D01*
X17357500Y60881500D01*
X17357499Y61755097D01*
X17357499Y61755102D01*
X17346877Y61843565D01*
X17291361Y61984343D01*
X17229115Y62066428D01*
X17204294Y62131737D01*
X17203923Y62140673D01*
X17203054Y62299822D01*
X17200496Y62768658D01*
X17198852Y63069823D01*
X17218170Y63136969D01*
X17270724Y63183012D01*
X17322850Y63194500D01*
X19067990Y63194500D01*
X19068000Y63194500D01*
X19132941Y63201482D01*
X19184452Y63212688D01*
X19222658Y63223646D01*
X19319571Y63280325D01*
X19372375Y63326080D01*
X19372382Y63326088D01*
X19372387Y63326092D01*
X19414548Y63370808D01*
X19414553Y63370813D01*
X19445768Y63432204D01*
X19493698Y63483038D01*
X19556299Y63500000D01*
X20602504Y63500000D01*
X20669543Y63480315D01*
G37*
%TD.AperFunction*%
%TD*%
%TA.AperFunction,Conductor*%
%TO.N,/power_switch/BOOST*%
G36*
X32406470Y36810315D02*
G01*
X32427112Y36793681D01*
X32503636Y36717157D01*
X32503641Y36717153D01*
X32659192Y36604140D01*
X32681978Y36587585D01*
X32810375Y36522163D01*
X32878393Y36487505D01*
X32878396Y36487504D01*
X32983221Y36453445D01*
X33088049Y36419385D01*
X33305778Y36384900D01*
X33305779Y36384900D01*
X33526221Y36384900D01*
X33526222Y36384900D01*
X33743951Y36419385D01*
X33953606Y36487505D01*
X34100761Y36562485D01*
X34157056Y36576000D01*
X34674000Y36576000D01*
X34741039Y36556315D01*
X34786794Y36503511D01*
X34798000Y36452000D01*
X34798000Y33576500D01*
X34778315Y33509461D01*
X34725511Y33463706D01*
X34674000Y33452500D01*
X30350000Y33452500D01*
X30349991Y33452500D01*
X30349990Y33452499D01*
X30285064Y33445519D01*
X30285052Y33445517D01*
X30233546Y33434312D01*
X30195345Y33423356D01*
X30195337Y33423352D01*
X30122923Y33381001D01*
X30055116Y33364148D01*
X29988963Y33386630D01*
X29972642Y33400358D01*
X28321000Y35052000D01*
X26664499Y35052000D01*
X26597460Y35071685D01*
X26551705Y35124489D01*
X26540499Y35176000D01*
X26540499Y35809857D01*
X26540499Y35809864D01*
X26540497Y35809883D01*
X26537586Y35834988D01*
X26537585Y35834990D01*
X26537585Y35834991D01*
X26492206Y35937765D01*
X26412765Y36017206D01*
X26309992Y36062585D01*
X26284868Y36065500D01*
X26284865Y36065500D01*
X26199499Y36065500D01*
X26132460Y36085185D01*
X26086705Y36137989D01*
X26075499Y36189501D01*
X26075500Y36384901D01*
X26075500Y36706000D01*
X26095185Y36773039D01*
X26147989Y36818794D01*
X26199500Y36830000D01*
X32339431Y36830000D01*
X32406470Y36810315D01*
G37*
%TD.AperFunction*%
%TD*%
%TA.AperFunction,Conductor*%
%TO.N,Net-(U2-VDD)*%
G36*
X15283939Y76688315D02*
G01*
X15329694Y76635511D01*
X15340900Y76584000D01*
X15340900Y76204180D01*
X15340017Y76189411D01*
X15339500Y76185102D01*
X15339500Y76185097D01*
X15339500Y75198900D01*
X15340015Y75194612D01*
X15340900Y75179825D01*
X15340900Y74741500D01*
X15321215Y74674461D01*
X15268411Y74628706D01*
X15216900Y74617500D01*
X14974730Y74617500D01*
X14944303Y74614647D01*
X14816112Y74569791D01*
X14807903Y74565452D01*
X14806540Y74568031D01*
X14800360Y74565774D01*
X14782076Y74554023D01*
X14759173Y74550731D01*
X14755146Y74549259D01*
X14747141Y74549000D01*
X14660859Y74549000D01*
X14600732Y74566656D01*
X14600097Y74565452D01*
X14594179Y74568580D01*
X14593820Y74568685D01*
X14593294Y74569048D01*
X14591887Y74569791D01*
X14591882Y74569793D01*
X14463699Y74614646D01*
X14463698Y74614647D01*
X14463696Y74614647D01*
X14433270Y74617500D01*
X14433266Y74617500D01*
X14024734Y74617500D01*
X14024730Y74617500D01*
X13994303Y74614647D01*
X13866112Y74569791D01*
X13857903Y74565452D01*
X13856540Y74568031D01*
X13805146Y74549259D01*
X13797141Y74549000D01*
X11427000Y74549000D01*
X11359961Y74568685D01*
X11314206Y74621489D01*
X11303000Y74673000D01*
X11303000Y76584000D01*
X11322685Y76651039D01*
X11375489Y76696794D01*
X11427000Y76708000D01*
X15216900Y76708000D01*
X15283939Y76688315D01*
G37*
%TD.AperFunction*%
%TD*%
%TA.AperFunction,Conductor*%
%TO.N,Net-(Q8-C)*%
G36*
X9087039Y71862315D02*
G01*
X9132794Y71809511D01*
X9144000Y71758000D01*
X9144000Y70351410D01*
X9139775Y70319316D01*
X9139016Y70316487D01*
X9139016Y70316485D01*
X9101500Y70176475D01*
X9101500Y70176473D01*
X9101500Y66418000D01*
X9081815Y66350961D01*
X9029011Y66305206D01*
X8977500Y66294000D01*
X7297099Y66294000D01*
X7230060Y66313685D01*
X7184305Y66366489D01*
X7174361Y66435647D01*
X7181745Y66463491D01*
X7196674Y66501350D01*
X7212877Y66542436D01*
X7223500Y66630898D01*
X7223500Y67417102D01*
X7212877Y67505564D01*
X7172146Y67608851D01*
X7163500Y67654341D01*
X7163500Y69658439D01*
X7157441Y69718980D01*
X7147701Y69767154D01*
X7138727Y69801265D01*
X7084920Y69899802D01*
X7040736Y69953928D01*
X7035301Y69958925D01*
X7031551Y69962521D01*
X7009319Y69984753D01*
X6975834Y70046076D01*
X6973000Y70072434D01*
X6973000Y70172862D01*
X6982439Y70220315D01*
X7016776Y70303211D01*
X7027157Y70355402D01*
X7048500Y70462693D01*
X7048500Y71075308D01*
X7016777Y71234784D01*
X7016776Y71234785D01*
X7016776Y71234789D01*
X7016774Y71234794D01*
X6982439Y71317688D01*
X6980812Y71325865D01*
X6978023Y71330205D01*
X6973000Y71365140D01*
X6973000Y71464434D01*
X6992685Y71531473D01*
X7017085Y71559247D01*
X7023251Y71564443D01*
X7057489Y71599703D01*
X7057497Y71599714D01*
X7057506Y71599722D01*
X7066169Y71609743D01*
X7080553Y71626376D01*
X7131439Y71726452D01*
X7150961Y71792937D01*
X7188736Y71851714D01*
X7252292Y71880738D01*
X7269938Y71882000D01*
X9020000Y71882000D01*
X9087039Y71862315D01*
G37*
%TD.AperFunction*%
%TD*%
%TA.AperFunction,Conductor*%
%TO.N,Net-(U3-VOUT)*%
G36*
X19251539Y33000315D02*
G01*
X19297294Y32947511D01*
X19308500Y32896000D01*
X19308500Y32653898D01*
X19314126Y32607046D01*
X19319122Y32565439D01*
X19374639Y32424657D01*
X19466077Y32304078D01*
X19586656Y32212640D01*
X19586657Y32212640D01*
X19586658Y32212639D01*
X19727436Y32157123D01*
X19815898Y32146500D01*
X19815903Y32146500D01*
X20526454Y32146500D01*
X20593493Y32126815D01*
X20639248Y32074011D01*
X20648232Y32011530D01*
X20649816Y32011416D01*
X20649500Y32007001D01*
X20649500Y32007000D01*
X20649500Y30655500D01*
X20649501Y30655491D01*
X20656481Y30590565D01*
X20656483Y30590553D01*
X20667688Y30539047D01*
X20678644Y30500846D01*
X20678646Y30500842D01*
X20712860Y30442341D01*
X20729713Y30374534D01*
X20716354Y30323538D01*
X20681560Y30255110D01*
X20661877Y30188079D01*
X20649500Y30101998D01*
X20649500Y27429000D01*
X20629815Y27361961D01*
X20577011Y27316206D01*
X20525500Y27305000D01*
X16380000Y27305000D01*
X16312961Y27324685D01*
X16267206Y27377489D01*
X16256000Y27429000D01*
X16256000Y29386373D01*
X16275685Y29453412D01*
X16281198Y29461300D01*
X16294360Y29478657D01*
X16294359Y29478657D01*
X16294361Y29478658D01*
X16349877Y29619436D01*
X16360500Y29707898D01*
X16360500Y30744102D01*
X16349877Y30832564D01*
X16294361Y30973342D01*
X16294358Y30973346D01*
X16294357Y30973348D01*
X16281195Y30990706D01*
X16256373Y31056018D01*
X16256000Y31065629D01*
X16256000Y32896000D01*
X16275685Y32963039D01*
X16328489Y33008794D01*
X16380000Y33020000D01*
X19184500Y33020000D01*
X19251539Y33000315D01*
G37*
%TD.AperFunction*%
%TD*%
%TA.AperFunction,Conductor*%
%TO.N,Net-(Q2-B)*%
G36*
X26994039Y46970315D02*
G01*
X27039794Y46917511D01*
X27051000Y46866000D01*
X27051000Y44704000D01*
X28832000Y44704000D01*
X28899039Y44684315D01*
X28944794Y44631511D01*
X28956000Y44580000D01*
X28956000Y43304000D01*
X28936315Y43236961D01*
X28883511Y43191206D01*
X28832000Y43180000D01*
X26589795Y43180000D01*
X26522756Y43199685D01*
X26502118Y43216315D01*
X26434225Y43284208D01*
X26434224Y43284209D01*
X26434222Y43284211D01*
X26434220Y43284212D01*
X26299023Y43374548D01*
X26299019Y43374550D01*
X26148793Y43436775D01*
X26148783Y43436778D01*
X25989307Y43468500D01*
X25989305Y43468500D01*
X25826695Y43468500D01*
X25826693Y43468500D01*
X25667216Y43436778D01*
X25667206Y43436775D01*
X25516980Y43374550D01*
X25516976Y43374548D01*
X25381779Y43284212D01*
X25381771Y43284206D01*
X25266794Y43169229D01*
X25266788Y43169221D01*
X25176452Y43034024D01*
X25176450Y43034020D01*
X25114225Y42883794D01*
X25114222Y42883784D01*
X25082500Y42724308D01*
X25082500Y42724305D01*
X25082500Y42111695D01*
X25082500Y42111693D01*
X25082499Y42111693D01*
X25114222Y41952217D01*
X25114225Y41952207D01*
X25176450Y41801981D01*
X25176452Y41801977D01*
X25266788Y41666780D01*
X25266789Y41666779D01*
X25266792Y41666775D01*
X25363682Y41569885D01*
X25378388Y41542954D01*
X25394977Y41517140D01*
X25395868Y41510941D01*
X25397166Y41508564D01*
X25400000Y41482205D01*
X25400000Y41399000D01*
X25380315Y41331961D01*
X25327511Y41286206D01*
X25276000Y41275000D01*
X24224333Y41275000D01*
X24157294Y41294685D01*
X24111539Y41347489D01*
X24101595Y41416647D01*
X24130620Y41480203D01*
X24136652Y41486681D01*
X24145206Y41495235D01*
X24190585Y41598009D01*
X24193500Y41623135D01*
X24193499Y43212864D01*
X24193497Y43212883D01*
X24190586Y43237988D01*
X24190585Y43237990D01*
X24190585Y43237991D01*
X24145206Y43340765D01*
X24065765Y43420206D01*
X24065764Y43420207D01*
X24065761Y43420210D01*
X24056923Y43426264D01*
X24012740Y43480390D01*
X24003000Y43528563D01*
X24003000Y46866000D01*
X24022685Y46933039D01*
X24075489Y46978794D01*
X24127000Y46990000D01*
X26927000Y46990000D01*
X26994039Y46970315D01*
G37*
%TD.AperFunction*%
%TD*%
%TA.AperFunction,Conductor*%
%TO.N,Net-(Q8-B)*%
G36*
X3507417Y75048354D02*
G01*
X3569937Y75023700D01*
X3609436Y75008123D01*
X3697898Y74997500D01*
X3697903Y74997500D01*
X4684097Y74997500D01*
X4684102Y74997500D01*
X4772564Y75008123D01*
X4838287Y75034042D01*
X4874583Y75048354D01*
X4920073Y75057000D01*
X6448500Y75057000D01*
X6515539Y75037315D01*
X6561294Y74984511D01*
X6572500Y74933000D01*
X6572500Y72907670D01*
X6572499Y72907652D01*
X6572499Y72741946D01*
X6572498Y72741946D01*
X6613423Y72589215D01*
X6642358Y72539100D01*
X6642359Y72539096D01*
X6642360Y72539096D01*
X6692479Y72452286D01*
X6692481Y72452283D01*
X6811349Y72333415D01*
X6811355Y72333410D01*
X6821681Y72323084D01*
X6855166Y72261761D01*
X6858000Y72235403D01*
X6858000Y71879563D01*
X6838315Y71812524D01*
X6804077Y71777264D01*
X6795238Y71771210D01*
X6715793Y71691764D01*
X6670415Y71588994D01*
X6670415Y71588992D01*
X6667500Y71563869D01*
X6667500Y69974144D01*
X6667502Y69974118D01*
X6670413Y69949013D01*
X6670415Y69949009D01*
X6715793Y69846236D01*
X6795234Y69766795D01*
X6804076Y69760738D01*
X6848260Y69706612D01*
X6858000Y69658438D01*
X6858000Y66418000D01*
X6838315Y66350961D01*
X6785511Y66305206D01*
X6734000Y66294000D01*
X5712000Y66294000D01*
X5644961Y66313685D01*
X5599206Y66366489D01*
X5588000Y66418000D01*
X5588000Y69970869D01*
X5607685Y70037908D01*
X5608898Y70039759D01*
X5684547Y70152978D01*
X5684549Y70152981D01*
X5746774Y70303207D01*
X5746776Y70303211D01*
X5778500Y70462695D01*
X5778500Y71075305D01*
X5778500Y71075308D01*
X5746777Y71234784D01*
X5746776Y71234785D01*
X5746776Y71234789D01*
X5684548Y71385021D01*
X5608897Y71498242D01*
X5588020Y71564920D01*
X5588000Y71567132D01*
X5588000Y72263000D01*
X3426000Y72263000D01*
X3358961Y72282685D01*
X3313206Y72335489D01*
X3302000Y72387000D01*
X3302000Y74933000D01*
X3304550Y74941686D01*
X3303262Y74950647D01*
X3314240Y74974688D01*
X3321685Y75000039D01*
X3328525Y75005967D01*
X3332287Y75014203D01*
X3354521Y75028493D01*
X3374489Y75045794D01*
X3385003Y75048082D01*
X3391065Y75051977D01*
X3426000Y75057000D01*
X3461927Y75057000D01*
X3507417Y75048354D01*
G37*
%TD.AperFunction*%
%TD*%
%TA.AperFunction,Conductor*%
%TO.N,/power_manager/BAT+*%
G36*
X18306539Y67336315D02*
G01*
X18352294Y67283511D01*
X18363500Y67232000D01*
X18363500Y66545000D01*
X18363501Y66544991D01*
X18370481Y66480065D01*
X18370483Y66480053D01*
X18381688Y66428547D01*
X18392644Y66390346D01*
X18392646Y66390342D01*
X18449323Y66293432D01*
X18449325Y66293429D01*
X18495081Y66240624D01*
X18495091Y66240613D01*
X18539807Y66198452D01*
X18539809Y66198451D01*
X18539813Y66198447D01*
X18639889Y66147561D01*
X18706928Y66127876D01*
X18793000Y66115500D01*
X18793003Y66115500D01*
X19068000Y66115500D01*
X19135039Y66095815D01*
X19180794Y66043011D01*
X19192000Y65991500D01*
X19192000Y63624000D01*
X19172315Y63556961D01*
X19119511Y63511206D01*
X19068000Y63500000D01*
X16890999Y63500000D01*
X16905319Y60876677D01*
X16886001Y60809531D01*
X16833447Y60763488D01*
X16781321Y60752000D01*
X15890000Y60752000D01*
X15890000Y60452000D01*
X18656414Y60452000D01*
X18723453Y60432315D01*
X18769208Y60379511D01*
X18779152Y60310353D01*
X18774825Y60295275D01*
X18775864Y60294992D01*
X18773415Y60285992D01*
X18770500Y60260869D01*
X18770500Y59720500D01*
X18750815Y59653461D01*
X18698011Y59607706D01*
X18646500Y59596500D01*
X18211143Y59596500D01*
X18211117Y59596498D01*
X18186012Y59593587D01*
X18186008Y59593585D01*
X18083235Y59548207D01*
X18083234Y59548206D01*
X18053348Y59518319D01*
X17992025Y59484834D01*
X17965667Y59482000D01*
X14998000Y59482000D01*
X14930961Y59501685D01*
X14885206Y59554489D01*
X14874000Y59606000D01*
X14874000Y60752000D01*
X13982000Y60752000D01*
X13914961Y60771685D01*
X13869206Y60824489D01*
X13858000Y60876000D01*
X13858000Y67232000D01*
X13877685Y67299039D01*
X13930489Y67344794D01*
X13982000Y67356000D01*
X18239500Y67356000D01*
X18306539Y67336315D01*
G37*
%TD.AperFunction*%
%TD*%
%TA.AperFunction,Conductor*%
%TO.N,/brake_control/STATUS*%
G36*
X16071517Y19284315D02*
G01*
X16117272Y19231511D01*
X16128477Y19179479D01*
X16113519Y15617479D01*
X16093553Y15550523D01*
X16040557Y15504990D01*
X15989520Y15494000D01*
X15537126Y15494000D01*
X15522344Y15494885D01*
X15478460Y15500155D01*
X15450603Y15503500D01*
X15450602Y15503500D01*
X14689398Y15503500D01*
X14689397Y15503500D01*
X14661539Y15500155D01*
X14617655Y15494885D01*
X14602874Y15494000D01*
X12189000Y15494000D01*
X12121961Y15513685D01*
X12076206Y15566489D01*
X12065000Y15618000D01*
X12065000Y17275000D01*
X12084685Y17342039D01*
X12137489Y17387794D01*
X12189000Y17399000D01*
X14224000Y17399000D01*
X14224000Y19180000D01*
X14243685Y19247039D01*
X14296489Y19292794D01*
X14348000Y19304000D01*
X16004478Y19304000D01*
X16071517Y19284315D01*
G37*
%TD.AperFunction*%
%TD*%
%TA.AperFunction,Conductor*%
%TO.N,+3V3*%
G36*
X22041039Y68306315D02*
G01*
X22086794Y68253511D01*
X22098000Y68202000D01*
X22098000Y66545000D01*
X22078315Y66477961D01*
X22025511Y66432206D01*
X21974000Y66421000D01*
X18793000Y66421000D01*
X18725961Y66440685D01*
X18680206Y66493489D01*
X18669000Y66545000D01*
X18669000Y68202000D01*
X18688685Y68269039D01*
X18741489Y68314794D01*
X18793000Y68326000D01*
X21974000Y68326000D01*
X22041039Y68306315D01*
G37*
%TD.AperFunction*%
%TD*%
%TA.AperFunction,Conductor*%
%TO.N,/power_manager/BM*%
G36*
X30270639Y70744715D02*
G01*
X30316394Y70691911D01*
X30327600Y70640400D01*
X30327600Y68653200D01*
X30307915Y68586161D01*
X30255111Y68540406D01*
X30203600Y68529200D01*
X24203200Y68529200D01*
X24136161Y68548885D01*
X24090406Y68601689D01*
X24079200Y68653200D01*
X24079200Y70640400D01*
X24098885Y70707439D01*
X24151689Y70753194D01*
X24203200Y70764400D01*
X30203600Y70764400D01*
X30270639Y70744715D01*
G37*
%TD.AperFunction*%
%TD*%
%TA.AperFunction,Conductor*%
%TO.N,Net-(D2-A)*%
G36*
X22803039Y40169815D02*
G01*
X22848794Y40117011D01*
X22860000Y40065500D01*
X22860000Y37767500D01*
X22840315Y37700461D01*
X22787511Y37654706D01*
X22736000Y37643500D01*
X21206000Y37643500D01*
X21205991Y37643500D01*
X21205990Y37643499D01*
X21141064Y37636519D01*
X21141052Y37636517D01*
X21089546Y37625312D01*
X21051345Y37614356D01*
X21051341Y37614354D01*
X20954431Y37557677D01*
X20954428Y37557675D01*
X20901623Y37511919D01*
X20901612Y37511909D01*
X20859451Y37467193D01*
X20859445Y37467184D01*
X20808560Y37367110D01*
X20788877Y37300079D01*
X20788876Y37300072D01*
X20776500Y37214000D01*
X20776500Y34414000D01*
X20776501Y34413991D01*
X20783481Y34349065D01*
X20783483Y34349053D01*
X20794688Y34297547D01*
X20805644Y34259346D01*
X20805646Y34259342D01*
X20862323Y34162432D01*
X20862325Y34162429D01*
X20908081Y34109624D01*
X20908091Y34109613D01*
X20952807Y34067452D01*
X20952809Y34067451D01*
X20952813Y34067447D01*
X21018089Y34034256D01*
X21068925Y33986324D01*
X21085887Y33923459D01*
X21082940Y32544163D01*
X21076085Y32521001D01*
X21073505Y32496984D01*
X21066348Y32488103D01*
X21063112Y32477166D01*
X21044822Y32461387D01*
X21029667Y32442577D01*
X21016251Y32436737D01*
X21010210Y32431524D01*
X20998108Y32426776D01*
X20991797Y32424676D01*
X20962548Y32418312D01*
X20924342Y32407354D01*
X20903956Y32395432D01*
X20891690Y32391348D01*
X20873556Y32390700D01*
X20852522Y32385000D01*
X20777993Y32385000D01*
X20721791Y32398468D01*
X20704315Y32407354D01*
X20679565Y32419939D01*
X20679564Y32419940D01*
X20679563Y32419940D01*
X20612532Y32439623D01*
X20612526Y32439624D01*
X20526454Y32452000D01*
X20526451Y32452000D01*
X19841601Y32452000D01*
X19826808Y32452886D01*
X19818760Y32453853D01*
X19788063Y32461613D01*
X19753647Y32475185D01*
X19724210Y32491736D01*
X19697705Y32511836D01*
X19673828Y32535714D01*
X19653732Y32562215D01*
X19637182Y32591649D01*
X19624623Y32623497D01*
X19623609Y32626067D01*
X19615848Y32656781D01*
X19614883Y32664824D01*
X19614000Y32679596D01*
X19614000Y32895990D01*
X19614000Y32896000D01*
X19607018Y32960941D01*
X19595812Y33012452D01*
X19584854Y33050658D01*
X19528175Y33147571D01*
X19482420Y33200375D01*
X19482418Y33200377D01*
X19482408Y33200388D01*
X19437692Y33242549D01*
X19437689Y33242551D01*
X19437687Y33242553D01*
X19337611Y33293439D01*
X19337610Y33293440D01*
X19337609Y33293440D01*
X19270578Y33313123D01*
X19270572Y33313124D01*
X19184500Y33325500D01*
X19184497Y33325500D01*
X18412000Y33325500D01*
X18344961Y33345185D01*
X18299206Y33397989D01*
X18288000Y33449500D01*
X18288000Y40065500D01*
X18307685Y40132539D01*
X18360489Y40178294D01*
X18412000Y40189500D01*
X22736000Y40189500D01*
X22803039Y40169815D01*
G37*
%TD.AperFunction*%
%TD*%
%TA.AperFunction,Conductor*%
%TO.N,/power_manager/VBATT*%
G36*
X18032706Y57430315D02*
G01*
X18053348Y57413681D01*
X18083235Y57383794D01*
X18186009Y57338415D01*
X18211135Y57335500D01*
X18646500Y57335501D01*
X18713539Y57315817D01*
X18759294Y57263013D01*
X18770500Y57211501D01*
X18770500Y56671144D01*
X18770502Y56671118D01*
X18773413Y56646013D01*
X18773414Y56646012D01*
X18773414Y56646010D01*
X18773415Y56646009D01*
X18800434Y56584816D01*
X18811000Y56534731D01*
X18811000Y54780000D01*
X18808449Y54771315D01*
X18809738Y54762353D01*
X18798759Y54738313D01*
X18791315Y54712961D01*
X18784474Y54707034D01*
X18780713Y54698797D01*
X18758478Y54684508D01*
X18738511Y54667206D01*
X18727996Y54664919D01*
X18721935Y54661023D01*
X18687000Y54656000D01*
X18554000Y54656000D01*
X18486961Y54675685D01*
X18441206Y54728489D01*
X18430000Y54780000D01*
X18430000Y56561000D01*
X15890000Y56561000D01*
X15890000Y55672000D01*
X16782000Y55672000D01*
X16849039Y55652315D01*
X16894794Y55599511D01*
X16906000Y55548000D01*
X16906000Y54148000D01*
X19700014Y54148000D01*
X19767053Y54128315D01*
X19774939Y54122804D01*
X19895156Y54031640D01*
X19895157Y54031640D01*
X19895158Y54031639D01*
X20035936Y53976123D01*
X20124398Y53965500D01*
X20124403Y53965500D01*
X20885597Y53965500D01*
X20885602Y53965500D01*
X20974064Y53976123D01*
X21114842Y54031639D01*
X21235061Y54122804D01*
X21300372Y54147627D01*
X21309986Y54148000D01*
X21963000Y54148000D01*
X22030039Y54128315D01*
X22075794Y54075511D01*
X22087000Y54024000D01*
X22087000Y53100503D01*
X22088302Y53072317D01*
X22088304Y53072308D01*
X22119026Y52964331D01*
X22119029Y52964326D01*
X22186686Y52874733D01*
X22282139Y52815631D01*
X22282141Y52815630D01*
X22392500Y52795000D01*
X23894000Y52795000D01*
X23902685Y52792450D01*
X23911647Y52793738D01*
X23935687Y52782760D01*
X23961039Y52775315D01*
X23966966Y52768475D01*
X23975203Y52764713D01*
X23989492Y52742479D01*
X24006794Y52722511D01*
X24009081Y52711997D01*
X24012977Y52705935D01*
X24018000Y52671000D01*
X24018000Y52602609D01*
X24007435Y52552525D01*
X23999916Y52535497D01*
X23999915Y52535492D01*
X23997000Y52510369D01*
X23997000Y51430644D01*
X23997002Y51430626D01*
X23998391Y51418645D01*
X23998230Y51415295D01*
X23998872Y51413590D01*
X23997552Y51401133D01*
X23996462Y51378378D01*
X23995490Y51373845D01*
X23978876Y51317263D01*
X23969730Y51253659D01*
X23968842Y51249513D01*
X23954134Y51222382D01*
X23941308Y51194296D01*
X23937628Y51191932D01*
X23935545Y51188088D01*
X23908500Y51173213D01*
X23882530Y51156523D01*
X23876609Y51155672D01*
X23874325Y51154415D01*
X23869951Y51154715D01*
X23847596Y51151500D01*
X23634000Y51151500D01*
X23633991Y51151500D01*
X23633990Y51151499D01*
X23569064Y51144519D01*
X23569052Y51144517D01*
X23517546Y51133312D01*
X23479345Y51122356D01*
X23479341Y51122354D01*
X23382431Y51065677D01*
X23382428Y51065675D01*
X23329623Y51019919D01*
X23329612Y51019909D01*
X23287451Y50975193D01*
X23287445Y50975184D01*
X23236560Y50875110D01*
X23216877Y50808079D01*
X23204500Y50721998D01*
X23204500Y49451500D01*
X23201987Y49442944D01*
X23203276Y49434118D01*
X23192295Y49409937D01*
X23184815Y49384461D01*
X23178075Y49378622D01*
X23174388Y49370500D01*
X23152077Y49356094D01*
X23132011Y49338706D01*
X23121636Y49336438D01*
X23115692Y49332599D01*
X23081294Y49327616D01*
X23080768Y49327500D01*
X23080503Y49327500D01*
X23080500Y49327500D01*
X22853859Y49327500D01*
X22842015Y49327270D01*
X22834203Y49326967D01*
X22831930Y49326962D01*
X22830715Y49327316D01*
X22775447Y49319368D01*
X22757761Y49316292D01*
X22732476Y49306007D01*
X22732477Y49306006D01*
X22694043Y49290371D01*
X22691786Y49289453D01*
X22691437Y49290371D01*
X22670390Y49282371D01*
X22659375Y49276269D01*
X22653776Y49273991D01*
X22653762Y49273984D01*
X22647815Y49270163D01*
X22640903Y49266034D01*
X22617046Y49252814D01*
X22602435Y49245921D01*
X22591669Y49241675D01*
X22550934Y49225611D01*
X22520242Y49217852D01*
X22517464Y49217519D01*
X22512196Y49216886D01*
X22497407Y49216000D01*
X21762601Y49216000D01*
X21747814Y49216885D01*
X21739763Y49217852D01*
X21709060Y49225613D01*
X21671956Y49240245D01*
X21652738Y49250566D01*
X21652520Y49250191D01*
X21648180Y49252727D01*
X21559256Y49295437D01*
X21559257Y49295437D01*
X21559252Y49295439D01*
X21559249Y49295440D01*
X21559244Y49295442D01*
X21492219Y49315123D01*
X21492213Y49315124D01*
X21406141Y49327500D01*
X20190000Y49327500D01*
X20189991Y49327500D01*
X20189990Y49327499D01*
X20125064Y49320519D01*
X20125052Y49320517D01*
X20073546Y49309312D01*
X20035345Y49298356D01*
X20035341Y49298354D01*
X19938431Y49241677D01*
X19938428Y49241675D01*
X19885623Y49195919D01*
X19885612Y49195909D01*
X19843451Y49151193D01*
X19843445Y49151184D01*
X19792560Y49051110D01*
X19772877Y48984079D01*
X19760500Y48897998D01*
X19760500Y48811000D01*
X19740815Y48743961D01*
X19688011Y48698206D01*
X19636500Y48687000D01*
X13982000Y48687000D01*
X13914961Y48706685D01*
X13869206Y48759489D01*
X13858000Y48811000D01*
X13858000Y55548000D01*
X13877685Y55615039D01*
X13930489Y55660794D01*
X13982000Y55672000D01*
X14874000Y55672000D01*
X14874000Y57326000D01*
X14893685Y57393039D01*
X14946489Y57438794D01*
X14998000Y57450000D01*
X17965667Y57450000D01*
X18032706Y57430315D01*
G37*
%TD.AperFunction*%
%TD*%
%TA.AperFunction,Conductor*%
%TO.N,/brake_control/BUZZER*%
G36*
X23860731Y32111315D02*
G01*
X23881373Y32094681D01*
X23969327Y32006727D01*
X23969331Y32006724D01*
X24075866Y31935539D01*
X24075872Y31935536D01*
X24075873Y31935535D01*
X24194256Y31886499D01*
X24194260Y31886499D01*
X24194261Y31886498D01*
X24319928Y31861500D01*
X24319931Y31861500D01*
X24448071Y31861500D01*
X24532615Y31878318D01*
X24573744Y31886499D01*
X24692127Y31935535D01*
X24798669Y32006724D01*
X24798945Y32007000D01*
X24886627Y32094681D01*
X24913554Y32109385D01*
X24939373Y32125977D01*
X24945573Y32126869D01*
X24947950Y32128166D01*
X24974308Y32131000D01*
X25063692Y32131000D01*
X25130731Y32111315D01*
X25151373Y32094681D01*
X25239327Y32006727D01*
X25239331Y32006724D01*
X25345866Y31935539D01*
X25345879Y31935532D01*
X25450452Y31892217D01*
X25504856Y31848377D01*
X25526921Y31782082D01*
X25527000Y31777656D01*
X25527000Y30350000D01*
X25507315Y30282961D01*
X25454511Y30237206D01*
X25403000Y30226000D01*
X24844913Y30226000D01*
X24777874Y30245685D01*
X24737875Y30287400D01*
X24699179Y30353564D01*
X24699174Y30353572D01*
X24653418Y30406377D01*
X24653408Y30406388D01*
X24608692Y30448549D01*
X24608689Y30448551D01*
X24608687Y30448553D01*
X24508611Y30499439D01*
X24508610Y30499440D01*
X24508609Y30499440D01*
X24441578Y30519123D01*
X24441572Y30519124D01*
X24355500Y30531500D01*
X21079000Y30531500D01*
X21011961Y30551185D01*
X20966206Y30603989D01*
X20955000Y30655500D01*
X20955000Y32007000D01*
X20974685Y32074039D01*
X21027489Y32119794D01*
X21079000Y32131000D01*
X23793692Y32131000D01*
X23860731Y32111315D01*
G37*
%TD.AperFunction*%
%TD*%
%TA.AperFunction,Conductor*%
%TO.N,/brake_control/POWER SW*%
G36*
X4823565Y16505775D02*
G01*
X4830186Y16504001D01*
X4830188Y16504001D01*
X4830191Y16504000D01*
X5614535Y16504000D01*
X5681574Y16484315D01*
X5702215Y16467682D01*
X6567681Y15602215D01*
X6601166Y15540893D01*
X6604000Y15514535D01*
X6604000Y14221000D01*
X6584315Y14153961D01*
X6531511Y14108206D01*
X6480000Y14097000D01*
X3553000Y14097000D01*
X3485961Y14116685D01*
X3440206Y14169489D01*
X3429000Y14221000D01*
X3429000Y16386000D01*
X3448685Y16453039D01*
X3501489Y16498794D01*
X3553000Y16510000D01*
X4791474Y16510000D01*
X4823565Y16505775D01*
G37*
%TD.AperFunction*%
%TD*%
%TA.AperFunction,Conductor*%
%TO.N,/brake_control/I2C.SCL*%
G36*
X23457198Y58413126D02*
G01*
X23519828Y58398407D01*
X23568406Y58348188D01*
X23582597Y58291651D01*
X23584445Y58078282D01*
X23591701Y58014692D01*
X23602898Y57964272D01*
X23602904Y57964247D01*
X23613574Y57927348D01*
X23613576Y57927342D01*
X23613578Y57927339D01*
X23620037Y57916295D01*
X23637000Y57853692D01*
X23637000Y56812000D01*
X23617315Y56744961D01*
X23564511Y56699206D01*
X23513000Y56688000D01*
X20245500Y56688000D01*
X20178461Y56707685D01*
X20132706Y56760489D01*
X20121500Y56812000D01*
X20121500Y57211501D01*
X20141185Y57278540D01*
X20193989Y57324295D01*
X20245500Y57335501D01*
X20680856Y57335501D01*
X20680864Y57335501D01*
X20680879Y57335503D01*
X20680882Y57335503D01*
X20705987Y57338414D01*
X20705988Y57338415D01*
X20705991Y57338415D01*
X20808765Y57383794D01*
X20888206Y57463235D01*
X20933585Y57566009D01*
X20936500Y57591135D01*
X20936499Y58290501D01*
X20956183Y58357539D01*
X21008987Y58403294D01*
X21060499Y58414500D01*
X23457198Y58414500D01*
X23457198Y58413126D01*
G37*
%TD.AperFunction*%
%TD*%
%TA.AperFunction,Conductor*%
%TO.N,Net-(Q6-C)*%
G36*
X25206579Y27578401D02*
G01*
X25209943Y27577499D01*
X25368058Y27577499D01*
X25368062Y27577500D01*
X27943486Y27577500D01*
X28010525Y27557815D01*
X28042290Y27528425D01*
X28113077Y27435078D01*
X28233656Y27343640D01*
X28233657Y27343640D01*
X28233658Y27343639D01*
X28374436Y27288123D01*
X28462898Y27277500D01*
X29311035Y27277500D01*
X29378074Y27257815D01*
X29398716Y27241181D01*
X29620181Y27019716D01*
X29653666Y26958393D01*
X29656500Y26932035D01*
X29656500Y25397000D01*
X29636815Y25329961D01*
X29584011Y25284206D01*
X29532500Y25273000D01*
X28247466Y25273000D01*
X28218025Y25281645D01*
X28188039Y25288168D01*
X28183023Y25291923D01*
X28180427Y25292685D01*
X28159785Y25309319D01*
X28118819Y25350285D01*
X28085334Y25411608D01*
X28082500Y25437966D01*
X28082500Y25464072D01*
X28057502Y25589739D01*
X28057501Y25589740D01*
X28057501Y25589744D01*
X28008465Y25708127D01*
X28008464Y25708128D01*
X28008461Y25708134D01*
X27937276Y25814669D01*
X27937273Y25814673D01*
X27846672Y25905274D01*
X27846668Y25905277D01*
X27740133Y25976462D01*
X27740124Y25976467D01*
X27621744Y26025501D01*
X27621738Y26025503D01*
X27496071Y26050500D01*
X27496069Y26050500D01*
X27367931Y26050500D01*
X27367929Y26050500D01*
X27242261Y26025503D01*
X27242255Y26025501D01*
X27123875Y25976467D01*
X27123866Y25976462D01*
X27017331Y25905277D01*
X27017327Y25905274D01*
X26926726Y25814673D01*
X26926723Y25814669D01*
X26855538Y25708134D01*
X26855533Y25708125D01*
X26806499Y25589745D01*
X26806497Y25589739D01*
X26781500Y25464072D01*
X26781500Y25397000D01*
X26761815Y25329961D01*
X26709011Y25284206D01*
X26657500Y25273000D01*
X25012874Y25273000D01*
X25009338Y25274039D01*
X25005749Y25273205D01*
X24976067Y25283808D01*
X24945835Y25292685D01*
X24943422Y25295469D01*
X24939951Y25296709D01*
X24920708Y25321683D01*
X24900080Y25345489D01*
X24898898Y25349989D01*
X24897306Y25352055D01*
X24895684Y25362224D01*
X24889325Y25386435D01*
X24888584Y25395091D01*
X24889808Y25417466D01*
X24881828Y25478414D01*
X24881463Y25478367D01*
X24880843Y25485613D01*
X24880885Y25485618D01*
X24880765Y25486535D01*
X24880529Y25489295D01*
X24880676Y25490020D01*
X24880000Y25500460D01*
X24880000Y25671862D01*
X24889439Y25719315D01*
X24923776Y25802211D01*
X24944277Y25905274D01*
X24955500Y25961693D01*
X24955500Y26574308D01*
X24923777Y26733784D01*
X24923776Y26733785D01*
X24923776Y26733789D01*
X24923774Y26733794D01*
X24889439Y26816688D01*
X24887812Y26824865D01*
X24885023Y26829205D01*
X24880000Y26864140D01*
X24880000Y26963434D01*
X24899685Y27030473D01*
X24924085Y27058247D01*
X24930251Y27063443D01*
X24964489Y27098703D01*
X24964497Y27098714D01*
X24964506Y27098722D01*
X24973169Y27108743D01*
X24987553Y27125376D01*
X25038439Y27225452D01*
X25058124Y27292491D01*
X25070500Y27378563D01*
X25070500Y27454463D01*
X25073143Y27463468D01*
X25071858Y27472762D01*
X25082829Y27496454D01*
X25090185Y27521502D01*
X25097275Y27527647D01*
X25101220Y27536163D01*
X25123261Y27550164D01*
X25142989Y27567257D01*
X25152391Y27568666D01*
X25160198Y27573624D01*
X25195159Y27578461D01*
X25206579Y27578401D01*
G37*
%TD.AperFunction*%
%TD*%
%TA.AperFunction,Conductor*%
%TO.N,/brake_control/VBUS*%
G36*
X18993039Y76688315D02*
G01*
X19038794Y76635511D01*
X19050000Y76584000D01*
X19050000Y76430877D01*
X19030315Y76363838D01*
X19000927Y76332075D01*
X18969080Y76307925D01*
X18969074Y76307918D01*
X18877639Y76187344D01*
X18822122Y76046562D01*
X18816188Y75997147D01*
X18811500Y75958102D01*
X18811500Y75171898D01*
X18817126Y75125046D01*
X18822122Y75083439D01*
X18877639Y74942657D01*
X18969077Y74822079D01*
X18969078Y74822078D01*
X19000925Y74797928D01*
X19042448Y74741737D01*
X19050000Y74699124D01*
X19050000Y74430877D01*
X19030315Y74363838D01*
X19000927Y74332075D01*
X18969080Y74307925D01*
X18969074Y74307918D01*
X18877639Y74187344D01*
X18822122Y74046562D01*
X18816188Y73997147D01*
X18811500Y73958102D01*
X18811500Y73958097D01*
X18811500Y73465098D01*
X18804958Y73442822D01*
X18802889Y73419696D01*
X18794336Y73406646D01*
X18791815Y73398059D01*
X18785424Y73389026D01*
X18780668Y73382905D01*
X18696480Y73298716D01*
X18646360Y73211905D01*
X18642110Y73204544D01*
X18642107Y73204540D01*
X18617425Y73161791D01*
X18617424Y73161790D01*
X18617423Y73161785D01*
X18580042Y73022277D01*
X18576499Y73009056D01*
X18576072Y73005811D01*
X18574950Y73003278D01*
X18574396Y73001206D01*
X18574072Y73001293D01*
X18547803Y72941915D01*
X18489478Y72903446D01*
X18453133Y72898000D01*
X17354308Y72898000D01*
X17287269Y72917685D01*
X17266627Y72934319D01*
X17178672Y73022274D01*
X17178668Y73022277D01*
X17072133Y73093462D01*
X17072124Y73093467D01*
X16953744Y73142501D01*
X16953738Y73142503D01*
X16828071Y73167500D01*
X16828069Y73167500D01*
X16699931Y73167500D01*
X16699929Y73167500D01*
X16574261Y73142503D01*
X16574255Y73142501D01*
X16455875Y73093467D01*
X16455866Y73093462D01*
X16349331Y73022277D01*
X16349327Y73022274D01*
X16261373Y72934319D01*
X16200050Y72900834D01*
X16173692Y72898000D01*
X15895666Y72898000D01*
X15828627Y72917685D01*
X15782872Y72970489D01*
X15772928Y73039647D01*
X15775421Y73049843D01*
X15775036Y73049927D01*
X15776646Y73057301D01*
X15779500Y73087731D01*
X15779500Y74221270D01*
X15776646Y74251700D01*
X15776646Y74251702D01*
X15731793Y74379881D01*
X15731793Y74379882D01*
X15680359Y74449572D01*
X15670629Y74462757D01*
X15646659Y74528386D01*
X15646400Y74536390D01*
X15646400Y76584000D01*
X15666085Y76651039D01*
X15718889Y76696794D01*
X15770400Y76708000D01*
X18926000Y76708000D01*
X18993039Y76688315D01*
G37*
%TD.AperFunction*%
%TD*%
%TA.AperFunction,Conductor*%
%TO.N,+3V3*%
G36*
X36265039Y33127315D02*
G01*
X36310794Y33074511D01*
X36322000Y33023000D01*
X36322000Y31366000D01*
X36302315Y31298961D01*
X36249511Y31253206D01*
X36198000Y31242000D01*
X30384500Y31242000D01*
X30317461Y31261685D01*
X30271706Y31314489D01*
X30260500Y31366000D01*
X30260499Y32417857D01*
X30260499Y32417864D01*
X30257585Y32442991D01*
X30249613Y32461046D01*
X30236565Y32490599D01*
X30226000Y32540683D01*
X30226000Y33023000D01*
X30245685Y33090039D01*
X30298489Y33135794D01*
X30350000Y33147000D01*
X36198000Y33147000D01*
X36265039Y33127315D01*
G37*
%TD.AperFunction*%
%TD*%
%TA.AperFunction,Conductor*%
%TO.N,+5V*%
G36*
X15024210Y42398315D02*
G01*
X15044852Y42381681D01*
X17147022Y40279511D01*
X17249749Y40220201D01*
X17263558Y40216501D01*
X17263560Y40216500D01*
X17263561Y40216500D01*
X17284855Y40210795D01*
X17364327Y40189500D01*
X17364329Y40189500D01*
X17783000Y40189500D01*
X17850039Y40169815D01*
X17895794Y40117011D01*
X17907000Y40065500D01*
X17907000Y33652000D01*
X17887315Y33584961D01*
X17834511Y33539206D01*
X17783000Y33528000D01*
X16081997Y33528000D01*
X16014958Y33547685D01*
X15969203Y33600489D01*
X15959259Y33669647D01*
X15982227Y33725633D01*
X16046790Y33813114D01*
X16046789Y33813114D01*
X16046793Y33813118D01*
X16069219Y33877210D01*
X16091646Y33941299D01*
X16091646Y33941301D01*
X16094500Y33971731D01*
X16094500Y35105270D01*
X16091646Y35135700D01*
X16091646Y35135702D01*
X16046793Y35263881D01*
X16046792Y35263883D01*
X15966150Y35373150D01*
X15966145Y35373154D01*
X15925365Y35403252D01*
X15883115Y35458900D01*
X15875000Y35503021D01*
X15875000Y37846000D01*
X13205000Y37846000D01*
X13137961Y37865685D01*
X13092206Y37918489D01*
X13081000Y37970000D01*
X13081000Y40513000D01*
X11173000Y40513000D01*
X11105961Y40532685D01*
X11060206Y40585489D01*
X11049000Y40637000D01*
X11049000Y41989138D01*
X11068685Y42056177D01*
X11085319Y42076819D01*
X11279688Y42271187D01*
X11390182Y42381681D01*
X11451505Y42415166D01*
X11477863Y42418000D01*
X14957171Y42418000D01*
X15024210Y42398315D01*
G37*
%TD.AperFunction*%
%TD*%
%TA.AperFunction,Conductor*%
%TO.N,Net-(U6-EN)*%
G36*
X22168039Y76688315D02*
G01*
X22213794Y76635511D01*
X22225000Y76584000D01*
X22225000Y76386378D01*
X22205315Y76319339D01*
X22200771Y76312745D01*
X22180207Y76284882D01*
X22135353Y76156697D01*
X22132500Y76126270D01*
X22132500Y74992731D01*
X22135353Y74962301D01*
X22135353Y74962299D01*
X22180206Y74834120D01*
X22180207Y74834118D01*
X22200770Y74806255D01*
X22208226Y74785842D01*
X22219977Y74767558D01*
X22223269Y74744658D01*
X22224741Y74740629D01*
X22225000Y74732623D01*
X22225000Y74673000D01*
X22205315Y74605961D01*
X22152511Y74560206D01*
X22101000Y74549000D01*
X19479500Y74549000D01*
X19412461Y74568685D01*
X19366706Y74621489D01*
X19355500Y74673000D01*
X19355500Y74699131D01*
X19355499Y74699134D01*
X19353238Y74724850D01*
X19350813Y74752435D01*
X19343261Y74795048D01*
X19337139Y74822281D01*
X19288144Y74923297D01*
X19246621Y74979488D01*
X19194154Y75032609D01*
X19183573Y75044820D01*
X19156732Y75080216D01*
X19140183Y75109650D01*
X19126611Y75144066D01*
X19118849Y75174779D01*
X19117884Y75182819D01*
X19117000Y75197596D01*
X19117000Y75932408D01*
X19117884Y75947185D01*
X19118849Y75955225D01*
X19126611Y75985939D01*
X19140184Y76020357D01*
X19156730Y76049786D01*
X19180744Y76081453D01*
X19196244Y76098375D01*
X19225169Y76124600D01*
X19254557Y76156363D01*
X19272553Y76177690D01*
X19323439Y76277766D01*
X19343124Y76344805D01*
X19355500Y76430877D01*
X19355500Y76584000D01*
X19375185Y76651039D01*
X19427989Y76696794D01*
X19479500Y76708000D01*
X22101000Y76708000D01*
X22168039Y76688315D01*
G37*
%TD.AperFunction*%
%TD*%
%TA.AperFunction,Conductor*%
%TO.N,/brake_control/ENABLE*%
G36*
X6314733Y46602043D02*
G01*
X6435301Y46559854D01*
X6445445Y46558903D01*
X6465730Y46557000D01*
X6465734Y46557000D01*
X6874270Y46557000D01*
X6891656Y46558631D01*
X6904699Y46559854D01*
X7025266Y46602043D01*
X7066220Y46609000D01*
X7877000Y46609000D01*
X7944039Y46589315D01*
X7989794Y46536511D01*
X8001000Y46485000D01*
X8001000Y44955000D01*
X7981315Y44887961D01*
X7928511Y44842206D01*
X7877000Y44831000D01*
X3934000Y44831000D01*
X3866961Y44850685D01*
X3821206Y44903489D01*
X3810000Y44955000D01*
X3810000Y46485000D01*
X3829685Y46552039D01*
X3882489Y46597794D01*
X3934000Y46609000D01*
X6273780Y46609000D01*
X6314733Y46602043D01*
G37*
%TD.AperFunction*%
%TD*%
%TA.AperFunction,Conductor*%
%TO.N,Net-(J1-Pin_2)*%
G36*
X33740039Y61494315D02*
G01*
X33785794Y61441511D01*
X33797000Y61390000D01*
X33797000Y58082000D01*
X33777315Y58014961D01*
X33724511Y57969206D01*
X33673000Y57958000D01*
X24013930Y57958000D01*
X23946891Y57977685D01*
X23901136Y58030489D01*
X23889935Y58080926D01*
X23877083Y59564926D01*
X23896186Y59632134D01*
X23948592Y59678344D01*
X24001078Y59690000D01*
X30099000Y59690000D01*
X30099000Y61390000D01*
X30118685Y61457039D01*
X30171489Y61502794D01*
X30223000Y61514000D01*
X33673000Y61514000D01*
X33740039Y61494315D01*
G37*
%TD.AperFunction*%
%TD*%
%TA.AperFunction,Conductor*%
%TO.N,+3V3*%
G36*
X19952574Y17506315D02*
G01*
X19973213Y17489683D01*
X20965386Y16497510D01*
X21068114Y16438201D01*
X21182691Y16407500D01*
X21182694Y16407500D01*
X21593000Y16407500D01*
X21660039Y16387815D01*
X21705794Y16335011D01*
X21717000Y16283500D01*
X21717000Y11034500D01*
X21697315Y10967461D01*
X21644511Y10921706D01*
X21593000Y10910500D01*
X21326893Y10910500D01*
X21259854Y10930185D01*
X21214099Y10982989D01*
X21203718Y11020217D01*
X21202585Y11029991D01*
X21157206Y11132765D01*
X21077765Y11212206D01*
X21077763Y11212207D01*
X20974992Y11257585D01*
X20949865Y11260500D01*
X18960143Y11260500D01*
X18960117Y11260498D01*
X18935012Y11257587D01*
X18935008Y11257585D01*
X18832235Y11212207D01*
X18752794Y11132766D01*
X18707415Y11029994D01*
X18707415Y11029992D01*
X18704500Y11004869D01*
X18704500Y9915144D01*
X18704708Y9911561D01*
X18703259Y9911478D01*
X18692410Y9848401D01*
X18645218Y9796878D01*
X18581077Y9779000D01*
X10284000Y9779000D01*
X10216961Y9798685D01*
X10171206Y9851489D01*
X10160000Y9903000D01*
X10160000Y11306000D01*
X10179685Y11373039D01*
X10232489Y11418794D01*
X10284000Y11430000D01*
X14602874Y11430000D01*
X14617655Y11429116D01*
X14661539Y11423846D01*
X14689397Y11420500D01*
X14689398Y11420500D01*
X15450603Y11420500D01*
X15478460Y11423846D01*
X15522344Y11429116D01*
X15537126Y11430000D01*
X16256000Y11430000D01*
X16256000Y15230762D01*
X16275685Y15297801D01*
X16290884Y15316162D01*
X16290488Y15316538D01*
X16335004Y15363357D01*
X16335005Y15363358D01*
X16335004Y15363358D01*
X16335008Y15363361D01*
X16386314Y15463223D01*
X16406280Y15530179D01*
X16419016Y15616196D01*
X16426517Y17402521D01*
X16446483Y17469477D01*
X16499479Y17515010D01*
X16550516Y17526000D01*
X19885535Y17526000D01*
X19952574Y17506315D01*
G37*
%TD.AperFunction*%
%TD*%
%TA.AperFunction,Conductor*%
%TO.N,Net-(Q1-G)*%
G36*
X24976556Y52604315D02*
G01*
X25022311Y52551511D01*
X25033515Y52499520D01*
X25022952Y49784000D01*
X26927000Y49784000D01*
X26994039Y49764315D01*
X27039794Y49711511D01*
X27051000Y49660000D01*
X27051000Y47495000D01*
X27031315Y47427961D01*
X26978511Y47382206D01*
X26927000Y47371000D01*
X23634000Y47371000D01*
X23566961Y47390685D01*
X23521206Y47443489D01*
X23510000Y47495000D01*
X23510000Y50722000D01*
X23529685Y50789039D01*
X23582489Y50834794D01*
X23634000Y50846000D01*
X24272000Y50846000D01*
X24272000Y51231191D01*
X24291685Y51298230D01*
X24293701Y51301269D01*
X24294701Y51302731D01*
X24294706Y51302735D01*
X24340085Y51405509D01*
X24343000Y51430635D01*
X24342999Y52500001D01*
X24362683Y52567039D01*
X24415487Y52612794D01*
X24466999Y52624000D01*
X24909517Y52624000D01*
X24976556Y52604315D01*
G37*
%TD.AperFunction*%
%TD*%
%TA.AperFunction,Conductor*%
%TO.N,/control_connector/LED RED*%
G36*
X21473180Y49002315D02*
G01*
X21481066Y48996804D01*
X21507656Y48976640D01*
X21507657Y48976640D01*
X21507658Y48976639D01*
X21648436Y48921123D01*
X21736898Y48910500D01*
X21736903Y48910500D01*
X22523097Y48910500D01*
X22523102Y48910500D01*
X22611564Y48921123D01*
X22752342Y48976639D01*
X22762111Y48984048D01*
X22778934Y48996804D01*
X22799981Y49004804D01*
X22818924Y49016977D01*
X22839973Y49020004D01*
X22844245Y49021627D01*
X22853859Y49022000D01*
X23080500Y49022000D01*
X23147539Y49002315D01*
X23193294Y48949511D01*
X23204500Y48898000D01*
X23204500Y47495000D01*
X23204501Y47494991D01*
X23211481Y47430065D01*
X23211483Y47430053D01*
X23222688Y47378547D01*
X23233644Y47340346D01*
X23233646Y47340342D01*
X23290323Y47243432D01*
X23290325Y47243429D01*
X23336081Y47190624D01*
X23336091Y47190613D01*
X23376552Y47152465D01*
X23380813Y47148447D01*
X23380817Y47148445D01*
X23385163Y47145386D01*
X23428660Y47090708D01*
X23435691Y47021193D01*
X23404022Y46958912D01*
X23388735Y46945180D01*
X23387079Y46943925D01*
X23295639Y46823344D01*
X23240122Y46682562D01*
X23234188Y46633147D01*
X23229500Y46594102D01*
X23229500Y45607898D01*
X23235126Y45561046D01*
X23240122Y45519439D01*
X23295639Y45378657D01*
X23387077Y45258078D01*
X23507656Y45166640D01*
X23507657Y45166640D01*
X23507658Y45166639D01*
X23618992Y45122735D01*
X23674134Y45079830D01*
X23697327Y45013922D01*
X23697500Y45007381D01*
X23697500Y43592500D01*
X23677815Y43525461D01*
X23625011Y43479706D01*
X23573500Y43468500D01*
X22798143Y43468500D01*
X22798117Y43468498D01*
X22773012Y43465587D01*
X22773008Y43465585D01*
X22670235Y43420207D01*
X22590794Y43340766D01*
X22545415Y43237994D01*
X22545415Y43237992D01*
X22542500Y43212869D01*
X22542500Y41623144D01*
X22542502Y41623118D01*
X22545413Y41598013D01*
X22545414Y41598012D01*
X22545414Y41598010D01*
X22545415Y41598009D01*
X22590794Y41495235D01*
X22590795Y41495234D01*
X22595434Y41484728D01*
X22597483Y41475012D01*
X22600977Y41469576D01*
X22606000Y41434641D01*
X22606000Y41399000D01*
X22586315Y41331961D01*
X22533511Y41286206D01*
X22482000Y41275000D01*
X20190000Y41275000D01*
X20122961Y41294685D01*
X20077206Y41347489D01*
X20066000Y41399000D01*
X20066000Y48898000D01*
X20085685Y48965039D01*
X20138489Y49010794D01*
X20190000Y49022000D01*
X21406141Y49022000D01*
X21473180Y49002315D01*
G37*
%TD.AperFunction*%
%TD*%
%TA.AperFunction,Conductor*%
%TO.N,/brake_control/I2C.SDA*%
G36*
X21545626Y60432315D02*
G01*
X21585625Y60390600D01*
X21624320Y60324437D01*
X21624325Y60324429D01*
X21670081Y60271624D01*
X21670091Y60271613D01*
X21714807Y60229452D01*
X21714809Y60229451D01*
X21714813Y60229447D01*
X21814889Y60178561D01*
X21881928Y60158876D01*
X21968000Y60146500D01*
X21968003Y60146500D01*
X23697302Y60146500D01*
X23764341Y60126815D01*
X23810096Y60074011D01*
X23820040Y60004853D01*
X23791015Y59941297D01*
X23760827Y59916008D01*
X23746549Y59907491D01*
X23746538Y59907483D01*
X23694148Y59861288D01*
X23694136Y59861276D01*
X23652342Y59816173D01*
X23602325Y59715659D01*
X23583223Y59648455D01*
X23583222Y59648452D01*
X23571593Y59562275D01*
X23577805Y58845074D01*
X23558702Y58777866D01*
X23506296Y58731656D01*
X23453810Y58720000D01*
X21060499Y58720000D01*
X20993460Y58739685D01*
X20947705Y58792489D01*
X20936499Y58844000D01*
X20936499Y59340857D01*
X20936499Y59340864D01*
X20936497Y59340883D01*
X20933586Y59365988D01*
X20933585Y59365990D01*
X20933585Y59365991D01*
X20888206Y59468765D01*
X20808765Y59548206D01*
X20776902Y59562275D01*
X20705992Y59593585D01*
X20680868Y59596500D01*
X20680865Y59596500D01*
X20245499Y59596500D01*
X20178460Y59616185D01*
X20132705Y59668989D01*
X20121499Y59720501D01*
X20121500Y59861277D01*
X20121500Y60328000D01*
X20141185Y60395039D01*
X20193989Y60440794D01*
X20245500Y60452000D01*
X21478587Y60452000D01*
X21545626Y60432315D01*
G37*
%TD.AperFunction*%
%TD*%
%TA.AperFunction,Conductor*%
%TO.N,+3V3*%
G36*
X23617901Y62718315D02*
G01*
X23663656Y62665511D01*
X23673600Y62596353D01*
X23658947Y62553225D01*
X23655640Y62547346D01*
X23600124Y62406563D01*
X23600123Y62406562D01*
X23589500Y62318100D01*
X23589500Y61306909D01*
X23600123Y61218438D01*
X23655639Y61077658D01*
X23655640Y61077656D01*
X23747077Y60957078D01*
X23867655Y60865641D01*
X23867658Y60865639D01*
X23924489Y60843228D01*
X23941078Y60830321D01*
X23960203Y60821587D01*
X23968102Y60809296D01*
X23979633Y60800324D01*
X23986611Y60780495D01*
X23997977Y60762809D01*
X24001528Y60738106D01*
X24002827Y60734417D01*
X24003000Y60727874D01*
X24003000Y60576000D01*
X23983315Y60508961D01*
X23930511Y60463206D01*
X23879000Y60452000D01*
X21968000Y60452000D01*
X21900961Y60471685D01*
X21855206Y60524489D01*
X21844000Y60576000D01*
X21844000Y62614000D01*
X21863685Y62681039D01*
X21916489Y62726794D01*
X21968000Y62738000D01*
X23550862Y62738000D01*
X23617901Y62718315D01*
G37*
%TD.AperFunction*%
%TD*%
%TA.AperFunction,Conductor*%
%TO.N,GND*%
G36*
X9044539Y63555815D02*
G01*
X9090294Y63503011D01*
X9101500Y63451500D01*
X9101500Y62730500D01*
X9081815Y62663461D01*
X9029011Y62617706D01*
X8977500Y62606500D01*
X8904898Y62606500D01*
X8865853Y62601812D01*
X8816438Y62595878D01*
X8675656Y62540361D01*
X8555077Y62448923D01*
X8463639Y62328344D01*
X8408122Y62187562D01*
X8405090Y62162309D01*
X8397500Y62099102D01*
X8397500Y62099097D01*
X8397500Y61606098D01*
X8388855Y61576658D01*
X8382332Y61546671D01*
X8378577Y61541656D01*
X8377815Y61539059D01*
X8361181Y61518417D01*
X8185584Y61342819D01*
X8124261Y61309334D01*
X8097903Y61306500D01*
X6666730Y61306500D01*
X6636300Y61303647D01*
X6636298Y61303647D01*
X6508119Y61258794D01*
X6508117Y61258793D01*
X6398850Y61178150D01*
X6318207Y61068883D01*
X6318206Y61068881D01*
X6273353Y60940702D01*
X6273353Y60940700D01*
X6270500Y60910270D01*
X6270500Y60501742D01*
X6270622Y60499133D01*
X6254091Y60431247D01*
X6203482Y60383075D01*
X6160020Y60370052D01*
X6155059Y60369518D01*
X6155054Y60369517D01*
X6155052Y60369517D01*
X6103546Y60358312D01*
X6065345Y60347356D01*
X6065341Y60347354D01*
X5968431Y60290677D01*
X5968423Y60290671D01*
X5923831Y60252032D01*
X5860275Y60223008D01*
X5791117Y60232952D01*
X5768996Y60245976D01*
X5765042Y60248894D01*
X5683882Y60308793D01*
X5683880Y60308794D01*
X5555700Y60353647D01*
X5525270Y60356500D01*
X5525266Y60356500D01*
X4391734Y60356500D01*
X4391730Y60356500D01*
X4361300Y60353647D01*
X4361298Y60353647D01*
X4233119Y60308794D01*
X4233117Y60308793D01*
X4123850Y60228150D01*
X4043207Y60118883D01*
X4043206Y60118881D01*
X3998353Y59990702D01*
X3998353Y59990700D01*
X3995500Y59960270D01*
X3995500Y59551731D01*
X3998353Y59521301D01*
X3998353Y59521299D01*
X4043206Y59393120D01*
X4043207Y59393118D01*
X4123850Y59283850D01*
X4233118Y59203207D01*
X4274068Y59188878D01*
X4361299Y59158354D01*
X4391730Y59155500D01*
X4391734Y59155500D01*
X5525270Y59155500D01*
X5549612Y59157784D01*
X5555699Y59158354D01*
X5625544Y59182795D01*
X5695323Y59186357D01*
X5755951Y59151628D01*
X5788178Y59089635D01*
X5790500Y59065753D01*
X5790500Y54606998D01*
X5792495Y54588441D01*
X5789471Y54571194D01*
X5791448Y54554389D01*
X5781869Y54527826D01*
X5780637Y54520791D01*
X5778746Y54516919D01*
X5741201Y54451887D01*
X5741201Y54451886D01*
X5734143Y54425550D01*
X5734143Y54425547D01*
X5710500Y54337309D01*
X5710500Y49777713D01*
X5727974Y49712499D01*
X5741201Y49663135D01*
X5800511Y49560408D01*
X5800513Y49560406D01*
X7133181Y48227738D01*
X7166666Y48166415D01*
X7169500Y48140057D01*
X7169500Y47037194D01*
X7161028Y47008345D01*
X7154942Y46978899D01*
X7151286Y46975168D01*
X7149815Y46970155D01*
X7127093Y46950467D01*
X7106052Y46928984D01*
X7100251Y46927208D01*
X7097011Y46924400D01*
X7073113Y46916308D01*
X7064599Y46914364D01*
X7015057Y46910185D01*
X6974103Y46903228D01*
X6924364Y46890399D01*
X6857959Y46867163D01*
X6851180Y46865614D01*
X6844349Y46866032D01*
X6823567Y46862500D01*
X6516432Y46862500D01*
X6475477Y46869459D01*
X6415640Y46890397D01*
X6415638Y46890398D01*
X6415634Y46890399D01*
X6396801Y46895257D01*
X6365897Y46903229D01*
X6365887Y46903231D01*
X6324939Y46910186D01*
X6273797Y46914500D01*
X6273780Y46914500D01*
X3934000Y46914500D01*
X3933991Y46914500D01*
X3933990Y46914499D01*
X3869064Y46907519D01*
X3869052Y46907517D01*
X3817546Y46896312D01*
X3779345Y46885356D01*
X3779341Y46885354D01*
X3682431Y46828677D01*
X3682428Y46828675D01*
X3629623Y46782919D01*
X3629612Y46782909D01*
X3587451Y46738193D01*
X3587445Y46738184D01*
X3536560Y46638110D01*
X3516877Y46571079D01*
X3516876Y46571072D01*
X3504500Y46485000D01*
X3504500Y44955000D01*
X3504501Y44954991D01*
X3511481Y44890065D01*
X3511483Y44890053D01*
X3522688Y44838547D01*
X3533644Y44800346D01*
X3533646Y44800342D01*
X3590323Y44703432D01*
X3590325Y44703429D01*
X3636081Y44650624D01*
X3636091Y44650613D01*
X3680807Y44608452D01*
X3680809Y44608451D01*
X3680813Y44608447D01*
X3780889Y44557561D01*
X3847928Y44537876D01*
X3934000Y44525500D01*
X7005029Y44525500D01*
X7072068Y44505815D01*
X7117823Y44453011D01*
X7127767Y44383853D01*
X7098742Y44320297D01*
X7092710Y44313819D01*
X6476513Y43697623D01*
X6476509Y43697617D01*
X6417201Y43594894D01*
X6417200Y43594889D01*
X6386500Y43480315D01*
X6386500Y22784439D01*
X6386501Y22784435D01*
X6405909Y22712001D01*
X6417201Y22669860D01*
X6417201Y22669859D01*
X6442268Y22626442D01*
X6476512Y22567131D01*
X6476514Y22567129D01*
X7528181Y21515462D01*
X7561666Y21454139D01*
X7564500Y21427781D01*
X7564500Y19004500D01*
X7544815Y18937461D01*
X7492011Y18891706D01*
X7440500Y18880500D01*
X7020143Y18880500D01*
X7020117Y18880498D01*
X6995012Y18877587D01*
X6995008Y18877585D01*
X6892235Y18832207D01*
X6812794Y18752766D01*
X6767415Y18649994D01*
X6767415Y18649992D01*
X6764500Y18624869D01*
X6764500Y17535144D01*
X6764502Y17535118D01*
X6767413Y17510013D01*
X6767415Y17510009D01*
X6812793Y17407236D01*
X6812794Y17407235D01*
X6892235Y17327794D01*
X6995009Y17282415D01*
X7020135Y17279500D01*
X9009864Y17279501D01*
X9009879Y17279503D01*
X9009882Y17279503D01*
X9034987Y17282414D01*
X9034988Y17282415D01*
X9034991Y17282415D01*
X9137765Y17327794D01*
X9217206Y17407235D01*
X9262585Y17510009D01*
X9265500Y17535135D01*
X9265499Y18624864D01*
X9265497Y18624883D01*
X9262586Y18649988D01*
X9262585Y18649990D01*
X9262585Y18649991D01*
X9217206Y18752765D01*
X9137765Y18832206D01*
X9137763Y18832207D01*
X9034992Y18877585D01*
X9009868Y18880500D01*
X9009865Y18880500D01*
X8589500Y18880500D01*
X8522461Y18900185D01*
X8476706Y18952989D01*
X8465500Y19004500D01*
X8465500Y21270144D01*
X8485185Y21337183D01*
X8537989Y21382938D01*
X8607147Y21392882D01*
X8670703Y21363857D01*
X8677181Y21357825D01*
X9334794Y20700212D01*
X9334795Y20700211D01*
X9446295Y20588711D01*
X9446296Y20588710D01*
X9577398Y20501110D01*
X9577402Y20501108D01*
X9577405Y20501106D01*
X9710171Y20446113D01*
X9710174Y20446112D01*
X9710175Y20446111D01*
X9723082Y20440765D01*
X9723087Y20440763D01*
X9723091Y20440763D01*
X9723092Y20440762D01*
X9877738Y20410000D01*
X9877741Y20410000D01*
X10086780Y20410000D01*
X10086789Y20410001D01*
X18580500Y20410001D01*
X18647539Y20390316D01*
X18693294Y20337512D01*
X18704500Y20286002D01*
X18704500Y20075144D01*
X18704502Y20075118D01*
X18707413Y20050013D01*
X18707415Y20050009D01*
X18752793Y19947236D01*
X18752794Y19947235D01*
X18832235Y19867794D01*
X18935009Y19822415D01*
X18960135Y19819500D01*
X19876155Y19819501D01*
X19876158Y19819500D01*
X20033843Y19819500D01*
X20033845Y19819501D01*
X20949864Y19819501D01*
X20949879Y19819503D01*
X20949882Y19819503D01*
X20974987Y19822414D01*
X20974988Y19822415D01*
X20974991Y19822415D01*
X21077765Y19867794D01*
X21157206Y19947235D01*
X21202585Y20050009D01*
X21205500Y20075135D01*
X21205499Y21164864D01*
X21205497Y21164883D01*
X21202586Y21189989D01*
X21202584Y21189994D01*
X21157206Y21292765D01*
X21077765Y21372206D01*
X20974992Y21417585D01*
X20949868Y21420500D01*
X20949865Y21420500D01*
X20337940Y21420500D01*
X20308499Y21429145D01*
X20278513Y21435668D01*
X20273497Y21439423D01*
X20270901Y21440185D01*
X20250259Y21456819D01*
X20107759Y21599319D01*
X20074274Y21660642D01*
X20079258Y21730334D01*
X20121130Y21786267D01*
X20186594Y21810684D01*
X20195440Y21811000D01*
X24134171Y21811000D01*
X24201210Y21791315D01*
X24221852Y21774681D01*
X27142181Y18854352D01*
X27175666Y18793029D01*
X27178500Y18766671D01*
X27178500Y18564898D01*
X27184126Y18518046D01*
X27189122Y18476439D01*
X27244639Y18335657D01*
X27336077Y18215078D01*
X27456656Y18123640D01*
X27456657Y18123640D01*
X27456658Y18123639D01*
X27597436Y18068123D01*
X27685898Y18057500D01*
X27685903Y18057500D01*
X29972097Y18057500D01*
X29972102Y18057500D01*
X30060564Y18068123D01*
X30201342Y18123639D01*
X30321922Y18215078D01*
X30378196Y18289286D01*
X30434388Y18330809D01*
X30504110Y18335361D01*
X30565224Y18301496D01*
X30598327Y18239967D01*
X30601000Y18214361D01*
X30601000Y17501640D01*
X30581315Y17434601D01*
X30528511Y17388846D01*
X30459353Y17378902D01*
X30395797Y17407927D01*
X30378196Y17426714D01*
X30321920Y17500924D01*
X30201343Y17592361D01*
X30060561Y17647878D01*
X30014926Y17653358D01*
X29972102Y17658500D01*
X27685898Y17658500D01*
X27646853Y17653812D01*
X27597438Y17647878D01*
X27456656Y17592361D01*
X27336077Y17500923D01*
X27244638Y17380342D01*
X27240481Y17372948D01*
X27237587Y17374575D01*
X27204383Y17331881D01*
X27138480Y17308674D01*
X27131914Y17308500D01*
X21479966Y17308500D01*
X21412927Y17328185D01*
X21392285Y17344819D01*
X19834616Y18902487D01*
X19834614Y18902489D01*
X19777280Y18935591D01*
X19731888Y18961799D01*
X19719780Y18965043D01*
X19707673Y18968287D01*
X19707670Y18968288D01*
X19669478Y18978522D01*
X19617309Y18992500D01*
X19617308Y18992500D01*
X18128616Y18992500D01*
X18061577Y19012185D01*
X18015822Y19064989D01*
X18005500Y19101718D01*
X18002877Y19123562D01*
X18002877Y19123564D01*
X17947361Y19264342D01*
X17947360Y19264343D01*
X17947360Y19264344D01*
X17855922Y19384923D01*
X17735343Y19476361D01*
X17639192Y19514278D01*
X17594564Y19531877D01*
X17594563Y19531878D01*
X17594561Y19531878D01*
X17548926Y19537358D01*
X17506102Y19542500D01*
X16719898Y19542500D01*
X16656710Y19534913D01*
X16631434Y19531877D01*
X16490661Y19476363D01*
X16490655Y19476360D01*
X16473803Y19463580D01*
X16408491Y19438757D01*
X16340127Y19453185D01*
X16305163Y19481184D01*
X16302398Y19484375D01*
X16302394Y19484379D01*
X16302386Y19484388D01*
X16257670Y19526549D01*
X16257667Y19526551D01*
X16257665Y19526553D01*
X16157589Y19577439D01*
X16157588Y19577440D01*
X16157587Y19577440D01*
X16090556Y19597123D01*
X16090550Y19597124D01*
X16004478Y19609500D01*
X14348000Y19609500D01*
X14347991Y19609500D01*
X14347990Y19609499D01*
X14283064Y19602519D01*
X14283052Y19602517D01*
X14231546Y19591312D01*
X14193345Y19580356D01*
X14193341Y19580354D01*
X14096431Y19523677D01*
X14096428Y19523675D01*
X14043623Y19477919D01*
X14043612Y19477909D01*
X14001451Y19433193D01*
X14001445Y19433184D01*
X13950560Y19333110D01*
X13930877Y19266079D01*
X13918500Y19179998D01*
X13918500Y17828500D01*
X13898815Y17761461D01*
X13846011Y17715706D01*
X13794500Y17704500D01*
X12189000Y17704500D01*
X12188991Y17704500D01*
X12188990Y17704499D01*
X12124064Y17697519D01*
X12124052Y17697517D01*
X12072546Y17686312D01*
X12034345Y17675356D01*
X12034341Y17675354D01*
X11937431Y17618677D01*
X11937428Y17618675D01*
X11884623Y17572919D01*
X11884612Y17572909D01*
X11842451Y17528193D01*
X11842445Y17528184D01*
X11791560Y17428110D01*
X11771877Y17361079D01*
X11771876Y17361072D01*
X11760148Y17279503D01*
X11759500Y17274998D01*
X11759500Y16195500D01*
X11739815Y16128461D01*
X11687011Y16082706D01*
X11635500Y16071500D01*
X7423966Y16071500D01*
X7356927Y16091185D01*
X7336285Y16107819D01*
X6129116Y17314987D01*
X6129114Y17314989D01*
X6049285Y17361079D01*
X6026388Y17374299D01*
X6009208Y17378902D01*
X6002173Y17380787D01*
X6002170Y17380788D01*
X5963978Y17391022D01*
X5911809Y17405000D01*
X5911808Y17405000D01*
X5289500Y17405000D01*
X5222461Y17424685D01*
X5176706Y17477489D01*
X5165500Y17529000D01*
X5165500Y19695501D01*
X5185185Y19762540D01*
X5237989Y19808295D01*
X5289500Y19819501D01*
X5709856Y19819501D01*
X5709864Y19819501D01*
X5709879Y19819503D01*
X5709882Y19819503D01*
X5734987Y19822414D01*
X5734988Y19822415D01*
X5734991Y19822415D01*
X5837765Y19867794D01*
X5917206Y19947235D01*
X5962585Y20050009D01*
X5965500Y20075135D01*
X5965499Y21164864D01*
X5965497Y21164883D01*
X5962586Y21189989D01*
X5962584Y21189994D01*
X5917206Y21292765D01*
X5837765Y21372206D01*
X5734992Y21417585D01*
X5709868Y21420500D01*
X5709865Y21420500D01*
X4892500Y21420500D01*
X4825461Y21440185D01*
X4779706Y21492989D01*
X4768500Y21544500D01*
X4768500Y32954435D01*
X4788185Y33021474D01*
X4836204Y33064919D01*
X4894788Y33094768D01*
X5034928Y33196586D01*
X5157414Y33319072D01*
X5259232Y33459212D01*
X5337873Y33613555D01*
X5391402Y33778299D01*
X5418500Y33949389D01*
X5418500Y34122611D01*
X5391402Y34293701D01*
X5337873Y34458445D01*
X5259232Y34612788D01*
X5157414Y34752928D01*
X5034928Y34875414D01*
X4894788Y34977232D01*
X4740445Y35055873D01*
X4575701Y35109402D01*
X4575699Y35109403D01*
X4575698Y35109403D01*
X4444271Y35130219D01*
X4404611Y35136500D01*
X4231389Y35136500D01*
X4174359Y35127468D01*
X4060297Y35109402D01*
X4060294Y35109402D01*
X3997767Y35089085D01*
X3927926Y35087090D01*
X3871768Y35119335D01*
X2391819Y36599284D01*
X2358334Y36660607D01*
X2358119Y36662611D01*
X3217500Y36662611D01*
X3217500Y36489390D01*
X3233290Y36389691D01*
X3244598Y36318299D01*
X3298127Y36153555D01*
X3376768Y35999212D01*
X3478586Y35859072D01*
X3601072Y35736586D01*
X3741212Y35634768D01*
X3895555Y35556127D01*
X4060299Y35502598D01*
X4231389Y35475500D01*
X4231390Y35475500D01*
X4404610Y35475500D01*
X4404611Y35475500D01*
X4575701Y35502598D01*
X4740445Y35556127D01*
X4894788Y35634768D01*
X5034928Y35736586D01*
X5157414Y35859072D01*
X5259232Y35999212D01*
X5337873Y36153555D01*
X5391402Y36318299D01*
X5418500Y36489389D01*
X5418500Y36662611D01*
X5391402Y36833701D01*
X5337873Y36998445D01*
X5259232Y37152788D01*
X5157414Y37292928D01*
X5034928Y37415414D01*
X4894788Y37517232D01*
X4740445Y37595873D01*
X4575701Y37649402D01*
X4575699Y37649403D01*
X4575698Y37649403D01*
X4444271Y37670219D01*
X4404611Y37676500D01*
X4231389Y37676500D01*
X4191728Y37670219D01*
X4060302Y37649403D01*
X3895552Y37595872D01*
X3741211Y37517232D01*
X3681093Y37473553D01*
X3601072Y37415414D01*
X3601070Y37415412D01*
X3601069Y37415412D01*
X3478588Y37292931D01*
X3478588Y37292930D01*
X3478586Y37292928D01*
X3434859Y37232744D01*
X3376768Y37152789D01*
X3298128Y36998448D01*
X3244597Y36833698D01*
X3217500Y36662611D01*
X2358119Y36662611D01*
X2355500Y36686965D01*
X2355500Y39202611D01*
X3217500Y39202611D01*
X3217500Y39029389D01*
X3217799Y39027504D01*
X3228587Y38959385D01*
X3244598Y38858299D01*
X3298127Y38693555D01*
X3376768Y38539212D01*
X3478586Y38399072D01*
X3601072Y38276586D01*
X3741212Y38174768D01*
X3895555Y38096127D01*
X4060299Y38042598D01*
X4231389Y38015500D01*
X4231390Y38015500D01*
X4404610Y38015500D01*
X4404611Y38015500D01*
X4575701Y38042598D01*
X4740445Y38096127D01*
X4894788Y38174768D01*
X5034928Y38276586D01*
X5157414Y38399072D01*
X5259232Y38539212D01*
X5337873Y38693555D01*
X5391402Y38858299D01*
X5418500Y39029389D01*
X5418500Y39202611D01*
X5391402Y39373701D01*
X5337873Y39538445D01*
X5259232Y39692788D01*
X5157414Y39832928D01*
X5034928Y39955414D01*
X4894788Y40057232D01*
X4740445Y40135873D01*
X4575701Y40189402D01*
X4575699Y40189403D01*
X4575698Y40189403D01*
X4444271Y40210219D01*
X4404611Y40216500D01*
X4231389Y40216500D01*
X4191728Y40210219D01*
X4060302Y40189403D01*
X3895552Y40135872D01*
X3741211Y40057232D01*
X3661256Y39999141D01*
X3601072Y39955414D01*
X3601070Y39955412D01*
X3601069Y39955412D01*
X3478588Y39832931D01*
X3478588Y39832930D01*
X3478586Y39832928D01*
X3445796Y39787797D01*
X3376768Y39692789D01*
X3298128Y39538448D01*
X3244597Y39373698D01*
X3217500Y39202611D01*
X2355500Y39202611D01*
X2355500Y61860270D01*
X3995500Y61860270D01*
X3995500Y61451731D01*
X3998353Y61421301D01*
X3998353Y61421299D01*
X4039523Y61303646D01*
X4043207Y61293118D01*
X4123850Y61183850D01*
X4233118Y61103207D01*
X4275845Y61088256D01*
X4361299Y61058354D01*
X4391730Y61055500D01*
X4391734Y61055500D01*
X5525270Y61055500D01*
X5555699Y61058354D01*
X5555701Y61058354D01*
X5629000Y61084003D01*
X5683882Y61103207D01*
X5793150Y61183850D01*
X5873793Y61293118D01*
X5907693Y61389998D01*
X5918646Y61421299D01*
X5918646Y61421301D01*
X5921500Y61451731D01*
X5921500Y61860270D01*
X5918646Y61890700D01*
X5918646Y61890702D01*
X5873793Y62018881D01*
X5873792Y62018883D01*
X5793150Y62128150D01*
X5683882Y62208793D01*
X5683880Y62208794D01*
X5555700Y62253647D01*
X5525270Y62256500D01*
X5525266Y62256500D01*
X4391734Y62256500D01*
X4391730Y62256500D01*
X4361300Y62253647D01*
X4361298Y62253647D01*
X4233119Y62208794D01*
X4233117Y62208793D01*
X4123850Y62128150D01*
X4043207Y62018883D01*
X4043206Y62018881D01*
X3998353Y61890702D01*
X3998353Y61890700D01*
X3995500Y61860270D01*
X2355500Y61860270D01*
X2355500Y61865035D01*
X2375185Y61932074D01*
X2391819Y61952716D01*
X3452284Y63013181D01*
X3513607Y63046666D01*
X3539965Y63049500D01*
X4758308Y63049500D01*
X4758309Y63049500D01*
X4848673Y63073714D01*
X4872887Y63080201D01*
X4975614Y63139511D01*
X5375284Y63539181D01*
X5436607Y63572666D01*
X5462965Y63575500D01*
X8977500Y63575500D01*
X9044539Y63555815D01*
G37*
%TD.AperFunction*%
%TA.AperFunction,Conductor*%
G36*
X11234382Y38266916D02*
G01*
X11361212Y38174768D01*
X11515555Y38096127D01*
X11680299Y38042598D01*
X11851389Y38015500D01*
X11851390Y38015500D01*
X12024610Y38015500D01*
X12024611Y38015500D01*
X12195701Y38042598D01*
X12360445Y38096127D01*
X12514788Y38174768D01*
X12578615Y38221142D01*
X12644420Y38244621D01*
X12712474Y38228796D01*
X12761169Y38178690D01*
X12775500Y38120823D01*
X12775500Y37970000D01*
X12775501Y37969991D01*
X12782481Y37905065D01*
X12782483Y37905053D01*
X12793688Y37853547D01*
X12804644Y37815346D01*
X12804646Y37815342D01*
X12861323Y37718432D01*
X12861325Y37718429D01*
X12907081Y37665624D01*
X12907091Y37665613D01*
X12951807Y37623452D01*
X12951809Y37623451D01*
X12951813Y37623447D01*
X13051889Y37572561D01*
X13118928Y37552876D01*
X13205000Y37540500D01*
X13593619Y37540500D01*
X13660658Y37520815D01*
X13706413Y37468011D01*
X13716357Y37398853D01*
X13692423Y37341575D01*
X13659639Y37298344D01*
X13604122Y37157562D01*
X13603549Y37152788D01*
X13593500Y37069102D01*
X13593500Y36082898D01*
X13599010Y36037012D01*
X13604122Y35994439D01*
X13659639Y35853657D01*
X13751077Y35733078D01*
X13865348Y35646424D01*
X13871658Y35641639D01*
X13871659Y35641639D01*
X13879050Y35637483D01*
X13877419Y35634583D01*
X13920088Y35601427D01*
X13943323Y35535534D01*
X13943500Y35528915D01*
X13943500Y34150908D01*
X13923815Y34083869D01*
X13907181Y34063227D01*
X13262481Y33418528D01*
X13262475Y33418520D01*
X13221546Y33347627D01*
X13221546Y33347625D01*
X13183423Y33281596D01*
X13183423Y33281595D01*
X13142499Y33128867D01*
X13142499Y33128865D01*
X13142499Y32960764D01*
X13142500Y32960751D01*
X13142500Y29904670D01*
X13142499Y29904652D01*
X13142499Y29738946D01*
X13142498Y29738946D01*
X13172917Y29625425D01*
X13183423Y29586215D01*
X13188988Y29576577D01*
X13188989Y29576576D01*
X13188990Y29576573D01*
X13262477Y29449288D01*
X13262481Y29449283D01*
X13381349Y29330415D01*
X13381355Y29330410D01*
X13907181Y28804584D01*
X13940666Y28743261D01*
X13943500Y28716903D01*
X13943500Y27621731D01*
X13946353Y27591301D01*
X13946353Y27591299D01*
X13991206Y27463120D01*
X13991207Y27463118D01*
X14071850Y27353850D01*
X14181118Y27273207D01*
X14223845Y27258256D01*
X14309299Y27228354D01*
X14339730Y27225500D01*
X14339734Y27225500D01*
X14748270Y27225500D01*
X14778699Y27228354D01*
X14778701Y27228354D01*
X14842790Y27250781D01*
X14906882Y27273207D01*
X15016150Y27353850D01*
X15096793Y27463118D01*
X15119219Y27527210D01*
X15141646Y27591299D01*
X15141646Y27591301D01*
X15144500Y27621731D01*
X15144500Y29096055D01*
X15144500Y29096057D01*
X15110379Y29223397D01*
X15103577Y29248785D01*
X15103577Y29248786D01*
X15074639Y29298905D01*
X15074637Y29298908D01*
X15056447Y29330415D01*
X15024520Y29385716D01*
X14912716Y29497520D01*
X14912715Y29497521D01*
X14908385Y29501851D01*
X14908374Y29501861D01*
X14379819Y30030416D01*
X14346334Y30091739D01*
X14343500Y30118097D01*
X14343500Y31176500D01*
X14363185Y31243539D01*
X14415989Y31289294D01*
X14467500Y31300500D01*
X14748270Y31300500D01*
X14778699Y31303354D01*
X14778701Y31303354D01*
X14842790Y31325781D01*
X14906882Y31348207D01*
X15016150Y31428850D01*
X15096793Y31538118D01*
X15119219Y31602210D01*
X15141646Y31666299D01*
X15141646Y31666301D01*
X15144500Y31696731D01*
X15144500Y32830270D01*
X15141646Y32860700D01*
X15141646Y32860702D01*
X15105990Y32962598D01*
X15096793Y32988882D01*
X15016150Y33098150D01*
X14917608Y33170877D01*
X14875359Y33226523D01*
X14869900Y33296179D01*
X14902968Y33357729D01*
X14903562Y33358328D01*
X14912713Y33367479D01*
X14912716Y33367480D01*
X15024520Y33479284D01*
X15085844Y33585501D01*
X15103577Y33616215D01*
X15144500Y33768942D01*
X15144500Y33927057D01*
X15144500Y34617557D01*
X15144500Y35105266D01*
X15144500Y35601403D01*
X15164185Y35668442D01*
X15193575Y35700207D01*
X15236922Y35733078D01*
X15297296Y35812693D01*
X15328361Y35853658D01*
X15330145Y35858181D01*
X15373050Y35913326D01*
X15438957Y35936520D01*
X15506942Y35920401D01*
X15555419Y35870084D01*
X15569500Y35812693D01*
X15569500Y35503014D01*
X15574538Y35447774D01*
X15574539Y35447766D01*
X15574540Y35447759D01*
X15576076Y35439409D01*
X15582655Y35403637D01*
X15589495Y35374536D01*
X15639796Y35274169D01*
X15639800Y35274162D01*
X15682036Y35218530D01*
X15682053Y35218511D01*
X15743296Y35158093D01*
X15755980Y35143455D01*
X15762545Y35134560D01*
X15779812Y35101896D01*
X15782036Y35095539D01*
X15789000Y35054572D01*
X15789000Y34022436D01*
X15782041Y33981479D01*
X15779814Y33975115D01*
X15762545Y33942441D01*
X15736419Y33907041D01*
X15699583Y33841579D01*
X15676624Y33785616D01*
X15676621Y33785607D01*
X15671319Y33768943D01*
X15661582Y33738339D01*
X15657455Y33640102D01*
X15656869Y33626164D01*
X15666813Y33557009D01*
X15681642Y33497344D01*
X15681644Y33497340D01*
X15738317Y33400437D01*
X15738322Y33400429D01*
X15784077Y33347625D01*
X15784088Y33347613D01*
X15828804Y33305452D01*
X15828806Y33305451D01*
X15828810Y33305447D01*
X15889531Y33274572D01*
X15913552Y33262358D01*
X15964389Y33214426D01*
X15981241Y33146619D01*
X15958758Y33080465D01*
X15957121Y33078193D01*
X15891207Y32988882D01*
X15891206Y32988881D01*
X15846353Y32860702D01*
X15846353Y32860700D01*
X15843500Y32830270D01*
X15843500Y31696731D01*
X15846353Y31666301D01*
X15846353Y31666299D01*
X15891206Y31538120D01*
X15926270Y31490610D01*
X15950241Y31424981D01*
X15950500Y31416976D01*
X15950500Y31065629D01*
X15950730Y31053782D01*
X15950731Y31053762D01*
X15951102Y31044175D01*
X15960952Y30995829D01*
X15970518Y30948878D01*
X15970803Y30947482D01*
X15995623Y30882176D01*
X15995627Y30882166D01*
X16013530Y30849855D01*
X16020420Y30835250D01*
X16045388Y30771937D01*
X16053148Y30741244D01*
X16054114Y30733197D01*
X16055000Y30718409D01*
X16055000Y29733593D01*
X16054114Y29718805D01*
X16053691Y29715277D01*
X16053148Y29710758D01*
X16045388Y29680067D01*
X16025481Y29629587D01*
X16021902Y29621390D01*
X15982562Y29539486D01*
X15982559Y29539478D01*
X15962877Y29472452D01*
X15962876Y29472445D01*
X15955859Y29423639D01*
X15950500Y29386371D01*
X15950500Y29035025D01*
X15930815Y28967986D01*
X15926271Y28961392D01*
X15891207Y28913882D01*
X15846353Y28785697D01*
X15843500Y28755270D01*
X15843500Y27621731D01*
X15846353Y27591304D01*
X15846353Y27591302D01*
X15846354Y27591301D01*
X15891206Y27463120D01*
X15891208Y27463116D01*
X15938871Y27398533D01*
X15960266Y27351261D01*
X15968688Y27312544D01*
X15979644Y27274346D01*
X15979646Y27274342D01*
X16036323Y27177432D01*
X16036325Y27177429D01*
X16082081Y27124624D01*
X16082091Y27124613D01*
X16126807Y27082452D01*
X16126809Y27082451D01*
X16126813Y27082447D01*
X16126819Y27082444D01*
X16144785Y27073308D01*
X16195621Y27025376D01*
X16212473Y26957569D01*
X16189990Y26891416D01*
X16135311Y26847919D01*
X16129538Y26845736D01*
X16081117Y26828793D01*
X15971850Y26748150D01*
X15891207Y26638883D01*
X15891206Y26638881D01*
X15846353Y26510702D01*
X15846353Y26510700D01*
X15843500Y26480270D01*
X15843500Y24618099D01*
X15834854Y24588655D01*
X15828331Y24558671D01*
X15824577Y24553658D01*
X15823815Y24551060D01*
X15807180Y24530417D01*
X15771668Y24494906D01*
X15731443Y24468028D01*
X15693875Y24452466D01*
X15693873Y24452465D01*
X15667148Y24434609D01*
X15587328Y24381275D01*
X15496726Y24290673D01*
X15496723Y24290669D01*
X15425538Y24184134D01*
X15425533Y24184125D01*
X15376499Y24065745D01*
X15376497Y24065739D01*
X15351500Y23940072D01*
X15351500Y23940069D01*
X15351500Y23811931D01*
X15351500Y23811929D01*
X15351499Y23811929D01*
X15376497Y23686262D01*
X15376500Y23686252D01*
X15418667Y23584452D01*
X15426136Y23514983D01*
X15394861Y23452504D01*
X15334772Y23416852D01*
X15304106Y23413000D01*
X10920251Y23413000D01*
X10853212Y23432685D01*
X10832570Y23449319D01*
X10126819Y24155070D01*
X10093334Y24216393D01*
X10090500Y24242751D01*
X10090500Y24823929D01*
X10110185Y24890968D01*
X10162989Y24936723D01*
X10232147Y24946667D01*
X10261950Y24938491D01*
X10351256Y24901499D01*
X10351260Y24901499D01*
X10351261Y24901498D01*
X10476928Y24876500D01*
X10476931Y24876500D01*
X10605071Y24876500D01*
X10696700Y24894727D01*
X10730744Y24901499D01*
X10849127Y24950535D01*
X10955669Y25021724D01*
X11046276Y25112331D01*
X11117465Y25218873D01*
X11166501Y25337256D01*
X11191500Y25462931D01*
X11191500Y25591069D01*
X11191500Y25591072D01*
X11166502Y25716739D01*
X11166501Y25716740D01*
X11166501Y25716744D01*
X11117465Y25835127D01*
X11117464Y25835128D01*
X11117461Y25835134D01*
X11058398Y25923528D01*
X11037520Y25990206D01*
X11037500Y25992419D01*
X11037500Y26480270D01*
X13943500Y26480270D01*
X13943500Y25346731D01*
X13946353Y25316301D01*
X13946353Y25316299D01*
X13989950Y25191709D01*
X13991207Y25188118D01*
X14071850Y25078850D01*
X14181118Y24998207D01*
X14217404Y24985510D01*
X14309299Y24953354D01*
X14339730Y24950500D01*
X14339734Y24950500D01*
X14748270Y24950500D01*
X14778699Y24953354D01*
X14778701Y24953354D01*
X14870084Y24985331D01*
X14906882Y24998207D01*
X15016150Y25078850D01*
X15096793Y25188118D01*
X15129131Y25280534D01*
X15141646Y25316299D01*
X15141646Y25316301D01*
X15144500Y25346731D01*
X15144500Y26480270D01*
X15141646Y26510700D01*
X15141646Y26510702D01*
X15096793Y26638881D01*
X15096792Y26638883D01*
X15016150Y26748150D01*
X14906882Y26828793D01*
X14906880Y26828794D01*
X14778700Y26873647D01*
X14748270Y26876500D01*
X14748266Y26876500D01*
X14339734Y26876500D01*
X14339730Y26876500D01*
X14309300Y26873647D01*
X14309298Y26873647D01*
X14181119Y26828794D01*
X14181117Y26828793D01*
X14071850Y26748150D01*
X13991207Y26638883D01*
X13991206Y26638881D01*
X13946353Y26510702D01*
X13946353Y26510700D01*
X13943500Y26480270D01*
X11037500Y26480270D01*
X11037500Y33086596D01*
X11057185Y33153635D01*
X11109989Y33199390D01*
X11179147Y33209334D01*
X11234382Y33186916D01*
X11361212Y33094768D01*
X11515555Y33016127D01*
X11680299Y32962598D01*
X11851389Y32935500D01*
X11851390Y32935500D01*
X12024610Y32935500D01*
X12024611Y32935500D01*
X12195701Y32962598D01*
X12360445Y33016127D01*
X12514788Y33094768D01*
X12654928Y33196586D01*
X12777414Y33319072D01*
X12879232Y33459212D01*
X12957873Y33613555D01*
X13011402Y33778299D01*
X13038500Y33949389D01*
X13038500Y34122611D01*
X13011402Y34293701D01*
X12957873Y34458445D01*
X12879232Y34612788D01*
X12777414Y34752928D01*
X12654928Y34875414D01*
X12514788Y34977232D01*
X12360445Y35055873D01*
X12195701Y35109402D01*
X12195699Y35109403D01*
X12195698Y35109403D01*
X12064271Y35130219D01*
X12024611Y35136500D01*
X11851389Y35136500D01*
X11811728Y35130219D01*
X11680302Y35109403D01*
X11515552Y35055872D01*
X11361211Y34977232D01*
X11234386Y34885087D01*
X11168579Y34861607D01*
X11100525Y34877432D01*
X11051830Y34927538D01*
X11037500Y34985405D01*
X11037500Y35626596D01*
X11057185Y35693635D01*
X11109989Y35739390D01*
X11179147Y35749334D01*
X11234382Y35726916D01*
X11361212Y35634768D01*
X11515555Y35556127D01*
X11680299Y35502598D01*
X11851389Y35475500D01*
X11851390Y35475500D01*
X12024610Y35475500D01*
X12024611Y35475500D01*
X12195701Y35502598D01*
X12360445Y35556127D01*
X12514788Y35634768D01*
X12654928Y35736586D01*
X12777414Y35859072D01*
X12879232Y35999212D01*
X12957873Y36153555D01*
X13011402Y36318299D01*
X13038500Y36489389D01*
X13038500Y36662611D01*
X13011402Y36833701D01*
X12957873Y36998445D01*
X12879232Y37152788D01*
X12777414Y37292928D01*
X12654928Y37415414D01*
X12514788Y37517232D01*
X12360445Y37595873D01*
X12195701Y37649402D01*
X12195699Y37649403D01*
X12195698Y37649403D01*
X12064271Y37670219D01*
X12024611Y37676500D01*
X11851389Y37676500D01*
X11811728Y37670219D01*
X11680302Y37649403D01*
X11515552Y37595872D01*
X11361211Y37517232D01*
X11234386Y37425087D01*
X11168579Y37401607D01*
X11100525Y37417432D01*
X11051830Y37467538D01*
X11037500Y37525405D01*
X11037500Y38166596D01*
X11057185Y38233635D01*
X11109989Y38279390D01*
X11179147Y38289334D01*
X11234382Y38266916D01*
G37*
%TD.AperFunction*%
%TA.AperFunction,Conductor*%
G36*
X15354981Y74319770D02*
G01*
X15372344Y74318529D01*
X15386956Y74307591D01*
X15404011Y74301095D01*
X15427635Y74277142D01*
X15428279Y74276660D01*
X15428737Y74276044D01*
X15431244Y74272646D01*
X15433438Y74269673D01*
X15433468Y74269631D01*
X15447547Y74250555D01*
X15464812Y74217895D01*
X15467037Y74211537D01*
X15474000Y74170571D01*
X15474000Y73110503D01*
X15473982Y73108417D01*
X15473847Y73100397D01*
X15473581Y73097565D01*
X15471822Y73087232D01*
X15473242Y73064475D01*
X15473160Y73059553D01*
X15473041Y73059172D01*
X15473069Y73056437D01*
X15470538Y72996165D01*
X15480482Y72927009D01*
X15495311Y72867344D01*
X15495313Y72867340D01*
X15523171Y72819706D01*
X15551991Y72770429D01*
X15586468Y72730640D01*
X15597747Y72717624D01*
X15597757Y72717613D01*
X15642473Y72675452D01*
X15642475Y72675451D01*
X15642479Y72675447D01*
X15742555Y72624561D01*
X15809594Y72604876D01*
X15895666Y72592500D01*
X15989500Y72592500D01*
X15998185Y72589950D01*
X16007147Y72591238D01*
X16031187Y72580260D01*
X16056539Y72572815D01*
X16062466Y72565975D01*
X16070703Y72562213D01*
X16084992Y72539979D01*
X16102294Y72520011D01*
X16104581Y72509497D01*
X16108477Y72503435D01*
X16113500Y72468500D01*
X16113500Y72466500D01*
X16093815Y72399461D01*
X16041011Y72353706D01*
X15989500Y72342500D01*
X15924730Y72342500D01*
X15894300Y72339647D01*
X15894298Y72339647D01*
X15766119Y72294794D01*
X15766117Y72294793D01*
X15656850Y72214150D01*
X15576207Y72104883D01*
X15576206Y72104881D01*
X15531353Y71976702D01*
X15531353Y71976700D01*
X15529392Y71955781D01*
X15528500Y71946266D01*
X15528500Y71458561D01*
X15528499Y71458557D01*
X15528499Y71300443D01*
X15528500Y71300440D01*
X15528500Y70812731D01*
X15531353Y70782301D01*
X15531353Y70782299D01*
X15576206Y70654120D01*
X15576207Y70654118D01*
X15656850Y70544850D01*
X15766118Y70464207D01*
X15808845Y70449256D01*
X15894299Y70419354D01*
X15924730Y70416500D01*
X15924734Y70416500D01*
X16333270Y70416500D01*
X16363699Y70419354D01*
X16363701Y70419354D01*
X16427790Y70441781D01*
X16491882Y70464207D01*
X16601150Y70544850D01*
X16681793Y70654118D01*
X16717742Y70756854D01*
X16726646Y70782299D01*
X16726646Y70782301D01*
X16729500Y70812731D01*
X16729500Y71079403D01*
X16749185Y71146442D01*
X16765819Y71167084D01*
X17002819Y71404084D01*
X17064142Y71437569D01*
X17133834Y71432585D01*
X17189767Y71390713D01*
X17214184Y71325249D01*
X17214500Y71316403D01*
X17214500Y70414278D01*
X17194815Y70347239D01*
X17178181Y70326597D01*
X16811403Y69959819D01*
X16750080Y69926334D01*
X16723722Y69923500D01*
X13328817Y69923500D01*
X13209683Y69899802D01*
X13182983Y69894492D01*
X13174164Y69892737D01*
X13174160Y69892736D01*
X13028489Y69832398D01*
X13028476Y69832391D01*
X12930846Y69767155D01*
X12897371Y69744788D01*
X12897367Y69744785D01*
X11908084Y68755500D01*
X11594711Y68442127D01*
X11552597Y68400013D01*
X11483209Y68330626D01*
X11395609Y68199524D01*
X11395602Y68199511D01*
X11357061Y68106462D01*
X11313220Y68052058D01*
X11246926Y68029993D01*
X11179227Y68047272D01*
X11131616Y68098409D01*
X11118500Y68153914D01*
X11118500Y69612035D01*
X11138185Y69679074D01*
X11154819Y69699716D01*
X13416819Y71961716D01*
X13478142Y71995201D01*
X13547834Y71990217D01*
X13603767Y71948345D01*
X13628184Y71882881D01*
X13628500Y71874035D01*
X13628500Y70812731D01*
X13631353Y70782301D01*
X13631353Y70782299D01*
X13676206Y70654120D01*
X13676207Y70654118D01*
X13756850Y70544850D01*
X13866118Y70464207D01*
X13908845Y70449256D01*
X13994299Y70419354D01*
X14024730Y70416500D01*
X14024734Y70416500D01*
X14433270Y70416500D01*
X14463699Y70419354D01*
X14463701Y70419354D01*
X14527790Y70441781D01*
X14591882Y70464207D01*
X14701150Y70544850D01*
X14781793Y70654118D01*
X14817742Y70756854D01*
X14826646Y70782299D01*
X14826646Y70782301D01*
X14829500Y70812731D01*
X14829500Y71946270D01*
X14826646Y71976700D01*
X14826646Y71976702D01*
X14787027Y72089924D01*
X14781793Y72104882D01*
X14701150Y72214150D01*
X14591882Y72294793D01*
X14591880Y72294794D01*
X14463700Y72339647D01*
X14433270Y72342500D01*
X14433266Y72342500D01*
X14096965Y72342500D01*
X14075719Y72348739D01*
X14053631Y72350318D01*
X14042847Y72358391D01*
X14029926Y72362185D01*
X14015426Y72378919D01*
X13997698Y72392190D01*
X13992990Y72404811D01*
X13984171Y72414989D01*
X13981019Y72436907D01*
X13973281Y72457654D01*
X13976143Y72470815D01*
X13974227Y72484147D01*
X13983426Y72504291D01*
X13988133Y72525927D01*
X14001401Y72543653D01*
X14003252Y72547703D01*
X14009284Y72554181D01*
X14110284Y72655181D01*
X14171607Y72688666D01*
X14197965Y72691500D01*
X14433270Y72691500D01*
X14463699Y72694354D01*
X14463701Y72694354D01*
X14547851Y72723800D01*
X14591882Y72739207D01*
X14701150Y72819850D01*
X14781793Y72929118D01*
X14805254Y72996167D01*
X14826646Y73057299D01*
X14826646Y73057301D01*
X14829500Y73087731D01*
X14829500Y74162831D01*
X14836084Y74185255D01*
X14838227Y74208527D01*
X14845744Y74218154D01*
X14849185Y74229870D01*
X14866844Y74245173D01*
X14881231Y74263594D01*
X14898411Y74272526D01*
X14901989Y74275625D01*
X14912546Y74279873D01*
X14917011Y74281436D01*
X14917012Y74281435D01*
X14984477Y74305043D01*
X15025431Y74312000D01*
X15216890Y74312000D01*
X15216900Y74312000D01*
X15281841Y74318982D01*
X15302654Y74323510D01*
X15320856Y74322209D01*
X15338717Y74325965D01*
X15354981Y74319770D01*
G37*
%TD.AperFunction*%
%TA.AperFunction,Conductor*%
G36*
X38004418Y79599184D02*
G01*
X38218791Y79583852D01*
X38236296Y79581335D01*
X38441969Y79536594D01*
X38458928Y79531615D01*
X38656150Y79458054D01*
X38672242Y79450704D01*
X38856968Y79349837D01*
X38871848Y79340276D01*
X39040353Y79214134D01*
X39053723Y79202548D01*
X39202547Y79053724D01*
X39214133Y79040354D01*
X39340271Y78871854D01*
X39349836Y78856969D01*
X39450703Y78672243D01*
X39458053Y78656151D01*
X39531611Y78458937D01*
X39536595Y78441961D01*
X39581333Y78236300D01*
X39583851Y78218789D01*
X39599184Y78004420D01*
X39599500Y77995573D01*
X39599500Y2004428D01*
X39599184Y1995581D01*
X39583851Y1781212D01*
X39581333Y1763701D01*
X39536595Y1558040D01*
X39531611Y1541064D01*
X39458053Y1343850D01*
X39450703Y1327758D01*
X39349836Y1143032D01*
X39340271Y1128147D01*
X39214133Y959647D01*
X39202547Y946277D01*
X39053723Y797453D01*
X39040353Y785867D01*
X38871853Y659729D01*
X38856968Y650164D01*
X38672242Y549297D01*
X38656150Y541947D01*
X38458936Y468389D01*
X38441960Y463405D01*
X38236299Y418667D01*
X38218788Y416149D01*
X38023369Y402172D01*
X38004417Y400816D01*
X37995572Y400500D01*
X2004428Y400500D01*
X1995582Y400816D01*
X1974407Y402331D01*
X1781211Y416149D01*
X1763700Y418667D01*
X1558039Y463405D01*
X1541063Y468389D01*
X1343849Y541947D01*
X1327757Y549297D01*
X1143031Y650164D01*
X1128146Y659729D01*
X959646Y785867D01*
X946276Y797453D01*
X797452Y946277D01*
X785866Y959647D01*
X745924Y1013003D01*
X659724Y1128152D01*
X650163Y1143032D01*
X549296Y1327758D01*
X541946Y1343850D01*
X468385Y1541072D01*
X463406Y1558031D01*
X418665Y1763704D01*
X416148Y1781213D01*
X400816Y1995582D01*
X400500Y2004428D01*
X400500Y5924869D01*
X3464500Y5924869D01*
X3464500Y4835144D01*
X3464502Y4835118D01*
X3467413Y4810013D01*
X3467415Y4810009D01*
X3512793Y4707236D01*
X3512794Y4707235D01*
X3592235Y4627794D01*
X3695009Y4582415D01*
X3720135Y4579500D01*
X5709864Y4579501D01*
X5709879Y4579503D01*
X5709882Y4579503D01*
X5734987Y4582414D01*
X5734988Y4582415D01*
X5734991Y4582415D01*
X5837765Y4627794D01*
X5917206Y4707235D01*
X5962585Y4810009D01*
X5963720Y4819792D01*
X5991001Y4884116D01*
X6048727Y4923480D01*
X6086894Y4929500D01*
X13051035Y4929500D01*
X13118074Y4909815D01*
X13138716Y4893181D01*
X15598386Y2433511D01*
X15598387Y2433510D01*
X15598389Y2433509D01*
X15648428Y2404620D01*
X15648430Y2404618D01*
X15648431Y2404618D01*
X15701114Y2374201D01*
X15815691Y2343500D01*
X16624192Y2343500D01*
X16691231Y2323815D01*
X16711873Y2307181D01*
X16730327Y2288727D01*
X16730331Y2288724D01*
X16836866Y2217539D01*
X16836872Y2217536D01*
X16836873Y2217535D01*
X16955256Y2168499D01*
X16955260Y2168499D01*
X16955261Y2168498D01*
X17080928Y2143500D01*
X17080931Y2143500D01*
X17209071Y2143500D01*
X17293615Y2160318D01*
X17334744Y2168499D01*
X17453127Y2217535D01*
X17559669Y2288724D01*
X17650276Y2379331D01*
X17721465Y2485873D01*
X17770501Y2604256D01*
X17795500Y2729931D01*
X17795500Y2858069D01*
X17795500Y2858072D01*
X17770502Y2983739D01*
X17770501Y2983740D01*
X17770501Y2983744D01*
X17721465Y3102127D01*
X17721464Y3102128D01*
X17721461Y3102134D01*
X17650276Y3208669D01*
X17650273Y3208673D01*
X17559672Y3299274D01*
X17559668Y3299277D01*
X17453133Y3370462D01*
X17453124Y3370467D01*
X17334744Y3419501D01*
X17334738Y3419503D01*
X17209071Y3444500D01*
X17209069Y3444500D01*
X17080931Y3444500D01*
X17080929Y3444500D01*
X16955261Y3419503D01*
X16955255Y3419501D01*
X16836875Y3370467D01*
X16836866Y3370462D01*
X16730331Y3299277D01*
X16730327Y3299274D01*
X16711873Y3280819D01*
X16650550Y3247334D01*
X16624192Y3244500D01*
X16112965Y3244500D01*
X16045926Y3264185D01*
X16025284Y3280819D01*
X13565616Y5740487D01*
X13565614Y5740489D01*
X13514250Y5770144D01*
X13462888Y5799799D01*
X13450780Y5803043D01*
X13438673Y5806287D01*
X13438670Y5806288D01*
X13400478Y5816522D01*
X13348309Y5830500D01*
X13348308Y5830500D01*
X6086893Y5830500D01*
X6019854Y5850185D01*
X5974099Y5902989D01*
X5963718Y5940217D01*
X5962585Y5949991D01*
X5917206Y6052765D01*
X5837765Y6132206D01*
X5837763Y6132207D01*
X5734992Y6177585D01*
X5709865Y6180500D01*
X3720143Y6180500D01*
X3720117Y6180498D01*
X3695012Y6177587D01*
X3695008Y6177585D01*
X3592235Y6132207D01*
X3512794Y6052766D01*
X3467415Y5949994D01*
X3467415Y5949992D01*
X3464500Y5924869D01*
X400500Y5924869D01*
X400500Y62162309D01*
X1454500Y62162309D01*
X1454500Y36389691D01*
X1473630Y36318299D01*
X1473629Y36318299D01*
X1473630Y36318297D01*
X1485199Y36275117D01*
X1485200Y36275115D01*
X1485201Y36275113D01*
X1544511Y36172386D01*
X1544513Y36172384D01*
X3234665Y34482232D01*
X3268150Y34420909D01*
X3264915Y34356233D01*
X3244598Y34293706D01*
X3244598Y34293703D01*
X3234925Y34232631D01*
X3217500Y34122611D01*
X3217500Y33949389D01*
X3221037Y33927057D01*
X3243441Y33785599D01*
X3244598Y33778299D01*
X3298127Y33613555D01*
X3376768Y33459212D01*
X3478586Y33319072D01*
X3601072Y33196586D01*
X3678596Y33140261D01*
X3741207Y33094771D01*
X3741211Y33094769D01*
X3741212Y33094768D01*
X3799795Y33064919D01*
X3850590Y33016947D01*
X3867500Y32954435D01*
X3867500Y21544500D01*
X3847815Y21477461D01*
X3795011Y21431706D01*
X3743505Y21420500D01*
X3720144Y21420500D01*
X3720118Y21420498D01*
X3695011Y21417586D01*
X3695008Y21417585D01*
X3592235Y21372207D01*
X3512794Y21292766D01*
X3469845Y21195495D01*
X3467415Y21189991D01*
X3467415Y21189989D01*
X3464500Y21164869D01*
X3464500Y20075144D01*
X3464502Y20075118D01*
X3467413Y20050013D01*
X3467415Y20050009D01*
X3512793Y19947236D01*
X3512794Y19947235D01*
X3592235Y19867794D01*
X3695009Y19822415D01*
X3720135Y19819500D01*
X4140500Y19819501D01*
X4207539Y19799817D01*
X4253294Y19747013D01*
X4264500Y19695501D01*
X4264500Y17069691D01*
X4279474Y17013809D01*
X4279474Y17013807D01*
X4290785Y16971592D01*
X4289122Y16901742D01*
X4249959Y16843880D01*
X4185730Y16816377D01*
X4171010Y16815500D01*
X3553000Y16815500D01*
X3552991Y16815500D01*
X3552990Y16815499D01*
X3488064Y16808519D01*
X3488052Y16808517D01*
X3436546Y16797312D01*
X3398345Y16786356D01*
X3398341Y16786354D01*
X3301431Y16729677D01*
X3301428Y16729675D01*
X3248623Y16683919D01*
X3248612Y16683909D01*
X3206451Y16639193D01*
X3206445Y16639184D01*
X3155560Y16539110D01*
X3135877Y16472079D01*
X3135876Y16472072D01*
X3123500Y16386000D01*
X3123500Y14221000D01*
X3123501Y14220991D01*
X3130481Y14156065D01*
X3130483Y14156053D01*
X3141688Y14104547D01*
X3152644Y14066346D01*
X3152646Y14066342D01*
X3209323Y13969432D01*
X3209325Y13969429D01*
X3255081Y13916624D01*
X3255091Y13916613D01*
X3299807Y13874452D01*
X3299809Y13874451D01*
X3299813Y13874447D01*
X3399889Y13823561D01*
X3466928Y13803876D01*
X3553000Y13791500D01*
X3553003Y13791500D01*
X6479990Y13791500D01*
X6480000Y13791500D01*
X6542246Y13798193D01*
X6611003Y13785789D01*
X6662141Y13738179D01*
X6679500Y13674904D01*
X6679500Y12443000D01*
X6679501Y12442991D01*
X6686481Y12378065D01*
X6686483Y12378053D01*
X6697688Y12326547D01*
X6708644Y12288346D01*
X6708646Y12288342D01*
X6765323Y12191432D01*
X6765325Y12191429D01*
X6811081Y12138624D01*
X6811091Y12138613D01*
X6855807Y12096452D01*
X6855809Y12096451D01*
X6855813Y12096447D01*
X6955889Y12045561D01*
X7022928Y12025876D01*
X7109000Y12013500D01*
X7109003Y12013500D01*
X9146990Y12013500D01*
X9147000Y12013500D01*
X9211941Y12020482D01*
X9263452Y12031688D01*
X9301658Y12042646D01*
X9398571Y12099325D01*
X9451375Y12145080D01*
X9451382Y12145088D01*
X9451387Y12145092D01*
X9493548Y12189808D01*
X9493553Y12189813D01*
X9544439Y12289889D01*
X9564124Y12356928D01*
X9576500Y12443000D01*
X9576500Y14989000D01*
X9571743Y15033246D01*
X9584148Y15102004D01*
X9631758Y15153142D01*
X9695032Y15170500D01*
X11997306Y15170500D01*
X11997309Y15170500D01*
X12083404Y15193570D01*
X12133143Y15196532D01*
X12189000Y15188500D01*
X12189003Y15188500D01*
X14602860Y15188500D01*
X14602874Y15188500D01*
X14621133Y15189046D01*
X14635914Y15189931D01*
X14654079Y15191564D01*
X14689953Y15195872D01*
X14700315Y15197116D01*
X14715097Y15198000D01*
X15424902Y15198000D01*
X15439684Y15197116D01*
X15447708Y15196153D01*
X15485920Y15191564D01*
X15504086Y15189931D01*
X15518868Y15189046D01*
X15537126Y15188500D01*
X15826500Y15188500D01*
X15893539Y15168815D01*
X15939294Y15116011D01*
X15950500Y15064500D01*
X15950500Y11859500D01*
X15930815Y11792461D01*
X15878011Y11746706D01*
X15826500Y11735500D01*
X15537126Y11735500D01*
X15518889Y11734955D01*
X15511664Y11734523D01*
X15504101Y11734071D01*
X15485909Y11732436D01*
X15439696Y11726885D01*
X15424910Y11726000D01*
X14715090Y11726000D01*
X14700304Y11726885D01*
X14654090Y11732435D01*
X14654091Y11732435D01*
X14654082Y11732436D01*
X14642995Y11733433D01*
X14635895Y11734071D01*
X14632068Y11734300D01*
X14621112Y11734955D01*
X14602874Y11735500D01*
X10284000Y11735500D01*
X10283991Y11735500D01*
X10283990Y11735499D01*
X10219064Y11728519D01*
X10219052Y11728517D01*
X10167546Y11717312D01*
X10129345Y11706356D01*
X10129341Y11706354D01*
X10032431Y11649677D01*
X10032428Y11649675D01*
X9979623Y11603919D01*
X9979612Y11603909D01*
X9937451Y11559193D01*
X9937445Y11559184D01*
X9886560Y11459110D01*
X9866877Y11392079D01*
X9866876Y11392072D01*
X9854860Y11308500D01*
X9854500Y11305998D01*
X9854500Y9900000D01*
X9834815Y9832961D01*
X9782011Y9787206D01*
X9730500Y9776000D01*
X6533465Y9776000D01*
X6466426Y9795685D01*
X6445784Y9812319D01*
X6001818Y10256285D01*
X5968333Y10317608D01*
X5965499Y10343966D01*
X5965499Y11004857D01*
X5965499Y11004864D01*
X5965497Y11004883D01*
X5962586Y11029988D01*
X5962585Y11029990D01*
X5962585Y11029991D01*
X5917206Y11132765D01*
X5837765Y11212206D01*
X5823533Y11218490D01*
X5734992Y11257585D01*
X5709865Y11260500D01*
X3720143Y11260500D01*
X3720117Y11260498D01*
X3695012Y11257587D01*
X3695008Y11257585D01*
X3592235Y11212207D01*
X3512794Y11132766D01*
X3467415Y11029994D01*
X3467415Y11029992D01*
X3464500Y11004869D01*
X3464500Y9915144D01*
X3464502Y9915118D01*
X3467413Y9890013D01*
X3467415Y9890009D01*
X3512793Y9787236D01*
X3512794Y9787235D01*
X3592235Y9707794D01*
X3695009Y9662415D01*
X3720135Y9659500D01*
X5273034Y9659501D01*
X5340073Y9639816D01*
X5360715Y9623182D01*
X6018886Y8965011D01*
X6059056Y8941819D01*
X6078193Y8930771D01*
X6078196Y8930768D01*
X6112437Y8911000D01*
X6121614Y8905701D01*
X6236191Y8875000D01*
X6795667Y8875000D01*
X6862706Y8855315D01*
X6908461Y8802511D01*
X6918405Y8733353D01*
X6889380Y8669797D01*
X6883348Y8663319D01*
X6812794Y8592766D01*
X6767415Y8489994D01*
X6767415Y8489992D01*
X6764500Y8464869D01*
X6764500Y7375144D01*
X6764502Y7375118D01*
X6767413Y7350013D01*
X6767415Y7350009D01*
X6812793Y7247236D01*
X6812794Y7247235D01*
X6892235Y7167794D01*
X6995009Y7122415D01*
X7020135Y7119500D01*
X9009864Y7119501D01*
X9009879Y7119503D01*
X9009882Y7119503D01*
X9034987Y7122414D01*
X9034988Y7122415D01*
X9034991Y7122415D01*
X9137765Y7167794D01*
X9217206Y7247235D01*
X9262585Y7350009D01*
X9265500Y7375135D01*
X9265499Y8050001D01*
X9285183Y8117039D01*
X9337987Y8162794D01*
X9389499Y8174000D01*
X11354046Y8174000D01*
X11421085Y8154315D01*
X11466840Y8101511D01*
X11476784Y8032353D01*
X11447759Y7968797D01*
X11401498Y7935439D01*
X11304827Y7895398D01*
X11304814Y7895391D01*
X11173711Y7807790D01*
X11173707Y7807787D01*
X11062213Y7696293D01*
X11062211Y7696290D01*
X10974609Y7565186D01*
X10974602Y7565173D01*
X10914264Y7419502D01*
X10914261Y7419490D01*
X10883500Y7264847D01*
X10883500Y7107154D01*
X10914261Y6952511D01*
X10914264Y6952499D01*
X10974602Y6806828D01*
X10974609Y6806815D01*
X11062210Y6675712D01*
X11062213Y6675708D01*
X11173707Y6564214D01*
X11173711Y6564211D01*
X11304814Y6476610D01*
X11304827Y6476603D01*
X11450498Y6416265D01*
X11450503Y6416263D01*
X11605153Y6385501D01*
X11605156Y6385500D01*
X11605158Y6385500D01*
X14910060Y6385500D01*
X14977099Y6365815D01*
X14997741Y6349181D01*
X17904707Y3442214D01*
X17904711Y3442211D01*
X18035814Y3354610D01*
X18035818Y3354608D01*
X18035821Y3354606D01*
X18181503Y3294262D01*
X18332714Y3264185D01*
X18336153Y3263501D01*
X18336157Y3263500D01*
X18336158Y3263500D01*
X25351844Y3263500D01*
X25351845Y3263501D01*
X25506497Y3294263D01*
X25652179Y3354606D01*
X25783289Y3442211D01*
X28362259Y6021181D01*
X28423582Y6054666D01*
X28449940Y6057500D01*
X29972097Y6057500D01*
X29972102Y6057500D01*
X30060564Y6068123D01*
X30201342Y6123639D01*
X30321922Y6215078D01*
X30413361Y6335658D01*
X30468877Y6476436D01*
X30479500Y6564898D01*
X30479500Y7151102D01*
X30468877Y7239564D01*
X30413361Y7380342D01*
X30413360Y7380343D01*
X30413360Y7380344D01*
X30321922Y7500923D01*
X30201343Y7592361D01*
X30060561Y7647878D01*
X30014926Y7653358D01*
X29972102Y7658500D01*
X27685898Y7658500D01*
X27646853Y7653812D01*
X27597438Y7647878D01*
X27456656Y7592361D01*
X27336077Y7500923D01*
X27244639Y7380344D01*
X27189122Y7239562D01*
X27183011Y7188671D01*
X27178500Y7151102D01*
X27178500Y7151098D01*
X27178499Y7151089D01*
X27178278Y7147397D01*
X27176896Y7147480D01*
X27158815Y7085901D01*
X27142181Y7065259D01*
X24977741Y4900819D01*
X24916418Y4867334D01*
X24890060Y4864500D01*
X23707965Y4864500D01*
X23640926Y4884185D01*
X23595171Y4936989D01*
X23585227Y5006147D01*
X23614252Y5069703D01*
X23620284Y5076181D01*
X25259604Y6715500D01*
X26915285Y8371181D01*
X26942212Y8385885D01*
X26968031Y8402477D01*
X26974231Y8403369D01*
X26976608Y8404666D01*
X27002966Y8407500D01*
X27131914Y8407500D01*
X27198953Y8387815D01*
X27238638Y8342016D01*
X27240481Y8343052D01*
X27244638Y8335659D01*
X27336077Y8215078D01*
X27456656Y8123640D01*
X27456657Y8123640D01*
X27456658Y8123639D01*
X27597436Y8068123D01*
X27685898Y8057500D01*
X27685903Y8057500D01*
X29972097Y8057500D01*
X29972102Y8057500D01*
X30060564Y8068123D01*
X30201342Y8123639D01*
X30321922Y8215078D01*
X30413361Y8335658D01*
X30468877Y8476436D01*
X30479500Y8564898D01*
X30479500Y9151102D01*
X30468877Y9239564D01*
X30413361Y9380342D01*
X30413360Y9380343D01*
X30413360Y9380344D01*
X30321922Y9500923D01*
X30201343Y9592361D01*
X30060561Y9647878D01*
X30014926Y9653358D01*
X29972102Y9658500D01*
X27685898Y9658500D01*
X27646853Y9653812D01*
X27597438Y9647878D01*
X27456656Y9592361D01*
X27336077Y9500923D01*
X27244638Y9380342D01*
X27240481Y9372948D01*
X27237587Y9374575D01*
X27204383Y9331881D01*
X27138480Y9308674D01*
X27131914Y9308500D01*
X26705691Y9308500D01*
X26615325Y9284287D01*
X26615324Y9284288D01*
X26591115Y9277800D01*
X26591106Y9277796D01*
X26488392Y9218495D01*
X26488384Y9218489D01*
X24717180Y7447285D01*
X24655857Y7413800D01*
X24586165Y7418784D01*
X24530232Y7460656D01*
X24505815Y7526120D01*
X24505499Y7534948D01*
X24505499Y7815037D01*
X24525184Y7882075D01*
X24541813Y7902712D01*
X27010284Y10371181D01*
X27037211Y10385885D01*
X27063030Y10402477D01*
X27069230Y10403369D01*
X27071607Y10404666D01*
X27097965Y10407500D01*
X27131914Y10407500D01*
X27198953Y10387815D01*
X27238638Y10342016D01*
X27240481Y10343052D01*
X27244638Y10335659D01*
X27336077Y10215078D01*
X27456656Y10123640D01*
X27456657Y10123640D01*
X27456658Y10123639D01*
X27597436Y10068123D01*
X27685898Y10057500D01*
X27685903Y10057500D01*
X29972097Y10057500D01*
X29972102Y10057500D01*
X30060564Y10068123D01*
X30201342Y10123639D01*
X30321922Y10215078D01*
X30413361Y10335658D01*
X30468877Y10476436D01*
X30479500Y10564898D01*
X30479500Y11151102D01*
X30468877Y11239564D01*
X30413361Y11380342D01*
X30413360Y11380343D01*
X30413360Y11380344D01*
X30321922Y11500923D01*
X30201343Y11592361D01*
X30060561Y11647878D01*
X30014926Y11653358D01*
X29972102Y11658500D01*
X27685898Y11658500D01*
X27646853Y11653812D01*
X27597438Y11647878D01*
X27456656Y11592361D01*
X27336077Y11500923D01*
X27244638Y11380342D01*
X27240481Y11372948D01*
X27237587Y11374575D01*
X27204383Y11331881D01*
X27138480Y11308674D01*
X27131914Y11308500D01*
X26800691Y11308500D01*
X26686114Y11277799D01*
X26656152Y11260500D01*
X26619889Y11239564D01*
X26583386Y11218490D01*
X26583384Y11218488D01*
X24121714Y8756819D01*
X24060391Y8723334D01*
X24034033Y8720500D01*
X22260143Y8720500D01*
X22260117Y8720498D01*
X22235012Y8717587D01*
X22235011Y8717586D01*
X22182540Y8694418D01*
X22113262Y8685347D01*
X22050077Y8715171D01*
X22044774Y8720172D01*
X22004672Y8760274D01*
X22004668Y8760277D01*
X21898133Y8831462D01*
X21898124Y8831467D01*
X21779744Y8880501D01*
X21779738Y8880503D01*
X21654071Y8905500D01*
X21654069Y8905500D01*
X21627966Y8905500D01*
X21560927Y8925185D01*
X21540285Y8941819D01*
X21331002Y9151102D01*
X20995254Y9486849D01*
X20961770Y9548171D01*
X20966754Y9617862D01*
X21008625Y9673796D01*
X21032841Y9687959D01*
X21077765Y9707794D01*
X21157206Y9787235D01*
X21202585Y9890009D01*
X21203720Y9899792D01*
X21231001Y9964116D01*
X21288727Y10003480D01*
X21326894Y10009500D01*
X23232992Y10009500D01*
X23300031Y9989815D01*
X23320673Y9973181D01*
X23334327Y9959527D01*
X23334331Y9959524D01*
X23440866Y9888339D01*
X23440872Y9888336D01*
X23440873Y9888335D01*
X23559256Y9839299D01*
X23559260Y9839299D01*
X23559261Y9839298D01*
X23684928Y9814300D01*
X23684931Y9814300D01*
X23813071Y9814300D01*
X23897615Y9831118D01*
X23938744Y9839299D01*
X24057127Y9888335D01*
X24163669Y9959524D01*
X24254276Y10050131D01*
X24325465Y10156673D01*
X24374501Y10275056D01*
X24388027Y10343052D01*
X24399500Y10400729D01*
X24399500Y10528872D01*
X24374502Y10654539D01*
X24374501Y10654540D01*
X24374501Y10654544D01*
X24325465Y10772927D01*
X24325464Y10772928D01*
X24325461Y10772934D01*
X24254276Y10879469D01*
X24254273Y10879473D01*
X24163672Y10970074D01*
X24163668Y10970077D01*
X24057133Y11041262D01*
X24057124Y11041267D01*
X23938744Y11090301D01*
X23938738Y11090303D01*
X23813071Y11115300D01*
X23813069Y11115300D01*
X23684931Y11115300D01*
X23684929Y11115300D01*
X23559261Y11090303D01*
X23559255Y11090301D01*
X23440875Y11041267D01*
X23440866Y11041262D01*
X23334331Y10970077D01*
X23334327Y10970074D01*
X23311073Y10946819D01*
X23249750Y10913334D01*
X23223392Y10910500D01*
X22146500Y10910500D01*
X22079461Y10930185D01*
X22033706Y10982989D01*
X22022500Y11034500D01*
X22022500Y12105946D01*
X22042185Y12172985D01*
X22094989Y12218740D01*
X22164147Y12228684D01*
X22196586Y12219381D01*
X22235009Y12202415D01*
X22260135Y12199500D01*
X24249864Y12199501D01*
X24249879Y12199503D01*
X24249882Y12199503D01*
X24274987Y12202414D01*
X24274988Y12202415D01*
X24274991Y12202415D01*
X24377765Y12247794D01*
X24457206Y12327235D01*
X24502585Y12430009D01*
X24505500Y12455135D01*
X24505499Y13149036D01*
X24514145Y13178482D01*
X24520667Y13208462D01*
X24524420Y13213476D01*
X24525183Y13216074D01*
X24541813Y13236711D01*
X24661285Y13356183D01*
X24722607Y13389666D01*
X24748965Y13392500D01*
X30793307Y13392500D01*
X30793309Y13392500D01*
X30877416Y13415037D01*
X30895191Y13419799D01*
X30895192Y13419800D01*
X30907887Y13423201D01*
X31010614Y13482511D01*
X31411990Y13883886D01*
X31471299Y13986613D01*
X31482254Y14027500D01*
X31502000Y14101191D01*
X31502000Y18736497D01*
X31521685Y18803536D01*
X31574489Y18849291D01*
X31643647Y18859235D01*
X31694889Y18839600D01*
X31793373Y18773795D01*
X31911756Y18724759D01*
X31911760Y18724759D01*
X31911761Y18724758D01*
X32037428Y18699760D01*
X32037431Y18699760D01*
X32165571Y18699760D01*
X32250115Y18716578D01*
X32291244Y18724759D01*
X32409627Y18773795D01*
X32516169Y18844984D01*
X32606776Y18935591D01*
X32677965Y19042133D01*
X32727001Y19160516D01*
X32747654Y19264342D01*
X32752000Y19286189D01*
X32752000Y19414332D01*
X32727002Y19539999D01*
X32727001Y19540000D01*
X32727001Y19540004D01*
X32689074Y19631568D01*
X32677966Y19658385D01*
X32677961Y19658394D01*
X32606776Y19764929D01*
X32606773Y19764933D01*
X32588319Y19783387D01*
X32554834Y19844710D01*
X32552000Y19871068D01*
X32552000Y21080915D01*
X32552000Y21080917D01*
X32522774Y21189991D01*
X32521299Y21195495D01*
X32461989Y21298222D01*
X31755114Y22005097D01*
X31755112Y22005100D01*
X30593819Y23166393D01*
X30560334Y23227716D01*
X30557500Y23254074D01*
X30557500Y27229307D01*
X30557500Y27229309D01*
X30526799Y27343886D01*
X30474149Y27435078D01*
X30467489Y27446614D01*
X30467488Y27446615D01*
X30467487Y27446617D01*
X29992819Y27921285D01*
X29959334Y27982608D01*
X29956500Y28008966D01*
X29956500Y28571097D01*
X29956500Y28571102D01*
X29945877Y28659564D01*
X29890361Y28800342D01*
X29890360Y28800343D01*
X29890360Y28800344D01*
X29798922Y28920923D01*
X29678343Y29012361D01*
X29537561Y29067878D01*
X29491926Y29073358D01*
X29449102Y29078500D01*
X28462898Y29078500D01*
X28423853Y29073812D01*
X28374438Y29067878D01*
X28233656Y29012361D01*
X28113077Y28920923D01*
X28042290Y28827575D01*
X27986097Y28786051D01*
X27943486Y28778500D01*
X25804500Y28778500D01*
X25737461Y28798185D01*
X25691706Y28850989D01*
X25680500Y28902500D01*
X25680500Y29974337D01*
X25700185Y30041376D01*
X25714276Y30059400D01*
X25749553Y30096813D01*
X25800439Y30196889D01*
X25820124Y30263928D01*
X25832500Y30350000D01*
X25832500Y31777656D01*
X25832451Y31783108D01*
X25832372Y31787534D01*
X25832371Y31787537D01*
X25832288Y31792236D01*
X25833409Y31792257D01*
X25845731Y31855702D01*
X25894018Y31906201D01*
X25908398Y31913280D01*
X25962127Y31935535D01*
X26068669Y32006724D01*
X26159276Y32097331D01*
X26230465Y32203873D01*
X26279501Y32322256D01*
X26293425Y32392254D01*
X26304500Y32447929D01*
X26304500Y32576072D01*
X26279502Y32701739D01*
X26279501Y32701740D01*
X26279501Y32701744D01*
X26230465Y32820127D01*
X26230464Y32820128D01*
X26230461Y32820134D01*
X26159276Y32926669D01*
X26159273Y32926673D01*
X26111819Y32974127D01*
X26078334Y33035450D01*
X26075500Y33061808D01*
X26075500Y33528507D01*
X26075499Y33528521D01*
X26075499Y33736779D01*
X26095184Y33803818D01*
X26147988Y33849573D01*
X26217146Y33859517D01*
X26280702Y33830492D01*
X26287180Y33824460D01*
X26298651Y33812989D01*
X26407488Y33759781D01*
X26407489Y33759781D01*
X26407491Y33759780D01*
X26478051Y33749500D01*
X26792848Y33749501D01*
X26806481Y33749501D01*
X26806482Y33749500D01*
X26811396Y33749500D01*
X26850766Y33737938D01*
X26878429Y33729815D01*
X26878435Y33729812D01*
X26878440Y33729806D01*
X26899071Y33713181D01*
X26904376Y33707876D01*
X26916196Y33686229D01*
X26924187Y33677006D01*
X26925242Y33669662D01*
X26937861Y33646553D01*
X26932877Y33576861D01*
X26919798Y33551305D01*
X26855537Y33455132D01*
X26855533Y33455125D01*
X26806499Y33336745D01*
X26806497Y33336739D01*
X26781500Y33211072D01*
X26781500Y33211069D01*
X26781500Y33082931D01*
X26781500Y33082929D01*
X26781499Y33082929D01*
X26806497Y32957262D01*
X26806499Y32957256D01*
X26855533Y32838876D01*
X26855538Y32838867D01*
X26926723Y32732332D01*
X26926726Y32732328D01*
X27017327Y32641727D01*
X27017331Y32641724D01*
X27123866Y32570539D01*
X27123872Y32570536D01*
X27123873Y32570535D01*
X27242256Y32521499D01*
X27242260Y32521499D01*
X27242261Y32521498D01*
X27367928Y32496500D01*
X27367931Y32496500D01*
X27496071Y32496500D01*
X27580615Y32513318D01*
X27621744Y32521499D01*
X27740127Y32570535D01*
X27846669Y32641724D01*
X27937276Y32732331D01*
X28008465Y32838873D01*
X28057501Y32957256D01*
X28068081Y33010445D01*
X28082500Y33082929D01*
X28082500Y33211072D01*
X28057787Y33335308D01*
X28064014Y33404900D01*
X28106877Y33460077D01*
X28172766Y33483322D01*
X28179404Y33483500D01*
X28250019Y33483500D01*
X29406096Y33483500D01*
X29473135Y33463815D01*
X29493777Y33447181D01*
X29756611Y33184346D01*
X29776001Y33166558D01*
X29792294Y33152853D01*
X29792295Y33152853D01*
X29792314Y33152837D01*
X29792809Y33152421D01*
X29857295Y33116147D01*
X29906072Y33066124D01*
X29920500Y33008073D01*
X29920500Y32540683D01*
X29924611Y32501273D01*
X29927078Y32477624D01*
X29927079Y32477623D01*
X29937639Y32427559D01*
X29937641Y32427552D01*
X29937643Y32427543D01*
X29949019Y32392254D01*
X29954999Y32354210D01*
X29954999Y31366011D01*
X29955001Y31365991D01*
X29961981Y31301065D01*
X29961983Y31301053D01*
X29973188Y31249547D01*
X29984144Y31211346D01*
X29984146Y31211342D01*
X30040823Y31114432D01*
X30040825Y31114429D01*
X30086581Y31061624D01*
X30086591Y31061613D01*
X30131307Y31019452D01*
X30131309Y31019451D01*
X30131313Y31019447D01*
X30231389Y30968561D01*
X30298428Y30948876D01*
X30384500Y30936500D01*
X31290592Y30936500D01*
X31357631Y30916815D01*
X31403386Y30864011D01*
X31413330Y30794853D01*
X31405946Y30767010D01*
X31395123Y30739566D01*
X31393473Y30725824D01*
X31384500Y30651102D01*
X31384500Y29864898D01*
X31388030Y29835503D01*
X31395122Y29776439D01*
X31450639Y29635657D01*
X31542077Y29515078D01*
X31628840Y29449284D01*
X31662658Y29423639D01*
X31662659Y29423639D01*
X31670050Y29419483D01*
X31669106Y29417805D01*
X31715672Y29381578D01*
X31738870Y29315672D01*
X31736660Y29284932D01*
X31734500Y29274074D01*
X31734500Y29274069D01*
X31734500Y29145931D01*
X31734500Y29145929D01*
X31734499Y29145929D01*
X31759497Y29020262D01*
X31759499Y29020256D01*
X31808533Y28901876D01*
X31808538Y28901867D01*
X31879723Y28795332D01*
X31879726Y28795328D01*
X31970327Y28704727D01*
X31970331Y28704724D01*
X32076866Y28633539D01*
X32076872Y28633536D01*
X32076873Y28633535D01*
X32195256Y28584499D01*
X32195260Y28584499D01*
X32195261Y28584498D01*
X32320928Y28559500D01*
X32320931Y28559500D01*
X32449071Y28559500D01*
X32533615Y28576318D01*
X32574744Y28584499D01*
X32693127Y28633535D01*
X32799669Y28704724D01*
X32890276Y28795331D01*
X32961465Y28901873D01*
X33010501Y29020256D01*
X33035500Y29145931D01*
X33035500Y29274069D01*
X33033340Y29284927D01*
X33039564Y29354517D01*
X33082424Y29409697D01*
X33100039Y29419324D01*
X33099950Y29419483D01*
X33107336Y29423637D01*
X33107342Y29423639D01*
X33227922Y29515078D01*
X33319361Y29635658D01*
X33374877Y29776436D01*
X33385500Y29864898D01*
X33385500Y30651102D01*
X33374877Y30739564D01*
X33370930Y30749572D01*
X33364054Y30767010D01*
X33357772Y30836597D01*
X33390109Y30898533D01*
X33450797Y30933154D01*
X33479408Y30936500D01*
X34211592Y30936500D01*
X34278631Y30916815D01*
X34324386Y30864011D01*
X34334330Y30794853D01*
X34326946Y30767010D01*
X34316123Y30739566D01*
X34314473Y30725824D01*
X34305500Y30651102D01*
X34305500Y30651097D01*
X34305500Y30040967D01*
X34296856Y30011531D01*
X34290333Y29981541D01*
X34286577Y29976525D01*
X34285815Y29973928D01*
X34269182Y29953287D01*
X34212716Y29896820D01*
X34151393Y29863334D01*
X34125034Y29860500D01*
X34098929Y29860500D01*
X33973261Y29835503D01*
X33973255Y29835501D01*
X33854875Y29786467D01*
X33854866Y29786462D01*
X33748331Y29715277D01*
X33748327Y29715274D01*
X33657726Y29624673D01*
X33657723Y29624669D01*
X33586538Y29518134D01*
X33586533Y29518125D01*
X33537499Y29399745D01*
X33537497Y29399739D01*
X33512500Y29274072D01*
X33512500Y29274069D01*
X33512500Y29145931D01*
X33512500Y29145929D01*
X33512499Y29145929D01*
X33537497Y29020262D01*
X33537499Y29020256D01*
X33586533Y28901876D01*
X33586538Y28901867D01*
X33657723Y28795332D01*
X33657726Y28795328D01*
X33748327Y28704727D01*
X33748331Y28704724D01*
X33854866Y28633539D01*
X33854872Y28633536D01*
X33854873Y28633535D01*
X33973256Y28584499D01*
X33973260Y28584499D01*
X33973261Y28584498D01*
X34098928Y28559500D01*
X34098931Y28559500D01*
X34227071Y28559500D01*
X34311615Y28576318D01*
X34352744Y28584499D01*
X34471127Y28633535D01*
X34577669Y28704724D01*
X34668276Y28795331D01*
X34739465Y28901873D01*
X34788501Y29020256D01*
X34813500Y29145931D01*
X34813500Y29172035D01*
X34822144Y29201476D01*
X34828668Y29231462D01*
X34832422Y29236478D01*
X34833185Y29239074D01*
X34849819Y29259716D01*
X34911284Y29321181D01*
X34972607Y29354666D01*
X34998965Y29357500D01*
X35799097Y29357500D01*
X35799102Y29357500D01*
X35887564Y29368123D01*
X36028342Y29423639D01*
X36148922Y29515078D01*
X36240361Y29635658D01*
X36295877Y29776436D01*
X36306500Y29864898D01*
X36306500Y30651102D01*
X36295877Y30739564D01*
X36271646Y30801007D01*
X36265365Y30870593D01*
X36297701Y30932529D01*
X36345965Y30961569D01*
X36345526Y30962595D01*
X36352650Y30965644D01*
X36352658Y30965646D01*
X36449571Y31022325D01*
X36502375Y31068080D01*
X36502382Y31068088D01*
X36502387Y31068092D01*
X36544548Y31112808D01*
X36544553Y31112813D01*
X36595439Y31212889D01*
X36615124Y31279928D01*
X36627500Y31366000D01*
X36627500Y33023000D01*
X36620518Y33087941D01*
X36609312Y33139452D01*
X36598354Y33177658D01*
X36541675Y33274571D01*
X36495920Y33327375D01*
X36495918Y33327377D01*
X36495908Y33327388D01*
X36451192Y33369549D01*
X36451189Y33369551D01*
X36451187Y33369553D01*
X36351111Y33420439D01*
X36351110Y33420440D01*
X36351109Y33420440D01*
X36284078Y33440123D01*
X36284072Y33440124D01*
X36198000Y33452500D01*
X36197997Y33452500D01*
X35227500Y33452500D01*
X35160461Y33472185D01*
X35114706Y33524989D01*
X35103500Y33576500D01*
X35103500Y36451990D01*
X35103500Y36452000D01*
X35096518Y36516941D01*
X35085312Y36568452D01*
X35074354Y36606658D01*
X35017675Y36703571D01*
X34971920Y36756375D01*
X34971918Y36756377D01*
X34971908Y36756388D01*
X34927192Y36798549D01*
X34927189Y36798551D01*
X34927187Y36798553D01*
X34827111Y36849439D01*
X34827110Y36849440D01*
X34827109Y36849440D01*
X34760078Y36869123D01*
X34760072Y36869124D01*
X34674000Y36881500D01*
X34157056Y36881500D01*
X34157049Y36881500D01*
X34085745Y36873061D01*
X34085741Y36873060D01*
X34029445Y36859544D01*
X34029435Y36859541D01*
X33962078Y36834693D01*
X33962062Y36834686D01*
X33845026Y36775053D01*
X33827051Y36767608D01*
X33827049Y36767607D01*
X33681694Y36720380D01*
X33662776Y36715838D01*
X33538574Y36696165D01*
X33511816Y36691927D01*
X33492420Y36690400D01*
X33339581Y36690400D01*
X33320184Y36691927D01*
X33291517Y36696468D01*
X33169221Y36715838D01*
X33150303Y36720380D01*
X33004946Y36767608D01*
X32986971Y36775054D01*
X32850795Y36844440D01*
X32834207Y36854604D01*
X32710555Y36944441D01*
X32695760Y36957077D01*
X32690290Y36962547D01*
X32643132Y37009704D01*
X32643119Y37009716D01*
X32618821Y37031541D01*
X32618805Y37031555D01*
X32598138Y37048209D01*
X32592620Y37052552D01*
X32592618Y37052553D01*
X32492540Y37103440D01*
X32425509Y37123123D01*
X32425503Y37123124D01*
X32339431Y37135500D01*
X32339428Y37135500D01*
X26402796Y37135500D01*
X26335757Y37155185D01*
X26290002Y37207989D01*
X26280058Y37277147D01*
X26281179Y37283692D01*
X26304500Y37400929D01*
X26304500Y37529072D01*
X26279502Y37654739D01*
X26279501Y37654740D01*
X26279501Y37654744D01*
X26230465Y37773127D01*
X26230464Y37773128D01*
X26230461Y37773134D01*
X26159276Y37879669D01*
X26159273Y37879673D01*
X26068672Y37970274D01*
X26068668Y37970277D01*
X25962133Y38041462D01*
X25962124Y38041467D01*
X25843744Y38090501D01*
X25843738Y38090503D01*
X25718071Y38115500D01*
X25718069Y38115500D01*
X25589931Y38115500D01*
X25589929Y38115500D01*
X25464261Y38090503D01*
X25464255Y38090501D01*
X25345875Y38041467D01*
X25345866Y38041462D01*
X25239331Y37970277D01*
X25239327Y37970274D01*
X25148726Y37879673D01*
X25148723Y37879669D01*
X25077538Y37773134D01*
X25077533Y37773125D01*
X25028499Y37654745D01*
X25028497Y37654739D01*
X25003500Y37529072D01*
X25003500Y37529069D01*
X25003500Y37400931D01*
X25003500Y37400929D01*
X25003499Y37400929D01*
X25028497Y37275262D01*
X25028499Y37275256D01*
X25077533Y37156876D01*
X25077538Y37156867D01*
X25148723Y37050332D01*
X25148726Y37050328D01*
X25188180Y37010875D01*
X25221666Y36949552D01*
X25224500Y36923193D01*
X25224500Y36003050D01*
X25234779Y35932494D01*
X25234779Y35932493D01*
X25234780Y35932491D01*
X25263220Y35874316D01*
X25287989Y35823651D01*
X25373651Y35737989D01*
X25482488Y35684781D01*
X25482489Y35684781D01*
X25482491Y35684780D01*
X25553051Y35674500D01*
X25746948Y35674501D01*
X25746950Y35674501D01*
X25775172Y35678613D01*
X25817509Y35684780D01*
X25845539Y35698484D01*
X25914409Y35710244D01*
X25932060Y35706868D01*
X25943661Y35703763D01*
X25982491Y35684780D01*
X26052926Y35674519D01*
X26059921Y35672646D01*
X26083811Y35658094D01*
X26109238Y35646424D01*
X26113245Y35640164D01*
X26119592Y35636297D01*
X26131821Y35611139D01*
X26146903Y35587575D01*
X26149841Y35574070D01*
X26150138Y35573459D01*
X26150079Y35572973D01*
X26150566Y35570738D01*
X26159779Y35507492D01*
X26173484Y35479457D01*
X26185241Y35410584D01*
X26173484Y35370543D01*
X26159781Y35342512D01*
X26159780Y35342509D01*
X26149500Y35271949D01*
X26149500Y35271945D01*
X26149500Y35271944D01*
X26149500Y35078050D01*
X26159779Y35007493D01*
X26159779Y35007492D01*
X26173484Y34979457D01*
X26185241Y34910584D01*
X26173484Y34870543D01*
X26169116Y34861607D01*
X26159780Y34842509D01*
X26149500Y34771949D01*
X26149500Y34771945D01*
X26149500Y34771944D01*
X26149500Y34578050D01*
X26159779Y34507493D01*
X26159779Y34507492D01*
X26173484Y34479457D01*
X26185241Y34410584D01*
X26184628Y34406067D01*
X26181752Y34387455D01*
X26159780Y34342509D01*
X26149500Y34271949D01*
X26149500Y34178704D01*
X26148046Y34169289D01*
X26137082Y34145935D01*
X26129815Y34121183D01*
X26122480Y34114828D01*
X26118356Y34106041D01*
X26096505Y34092321D01*
X26077011Y34075428D01*
X26067405Y34074047D01*
X26059185Y34068885D01*
X26033388Y34069156D01*
X26007853Y34065484D01*
X25999023Y34069517D01*
X25989319Y34069618D01*
X25967766Y34083792D01*
X25944297Y34094509D01*
X25937819Y34100541D01*
X25926348Y34112012D01*
X25817511Y34165220D01*
X25799869Y34167790D01*
X25746949Y34175500D01*
X25746943Y34175500D01*
X25553049Y34175500D01*
X25482493Y34165221D01*
X25373650Y34112011D01*
X25287987Y34026348D01*
X25261398Y33971960D01*
X25214269Y33920379D01*
X25146735Y33902466D01*
X25080237Y33923908D01*
X25038600Y33971961D01*
X25012012Y34026347D01*
X25012010Y34026349D01*
X25012010Y34026350D01*
X24926348Y34112012D01*
X24817511Y34165220D01*
X24798975Y34167921D01*
X24754258Y34174436D01*
X24736831Y34182434D01*
X24717926Y34185618D01*
X24705738Y34196704D01*
X24690760Y34203578D01*
X24680422Y34219731D01*
X24666239Y34232631D01*
X24658600Y34253827D01*
X24653096Y34262427D01*
X24652354Y34265079D01*
X24650479Y34272084D01*
X24640220Y34342509D01*
X24621237Y34381339D01*
X24618132Y34392940D01*
X24618695Y34416340D01*
X24614756Y34439409D01*
X24619652Y34456086D01*
X24619814Y34462789D01*
X24623004Y34467500D01*
X24626515Y34479460D01*
X24640220Y34507491D01*
X24650500Y34578051D01*
X24650499Y34771948D01*
X24640220Y34842509D01*
X24626516Y34870540D01*
X24614756Y34939409D01*
X24626515Y34979460D01*
X24640220Y35007491D01*
X24650500Y35078051D01*
X24650499Y35271948D01*
X24650176Y35274162D01*
X24640220Y35342507D01*
X24640220Y35342509D01*
X24626516Y35370540D01*
X24614756Y35439409D01*
X24626515Y35479460D01*
X24640220Y35507491D01*
X24650500Y35578051D01*
X24650499Y35771948D01*
X24640220Y35842509D01*
X24587012Y35951347D01*
X24587010Y35951349D01*
X24587010Y35951350D01*
X24501348Y36037012D01*
X24392511Y36090220D01*
X24374869Y36092790D01*
X24321949Y36100500D01*
X24321943Y36100500D01*
X24261959Y36100500D01*
X24227029Y36105522D01*
X24221572Y36107124D01*
X24135500Y36119500D01*
X24135497Y36119500D01*
X23887446Y36119500D01*
X23820407Y36139185D01*
X23776537Y36188046D01*
X23167522Y37406077D01*
X23152394Y37428300D01*
X23128641Y37463197D01*
X23107191Y37529690D01*
X23120618Y37589175D01*
X23124024Y37595872D01*
X23133439Y37614389D01*
X23153124Y37681428D01*
X23165500Y37767500D01*
X23165500Y40065500D01*
X23185185Y40132539D01*
X23237989Y40178294D01*
X23289500Y40189500D01*
X29284307Y40189500D01*
X29284309Y40189500D01*
X29367495Y40211790D01*
X29385075Y40216500D01*
X29385076Y40216501D01*
X29398887Y40220201D01*
X29501614Y40279511D01*
X30474490Y41252386D01*
X30533799Y41355113D01*
X30540285Y41379325D01*
X30540286Y41379325D01*
X30540286Y41379329D01*
X30564500Y41469691D01*
X30564500Y42975622D01*
X32015500Y42975622D01*
X32015500Y42755179D01*
X32049985Y42537448D01*
X32118103Y42327797D01*
X32118104Y42327794D01*
X32218187Y42131375D01*
X32347752Y41953042D01*
X32347756Y41953037D01*
X32503636Y41797157D01*
X32503641Y41797153D01*
X32643254Y41695718D01*
X32685920Y41640388D01*
X32691899Y41570775D01*
X32659293Y41508980D01*
X32643254Y41495082D01*
X32503641Y41393648D01*
X32503636Y41393644D01*
X32347756Y41237764D01*
X32347752Y41237759D01*
X32218187Y41059426D01*
X32118104Y40863007D01*
X32118103Y40863004D01*
X32049985Y40653353D01*
X32049985Y40653351D01*
X32015500Y40435622D01*
X32015500Y40215178D01*
X32021342Y40178294D01*
X32049985Y39997448D01*
X32118103Y39787797D01*
X32118104Y39787794D01*
X32218187Y39591375D01*
X32347752Y39413042D01*
X32347756Y39413037D01*
X32503636Y39257157D01*
X32503641Y39257153D01*
X32659192Y39144140D01*
X32681978Y39127585D01*
X32810375Y39062163D01*
X32878393Y39027505D01*
X32878396Y39027504D01*
X32983221Y38993445D01*
X33088049Y38959385D01*
X33305778Y38924900D01*
X33305779Y38924900D01*
X33526221Y38924900D01*
X33526222Y38924900D01*
X33743951Y38959385D01*
X33953606Y39027505D01*
X34150022Y39127585D01*
X34328365Y39257158D01*
X34484242Y39413035D01*
X34613815Y39591378D01*
X34713895Y39787794D01*
X34782015Y39997449D01*
X34816500Y40215178D01*
X34816500Y40435622D01*
X34782015Y40653351D01*
X34713895Y40863006D01*
X34713895Y40863007D01*
X34679237Y40931025D01*
X34613815Y41059422D01*
X34582416Y41102639D01*
X34484247Y41237759D01*
X34484243Y41237764D01*
X34328363Y41393644D01*
X34328358Y41393648D01*
X34188745Y41495082D01*
X34146079Y41550411D01*
X34140100Y41620025D01*
X34172705Y41681820D01*
X34188745Y41695718D01*
X34328358Y41797153D01*
X34328356Y41797153D01*
X34328365Y41797158D01*
X34484242Y41953035D01*
X34613815Y42131378D01*
X34713895Y42327794D01*
X34782015Y42537449D01*
X34816500Y42755178D01*
X34816500Y42975622D01*
X34782015Y43193351D01*
X34713895Y43403006D01*
X34713895Y43403007D01*
X34674504Y43480315D01*
X34613815Y43599422D01*
X34542473Y43697617D01*
X34484247Y43777759D01*
X34484243Y43777764D01*
X34328363Y43933644D01*
X34328358Y43933648D01*
X34150025Y44063213D01*
X34150024Y44063214D01*
X34150022Y44063215D01*
X34087096Y44095278D01*
X33953606Y44163296D01*
X33953603Y44163297D01*
X33743952Y44231415D01*
X33635086Y44248658D01*
X33526222Y44265900D01*
X33305778Y44265900D01*
X33233201Y44254405D01*
X33088047Y44231415D01*
X32878396Y44163297D01*
X32878393Y44163296D01*
X32681974Y44063213D01*
X32503641Y43933648D01*
X32503636Y43933644D01*
X32347756Y43777764D01*
X32347752Y43777759D01*
X32218187Y43599426D01*
X32118104Y43403007D01*
X32118103Y43403004D01*
X32049985Y43193353D01*
X32015500Y42975622D01*
X30564500Y42975622D01*
X30564500Y44995507D01*
X30584185Y45062546D01*
X30636989Y45108301D01*
X30674213Y45118682D01*
X30683991Y45119815D01*
X30786765Y45165194D01*
X30866206Y45244635D01*
X30911585Y45347409D01*
X30914500Y45372535D01*
X30914499Y47972264D01*
X30914497Y47972283D01*
X30911586Y47997388D01*
X30911585Y47997390D01*
X30911585Y47997391D01*
X30866206Y48100165D01*
X30786765Y48179606D01*
X30760011Y48191419D01*
X30683992Y48224985D01*
X30658865Y48227900D01*
X29569143Y48227900D01*
X29569117Y48227898D01*
X29544012Y48224987D01*
X29544008Y48224985D01*
X29441235Y48179607D01*
X29361794Y48100166D01*
X29316415Y47997394D01*
X29316415Y47997392D01*
X29313500Y47972269D01*
X29313500Y45372544D01*
X29313502Y45372518D01*
X29316413Y45347413D01*
X29316415Y45347409D01*
X29361793Y45244636D01*
X29361794Y45244635D01*
X29441235Y45165194D01*
X29506226Y45136498D01*
X29544006Y45119816D01*
X29544009Y45119815D01*
X29553786Y45118681D01*
X29618111Y45091404D01*
X29657478Y45033680D01*
X29663500Y44995507D01*
X29663500Y41766966D01*
X29643815Y41699927D01*
X29627181Y41679285D01*
X29074716Y41126819D01*
X29013393Y41093334D01*
X28987035Y41090500D01*
X25793458Y41090500D01*
X25726419Y41110185D01*
X25680664Y41162989D01*
X25670720Y41232147D01*
X25674480Y41249433D01*
X25683685Y41280784D01*
X25721459Y41339563D01*
X25785014Y41368589D01*
X25820584Y41367636D01*
X25820630Y41368097D01*
X25826693Y41367500D01*
X25826695Y41367500D01*
X25989307Y41367500D01*
X26120757Y41393648D01*
X26148789Y41399224D01*
X26299021Y41461452D01*
X26299023Y41461453D01*
X26432158Y41550411D01*
X26434225Y41551792D01*
X26549208Y41666775D01*
X26616153Y41766966D01*
X26639547Y41801977D01*
X26639549Y41801981D01*
X26701774Y41952207D01*
X26701776Y41952211D01*
X26712157Y42004402D01*
X26733500Y42111693D01*
X26733500Y42724308D01*
X26733102Y42726308D01*
X26733197Y42727378D01*
X26732903Y42730370D01*
X26733470Y42730426D01*
X26739329Y42795899D01*
X26782191Y42851077D01*
X26848081Y42874322D01*
X26854719Y42874500D01*
X28831990Y42874500D01*
X28832000Y42874500D01*
X28896941Y42881482D01*
X28948452Y42892688D01*
X28986658Y42903646D01*
X29083571Y42960325D01*
X29136375Y43006080D01*
X29136382Y43006088D01*
X29136387Y43006092D01*
X29178550Y43050810D01*
X29178549Y43050810D01*
X29178553Y43050813D01*
X29211433Y43115480D01*
X29223151Y43134185D01*
X29255361Y43176658D01*
X29310877Y43317436D01*
X29321500Y43405898D01*
X29321500Y44192102D01*
X29310877Y44280564D01*
X29270146Y44383851D01*
X29261500Y44429341D01*
X29261500Y44579990D01*
X29261500Y44580000D01*
X29254518Y44644941D01*
X29243312Y44696452D01*
X29232354Y44734658D01*
X29175675Y44831571D01*
X29129920Y44884375D01*
X29129918Y44884377D01*
X29129908Y44884388D01*
X29085192Y44926549D01*
X29085189Y44926551D01*
X29085187Y44926553D01*
X28985111Y44977439D01*
X28985110Y44977440D01*
X28985109Y44977440D01*
X28918078Y44997123D01*
X28918072Y44997124D01*
X28832000Y45009500D01*
X28831997Y45009500D01*
X27480500Y45009500D01*
X27413461Y45029185D01*
X27367706Y45081989D01*
X27356500Y45133500D01*
X27356500Y46865990D01*
X27356500Y46866000D01*
X27349518Y46930941D01*
X27338312Y46982452D01*
X27327354Y47020658D01*
X27272529Y47114400D01*
X27255677Y47182206D01*
X27272699Y47232297D01*
X27269533Y47233907D01*
X27273553Y47241813D01*
X27324439Y47341889D01*
X27344124Y47408928D01*
X27356500Y47495000D01*
X27356500Y49654500D01*
X27376185Y49721539D01*
X27428989Y49767294D01*
X27480500Y49778500D01*
X31729501Y49778500D01*
X31796540Y49758815D01*
X31842295Y49706011D01*
X31853501Y49654500D01*
X31853501Y48682544D01*
X31853502Y48682518D01*
X31856413Y48657413D01*
X31856415Y48657409D01*
X31901793Y48554636D01*
X31901794Y48554635D01*
X31981235Y48475194D01*
X32084009Y48429815D01*
X32109135Y48426900D01*
X33198864Y48426901D01*
X33198879Y48426903D01*
X33198882Y48426903D01*
X33223987Y48429814D01*
X33223988Y48429815D01*
X33223991Y48429815D01*
X33326765Y48475194D01*
X33406206Y48554635D01*
X33451585Y48657409D01*
X33454500Y48682535D01*
X33454499Y50108714D01*
X33455761Y50126361D01*
X33463216Y50178207D01*
X33467500Y50208000D01*
X33467500Y53008000D01*
X33460518Y53072941D01*
X33449312Y53124452D01*
X33438354Y53162658D01*
X33381675Y53259571D01*
X33335920Y53312375D01*
X33335918Y53312377D01*
X33335908Y53312388D01*
X33291192Y53354549D01*
X33291189Y53354551D01*
X33291187Y53354553D01*
X33191111Y53405439D01*
X33191110Y53405440D01*
X33191109Y53405440D01*
X33124078Y53425123D01*
X33124072Y53425124D01*
X33038000Y53437500D01*
X33037997Y53437500D01*
X30721200Y53437500D01*
X30654161Y53457185D01*
X30608406Y53509989D01*
X30597200Y53561500D01*
X30597200Y55293990D01*
X30597200Y55294000D01*
X30590218Y55358941D01*
X30579012Y55410452D01*
X30568054Y55448658D01*
X30511375Y55545571D01*
X30465620Y55598375D01*
X30465618Y55598377D01*
X30465608Y55598388D01*
X30420892Y55640549D01*
X30420889Y55640551D01*
X30420887Y55640553D01*
X30320811Y55691439D01*
X30320810Y55691440D01*
X30320809Y55691440D01*
X30253778Y55711123D01*
X30253772Y55711124D01*
X30167700Y55723500D01*
X22364000Y55723500D01*
X22363991Y55723500D01*
X22363990Y55723499D01*
X22299064Y55716519D01*
X22299052Y55716517D01*
X22247546Y55705312D01*
X22209345Y55694356D01*
X22209341Y55694354D01*
X22112431Y55637677D01*
X22112428Y55637675D01*
X22059623Y55591919D01*
X22059612Y55591909D01*
X22017451Y55547193D01*
X22017445Y55547184D01*
X21966560Y55447110D01*
X21946877Y55380079D01*
X21946876Y55380072D01*
X21934502Y55294010D01*
X21934500Y55293998D01*
X21934500Y54577500D01*
X21914815Y54510461D01*
X21862011Y54464706D01*
X21810500Y54453500D01*
X21309986Y54453500D01*
X21298142Y54453270D01*
X21296458Y54453205D01*
X21288531Y54452898D01*
X21191829Y54433195D01*
X21126526Y54408375D01*
X21126517Y54408371D01*
X21050468Y54366230D01*
X21050465Y54366228D01*
X20977285Y54310734D01*
X20947851Y54294184D01*
X20947849Y54294183D01*
X20913431Y54280611D01*
X20882742Y54272852D01*
X20880323Y54272562D01*
X20874695Y54271886D01*
X20859907Y54271000D01*
X20150101Y54271000D01*
X20135312Y54271885D01*
X20127262Y54272852D01*
X20096560Y54280613D01*
X20062147Y54294184D01*
X20032713Y54310734D01*
X19959533Y54366228D01*
X19949923Y54373227D01*
X19942050Y54378729D01*
X19853129Y54421437D01*
X19853130Y54421437D01*
X19853125Y54421439D01*
X19853122Y54421440D01*
X19853117Y54421442D01*
X19786092Y54441123D01*
X19786086Y54441124D01*
X19700014Y54453500D01*
X19700011Y54453500D01*
X19442000Y54453500D01*
X19374961Y54473185D01*
X19329206Y54525989D01*
X19318000Y54577500D01*
X19318000Y55509097D01*
X19318000Y55509102D01*
X19307377Y55597564D01*
X19251861Y55738342D01*
X19160422Y55858922D01*
X19160417Y55858926D01*
X19154422Y55864922D01*
X19156623Y55867124D01*
X19124045Y55911225D01*
X19116500Y55953819D01*
X19116500Y56534735D01*
X19110929Y56588128D01*
X19118516Y56636361D01*
X19116136Y56637008D01*
X19118583Y56646005D01*
X19118585Y56646009D01*
X19121500Y56671135D01*
X19121499Y57460864D01*
X19121497Y57460883D01*
X19118586Y57485988D01*
X19118585Y57485990D01*
X19118585Y57485991D01*
X19073206Y57588765D01*
X18993765Y57668206D01*
X18990438Y57669675D01*
X18890992Y57713585D01*
X18865865Y57716500D01*
X18526143Y57716500D01*
X18526117Y57716498D01*
X18501012Y57713587D01*
X18501008Y57713585D01*
X18398239Y57668208D01*
X18398238Y57668208D01*
X18398235Y57668206D01*
X18398232Y57668204D01*
X18390200Y57662701D01*
X18371554Y57656626D01*
X18355058Y57646024D01*
X18326350Y57641897D01*
X18323768Y57641055D01*
X18320123Y57641001D01*
X18301882Y57641001D01*
X18234843Y57660686D01*
X18224988Y57667793D01*
X18224956Y57667751D01*
X18218856Y57672552D01*
X18218854Y57672553D01*
X18118776Y57723440D01*
X18051745Y57743123D01*
X18051739Y57743124D01*
X17965667Y57755500D01*
X14998000Y57755500D01*
X14997991Y57755500D01*
X14997990Y57755499D01*
X14933064Y57748519D01*
X14933052Y57748517D01*
X14881546Y57737312D01*
X14843345Y57726356D01*
X14843341Y57726354D01*
X14746431Y57669677D01*
X14746428Y57669675D01*
X14693623Y57623919D01*
X14693612Y57623909D01*
X14651451Y57579193D01*
X14651445Y57579184D01*
X14600560Y57479110D01*
X14580877Y57412079D01*
X14568500Y57325998D01*
X14568500Y56286500D01*
X14548815Y56219461D01*
X14496011Y56173706D01*
X14444500Y56162500D01*
X13913903Y56162500D01*
X13825436Y56151878D01*
X13792204Y56138773D01*
X13775989Y56132378D01*
X13706403Y56126097D01*
X13644467Y56158434D01*
X13609846Y56219123D01*
X13606500Y56247733D01*
X13606500Y60176268D01*
X13626185Y60243307D01*
X13678989Y60289062D01*
X13748147Y60299006D01*
X13775985Y60291624D01*
X13825435Y60272123D01*
X13913897Y60261500D01*
X14444500Y60261501D01*
X14511539Y60241817D01*
X14557294Y60189013D01*
X14568500Y60137501D01*
X14568500Y59606000D01*
X14568501Y59605991D01*
X14575481Y59541065D01*
X14575483Y59541053D01*
X14586688Y59489547D01*
X14597644Y59451346D01*
X14597646Y59451342D01*
X14654323Y59354432D01*
X14654325Y59354429D01*
X14700081Y59301624D01*
X14700091Y59301613D01*
X14744807Y59259452D01*
X14744809Y59259451D01*
X14744813Y59259447D01*
X14844889Y59208561D01*
X14911928Y59188876D01*
X14998000Y59176500D01*
X14998003Y59176500D01*
X17965668Y59176500D01*
X17967588Y59176603D01*
X17998326Y59178251D01*
X18024684Y59181085D01*
X18031689Y59181920D01*
X18138436Y59216703D01*
X18199759Y59250188D01*
X18221236Y59266266D01*
X18241984Y59274005D01*
X18260613Y59285977D01*
X18282528Y59289129D01*
X18286700Y59290684D01*
X18295548Y59291000D01*
X18320121Y59291000D01*
X18387160Y59271315D01*
X18390196Y59269301D01*
X18398231Y59263798D01*
X18398235Y59263794D01*
X18501009Y59218415D01*
X18526135Y59215500D01*
X18865864Y59215501D01*
X18865879Y59215503D01*
X18865882Y59215503D01*
X18890987Y59218414D01*
X18890988Y59218415D01*
X18890991Y59218415D01*
X18993765Y59263794D01*
X19073206Y59343235D01*
X19082566Y59364435D01*
X19127651Y59417810D01*
X19194437Y59438338D01*
X19261719Y59419500D01*
X19308136Y59367278D01*
X19309410Y59364487D01*
X19318794Y59343235D01*
X19398235Y59263794D01*
X19501009Y59218415D01*
X19526135Y59215500D01*
X19865864Y59215501D01*
X19865879Y59215503D01*
X19865882Y59215503D01*
X19890986Y59218414D01*
X19890987Y59218415D01*
X19890991Y59218415D01*
X19895909Y59220587D01*
X19965183Y59229662D01*
X19996084Y59220590D01*
X20001009Y59218415D01*
X20026135Y59215500D01*
X20365864Y59215501D01*
X20365879Y59215503D01*
X20365882Y59215503D01*
X20390987Y59218414D01*
X20390987Y59218415D01*
X20390991Y59218415D01*
X20456915Y59247524D01*
X20526190Y59256595D01*
X20589375Y59226772D01*
X20626407Y59167523D01*
X20630999Y59134089D01*
X20630999Y58844000D01*
X20631000Y58843991D01*
X20637980Y58779065D01*
X20637982Y58779053D01*
X20649187Y58727547D01*
X20660143Y58689346D01*
X20660145Y58689342D01*
X20694358Y58630843D01*
X20711211Y58563036D01*
X20697853Y58512041D01*
X20663058Y58443610D01*
X20663057Y58443606D01*
X20643373Y58376569D01*
X20630999Y58290501D01*
X20630999Y57797912D01*
X20611314Y57730873D01*
X20558510Y57685118D01*
X20489352Y57675174D01*
X20456912Y57684478D01*
X20390992Y57713585D01*
X20365865Y57716500D01*
X20026143Y57716500D01*
X20026117Y57716498D01*
X20001012Y57713587D01*
X20001008Y57713585D01*
X19898235Y57668207D01*
X19818794Y57588766D01*
X19773415Y57485994D01*
X19773415Y57485992D01*
X19770500Y57460869D01*
X19770500Y56671144D01*
X19770502Y56671118D01*
X19773413Y56646013D01*
X19773415Y56646009D01*
X19818793Y56543236D01*
X19818794Y56543235D01*
X19898235Y56463794D01*
X20001009Y56418415D01*
X20026135Y56415500D01*
X20071359Y56415501D01*
X20106296Y56410478D01*
X20117403Y56407216D01*
X20159419Y56394878D01*
X20159423Y56394878D01*
X20159428Y56394876D01*
X20245500Y56382500D01*
X20245503Y56382500D01*
X23512990Y56382500D01*
X23513000Y56382500D01*
X23577941Y56389482D01*
X23629452Y56400688D01*
X23667658Y56411646D01*
X23764571Y56468325D01*
X23817375Y56514080D01*
X23817382Y56514088D01*
X23817387Y56514092D01*
X23859548Y56558808D01*
X23859553Y56558813D01*
X23910439Y56658889D01*
X23930124Y56725928D01*
X23942500Y56812000D01*
X23942500Y57528500D01*
X23962185Y57595539D01*
X24014989Y57641294D01*
X24066500Y57652500D01*
X33672990Y57652500D01*
X33673000Y57652500D01*
X33737941Y57659482D01*
X33789452Y57670688D01*
X33827658Y57681646D01*
X33924571Y57738325D01*
X33977375Y57784080D01*
X33977382Y57784088D01*
X33977387Y57784092D01*
X34019548Y57828808D01*
X34019553Y57828813D01*
X34070439Y57928889D01*
X34090124Y57995928D01*
X34102500Y58082000D01*
X34102500Y61390000D01*
X34095518Y61454941D01*
X34084312Y61506452D01*
X34073354Y61544658D01*
X34016675Y61641571D01*
X33970920Y61694375D01*
X33970918Y61694377D01*
X33970908Y61694388D01*
X33926192Y61736549D01*
X33926189Y61736551D01*
X33926187Y61736553D01*
X33826111Y61787439D01*
X33826110Y61787440D01*
X33826109Y61787440D01*
X33759078Y61807123D01*
X33759072Y61807124D01*
X33673000Y61819500D01*
X30223000Y61819500D01*
X30222991Y61819500D01*
X30222990Y61819499D01*
X30158064Y61812519D01*
X30158052Y61812517D01*
X30106546Y61801312D01*
X30068345Y61790356D01*
X30068341Y61790354D01*
X29971431Y61733677D01*
X29971428Y61733675D01*
X29918623Y61687919D01*
X29918612Y61687909D01*
X29876451Y61643193D01*
X29876445Y61643184D01*
X29825560Y61543110D01*
X29805877Y61476079D01*
X29805876Y61476072D01*
X29793502Y61390010D01*
X29793500Y61389998D01*
X29793500Y60119500D01*
X29773815Y60052461D01*
X29721011Y60006706D01*
X29669500Y59995500D01*
X24237473Y59995500D01*
X24206218Y60004678D01*
X24174619Y60012611D01*
X24172876Y60014468D01*
X24170434Y60015185D01*
X24149109Y60039796D01*
X24126808Y60063560D01*
X24125830Y60066660D01*
X24124679Y60067989D01*
X24115531Y60097004D01*
X24115081Y60099443D01*
X24112486Y60117491D01*
X24109636Y60128954D01*
X24108949Y60132683D01*
X24112171Y60163808D01*
X24113483Y60195070D01*
X24115757Y60198452D01*
X24116144Y60202181D01*
X24129539Y60218939D01*
X24149688Y60248891D01*
X24183375Y60278080D01*
X24183381Y60278087D01*
X24183387Y60278092D01*
X24225548Y60322808D01*
X24225553Y60322813D01*
X24276439Y60422889D01*
X24296124Y60489928D01*
X24304495Y60548151D01*
X24333521Y60611704D01*
X24392300Y60649478D01*
X24427233Y60654500D01*
X25783990Y60654500D01*
X25784000Y60654500D01*
X25848941Y60661482D01*
X25900452Y60672688D01*
X25938658Y60683646D01*
X26035571Y60740325D01*
X26088375Y60786080D01*
X26088382Y60786088D01*
X26088387Y60786092D01*
X26130548Y60830808D01*
X26130553Y60830813D01*
X26181439Y60930889D01*
X26201124Y60997928D01*
X26213500Y61084000D01*
X26213500Y66245500D01*
X26233185Y66312539D01*
X26285989Y66358294D01*
X26337500Y66369500D01*
X30193190Y66369500D01*
X30193200Y66369500D01*
X30258141Y66376482D01*
X30309652Y66387688D01*
X30347858Y66398646D01*
X30444771Y66455325D01*
X30497575Y66501080D01*
X30497582Y66501088D01*
X30497587Y66501092D01*
X30539748Y66545808D01*
X30539753Y66545813D01*
X30590639Y66645889D01*
X30610324Y66712928D01*
X30622700Y66799000D01*
X30622700Y68099700D01*
X30615718Y68164641D01*
X30604512Y68216152D01*
X30593554Y68254358D01*
X30564902Y68303348D01*
X30548050Y68371154D01*
X30561409Y68422150D01*
X30571567Y68442127D01*
X30601039Y68500089D01*
X30620724Y68567128D01*
X30633100Y68653200D01*
X30633100Y70640400D01*
X30626118Y70705341D01*
X30614912Y70756852D01*
X30603954Y70795058D01*
X30547275Y70891971D01*
X30501520Y70944775D01*
X30501518Y70944777D01*
X30501508Y70944788D01*
X30456792Y70986949D01*
X30456789Y70986951D01*
X30456787Y70986953D01*
X30356711Y71037839D01*
X30356710Y71037840D01*
X30356709Y71037840D01*
X30289678Y71057523D01*
X30289672Y71057524D01*
X30203600Y71069900D01*
X30203597Y71069900D01*
X25931100Y71069900D01*
X25864061Y71089585D01*
X25818306Y71142389D01*
X25807100Y71193900D01*
X25807100Y71414909D01*
X25803990Y71458385D01*
X25803965Y71458561D01*
X25798967Y71493321D01*
X25795885Y71511039D01*
X25793489Y71516926D01*
X25788739Y71538063D01*
X25764815Y71587388D01*
X25763710Y71590103D01*
X25763296Y71591122D01*
X25763295Y71591124D01*
X25753569Y71615024D01*
X25753567Y71615029D01*
X25751953Y71617540D01*
X25751952Y71617540D01*
X25748789Y71622462D01*
X25748785Y71622470D01*
X25744767Y71628721D01*
X25739744Y71639079D01*
X25727214Y71656035D01*
X25715808Y71673784D01*
X25677553Y71721879D01*
X25668213Y71728453D01*
X25661465Y71733556D01*
X25656157Y71737862D01*
X25637119Y71757135D01*
X25564702Y71812051D01*
X25563114Y71813339D01*
X25561585Y71815556D01*
X25542429Y71834712D01*
X25522330Y71861217D01*
X25505782Y71890649D01*
X25497103Y71912658D01*
X25492209Y71925067D01*
X25484448Y71955781D01*
X25483483Y71963824D01*
X25482600Y71978596D01*
X25482600Y72813408D01*
X25483483Y72828181D01*
X25484436Y72836120D01*
X25484449Y72836228D01*
X25492207Y72866931D01*
X25505784Y72901361D01*
X25522330Y72930787D01*
X25542432Y72957294D01*
X25566303Y72981165D01*
X25637118Y73034864D01*
X25676766Y73070814D01*
X25706156Y73102579D01*
X25724153Y73123906D01*
X25775039Y73223982D01*
X25794724Y73291021D01*
X25807100Y73377093D01*
X25807100Y73942400D01*
X25800118Y74007341D01*
X25788912Y74058852D01*
X25777954Y74097058D01*
X25721275Y74193971D01*
X25675520Y74246775D01*
X25675518Y74246777D01*
X25675508Y74246788D01*
X25630792Y74288949D01*
X25630789Y74288951D01*
X25630787Y74288953D01*
X25530711Y74339839D01*
X25530710Y74339840D01*
X25530709Y74339840D01*
X25463678Y74359523D01*
X25463672Y74359524D01*
X25377600Y74371900D01*
X25377597Y74371900D01*
X23998464Y74371900D01*
X23977273Y74378123D01*
X23955241Y74379677D01*
X23944403Y74387775D01*
X23931425Y74391585D01*
X23916962Y74408276D01*
X23899267Y74421496D01*
X23894527Y74434168D01*
X23885670Y74444389D01*
X23882526Y74466249D01*
X23874788Y74486937D01*
X23877651Y74500159D01*
X23875726Y74513547D01*
X23884901Y74533639D01*
X23889576Y74555224D01*
X23902909Y74573071D01*
X23904751Y74577103D01*
X23910700Y74583498D01*
X23911229Y74584028D01*
X23958036Y74613469D01*
X24045882Y74644207D01*
X24155150Y74724850D01*
X24235793Y74834118D01*
X24270392Y74932996D01*
X24280646Y74962299D01*
X24280646Y74962301D01*
X24283500Y74992731D01*
X24283500Y76126270D01*
X24280646Y76156700D01*
X24280646Y76156702D01*
X24235793Y76284881D01*
X24235792Y76284883D01*
X24224417Y76300296D01*
X24155150Y76394150D01*
X24045882Y76474793D01*
X24045880Y76474794D01*
X23917700Y76519647D01*
X23887270Y76522500D01*
X23887266Y76522500D01*
X23478734Y76522500D01*
X23478730Y76522500D01*
X23448300Y76519647D01*
X23448298Y76519647D01*
X23320119Y76474794D01*
X23320117Y76474793D01*
X23210850Y76394150D01*
X23130207Y76284883D01*
X23130206Y76284881D01*
X23085353Y76156702D01*
X23085353Y76156700D01*
X23082500Y76126270D01*
X23082500Y75080865D01*
X23062815Y75013826D01*
X23046181Y74993184D01*
X22740479Y74687483D01*
X22733782Y74683827D01*
X22729350Y74677615D01*
X22703540Y74667314D01*
X22679156Y74653998D01*
X22671546Y74654543D01*
X22664458Y74651713D01*
X22637178Y74657000D01*
X22609464Y74658982D01*
X22603354Y74663556D01*
X22595865Y74665007D01*
X22575774Y74684203D01*
X22553531Y74700854D01*
X22549598Y74709213D01*
X22545347Y74713274D01*
X22538881Y74731989D01*
X22532263Y74746054D01*
X22525600Y74773641D01*
X22522872Y74787728D01*
X22525660Y74788128D01*
X22522368Y74811028D01*
X22519288Y74828737D01*
X22502079Y74871031D01*
X22501551Y74873219D01*
X22495182Y74890655D01*
X22495183Y74890655D01*
X22487727Y74911068D01*
X22479743Y74925929D01*
X22476976Y74932730D01*
X22471572Y74941138D01*
X22461395Y74960080D01*
X22453590Y74977804D01*
X22444957Y75002478D01*
X22438000Y75043430D01*
X22438000Y76075569D01*
X22438694Y76079657D01*
X22438161Y76081889D01*
X22444958Y76116523D01*
X22448962Y76127966D01*
X22455112Y76141366D01*
X22454750Y76141538D01*
X22461972Y76156702D01*
X22498439Y76233267D01*
X22518124Y76300306D01*
X22530500Y76386378D01*
X22530500Y76584000D01*
X22523518Y76648941D01*
X22512312Y76700452D01*
X22501354Y76738658D01*
X22444675Y76835571D01*
X22398920Y76888375D01*
X22398918Y76888377D01*
X22398908Y76888388D01*
X22354192Y76930549D01*
X22354189Y76930551D01*
X22354187Y76930553D01*
X22254111Y76981439D01*
X22254110Y76981440D01*
X22254109Y76981440D01*
X22187078Y77001123D01*
X22187072Y77001124D01*
X22101000Y77013500D01*
X19479500Y77013500D01*
X19479491Y77013500D01*
X19479490Y77013499D01*
X19414564Y77006519D01*
X19414552Y77006517D01*
X19363046Y76995312D01*
X19324845Y76984356D01*
X19324843Y76984355D01*
X19266339Y76950139D01*
X19198532Y76933287D01*
X19147537Y76946646D01*
X19140667Y76950139D01*
X19079111Y76981439D01*
X19079110Y76981440D01*
X19079109Y76981440D01*
X19012078Y77001123D01*
X19012072Y77001124D01*
X18926000Y77013500D01*
X15770400Y77013500D01*
X15770391Y77013500D01*
X15770390Y77013499D01*
X15705464Y77006519D01*
X15705452Y77006517D01*
X15653946Y76995312D01*
X15615745Y76984356D01*
X15615743Y76984355D01*
X15557239Y76950139D01*
X15489432Y76933287D01*
X15438437Y76946646D01*
X15431567Y76950139D01*
X15370011Y76981439D01*
X15370010Y76981440D01*
X15370009Y76981440D01*
X15302978Y77001123D01*
X15302972Y77001124D01*
X15216900Y77013500D01*
X11427000Y77013500D01*
X11426991Y77013500D01*
X11426990Y77013499D01*
X11362064Y77006519D01*
X11362052Y77006517D01*
X11310546Y76995312D01*
X11272345Y76984356D01*
X11272341Y76984354D01*
X11175431Y76927677D01*
X11175428Y76927675D01*
X11122623Y76881919D01*
X11122612Y76881909D01*
X11080451Y76837193D01*
X11080445Y76837184D01*
X11029560Y76737110D01*
X11009877Y76670079D01*
X11009876Y76670072D01*
X10997500Y76584000D01*
X10997500Y74673000D01*
X10997501Y74672991D01*
X11004481Y74608065D01*
X11004483Y74608053D01*
X11015688Y74556547D01*
X11026644Y74518346D01*
X11026646Y74518342D01*
X11083323Y74421432D01*
X11083325Y74421429D01*
X11129081Y74368624D01*
X11129091Y74368613D01*
X11173807Y74326452D01*
X11173809Y74326451D01*
X11173813Y74326447D01*
X11273889Y74275561D01*
X11340928Y74255876D01*
X11427000Y74243500D01*
X11501500Y74243500D01*
X11568539Y74223815D01*
X11614294Y74171011D01*
X11625500Y74119500D01*
X11625500Y72907387D01*
X11605815Y72840348D01*
X11589181Y72819706D01*
X9661181Y70891706D01*
X9599858Y70858221D01*
X9530166Y70863205D01*
X9474233Y70905077D01*
X9449816Y70970541D01*
X9449500Y70979387D01*
X9449500Y71757990D01*
X9449500Y71758000D01*
X9442518Y71822941D01*
X9431312Y71874452D01*
X9420354Y71912658D01*
X9363675Y72009571D01*
X9317920Y72062375D01*
X9317918Y72062377D01*
X9317908Y72062388D01*
X9273192Y72104549D01*
X9273189Y72104551D01*
X9273187Y72104553D01*
X9173111Y72155439D01*
X9173110Y72155440D01*
X9173109Y72155440D01*
X9106078Y72175123D01*
X9106072Y72175124D01*
X9020000Y72187500D01*
X9019997Y72187500D01*
X8217500Y72187500D01*
X8150461Y72207185D01*
X8104706Y72259989D01*
X8093500Y72311500D01*
X8093500Y72580057D01*
X8090504Y72591238D01*
X8088937Y72597085D01*
X8086849Y72604876D01*
X8081575Y72624561D01*
X8052577Y72732784D01*
X8048868Y72739208D01*
X7973524Y72869710D01*
X7973521Y72869714D01*
X7973520Y72869716D01*
X7861716Y72981520D01*
X7861715Y72981521D01*
X7857385Y72985851D01*
X7857374Y72985861D01*
X7809819Y73033416D01*
X7776334Y73094739D01*
X7773500Y73121097D01*
X7773500Y76490770D01*
X7770646Y76521200D01*
X7770646Y76521202D01*
X7725793Y76649381D01*
X7725792Y76649383D01*
X7710518Y76670079D01*
X7645150Y76758650D01*
X7535882Y76839293D01*
X7535880Y76839294D01*
X7407700Y76884147D01*
X7377270Y76887000D01*
X7377266Y76887000D01*
X6968734Y76887000D01*
X6968730Y76887000D01*
X6938300Y76884147D01*
X6938298Y76884147D01*
X6810119Y76839294D01*
X6810117Y76839293D01*
X6700850Y76758650D01*
X6620207Y76649383D01*
X6620206Y76649381D01*
X6575353Y76521202D01*
X6575353Y76521200D01*
X6572500Y76490770D01*
X6572500Y75486500D01*
X6552815Y75419461D01*
X6500011Y75373706D01*
X6448500Y75362500D01*
X4920071Y75362500D01*
X4863031Y75357128D01*
X4863021Y75357126D01*
X4817551Y75348484D01*
X4817543Y75348482D01*
X4762523Y75332559D01*
X4726754Y75318455D01*
X4726691Y75318430D01*
X4711928Y75312609D01*
X4681242Y75304852D01*
X4678405Y75304512D01*
X4673195Y75303886D01*
X4658407Y75303000D01*
X3723598Y75303000D01*
X3708804Y75303886D01*
X3705956Y75304228D01*
X3700755Y75304853D01*
X3670066Y75312611D01*
X3619494Y75332553D01*
X3619480Y75332557D01*
X3578879Y75344308D01*
X3564447Y75348485D01*
X3518978Y75357126D01*
X3518968Y75357128D01*
X3461928Y75362500D01*
X3461927Y75362500D01*
X3426000Y75362500D01*
X3425999Y75362500D01*
X3382523Y75359391D01*
X3356062Y75355586D01*
X3347587Y75354367D01*
X3347577Y75354366D01*
X3347575Y75354365D01*
X3329926Y75351298D01*
X3329910Y75351293D01*
X3325993Y75349701D01*
X3325994Y75349700D01*
X3316433Y75345812D01*
X3309528Y75344308D01*
X3271354Y75333359D01*
X3238303Y75314033D01*
X3230084Y75310689D01*
X3230082Y75310689D01*
X3225927Y75308999D01*
X3189944Y75285879D01*
X3188834Y75285162D01*
X3187811Y75284504D01*
X3174438Y75276683D01*
X3170976Y75273684D01*
X3167112Y75271200D01*
X3166524Y75270733D01*
X3166522Y75270731D01*
X3119020Y75232945D01*
X3110842Y75221325D01*
X3110841Y75221326D01*
X3105736Y75214073D01*
X3079454Y75186196D01*
X3062098Y75152069D01*
X3056999Y75144823D01*
X3054405Y75141137D01*
X3036804Y75102606D01*
X3036342Y75101586D01*
X3035586Y75099933D01*
X3028564Y75086122D01*
X3027272Y75081725D01*
X3025364Y75077545D01*
X3025119Y75076825D01*
X3025118Y75076822D01*
X3005588Y75019355D01*
X3005588Y75019352D01*
X3004475Y74992900D01*
X3003324Y74980476D01*
X2996500Y74933000D01*
X2996500Y72387000D01*
X2996501Y72386991D01*
X3003481Y72322065D01*
X3003483Y72322053D01*
X3014688Y72270547D01*
X3025644Y72232346D01*
X3025646Y72232342D01*
X3059860Y72173841D01*
X3076713Y72106034D01*
X3063354Y72055038D01*
X3028560Y71986610D01*
X3008877Y71919579D01*
X3008876Y71919572D01*
X2996500Y71833500D01*
X2996500Y66418000D01*
X2996501Y66417991D01*
X3003481Y66353065D01*
X3003483Y66353053D01*
X3014688Y66301547D01*
X3025644Y66263346D01*
X3025646Y66263342D01*
X3082323Y66166432D01*
X3082325Y66166429D01*
X3128081Y66113624D01*
X3128091Y66113613D01*
X3172807Y66071452D01*
X3172809Y66071451D01*
X3172813Y66071447D01*
X3272889Y66020561D01*
X3339928Y66000876D01*
X3426000Y65988500D01*
X4819755Y65988500D01*
X4886794Y65968815D01*
X4932549Y65916011D01*
X4942493Y65846853D01*
X4934998Y65818727D01*
X4933558Y65815104D01*
X4913877Y65748079D01*
X4901500Y65661998D01*
X4901500Y64390965D01*
X4881815Y64323926D01*
X4865181Y64303284D01*
X4548716Y63986819D01*
X4487393Y63953334D01*
X4461035Y63950500D01*
X3242691Y63950500D01*
X3173944Y63932080D01*
X3128112Y63919799D01*
X3128107Y63919796D01*
X3084695Y63894733D01*
X3084696Y63894732D01*
X3025389Y63860492D01*
X3025383Y63860487D01*
X1544513Y62379617D01*
X1544509Y62379611D01*
X1485201Y62276888D01*
X1485200Y62276883D01*
X1478974Y62253647D01*
X1454500Y62162309D01*
X400500Y62162309D01*
X400500Y77995573D01*
X400816Y78004419D01*
X416148Y78218788D01*
X416148Y78218789D01*
X418666Y78236300D01*
X463407Y78441974D01*
X468384Y78458925D01*
X541948Y78656156D01*
X549296Y78672243D01*
X572895Y78715462D01*
X650166Y78856975D01*
X659720Y78871843D01*
X785873Y79040363D01*
X797445Y79053717D01*
X946283Y79202555D01*
X959637Y79214127D01*
X1128157Y79340280D01*
X1143025Y79349834D01*
X1327757Y79450705D01*
X1343844Y79458052D01*
X1541075Y79531616D01*
X1558026Y79536593D01*
X1763705Y79581335D01*
X1781206Y79583852D01*
X1995582Y79599184D01*
X2004428Y79599500D01*
X2057583Y79599500D01*
X37942417Y79599500D01*
X37995572Y79599500D01*
X38004418Y79599184D01*
G37*
%TD.AperFunction*%
%TD*%
M02*
