%TF.GenerationSoftware,KiCad,Pcbnew,9.99.0-1450-g65dfee161b*%
%TF.CreationDate,2025-07-10T00:36:04+02:00*%
%TF.ProjectId,RemBrake,52656d42-7261-46b6-952e-6b696361645f,2.0*%
%TF.SameCoordinates,PX7270e00PY8583b00*%
%TF.FileFunction,Soldermask,Top*%
%TF.FilePolarity,Negative*%
%FSLAX46Y46*%
G04 Gerber Fmt 4.6, Leading zero omitted, Abs format (unit mm)*
G04 Created by KiCad (PCBNEW 9.99.0-1450-g65dfee161b) date 2025-07-10 00:36:04*
%MOMM*%
%LPD*%
G01*
G04 APERTURE LIST*
G04 Aperture macros list*
%AMRoundRect*
0 Rectangle with rounded corners*
0 $1 Rounding radius*
0 $2 $3 $4 $5 $6 $7 $8 $9 X,Y pos of 4 corners*
0 Add a 4 corners polygon primitive as box body*
4,1,4,$2,$3,$4,$5,$6,$7,$8,$9,$2,$3,0*
0 Add four circle primitives for the rounded corners*
1,1,$1+$1,$2,$3*
1,1,$1+$1,$4,$5*
1,1,$1+$1,$6,$7*
1,1,$1+$1,$8,$9*
0 Add four rect primitives between the rounded corners*
20,1,$1+$1,$2,$3,$4,$5,0*
20,1,$1+$1,$4,$5,$6,$7,0*
20,1,$1+$1,$6,$7,$8,$9,0*
20,1,$1+$1,$8,$9,$2,$3,0*%
%AMFreePoly0*
4,1,21,1.372500,0.787500,0.862500,0.787500,0.862500,0.532500,1.372500,0.532500,1.372500,0.127500,0.862500,0.127500,0.862500,-0.127500,1.372500,-0.127500,1.372500,-0.532500,0.862500,-0.532500,0.862500,-0.787500,1.372500,-0.787500,1.372500,-1.195000,0.612500,-1.195000,0.612500,-1.117500,-0.862500,-1.117500,-0.862500,1.117500,0.612500,1.117500,0.612500,1.195000,1.372500,1.195000,
1.372500,0.787500,1.372500,0.787500,$1*%
G04 Aperture macros list end*
%ADD10RoundRect,0.250000X-0.450000X0.350000X-0.450000X-0.350000X0.450000X-0.350000X0.450000X0.350000X0*%
%ADD11RoundRect,0.250000X0.350000X0.450000X-0.350000X0.450000X-0.350000X-0.450000X0.350000X-0.450000X0*%
%ADD12R,1.500000X1.050000*%
%ADD13O,1.500000X1.050000*%
%ADD14RoundRect,0.150000X-0.150000X0.512500X-0.150000X-0.512500X0.150000X-0.512500X0.150000X0.512500X0*%
%ADD15RoundRect,0.225000X0.225000X0.375000X-0.225000X0.375000X-0.225000X-0.375000X0.225000X-0.375000X0*%
%ADD16RoundRect,0.250000X-0.350000X-0.450000X0.350000X-0.450000X0.350000X0.450000X-0.350000X0.450000X0*%
%ADD17RoundRect,0.250001X-0.624999X0.462499X-0.624999X-0.462499X0.624999X-0.462499X0.624999X0.462499X0*%
%ADD18RoundRect,0.250000X0.337500X0.475000X-0.337500X0.475000X-0.337500X-0.475000X0.337500X-0.475000X0*%
%ADD19RoundRect,0.249999X0.850001X-0.850001X0.850001X0.850001X-0.850001X0.850001X-0.850001X-0.850001X0*%
%ADD20C,2.200000*%
%ADD21R,1.050000X1.500000*%
%ADD22O,1.050000X1.500000*%
%ADD23RoundRect,0.250000X-0.475000X0.337500X-0.475000X-0.337500X0.475000X-0.337500X0.475000X0.337500X0*%
%ADD24RoundRect,0.250000X1.100000X-0.250000X1.100000X0.250000X-1.100000X0.250000X-1.100000X-0.250000X0*%
%ADD25RoundRect,0.250000X1.650000X-0.650000X1.650000X0.650000X-1.650000X0.650000X-1.650000X-0.650000X0*%
%ADD26RoundRect,0.250001X-0.462499X-0.624999X0.462499X-0.624999X0.462499X0.624999X-0.462499X0.624999X0*%
%ADD27RoundRect,0.250000X1.050000X-1.050000X1.050000X1.050000X-1.050000X1.050000X-1.050000X-1.050000X0*%
%ADD28C,2.600000*%
%ADD29R,1.500000X1.500000*%
%ADD30RoundRect,0.250000X-1.000000X-0.650000X1.000000X-0.650000X1.000000X0.650000X-1.000000X0.650000X0*%
%ADD31RoundRect,0.250000X0.475000X-0.337500X0.475000X0.337500X-0.475000X0.337500X-0.475000X-0.337500X0*%
%ADD32R,1.900000X1.000000*%
%ADD33R,0.250000X0.700000*%
%ADD34R,2.380000X1.660000*%
%ADD35RoundRect,0.250000X0.450000X-0.350000X0.450000X0.350000X-0.450000X0.350000X-0.450000X-0.350000X0*%
%ADD36RoundRect,0.150000X0.512500X0.150000X-0.512500X0.150000X-0.512500X-0.150000X0.512500X-0.150000X0*%
%ADD37RoundRect,0.062500X-0.350000X-0.062500X0.350000X-0.062500X0.350000X0.062500X-0.350000X0.062500X0*%
%ADD38RoundRect,0.062500X-0.062500X-0.350000X0.062500X-0.350000X0.062500X0.350000X-0.062500X0.350000X0*%
%ADD39R,1.680000X1.680000*%
%ADD40R,0.500000X0.800000*%
%ADD41R,0.400000X0.800000*%
%ADD42RoundRect,0.150000X-0.150000X0.587500X-0.150000X-0.587500X0.150000X-0.587500X0.150000X0.587500X0*%
%ADD43R,0.405000X0.990000*%
%ADD44FreePoly0,90.000000*%
%ADD45RoundRect,0.250000X2.000000X-0.400000X2.000000X0.400000X-2.000000X0.400000X-2.000000X-0.400000X0*%
%ADD46RoundRect,0.250000X1.700000X-0.650000X1.700000X0.650000X-1.700000X0.650000X-1.700000X-0.650000X0*%
%ADD47R,1.000000X2.510000*%
%ADD48RoundRect,0.250000X-0.550000X-0.550000X0.550000X-0.550000X0.550000X0.550000X-0.550000X0.550000X0*%
%ADD49C,1.600000*%
%ADD50RoundRect,0.225000X0.375000X-0.225000X0.375000X0.225000X-0.375000X0.225000X-0.375000X-0.225000X0*%
%ADD51RoundRect,0.249999X-1.425001X0.450001X-1.425001X-0.450001X1.425001X-0.450001X1.425001X0.450001X0*%
%ADD52R,0.990000X0.405000*%
%ADD53FreePoly0,180.000000*%
%ADD54RoundRect,0.250001X0.462499X0.849999X-0.462499X0.849999X-0.462499X-0.849999X0.462499X-0.849999X0*%
G04 APERTURE END LIST*
D10*
%TO.C,R2*%
X6096000Y56626000D03*
X6096000Y54626000D03*
%TD*%
D11*
%TO.C,R22*%
X13446000Y56896000D03*
X11446000Y56896000D03*
%TD*%
D12*
%TO.C,Q2*%
X8382000Y59182000D03*
D13*
X8382000Y60452000D03*
X8382000Y61722000D03*
%TD*%
D11*
%TO.C,R43*%
X24860000Y29210000D03*
X22860000Y29210000D03*
%TD*%
D14*
%TO.C,U3*%
X18476000Y30977000D03*
X17526000Y30977000D03*
X16576000Y30977000D03*
X16576000Y28702000D03*
X18476000Y28702000D03*
%TD*%
D15*
%TO.C,D2*%
X29082000Y31496000D03*
X25782000Y31496000D03*
%TD*%
D16*
%TO.C,R33*%
X15526000Y10414000D03*
X17526000Y10414000D03*
%TD*%
D11*
%TO.C,R54*%
X19796000Y71120000D03*
X17796000Y71120000D03*
%TD*%
D12*
%TO.C,Q4*%
X5842000Y49784000D03*
D13*
X5842000Y51054000D03*
X5842000Y52324000D03*
%TD*%
D17*
%TO.C,F1*%
X24892000Y61685500D03*
X24892000Y58710500D03*
%TD*%
D18*
%TO.C,C9*%
X16023500Y15748000D03*
X13948500Y15748000D03*
%TD*%
D11*
%TO.C,R26*%
X23098000Y46990000D03*
X21098000Y46990000D03*
%TD*%
D19*
%TO.C,J3*%
X33400000Y31496000D03*
D20*
X33400000Y34036000D03*
X33400000Y36576000D03*
X33400000Y39116000D03*
%TD*%
D11*
%TO.C,R28*%
X15732000Y25146000D03*
X13732000Y25146000D03*
%TD*%
D21*
%TO.C,Q6*%
X25400000Y40386000D03*
D22*
X26670000Y40386000D03*
X27940000Y40386000D03*
%TD*%
D23*
%TO.C,C4*%
X10414000Y48535500D03*
X10414000Y46460500D03*
%TD*%
D16*
%TO.C,R8*%
X19050000Y35052000D03*
X21050000Y35052000D03*
%TD*%
D24*
%TO.C,J4*%
X28829000Y6750000D03*
X28829000Y8750000D03*
X28829000Y10750000D03*
X28829000Y12750000D03*
X28829000Y14750000D03*
X28829000Y16750000D03*
X28829000Y18750000D03*
X28829000Y20750000D03*
D25*
X33279000Y4400000D03*
X33279000Y23100000D03*
%TD*%
D10*
%TO.C,R21*%
X8890000Y56626000D03*
X8890000Y54626000D03*
%TD*%
D23*
%TO.C,C3*%
X16256000Y41423500D03*
X16256000Y39348500D03*
%TD*%
D11*
%TO.C,R57*%
X13319000Y66802000D03*
X11319000Y66802000D03*
%TD*%
D26*
%TO.C,F2*%
X19050000Y67818000D03*
X22025000Y67818000D03*
%TD*%
D12*
%TO.C,Q8*%
X21844000Y26670000D03*
D13*
X21844000Y25400000D03*
X21844000Y24130000D03*
%TD*%
D16*
%TO.C,R51*%
X28988000Y26416000D03*
X30988000Y26416000D03*
%TD*%
%TO.C,R9*%
X11446000Y59182000D03*
X13446000Y59182000D03*
%TD*%
D27*
%TO.C,J1*%
X31892200Y54797600D03*
D28*
X31892200Y59797600D03*
%TD*%
D29*
%TO.C,TP4*%
X21844000Y63246000D03*
%TD*%
D11*
%TO.C,R32*%
X17510000Y7874000D03*
X15510000Y7874000D03*
%TD*%
D10*
%TO.C,R55*%
X21844000Y72390000D03*
X21844000Y70390000D03*
%TD*%
%TO.C,R65*%
X9652000Y73882000D03*
X9652000Y71882000D03*
%TD*%
D30*
%TO.C,D4*%
X31500000Y42976800D03*
X35500000Y42976800D03*
%TD*%
D31*
%TO.C,C8*%
X13970000Y33760500D03*
X13970000Y35835500D03*
%TD*%
D32*
%TO.C,J8*%
X4715000Y20620000D03*
X8015000Y18080000D03*
X4715000Y15540000D03*
X8015000Y13000000D03*
X4715000Y10460000D03*
X8015000Y7920000D03*
X4715000Y5380000D03*
%TD*%
D33*
%TO.C,U7*%
X20840000Y58544000D03*
X21340000Y58544000D03*
X21840000Y58544000D03*
X22340000Y58544000D03*
X22340000Y61344000D03*
X21840000Y61344000D03*
X21340000Y61344000D03*
X20840000Y61344000D03*
D34*
X21590000Y59944000D03*
%TD*%
D35*
%TO.C,R13*%
X6096000Y44974000D03*
X6096000Y46974000D03*
%TD*%
%TO.C,R12*%
X4064000Y44974000D03*
X4064000Y46974000D03*
%TD*%
D16*
%TO.C,R44*%
X15526000Y12446000D03*
X17526000Y12446000D03*
%TD*%
%TO.C,R24*%
X21098000Y44958000D03*
X23098000Y44958000D03*
%TD*%
%TO.C,R5*%
X11446000Y61214000D03*
X13446000Y61214000D03*
%TD*%
D36*
%TO.C,U8*%
X23743500Y74234000D03*
X23743500Y75184000D03*
X23743500Y76134000D03*
X21468500Y76134000D03*
X21468500Y74234000D03*
%TD*%
D37*
%TO.C,U1*%
X22755500Y36476000D03*
X22755500Y35976000D03*
X22755500Y35476000D03*
X22755500Y34976000D03*
D38*
X23468000Y34263500D03*
X23968000Y34263500D03*
X24468000Y34263500D03*
X24968000Y34263500D03*
D37*
X25680500Y34976000D03*
X25680500Y35476000D03*
X25680500Y35976000D03*
X25680500Y36476000D03*
D38*
X24968000Y37188500D03*
X24468000Y37188500D03*
X23968000Y37188500D03*
X23468000Y37188500D03*
D39*
X24218000Y35726000D03*
%TD*%
D10*
%TO.C,R59*%
X23876000Y72120000D03*
X23876000Y70120000D03*
%TD*%
D14*
%TO.C,U2*%
X10856000Y52699500D03*
X9906000Y52699500D03*
X8956000Y52699500D03*
X8956000Y50424500D03*
X10856000Y50424500D03*
%TD*%
D10*
%TO.C,R30*%
X27178000Y46196000D03*
X27178000Y44196000D03*
%TD*%
D40*
%TO.C,RN4*%
X16834000Y74284000D03*
D41*
X17634000Y74284000D03*
X18434000Y74284000D03*
D40*
X19234000Y74284000D03*
X19234000Y76084000D03*
D41*
X18434000Y76084000D03*
X17634000Y76084000D03*
D40*
X16834000Y76084000D03*
%TD*%
D10*
%TO.C,R3*%
X4318000Y60944000D03*
X4318000Y58944000D03*
%TD*%
D11*
%TO.C,R62*%
X6080000Y75946000D03*
X4080000Y75946000D03*
%TD*%
D42*
%TO.C,Q7*%
X23048000Y42926000D03*
X21148000Y42926000D03*
X22098000Y41051000D03*
%TD*%
D10*
%TO.C,R14*%
X4064000Y56642000D03*
X4064000Y54642000D03*
%TD*%
D16*
%TO.C,R49*%
X28988000Y28448000D03*
X30988000Y28448000D03*
%TD*%
D18*
%TO.C,C10*%
X16023500Y17780000D03*
X13948500Y17780000D03*
%TD*%
D11*
%TO.C,R31*%
X17494000Y5334000D03*
X15494000Y5334000D03*
%TD*%
D16*
%TO.C,R50*%
X20352000Y65532000D03*
X22352000Y65532000D03*
%TD*%
D10*
%TO.C,R29*%
X25146000Y47228000D03*
X25146000Y45228000D03*
%TD*%
D11*
%TO.C,R17*%
X13700000Y54610000D03*
X11700000Y54610000D03*
%TD*%
D43*
%TO.C,Q1*%
X23140000Y51601500D03*
X23800000Y51601500D03*
X24460000Y51601500D03*
X25120000Y51601500D03*
D44*
X24130000Y53594000D03*
%TD*%
D45*
%TO.C,J2*%
X27727600Y67396000D03*
X27727600Y69896000D03*
X27727600Y72396000D03*
D46*
X34527600Y64196000D03*
X34527600Y75596000D03*
%TD*%
D23*
%TO.C,C6*%
X25908000Y6117500D03*
X25908000Y4042500D03*
%TD*%
D18*
%TO.C,C13*%
X22627500Y56642000D03*
X20552500Y56642000D03*
%TD*%
D47*
%TO.C,J7*%
X30114000Y46595000D03*
X32654000Y49905000D03*
X35194000Y46595000D03*
%TD*%
D48*
%TO.C,U5*%
X4064000Y41402000D03*
D49*
X4064000Y38862000D03*
X4064000Y36322000D03*
X4064000Y33782000D03*
X11684000Y33782000D03*
X11684000Y36322000D03*
X11684000Y38862000D03*
X11684000Y41402000D03*
%TD*%
D29*
%TO.C,TP3*%
X18034000Y23876000D03*
%TD*%
D11*
%TO.C,R19*%
X18780000Y33020000D03*
X16780000Y33020000D03*
%TD*%
D21*
%TO.C,Q14*%
X4572000Y71882000D03*
D22*
X5842000Y71882000D03*
X7112000Y71882000D03*
%TD*%
D10*
%TO.C,R7*%
X4318000Y68818000D03*
X4318000Y66818000D03*
%TD*%
D16*
%TO.C,R63*%
X7890000Y75946000D03*
X9890000Y75946000D03*
%TD*%
D31*
%TO.C,C12*%
X11684000Y69088000D03*
X11684000Y71163000D03*
%TD*%
D12*
%TO.C,Q10*%
X7493000Y67310000D03*
D13*
X7493000Y66040000D03*
X7493000Y64770000D03*
%TD*%
D50*
%TO.C,D1*%
X28575000Y33910000D03*
X28575000Y37210000D03*
%TD*%
D51*
%TO.C,R52*%
X17526000Y62994000D03*
X17526000Y56894000D03*
%TD*%
D11*
%TO.C,R1*%
X25638000Y49784000D03*
X23638000Y49784000D03*
%TD*%
D35*
%TO.C,R4*%
X4318000Y63008000D03*
X4318000Y65008000D03*
%TD*%
D52*
%TO.C,Q13*%
X15073500Y74016000D03*
X15073500Y74676000D03*
X15073500Y75336000D03*
X15073500Y75996000D03*
D53*
X13081000Y75006000D03*
%TD*%
D11*
%TO.C,R6*%
X13446000Y63246000D03*
X11446000Y63246000D03*
%TD*%
D14*
%TO.C,U4*%
X15682000Y22727500D03*
X14732000Y22727500D03*
X13782000Y22727500D03*
X13782000Y20452500D03*
X15682000Y20452500D03*
%TD*%
D32*
%TO.C,J9*%
X19955000Y20620000D03*
X23255000Y18080000D03*
X19955000Y15540000D03*
X23255000Y13000000D03*
X19955000Y10460000D03*
X23255000Y7920000D03*
X19955000Y5380000D03*
%TD*%
D10*
%TO.C,R44*%
X26924000Y29448000D03*
X26924000Y27448000D03*
%TD*%
D54*
%TO.C,L1*%
X20974500Y37592000D03*
X18649500Y37592000D03*
%TD*%
D10*
%TO.C,R56*%
X13970000Y71485000D03*
X13970000Y69485000D03*
%TD*%
D16*
%TO.C,R42*%
X21590000Y31242000D03*
X23590000Y31242000D03*
%TD*%
D10*
%TO.C,R34*%
X13970000Y41386000D03*
X13970000Y39386000D03*
%TD*%
D29*
%TO.C,TP1*%
X18034000Y26416000D03*
%TD*%
D31*
%TO.C,C5*%
X14732000Y27410500D03*
X14732000Y29485500D03*
%TD*%
M02*
