%TF.GenerationSoftware,KiCad,Pcbnew,9.99.0-86-g03af293683*%
%TF.CreationDate,2025-02-25T09:18:43+01:00*%
%TF.ProjectId,RemBrake,52656d42-7261-46b6-952e-6b696361645f,2.0*%
%TF.SameCoordinates,PX7270e00PY8583b00*%
%TF.FileFunction,Soldermask,Bot*%
%TF.FilePolarity,Negative*%
%FSLAX46Y46*%
G04 Gerber Fmt 4.6, Leading zero omitted, Abs format (unit mm)*
G04 Created by KiCad (PCBNEW 9.99.0-86-g03af293683) date 2025-02-25 09:18:43*
%MOMM*%
%LPD*%
G01*
G04 APERTURE LIST*
G04 Aperture macros list*
%AMRoundRect*
0 Rectangle with rounded corners*
0 $1 Rounding radius*
0 $2 $3 $4 $5 $6 $7 $8 $9 X,Y pos of 4 corners*
0 Add a 4 corners polygon primitive as box body*
4,1,4,$2,$3,$4,$5,$6,$7,$8,$9,$2,$3,0*
0 Add four circle primitives for the rounded corners*
1,1,$1+$1,$2,$3*
1,1,$1+$1,$4,$5*
1,1,$1+$1,$6,$7*
1,1,$1+$1,$8,$9*
0 Add four rect primitives between the rounded corners*
20,1,$1+$1,$2,$3,$4,$5,0*
20,1,$1+$1,$4,$5,$6,$7,0*
20,1,$1+$1,$6,$7,$8,$9,0*
20,1,$1+$1,$8,$9,$2,$3,0*%
G04 Aperture macros list end*
%ADD10R,1.050000X1.500000*%
%ADD11O,1.050000X1.500000*%
%ADD12R,2.200000X2.200000*%
%ADD13C,2.200000*%
%ADD14R,2.600000X2.600000*%
%ADD15C,2.600000*%
%ADD16R,1.500000X1.050000*%
%ADD17O,1.500000X1.050000*%
%ADD18R,1.600000X1.600000*%
%ADD19O,1.600000X1.600000*%
%ADD20RoundRect,0.250000X-0.350000X-0.450000X0.350000X-0.450000X0.350000X0.450000X-0.350000X0.450000X0*%
%ADD21RoundRect,0.250000X0.450000X-0.350000X0.450000X0.350000X-0.450000X0.350000X-0.450000X-0.350000X0*%
%ADD22RoundRect,0.225000X0.375000X-0.225000X0.375000X0.225000X-0.375000X0.225000X-0.375000X-0.225000X0*%
%ADD23RoundRect,0.250000X0.350000X0.450000X-0.350000X0.450000X-0.350000X-0.450000X0.350000X-0.450000X0*%
%ADD24RoundRect,0.150000X0.587500X0.150000X-0.587500X0.150000X-0.587500X-0.150000X0.587500X-0.150000X0*%
%ADD25RoundRect,0.225000X0.225000X0.375000X-0.225000X0.375000X-0.225000X-0.375000X0.225000X-0.375000X0*%
%ADD26RoundRect,0.250000X-0.450000X0.350000X-0.450000X-0.350000X0.450000X-0.350000X0.450000X0.350000X0*%
%ADD27RoundRect,0.250000X-1.100000X0.250000X-1.100000X-0.250000X1.100000X-0.250000X1.100000X0.250000X0*%
%ADD28RoundRect,0.250000X-1.650000X0.650000X-1.650000X-0.650000X1.650000X-0.650000X1.650000X0.650000X0*%
%ADD29RoundRect,0.250000X-0.337500X-0.475000X0.337500X-0.475000X0.337500X0.475000X-0.337500X0.475000X0*%
%ADD30R,2.200000X3.000000*%
%ADD31RoundRect,0.300000X1.200000X0.700000X-1.200000X0.700000X-1.200000X-0.700000X1.200000X-0.700000X0*%
%ADD32R,2.700000X3.200000*%
%ADD33RoundRect,0.300000X0.700000X1.200000X-0.700000X1.200000X-0.700000X-1.200000X0.700000X-1.200000X0*%
%ADD34RoundRect,0.250000X0.475000X-0.337500X0.475000X0.337500X-0.475000X0.337500X-0.475000X-0.337500X0*%
%ADD35R,1.500000X1.500000*%
%ADD36RoundRect,0.250000X-0.475000X0.337500X-0.475000X-0.337500X0.475000X-0.337500X0.475000X0.337500X0*%
%ADD37R,3.000000X1.700000*%
%ADD38RoundRect,0.250000X1.250000X-0.600000X1.250000X0.600000X-1.250000X0.600000X-1.250000X-0.600000X0*%
%ADD39R,3.000000X3.000000*%
G04 APERTURE END LIST*
D10*
%TO.C,Q2*%
X23368000Y42418000D03*
D11*
X24638000Y42418000D03*
X25908000Y42418000D03*
%TD*%
D12*
%TO.C,J3*%
X33416000Y35245400D03*
D13*
X33416000Y37785400D03*
X33416000Y40325400D03*
X33416000Y42865400D03*
%TD*%
D14*
%TO.C,J1*%
X31892200Y54797600D03*
D15*
X31892200Y59797600D03*
%TD*%
D10*
%TO.C,Q6*%
X25400000Y26268000D03*
D11*
X24130000Y26268000D03*
X22860000Y26268000D03*
%TD*%
D16*
%TO.C,Q4*%
X8382000Y52959000D03*
D17*
X8382000Y51689000D03*
X8382000Y50419000D03*
%TD*%
D18*
%TO.C,U5*%
X4318000Y41656000D03*
D19*
X4318000Y39116000D03*
X4318000Y36576000D03*
X4318000Y34036000D03*
X11938000Y34036000D03*
X11938000Y36576000D03*
X11938000Y39116000D03*
X11938000Y41656000D03*
%TD*%
D10*
%TO.C,Q8*%
X7493000Y70769000D03*
D11*
X6223000Y70769000D03*
X4953000Y70769000D03*
%TD*%
D20*
%TO.C,R38*%
X22130000Y24003000D03*
X24130000Y24003000D03*
%TD*%
D21*
%TO.C,R3*%
X22860000Y38624000D03*
X22860000Y40624000D03*
%TD*%
%TO.C,R13*%
X28956000Y41545000D03*
X28956000Y43545000D03*
%TD*%
D22*
%TO.C,D1*%
X30480000Y35307000D03*
X30480000Y38607000D03*
%TD*%
D21*
%TO.C,R42*%
X20066000Y24273000D03*
X20066000Y26273000D03*
%TD*%
D23*
%TO.C,R40*%
X19018000Y14859000D03*
X17018000Y14859000D03*
%TD*%
D24*
%TO.C,Q3*%
X18893000Y44003000D03*
X18893000Y42103000D03*
X17018000Y43053000D03*
%TD*%
D21*
%TO.C,R55*%
X6223000Y66675000D03*
X6223000Y68675000D03*
%TD*%
D20*
%TO.C,R10*%
X21199600Y33909000D03*
X23199600Y33909000D03*
%TD*%
D23*
%TO.C,R39*%
X19018000Y9779000D03*
X17018000Y9779000D03*
%TD*%
D25*
%TO.C,D3*%
X20319000Y29845000D03*
X17019000Y29845000D03*
%TD*%
D23*
%TO.C,R44*%
X19018000Y17399000D03*
X17018000Y17399000D03*
%TD*%
D26*
%TO.C,R31*%
X14351000Y41640000D03*
X14351000Y39640000D03*
%TD*%
D27*
%TO.C,J6*%
X28824000Y10763000D03*
X28824000Y8763000D03*
X28824000Y6763000D03*
D28*
X33274000Y13113000D03*
X33274000Y4413000D03*
%TD*%
D21*
%TO.C,R56*%
X4064000Y66675000D03*
X4064000Y68675000D03*
%TD*%
%TO.C,R5*%
X26924000Y38624000D03*
X26924000Y40624000D03*
%TD*%
D20*
%TO.C,R46*%
X6636000Y35941000D03*
X8636000Y35941000D03*
%TD*%
D29*
%TO.C,C6*%
X14202500Y33528000D03*
X16277500Y33528000D03*
%TD*%
D26*
%TO.C,R11*%
X20828000Y41767000D03*
X20828000Y39767000D03*
%TD*%
D20*
%TO.C,R18*%
X4207000Y51689000D03*
X6207000Y51689000D03*
%TD*%
D23*
%TO.C,R47*%
X9890000Y33401000D03*
X7890000Y33401000D03*
%TD*%
D26*
%TO.C,R35*%
X22225000Y30210000D03*
X22225000Y28210000D03*
%TD*%
D21*
%TO.C,R4*%
X24892000Y38624000D03*
X24892000Y40624000D03*
%TD*%
%TO.C,R2*%
X17780000Y24527000D03*
X17780000Y26527000D03*
%TD*%
D30*
%TO.C,M2*%
X11812000Y75106000D03*
X27812000Y75106000D03*
D31*
X27412000Y59451000D03*
D32*
X27562000Y47006000D03*
D33*
X22352000Y46906000D03*
X19812000Y46906000D03*
D32*
X12062000Y47006000D03*
D33*
X17272000Y46906000D03*
D31*
X27412000Y64531000D03*
%TD*%
D23*
%TO.C,R24*%
X8096000Y47244000D03*
X6096000Y47244000D03*
%TD*%
D34*
%TO.C,C2*%
X27686000Y34649500D03*
X27686000Y36724500D03*
%TD*%
D23*
%TO.C,R48*%
X25765000Y6604000D03*
X23765000Y6604000D03*
%TD*%
D26*
%TO.C,R23*%
X9271000Y57388000D03*
X9271000Y55388000D03*
%TD*%
D23*
%TO.C,R43*%
X19018000Y12319000D03*
X17018000Y12319000D03*
%TD*%
D35*
%TO.C,TP2*%
X8128000Y41656000D03*
%TD*%
D23*
%TO.C,R16*%
X8096000Y45085000D03*
X6096000Y45085000D03*
%TD*%
D26*
%TO.C,R34*%
X24130000Y30210000D03*
X24130000Y28210000D03*
%TD*%
%TO.C,R32*%
X14351000Y37719000D03*
X14351000Y35719000D03*
%TD*%
D23*
%TO.C,R49*%
X25765000Y8763000D03*
X23765000Y8763000D03*
%TD*%
D21*
%TO.C,R33*%
X26035000Y28210000D03*
X26035000Y30210000D03*
%TD*%
D27*
%TO.C,J5*%
X28828600Y24336000D03*
X28828600Y22336000D03*
X28828600Y20336000D03*
X28828600Y18336000D03*
D28*
X33278600Y26686000D03*
X33278600Y15986000D03*
%TD*%
D20*
%TO.C,R19*%
X4207000Y49530000D03*
X6207000Y49530000D03*
%TD*%
D23*
%TO.C,R41*%
X19018000Y19939000D03*
X17018000Y19939000D03*
%TD*%
D36*
%TO.C,C5*%
X16510000Y37740500D03*
X16510000Y35665500D03*
%TD*%
D20*
%TO.C,R17*%
X4207000Y53848000D03*
X6207000Y53848000D03*
%TD*%
D21*
%TO.C,R54*%
X8382000Y66675000D03*
X8382000Y68675000D03*
%TD*%
D37*
%TO.C,M1*%
X14352000Y19886000D03*
D38*
X14352000Y17346000D03*
X14352000Y14806000D03*
X14352000Y12266000D03*
X14352000Y9726000D03*
X14352000Y7186000D03*
X14352000Y4646000D03*
D39*
X4952000Y30226000D03*
%TD*%
D20*
%TO.C,R9*%
X20447000Y35941000D03*
X22447000Y35941000D03*
%TD*%
D23*
%TO.C,R45*%
X21050000Y5080000D03*
X19050000Y5080000D03*
%TD*%
M02*
