%TF.GenerationSoftware,KiCad,Pcbnew,9.99.0-86-g03af293683*%
%TF.CreationDate,2025-02-25T09:18:42+01:00*%
%TF.ProjectId,RemBrake,52656d42-7261-46b6-952e-6b696361645f,2.0*%
%TF.SameCoordinates,PX7270e00PY8583b00*%
%TF.FileFunction,Soldermask,Top*%
%TF.FilePolarity,Negative*%
%FSLAX46Y46*%
G04 Gerber Fmt 4.6, Leading zero omitted, Abs format (unit mm)*
G04 Created by KiCad (PCBNEW 9.99.0-86-g03af293683) date 2025-02-25 09:18:42*
%MOMM*%
%LPD*%
G01*
G04 APERTURE LIST*
G04 Aperture macros list*
%AMRoundRect*
0 Rectangle with rounded corners*
0 $1 Rounding radius*
0 $2 $3 $4 $5 $6 $7 $8 $9 X,Y pos of 4 corners*
0 Add a 4 corners polygon primitive as box body*
4,1,4,$2,$3,$4,$5,$6,$7,$8,$9,$2,$3,0*
0 Add four circle primitives for the rounded corners*
1,1,$1+$1,$2,$3*
1,1,$1+$1,$4,$5*
1,1,$1+$1,$6,$7*
1,1,$1+$1,$8,$9*
0 Add four rect primitives between the rounded corners*
20,1,$1+$1,$2,$3,$4,$5,0*
20,1,$1+$1,$4,$5,$6,$7,0*
20,1,$1+$1,$6,$7,$8,$9,0*
20,1,$1+$1,$8,$9,$2,$3,0*%
%AMFreePoly0*
4,1,21,1.372500,0.787500,0.862500,0.787500,0.862500,0.532500,1.372500,0.532500,1.372500,0.127500,0.862500,0.127500,0.862500,-0.127500,1.372500,-0.127500,1.372500,-0.532500,0.862500,-0.532500,0.862500,-0.787500,1.372500,-0.787500,1.372500,-1.195000,0.612500,-1.195000,0.612500,-1.117500,-0.862500,-1.117500,-0.862500,1.117500,0.612500,1.117500,0.612500,1.195000,1.372500,1.195000,
1.372500,0.787500,1.372500,0.787500,$1*%
G04 Aperture macros list end*
%ADD10R,1.500000X1.500000*%
%ADD11RoundRect,0.150000X-0.150000X0.587500X-0.150000X-0.587500X0.150000X-0.587500X0.150000X0.587500X0*%
%ADD12R,1.050000X1.500000*%
%ADD13O,1.050000X1.500000*%
%ADD14RoundRect,0.250000X0.350000X0.450000X-0.350000X0.450000X-0.350000X-0.450000X0.350000X-0.450000X0*%
%ADD15RoundRect,0.150000X-0.150000X0.512500X-0.150000X-0.512500X0.150000X-0.512500X0.150000X0.512500X0*%
%ADD16RoundRect,0.250000X-0.450000X0.350000X-0.450000X-0.350000X0.450000X-0.350000X0.450000X0.350000X0*%
%ADD17RoundRect,0.225000X-0.225000X-0.375000X0.225000X-0.375000X0.225000X0.375000X-0.225000X0.375000X0*%
%ADD18R,0.405000X0.990000*%
%ADD19FreePoly0,90.000000*%
%ADD20RoundRect,0.250000X0.475000X-0.337500X0.475000X0.337500X-0.475000X0.337500X-0.475000X-0.337500X0*%
%ADD21RoundRect,0.250000X0.337500X0.475000X-0.337500X0.475000X-0.337500X-0.475000X0.337500X-0.475000X0*%
%ADD22RoundRect,0.150000X0.150000X-0.587500X0.150000X0.587500X-0.150000X0.587500X-0.150000X-0.587500X0*%
%ADD23R,2.200000X2.200000*%
%ADD24C,2.200000*%
%ADD25RoundRect,0.250000X-0.350000X-0.450000X0.350000X-0.450000X0.350000X0.450000X-0.350000X0.450000X0*%
%ADD26RoundRect,0.250001X-0.462499X-0.624999X0.462499X-0.624999X0.462499X0.624999X-0.462499X0.624999X0*%
%ADD27RoundRect,0.250000X1.100000X-0.250000X1.100000X0.250000X-1.100000X0.250000X-1.100000X-0.250000X0*%
%ADD28RoundRect,0.250000X1.650000X-0.650000X1.650000X0.650000X-1.650000X0.650000X-1.650000X-0.650000X0*%
%ADD29RoundRect,0.250000X0.450000X-0.350000X0.450000X0.350000X-0.450000X0.350000X-0.450000X-0.350000X0*%
%ADD30RoundRect,0.250000X-0.475000X0.337500X-0.475000X-0.337500X0.475000X-0.337500X0.475000X0.337500X0*%
%ADD31R,2.600000X2.600000*%
%ADD32C,2.600000*%
%ADD33R,1.900000X1.000000*%
%ADD34RoundRect,0.250000X-0.337500X-0.475000X0.337500X-0.475000X0.337500X0.475000X-0.337500X0.475000X0*%
%ADD35RoundRect,0.250001X-0.624999X0.462499X-0.624999X-0.462499X0.624999X-0.462499X0.624999X0.462499X0*%
%ADD36RoundRect,0.062500X-0.350000X-0.062500X0.350000X-0.062500X0.350000X0.062500X-0.350000X0.062500X0*%
%ADD37RoundRect,0.062500X-0.062500X-0.350000X0.062500X-0.350000X0.062500X0.350000X-0.062500X0.350000X0*%
%ADD38R,1.680000X1.680000*%
%ADD39R,0.250000X0.700000*%
%ADD40R,2.380000X1.660000*%
%ADD41R,1.500000X1.050000*%
%ADD42O,1.500000X1.050000*%
%ADD43RoundRect,0.250000X2.000000X-0.400000X2.000000X0.400000X-2.000000X0.400000X-2.000000X-0.400000X0*%
%ADD44RoundRect,0.250000X1.700000X-0.650000X1.700000X0.650000X-1.700000X0.650000X-1.700000X-0.650000X0*%
%ADD45RoundRect,0.249999X-1.425001X0.450001X-1.425001X-0.450001X1.425001X-0.450001X1.425001X0.450001X0*%
%ADD46R,1.000000X2.510000*%
%ADD47RoundRect,0.150000X0.512500X0.150000X-0.512500X0.150000X-0.512500X-0.150000X0.512500X-0.150000X0*%
%ADD48R,1.600000X1.600000*%
%ADD49O,1.600000X1.600000*%
%ADD50RoundRect,0.250001X0.462499X0.849999X-0.462499X0.849999X-0.462499X-0.849999X0.462499X-0.849999X0*%
G04 APERTURE END LIST*
D10*
%TO.C,TP3*%
X29210000Y31623000D03*
%TD*%
D11*
%TO.C,Q5*%
X8570000Y47595000D03*
X6670000Y47595000D03*
X7620000Y45720000D03*
%TD*%
D12*
%TO.C,Q2*%
X23368000Y42418000D03*
D13*
X24638000Y42418000D03*
X25908000Y42418000D03*
%TD*%
D14*
%TO.C,R51*%
X22717000Y61722000D03*
X20717000Y61722000D03*
%TD*%
D15*
%TO.C,U4*%
X16444000Y28188500D03*
X15494000Y28188500D03*
X14544000Y28188500D03*
X14544000Y25913500D03*
X16444000Y25913500D03*
%TD*%
D16*
%TO.C,R60*%
X4191000Y75898000D03*
X4191000Y73898000D03*
%TD*%
D17*
%TO.C,D2*%
X16343000Y39116000D03*
X19643000Y39116000D03*
%TD*%
D14*
%TO.C,R28*%
X20939000Y42037000D03*
X18939000Y42037000D03*
%TD*%
D18*
%TO.C,Q1*%
X22520000Y51970500D03*
X23180000Y51970500D03*
X23840000Y51970500D03*
X24500000Y51970500D03*
D19*
X23510000Y53963000D03*
%TD*%
D20*
%TO.C,C1*%
X28702000Y35792500D03*
X28702000Y37867500D03*
%TD*%
D15*
%TO.C,U6*%
X23683000Y75559500D03*
X22733000Y75559500D03*
X21783000Y75559500D03*
X21783000Y73284500D03*
X23683000Y73284500D03*
%TD*%
D21*
%TO.C,C11*%
X20505000Y54991000D03*
X18430000Y54991000D03*
%TD*%
D10*
%TO.C,TP4*%
X18592800Y62022000D03*
%TD*%
D14*
%TO.C,R21*%
X9382000Y57658000D03*
X7382000Y57658000D03*
%TD*%
D22*
%TO.C,Q7*%
X24130000Y29415500D03*
X26030000Y29415500D03*
X25080000Y31290500D03*
%TD*%
D23*
%TO.C,J3*%
X33416000Y35245400D03*
D24*
X33416000Y37785400D03*
X33416000Y40325400D03*
X33416000Y42865400D03*
%TD*%
D25*
%TO.C,R14*%
X22130000Y48006000D03*
X24130000Y48006000D03*
%TD*%
D15*
%TO.C,U3*%
X16444000Y34538500D03*
X15494000Y34538500D03*
X14544000Y34538500D03*
X14544000Y32263500D03*
X16444000Y32263500D03*
%TD*%
D26*
%TO.C,F2*%
X18466500Y64562000D03*
X21441500Y64562000D03*
%TD*%
D25*
%TO.C,R7*%
X20209000Y33147000D03*
X22209000Y33147000D03*
%TD*%
D27*
%TO.C,J4*%
X28829000Y6858000D03*
X28829000Y8858000D03*
X28829000Y10858000D03*
X28829000Y12858000D03*
X28829000Y14858000D03*
X28829000Y16858000D03*
X28829000Y18858000D03*
X28829000Y20858000D03*
D28*
X33279000Y4508000D03*
X33279000Y23208000D03*
%TD*%
D29*
%TO.C,R59*%
X8382000Y65024000D03*
X8382000Y67024000D03*
%TD*%
D21*
%TO.C,C4*%
X17547500Y30226000D03*
X15472500Y30226000D03*
%TD*%
D22*
%TO.C,Q9*%
X6223000Y73974000D03*
X8123000Y73974000D03*
X7173000Y75849000D03*
%TD*%
D14*
%TO.C,R58*%
X17113000Y16510000D03*
X15113000Y16510000D03*
%TD*%
D30*
%TO.C,C7*%
X12827000Y16531500D03*
X12827000Y14456500D03*
%TD*%
D20*
%TO.C,C8*%
X12827000Y10414000D03*
X12827000Y12489000D03*
%TD*%
D14*
%TO.C,R27*%
X16240000Y75692000D03*
X14240000Y75692000D03*
%TD*%
D31*
%TO.C,J1*%
X31892200Y54797600D03*
D32*
X31892200Y59797600D03*
%TD*%
D12*
%TO.C,Q6*%
X25400000Y26268000D03*
D13*
X24130000Y26268000D03*
X22860000Y26268000D03*
%TD*%
D10*
%TO.C,TP1*%
X19812000Y30861000D03*
%TD*%
D33*
%TO.C,J7*%
X4715000Y20620000D03*
X8015000Y18080000D03*
X4715000Y15540000D03*
X8015000Y13000000D03*
X4715000Y10460000D03*
X8015000Y7920000D03*
X4715000Y5380000D03*
%TD*%
D21*
%TO.C,C9*%
X17145000Y12446000D03*
X15070000Y12446000D03*
%TD*%
D34*
%TO.C,C3*%
X22076500Y38608000D03*
X24151500Y38608000D03*
%TD*%
D16*
%TO.C,R26*%
X4699000Y47720000D03*
X4699000Y45720000D03*
%TD*%
D35*
%TO.C,F1*%
X24765000Y61812500D03*
X24765000Y58837500D03*
%TD*%
D16*
%TO.C,R37*%
X28956000Y28178000D03*
X28956000Y26178000D03*
%TD*%
D25*
%TO.C,R12*%
X22130000Y46101000D03*
X24130000Y46101000D03*
%TD*%
D36*
%TO.C,U1*%
X23937500Y35675000D03*
X23937500Y35175000D03*
X23937500Y34675000D03*
X23937500Y34175000D03*
D37*
X24650000Y33462500D03*
X25150000Y33462500D03*
X25650000Y33462500D03*
X26150000Y33462500D03*
D36*
X26862500Y34175000D03*
X26862500Y34675000D03*
X26862500Y35175000D03*
X26862500Y35675000D03*
D37*
X26150000Y36387500D03*
X25650000Y36387500D03*
X25150000Y36387500D03*
X24650000Y36387500D03*
D38*
X25400000Y34925000D03*
%TD*%
D29*
%TO.C,R62*%
X4064000Y65024000D03*
X4064000Y67024000D03*
%TD*%
%TO.C,R6*%
X26289000Y45990000D03*
X26289000Y47990000D03*
%TD*%
D21*
%TO.C,C10*%
X17145000Y14478000D03*
X15070000Y14478000D03*
%TD*%
D14*
%TO.C,R15*%
X16494000Y36576000D03*
X14494000Y36576000D03*
%TD*%
D39*
%TO.C,IC1*%
X18696000Y57066000D03*
X19196000Y57066000D03*
X19696000Y57066000D03*
X20196000Y57066000D03*
X20196000Y59866000D03*
X19696000Y59866000D03*
X19196000Y59866000D03*
X18696000Y59866000D03*
D40*
X19446000Y58466000D03*
%TD*%
D25*
%TO.C,R1*%
X22130000Y49911000D03*
X24130000Y49911000D03*
%TD*%
D15*
%TO.C,U7*%
X16129000Y73654500D03*
X15179000Y73654500D03*
X14229000Y73654500D03*
X14229000Y71379500D03*
X16129000Y71379500D03*
%TD*%
D14*
%TO.C,R22*%
X9382000Y55499000D03*
X7382000Y55499000D03*
%TD*%
%TO.C,R29*%
X22733000Y71247000D03*
X20733000Y71247000D03*
%TD*%
D16*
%TO.C,R36*%
X22098000Y31226000D03*
X22098000Y29226000D03*
%TD*%
D41*
%TO.C,Q4*%
X8382000Y52959000D03*
D42*
X8382000Y51689000D03*
X8382000Y50419000D03*
%TD*%
D29*
%TO.C,R20*%
X9398000Y59706000D03*
X9398000Y61706000D03*
%TD*%
D43*
%TO.C,J2*%
X27727600Y67396000D03*
X27727600Y69896000D03*
X27727600Y72396000D03*
D44*
X34527600Y64196000D03*
X34527600Y75596000D03*
%TD*%
D25*
%TO.C,R30*%
X15113000Y18542000D03*
X17113000Y18542000D03*
%TD*%
D45*
%TO.C,R53*%
X15382000Y61262000D03*
X15382000Y55162000D03*
%TD*%
D46*
%TO.C,J9*%
X30114000Y46672400D03*
X32654000Y49982400D03*
X35194000Y46672400D03*
%TD*%
D47*
%TO.C,U2*%
X7233500Y59756000D03*
X7233500Y60706000D03*
X7233500Y61656000D03*
X4958500Y61656000D03*
X4958500Y59756000D03*
%TD*%
D16*
%TO.C,R52*%
X32385000Y32258000D03*
X32385000Y30258000D03*
%TD*%
D14*
%TO.C,R25*%
X12176000Y75692000D03*
X10176000Y75692000D03*
%TD*%
D29*
%TO.C,R8*%
X28321000Y41799000D03*
X28321000Y43799000D03*
%TD*%
D48*
%TO.C,U5*%
X4318000Y41656000D03*
D49*
X4318000Y39116000D03*
X4318000Y36576000D03*
X4318000Y34036000D03*
X11938000Y34036000D03*
X11938000Y36576000D03*
X11938000Y39116000D03*
X11938000Y41656000D03*
%TD*%
D12*
%TO.C,Q8*%
X7493000Y70769000D03*
D13*
X6223000Y70769000D03*
X4953000Y70769000D03*
%TD*%
D16*
%TO.C,R50*%
X35306000Y32258000D03*
X35306000Y30258000D03*
%TD*%
D29*
%TO.C,R61*%
X20828000Y67326000D03*
X20828000Y69326000D03*
%TD*%
D33*
%TO.C,J8*%
X19955000Y20620000D03*
X23255000Y18080000D03*
X19955000Y15540000D03*
X23255000Y13000000D03*
X19955000Y10460000D03*
X23255000Y7920000D03*
X19955000Y5380000D03*
%TD*%
D50*
%TO.C,L1*%
X22137000Y35687000D03*
X19812000Y35687000D03*
%TD*%
D29*
%TO.C,R57*%
X6223000Y65024000D03*
X6223000Y67024000D03*
%TD*%
%TO.C,R63*%
X19812000Y73565000D03*
X19812000Y75565000D03*
%TD*%
M02*
