%TF.GenerationSoftware,KiCad,Pcbnew,9.0.0-rc1-104-g6c47f32ccf*%
%TF.CreationDate,2025-01-02T15:15:32+01:00*%
%TF.ProjectId,breakoutpcbs,62726561-6b6f-4757-9470-6362732e6b69,rev?*%
%TF.SameCoordinates,PX6d3f490PY8024330*%
%TF.FileFunction,Copper,L1,Top*%
%TF.FilePolarity,Positive*%
%FSLAX46Y46*%
G04 Gerber Fmt 4.6, Leading zero omitted, Abs format (unit mm)*
G04 Created by KiCad (PCBNEW 9.0.0-rc1-104-g6c47f32ccf) date 2025-01-02 15:15:32*
%MOMM*%
%LPD*%
G01*
G04 APERTURE LIST*
G04 Aperture macros list*
%AMRoundRect*
0 Rectangle with rounded corners*
0 $1 Rounding radius*
0 $2 $3 $4 $5 $6 $7 $8 $9 X,Y pos of 4 corners*
0 Add a 4 corners polygon primitive as box body*
4,1,4,$2,$3,$4,$5,$6,$7,$8,$9,$2,$3,0*
0 Add four circle primitives for the rounded corners*
1,1,$1+$1,$2,$3*
1,1,$1+$1,$4,$5*
1,1,$1+$1,$6,$7*
1,1,$1+$1,$8,$9*
0 Add four rect primitives between the rounded corners*
20,1,$1+$1,$2,$3,$4,$5,0*
20,1,$1+$1,$4,$5,$6,$7,0*
20,1,$1+$1,$6,$7,$8,$9,0*
20,1,$1+$1,$8,$9,$2,$3,0*%
%AMFreePoly0*
4,1,21,1.372500,0.787500,0.862500,0.787500,0.862500,0.532500,1.372500,0.532500,1.372500,0.127500,0.862500,0.127500,0.862500,-0.127500,1.372500,-0.127500,1.372500,-0.532500,0.862500,-0.532500,0.862500,-0.787500,1.372500,-0.787500,1.372500,-1.195000,0.612500,-1.195000,0.612500,-1.117500,-0.862500,-1.117500,-0.862500,1.117500,0.612500,1.117500,0.612500,1.195000,1.372500,1.195000,
1.372500,0.787500,1.372500,0.787500,$1*%
G04 Aperture macros list end*
%TA.AperFunction,SMDPad,CuDef*%
%ADD10RoundRect,0.250000X0.450000X-0.350000X0.450000X0.350000X-0.450000X0.350000X-0.450000X-0.350000X0*%
%TD*%
%TA.AperFunction,SMDPad,CuDef*%
%ADD11RoundRect,0.250000X-0.450000X0.350000X-0.450000X-0.350000X0.450000X-0.350000X0.450000X0.350000X0*%
%TD*%
%TA.AperFunction,SMDPad,CuDef*%
%ADD12R,3.150000X1.000000*%
%TD*%
%TA.AperFunction,SMDPad,CuDef*%
%ADD13R,1.000000X2.510000*%
%TD*%
%TA.AperFunction,SMDPad,CuDef*%
%ADD14RoundRect,0.250000X-0.350000X-0.450000X0.350000X-0.450000X0.350000X0.450000X-0.350000X0.450000X0*%
%TD*%
%TA.AperFunction,SMDPad,CuDef*%
%ADD15RoundRect,0.250000X-0.312500X-0.625000X0.312500X-0.625000X0.312500X0.625000X-0.312500X0.625000X0*%
%TD*%
%TA.AperFunction,SMDPad,CuDef*%
%ADD16RoundRect,0.150000X-0.587500X-0.150000X0.587500X-0.150000X0.587500X0.150000X-0.587500X0.150000X0*%
%TD*%
%TA.AperFunction,ComponentPad*%
%ADD17R,1.500000X1.050000*%
%TD*%
%TA.AperFunction,ComponentPad*%
%ADD18O,1.500000X1.050000*%
%TD*%
%TA.AperFunction,SMDPad,CuDef*%
%ADD19RoundRect,0.150000X-0.150000X0.512500X-0.150000X-0.512500X0.150000X-0.512500X0.150000X0.512500X0*%
%TD*%
%TA.AperFunction,SMDPad,CuDef*%
%ADD20R,0.405000X0.990000*%
%TD*%
%TA.AperFunction,SMDPad,CuDef*%
%ADD21FreePoly0,270.000000*%
%TD*%
%TA.AperFunction,SMDPad,CuDef*%
%ADD22RoundRect,0.250000X0.350000X0.450000X-0.350000X0.450000X-0.350000X-0.450000X0.350000X-0.450000X0*%
%TD*%
G04 APERTURE END LIST*
D10*
%TO.P,R11,1*%
%TO.N,Net-(U6-VDD)*%
X10642000Y9358500D03*
%TO.P,R11,2*%
%TO.N,/power_switch_bbA/ONOFF*%
X10642000Y11358500D03*
%TD*%
D11*
%TO.P,R19,1*%
%TO.N,/power_switch_bbA/VBATT*%
X26136000Y11358500D03*
%TO.P,R19,2*%
%TO.N,Net-(Q6-G)*%
X26136000Y9358500D03*
%TD*%
%TO.P,R16,1*%
%TO.N,Net-(Q3-C)*%
X14812000Y12882500D03*
%TO.P,R16,2*%
%TO.N,Net-(U6-VOUT)*%
X14812000Y10882500D03*
%TD*%
%TO.P,R24,1*%
%TO.N,Net-(R24-Pad1)*%
X16844000Y15748000D03*
%TO.P,R24,2*%
%TO.N,Net-(U6-VOUT)*%
X16844000Y13748000D03*
%TD*%
%TO.P,R21,1*%
%TO.N,Net-(R21-Pad1)*%
X9144000Y17002000D03*
%TO.P,R21,2*%
%TO.N,Net-(Q3-B)*%
X9144000Y15002000D03*
%TD*%
D10*
%TO.P,R15,1*%
%TO.N,Net-(U6-VOUT)*%
X12780000Y9358500D03*
%TO.P,R15,2*%
%TO.N,/power_switch_bbA/ONOFF*%
X12780000Y11358500D03*
%TD*%
D12*
%TO.P,J8,1,Pin_1*%
%TO.N,/power_switch_bbA/ONOFF*%
X12939000Y2032000D03*
%TO.P,J8,2,Pin_2*%
X7889000Y2032000D03*
%TD*%
D10*
%TO.P,R25,1*%
%TO.N,/power_switch_bbA/EN1*%
X21336000Y13732000D03*
%TO.P,R25,2*%
%TO.N,Net-(R21-Pad1)*%
X21336000Y15732000D03*
%TD*%
D13*
%TO.P,J5,1,Pin_1*%
%TO.N,/power_switch_bbA/EN1*%
X24638000Y14601000D03*
%TO.P,J5,2,Pin_2*%
%TO.N,/power_switch_bbA/VBATT*%
X27178000Y17911000D03*
%TO.P,J5,3,Pin_3*%
%TO.N,GND1*%
X29718000Y14601000D03*
%TD*%
D11*
%TO.P,R13,1*%
%TO.N,GND1*%
X4572000Y17002000D03*
%TO.P,R13,2*%
%TO.N,Net-(Q4-E)*%
X4572000Y15002000D03*
%TD*%
D14*
%TO.P,R18,1*%
%TO.N,Net-(U6-VOUT)*%
X16754000Y11628500D03*
%TO.P,R18,2*%
%TO.N,Net-(Q5-E)*%
X18754000Y11628500D03*
%TD*%
D10*
%TO.P,R12,1*%
%TO.N,GND1*%
X8462000Y5802500D03*
%TO.P,R12,2*%
%TO.N,Net-(U6-VDD)*%
X8462000Y7802500D03*
%TD*%
D15*
%TO.P,R28,1*%
%TO.N,Net-(R21-Pad1)*%
X11237500Y15240000D03*
%TO.P,R28,2*%
%TO.N,Net-(R24-Pad1)*%
X14162500Y15240000D03*
%TD*%
D16*
%TO.P,Q3,1,B*%
%TO.N,Net-(Q3-B)*%
X3205000Y7808000D03*
%TO.P,Q3,2,E*%
%TO.N,GND1*%
X3205000Y5908000D03*
%TO.P,Q3,3,C*%
%TO.N,Net-(Q3-C)*%
X5080000Y6858000D03*
%TD*%
D10*
%TO.P,R23,1*%
%TO.N,Net-(Q5-C)*%
X26136000Y5310500D03*
%TO.P,R23,2*%
%TO.N,Net-(Q6-G)*%
X26136000Y7310500D03*
%TD*%
D11*
%TO.P,R22,1*%
%TO.N,Net-(R21-Pad1)*%
X6858000Y17002000D03*
%TO.P,R22,2*%
%TO.N,Net-(Q4-E)*%
X6858000Y15002000D03*
%TD*%
D17*
%TO.P,Q4,1,C*%
%TO.N,Net-(Q3-C)*%
X6202000Y10160000D03*
D18*
%TO.P,Q4,2,B*%
%TO.N,Net-(Q3-B)*%
X6202000Y11430000D03*
%TO.P,Q4,3,E*%
%TO.N,Net-(Q4-E)*%
X6202000Y12700000D03*
%TD*%
D19*
%TO.P,U6,1,VOUT*%
%TO.N,Net-(U6-VOUT)*%
X12354000Y7178000D03*
%TO.P,U6,2,VDD*%
%TO.N,Net-(U6-VDD)*%
X11404000Y7178000D03*
%TO.P,U6,3,GND*%
%TO.N,GND1*%
X10454000Y7178000D03*
%TO.P,U6,4*%
%TO.N,N/C*%
X10454000Y4903000D03*
%TO.P,U6,5*%
X12354000Y4903000D03*
%TD*%
D10*
%TO.P,R26,1*%
%TO.N,GND1*%
X14452000Y5294500D03*
%TO.P,R26,2*%
%TO.N,Net-(Q5-B)*%
X14452000Y7294500D03*
%TD*%
D14*
%TO.P,R17,1*%
%TO.N,Net-(U6-VOUT)*%
X16754000Y9342500D03*
%TO.P,R17,2*%
%TO.N,Net-(Q5-B)*%
X18754000Y9342500D03*
%TD*%
D20*
%TO.P,Q6,1,S*%
%TO.N,/power_switch_bbA/VBATT*%
X30200000Y8850500D03*
%TO.P,Q6,2,S*%
X29540000Y8850500D03*
%TO.P,Q6,3,S*%
X28880000Y8850500D03*
%TO.P,Q6,4,G*%
%TO.N,Net-(Q6-G)*%
X28220000Y8850500D03*
D21*
%TO.P,Q6,5,D*%
%TO.N,+7.5V*%
X29210000Y6858000D03*
%TD*%
D11*
%TO.P,R14,1*%
%TO.N,GND1*%
X2286000Y13700000D03*
%TO.P,R14,2*%
%TO.N,Net-(Q3-B)*%
X2286000Y11700000D03*
%TD*%
D17*
%TO.P,Q5,1,C*%
%TO.N,Net-(Q5-C)*%
X22686000Y6040500D03*
D18*
%TO.P,Q5,2,B*%
%TO.N,Net-(Q5-B)*%
X22686000Y7310500D03*
%TO.P,Q5,3,E*%
%TO.N,Net-(Q5-E)*%
X22686000Y8580500D03*
%TD*%
D10*
%TO.P,R20,1*%
%TO.N,/power_switch_bbA/EN1*%
X19050000Y13732000D03*
%TO.P,R20,2*%
%TO.N,Net-(Q3-C)*%
X19050000Y15732000D03*
%TD*%
D22*
%TO.P,R27,1*%
%TO.N,GND1*%
X22606000Y11628500D03*
%TO.P,R27,2*%
%TO.N,Net-(Q5-E)*%
X20606000Y11628500D03*
%TD*%
D12*
%TO.P,J7,1,Pin_1*%
%TO.N,+7.5V*%
X27910000Y2540000D03*
%TO.P,J7,2,Pin_2*%
%TO.N,GND1*%
X22860000Y2540000D03*
%TD*%
D16*
%TO.P,Q7,1,B*%
%TO.N,Net-(Q5-B)*%
X16738000Y7178500D03*
%TO.P,Q7,2,E*%
%TO.N,GND1*%
X16738000Y5278500D03*
%TO.P,Q7,3,C*%
%TO.N,Net-(Q5-C)*%
X18613000Y6228500D03*
%TD*%
%TA.AperFunction,Conductor*%
%TO.N,Net-(Q5-C)*%
G36*
X26867039Y6330315D02*
G01*
X26912794Y6277511D01*
X26924000Y6226000D01*
X26924000Y4640500D01*
X26904315Y4573461D01*
X26851511Y4527706D01*
X26800000Y4516500D01*
X17650000Y4516500D01*
X17641314Y4519051D01*
X17632353Y4517762D01*
X17608312Y4528741D01*
X17582961Y4536185D01*
X17577033Y4543026D01*
X17568797Y4546787D01*
X17554507Y4569022D01*
X17537206Y4588989D01*
X17534918Y4599504D01*
X17531023Y4605565D01*
X17526000Y4640500D01*
X17526000Y4781957D01*
X17545685Y4848996D01*
X17562314Y4869634D01*
X17614698Y4922017D01*
X17666073Y5027107D01*
X17676000Y5095240D01*
X17676000Y5461760D01*
X17666073Y5529893D01*
X17614698Y5634983D01*
X17614696Y5634985D01*
X17614696Y5634986D01*
X17562319Y5687363D01*
X17528834Y5748686D01*
X17526000Y5775044D01*
X17526000Y6226000D01*
X17545685Y6293039D01*
X17598489Y6338794D01*
X17650000Y6350000D01*
X26800000Y6350000D01*
X26867039Y6330315D01*
G37*
%TD.AperFunction*%
%TD*%
%TA.AperFunction,Conductor*%
%TO.N,Net-(R21-Pad1)*%
G36*
X22295039Y19030315D02*
G01*
X22340794Y18977511D01*
X22352000Y18926000D01*
X22352000Y16507614D01*
X22332315Y16440575D01*
X22294501Y16405724D01*
X22295656Y16404043D01*
X22289917Y16400102D01*
X22237104Y16354340D01*
X22219160Y16336758D01*
X22219154Y16336751D01*
X22174511Y16256941D01*
X22174509Y16256936D01*
X22154826Y16189904D01*
X22154825Y16189899D01*
X22154825Y16189898D01*
X22146909Y16134840D01*
X22146500Y16131997D01*
X22146500Y15061500D01*
X22126815Y14994461D01*
X22074011Y14948706D01*
X22022500Y14937500D01*
X20395500Y14937500D01*
X20328461Y14957185D01*
X20282706Y15009989D01*
X20271500Y15061500D01*
X20271500Y17909992D01*
X20271499Y17910008D01*
X20266803Y17953684D01*
X20262897Y17971636D01*
X20255602Y18005175D01*
X20255348Y18006211D01*
X20253110Y18015373D01*
X20210100Y18096085D01*
X20164345Y18148889D01*
X20164339Y18148896D01*
X20146757Y18166840D01*
X20146756Y18166841D01*
X20146754Y18166843D01*
X20146752Y18166844D01*
X20146750Y18166846D01*
X20066940Y18211489D01*
X20066935Y18211491D01*
X19999903Y18231174D01*
X19999899Y18231175D01*
X19999898Y18231175D01*
X19942000Y18239500D01*
X12062000Y18239500D01*
X12061992Y18239500D01*
X12018313Y18234803D01*
X11966825Y18223603D01*
X11956627Y18221110D01*
X11956624Y18221109D01*
X11875916Y18178101D01*
X11875913Y18178099D01*
X11823104Y18132340D01*
X11805160Y18114758D01*
X11805154Y18114751D01*
X11760511Y18034941D01*
X11760509Y18034936D01*
X11740826Y17967904D01*
X11740825Y17967899D01*
X11740825Y17967898D01*
X11732502Y17910008D01*
X11732500Y17909997D01*
X11732500Y16136624D01*
X11738542Y16087162D01*
X11740231Y16080350D01*
X11752542Y16030705D01*
X11752541Y16030704D01*
X11757547Y16010521D01*
X11757771Y16010277D01*
X11763564Y15996459D01*
X11775009Y15963744D01*
X11775022Y15963719D01*
X11788040Y15926519D01*
X11795000Y15885561D01*
X11795000Y14594443D01*
X11794305Y14590354D01*
X11794839Y14588120D01*
X11788041Y14553487D01*
X11775009Y14516245D01*
X11774994Y14516225D01*
X11763553Y14483514D01*
X11759696Y14478136D01*
X11756277Y14464350D01*
X11752966Y14453246D01*
X11749802Y14444205D01*
X11750015Y14442911D01*
X11747313Y14428273D01*
X11740267Y14399797D01*
X11740258Y14399783D01*
X11740252Y14399735D01*
X11738542Y14392842D01*
X11732500Y14343377D01*
X11732323Y14340467D01*
X11732053Y14339721D01*
X11732043Y14339635D01*
X11732023Y14339638D01*
X11708602Y14274747D01*
X11653116Y14232285D01*
X11608552Y14224000D01*
X10538000Y14224000D01*
X10470961Y14243685D01*
X10425206Y14296489D01*
X10414000Y14348000D01*
X10414000Y16002000D01*
X10157613Y16002000D01*
X10090574Y16021685D01*
X10055723Y16059504D01*
X10054040Y16058347D01*
X10050102Y16064081D01*
X10050100Y16064085D01*
X10004345Y16116889D01*
X10004339Y16116896D01*
X9986757Y16134840D01*
X9986756Y16134841D01*
X9986754Y16134843D01*
X9986752Y16134844D01*
X9986750Y16134846D01*
X9906940Y16179489D01*
X9906935Y16179491D01*
X9839903Y16199174D01*
X9839899Y16199175D01*
X9839898Y16199175D01*
X9782000Y16207500D01*
X7544215Y16207500D01*
X7491362Y16200588D01*
X7429773Y16184198D01*
X7429740Y16184188D01*
X7429733Y16184186D01*
X7429730Y16184185D01*
X7426743Y16183233D01*
X7410769Y16178142D01*
X7410767Y16178141D01*
X7334338Y16127915D01*
X7285946Y16077508D01*
X7263941Y16051584D01*
X7262537Y16052776D01*
X7218413Y16013741D01*
X7165745Y16002000D01*
X6220000Y16002000D01*
X6152961Y16021685D01*
X6107206Y16074489D01*
X6096000Y16126000D01*
X6096000Y18926000D01*
X6115685Y18993039D01*
X6168489Y19038794D01*
X6220000Y19050000D01*
X22228000Y19050000D01*
X22295039Y19030315D01*
G37*
%TD.AperFunction*%
%TD*%
%TA.AperFunction,Conductor*%
%TO.N,Net-(Q3-C)*%
G36*
X20009039Y18014315D02*
G01*
X20054794Y17961511D01*
X20066000Y17910000D01*
X20066000Y14856000D01*
X20046315Y14788961D01*
X19993511Y14743206D01*
X19942000Y14732000D01*
X18158000Y14732000D01*
X18090961Y14751685D01*
X18045206Y14804489D01*
X18034000Y14856000D01*
X18034000Y16764000D01*
X13462000Y16764000D01*
X13462000Y16136625D01*
X13449660Y16086868D01*
X13450276Y16086652D01*
X13447978Y16080086D01*
X13447631Y16078685D01*
X13447208Y16077886D01*
X13402353Y15949697D01*
X13399500Y15919270D01*
X13399500Y14560731D01*
X13402353Y14530301D01*
X13402353Y14530299D01*
X13434260Y14439118D01*
X13447207Y14402118D01*
X13447209Y14402116D01*
X13447628Y14401322D01*
X13447975Y14399923D01*
X13450276Y14393347D01*
X13449659Y14393132D01*
X13462000Y14343377D01*
X13462000Y13970000D01*
X15370000Y13970000D01*
X15437039Y13950315D01*
X15482794Y13897511D01*
X15494000Y13846000D01*
X15494000Y11807960D01*
X15474315Y11740921D01*
X15421511Y11695166D01*
X15369997Y11683960D01*
X14299497Y11683986D01*
X14232458Y11703672D01*
X14186704Y11756477D01*
X14175500Y11807986D01*
X14175500Y12067992D01*
X14175499Y12068008D01*
X14170803Y12111684D01*
X14165411Y12136468D01*
X14159602Y12163175D01*
X14159348Y12164211D01*
X14157110Y12173373D01*
X14114100Y12254085D01*
X14068345Y12306889D01*
X14068339Y12306896D01*
X14050757Y12324840D01*
X14050756Y12324841D01*
X14050754Y12324843D01*
X14050752Y12324844D01*
X14050750Y12324846D01*
X13970940Y12369489D01*
X13970935Y12369491D01*
X13903903Y12389174D01*
X13903899Y12389175D01*
X13903898Y12389175D01*
X13846000Y12397500D01*
X9776000Y12397500D01*
X9775992Y12397500D01*
X9732313Y12392803D01*
X9680825Y12381603D01*
X9670627Y12379110D01*
X9670624Y12379109D01*
X9589916Y12336101D01*
X9589913Y12336099D01*
X9537104Y12290340D01*
X9519160Y12272758D01*
X9519154Y12272751D01*
X9474511Y12192941D01*
X9474509Y12192936D01*
X9454826Y12125904D01*
X9454825Y12125899D01*
X9454825Y12125898D01*
X9446502Y12068008D01*
X9446500Y12067997D01*
X9446500Y11658252D01*
X9426815Y11591213D01*
X9396900Y11559052D01*
X7068001Y9812378D01*
X7055263Y9802003D01*
X7040438Y9788910D01*
X7040437Y9788909D01*
X6994378Y9730128D01*
X6994377Y9730126D01*
X6976261Y9695493D01*
X6927745Y9645214D01*
X6890663Y9631368D01*
X6867059Y9626656D01*
X6867054Y9626655D01*
X6867053Y9626654D01*
X6801611Y9602178D01*
X6750306Y9574104D01*
X6750300Y9574101D01*
X5768304Y8837604D01*
X5741123Y8813155D01*
X5711283Y8781075D01*
X5709156Y8778754D01*
X5664511Y8698941D01*
X5664509Y8698936D01*
X5644826Y8631904D01*
X5644825Y8631899D01*
X5644825Y8631898D01*
X5639071Y8591877D01*
X5636500Y8573997D01*
X5636500Y7380544D01*
X5637678Y7358564D01*
X5640511Y7332217D01*
X5640512Y7332215D01*
X5645143Y7317427D01*
X5664471Y7255700D01*
X5664473Y7255696D01*
X5664474Y7255694D01*
X5697952Y7194383D01*
X5697957Y7194375D01*
X5732998Y7147565D01*
X5733004Y7147559D01*
X5733008Y7147553D01*
X5733015Y7147546D01*
X5772505Y7108055D01*
X5774641Y7105064D01*
X5776361Y7104021D01*
X5796219Y7074844D01*
X5799896Y7067324D01*
X5812500Y7012855D01*
X5812500Y6728000D01*
X5792815Y6660961D01*
X5740011Y6615206D01*
X5688500Y6604000D01*
X4442000Y6604000D01*
X4374961Y6623685D01*
X4329206Y6676489D01*
X4318000Y6728000D01*
X4318000Y10798000D01*
X4337685Y10865039D01*
X4390489Y10910794D01*
X4442000Y10922000D01*
X5407626Y10922000D01*
X5474665Y10902315D01*
X5495307Y10885681D01*
X5514517Y10866471D01*
X5514521Y10866468D01*
X5633340Y10787075D01*
X5633346Y10787072D01*
X5633347Y10787071D01*
X5765380Y10732381D01*
X5765384Y10732381D01*
X5765385Y10732380D01*
X5905542Y10704500D01*
X5905545Y10704500D01*
X6498457Y10704500D01*
X6592751Y10723258D01*
X6638620Y10732381D01*
X6770653Y10787071D01*
X6889479Y10866468D01*
X6889482Y10866471D01*
X6908693Y10885681D01*
X6970016Y10919166D01*
X6996374Y10922000D01*
X7365999Y10922000D01*
X7366000Y10922000D01*
X8636000Y11938000D01*
X8636000Y13846000D01*
X8655685Y13913039D01*
X8708489Y13958794D01*
X8760000Y13970000D01*
X11938000Y13970000D01*
X11938000Y14343377D01*
X11950340Y14393132D01*
X11949724Y14393347D01*
X11952024Y14399923D01*
X11952372Y14401322D01*
X11952787Y14402111D01*
X11952793Y14402118D01*
X11997417Y14529646D01*
X11997646Y14530299D01*
X11997646Y14530301D01*
X12000500Y14560731D01*
X12000500Y15919270D01*
X11997646Y15949697D01*
X11997646Y15949699D01*
X11952793Y16077882D01*
X11952791Y16077884D01*
X11952791Y16077886D01*
X11952369Y16078685D01*
X11952021Y16080086D01*
X11949724Y16086652D01*
X11950339Y16086868D01*
X11938000Y16136625D01*
X11938000Y17910000D01*
X11957685Y17977039D01*
X12010489Y18022794D01*
X12062000Y18034000D01*
X19942000Y18034000D01*
X20009039Y18014315D01*
G37*
%TD.AperFunction*%
%TD*%
%TA.AperFunction,Conductor*%
%TO.N,Net-(Q5-E)*%
G36*
X21954463Y12624815D02*
G01*
X22000218Y12572011D01*
X22010162Y12502853D01*
X21981137Y12439297D01*
X21961058Y12420730D01*
X21933850Y12400650D01*
X21853207Y12291383D01*
X21853206Y12291381D01*
X21808353Y12163202D01*
X21808353Y12163200D01*
X21805500Y12132770D01*
X21805500Y11124231D01*
X21808353Y11093801D01*
X21808353Y11093799D01*
X21853206Y10965620D01*
X21853207Y10965618D01*
X21933850Y10856350D01*
X22043118Y10775707D01*
X22085845Y10760756D01*
X22171299Y10730854D01*
X22201730Y10728000D01*
X22202000Y10728000D01*
X22202052Y10727985D01*
X22204630Y10727864D01*
X22204600Y10727237D01*
X22269039Y10708315D01*
X22314794Y10655511D01*
X22326000Y10604000D01*
X22326000Y10358500D01*
X23472000Y10358500D01*
X23539039Y10338815D01*
X23584794Y10286011D01*
X23596000Y10234500D01*
X23596000Y8196500D01*
X23576315Y8129461D01*
X23523511Y8083706D01*
X23472000Y8072500D01*
X19910000Y8072500D01*
X19842961Y8092185D01*
X19797206Y8144989D01*
X19786000Y8196500D01*
X19786000Y10358500D01*
X18083500Y10358500D01*
X18016461Y10378185D01*
X17970706Y10430989D01*
X17959500Y10482500D01*
X17959500Y12520500D01*
X17979185Y12587539D01*
X18031989Y12633294D01*
X18083500Y12644500D01*
X21887424Y12644500D01*
X21954463Y12624815D01*
G37*
%TD.AperFunction*%
%TD*%
%TA.AperFunction,Conductor*%
%TO.N,+7.5V*%
G36*
X28330348Y7798815D02*
G01*
X28338341Y7793206D01*
X28338427Y7793158D01*
X28338428Y7793157D01*
X28385101Y7767050D01*
X28394952Y7761539D01*
X28418245Y7748510D01*
X28485284Y7728825D01*
X28543182Y7720500D01*
X30275845Y7720500D01*
X30342884Y7700815D01*
X30353160Y7693445D01*
X30363876Y7684899D01*
X30372274Y7678545D01*
X30382526Y7671193D01*
X30382530Y7671191D01*
X30382533Y7671189D01*
X30444396Y7641010D01*
X30511435Y7621325D01*
X30569333Y7613000D01*
X30569337Y7613000D01*
X31092000Y7613000D01*
X31159039Y7593315D01*
X31204794Y7540511D01*
X31216000Y7489000D01*
X31216000Y2354500D01*
X31196315Y2287461D01*
X31143511Y2241706D01*
X31092000Y2230500D01*
X27784000Y2230500D01*
X27716961Y2250185D01*
X27671206Y2302989D01*
X27660000Y2354500D01*
X27660000Y7694500D01*
X27679685Y7761539D01*
X27732489Y7807294D01*
X27784000Y7818500D01*
X28263309Y7818500D01*
X28330348Y7798815D01*
G37*
%TD.AperFunction*%
%TD*%
%TA.AperFunction,Conductor*%
%TO.N,/power_switch_bbA/ONOFF*%
G36*
X13913039Y12172315D02*
G01*
X13958794Y12119511D01*
X13970000Y12068000D01*
X13970000Y11496557D01*
X13959710Y11455050D01*
X13962276Y11454152D01*
X13914353Y11317197D01*
X13911500Y11286770D01*
X13911500Y10478231D01*
X13914353Y10447801D01*
X13914354Y10447799D01*
X13957339Y10324955D01*
X13960901Y10255176D01*
X13926173Y10194549D01*
X13864179Y10162321D01*
X13840298Y10160000D01*
X9652000Y10160000D01*
X8869292Y9572969D01*
X7620000Y8636001D01*
X7620000Y8416557D01*
X7609710Y8375050D01*
X7612276Y8374152D01*
X7564353Y8237197D01*
X7561500Y8206770D01*
X7561500Y7398231D01*
X7564353Y7367801D01*
X7564353Y7367799D01*
X7612276Y7230847D01*
X7609704Y7229948D01*
X7620000Y7188445D01*
X7620000Y6416557D01*
X7609710Y6375050D01*
X7612276Y6374152D01*
X7564353Y6237197D01*
X7561500Y6206770D01*
X7561500Y5398231D01*
X7564353Y5367801D01*
X7564353Y5367799D01*
X7612276Y5230847D01*
X7609704Y5229948D01*
X7620000Y5188445D01*
X7620000Y3048000D01*
X14608000Y3048000D01*
X14675039Y3028315D01*
X14720794Y2975511D01*
X14732000Y2924000D01*
X14732000Y1394000D01*
X14712315Y1326961D01*
X14659511Y1281206D01*
X14608000Y1270000D01*
X5966000Y1270000D01*
X5898961Y1289685D01*
X5853206Y1342489D01*
X5842000Y1394000D01*
X5842000Y6335457D01*
X5861685Y6402496D01*
X5878314Y6423134D01*
X5956698Y6501517D01*
X6008073Y6606607D01*
X6018000Y6674740D01*
X6018000Y7041260D01*
X6008073Y7109393D01*
X5956698Y7214483D01*
X5956696Y7214485D01*
X5956696Y7214486D01*
X5878319Y7292863D01*
X5844834Y7354186D01*
X5842000Y7380544D01*
X5842000Y8574000D01*
X5861685Y8641039D01*
X5891600Y8673200D01*
X6873600Y9409700D01*
X6939042Y9434176D01*
X6948000Y9434500D01*
X6971750Y9434500D01*
X6971751Y9434501D01*
X6986568Y9437448D01*
X7030229Y9446132D01*
X7030229Y9446133D01*
X7030231Y9446133D01*
X7096552Y9490448D01*
X7140867Y9556769D01*
X7144089Y9572971D01*
X7176473Y9634881D01*
X7191301Y9647977D01*
X9652000Y11493500D01*
X9652000Y12068000D01*
X9671685Y12135039D01*
X9724489Y12180794D01*
X9776000Y12192000D01*
X13846000Y12192000D01*
X13913039Y12172315D01*
G37*
%TD.AperFunction*%
%TD*%
%TA.AperFunction,Conductor*%
%TO.N,Net-(Q3-B)*%
G36*
X9849039Y15982315D02*
G01*
X9894794Y15929511D01*
X9906000Y15878000D01*
X9906000Y14299500D01*
X9886315Y14232461D01*
X9833511Y14186706D01*
X9782000Y14175500D01*
X8759992Y14175500D01*
X8716313Y14170803D01*
X8664825Y14159603D01*
X8654627Y14157110D01*
X8654624Y14157109D01*
X8573916Y14114101D01*
X8573913Y14114099D01*
X8521104Y14068340D01*
X8503160Y14050758D01*
X8503154Y14050751D01*
X8458511Y13970941D01*
X8458509Y13970936D01*
X8438826Y13903904D01*
X8430500Y13845997D01*
X8430500Y12096367D01*
X8410815Y12029328D01*
X8383962Y11999539D01*
X7327879Y11154672D01*
X7263233Y11128164D01*
X7250417Y11127500D01*
X6996373Y11127500D01*
X6974393Y11126322D01*
X6948046Y11123489D01*
X6948044Y11123488D01*
X6871533Y11099530D01*
X6871530Y11099529D01*
X6871528Y11099529D01*
X6871523Y11099526D01*
X6810207Y11066045D01*
X6763387Y11030998D01*
X6761035Y11028959D01*
X6748739Y11019584D01*
X6683464Y10975968D01*
X6662026Y10964509D01*
X6589962Y10934659D01*
X6566701Y10927603D01*
X6554853Y10925247D01*
X6554841Y10925244D01*
X6552664Y10924810D01*
X6552656Y10924809D01*
X6550507Y10924382D01*
X6526323Y10922000D01*
X5877673Y10922000D01*
X5853482Y10924383D01*
X5837296Y10927603D01*
X5814041Y10934658D01*
X5741969Y10964511D01*
X5720531Y10975970D01*
X5655057Y11019718D01*
X5641085Y11030571D01*
X5640623Y11030986D01*
X5640614Y11030995D01*
X5624250Y11045693D01*
X5616653Y11051815D01*
X5603608Y11062328D01*
X5532563Y11099491D01*
X5465531Y11119174D01*
X5464882Y11119268D01*
X5407626Y11127500D01*
X4442000Y11127500D01*
X4441992Y11127500D01*
X4398313Y11122803D01*
X4346825Y11111603D01*
X4336627Y11109110D01*
X4336624Y11109109D01*
X4255916Y11066101D01*
X4255913Y11066099D01*
X4203104Y11020340D01*
X4185160Y11002758D01*
X4185154Y11002751D01*
X4140511Y10922941D01*
X4140509Y10922936D01*
X4120826Y10855904D01*
X4112500Y10797997D01*
X4112500Y7490000D01*
X4092815Y7422961D01*
X4040011Y7377206D01*
X3988500Y7366000D01*
X1648000Y7366000D01*
X1580961Y7385685D01*
X1535206Y7438489D01*
X1524000Y7490000D01*
X1524000Y12068000D01*
X1543685Y12135039D01*
X1596489Y12180794D01*
X1648000Y12192000D01*
X5407626Y12192000D01*
X5474665Y12172315D01*
X5495307Y12155681D01*
X5514517Y12136471D01*
X5514521Y12136468D01*
X5633340Y12057075D01*
X5633346Y12057072D01*
X5633347Y12057071D01*
X5765380Y12002381D01*
X5765384Y12002381D01*
X5765385Y12002380D01*
X5905542Y11974500D01*
X5905545Y11974500D01*
X6498457Y11974500D01*
X6592751Y11993258D01*
X6638620Y12002381D01*
X6770653Y12057071D01*
X6889479Y12136468D01*
X6889482Y12136471D01*
X6908693Y12155681D01*
X6970016Y12189166D01*
X6996374Y12192000D01*
X7112000Y12192000D01*
X7112000Y12433250D01*
X7121440Y12480705D01*
X7124617Y12488376D01*
X7124619Y12488380D01*
X7152500Y12628545D01*
X7152500Y12771455D01*
X7152500Y12771458D01*
X7124620Y12911615D01*
X7124619Y12911616D01*
X7124619Y12911620D01*
X7121439Y12919298D01*
X7112000Y12966750D01*
X7112000Y14077500D01*
X7131685Y14144539D01*
X7184489Y14190294D01*
X7236000Y14201500D01*
X7362270Y14201500D01*
X7392699Y14204354D01*
X7392701Y14204354D01*
X7473024Y14232461D01*
X7520882Y14249207D01*
X7630150Y14329850D01*
X7710793Y14439118D01*
X7743013Y14531197D01*
X7755646Y14567299D01*
X7755646Y14567301D01*
X7758500Y14597731D01*
X7758500Y15406270D01*
X7755646Y15436700D01*
X7755646Y15436702D01*
X7710793Y15564881D01*
X7710792Y15564883D01*
X7630150Y15674150D01*
X7520882Y15754793D01*
X7520880Y15754794D01*
X7509885Y15758641D01*
X7503259Y15760960D01*
X7446484Y15801680D01*
X7420737Y15866633D01*
X7434193Y15935195D01*
X7482581Y15985597D01*
X7544215Y16002000D01*
X9782000Y16002000D01*
X9849039Y15982315D01*
G37*
%TD.AperFunction*%
%TD*%
%TA.AperFunction,Conductor*%
%TO.N,GND1*%
G36*
X32208539Y20307815D02*
G01*
X32254294Y20255011D01*
X32265500Y20203500D01*
X32265500Y624500D01*
X32245815Y557461D01*
X32193011Y511706D01*
X32141500Y500500D01*
X624500Y500500D01*
X557461Y520185D01*
X511706Y572989D01*
X500500Y624500D01*
X500500Y12067997D01*
X1318500Y12067997D01*
X1318500Y7489993D01*
X1323197Y7446314D01*
X1334397Y7394826D01*
X1336890Y7384628D01*
X1336891Y7384625D01*
X1379899Y7303917D01*
X1379901Y7303914D01*
X1425660Y7251105D01*
X1443242Y7233161D01*
X1443246Y7233157D01*
X1443247Y7233156D01*
X1443249Y7233155D01*
X1522516Y7188816D01*
X1523063Y7188510D01*
X1590102Y7168825D01*
X1648000Y7160500D01*
X1648004Y7160500D01*
X3988500Y7160500D01*
X4055539Y7140815D01*
X4101294Y7088011D01*
X4112500Y7036500D01*
X4112500Y6727993D01*
X4117197Y6684314D01*
X4128397Y6632826D01*
X4130890Y6622628D01*
X4130891Y6622625D01*
X4173899Y6541917D01*
X4173904Y6541909D01*
X4185462Y6528571D01*
X4203148Y6501831D01*
X4203300Y6501519D01*
X4203304Y6501514D01*
X4286014Y6418804D01*
X4286015Y6418804D01*
X4286017Y6418802D01*
X4391107Y6367427D01*
X4418698Y6363407D01*
X4459239Y6357500D01*
X4459240Y6357500D01*
X5512500Y6357500D01*
X5579539Y6337815D01*
X5625294Y6285011D01*
X5636500Y6233500D01*
X5636500Y1393993D01*
X5641197Y1350314D01*
X5652397Y1298826D01*
X5654890Y1288628D01*
X5654891Y1288625D01*
X5697899Y1207917D01*
X5697901Y1207914D01*
X5743660Y1155105D01*
X5761242Y1137161D01*
X5761246Y1137157D01*
X5761247Y1137156D01*
X5761249Y1137155D01*
X5841059Y1092512D01*
X5841063Y1092510D01*
X5908102Y1072825D01*
X5966000Y1064500D01*
X5966004Y1064500D01*
X14607991Y1064500D01*
X14608000Y1064500D01*
X14651684Y1069197D01*
X14680875Y1075548D01*
X14703174Y1080398D01*
X14703190Y1080402D01*
X14703195Y1080403D01*
X14713373Y1082890D01*
X14794085Y1125900D01*
X14846889Y1171655D01*
X14864843Y1189246D01*
X14909490Y1269063D01*
X14929175Y1336102D01*
X14937500Y1394000D01*
X14937500Y2924000D01*
X14932803Y2967684D01*
X14928897Y2985636D01*
X14921602Y3019175D01*
X14921348Y3020211D01*
X14919110Y3029373D01*
X14876100Y3110085D01*
X14830345Y3162889D01*
X14830339Y3162896D01*
X14812757Y3180840D01*
X14812756Y3180841D01*
X14812754Y3180843D01*
X14812752Y3180844D01*
X14812750Y3180846D01*
X14732940Y3225489D01*
X14732935Y3225491D01*
X14665903Y3245174D01*
X14665899Y3245175D01*
X14665898Y3245175D01*
X14608000Y3253500D01*
X14607996Y3253500D01*
X7949500Y3253500D01*
X7882461Y3273185D01*
X7836706Y3325989D01*
X7825500Y3377500D01*
X7825500Y5188448D01*
X7825499Y5188451D01*
X7819454Y5237924D01*
X7819454Y5237925D01*
X7809757Y5277012D01*
X7807800Y5284897D01*
X7806243Y5298721D01*
X7799808Y5317110D01*
X7799655Y5317728D01*
X7799270Y5318649D01*
X7773959Y5390982D01*
X7773264Y5395071D01*
X7772023Y5397002D01*
X7767000Y5431937D01*
X7767000Y5448761D01*
X9953500Y5448761D01*
X9953500Y4357240D01*
X9963426Y4289109D01*
X10014803Y4184015D01*
X10097514Y4101304D01*
X10097515Y4101304D01*
X10097517Y4101302D01*
X10202607Y4049927D01*
X10236673Y4044964D01*
X10270739Y4040000D01*
X10270740Y4040000D01*
X10637261Y4040000D01*
X10659971Y4043309D01*
X10705393Y4049927D01*
X10810483Y4101302D01*
X10893198Y4184017D01*
X10944573Y4289107D01*
X10954500Y4357240D01*
X10954500Y5448760D01*
X10954500Y5448761D01*
X11853500Y5448761D01*
X11853500Y4357240D01*
X11863426Y4289109D01*
X11914803Y4184015D01*
X11997514Y4101304D01*
X11997515Y4101304D01*
X11997517Y4101302D01*
X12102607Y4049927D01*
X12136673Y4044964D01*
X12170739Y4040000D01*
X12170740Y4040000D01*
X12537261Y4040000D01*
X12559971Y4043309D01*
X12605393Y4049927D01*
X12710483Y4101302D01*
X12793198Y4184017D01*
X12844573Y4289107D01*
X12854500Y4357240D01*
X12854500Y5448760D01*
X12844573Y5516893D01*
X12793198Y5621983D01*
X12793196Y5621985D01*
X12793196Y5621986D01*
X12710485Y5704697D01*
X12605391Y5756074D01*
X12537261Y5766000D01*
X12537260Y5766000D01*
X12170740Y5766000D01*
X12170739Y5766000D01*
X12102608Y5756074D01*
X11997514Y5704697D01*
X11914803Y5621986D01*
X11863426Y5516892D01*
X11853500Y5448761D01*
X10954500Y5448761D01*
X10944573Y5516893D01*
X10893198Y5621983D01*
X10893196Y5621985D01*
X10893196Y5621986D01*
X10810485Y5704697D01*
X10705391Y5756074D01*
X10637261Y5766000D01*
X10637260Y5766000D01*
X10270740Y5766000D01*
X10270739Y5766000D01*
X10202608Y5756074D01*
X10097514Y5704697D01*
X10014803Y5621986D01*
X9963426Y5516892D01*
X9953500Y5448761D01*
X7767000Y5448761D01*
X7767000Y6173060D01*
X7773959Y6214015D01*
X7806244Y6306279D01*
X7816483Y6351135D01*
X7816482Y6351137D01*
X7818293Y6359066D01*
X7818943Y6363377D01*
X7818780Y6363407D01*
X7819461Y6367102D01*
X7819501Y6367427D01*
X7825500Y6416557D01*
X7825500Y6528500D01*
X7845185Y6595539D01*
X7897989Y6641294D01*
X7949500Y6652500D01*
X9527991Y6652500D01*
X9528000Y6652500D01*
X9571684Y6657197D01*
X9600875Y6663548D01*
X9623174Y6668398D01*
X9623190Y6668402D01*
X9623195Y6668403D01*
X9633373Y6670890D01*
X9714085Y6713900D01*
X9766889Y6759655D01*
X9784843Y6777246D01*
X9829490Y6857063D01*
X9849175Y6924102D01*
X9857500Y6982000D01*
X9857500Y7321406D01*
X9877185Y7388445D01*
X9929989Y7434200D01*
X9938324Y7437647D01*
X9976628Y7451871D01*
X10035477Y7489535D01*
X10055781Y7504356D01*
X10111469Y7576903D01*
X10140613Y7640404D01*
X10157197Y7696496D01*
X10159355Y7711315D01*
X10159951Y7713244D01*
X10159828Y7714302D01*
X10170658Y7747893D01*
X10175273Y7757334D01*
X10198991Y7790556D01*
X10203944Y7795509D01*
X10221783Y7808245D01*
X10222399Y7808918D01*
X10222921Y7809057D01*
X10237167Y7819228D01*
X10244690Y7822906D01*
X10299141Y7835500D01*
X10608857Y7835500D01*
X10620945Y7832704D01*
X10629728Y7833731D01*
X10663316Y7822901D01*
X10670832Y7819227D01*
X10704051Y7795508D01*
X10709005Y7790554D01*
X10721753Y7772701D01*
X10722413Y7772098D01*
X10722548Y7771587D01*
X10732721Y7757341D01*
X10736397Y7749823D01*
X10749000Y7695355D01*
X10749000Y6727993D01*
X10753697Y6684314D01*
X10764897Y6632826D01*
X10767390Y6622628D01*
X10767391Y6622625D01*
X10810399Y6541917D01*
X10810401Y6541914D01*
X10856160Y6489105D01*
X10873742Y6471161D01*
X10873746Y6471157D01*
X10926588Y6441599D01*
X10953489Y6426551D01*
X10953563Y6426510D01*
X10985127Y6417242D01*
X11037872Y6385946D01*
X11047514Y6376304D01*
X11047515Y6376304D01*
X11047517Y6376302D01*
X11152607Y6324927D01*
X11163671Y6323315D01*
X11220739Y6315000D01*
X11220740Y6315000D01*
X11587261Y6315000D01*
X11609971Y6318309D01*
X11655393Y6324927D01*
X11760483Y6376302D01*
X11765601Y6381421D01*
X11776443Y6388145D01*
X11782207Y6395348D01*
X11803868Y6405153D01*
X11813712Y6411257D01*
X11820061Y6413396D01*
X11824695Y6414403D01*
X11834873Y6416890D01*
X11842482Y6420946D01*
X11852187Y6424213D01*
X11877267Y6425197D01*
X11901850Y6430286D01*
X11911584Y6426544D01*
X11922003Y6426952D01*
X11943634Y6414220D01*
X11967065Y6405211D01*
X11979440Y6394378D01*
X11997514Y6376304D01*
X11997515Y6376304D01*
X11997517Y6376302D01*
X12102607Y6324927D01*
X12113671Y6323315D01*
X12170739Y6315000D01*
X12170740Y6315000D01*
X12537261Y6315000D01*
X12559971Y6318309D01*
X12605393Y6324927D01*
X12710483Y6376302D01*
X12710483Y6376303D01*
X12719714Y6380815D01*
X12720448Y6379312D01*
X12775248Y6398352D01*
X12781298Y6398500D01*
X13469088Y6398500D01*
X13469101Y6398500D01*
X13488979Y6399464D01*
X13512861Y6401785D01*
X13587772Y6423988D01*
X13636478Y6449309D01*
X13641983Y6450390D01*
X13646361Y6453908D01*
X13675894Y6457046D01*
X13705035Y6462766D01*
X13711724Y6460853D01*
X13715839Y6461290D01*
X13749313Y6450103D01*
X13763768Y6442845D01*
X13768640Y6440262D01*
X13793219Y6426511D01*
X13793223Y6426510D01*
X13793225Y6426509D01*
X13800626Y6424336D01*
X13806801Y6421235D01*
X13833680Y6414630D01*
X13836331Y6413851D01*
X13836342Y6413848D01*
X13845256Y6411230D01*
X13845268Y6411228D01*
X13860266Y6406824D01*
X13918162Y6398500D01*
X17202199Y6398500D01*
X17269238Y6378815D01*
X17314993Y6326011D01*
X17324936Y6256856D01*
X17324936Y6256850D01*
X17320500Y6226006D01*
X17320500Y5775044D01*
X17321678Y5753064D01*
X17324511Y5726717D01*
X17324512Y5726715D01*
X17331407Y5704697D01*
X17348471Y5650200D01*
X17348473Y5650196D01*
X17348474Y5650194D01*
X17381952Y5588883D01*
X17381954Y5588880D01*
X17381956Y5588877D01*
X17417007Y5542054D01*
X17430508Y5528553D01*
X17432646Y5525558D01*
X17434367Y5524515D01*
X17454223Y5495337D01*
X17457899Y5487818D01*
X17470500Y5433355D01*
X17470500Y5123646D01*
X17457897Y5069178D01*
X17454222Y5061662D01*
X17430509Y5028452D01*
X17417008Y5014952D01*
X17416999Y5014942D01*
X17402306Y4998583D01*
X17402288Y4998562D01*
X17385666Y4977933D01*
X17385666Y4977932D01*
X17348512Y4906899D01*
X17348508Y4906890D01*
X17328826Y4839863D01*
X17320500Y4781954D01*
X17320500Y4640501D01*
X17322592Y4611253D01*
X17327615Y4576317D01*
X17329414Y4571494D01*
X17335177Y4556042D01*
X17334117Y4555811D01*
X17336405Y4545296D01*
X17338889Y4535130D01*
X17352512Y4509564D01*
X17355389Y4501851D01*
X17358143Y4494467D01*
X17358146Y4494461D01*
X17369538Y4476734D01*
X17372277Y4472472D01*
X17381898Y4454417D01*
X17389574Y4445558D01*
X17394368Y4438099D01*
X17394369Y4438097D01*
X17395909Y4435701D01*
X17395916Y4435690D01*
X17395920Y4435685D01*
X17395921Y4435683D01*
X17410781Y4415405D01*
X17425361Y4404257D01*
X17427657Y4401608D01*
X17445246Y4383657D01*
X17471540Y4368949D01*
X17483434Y4359855D01*
X17491670Y4356094D01*
X17491670Y4356096D01*
X17502589Y4351109D01*
X17502596Y4351105D01*
X17507198Y4349003D01*
X17525063Y4339010D01*
X17536309Y4335709D01*
X17544372Y4332026D01*
X17544370Y4332026D01*
X17546984Y4330832D01*
X17546988Y4330831D01*
X17570459Y4321804D01*
X17578660Y4321134D01*
X17587683Y4319791D01*
X17587708Y4319959D01*
X17592088Y4319329D01*
X17592092Y4319328D01*
X17636462Y4312947D01*
X17649999Y4311000D01*
X17650000Y4311000D01*
X26799991Y4311000D01*
X26800000Y4311000D01*
X26843684Y4315697D01*
X26872875Y4322048D01*
X26895174Y4326898D01*
X26895190Y4326902D01*
X26895195Y4326903D01*
X26905373Y4329390D01*
X26986085Y4372400D01*
X27038889Y4418155D01*
X27056843Y4435746D01*
X27101490Y4515563D01*
X27121175Y4582602D01*
X27129500Y4640500D01*
X27129500Y6219000D01*
X27132050Y6227686D01*
X27130762Y6236647D01*
X27141740Y6260688D01*
X27149185Y6286039D01*
X27156025Y6291967D01*
X27159787Y6300203D01*
X27182021Y6314493D01*
X27201989Y6331794D01*
X27212503Y6334082D01*
X27218565Y6337977D01*
X27253500Y6343000D01*
X27330500Y6343000D01*
X27397539Y6323315D01*
X27443294Y6270511D01*
X27454500Y6219000D01*
X27454500Y3364500D01*
X27434815Y3297461D01*
X27382011Y3251706D01*
X27330500Y3240500D01*
X26315247Y3240500D01*
X26256770Y3228869D01*
X26256769Y3228868D01*
X26190447Y3184553D01*
X26146132Y3118231D01*
X26146131Y3118230D01*
X26134500Y3059753D01*
X26134500Y2020248D01*
X26146131Y1961771D01*
X26146132Y1961770D01*
X26190447Y1895448D01*
X26256769Y1851133D01*
X26256770Y1851132D01*
X26315247Y1839501D01*
X26315250Y1839500D01*
X26315252Y1839500D01*
X29504750Y1839500D01*
X29504751Y1839501D01*
X29519568Y1842448D01*
X29563229Y1851132D01*
X29563229Y1851133D01*
X29563231Y1851133D01*
X29629552Y1895448D01*
X29673867Y1961769D01*
X29673867Y1961770D01*
X29679294Y1969891D01*
X29732906Y2014696D01*
X29782396Y2025000D01*
X31091991Y2025000D01*
X31092000Y2025000D01*
X31135684Y2029697D01*
X31164875Y2036048D01*
X31187174Y2040898D01*
X31187190Y2040902D01*
X31187195Y2040903D01*
X31197373Y2043390D01*
X31278085Y2086400D01*
X31330889Y2132155D01*
X31348843Y2149746D01*
X31393490Y2229563D01*
X31413175Y2296602D01*
X31421500Y2354500D01*
X31421500Y7489000D01*
X31416803Y7532684D01*
X31412897Y7550636D01*
X31405602Y7584175D01*
X31405348Y7585211D01*
X31403110Y7594373D01*
X31369349Y7657727D01*
X31355195Y7726147D01*
X31370560Y7776572D01*
X31393490Y7817563D01*
X31413175Y7884602D01*
X31421500Y7942500D01*
X31421500Y12012500D01*
X31416803Y12056184D01*
X31407475Y12099063D01*
X31405602Y12107675D01*
X31405348Y12108711D01*
X31403110Y12117873D01*
X31360100Y12198585D01*
X31314345Y12251389D01*
X31314339Y12251396D01*
X31296757Y12269340D01*
X31296756Y12269341D01*
X31296754Y12269343D01*
X31296752Y12269344D01*
X31296750Y12269346D01*
X31216940Y12313989D01*
X31216935Y12313991D01*
X31149903Y12333674D01*
X31149899Y12333675D01*
X31149898Y12333675D01*
X31092000Y12342000D01*
X31091996Y12342000D01*
X28269500Y12342000D01*
X28202461Y12361685D01*
X28156706Y12414489D01*
X28145500Y12466000D01*
X28145500Y19179992D01*
X28145499Y19180008D01*
X28140803Y19223684D01*
X28135693Y19247175D01*
X28129602Y19275175D01*
X28129348Y19276211D01*
X28127110Y19285373D01*
X28084100Y19366085D01*
X28038345Y19418889D01*
X28038339Y19418896D01*
X28020757Y19436840D01*
X28020756Y19436841D01*
X28020754Y19436843D01*
X28020752Y19436844D01*
X28020750Y19436846D01*
X27940940Y19481489D01*
X27940935Y19481491D01*
X27873903Y19501174D01*
X27873899Y19501175D01*
X27873898Y19501175D01*
X27816000Y19509500D01*
X26540000Y19509500D01*
X26539992Y19509500D01*
X26496313Y19504803D01*
X26444825Y19493603D01*
X26434627Y19491110D01*
X26434624Y19491109D01*
X26353916Y19448101D01*
X26353913Y19448099D01*
X26301104Y19402340D01*
X26283160Y19384758D01*
X26283154Y19384751D01*
X26238511Y19304941D01*
X26238509Y19304936D01*
X26218826Y19237904D01*
X26218825Y19237899D01*
X26218825Y19237898D01*
X26210502Y19180008D01*
X26210500Y19179997D01*
X26210500Y12521500D01*
X26190815Y12454461D01*
X26138011Y12408706D01*
X26086500Y12397500D01*
X25522504Y12397500D01*
X25480049Y12393066D01*
X25429890Y12382472D01*
X25420908Y12380364D01*
X25339687Y12338339D01*
X25339682Y12338336D01*
X25286332Y12293228D01*
X25286310Y12293209D01*
X25268165Y12275855D01*
X25222550Y12196580D01*
X25202059Y12129802D01*
X25202057Y12129794D01*
X25202056Y12129791D01*
X25202056Y12129789D01*
X25200195Y12117873D01*
X25193030Y12071998D01*
X25193030Y12071994D01*
X25173158Y10432497D01*
X25172527Y10430442D01*
X25173038Y10428354D01*
X25162326Y10397199D01*
X25152662Y10365701D01*
X25151021Y10364314D01*
X25150322Y10362280D01*
X25124460Y10341857D01*
X25099308Y10320590D01*
X25096646Y10319892D01*
X25095489Y10318977D01*
X25086614Y10317258D01*
X25061207Y10310586D01*
X25055200Y10310000D01*
X24990000Y10310000D01*
X24960754Y10307908D01*
X24925819Y10302885D01*
X24905817Y10295427D01*
X24905519Y10295398D01*
X24905306Y10296382D01*
X24896935Y10294561D01*
X24896931Y10294560D01*
X24894810Y10294098D01*
X24894792Y10294094D01*
X24888501Y10292557D01*
X24884634Y10291612D01*
X24866341Y10281866D01*
X24866340Y10281867D01*
X24859072Y10277995D01*
X24843980Y10272365D01*
X24837918Y10268470D01*
X24838754Y10267168D01*
X24817505Y10255845D01*
X24817503Y10255845D01*
X24803926Y10248610D01*
X24803915Y10248603D01*
X24801736Y10246714D01*
X24787616Y10236144D01*
X24785184Y10234581D01*
X24785175Y10234575D01*
X24764920Y10219733D01*
X24760067Y10213386D01*
X24760066Y10213387D01*
X24753761Y10205144D01*
X24751097Y10202833D01*
X24733162Y10185260D01*
X24718465Y10158990D01*
X24713081Y10151949D01*
X24713078Y10151943D01*
X24709366Y10147089D01*
X24709362Y10147082D01*
X24700593Y10127885D01*
X24698492Y10123286D01*
X24688512Y10105444D01*
X24685206Y10094189D01*
X24681533Y10086145D01*
X24680332Y10083515D01*
X24680325Y10083499D01*
X24671311Y10060063D01*
X24671310Y10060060D01*
X24670640Y10051867D01*
X24669288Y10042795D01*
X24669451Y10042771D01*
X24660500Y9980498D01*
X24660500Y8402000D01*
X24640815Y8334961D01*
X24588011Y8289206D01*
X24536500Y8278000D01*
X23925500Y8278000D01*
X23858461Y8297685D01*
X23812706Y8350489D01*
X23801500Y8402000D01*
X23801500Y10234492D01*
X23801499Y10234508D01*
X23800809Y10240926D01*
X23796803Y10278184D01*
X23792844Y10296382D01*
X23785602Y10329675D01*
X23785348Y10330711D01*
X23783110Y10339873D01*
X23740100Y10420585D01*
X23694345Y10473389D01*
X23694339Y10473396D01*
X23676757Y10491340D01*
X23676756Y10491341D01*
X23676754Y10491343D01*
X23676752Y10491344D01*
X23676750Y10491346D01*
X23596940Y10535989D01*
X23596935Y10535991D01*
X23529903Y10555674D01*
X23529899Y10555675D01*
X23529898Y10555675D01*
X23472000Y10564000D01*
X23471996Y10564000D01*
X22644933Y10564000D01*
X22577894Y10583685D01*
X22532139Y10636489D01*
X22523767Y10661641D01*
X22515600Y10699183D01*
X22515441Y10699830D01*
X22513110Y10709373D01*
X22470100Y10790085D01*
X22424345Y10842889D01*
X22424339Y10842896D01*
X22406754Y10860843D01*
X22371585Y10880516D01*
X22326938Y10905490D01*
X22326937Y10905491D01*
X22311313Y10910079D01*
X22262499Y10924412D01*
X22259219Y10925375D01*
X22259218Y10925376D01*
X22259216Y10925376D01*
X22252913Y10927227D01*
X22248594Y10930003D01*
X22231457Y10931613D01*
X22231403Y10931617D01*
X22230502Y10931702D01*
X22201193Y10938113D01*
X22157866Y10953274D01*
X22125191Y10970542D01*
X22121938Y10972943D01*
X22095839Y10992204D01*
X22069704Y11018338D01*
X22048036Y11047698D01*
X22030770Y11080368D01*
X22017958Y11116984D01*
X22011000Y11157937D01*
X22011000Y12099063D01*
X22011694Y12103152D01*
X22011161Y12105384D01*
X22017956Y12140012D01*
X22030773Y12176639D01*
X22048039Y12209307D01*
X22071390Y12240948D01*
X22092130Y12262865D01*
X22100577Y12269850D01*
X22120656Y12288417D01*
X22168066Y12353929D01*
X22176388Y12372151D01*
X22197084Y12417469D01*
X22197087Y12417476D01*
X22197087Y12417478D01*
X22197091Y12417485D01*
X22206116Y12440949D01*
X22206116Y12440952D01*
X22206117Y12440954D01*
X22213570Y12532097D01*
X22213570Y12532099D01*
X22203626Y12601255D01*
X22203626Y12601258D01*
X22198534Y12625873D01*
X22155524Y12706585D01*
X22109769Y12759389D01*
X22109763Y12759396D01*
X22092178Y12777343D01*
X22088707Y12779997D01*
X22086124Y12783522D01*
X22085972Y12783677D01*
X22085994Y12783699D01*
X22047409Y12836355D01*
X22043136Y12906094D01*
X22077245Y12967072D01*
X22138907Y12999929D01*
X22164027Y13002500D01*
X25021991Y13002500D01*
X25022000Y13002500D01*
X25065684Y13007197D01*
X25094875Y13013548D01*
X25117174Y13018398D01*
X25117190Y13018402D01*
X25117195Y13018403D01*
X25127373Y13020890D01*
X25208085Y13063900D01*
X25260889Y13109655D01*
X25278843Y13127246D01*
X25323490Y13207063D01*
X25343175Y13274102D01*
X25351500Y13332000D01*
X25351500Y16132000D01*
X25346803Y16175684D01*
X25341324Y16200870D01*
X25335602Y16227175D01*
X25335348Y16228211D01*
X25333110Y16237373D01*
X25290100Y16318085D01*
X25244345Y16370889D01*
X25244339Y16370896D01*
X25226757Y16388840D01*
X25226756Y16388841D01*
X25226754Y16388843D01*
X25226752Y16388844D01*
X25226750Y16388846D01*
X25146940Y16433489D01*
X25146935Y16433491D01*
X25079903Y16453174D01*
X25079899Y16453175D01*
X25079898Y16453175D01*
X25022000Y16461500D01*
X25021996Y16461500D01*
X22681500Y16461500D01*
X22614461Y16481185D01*
X22568706Y16533989D01*
X22557500Y16585500D01*
X22557500Y18925992D01*
X22557499Y18926008D01*
X22552803Y18969684D01*
X22548897Y18987636D01*
X22541602Y19021175D01*
X22541348Y19022211D01*
X22539110Y19031373D01*
X22496100Y19112085D01*
X22450345Y19164889D01*
X22450339Y19164896D01*
X22432757Y19182840D01*
X22432756Y19182841D01*
X22432754Y19182843D01*
X22432752Y19182844D01*
X22432750Y19182846D01*
X22352940Y19227489D01*
X22352935Y19227491D01*
X22285903Y19247174D01*
X22285899Y19247175D01*
X22285898Y19247175D01*
X22228000Y19255500D01*
X6220000Y19255500D01*
X6219992Y19255500D01*
X6176313Y19250803D01*
X6124825Y19239603D01*
X6114627Y19237110D01*
X6114624Y19237109D01*
X6033916Y19194101D01*
X6033913Y19194099D01*
X5981104Y19148340D01*
X5963160Y19130758D01*
X5963154Y19130751D01*
X5918511Y19050941D01*
X5918509Y19050936D01*
X5898826Y18983904D01*
X5898825Y18983899D01*
X5898825Y18983898D01*
X5890502Y18926008D01*
X5890500Y18925997D01*
X5890500Y16331500D01*
X5870815Y16264461D01*
X5818011Y16218706D01*
X5766500Y16207500D01*
X3679992Y16207500D01*
X3636313Y16202803D01*
X3584825Y16191603D01*
X3574627Y16189110D01*
X3574624Y16189109D01*
X3493916Y16146101D01*
X3493913Y16146099D01*
X3441104Y16100340D01*
X3423160Y16082758D01*
X3423154Y16082751D01*
X3378511Y16002941D01*
X3378509Y16002936D01*
X3358826Y15935904D01*
X3350500Y15877997D01*
X3350500Y12521500D01*
X3347949Y12512815D01*
X3349238Y12503853D01*
X3338259Y12479813D01*
X3330815Y12454461D01*
X3323974Y12448534D01*
X3320213Y12440297D01*
X3297978Y12426008D01*
X3278011Y12408706D01*
X3267496Y12406419D01*
X3261435Y12402523D01*
X3226500Y12397500D01*
X3064605Y12397500D01*
X2997566Y12417185D01*
X2990972Y12421730D01*
X2948886Y12452791D01*
X2948880Y12452794D01*
X2820700Y12497647D01*
X2790270Y12500500D01*
X2790266Y12500500D01*
X1781734Y12500500D01*
X1781730Y12500500D01*
X1751300Y12497647D01*
X1751298Y12497647D01*
X1623119Y12452794D01*
X1623113Y12452791D01*
X1513849Y12372151D01*
X1508981Y12367282D01*
X1479621Y12345536D01*
X1461916Y12336102D01*
X1409104Y12290340D01*
X1391160Y12272758D01*
X1391154Y12272751D01*
X1346511Y12192941D01*
X1346509Y12192936D01*
X1326826Y12125904D01*
X1326825Y12125899D01*
X1326825Y12125898D01*
X1319075Y12071994D01*
X1318500Y12067997D01*
X500500Y12067997D01*
X500500Y20203500D01*
X520185Y20270539D01*
X572989Y20316294D01*
X624500Y20327500D01*
X32141500Y20327500D01*
X32208539Y20307815D01*
G37*
%TD.AperFunction*%
%TD*%
%TA.AperFunction,Conductor*%
%TO.N,Net-(Q6-G)*%
G36*
X25205802Y10084815D02*
G01*
X25234267Y10055467D01*
X25236047Y10056916D01*
X25241643Y10050044D01*
X25241646Y10050039D01*
X25308898Y9988060D01*
X25352028Y9963353D01*
X25369520Y9953332D01*
X25369523Y9953331D01*
X25369524Y9953330D01*
X25392061Y9942191D01*
X25482146Y9926411D01*
X25551925Y9929972D01*
X25609324Y9941237D01*
X25624482Y9946542D01*
X25665437Y9953500D01*
X26606560Y9953500D01*
X26647516Y9946541D01*
X26730534Y9917491D01*
X26763983Y9908863D01*
X26804938Y9901904D01*
X26839363Y9899000D01*
X27838500Y9899000D01*
X27905539Y9879315D01*
X27951294Y9826511D01*
X27962500Y9775000D01*
X27962500Y9669993D01*
X27967197Y9626314D01*
X27978397Y9574826D01*
X27980890Y9564628D01*
X27980891Y9564625D01*
X28023899Y9483917D01*
X28023901Y9483914D01*
X28069660Y9431105D01*
X28087242Y9413161D01*
X28087246Y9413157D01*
X28087247Y9413156D01*
X28087249Y9413155D01*
X28167059Y9368512D01*
X28167063Y9368510D01*
X28234102Y9348825D01*
X28292000Y9340500D01*
X28293500Y9340500D01*
X28293982Y9340359D01*
X28296419Y9340184D01*
X28296381Y9339655D01*
X28360539Y9320815D01*
X28406294Y9268011D01*
X28417500Y9216500D01*
X28417500Y8424966D01*
X28415892Y8419494D01*
X28417005Y8413899D01*
X28406157Y8386339D01*
X28397815Y8357927D01*
X28392958Y8352805D01*
X28391416Y8348884D01*
X28366015Y8324380D01*
X28356290Y8317369D01*
X28352680Y8314862D01*
X28349323Y8312619D01*
X28347416Y8310969D01*
X28329272Y8297885D01*
X28318091Y8289223D01*
X28262540Y8216572D01*
X28262539Y8216570D01*
X28233514Y8153015D01*
X28224489Y8129550D01*
X28222516Y8120903D01*
X28218964Y8121714D01*
X28200022Y8072595D01*
X28143628Y8031345D01*
X28101584Y8024000D01*
X27783992Y8024000D01*
X27740313Y8019303D01*
X27688825Y8008103D01*
X27678627Y8005610D01*
X27678624Y8005609D01*
X27597916Y7962601D01*
X27597913Y7962599D01*
X27545104Y7916840D01*
X27527160Y7899258D01*
X27527154Y7899251D01*
X27482511Y7819441D01*
X27482509Y7819436D01*
X27462826Y7752404D01*
X27462825Y7752399D01*
X27462825Y7752398D01*
X27455217Y7699482D01*
X27454500Y7694497D01*
X27454500Y6672500D01*
X27434815Y6605461D01*
X27382011Y6559706D01*
X27330500Y6548500D01*
X26857554Y6548500D01*
X26839907Y6549762D01*
X26828034Y6551470D01*
X26800000Y6555500D01*
X26799998Y6555500D01*
X25189801Y6555500D01*
X25122762Y6575185D01*
X25077007Y6627989D01*
X25067063Y6697145D01*
X25071500Y6728000D01*
X25071500Y7948500D01*
X25066803Y7992184D01*
X25062897Y8010136D01*
X25055602Y8043675D01*
X25053445Y8052500D01*
X25053110Y8053873D01*
X25010100Y8134585D01*
X24964345Y8187389D01*
X24964339Y8187396D01*
X24946757Y8205340D01*
X24946756Y8205341D01*
X24946754Y8205343D01*
X24929462Y8215016D01*
X24880566Y8264923D01*
X24866000Y8323234D01*
X24866000Y9980500D01*
X24868550Y9989186D01*
X24867262Y9998147D01*
X24878240Y10022188D01*
X24885685Y10047539D01*
X24892525Y10053467D01*
X24896287Y10061703D01*
X24918521Y10075993D01*
X24938489Y10093294D01*
X24949003Y10095582D01*
X24955065Y10099477D01*
X24990000Y10104500D01*
X25138763Y10104500D01*
X25205802Y10084815D01*
G37*
%TD.AperFunction*%
%TD*%
%TA.AperFunction,Conductor*%
%TO.N,/power_switch_bbA/EN1*%
G36*
X25089039Y16236315D02*
G01*
X25134794Y16183511D01*
X25146000Y16132000D01*
X25146000Y13332000D01*
X25126315Y13264961D01*
X25073511Y13219206D01*
X25022000Y13208000D01*
X18158000Y13208000D01*
X18090961Y13227685D01*
X18045206Y13280489D01*
X18034000Y13332000D01*
X18034000Y14402500D01*
X18053685Y14469539D01*
X18106489Y14515294D01*
X18158000Y14526500D01*
X19941991Y14526500D01*
X19942000Y14526500D01*
X19985684Y14531197D01*
X20014875Y14537548D01*
X20037174Y14542398D01*
X20037190Y14542402D01*
X20037195Y14542403D01*
X20047373Y14544890D01*
X20128085Y14587900D01*
X20180889Y14633655D01*
X20198843Y14651246D01*
X20208515Y14668538D01*
X20258423Y14717434D01*
X20316734Y14732000D01*
X22352000Y14732000D01*
X22352000Y16132000D01*
X22371685Y16199039D01*
X22424489Y16244794D01*
X22476000Y16256000D01*
X25022000Y16256000D01*
X25089039Y16236315D01*
G37*
%TD.AperFunction*%
%TD*%
%TA.AperFunction,Conductor*%
%TO.N,Net-(Q5-B)*%
G36*
X19523539Y10133315D02*
G01*
X19569294Y10080511D01*
X19580500Y10029000D01*
X19580500Y8196493D01*
X19585197Y8152814D01*
X19596397Y8101326D01*
X19598890Y8091128D01*
X19598891Y8091125D01*
X19641899Y8010417D01*
X19641901Y8010414D01*
X19687660Y7957605D01*
X19705242Y7939661D01*
X19705246Y7939657D01*
X19705247Y7939656D01*
X19705249Y7939655D01*
X19785059Y7895012D01*
X19785063Y7895010D01*
X19852102Y7875325D01*
X19910000Y7867000D01*
X22317006Y7867000D01*
X22341196Y7864618D01*
X22366112Y7859662D01*
X22389544Y7855000D01*
X22389545Y7855000D01*
X22982456Y7855000D01*
X23005887Y7859662D01*
X23030803Y7864618D01*
X23054994Y7867000D01*
X23471991Y7867000D01*
X23472000Y7867000D01*
X23515684Y7871697D01*
X23544875Y7878048D01*
X23567174Y7882898D01*
X23567190Y7882902D01*
X23567195Y7882903D01*
X23577373Y7885390D01*
X23658085Y7928400D01*
X23710889Y7974155D01*
X23728843Y7991746D01*
X23738515Y8009038D01*
X23788423Y8057934D01*
X23846734Y8072500D01*
X24742000Y8072500D01*
X24809039Y8052815D01*
X24854794Y8000011D01*
X24866000Y7948500D01*
X24866000Y6728000D01*
X24846315Y6660961D01*
X24793511Y6615206D01*
X24742000Y6604000D01*
X23717694Y6604000D01*
X23650655Y6623685D01*
X23614592Y6659109D01*
X23580552Y6710053D01*
X23514230Y6754368D01*
X23514229Y6754369D01*
X23455752Y6766000D01*
X23455748Y6766000D01*
X21916252Y6766000D01*
X21916247Y6766000D01*
X21857770Y6754369D01*
X21857769Y6754368D01*
X21791447Y6710053D01*
X21757408Y6659109D01*
X21703795Y6614304D01*
X21654306Y6604000D01*
X19522044Y6604000D01*
X19455005Y6623685D01*
X19434363Y6640319D01*
X19406985Y6667697D01*
X19399191Y6671507D01*
X19301893Y6719073D01*
X19301891Y6719074D01*
X19233761Y6729000D01*
X19233760Y6729000D01*
X17992240Y6729000D01*
X17992239Y6729000D01*
X17924108Y6719074D01*
X17819014Y6667697D01*
X17791637Y6640319D01*
X17730314Y6606834D01*
X17703956Y6604000D01*
X13918162Y6604000D01*
X13887201Y6613091D01*
X13855844Y6620797D01*
X13853871Y6622878D01*
X13851123Y6623685D01*
X13829995Y6648068D01*
X13807778Y6671507D01*
X13806923Y6674695D01*
X13805368Y6676489D01*
X13796334Y6704894D01*
X13794754Y6713221D01*
X13791375Y6779431D01*
X13780109Y6836830D01*
X13760899Y6891727D01*
X13759172Y6900834D01*
X13759815Y6907370D01*
X13757000Y6923940D01*
X13757000Y7665061D01*
X13763958Y7706015D01*
X13776772Y7742636D01*
X13794045Y7775317D01*
X13831114Y7825542D01*
X13834971Y7830949D01*
X13839516Y7837543D01*
X13867490Y7896269D01*
X13887175Y7963308D01*
X13895500Y8021206D01*
X13895500Y8052500D01*
X13915185Y8119539D01*
X13967989Y8165294D01*
X14019500Y8176500D01*
X17629991Y8176500D01*
X17630000Y8176500D01*
X17673684Y8181197D01*
X17702875Y8187548D01*
X17725174Y8192398D01*
X17725190Y8192402D01*
X17725195Y8192403D01*
X17735373Y8194890D01*
X17816085Y8237900D01*
X17868889Y8283655D01*
X17886843Y8301246D01*
X17931490Y8381063D01*
X17951175Y8448102D01*
X17959500Y8506000D01*
X17959500Y10029000D01*
X17979185Y10096039D01*
X18031989Y10141794D01*
X18083500Y10153000D01*
X19456500Y10153000D01*
X19523539Y10133315D01*
G37*
%TD.AperFunction*%
%TD*%
%TA.AperFunction,Conductor*%
%TO.N,Net-(U6-VDD)*%
G36*
X11831073Y9934815D02*
G01*
X11876828Y9882011D01*
X11886772Y9812853D01*
X11883779Y9800614D01*
X11883964Y9800573D01*
X11882353Y9793200D01*
X11879500Y9762770D01*
X11879500Y8954231D01*
X11882353Y8923801D01*
X11882353Y8923799D01*
X11930276Y8786847D01*
X11927704Y8785948D01*
X11938000Y8744445D01*
X11938000Y7969199D01*
X11918315Y7902160D01*
X11914921Y7897151D01*
X11914804Y7896989D01*
X11863426Y7791892D01*
X11853500Y7723761D01*
X11853500Y6728000D01*
X11833815Y6660961D01*
X11781011Y6615206D01*
X11729500Y6604000D01*
X11078500Y6604000D01*
X11011461Y6623685D01*
X10965706Y6676489D01*
X10954500Y6728000D01*
X10954500Y7723761D01*
X10944573Y7791892D01*
X10944573Y7791893D01*
X10893198Y7896983D01*
X10893196Y7896985D01*
X10893196Y7896986D01*
X10810485Y7979697D01*
X10705391Y8031074D01*
X10637261Y8041000D01*
X10637260Y8041000D01*
X10270740Y8041000D01*
X10270739Y8041000D01*
X10202608Y8031074D01*
X10097514Y7979697D01*
X10014803Y7896986D01*
X9963426Y7791892D01*
X9953844Y7726122D01*
X9924700Y7662621D01*
X9865851Y7624957D01*
X9831140Y7620000D01*
X9652000Y7620000D01*
X9652000Y6982000D01*
X9632315Y6914961D01*
X9579511Y6869206D01*
X9528000Y6858000D01*
X7949500Y6858000D01*
X7882461Y6877685D01*
X7836706Y6930489D01*
X7825500Y6982000D01*
X7825500Y7188448D01*
X7825499Y7188451D01*
X7819454Y7237924D01*
X7819454Y7237925D01*
X7809757Y7277012D01*
X7807800Y7284897D01*
X7806243Y7298721D01*
X7799808Y7317110D01*
X7799655Y7317728D01*
X7799270Y7318649D01*
X7773959Y7390982D01*
X7767000Y7431937D01*
X7767000Y8173060D01*
X7767039Y8173331D01*
X7767001Y8173463D01*
X7767379Y8175667D01*
X7772137Y8208381D01*
X7772977Y8211211D01*
X7806244Y8306279D01*
X7816483Y8351135D01*
X7816176Y8353856D01*
X7819462Y8367108D01*
X7825500Y8416557D01*
X7825500Y8471251D01*
X7845185Y8538290D01*
X7875100Y8570451D01*
X8107092Y8744445D01*
X9687433Y9929701D01*
X9752875Y9954176D01*
X9761833Y9954500D01*
X11764034Y9954500D01*
X11831073Y9934815D01*
G37*
%TD.AperFunction*%
%TD*%
%TA.AperFunction,Conductor*%
%TO.N,Net-(U6-VOUT)*%
G36*
X17697039Y14458315D02*
G01*
X17742794Y14405511D01*
X17754000Y14354000D01*
X17754000Y8506000D01*
X17734315Y8438961D01*
X17681511Y8393206D01*
X17630000Y8382000D01*
X13690000Y8382000D01*
X13690000Y8021206D01*
X13670315Y7954167D01*
X13665770Y7947573D01*
X13599209Y7857387D01*
X13599206Y7857381D01*
X13554353Y7729202D01*
X13554353Y7729200D01*
X13551500Y7698770D01*
X13551500Y6890231D01*
X13554353Y6859801D01*
X13554353Y6859799D01*
X13586142Y6768955D01*
X13589704Y6699176D01*
X13554976Y6638549D01*
X13492983Y6606321D01*
X13469101Y6604000D01*
X12183000Y6604000D01*
X12115961Y6623685D01*
X12070206Y6676489D01*
X12059000Y6728000D01*
X12059000Y7695360D01*
X12061342Y7706056D01*
X12060314Y7713362D01*
X12069307Y7742416D01*
X12070355Y7747197D01*
X12070955Y7748502D01*
X12099424Y7806735D01*
X12098102Y7807382D01*
X12115490Y7844262D01*
X12135175Y7911301D01*
X12143500Y7969199D01*
X12143500Y8744445D01*
X12137454Y8793925D01*
X12127158Y8835428D01*
X12125800Y8840897D01*
X12124243Y8854721D01*
X12117808Y8873110D01*
X12117655Y8873728D01*
X12117270Y8874649D01*
X12091959Y8946982D01*
X12085000Y8987937D01*
X12085000Y9745508D01*
X12085435Y9755891D01*
X12085978Y9762355D01*
X12086390Y9764037D01*
X12086760Y9771660D01*
X12086940Y9773801D01*
X12086966Y9773870D01*
X12087047Y9775000D01*
X12089820Y9804567D01*
X12089206Y9822059D01*
X12089910Y9836527D01*
X12112829Y9902530D01*
X12167794Y9945665D01*
X12213763Y9954500D01*
X13840285Y9954500D01*
X13840298Y9954500D01*
X13860177Y9955464D01*
X13860185Y9955465D01*
X13860189Y9955465D01*
X13860191Y9955465D01*
X13875698Y9956973D01*
X13884058Y9957785D01*
X13958966Y9979987D01*
X14020960Y10012215D01*
X14042513Y10025153D01*
X14104490Y10092406D01*
X14139218Y10153033D01*
X14150355Y10175568D01*
X14166134Y10265652D01*
X14162572Y10335431D01*
X14151307Y10392828D01*
X14137667Y10431807D01*
X14123958Y10470989D01*
X14117000Y10511942D01*
X14117000Y11253060D01*
X14117621Y11256775D01*
X14117132Y11258782D01*
X14123208Y11290141D01*
X14123762Y11293448D01*
X14123840Y11293676D01*
X14156244Y11386279D01*
X14157229Y11390599D01*
X14159396Y11396886D01*
X14175887Y11420117D01*
X14189779Y11444998D01*
X14195855Y11448243D01*
X14199842Y11453858D01*
X14226277Y11464485D01*
X14251414Y11477906D01*
X14260351Y11478183D01*
X14264670Y11479919D01*
X14271881Y11478540D01*
X14294290Y11479234D01*
X14299492Y11478486D01*
X15369992Y11478460D01*
X15413678Y11483156D01*
X15465192Y11494362D01*
X15475373Y11496850D01*
X15556085Y11539860D01*
X15608889Y11585615D01*
X15626843Y11603206D01*
X15667817Y11676458D01*
X15717724Y11725356D01*
X15732274Y11729112D01*
X15742338Y11739412D01*
X15742341Y11739412D01*
X15722928Y14353079D01*
X15742115Y14420263D01*
X15794577Y14466409D01*
X15846925Y14478000D01*
X17630000Y14478000D01*
X17697039Y14458315D01*
G37*
%TD.AperFunction*%
%TD*%
%TA.AperFunction,Conductor*%
%TO.N,Net-(Q4-E)*%
G36*
X5911426Y15982315D02*
G01*
X5946276Y15944497D01*
X5947960Y15945653D01*
X5951901Y15939914D01*
X5997660Y15887105D01*
X6015242Y15869161D01*
X6015246Y15869157D01*
X6015247Y15869156D01*
X6015249Y15869155D01*
X6095059Y15824512D01*
X6095063Y15824510D01*
X6162102Y15804825D01*
X6220000Y15796500D01*
X6220004Y15796500D01*
X7143554Y15796500D01*
X7210593Y15776815D01*
X7255816Y15725162D01*
X7266120Y15703195D01*
X7266121Y15703194D01*
X7266122Y15703192D01*
X7326716Y15634690D01*
X7383483Y15593975D01*
X7383488Y15593972D01*
X7383491Y15593970D01*
X7383495Y15593968D01*
X7383500Y15593965D01*
X7406104Y15582214D01*
X7422541Y15571964D01*
X7468161Y15538296D01*
X7494298Y15512159D01*
X7510512Y15490190D01*
X7515957Y15482811D01*
X7533223Y15450142D01*
X7546039Y15413522D01*
X7553000Y15372561D01*
X7553000Y14631441D01*
X7552305Y14627352D01*
X7552839Y14625118D01*
X7546041Y14590485D01*
X7533228Y14553869D01*
X7515958Y14521193D01*
X7494296Y14491841D01*
X7468156Y14465701D01*
X7438810Y14444044D01*
X7406138Y14426776D01*
X7369516Y14413960D01*
X7328557Y14407000D01*
X7235992Y14407000D01*
X7192313Y14402303D01*
X7140825Y14391103D01*
X7130627Y14388610D01*
X7130624Y14388609D01*
X7049916Y14345601D01*
X7049913Y14345599D01*
X6997104Y14299840D01*
X6979160Y14282258D01*
X6979154Y14282251D01*
X6934511Y14202441D01*
X6934509Y14202436D01*
X6914826Y14135404D01*
X6914825Y14135399D01*
X6914825Y14135398D01*
X6906500Y14077500D01*
X6906500Y12966750D01*
X6910449Y12926659D01*
X6919889Y12879200D01*
X6922921Y12869206D01*
X6925877Y12857405D01*
X6944617Y12763200D01*
X6947000Y12739007D01*
X6947000Y12660998D01*
X6944617Y12636804D01*
X6925876Y12542596D01*
X6922924Y12530810D01*
X6919890Y12520807D01*
X6919884Y12520781D01*
X6910450Y12473357D01*
X6908282Y12451340D01*
X6882119Y12386553D01*
X6844308Y12354666D01*
X6810207Y12336045D01*
X6763387Y12300998D01*
X6761035Y12298959D01*
X6748739Y12289584D01*
X6683464Y12245968D01*
X6662026Y12234509D01*
X6589962Y12204659D01*
X6566701Y12197603D01*
X6554853Y12195247D01*
X6554841Y12195244D01*
X6552664Y12194810D01*
X6552656Y12194809D01*
X6550507Y12194382D01*
X6526323Y12192000D01*
X5877673Y12192000D01*
X5853482Y12194383D01*
X5837296Y12197603D01*
X5814041Y12204658D01*
X5741969Y12234511D01*
X5720531Y12245970D01*
X5655057Y12289718D01*
X5641085Y12300571D01*
X5640623Y12300986D01*
X5640614Y12300995D01*
X5624250Y12315693D01*
X5616653Y12321815D01*
X5603608Y12332328D01*
X5532563Y12369491D01*
X5465531Y12389174D01*
X5464882Y12389268D01*
X5407626Y12397500D01*
X3680000Y12397500D01*
X3612961Y12417185D01*
X3567206Y12469989D01*
X3556000Y12521500D01*
X3556000Y15878000D01*
X3575685Y15945039D01*
X3628489Y15990794D01*
X3680000Y16002000D01*
X5844387Y16002000D01*
X5911426Y15982315D01*
G37*
%TD.AperFunction*%
%TD*%
%TA.AperFunction,Conductor*%
%TO.N,Net-(R24-Pad1)*%
G36*
X17771539Y16538815D02*
G01*
X17817294Y16486011D01*
X17828500Y16434500D01*
X17828500Y15110000D01*
X17808815Y15042961D01*
X17756011Y14997206D01*
X17704500Y14986000D01*
X13729000Y14986000D01*
X13661961Y15005685D01*
X13616206Y15058489D01*
X13605000Y15110000D01*
X13605000Y15885560D01*
X13605694Y15889648D01*
X13605161Y15891880D01*
X13611958Y15926513D01*
X13620785Y15951741D01*
X13636417Y15996417D01*
X13640293Y16001820D01*
X13643726Y16015661D01*
X13647039Y16026770D01*
X13650194Y16035789D01*
X13649976Y16037117D01*
X13652690Y16051808D01*
X13661458Y16087158D01*
X13667500Y16136625D01*
X13667500Y16434500D01*
X13687185Y16501539D01*
X13739989Y16547294D01*
X13791500Y16558500D01*
X17704500Y16558500D01*
X17771539Y16538815D01*
G37*
%TD.AperFunction*%
%TD*%
%TA.AperFunction,Conductor*%
%TO.N,/power_switch_bbA/VBATT*%
G36*
X27883039Y19284315D02*
G01*
X27928794Y19231511D01*
X27940000Y19180000D01*
X27940000Y12136500D01*
X31092000Y12136500D01*
X31159039Y12116815D01*
X31204794Y12064011D01*
X31216000Y12012500D01*
X31216000Y7942500D01*
X31196315Y7875461D01*
X31143511Y7829706D01*
X31092000Y7818500D01*
X30569333Y7818500D01*
X30502294Y7838185D01*
X30492020Y7845553D01*
X30488166Y7848627D01*
X30416663Y7905649D01*
X30327504Y7926000D01*
X30327500Y7926000D01*
X28543182Y7926000D01*
X28476143Y7945685D01*
X28430388Y7998489D01*
X28420444Y8067647D01*
X28449469Y8131203D01*
X28495729Y8164561D01*
X28500726Y8166633D01*
X28500731Y8166633D01*
X28567052Y8210948D01*
X28611367Y8277269D01*
X28611367Y8277271D01*
X28611368Y8277271D01*
X28622999Y8335748D01*
X28623000Y8335750D01*
X28623000Y9365251D01*
X28622999Y9365253D01*
X28611368Y9423730D01*
X28611367Y9423731D01*
X28567052Y9490053D01*
X28500730Y9534368D01*
X28500729Y9534369D01*
X28442252Y9546000D01*
X28442248Y9546000D01*
X28292000Y9546000D01*
X28224961Y9565685D01*
X28179206Y9618489D01*
X28168000Y9670000D01*
X28168000Y10104500D01*
X26839363Y10104500D01*
X26798408Y10111459D01*
X26670700Y10156147D01*
X26640270Y10159000D01*
X26640266Y10159000D01*
X25631734Y10159000D01*
X25631730Y10159000D01*
X25601300Y10156147D01*
X25601299Y10156147D01*
X25541451Y10135205D01*
X25471672Y10131644D01*
X25411046Y10166374D01*
X25378819Y10228367D01*
X25376507Y10253741D01*
X25398515Y12069505D01*
X25419011Y12136299D01*
X25472365Y12181410D01*
X25522506Y12192000D01*
X26416000Y12192000D01*
X26416000Y19180000D01*
X26435685Y19247039D01*
X26488489Y19292794D01*
X26540000Y19304000D01*
X27816000Y19304000D01*
X27883039Y19284315D01*
G37*
%TD.AperFunction*%
%TD*%
M02*
