%TF.GenerationSoftware,KiCad,Pcbnew,9.0.0-rc1-104-g6c47f32ccf*%
%TF.CreationDate,2025-01-02T15:12:58+01:00*%
%TF.ProjectId,breakoutpcbs,62726561-6b6f-4757-9470-6362732e6b69,rev?*%
%TF.SameCoordinates,PX6d3f490PY6676f50*%
%TF.FileFunction,Copper,L1,Top*%
%TF.FilePolarity,Positive*%
%FSLAX46Y46*%
G04 Gerber Fmt 4.6, Leading zero omitted, Abs format (unit mm)*
G04 Created by KiCad (PCBNEW 9.0.0-rc1-104-g6c47f32ccf) date 2025-01-02 15:12:58*
%MOMM*%
%LPD*%
G01*
G04 APERTURE LIST*
G04 Aperture macros list*
%AMRoundRect*
0 Rectangle with rounded corners*
0 $1 Rounding radius*
0 $2 $3 $4 $5 $6 $7 $8 $9 X,Y pos of 4 corners*
0 Add a 4 corners polygon primitive as box body*
4,1,4,$2,$3,$4,$5,$6,$7,$8,$9,$2,$3,0*
0 Add four circle primitives for the rounded corners*
1,1,$1+$1,$2,$3*
1,1,$1+$1,$4,$5*
1,1,$1+$1,$6,$7*
1,1,$1+$1,$8,$9*
0 Add four rect primitives between the rounded corners*
20,1,$1+$1,$2,$3,$4,$5,0*
20,1,$1+$1,$4,$5,$6,$7,0*
20,1,$1+$1,$6,$7,$8,$9,0*
20,1,$1+$1,$8,$9,$2,$3,0*%
G04 Aperture macros list end*
%TA.AperFunction,SMDPad,CuDef*%
%ADD10RoundRect,0.250000X-0.450000X0.350000X-0.450000X-0.350000X0.450000X-0.350000X0.450000X0.350000X0*%
%TD*%
%TA.AperFunction,ComponentPad*%
%ADD11R,1.050000X1.500000*%
%TD*%
%TA.AperFunction,ComponentPad*%
%ADD12O,1.050000X1.500000*%
%TD*%
%TA.AperFunction,SMDPad,CuDef*%
%ADD13RoundRect,0.150000X-0.512500X-0.150000X0.512500X-0.150000X0.512500X0.150000X-0.512500X0.150000X0*%
%TD*%
%TA.AperFunction,SMDPad,CuDef*%
%ADD14RoundRect,0.250000X2.050000X0.300000X-2.050000X0.300000X-2.050000X-0.300000X2.050000X-0.300000X0*%
%TD*%
%TA.AperFunction,SMDPad,CuDef*%
%ADD15RoundRect,0.250000X2.025000X2.375000X-2.025000X2.375000X-2.025000X-2.375000X2.025000X-2.375000X0*%
%TD*%
%TA.AperFunction,SMDPad,CuDef*%
%ADD16RoundRect,0.250002X4.449998X5.149998X-4.449998X5.149998X-4.449998X-5.149998X4.449998X-5.149998X0*%
%TD*%
%TA.AperFunction,SMDPad,CuDef*%
%ADD17RoundRect,0.250000X0.450000X-0.350000X0.450000X0.350000X-0.450000X0.350000X-0.450000X-0.350000X0*%
%TD*%
%TA.AperFunction,SMDPad,CuDef*%
%ADD18RoundRect,0.250000X-0.475000X0.337500X-0.475000X-0.337500X0.475000X-0.337500X0.475000X0.337500X0*%
%TD*%
%TA.AperFunction,SMDPad,CuDef*%
%ADD19R,3.150000X1.000000*%
%TD*%
%TA.AperFunction,SMDPad,CuDef*%
%ADD20RoundRect,0.150000X0.512500X0.150000X-0.512500X0.150000X-0.512500X-0.150000X0.512500X-0.150000X0*%
%TD*%
%TA.AperFunction,SMDPad,CuDef*%
%ADD21RoundRect,0.150000X0.587500X0.150000X-0.587500X0.150000X-0.587500X-0.150000X0.587500X-0.150000X0*%
%TD*%
%TA.AperFunction,SMDPad,CuDef*%
%ADD22RoundRect,0.250000X0.337500X0.475000X-0.337500X0.475000X-0.337500X-0.475000X0.337500X-0.475000X0*%
%TD*%
%TA.AperFunction,SMDPad,CuDef*%
%ADD23R,2.510000X1.000000*%
%TD*%
%TA.AperFunction,Conductor*%
%ADD24C,0.600000*%
%TD*%
G04 APERTURE END LIST*
D10*
%TO.P,R9,1*%
%TO.N,GND2*%
X30226000Y11414000D03*
%TO.P,R9,2*%
%TO.N,Net-(Q1-B)*%
X30226000Y9414000D03*
%TD*%
D11*
%TO.P,Q1,1,C*%
%TO.N,/power_switch_bbB/RUNNING*%
X23368000Y11303000D03*
D12*
%TO.P,Q1,2,B*%
%TO.N,Net-(Q1-B)*%
X22098000Y11303000D03*
%TO.P,Q1,3,E*%
%TO.N,Net-(Q1-E)*%
X20828000Y11303000D03*
%TD*%
D13*
%TO.P,U5,1,VDD*%
%TO.N,Net-(U4-VOUT)*%
X25924500Y16510000D03*
%TO.P,U5,2,GND*%
%TO.N,GND2*%
X25924500Y15560000D03*
%TO.P,U5,3,EN*%
%TO.N,/power_switch_bbB/RUNNING*%
X25924500Y14610000D03*
%TO.P,U5,4,NC*%
%TO.N,unconnected-(U5-NC-Pad4)*%
X28199500Y14610000D03*
%TO.P,U5,5,OUT*%
%TO.N,+3V3_1*%
X28199500Y16510000D03*
%TD*%
D14*
%TO.P,U3,1,IN*%
%TO.N,/power_switch_bbB/ONOFF*%
X14478000Y7493000D03*
D15*
%TO.P,U3,2,GND*%
%TO.N,GND2*%
X7753000Y7258000D03*
X7753000Y12808000D03*
D16*
X5328000Y10033000D03*
D15*
X2903000Y7258000D03*
X2903000Y12808000D03*
D14*
%TO.P,U3,3,OUT*%
%TO.N,+5V*%
X14478000Y12573000D03*
%TD*%
D17*
%TO.P,R10,1*%
%TO.N,GND2*%
X20701000Y5207000D03*
%TO.P,R10,2*%
%TO.N,Net-(Q1-E)*%
X20701000Y7207000D03*
%TD*%
D18*
%TO.P,C3,1*%
%TO.N,Net-(U4-VOUT)*%
X23754500Y17823000D03*
%TO.P,C3,2*%
%TO.N,GND2*%
X23754500Y15748000D03*
%TD*%
D19*
%TO.P,J4,1,Pin_1*%
%TO.N,/power_switch_bbB/ONOFF*%
X13574000Y2540000D03*
%TO.P,J4,2,Pin_2*%
%TO.N,GND2*%
X8524000Y2540000D03*
%TD*%
D20*
%TO.P,U2,1,VOUT*%
%TO.N,/power_switch_bbB/EN*%
X32633500Y5146000D03*
%TO.P,U2,2,VDD*%
%TO.N,/power_switch_bbB/VBUS*%
X32633500Y6096000D03*
%TO.P,U2,3,GND*%
%TO.N,GND2*%
X32633500Y7046000D03*
%TO.P,U2,4*%
%TO.N,N/C*%
X30358500Y7046000D03*
%TO.P,U2,5*%
X30358500Y5146000D03*
%TD*%
D21*
%TO.P,Q2,1,B*%
%TO.N,Net-(Q1-B)*%
X28067000Y9530000D03*
%TO.P,Q2,2,E*%
%TO.N,GND2*%
X28067000Y11430000D03*
%TO.P,Q2,3,C*%
%TO.N,/power_switch_bbB/RUNNING*%
X26192000Y10480000D03*
%TD*%
D18*
%TO.P,C1,1*%
%TO.N,/power_switch_bbB/ONOFF*%
X18288000Y7282000D03*
%TO.P,C1,2*%
%TO.N,GND2*%
X18288000Y5207000D03*
%TD*%
D22*
%TO.P,C2,1*%
%TO.N,+5V*%
X16150500Y16764000D03*
%TO.P,C2,2*%
%TO.N,GND2*%
X14075500Y16764000D03*
%TD*%
D23*
%TO.P,J3,1,Pin_1*%
%TO.N,+5V*%
X35806000Y18415000D03*
%TO.P,J3,2,Pin_2*%
%TO.N,+3V3_1*%
X39116000Y15875000D03*
%TO.P,J3,3,Pin_3*%
%TO.N,/power_switch_bbB/RUNNING*%
X35806000Y13335000D03*
%TO.P,J3,4,Pin_4*%
%TO.N,/power_switch_bbB/EN*%
X39116000Y10795000D03*
%TO.P,J3,5,Pin_5*%
%TO.N,/power_switch_bbB/VBUS*%
X35806000Y8255000D03*
%TO.P,J3,6,Pin_6*%
%TO.N,/power_switch_bbB/EN*%
X39116000Y5715000D03*
%TO.P,J3,7,Pin_7*%
%TO.N,GND2*%
X35806000Y3175000D03*
%TD*%
D17*
%TO.P,R7,1*%
%TO.N,/power_switch_bbB/EN*%
X23114000Y5207000D03*
%TO.P,R7,2*%
%TO.N,Net-(Q1-E)*%
X23114000Y7207000D03*
%TD*%
%TO.P,R6,1*%
%TO.N,/power_switch_bbB/EN*%
X25527000Y5207000D03*
%TO.P,R6,2*%
%TO.N,Net-(Q1-B)*%
X25527000Y7207000D03*
%TD*%
D13*
%TO.P,U4,1,VIN*%
%TO.N,+5V*%
X19315000Y16505000D03*
%TO.P,U4,2,GND*%
%TO.N,GND2*%
X19315000Y15555000D03*
%TO.P,U4,3,CE*%
%TO.N,/power_switch_bbB/RUNNING*%
X19315000Y14605000D03*
%TO.P,U4,4,NC*%
%TO.N,unconnected-(U4-NC-Pad4)*%
X21590000Y14605000D03*
%TO.P,U4,5,VOUT*%
%TO.N,Net-(U4-VOUT)*%
X21590000Y16505000D03*
%TD*%
D17*
%TO.P,R5,1*%
%TO.N,/power_switch_bbB/EN*%
X27940000Y5207000D03*
%TO.P,R5,2*%
%TO.N,/power_switch_bbB/VBUS*%
X27940000Y7207000D03*
%TD*%
D10*
%TO.P,R8,1*%
%TO.N,/power_switch_bbB/RUNNING*%
X18161000Y11525000D03*
%TO.P,R8,2*%
%TO.N,+5V*%
X18161000Y9525000D03*
%TD*%
D24*
%TO.N,/power_switch_bbB/VBUS*%
X32633500Y6096000D02*
X29051000Y6096000D01*
X29051000Y6096000D02*
X27940000Y7207000D01*
%TD*%
%TA.AperFunction,Conductor*%
%TO.N,/power_switch_bbB/RUNNING*%
G36*
X20679474Y14966315D02*
G01*
X20725229Y14913511D01*
X20735173Y14844353D01*
X20735139Y14844122D01*
X20727000Y14788261D01*
X20727000Y14421740D01*
X20736926Y14353609D01*
X20788303Y14248515D01*
X20871014Y14165804D01*
X20871015Y14165804D01*
X20871017Y14165802D01*
X20976107Y14114427D01*
X21009923Y14109500D01*
X21044239Y14104500D01*
X21044240Y14104500D01*
X22135761Y14104500D01*
X22170077Y14109500D01*
X22203893Y14114427D01*
X22308983Y14165802D01*
X22391698Y14248517D01*
X22443073Y14353607D01*
X22453000Y14421740D01*
X22453000Y14788260D01*
X22452271Y14793260D01*
X22444861Y14844122D01*
X22454674Y14913299D01*
X22500329Y14966189D01*
X22567332Y14986000D01*
X23107584Y14986000D01*
X23148539Y14979041D01*
X23194798Y14962855D01*
X23194800Y14962854D01*
X23225230Y14960000D01*
X23225234Y14960000D01*
X24283770Y14960000D01*
X24314199Y14962854D01*
X24327920Y14967656D01*
X24360461Y14979041D01*
X24401416Y14986000D01*
X27221206Y14986000D01*
X27288245Y14966315D01*
X27334000Y14913511D01*
X27343944Y14844353D01*
X27336500Y14793260D01*
X27336500Y14793256D01*
X27336500Y14426740D01*
X27346426Y14358609D01*
X27346427Y14358607D01*
X27397802Y14253517D01*
X27397803Y14253516D01*
X27397804Y14253514D01*
X27403773Y14245153D01*
X27402068Y14243937D01*
X27429164Y14194327D01*
X27432000Y14167957D01*
X27432000Y14097000D01*
X37087000Y14097000D01*
X37154039Y14077315D01*
X37199794Y14024511D01*
X37211000Y13973000D01*
X37211000Y12951000D01*
X37191315Y12883961D01*
X37138511Y12838206D01*
X37087000Y12827000D01*
X27051000Y12827000D01*
X27051000Y10354613D01*
X27043958Y10330632D01*
X27040993Y10305811D01*
X27034283Y10297684D01*
X27031315Y10287574D01*
X27012428Y10271209D01*
X26996513Y10251929D01*
X26983761Y10246369D01*
X26978511Y10241819D01*
X26964767Y10236504D01*
X26955625Y10233581D01*
X26952394Y10233212D01*
X26897934Y10220613D01*
X26853998Y10205021D01*
X26830708Y10193637D01*
X26822123Y10190891D01*
X26808403Y10190564D01*
X26784356Y10185000D01*
X25599645Y10185000D01*
X25545188Y10197598D01*
X25530000Y10205023D01*
X25486063Y10220614D01*
X25486058Y10220616D01*
X25431614Y10233211D01*
X25431611Y10233212D01*
X25385288Y10238500D01*
X23060103Y10238500D01*
X22993064Y10258185D01*
X22947309Y10310989D01*
X22943107Y10321415D01*
X22937740Y10336696D01*
X22937322Y10344511D01*
X22934486Y10370878D01*
X22910521Y10447398D01*
X22884093Y10495790D01*
X22882745Y10495054D01*
X22876099Y10512464D01*
X22873085Y10516975D01*
X22867355Y10526440D01*
X22863168Y10534108D01*
X22848000Y10593534D01*
X22848000Y12040307D01*
X22850379Y12064479D01*
X22851792Y12071588D01*
X22857619Y12091762D01*
X22862241Y12103823D01*
X22866300Y12115449D01*
X22872805Y12194997D01*
X22873754Y12206597D01*
X22873754Y12206599D01*
X22863810Y12275755D01*
X22863810Y12275758D01*
X22858718Y12300373D01*
X22815708Y12381085D01*
X22769953Y12433889D01*
X22769947Y12433896D01*
X22752365Y12451840D01*
X22752364Y12451841D01*
X22752362Y12451843D01*
X22752360Y12451844D01*
X22752358Y12451846D01*
X22672548Y12496489D01*
X22672543Y12496491D01*
X22605511Y12516174D01*
X22605507Y12516175D01*
X22605506Y12516175D01*
X22547608Y12524500D01*
X21587000Y12524500D01*
X21586992Y12524500D01*
X21543313Y12519803D01*
X21491825Y12508603D01*
X21481627Y12506110D01*
X21481623Y12506109D01*
X21418271Y12472350D01*
X21349850Y12458196D01*
X21299426Y12473563D01*
X21258437Y12496490D01*
X21258435Y12496491D01*
X21191403Y12516174D01*
X21191399Y12516175D01*
X21191398Y12516175D01*
X21133500Y12524500D01*
X19428000Y12524500D01*
X19427992Y12524500D01*
X19384313Y12519803D01*
X19332825Y12508603D01*
X19322627Y12506110D01*
X19322624Y12506109D01*
X19241916Y12463101D01*
X19241913Y12463099D01*
X19189104Y12417340D01*
X19171160Y12399758D01*
X19171154Y12399751D01*
X19126511Y12319941D01*
X19126509Y12319936D01*
X19106826Y12252904D01*
X19106825Y12252899D01*
X19106825Y12252898D01*
X19100894Y12211646D01*
X19098500Y12194997D01*
X19098500Y10919000D01*
X19078815Y10851961D01*
X19026011Y10806206D01*
X18974500Y10795000D01*
X17523000Y10795000D01*
X17455961Y10814685D01*
X17410206Y10867489D01*
X17399000Y10919000D01*
X17399000Y13084000D01*
X17418685Y13151039D01*
X17471489Y13196794D01*
X17523000Y13208000D01*
X18542000Y13208000D01*
X18542000Y14862000D01*
X18561685Y14929039D01*
X18614489Y14974794D01*
X18666000Y14986000D01*
X20612435Y14986000D01*
X20679474Y14966315D01*
G37*
%TD.AperFunction*%
%TD*%
%TA.AperFunction,Conductor*%
%TO.N,Net-(Q1-E)*%
G36*
X21200539Y12299315D02*
G01*
X21246294Y12246511D01*
X21257500Y12195000D01*
X21257500Y11915466D01*
X21261449Y11875368D01*
X21270886Y11827925D01*
X21282584Y11789362D01*
X21323342Y11690961D01*
X21330398Y11667703D01*
X21345617Y11591200D01*
X21348000Y11567006D01*
X21348000Y11038996D01*
X21345617Y11014803D01*
X21330398Y10938299D01*
X21323343Y10915041D01*
X21297584Y10852850D01*
X21282581Y10816630D01*
X21270886Y10778076D01*
X21261449Y10730633D01*
X21257500Y10690535D01*
X21257500Y8124993D01*
X21262197Y8081314D01*
X21273397Y8029826D01*
X21275890Y8019628D01*
X21275891Y8019625D01*
X21318899Y7938917D01*
X21318901Y7938914D01*
X21364660Y7886105D01*
X21382242Y7868161D01*
X21382246Y7868157D01*
X21382247Y7868156D01*
X21382249Y7868155D01*
X21462059Y7823512D01*
X21462063Y7823510D01*
X21529102Y7803825D01*
X21587000Y7795500D01*
X21587004Y7795500D01*
X22549209Y7795500D01*
X22549223Y7795500D01*
X22571276Y7796687D01*
X22597736Y7799543D01*
X22598984Y7799747D01*
X22599813Y7799881D01*
X22608172Y7800952D01*
X22613583Y7801459D01*
X22625151Y7802000D01*
X23602853Y7802000D01*
X23614409Y7801461D01*
X23619835Y7800952D01*
X23628171Y7799884D01*
X23630264Y7799543D01*
X23656724Y7796687D01*
X23678777Y7795500D01*
X23678789Y7795500D01*
X23680441Y7795411D01*
X23680398Y7794628D01*
X23744096Y7774134D01*
X23788480Y7720173D01*
X23797961Y7681999D01*
X23800402Y7653062D01*
X23800404Y7653049D01*
X23807248Y7612764D01*
X23809000Y7591996D01*
X23809000Y6822005D01*
X23808832Y6815561D01*
X23808313Y6805596D01*
X23807361Y6801900D01*
X23800403Y6760947D01*
X23797500Y6726525D01*
X23797500Y6601000D01*
X23797596Y6599646D01*
X23797332Y6594556D01*
X23786784Y6564508D01*
X23777815Y6533961D01*
X23775296Y6531779D01*
X23774191Y6528630D01*
X23749059Y6509045D01*
X23725011Y6488206D01*
X23721279Y6487395D01*
X23719081Y6485681D01*
X23709317Y6484792D01*
X23673500Y6477000D01*
X19633500Y6477000D01*
X19566461Y6496685D01*
X19520706Y6549489D01*
X19509500Y6601000D01*
X19509500Y8257992D01*
X19509499Y8258008D01*
X19504803Y8301684D01*
X19500897Y8319636D01*
X19493602Y8353175D01*
X19493348Y8354211D01*
X19491110Y8363373D01*
X19448100Y8444085D01*
X19402345Y8496889D01*
X19402339Y8496896D01*
X19384757Y8514840D01*
X19384756Y8514841D01*
X19384754Y8514843D01*
X19367462Y8524516D01*
X19318566Y8574423D01*
X19304000Y8632734D01*
X19304000Y12195000D01*
X19323685Y12262039D01*
X19376489Y12307794D01*
X19428000Y12319000D01*
X21133500Y12319000D01*
X21200539Y12299315D01*
G37*
%TD.AperFunction*%
%TD*%
%TA.AperFunction,Conductor*%
%TO.N,/power_switch_bbB/ONOFF*%
G36*
X19247039Y8362315D02*
G01*
X19292794Y8309511D01*
X19304000Y8258000D01*
X19304000Y6601000D01*
X19284315Y6533961D01*
X19231511Y6488206D01*
X19180000Y6477000D01*
X15494000Y6477000D01*
X15494000Y1521000D01*
X15474315Y1453961D01*
X15421511Y1408206D01*
X15370000Y1397000D01*
X11935000Y1397000D01*
X11867961Y1416685D01*
X11822206Y1469489D01*
X11811000Y1521000D01*
X11811000Y8258000D01*
X11830685Y8325039D01*
X11883489Y8370794D01*
X11935000Y8382000D01*
X19180000Y8382000D01*
X19247039Y8362315D01*
G37*
%TD.AperFunction*%
%TD*%
%TA.AperFunction,Conductor*%
%TO.N,/power_switch_bbB/EN*%
G36*
X40583039Y11537315D02*
G01*
X40628794Y11484511D01*
X40640000Y11433000D01*
X40640000Y3807000D01*
X40620315Y3739961D01*
X40567511Y3694206D01*
X40516000Y3683000D01*
X37361812Y3683000D01*
X37294773Y3702685D01*
X37258628Y3744398D01*
X37256652Y3743077D01*
X37205552Y3819553D01*
X37139230Y3863868D01*
X37139229Y3863869D01*
X37080752Y3875500D01*
X37080748Y3875500D01*
X34531252Y3875500D01*
X34531247Y3875500D01*
X34472770Y3863869D01*
X34472769Y3863868D01*
X34406447Y3819553D01*
X34355348Y3743077D01*
X34352831Y3744759D01*
X34320905Y3705142D01*
X34254610Y3683079D01*
X34250188Y3683000D01*
X22349000Y3683000D01*
X22281961Y3702685D01*
X22236206Y3755489D01*
X22225000Y3807000D01*
X22225000Y5718000D01*
X22244685Y5785039D01*
X22297489Y5830794D01*
X22349000Y5842000D01*
X28545825Y5842000D01*
X28575265Y5833356D01*
X28605252Y5826832D01*
X28610267Y5823078D01*
X28612864Y5822315D01*
X28633506Y5805681D01*
X28646159Y5793028D01*
X28646169Y5793017D01*
X28650499Y5788687D01*
X28650500Y5788686D01*
X28743686Y5695500D01*
X28845750Y5636573D01*
X28845749Y5636573D01*
X28857807Y5629612D01*
X28857814Y5629608D01*
X28985107Y5595500D01*
X28985108Y5595500D01*
X29403631Y5595500D01*
X29470670Y5575815D01*
X29516425Y5523011D01*
X29526369Y5453853D01*
X29515032Y5417042D01*
X29514515Y5415982D01*
X29505426Y5397392D01*
X29495500Y5329261D01*
X29495500Y4962740D01*
X29505426Y4894609D01*
X29556803Y4789515D01*
X29639514Y4706804D01*
X29639515Y4706804D01*
X29639517Y4706802D01*
X29744607Y4655427D01*
X29778673Y4650464D01*
X29812739Y4645500D01*
X29812740Y4645500D01*
X30904261Y4645500D01*
X30926971Y4648809D01*
X30972393Y4655427D01*
X31077483Y4706802D01*
X31160198Y4789517D01*
X31211573Y4894607D01*
X31221500Y4962740D01*
X31221500Y5329260D01*
X31211573Y5397393D01*
X31201967Y5417041D01*
X31201682Y5418711D01*
X31200575Y5419989D01*
X31195828Y5452998D01*
X31190209Y5485913D01*
X31190871Y5487472D01*
X31190631Y5489147D01*
X31204493Y5519502D01*
X31217553Y5550210D01*
X31218952Y5551163D01*
X31219656Y5552703D01*
X31247735Y5570749D01*
X31275317Y5589517D01*
X31277465Y5589855D01*
X31278434Y5590477D01*
X31313369Y5595500D01*
X31494390Y5595500D01*
X31561429Y5575815D01*
X31603821Y5529816D01*
X31605897Y5525921D01*
X31605901Y5525914D01*
X31651660Y5473105D01*
X31669242Y5455161D01*
X31669246Y5455157D01*
X31669247Y5455156D01*
X31669249Y5455155D01*
X31739284Y5415980D01*
X31749063Y5410510D01*
X31816102Y5390825D01*
X31874000Y5382500D01*
X31874004Y5382500D01*
X31891561Y5382500D01*
X31920807Y5384592D01*
X31955742Y5389615D01*
X31964951Y5393051D01*
X31980003Y5398638D01*
X31980247Y5397590D01*
X31992334Y5400386D01*
X32036280Y5415982D01*
X32060833Y5427986D01*
X32066372Y5430694D01*
X32072146Y5432837D01*
X32084623Y5433710D01*
X32116141Y5441000D01*
X33150858Y5441000D01*
X33205318Y5428400D01*
X33225108Y5418726D01*
X33230724Y5415980D01*
X33230732Y5415977D01*
X33230737Y5415975D01*
X33274664Y5400386D01*
X33329112Y5387790D01*
X33329115Y5387789D01*
X33329118Y5387789D01*
X33329121Y5387788D01*
X33375439Y5382500D01*
X37213991Y5382500D01*
X37214000Y5382500D01*
X37257684Y5387197D01*
X37286875Y5393548D01*
X37309174Y5398398D01*
X37309190Y5398402D01*
X37309195Y5398403D01*
X37319373Y5400890D01*
X37400085Y5443900D01*
X37452889Y5489655D01*
X37470843Y5507246D01*
X37515490Y5587063D01*
X37535175Y5654102D01*
X37543500Y5712000D01*
X37543500Y8893000D01*
X37538803Y8936684D01*
X37529532Y8979301D01*
X37527602Y8988175D01*
X37527348Y8989211D01*
X37525110Y8998373D01*
X37482100Y9079085D01*
X37436345Y9131889D01*
X37436339Y9131896D01*
X37418757Y9149840D01*
X37418756Y9149841D01*
X37418754Y9149843D01*
X37418752Y9149844D01*
X37418750Y9149846D01*
X37351247Y9187604D01*
X37302348Y9237511D01*
X37287812Y9298576D01*
X37322113Y10842095D01*
X37335306Y11435755D01*
X37356475Y11502341D01*
X37410282Y11546911D01*
X37459275Y11557000D01*
X40516000Y11557000D01*
X40583039Y11537315D01*
G37*
%TD.AperFunction*%
%TD*%
%TA.AperFunction,Conductor*%
%TO.N,GND2*%
G36*
X41352539Y20815815D02*
G01*
X41398294Y20763011D01*
X41409500Y20711500D01*
X41409500Y624500D01*
X41389815Y557461D01*
X41337011Y511706D01*
X41285500Y500500D01*
X624500Y500500D01*
X557461Y520185D01*
X511706Y572989D01*
X500500Y624500D01*
X500500Y8257997D01*
X11605500Y8257997D01*
X11605500Y1520993D01*
X11610197Y1477314D01*
X11621397Y1425826D01*
X11623890Y1415628D01*
X11623891Y1415625D01*
X11666899Y1334917D01*
X11666901Y1334914D01*
X11712660Y1282105D01*
X11730242Y1264161D01*
X11730246Y1264157D01*
X11730247Y1264156D01*
X11730249Y1264155D01*
X11810059Y1219512D01*
X11810063Y1219510D01*
X11877102Y1199825D01*
X11935000Y1191500D01*
X11935004Y1191500D01*
X15369991Y1191500D01*
X15370000Y1191500D01*
X15413684Y1196197D01*
X15442875Y1202548D01*
X15465174Y1207398D01*
X15465190Y1207402D01*
X15465195Y1207403D01*
X15475373Y1209890D01*
X15556085Y1252900D01*
X15608889Y1298655D01*
X15626843Y1316246D01*
X15671490Y1396063D01*
X15691175Y1463102D01*
X15699500Y1521000D01*
X15699500Y6147500D01*
X15719185Y6214539D01*
X15771989Y6260294D01*
X15823500Y6271500D01*
X19179991Y6271500D01*
X19180000Y6271500D01*
X19223684Y6276197D01*
X19252875Y6282548D01*
X19275174Y6287398D01*
X19275190Y6287402D01*
X19275195Y6287403D01*
X19285373Y6289890D01*
X19348727Y6323651D01*
X19417145Y6337806D01*
X19467573Y6322439D01*
X19508563Y6299510D01*
X19575602Y6279825D01*
X19633500Y6271500D01*
X19633504Y6271500D01*
X22206070Y6271500D01*
X22273109Y6251815D01*
X22318864Y6199011D01*
X22328808Y6129853D01*
X22299783Y6066297D01*
X22250286Y6031651D01*
X22243624Y6029109D01*
X22162916Y5986101D01*
X22162913Y5986099D01*
X22110104Y5940340D01*
X22092160Y5922758D01*
X22092154Y5922751D01*
X22047511Y5842941D01*
X22047509Y5842936D01*
X22027826Y5775904D01*
X22019500Y5717997D01*
X22019500Y3806993D01*
X22024197Y3763314D01*
X22035397Y3711826D01*
X22037890Y3701628D01*
X22037891Y3701625D01*
X22080899Y3620917D01*
X22080901Y3620914D01*
X22126660Y3568105D01*
X22144242Y3550161D01*
X22144246Y3550157D01*
X22144247Y3550156D01*
X22144249Y3550155D01*
X22224059Y3505512D01*
X22224063Y3505510D01*
X22291102Y3485825D01*
X22349000Y3477500D01*
X22349004Y3477500D01*
X34250185Y3477500D01*
X34250188Y3477500D01*
X34253859Y3477533D01*
X34258281Y3477612D01*
X34319501Y3488093D01*
X34385796Y3510156D01*
X34409121Y3519540D01*
X34480915Y3576196D01*
X34509110Y3611184D01*
X34518718Y3621789D01*
X34519545Y3622603D01*
X34526216Y3628908D01*
X34526707Y3629644D01*
X34531571Y3634425D01*
X34557519Y3648309D01*
X34582064Y3664525D01*
X34590081Y3665730D01*
X34593177Y3667386D01*
X34598349Y3666972D01*
X34618503Y3670000D01*
X36993499Y3670000D01*
X37060538Y3650315D01*
X37088227Y3626015D01*
X37096845Y3615813D01*
X37116097Y3593020D01*
X37128435Y3580841D01*
X37139467Y3568110D01*
X37157058Y3550157D01*
X37236875Y3505510D01*
X37303914Y3485825D01*
X37361812Y3477500D01*
X37361816Y3477500D01*
X40515991Y3477500D01*
X40516000Y3477500D01*
X40559684Y3482197D01*
X40588875Y3488548D01*
X40611174Y3493398D01*
X40611190Y3493402D01*
X40611195Y3493403D01*
X40621373Y3495890D01*
X40702085Y3538900D01*
X40754889Y3584655D01*
X40772843Y3602246D01*
X40817490Y3682063D01*
X40837175Y3749102D01*
X40845500Y3807000D01*
X40845500Y11433000D01*
X40840803Y11476684D01*
X40836161Y11498021D01*
X40829602Y11528175D01*
X40829348Y11529211D01*
X40827110Y11538373D01*
X40784100Y11619085D01*
X40738345Y11671889D01*
X40738339Y11671896D01*
X40720757Y11689840D01*
X40720756Y11689841D01*
X40720754Y11689843D01*
X40720752Y11689844D01*
X40720750Y11689846D01*
X40640940Y11734489D01*
X40640935Y11734491D01*
X40573903Y11754174D01*
X40573899Y11754175D01*
X40573898Y11754175D01*
X40516000Y11762500D01*
X37459275Y11762500D01*
X37459266Y11762500D01*
X37417828Y11758278D01*
X37417816Y11758276D01*
X37368867Y11748196D01*
X37360839Y11746375D01*
X37360837Y11746374D01*
X37279195Y11705172D01*
X37279194Y11705171D01*
X37225378Y11660593D01*
X37207046Y11643413D01*
X37207044Y11643411D01*
X37207043Y11643409D01*
X37192720Y11619087D01*
X37160633Y11564601D01*
X37139465Y11498021D01*
X37129856Y11440316D01*
X37083264Y9343745D01*
X37062095Y9277159D01*
X37008288Y9232589D01*
X36959295Y9222500D01*
X33778992Y9222500D01*
X33735313Y9217803D01*
X33683825Y9206603D01*
X33673627Y9204110D01*
X33673624Y9204109D01*
X33592916Y9161101D01*
X33592913Y9161099D01*
X33540104Y9115340D01*
X33522160Y9097758D01*
X33522154Y9097751D01*
X33477511Y9017941D01*
X33477509Y9017936D01*
X33457826Y8950904D01*
X33449500Y8892997D01*
X33449500Y6928605D01*
X33429815Y6861566D01*
X33377011Y6815811D01*
X33361885Y6810063D01*
X33350938Y6806704D01*
X33329125Y6804213D01*
X33274665Y6791615D01*
X33230722Y6776020D01*
X33196555Y6759318D01*
X33187239Y6756458D01*
X33173733Y6756294D01*
X33150854Y6751000D01*
X32116146Y6751000D01*
X32061687Y6763599D01*
X32036292Y6776014D01*
X32036278Y6776020D01*
X32036276Y6776021D01*
X31992335Y6791615D01*
X31937876Y6804213D01*
X31914718Y6806857D01*
X31891562Y6809500D01*
X31891561Y6809500D01*
X31874000Y6809500D01*
X31873992Y6809500D01*
X31830313Y6804803D01*
X31778825Y6793603D01*
X31768627Y6791110D01*
X31768624Y6791109D01*
X31687916Y6748101D01*
X31687913Y6748099D01*
X31635104Y6702340D01*
X31617160Y6684758D01*
X31617154Y6684751D01*
X31603290Y6659964D01*
X31594118Y6650978D01*
X31588784Y6639297D01*
X31569639Y6626994D01*
X31553383Y6611066D01*
X31539433Y6607582D01*
X31530006Y6601523D01*
X31495071Y6596500D01*
X31313369Y6596500D01*
X31246330Y6616185D01*
X31200575Y6668989D01*
X31190631Y6738147D01*
X31201968Y6774960D01*
X31211573Y6794607D01*
X31221500Y6862740D01*
X31221500Y7229260D01*
X31211573Y7297393D01*
X31160198Y7402483D01*
X31160197Y7402484D01*
X31155685Y7411714D01*
X31158455Y7413069D01*
X31141034Y7463194D01*
X31156666Y7529789D01*
X31165490Y7545563D01*
X31185175Y7612602D01*
X31193500Y7670500D01*
X31193500Y9909000D01*
X31188803Y9952684D01*
X31184897Y9970636D01*
X31177602Y10004175D01*
X31177348Y10005211D01*
X31175110Y10014373D01*
X31132100Y10095085D01*
X31086345Y10147889D01*
X31086339Y10147896D01*
X31068757Y10165840D01*
X31068756Y10165841D01*
X31068754Y10165843D01*
X31068752Y10165844D01*
X31068750Y10165846D01*
X30988940Y10210489D01*
X30988935Y10210491D01*
X30921903Y10230174D01*
X30921899Y10230175D01*
X30921898Y10230175D01*
X30864000Y10238500D01*
X30863996Y10238500D01*
X27380500Y10238500D01*
X27313461Y10258185D01*
X27267706Y10310989D01*
X27256500Y10362500D01*
X27256500Y12497500D01*
X27276185Y12564539D01*
X27328989Y12610294D01*
X27380500Y12621500D01*
X37086991Y12621500D01*
X37087000Y12621500D01*
X37130684Y12626197D01*
X37159875Y12632548D01*
X37182174Y12637398D01*
X37182190Y12637402D01*
X37182195Y12637403D01*
X37192373Y12639890D01*
X37273085Y12682900D01*
X37325889Y12728655D01*
X37343843Y12746246D01*
X37388490Y12826063D01*
X37408175Y12893102D01*
X37416500Y12951000D01*
X37416500Y13973000D01*
X37411803Y14016684D01*
X37407897Y14034636D01*
X37400602Y14068175D01*
X37400348Y14069211D01*
X37398110Y14078373D01*
X37355100Y14159085D01*
X37309345Y14211889D01*
X37309339Y14211896D01*
X37291757Y14229840D01*
X37291756Y14229841D01*
X37291754Y14229843D01*
X37291752Y14229844D01*
X37291750Y14229846D01*
X37211940Y14274489D01*
X37211935Y14274491D01*
X37144903Y14294174D01*
X37144899Y14294175D01*
X37144898Y14294175D01*
X37087000Y14302500D01*
X37086996Y14302500D01*
X29186500Y14302500D01*
X29119461Y14322185D01*
X29073706Y14374989D01*
X29062500Y14426500D01*
X29062500Y14793261D01*
X29052573Y14861392D01*
X29052573Y14861393D01*
X29001198Y14966483D01*
X29001196Y14966485D01*
X29001196Y14966486D01*
X28918485Y15049197D01*
X28813391Y15100574D01*
X28745261Y15110500D01*
X28745260Y15110500D01*
X27653740Y15110500D01*
X27653739Y15110500D01*
X27585607Y15100574D01*
X27585605Y15100573D01*
X27570163Y15093024D01*
X27501290Y15081267D01*
X27436993Y15108612D01*
X27427136Y15117643D01*
X27425963Y15118840D01*
X27425962Y15118841D01*
X27425960Y15118843D01*
X27425958Y15118844D01*
X27425956Y15118846D01*
X27346146Y15163489D01*
X27346141Y15163491D01*
X27279109Y15183174D01*
X27279105Y15183175D01*
X27279104Y15183175D01*
X27221206Y15191500D01*
X24401416Y15191500D01*
X24401407Y15191500D01*
X24366996Y15188597D01*
X24326029Y15181636D01*
X24292605Y15173015D01*
X24292589Y15173010D01*
X24291010Y15172457D01*
X24290458Y15172364D01*
X24290098Y15172254D01*
X24290084Y15172300D01*
X24250059Y15165500D01*
X23258942Y15165500D01*
X23218940Y15172297D01*
X23218926Y15172247D01*
X23218538Y15172365D01*
X23217988Y15172458D01*
X23216418Y15173008D01*
X23216402Y15173013D01*
X23182973Y15181636D01*
X23142003Y15188597D01*
X23107592Y15191500D01*
X23107584Y15191500D01*
X22567332Y15191500D01*
X22509063Y15183066D01*
X22442055Y15163253D01*
X22442039Y15163248D01*
X22418438Y15154669D01*
X22418433Y15154666D01*
X22345012Y15100650D01*
X22279347Y15076779D01*
X22217070Y15089131D01*
X22203891Y15095574D01*
X22135761Y15105500D01*
X22135760Y15105500D01*
X21044240Y15105500D01*
X21044239Y15105500D01*
X20976111Y15095575D01*
X20976103Y15095572D01*
X20964466Y15089883D01*
X20895592Y15078127D01*
X20831297Y15105473D01*
X20821438Y15114506D01*
X20817191Y15118841D01*
X20817185Y15118846D01*
X20737375Y15163489D01*
X20737370Y15163491D01*
X20670338Y15183174D01*
X20670334Y15183175D01*
X20670333Y15183175D01*
X20612435Y15191500D01*
X20612431Y15191500D01*
X18809157Y15191500D01*
X18742118Y15211185D01*
X18696363Y15263989D01*
X18691289Y15276987D01*
X18688459Y15285648D01*
X18687534Y15291067D01*
X18669584Y15346737D01*
X18666311Y15353432D01*
X18663632Y15361631D01*
X18663214Y15375436D01*
X18657500Y15400144D01*
X18657500Y15709859D01*
X18670098Y15764316D01*
X18687538Y15799992D01*
X18691213Y15806939D01*
X18692440Y15809091D01*
X18712849Y15852379D01*
X18759243Y15904623D01*
X18825009Y15923500D01*
X20453118Y15923500D01*
X20453119Y15923501D01*
X20499868Y15928889D01*
X20554810Y15941725D01*
X20567969Y15945263D01*
X20647326Y15990724D01*
X20698704Y16038075D01*
X20710315Y16050172D01*
X20770934Y16084906D01*
X20840714Y16081353D01*
X20865627Y16068437D01*
X20871016Y16065803D01*
X20871017Y16065802D01*
X20976107Y16014427D01*
X21009923Y16009500D01*
X21044239Y16004500D01*
X21044240Y16004500D01*
X22135761Y16004500D01*
X22170077Y16009500D01*
X22203893Y16014427D01*
X22308983Y16065802D01*
X22328087Y16084906D01*
X22384363Y16141181D01*
X22445686Y16174666D01*
X22472044Y16177500D01*
X22883115Y16177500D01*
X22883147Y16177500D01*
X22889793Y16177608D01*
X22897797Y16177867D01*
X22961654Y16190232D01*
X23013903Y16209316D01*
X23027270Y16214198D01*
X23027273Y16214200D01*
X23027283Y16214203D01*
X23078811Y16241886D01*
X23148689Y16293460D01*
X23149688Y16293988D01*
X23150051Y16294452D01*
X23181367Y16310730D01*
X23217984Y16323542D01*
X23258936Y16330500D01*
X24250060Y16330500D01*
X24291015Y16323541D01*
X24327635Y16310727D01*
X24360314Y16293456D01*
X24430191Y16241884D01*
X24435615Y16238015D01*
X24442187Y16233485D01*
X24482660Y16214206D01*
X24500916Y16205510D01*
X24531540Y16196518D01*
X24567947Y16185827D01*
X24567949Y16185827D01*
X24567955Y16185825D01*
X24625853Y16177500D01*
X25047457Y16177500D01*
X25114496Y16157815D01*
X25135133Y16141186D01*
X25205517Y16070802D01*
X25310607Y16019427D01*
X25344673Y16014464D01*
X25378739Y16009500D01*
X25378740Y16009500D01*
X26470261Y16009500D01*
X26501907Y16014111D01*
X26538393Y16019427D01*
X26643483Y16070802D01*
X26726198Y16153517D01*
X26726202Y16153528D01*
X26726490Y16153928D01*
X26727037Y16154358D01*
X26733463Y16160783D01*
X26734238Y16160008D01*
X26772645Y16190139D01*
X26771525Y16192241D01*
X26778373Y16195890D01*
X26859085Y16238900D01*
X26911889Y16284655D01*
X26929843Y16302246D01*
X26974490Y16382063D01*
X26983523Y16412827D01*
X27021298Y16471604D01*
X27084854Y16500628D01*
X27154013Y16490684D01*
X27206816Y16444928D01*
X27226500Y16377890D01*
X27226500Y16252993D01*
X27231197Y16209314D01*
X27242397Y16157826D01*
X27243451Y16153516D01*
X27244890Y16147627D01*
X27287900Y16066915D01*
X27297176Y16056210D01*
X27333660Y16014105D01*
X27351242Y15996161D01*
X27351246Y15996157D01*
X27351247Y15996156D01*
X27351249Y15996155D01*
X27431059Y15951512D01*
X27431063Y15951510D01*
X27498102Y15931825D01*
X27556000Y15923500D01*
X37536500Y15923500D01*
X37603539Y15903815D01*
X37649294Y15851011D01*
X37660500Y15799500D01*
X37660500Y15355248D01*
X37672131Y15296771D01*
X37672132Y15296770D01*
X37716447Y15230448D01*
X37782769Y15186133D01*
X37782770Y15186132D01*
X37841247Y15174501D01*
X37841250Y15174500D01*
X37841252Y15174500D01*
X40390750Y15174500D01*
X40390751Y15174501D01*
X40405568Y15177448D01*
X40449229Y15186132D01*
X40449229Y15186133D01*
X40449231Y15186133D01*
X40515552Y15230448D01*
X40529286Y15251004D01*
X40582896Y15295808D01*
X40606034Y15303280D01*
X40611181Y15304400D01*
X40611179Y15304400D01*
X40611195Y15304403D01*
X40621373Y15306890D01*
X40702085Y15349900D01*
X40754889Y15395655D01*
X40772843Y15413246D01*
X40817490Y15493063D01*
X40837175Y15560102D01*
X40845500Y15618000D01*
X40845500Y17275000D01*
X40840803Y17318684D01*
X40836897Y17336636D01*
X40829602Y17370175D01*
X40829348Y17371211D01*
X40827110Y17380373D01*
X40784100Y17461085D01*
X40738345Y17513889D01*
X40738339Y17513896D01*
X40720757Y17531840D01*
X40720756Y17531841D01*
X40720754Y17531843D01*
X40720752Y17531844D01*
X40720750Y17531846D01*
X40640940Y17576489D01*
X40640935Y17576491D01*
X40573903Y17596174D01*
X40573899Y17596175D01*
X40573898Y17596175D01*
X40516000Y17604500D01*
X40515996Y17604500D01*
X37661801Y17604500D01*
X37594762Y17624185D01*
X37549007Y17676989D01*
X37539063Y17746145D01*
X37543500Y17777000D01*
X37543500Y19434000D01*
X37538803Y19477684D01*
X37534897Y19495636D01*
X37527602Y19529175D01*
X37527348Y19530211D01*
X37525110Y19539373D01*
X37482100Y19620085D01*
X37436345Y19672889D01*
X37436339Y19672896D01*
X37418757Y19690840D01*
X37418756Y19690841D01*
X37418754Y19690843D01*
X37418752Y19690844D01*
X37418750Y19690846D01*
X37338940Y19735489D01*
X37338935Y19735491D01*
X37271903Y19755174D01*
X37271899Y19755175D01*
X37271898Y19755175D01*
X37214000Y19763500D01*
X15618000Y19763500D01*
X15617992Y19763500D01*
X15574313Y19758803D01*
X15522825Y19747603D01*
X15512627Y19745110D01*
X15512624Y19745109D01*
X15431916Y19702101D01*
X15431913Y19702099D01*
X15379104Y19656340D01*
X15361160Y19638758D01*
X15361154Y19638751D01*
X15316511Y19558941D01*
X15316509Y19558936D01*
X15296826Y19491904D01*
X15296825Y19491899D01*
X15296825Y19491898D01*
X15288502Y19434008D01*
X15288500Y19433997D01*
X15288500Y13664500D01*
X15268815Y13597461D01*
X15216011Y13551706D01*
X15164500Y13540500D01*
X12188992Y13540500D01*
X12145313Y13535803D01*
X12093825Y13524603D01*
X12083627Y13522110D01*
X12083624Y13522109D01*
X12002916Y13479101D01*
X12002913Y13479099D01*
X11950104Y13433340D01*
X11932160Y13415758D01*
X11932154Y13415751D01*
X11887511Y13335941D01*
X11887509Y13335936D01*
X11867826Y13268904D01*
X11867825Y13268899D01*
X11867825Y13268898D01*
X11859500Y13211000D01*
X11859500Y8711500D01*
X11863406Y8675173D01*
X11850999Y8606414D01*
X11803389Y8555277D01*
X11798432Y8552488D01*
X11748920Y8526103D01*
X11748913Y8526099D01*
X11696104Y8480340D01*
X11678160Y8462758D01*
X11678154Y8462751D01*
X11633511Y8382941D01*
X11633509Y8382936D01*
X11613826Y8315904D01*
X11605500Y8257997D01*
X500500Y8257997D01*
X500500Y20711500D01*
X520185Y20778539D01*
X572989Y20824294D01*
X624500Y20835500D01*
X41285500Y20835500D01*
X41352539Y20815815D01*
G37*
%TD.AperFunction*%
%TD*%
%TA.AperFunction,Conductor*%
%TO.N,Net-(Q1-B)*%
G36*
X22614647Y12299315D02*
G01*
X22660402Y12246511D01*
X22670346Y12177353D01*
X22657244Y12143160D01*
X22658806Y12142513D01*
X22654131Y12131230D01*
X22642500Y12072753D01*
X22642500Y10533248D01*
X22654131Y10474771D01*
X22654132Y10474770D01*
X22705233Y10398293D01*
X22703736Y10397293D01*
X22730164Y10348901D01*
X22733000Y10322534D01*
X22733000Y10033000D01*
X25385288Y10033000D01*
X25439748Y10020401D01*
X25503107Y9989427D01*
X25537173Y9984464D01*
X25571239Y9979500D01*
X25571240Y9979500D01*
X26812761Y9979500D01*
X26835471Y9982809D01*
X26880893Y9989427D01*
X26944252Y10020401D01*
X26998712Y10033000D01*
X30864000Y10033000D01*
X30931039Y10013315D01*
X30976794Y9960511D01*
X30988000Y9909000D01*
X30988000Y7670500D01*
X30968315Y7603461D01*
X30915511Y7557706D01*
X30864000Y7546500D01*
X29812739Y7546500D01*
X29744608Y7536574D01*
X29681248Y7505599D01*
X29626788Y7493000D01*
X28964367Y7493000D01*
X28897328Y7512685D01*
X28851573Y7565489D01*
X28841180Y7608419D01*
X28840771Y7608380D01*
X28840506Y7611201D01*
X28840502Y7611219D01*
X28840499Y7611270D01*
X28837646Y7641699D01*
X28837646Y7641700D01*
X28837646Y7641702D01*
X28792793Y7769881D01*
X28792792Y7769883D01*
X28712150Y7879150D01*
X28602882Y7959793D01*
X28602880Y7959794D01*
X28474700Y8004647D01*
X28444270Y8007500D01*
X28444266Y8007500D01*
X27435734Y8007500D01*
X27435730Y8007500D01*
X27405300Y8004647D01*
X27405298Y8004647D01*
X27277119Y7959794D01*
X27277117Y7959793D01*
X27167850Y7879150D01*
X27087207Y7769883D01*
X27087206Y7769881D01*
X27042353Y7641702D01*
X27042353Y7641700D01*
X27039500Y7611278D01*
X27039498Y7611219D01*
X27039494Y7611208D01*
X27039229Y7608380D01*
X27038540Y7608445D01*
X27016710Y7545170D01*
X26961830Y7501927D01*
X26915633Y7493000D01*
X26416000Y7493000D01*
X26416000Y6601000D01*
X26396315Y6533961D01*
X26343511Y6488206D01*
X26292000Y6477000D01*
X24127000Y6477000D01*
X24118314Y6479551D01*
X24109353Y6478262D01*
X24085312Y6489241D01*
X24059961Y6496685D01*
X24054033Y6503526D01*
X24045797Y6507287D01*
X24031507Y6529522D01*
X24014206Y6549489D01*
X24011918Y6560004D01*
X24008023Y6566065D01*
X24003000Y6601000D01*
X24003000Y6726525D01*
X24009958Y6767478D01*
X24011646Y6772301D01*
X24014500Y6802734D01*
X24014500Y7611266D01*
X24011646Y7641699D01*
X24009958Y7646524D01*
X24003000Y7687478D01*
X24003000Y8001000D01*
X23678777Y8001000D01*
X23652317Y8003856D01*
X23648696Y8004647D01*
X23618270Y8007500D01*
X23618266Y8007500D01*
X22609734Y8007500D01*
X22609730Y8007500D01*
X22579303Y8004647D01*
X22575683Y8003856D01*
X22549223Y8001000D01*
X21587000Y8001000D01*
X21519961Y8020685D01*
X21474206Y8073489D01*
X21463000Y8125000D01*
X21463000Y10690539D01*
X21472439Y10737992D01*
X21513235Y10836483D01*
X21525619Y10866380D01*
X21548081Y10979301D01*
X21553500Y11006543D01*
X21553500Y11599458D01*
X21525620Y11739615D01*
X21525619Y11739616D01*
X21525619Y11739620D01*
X21472439Y11868008D01*
X21463000Y11915461D01*
X21463000Y12195000D01*
X21482685Y12262039D01*
X21535489Y12307794D01*
X21587000Y12319000D01*
X22547608Y12319000D01*
X22614647Y12299315D01*
G37*
%TD.AperFunction*%
%TD*%
%TA.AperFunction,Conductor*%
%TO.N,+5V*%
G36*
X37281039Y19538315D02*
G01*
X37326794Y19485511D01*
X37338000Y19434000D01*
X37338000Y17777000D01*
X37318315Y17709961D01*
X37265511Y17664206D01*
X37214000Y17653000D01*
X27126500Y17653000D01*
X27059461Y17672685D01*
X27013706Y17725489D01*
X27002500Y17777000D01*
X27002500Y18544992D01*
X27002499Y18545008D01*
X26997803Y18588684D01*
X26993897Y18606636D01*
X26986602Y18640175D01*
X26986348Y18641211D01*
X26984110Y18650373D01*
X26941100Y18731085D01*
X26895345Y18783889D01*
X26895339Y18783896D01*
X26877757Y18801840D01*
X26877756Y18801841D01*
X26877754Y18801843D01*
X26877752Y18801844D01*
X26877750Y18801846D01*
X26797940Y18846489D01*
X26797935Y18846491D01*
X26730903Y18866174D01*
X26730899Y18866175D01*
X26730898Y18866175D01*
X26673000Y18874500D01*
X20825000Y18874500D01*
X20824992Y18874500D01*
X20781313Y18869803D01*
X20729825Y18858603D01*
X20719627Y18856110D01*
X20719624Y18856109D01*
X20638916Y18813101D01*
X20638913Y18813099D01*
X20586104Y18767340D01*
X20568160Y18749758D01*
X20568154Y18749751D01*
X20523511Y18669941D01*
X20523509Y18669936D01*
X20503826Y18602904D01*
X20503825Y18602899D01*
X20503825Y18602898D01*
X20495502Y18545008D01*
X20495500Y18544997D01*
X20495500Y16506993D01*
X20500197Y16463314D01*
X20511397Y16411826D01*
X20513890Y16401628D01*
X20513891Y16401625D01*
X20560175Y16314770D01*
X20558398Y16313824D01*
X20577058Y16256798D01*
X20559436Y16189187D01*
X20508058Y16141836D01*
X20453116Y16129000D01*
X18542000Y16129000D01*
X18542000Y15991402D01*
X18522315Y15924363D01*
X18518919Y15919351D01*
X18513303Y15911486D01*
X18461926Y15806392D01*
X18452000Y15738261D01*
X18452000Y15371740D01*
X18461926Y15303609D01*
X18484965Y15256482D01*
X18496724Y15187609D01*
X18469380Y15123312D01*
X18454767Y15108309D01*
X18427105Y15084340D01*
X18409160Y15066758D01*
X18409154Y15066751D01*
X18364511Y14986941D01*
X18364509Y14986936D01*
X18344826Y14919904D01*
X18336500Y14861997D01*
X18336500Y13537500D01*
X18316815Y13470461D01*
X18264011Y13424706D01*
X18212500Y13413500D01*
X17522992Y13413500D01*
X17479313Y13408803D01*
X17427825Y13397603D01*
X17417627Y13395110D01*
X17417624Y13395109D01*
X17336916Y13352101D01*
X17336913Y13352099D01*
X17284104Y13306340D01*
X17266160Y13288758D01*
X17266154Y13288751D01*
X17221511Y13208941D01*
X17221509Y13208936D01*
X17201826Y13141904D01*
X17193500Y13083997D01*
X17193500Y10918993D01*
X17198197Y10875314D01*
X17209397Y10823826D01*
X17211890Y10813628D01*
X17211891Y10813625D01*
X17254899Y10732917D01*
X17254901Y10732914D01*
X17300660Y10680105D01*
X17318242Y10662161D01*
X17318246Y10662157D01*
X17335534Y10652487D01*
X17384432Y10602581D01*
X17399000Y10544267D01*
X17399000Y10287000D01*
X18926000Y10287000D01*
X18993039Y10267315D01*
X19038794Y10214511D01*
X19050000Y10163000D01*
X19050000Y8711500D01*
X19030315Y8644461D01*
X18977511Y8598706D01*
X18926000Y8587500D01*
X12189000Y8587500D01*
X12121961Y8607185D01*
X12076206Y8659989D01*
X12065000Y8711500D01*
X12065000Y13211000D01*
X12084685Y13278039D01*
X12137489Y13323794D01*
X12189000Y13335000D01*
X15494000Y13335000D01*
X15494000Y19434000D01*
X15513685Y19501039D01*
X15566489Y19546794D01*
X15618000Y19558000D01*
X37214000Y19558000D01*
X37281039Y19538315D01*
G37*
%TD.AperFunction*%
%TD*%
%TA.AperFunction,Conductor*%
%TO.N,/power_switch_bbB/VBUS*%
G36*
X37281039Y8997315D02*
G01*
X37326794Y8944511D01*
X37338000Y8893000D01*
X37338000Y5712000D01*
X37318315Y5644961D01*
X37265511Y5599206D01*
X37214000Y5588000D01*
X33375439Y5588000D01*
X33320979Y5600599D01*
X33247393Y5636573D01*
X33247391Y5636574D01*
X33179261Y5646500D01*
X33179260Y5646500D01*
X32087740Y5646500D01*
X32087739Y5646500D01*
X32019608Y5636574D01*
X31970581Y5612607D01*
X31946020Y5600599D01*
X31933933Y5597803D01*
X31926496Y5593023D01*
X31891561Y5588000D01*
X31874000Y5588000D01*
X31806961Y5607685D01*
X31761206Y5660489D01*
X31750000Y5712000D01*
X31750000Y6480000D01*
X31769685Y6547039D01*
X31822489Y6592794D01*
X31874000Y6604000D01*
X31891561Y6604000D01*
X31946020Y6591402D01*
X32019607Y6555427D01*
X32053673Y6550464D01*
X32087739Y6545500D01*
X32087740Y6545500D01*
X33179261Y6545500D01*
X33201971Y6548809D01*
X33247393Y6555427D01*
X33320979Y6591402D01*
X33375439Y6604000D01*
X33655000Y6604000D01*
X33655000Y8893000D01*
X33674685Y8960039D01*
X33727489Y9005794D01*
X33779000Y9017000D01*
X37214000Y9017000D01*
X37281039Y8997315D01*
G37*
%TD.AperFunction*%
%TD*%
%TA.AperFunction,Conductor*%
%TO.N,Net-(U4-VOUT)*%
G36*
X26740039Y18649315D02*
G01*
X26785794Y18596511D01*
X26797000Y18545000D01*
X26797000Y16507000D01*
X26777315Y16439961D01*
X26724511Y16394206D01*
X26673000Y16383000D01*
X24625853Y16383000D01*
X24558814Y16402685D01*
X24552220Y16407230D01*
X24442386Y16488291D01*
X24442380Y16488294D01*
X24314200Y16533147D01*
X24283770Y16536000D01*
X24283766Y16536000D01*
X23225234Y16536000D01*
X23225230Y16536000D01*
X23194800Y16533147D01*
X23194798Y16533147D01*
X23066619Y16488294D01*
X23066613Y16488291D01*
X22956780Y16407230D01*
X22891151Y16383259D01*
X22883147Y16383000D01*
X20825000Y16383000D01*
X20757961Y16402685D01*
X20712206Y16455489D01*
X20701000Y16507000D01*
X20701000Y18545000D01*
X20720685Y18612039D01*
X20773489Y18657794D01*
X20825000Y18669000D01*
X26673000Y18669000D01*
X26740039Y18649315D01*
G37*
%TD.AperFunction*%
%TD*%
%TA.AperFunction,Conductor*%
%TO.N,+3V3_1*%
G36*
X40583039Y17379315D02*
G01*
X40628794Y17326511D01*
X40640000Y17275000D01*
X40640000Y15618000D01*
X40620315Y15550961D01*
X40567511Y15505206D01*
X40516000Y15494000D01*
X38224000Y15494000D01*
X38156961Y15513685D01*
X38111206Y15566489D01*
X38100000Y15618000D01*
X38100000Y16129000D01*
X27556000Y16129000D01*
X27488961Y16148685D01*
X27443206Y16201489D01*
X27432000Y16253000D01*
X27432000Y17275000D01*
X27451685Y17342039D01*
X27504489Y17387794D01*
X27556000Y17399000D01*
X40516000Y17399000D01*
X40583039Y17379315D01*
G37*
%TD.AperFunction*%
%TD*%
M02*
