<?xml version="1.0" encoding="UTF-8" standalone="no"?>
<!-- Created with Inkscape (http://www.inkscape.org/) -->

<svg
   version="1.1"
   id="svg1"
   width="1329"
   height="1371"
   viewBox="0 0 1329 1371"
   sodipodi:docname="cerni_kone_logo.svg"
   inkscape:version="1.4 (e7c3feb100, 2024-10-09)"
   xmlns:inkscape="http://www.inkscape.org/namespaces/inkscape"
   xmlns:sodipodi="http://sodipodi.sourceforge.net/DTD/sodipodi-0.dtd"
   xmlns="http://www.w3.org/2000/svg"
   xmlns:svg="http://www.w3.org/2000/svg">
  <defs
     id="defs1" />
  <sodipodi:namedview
     id="namedview1"
     pagecolor="#ffffff"
     bordercolor="#000000"
     borderopacity="0.25"
     inkscape:showpageshadow="2"
     inkscape:pageopacity="0.0"
     inkscape:pagecheckerboard="0"
     inkscape:deskcolor="#d1d1d1"
     inkscape:zoom="22.627417"
     inkscape:cx="666.40395"
     inkscape:cy="677.05474"
     inkscape:window-width="3830"
     inkscape:window-height="1889"
     inkscape:window-x="0"
     inkscape:window-y="266"
     inkscape:window-maximized="1"
     inkscape:current-layer="g1" />
  <g
     inkscape:groupmode="layer"
     inkscape:label="Image"
     id="g1">
    <path
       style="fill:#000000;stroke-width:0.0344215"
       d="m 667.48354,695.3774 c -0.44874,-0.0335 -0.97727,-0.13488 -1.38899,-0.26942 -0.39479,-0.12885 -11.58458,-4.99352 -11.90775,-5.17683 -0.67431,-0.38247 -1.34517,-1.11786 -1.73886,-1.9062 -0.16834,-0.33672 -0.249,-0.55242 -0.35831,-0.95749 l -0.093,-0.34425 -0.01,-9.39704 c -0.007,-6.5795 3.4e-4,-9.49453 0.0268,-9.72232 0.0944,-0.82491 0.54596,-1.63323 1.18808,-2.12689 0.27979,-0.2152 0.83857,-0.49787 1.13587,-0.57464 0.4493,-0.11614 0.93968,-0.12584 5.76559,-0.1158 l 4.76739,0.01 0.19444,0.091 c 0.23696,0.11112 0.437,0.3049 0.54834,0.53107 0.0696,0.14124 0.0833,0.22089 0.0833,0.47926 0,0.25838 -0.0134,0.338 -0.0833,0.47927 -0.10073,0.20449 -0.2915,0.40201 -0.49174,0.50891 l -0.1476,0.079 -4.99108,0.0167 c -4.70426,0.0167 -5.00025,0.0201 -5.15055,0.0793 -0.22825,0.0887 -0.42384,0.27075 -0.53549,0.4981 l -0.0967,0.19713 -0.01,9.25145 c -0.01,10.28977 -0.0268,9.49086 0.22925,10.01985 0.22491,0.46253 0.5873,0.84738 0.98453,1.04571 0.49429,0.24699 11.38564,4.9462 11.60399,5.00681 0.24231,0.0673 0.35472,0.0753 1.04584,0.0753 0.69021,0 0.8039,-0.007 1.04464,-0.075 0.25469,-0.0706 11.23252,-4.8154 11.67403,-5.04563 0.41741,-0.21754 0.84075,-0.74547 1.04403,-1.30184 l 0.092,-0.25134 0.0167,-6.05814 0.0167,-6.05814 0.10141,-0.18307 c 0.43488,-0.785 1.5737,-0.75287 1.97073,0.0556 l 0.0964,0.19646 v 6.09258 c 0,5.66278 -0.003,6.11216 -0.0599,6.37003 -0.0934,0.43177 -0.18441,0.68703 -0.40527,1.13379 -0.40211,0.81415 -1.07736,1.54555 -1.78943,1.93827 -0.29853,0.16466 -11.51433,5.03037 -11.84395,5.13827 -0.43392,0.14191 -0.92278,0.23294 -1.46346,0.27176 -0.5218,0.0375 -0.5135,0.0375 -1.06545,-0.003 z m -1.48669,-5.45445 c -0.37842,-0.10174 -0.6475,-0.3079 -0.77317,-0.59205 -0.0371,-0.0837 -0.089,-0.31761 -0.1158,-0.51942 -0.0268,-0.20181 -0.0954,-0.56072 -0.15329,-0.79734 -0.15161,-0.62123 -0.85634,-2.71188 -1.06712,-3.1654 -0.24198,-0.521 -0.26072,-0.71799 -0.0967,-1.02576 0.0633,-0.11848 0.27343,-0.44747 0.46701,-0.73098 0.52896,-0.77415 0.70647,-1.16699 0.81615,-1.80566 0.096,-0.56006 -0.0234,-0.85186 -0.58399,-1.43006 -0.42989,-0.44315 -0.56935,-0.6317 -0.69412,-0.93877 -0.0833,-0.20516 -0.23528,-0.88356 -0.38943,-1.73746 -0.0418,-0.23193 -0.086,-0.42133 -0.0984,-0.42093 -0.0686,0.002 -0.22189,0.19713 -0.70266,0.8942 -0.68867,0.99808 -0.76003,1.12235 -0.8687,1.51242 -0.11111,0.39894 -0.20147,0.55677 -0.50801,0.8873 -0.30991,0.33435 -0.41219,0.55453 -0.43203,0.93122 -0.007,0.15663 0.003,0.38113 0.0268,0.49907 0.0967,0.488 0.0338,1.0263 -0.1583,1.35432 -0.27444,0.46851 -1.12647,0.92231 -1.88907,1.00628 -0.55544,0.0612 -1.06649,-0.0395 -1.39906,-0.27544 -0.26976,-0.19144 -0.40805,-0.34432 -0.40805,-0.45102 0,-0.10944 0.0101,-0.11546 0.62843,-0.35071 0.65765,-0.25034 0.79273,-0.4068 0.78597,-0.91046 -0.002,-0.16801 0.0134,-0.38843 0.0338,-0.49004 0.0579,-0.28147 0.249,-0.63773 0.49957,-0.93228 0.13321,-0.15664 0.22123,-0.29051 0.21453,-0.32598 -0.007,-0.0335 -0.0656,-0.095 -0.13186,-0.13789 -0.0663,-0.0428 -0.18173,-0.12015 -0.25636,-0.17203 l -0.13622,-0.0944 0.26206,-0.0405 c 0.48548,-0.075 0.89801,-0.3724 1.37864,-0.9936 0.36738,-0.47491 0.47421,-0.71337 0.57833,-1.29136 0.0827,-0.45855 0.21352,-0.7207 0.52705,-1.05655 0.26942,-0.28816 0.96341,-0.82566 1.14899,-0.88945 0.081,-0.0268 0.24666,-0.0361 0.49034,-0.0234 0.47538,0.0234 0.6539,-0.0301 0.8686,-0.26071 0.25803,-0.27578 0.41453,-0.67047 0.64416,-1.62444 0.16165,-0.6723 0.23226,-0.88506 0.39632,-1.19624 0.1891,-0.35855 0.35908,-0.52897 1.03149,-1.03336 0.88763,-0.66581 1.26241,-0.98041 1.65937,-1.39307 0.90367,-0.93925 1.49917,-1.87137 1.83221,-2.86784 0.17403,-0.5204 0.26306,-0.95675 0.33033,-1.6157 0.0301,-0.28381 0.1014,-0.83881 0.16131,-1.23296 0.094,-0.62214 0.10208,-0.72321 0.0592,-0.76602 -0.0428,-0.0428 -0.0763,-0.0268 -0.25436,0.12618 -0.23963,0.20482 -0.3992,0.29117 -0.481,0.25971 -0.0472,-0.0167 -0.0542,-0.0499 -0.0365,-0.16835 0.0134,-0.0803 0.0301,-0.26205 0.0412,-0.40416 0.0234,-0.31593 -0.0546,-0.58334 -0.27812,-0.94657 -0.28448,-0.46233 -0.3059,-0.5214 -0.32163,-0.88647 -0.0134,-0.29418 -0.003,-0.37173 0.078,-0.62702 0.10676,-0.33522 0.0957,-0.41199 -0.0699,-0.49108 -0.18407,-0.0877 -0.19545,-0.23126 -0.0268,-0.32196 0.0485,-0.0268 0.14692,-0.11379 0.21821,-0.19478 0.1573,-0.17872 0.22892,-0.43144 0.25637,-0.90678 0.0335,-0.5785 0.17704,-0.99457 0.63964,-1.85349 0.13152,-0.24432 0.23929,-0.47495 0.23929,-0.5122 0,-0.0733 -0.19378,-0.26172 -0.3059,-0.29719 -0.076,-0.0234 -0.1255,-0.13321 -0.088,-0.19412 0.0134,-0.0201 0.10978,-0.0766 0.21487,-0.12316 0.32196,-0.14257 0.46992,-0.2731 0.6887,-0.60905 0.28147,-0.43184 0.67448,-0.79928 1.28798,-1.20364 0.27478,-0.18107 0.50942,-0.35463 0.52123,-0.38539 0.0435,-0.11345 0.0167,-0.2336 -0.12918,-0.61089 -0.25938,-0.66471 -0.27511,-0.71394 -0.2393,-0.75002 0.0234,-0.0234 0.18809,0.087 0.47859,0.3146 0.24466,0.19144 0.49774,0.37143 0.56243,0.39964 0.12952,0.0566 0.33234,0.0492 0.68235,-0.0234 0.26138,-0.0552 0.51283,-0.0167 0.9125,0.13922 0.17504,0.0683 0.29653,0.0967 0.35299,0.0823 0.0475,-0.0134 0.20416,-0.15161 0.34847,-0.31058 0.14425,-0.15897 0.28247,-0.28883 0.30757,-0.28883 0.0479,0 0.0432,0.0817 -0.0234,0.43927 -0.0428,0.22624 0,0.37006 0.15228,0.51424 0.0613,0.0579 0.55269,0.38106 1.09223,0.71812 1.65188,1.03198 1.62142,1.01056 1.73525,1.22004 0.20281,0.37337 0.15495,0.85594 -0.12015,1.20364 -0.15228,0.19244 -0.8206,0.6548 -0.94681,0.6548 -0.0773,0 -0.18642,-0.0806 -0.18642,-0.13755 0,-0.0756 -0.12149,-0.13421 -0.32296,-0.15562 -0.3146,-0.0338 -0.46521,0.003 -0.72659,0.17403 -0.22725,0.14927 -0.54958,0.29084 -0.66401,0.29184 -0.0335,0 -0.16299,-0.0335 -0.2905,-0.0746 -0.26172,-0.085 -0.35694,-0.0663 -0.46049,0.092 -0.0519,0.079 -0.0545,0.12484 -0.0234,0.38937 0.0432,0.35034 0.18273,0.79758 0.58157,1.86477 0.35352,0.9457 0.56504,1.38798 0.83519,1.74649 0.23361,0.31025 0.42136,0.46414 0.91478,0.75069 0.18943,0.10977 0.41119,0.25067 0.49305,0.31259 0.21018,0.15897 0.35336,0.20081 0.50999,0.14893 0.0689,-0.0234 0.32062,-0.1573 0.55938,-0.29853 0.23863,-0.14157 0.49148,-0.28682 0.56173,-0.32263 0.15864,-0.0813 0.42062,-0.083 0.5629,-0.003 0.24364,0.13588 0.62203,0.42427 0.67367,0.51343 0.10777,0.18642 0.17671,0.7128 0.15094,1.1513 l -0.0234,0.40118 0.22825,-0.0827 c 0.29017,-0.10543 0.46962,-0.10442 0.70125,0.003 0.34426,0.16031 0.79574,0.70725 0.79698,0.96555 0,0.15028 0.1593,0.52646 0.58301,1.3832 0.54713,1.10639 0.54051,1.08711 0.48298,1.4 -0.0596,0.32498 -0.0492,0.51206 0.0515,0.90946 0.13487,0.53198 0.19076,0.91756 0.19076,1.31292 0,0.45781 -0.0301,0.50275 -0.31627,0.46657 -0.42755,-0.0542 -1.11261,-0.30188 -1.23018,-0.44512 -0.0418,-0.0509 -0.0432,-0.12986 -0.01,-0.51594 0.0445,-0.51641 0.0632,-0.58218 0.2316,-0.80236 0.0663,-0.087 0.12048,-0.19546 0.12048,-0.24097 0,-0.0455 -0.0452,-0.18876 -0.10007,-0.31828 -0.0576,-0.13521 -0.11044,-0.33582 -0.12416,-0.47137 -0.0589,-0.5799 -0.22792,-1.13299 -0.5211,-1.7064 -0.20683,-0.40472 -0.37555,-0.57782 -0.5625,-0.57782 -0.15964,0 -0.20817,0.0971 -0.26205,0.52233 -0.0666,0.52773 -0.11814,0.65206 -0.36577,0.88473 -0.11279,0.10576 -0.29051,0.32096 -0.39489,0.47786 -0.18843,0.28314 -0.6448,0.74078 -1.20207,1.20545 -0.34067,0.28414 -0.50989,0.3146 -0.61501,0.11144 -0.0388,-0.0753 -0.11981,-0.77816 -0.12082,-1.04731 -7e-5,-0.0167 -0.0971,0.0619 -0.21553,0.17537 -0.30657,0.29452 -0.39646,0.33475 -0.74999,0.33636 -0.21687,0 -0.31761,0.0167 -0.38311,0.0596 -0.18039,0.11814 -0.58036,0.89831 -0.9054,1.766 -0.25938,0.69206 -0.46267,1.11017 -0.68051,1.3987 -0.34057,0.45121 -1.1181,1.29461 -2.26438,2.45625 -1.34056,1.35856 -1.38473,1.4161 -1.43156,1.86403 -0.0335,0.3069 0.0522,0.57398 0.40035,1.26854 l 0.31058,0.61959 v 0.28816 c 0,0.32431 -0.081,0.60152 -0.43307,1.4907 -0.34138,0.8626 -0.47528,1.10688 -1.27048,2.31779 -0.42545,0.64791 -0.83868,1.30321 -0.91826,1.45629 -0.12886,0.24767 -0.14626,0.30992 -0.15998,0.56836 -0.0167,0.34482 0.0348,0.53686 0.2326,0.84272 0.19211,0.29753 0.42658,0.51286 1.22623,1.1273 0.92519,0.711 1.18742,0.95565 1.31864,1.23075 0.27009,0.56615 0.58877,1.34224 0.58877,1.43381 0,0.0706 -0.0268,0.11948 -0.0847,0.15796 -0.079,0.0519 -0.10877,0.0495 -0.45604,-0.0375 -0.79981,-0.20014 -0.94242,-0.30288 -1.22861,-0.8871 -0.16064,-0.32765 -0.24264,-0.44516 -0.54616,-0.78148 -0.71364,-0.79071 -1.35522,-1.3434 -2.27435,-1.95922 -0.3059,-0.20482 -0.63117,-0.43916 -0.72278,-0.52036 -0.20649,-0.1834 -0.50466,-0.60188 -0.50466,-0.70895 0,-0.11044 0.21687,-0.51316 0.77576,-1.44113 0.26238,-0.43542 0.50325,-0.8459 0.53558,-0.91217 0.14994,-0.30724 0.10242,-0.67247 -0.13353,-1.0279 -0.13019,-0.19579 -0.48579,-0.48666 -0.5956,-0.48666 -0.10509,0 -0.16065,0.12885 -0.32129,0.7465 -0.24499,0.94303 -0.67251,1.94433 -1.10706,2.59357 -0.35479,0.53 -0.4069,0.67164 -0.6055,1.64606 -0.12952,0.63606 -0.14492,0.76113 -0.14458,1.19253 0,0.42685 0.01,0.51728 0.0947,0.79165 0.11413,0.37464 0.27846,0.78452 0.60504,1.51044 0.33742,0.75026 0.4228,0.91318 0.5714,1.09026 0.0706,0.0843 0.1496,0.20348 0.1757,0.2654 0.0412,0.0974 0.0402,0.12283 -0.007,0.19512 -0.12149,0.18541 -0.48073,0.24298 -0.86769,0.13889 z m 11.96056,-23.52538 c 0.10676,-0.084 0.25134,-0.088 0.41276,-0.01 0.17738,0.0843 0.22256,0.0382 0.29519,-0.30188 0.0666,-0.31126 0.0797,-0.86609 0.0234,-1.01248 -0.0402,-0.10576 -0.15764,-0.15529 -0.27478,-0.11613 -0.38146,0.12785 -0.85725,0.30088 -0.92073,0.33505 -0.0425,0.0234 -0.10007,0.086 -0.12819,0.14056 -0.0566,0.10944 -0.0335,0.20951 0.17002,0.69061 0.14927,0.3557 0.24264,0.41648 0.42186,0.27545 z"
       id="path1"
       inkscape:transform-center-x="7.2177713"
       inkscape:transform-center-y="-23.309315" />
  </g>
</svg>
